<?xml version="1.0" encoding="UTF-8"?>
<svg version="1.1" xmlns="http://www.w3.org/2000/svg" width="512" height="512">
<path d="M0 0 C7.56639297 6.00906884 10.70271297 12.09103252 12.87890625 21.4921875 C12.87890625 28.0921875 12.87890625 34.6921875 12.87890625 41.4921875 C40.26890625 41.4921875 67.65890625 41.4921875 95.87890625 41.4921875 C95.87890625 33.9021875 95.87890625 26.3121875 95.87890625 18.4921875 C100.85105659 7.30484923 104.601013 0.67899468 115.87890625 -4.5078125 C125.10199269 -7.67872486 133.91980937 -7.21072096 142.87890625 -3.5078125 C151.93903652 1.36740045 157.44224668 7.80552449 160.87890625 17.4921875 C162.2415977 22.36271048 161.99001213 27.29080432 161.94140625 32.3046875 C161.93689453 33.18833984 161.93238281 34.07199219 161.92773438 34.98242188 C161.91600491 37.15237309 161.8980712 39.32228922 161.87890625 41.4921875 C162.85649902 41.48171387 163.8340918 41.47124023 164.84130859 41.46044922 C168.51281994 41.42389776 172.18431564 41.40116088 175.85595703 41.38232422 C177.43671383 41.37234591 179.01745256 41.35875843 180.59814453 41.34130859 C196.29680356 41.17250581 211.19017066 42.29466134 223.2890625 53.68359375 C233.89822135 65.75248945 235.35454383 78.84601485 235.3125 94.36328125 C235.31707301 95.85873143 235.32238187 97.35417951 235.3283844 98.84962463 C235.33724727 101.95835 235.33496578 105.06681741 235.32495117 108.17553711 C235.31338502 112.15234896 235.33382265 116.12828284 235.36286831 120.10497952 C235.3812199 123.18227231 235.38094146 126.25935331 235.37523079 129.33668709 C235.3750779 130.80346992 235.3810957 132.2702674 235.39352226 133.7369976 C235.40843726 135.78283053 235.39776022 137.82702057 235.38061523 139.87280273 C235.38036598 141.6138755 235.38036598 141.6138755 235.38011169 143.39012146 C234.77408526 147.1409467 233.50445648 148.7974819 230.87890625 151.4921875 C228.21082613 152.82622756 226.18569049 152.62008899 223.19631481 152.62361526 C221.97971115 152.62745641 220.76310749 152.63129755 219.50963706 152.6352551 C218.14730905 152.63447476 216.78498109 152.63359596 215.4226532 152.63262939 C213.98493441 152.63521158 212.54721634 152.63822432 211.10949928 152.6416328 C207.14451819 152.64972335 203.17955519 152.65149351 199.21456683 152.65223026 C194.94384118 152.65407726 190.67312499 152.66162279 186.40240479 152.66836548 C177.0574455 152.68196391 167.71249049 152.68797587 158.36752295 152.69237614 C152.53578904 152.69513601 146.70405678 152.69937289 140.87232399 152.70388031 C124.73550235 152.71607495 108.59868204 152.72637388 92.46185589 152.7297554 C90.91180348 152.73008475 90.91180348 152.73008475 89.33043687 152.73042075 C88.29455352 152.73063903 87.25867017 152.73085731 86.19139642 152.7310822 C84.09219722 152.73152567 81.99299802 152.73197224 79.89379883 152.73242188 C78.33187583 152.73275402 78.33187583 152.73275402 76.73839883 152.73309287 C59.86101655 152.73704196 42.98367742 152.7544985 26.10631182 152.7777814 C8.79104262 152.80147618 -8.52420491 152.8139564 -25.83949059 152.81512332 C-35.56641659 152.81604114 -45.29328637 152.82182022 -55.02019691 152.83994293 C-63.30210875 152.85531867 -71.58394701 152.86047937 -79.86587039 152.85220483 C-84.09329042 152.84828933 -88.32056217 152.84927158 -92.5479641 152.86326218 C-96.41623366 152.87594742 -100.2842427 152.87485127 -104.15251162 152.86267146 C-105.55361071 152.86070509 -106.95472792 152.86383607 -108.3558015 152.87251583 C-110.25749732 152.88355319 -112.15927858 152.87435922 -114.06097889 152.8641243 C-115.1181753 152.86472139 -116.17537172 152.86531847 -117.26460439 152.86593366 C-120.56490392 152.4341189 -122.45183551 151.45006225 -125.12109375 149.4921875 C-126.57755746 146.57926008 -126.27259824 144.0080797 -126.2980957 140.75439453 C-126.3046669 140.06136734 -126.3112381 139.36834015 -126.31800842 138.65431213 C-126.33776749 136.35287363 -126.34941676 134.05150083 -126.359375 131.75 C-126.36345053 130.9614349 -126.36752605 130.1728698 -126.37172508 129.36040878 C-126.3926082 125.17744966 -126.40689377 120.99452345 -126.41625977 116.81152344 C-126.42726064 112.5168429 -126.46157955 108.22268964 -126.50143147 103.92819405 C-126.5277646 100.60616182 -126.53596682 97.28425125 -126.53954124 93.96212387 C-126.54437323 92.38108683 -126.5558889 90.80005397 -126.57457924 89.21912003 C-126.74162968 74.1376743 -124.19739984 62.86818294 -113.46484375 51.78125 C-107.08342734 45.8513489 -98.73464478 41.35140494 -89.90332031 41.37866211 C-89.08277161 41.37873764 -88.2622229 41.37881317 -87.41680908 41.37889099 C-86.54062927 41.38405228 -85.66444946 41.38921356 -84.76171875 41.39453125 C-83.40515167 41.39665367 -83.40515167 41.39665367 -82.0211792 41.39881897 C-79.13778348 41.40440839 -76.25446593 41.41695897 -73.37109375 41.4296875 C-71.41406362 41.43470387 -69.45703228 41.43926654 -67.5 41.44335938 C-62.70700122 41.45437437 -57.91406073 41.47163176 -53.12109375 41.4921875 C-53.14204102 40.87811035 -53.16298828 40.2640332 -53.18457031 39.63134766 C-53.26877409 36.79346733 -53.32007798 33.95585098 -53.37109375 31.1171875 C-53.40460938 30.15167969 -53.438125 29.18617187 -53.47265625 28.19140625 C-53.60001305 18.70332454 -50.87628268 9.4515635 -44.12109375 2.4921875 C-30.74868976 -8.05471765 -14.40259876 -9.83450178 0 0 Z M-33.12109375 15.4921875 C-37.45782806 22.41955262 -37.70867201 28.18248273 -37.65234375 36.2421875 C-37.65617065 37.45487305 -37.65999756 38.66755859 -37.66394043 39.91699219 C-37.66665329 42.47201369 -37.65933624 45.02706326 -37.64257812 47.58203125 C-37.62116181 51.47980007 -37.64240354 55.37572561 -37.66796875 59.2734375 C-37.66532537 61.76302488 -37.66020017 64.25261111 -37.65234375 66.7421875 C-37.66044067 67.90073242 -37.6685376 69.05927734 -37.67687988 70.25292969 C-37.58484755 78.2435709 -36.51449261 83.80792588 -30.93359375 89.8671875 C-26.51142783 92.4222167 -22.12209087 93.91778346 -16.97265625 93.1875 C-11.51004115 91.49220566 -8.33507529 88.10742051 -5.12109375 83.4921875 C-3.79690628 80.84381256 -3.97207522 78.81841028 -3.9440918 75.85253906 C-3.93125656 74.67081116 -3.91842133 73.48908325 -3.90519714 72.27154541 C-3.89781021 70.98826355 -3.89042328 69.70498169 -3.8828125 68.3828125 C-3.87474075 67.06810974 -3.86666901 65.75340698 -3.85835266 64.39886475 C-3.84332341 61.61128874 -3.8334873 58.82373823 -3.82592773 56.03613281 C-3.8148808 52.47395122 -3.78050246 48.91239734 -3.74075603 45.35043716 C-3.70824033 41.94458781 -3.70380628 38.53880506 -3.6953125 35.1328125 C-3.67780441 33.85762756 -3.66029633 32.58244263 -3.64225769 31.26861572 C-3.61523499 22.56089633 -3.61523499 22.56089633 -8.12109375 15.4921875 C-13.03410918 11.16405486 -15.98394812 10.06282123 -22.44921875 10.15625 C-26.78272486 10.70110603 -30.10630555 12.33258415 -33.12109375 15.4921875 Z M116.87890625 14.4921875 C113.16002117 19.28759195 111.76319442 22.84429801 111.7019043 28.84643555 C111.68906906 29.94154953 111.67623383 31.03666351 111.66300964 32.16496277 C111.65562271 33.34931412 111.64823578 34.53366547 111.640625 35.75390625 C111.63255325 36.97366653 111.62448151 38.19342682 111.61616516 39.45014954 C111.60232395 42.03502989 111.59160197 44.61992853 111.58374023 47.20483398 C111.56655021 51.14667708 111.52266493 55.08767663 111.47851562 59.02929688 C111.46838662 61.5416605 111.45987117 64.05403126 111.453125 66.56640625 C111.43561691 67.74063644 111.41810883 68.91486664 111.40007019 70.12467957 C111.42133486 78.1991434 112.4254256 83.74269423 118.06640625 89.8671875 C122.48205715 92.41845246 126.92471656 93.99952598 132.0625 93.1171875 C137.31684225 91.36905095 141.03514496 88.4588133 143.99356079 83.69869995 C145.1158386 80.90169011 145.147321 78.63890646 145.16943359 75.62548828 C145.1821933 74.44391144 145.194953 73.26233459 145.20809937 72.04495239 C145.21032501 70.7719931 145.21255066 69.49903381 145.21484375 68.1875 C145.22150055 66.87562714 145.22815735 65.56375427 145.23501587 64.21212769 C145.2469782 61.43646962 145.25069781 58.66093592 145.24951172 55.88525391 C145.24930863 52.33877612 145.2766031 48.79310063 145.31105614 45.24681282 C145.3387219 41.85203034 145.33747561 38.45739368 145.33984375 35.0625 C145.35421478 33.79358917 145.36858582 32.52467834 145.38339233 31.21731567 C145.37563091 22.5404864 145.37563091 22.5404864 140.87890625 15.4921875 C136.13472349 11.21085184 132.47996723 10.12333051 126.2265625 10.21484375 C122.2314553 10.68681149 120.12080332 12.07665635 116.87890625 14.4921875 Z M-102.99609375 64.5546875 C-118.18404504 83.69150613 -110.12109375 115.4559213 -110.12109375 135.4921875 C-1.88109375 135.4921875 106.35890625 135.4921875 217.87890625 135.4921875 C222.84044994 97.03780065 222.84044994 97.03780065 209.56640625 64.0546875 C203.64109963 59.05474363 196.66266723 58.04482938 189.22265625 58.19921875 C188.43491821 58.20346359 187.64718018 58.20770844 186.83557129 58.21208191 C184.34965035 58.22871133 181.86457706 58.26633136 179.37890625 58.3046875 C177.68100139 58.31975479 175.98308367 58.33343959 174.28515625 58.34570312 C170.14941906 58.37856284 166.01430575 58.43023276 161.87890625 58.4921875 C161.8648877 59.435177 161.8648877 59.435177 161.85058594 60.3972168 C161.2738945 91.30392018 161.2738945 91.30392018 151.0234375 101.6875 C147.86636437 104.34427192 144.7399852 106.07463113 140.87890625 107.4921875 C139.76515625 107.9046875 138.65140625 108.3171875 137.50390625 108.7421875 C127.30037584 110.85326276 118.06258498 109.25433046 109.12890625 103.8671875 C102.44232313 99.10965402 99.43061213 93.14730514 96.87890625 85.4921875 C96.54890625 76.5821875 96.21890625 67.6721875 95.87890625 58.4921875 C68.48890625 58.4921875 41.09890625 58.4921875 12.87890625 58.4921875 C12.54890625 66.0821875 12.21890625 73.6721875 11.87890625 81.4921875 C9.00518365 91.07126284 5.66569522 99.14784183 -3.12109375 104.4921875 C-11.63871656 108.77910987 -20.56016909 110.14168551 -29.88671875 107.796875 C-38.93542471 104.49381976 -45.94718909 99.29297872 -50.12109375 90.4921875 C-51.74635466 86.21860831 -52.40476821 82.56358151 -52.53515625 78 C-52.59316406 76.20175781 -52.59316406 76.20175781 -52.65234375 74.3671875 C-52.68328125 73.1296875 -52.71421875 71.8921875 -52.74609375 70.6171875 C-52.80410156 68.72613281 -52.80410156 68.72613281 -52.86328125 66.796875 C-52.95726364 63.69545613 -53.04292786 60.59403864 -53.12109375 57.4921875 C-58.06488324 57.39243697 -63.00807197 57.32030848 -67.95263672 57.27246094 C-69.63047506 57.25249051 -71.30824511 57.22530418 -72.98583984 57.19042969 C-84.16307331 56.96408905 -94.10459511 56.78329574 -102.99609375 64.5546875 Z " fill="#000000" transform="translate(149.12109375,13.5078125)"/>
<path d="M0 0 C0.69722168 0.21430664 1.39444336 0.42861328 2.11279297 0.64941406 C30.74663179 9.78829781 55.1830919 30.41332756 69.28100586 56.91430664 C83.94274742 85.6721415 86.35444134 118.45205695 76.71484375 149.2265625 C71.83649338 163.72586216 64.14945213 176.59073825 54 188 C53.30390625 188.83917969 52.6078125 189.67835938 51.890625 190.54296875 C33.42902822 212.27240292 4.88121367 224.85764104 -23.09765625 227.6875 C-53.9377315 230.1571757 -83.85564068 221.60504377 -107.70703125 201.74609375 C-110.19365166 199.54977004 -112.60448431 197.29503265 -115 195 C-115.74765625 194.31550781 -116.4953125 193.63101563 -117.265625 192.92578125 C-137.75067854 173.55093166 -149.1476559 145.02788405 -150.21875 117.09375 C-151.01710561 84.53590436 -140.67170487 55.49043085 -118.3984375 31.46875 C-88.12694924 0.30982398 -42.08694957 -12.99700393 0 0 Z M-102.28515625 39.24609375 C-119.42768555 56.63527814 -131.98210844 78.06165672 -133 103 C-131.35451172 103.05607422 -131.35451172 103.05607422 -129.67578125 103.11328125 C-128.22132143 103.17896653 -126.76689584 103.24541299 -125.3125 103.3125 C-124.59126953 103.33505859 -123.87003906 103.35761719 -123.12695312 103.38085938 C-118.69456078 103.60349095 -115.55560902 104.07907743 -112 107 C-111.00103071 110.9245222 -110.61362863 114.14896842 -112 118 C-114.73249341 118.75277515 -117.28100683 119.16641703 -120.109375 119.31640625 C-120.86347656 119.35830078 -121.61757813 119.40019531 -122.39453125 119.44335938 C-123.17183594 119.48267578 -123.94914062 119.52199219 -124.75 119.5625 C-125.54277344 119.60568359 -126.33554687 119.64886719 -127.15234375 119.69335938 C-129.10137815 119.79902991 -131.05066748 119.89997966 -133 120 C-132.50389882 140.88134951 -123.03290491 160.12659018 -110 176 C-109.19175781 177.05380859 -109.19175781 177.05380859 -108.3671875 178.12890625 C-92.95006391 197.30346951 -68.82775837 207.71539969 -45 211 C-44.01 211 -43.02 211 -42 211 C-41.97421875 209.74703125 -41.9484375 208.4940625 -41.921875 207.203125 C-41.86558831 205.55204877 -41.8082411 203.90100845 -41.75 202.25 C-41.73582031 201.425 -41.72164063 200.6 -41.70703125 199.75 C-41.46031694 193.63148522 -41.46031694 193.63148522 -39.140625 190.44921875 C-36.21723734 188.47006396 -34.46280413 188.49500773 -31 189 C-28.859375 189.921875 -28.859375 189.921875 -27 192 C-26.34598366 195.21700099 -26.30270961 198.41231659 -26.25 201.6875 C-26.22035156 202.58017578 -26.19070313 203.47285156 -26.16015625 204.39257812 C-26.08948573 206.59514277 -26.03678061 208.79665131 -26 211 C0.15099507 209.4946595 23.87475059 196.74945931 41.34765625 177.51660156 C52.84586054 164.25934363 59.89027339 148.95262225 64 132 C64.20625 131.15953125 64.4125 130.3190625 64.625 129.453125 C65.10928243 126.28511075 65.06272703 123.19907871 65 120 C63.22882813 119.94392578 63.22882813 119.94392578 61.421875 119.88671875 C59.86455212 119.82104851 58.30726186 119.75460153 56.75 119.6875 C55.97269531 119.66494141 55.19539062 119.64238281 54.39453125 119.61914062 C47.07588633 119.27510176 47.07588633 119.27510176 44 116 C42.8986085 113.0105088 42.89702737 111.40252937 43.6875 108.3125 C45.28654711 105.49513129 45.9802875 105.10997458 49 104 C51.77394833 103.7047806 54.4700511 103.49287769 57.25 103.375 C57.99507812 103.33632813 58.74015625 103.29765625 59.5078125 103.2578125 C61.3381524 103.16394892 63.16904143 103.08090282 65 103 C65.94221253 80.82856135 52.66611363 59.08107026 38.703125 42.92578125 C21.76442146 24.59183768 -1.56374413 14.784341 -26 12 C-26.01458252 12.55985596 -26.02916504 13.11971191 -26.04418945 13.6965332 C-26.11871352 16.23588137 -26.21535581 18.77392078 -26.3125 21.3125 C-26.33505859 22.19357422 -26.35761719 23.07464844 -26.38085938 23.98242188 C-26.4340332 25.25375977 -26.4340332 25.25375977 -26.48828125 26.55078125 C-26.51446533 27.33106689 -26.54064941 28.11135254 -26.56762695 28.9152832 C-27.10022925 31.48326232 -27.96024849 32.3967785 -30 34 C-31.9375 34.43359375 -31.9375 34.43359375 -34 34.4375 C-35.0209375 34.46650391 -35.0209375 34.46650391 -36.0625 34.49609375 C-38 34 -38 34 -39.70703125 32.55078125 C-41.6506677 28.71635647 -41.57142649 24.99497395 -41.6875 20.75 C-41.72166016 19.90953125 -41.75582031 19.0690625 -41.79101562 18.203125 C-41.87323568 16.13587796 -41.93830157 14.06796126 -42 12 C-63.88914822 12 -87.000944 24.26673197 -102.28515625 39.24609375 Z " fill="#000000" transform="translate(407,277)"/>
<path d="M0 0 C2.61849967 2.42431919 2.98714221 3.88091695 3.37358761 7.46000004 C3.38831781 8.87194337 3.38650641 10.28411648 3.37181091 11.69606018 C3.37563548 12.47575871 3.37946004 13.25545724 3.3834005 14.05878299 C3.39269384 16.67421721 3.38068873 19.2891232 3.36889648 21.90454102 C3.37136421 23.77888712 3.37520233 25.65323186 3.38031006 27.52757263 C3.38865477 31.56653495 3.38783454 35.60535631 3.38012505 39.64431953 C3.36854687 46.03686676 3.38070217 52.42923255 3.39674377 58.82176208 C3.43295217 74.70580952 3.43917227 90.58985305 3.43664551 106.47393799 C3.43493258 118.80714863 3.44211716 131.14021118 3.47662407 143.47338051 C3.49338297 149.82122317 3.49165252 156.16870439 3.47580135 162.51654541 C3.4699841 166.47773422 3.48078162 170.43875356 3.49604797 174.39991188 C3.49975908 176.22877168 3.49671016 178.05766045 3.48617744 179.88649368 C3.11220402 195.55389891 3.11220402 195.55389891 9.92578793 209.188241 C16.05397227 215.07297205 22.21417831 217.37716822 30.64163208 217.36508179 C31.37912465 217.36820078 32.11661722 217.37131978 32.87645805 217.3745333 C35.33077187 217.38143965 37.7844939 217.3671828 40.23876953 217.35302734 C42.00506707 217.3538587 43.77136442 217.35607659 45.53765869 217.35957336 C49.3326784 217.36451355 53.1275433 217.36044449 56.9225502 217.34955978 C62.92303068 217.3331801 68.92331761 217.34167259 74.92379761 217.35440063 C90.9048158 217.38450166 106.88579852 217.38303539 122.86683071 217.36414778 C133.37407474 217.35182226 143.88109928 217.35364885 154.38831794 217.38253558 C160.35406403 217.39778412 166.31921472 217.39026682 172.28492379 217.36582541 C175.99346977 217.35576592 179.70174152 217.36643257 183.41025543 217.38294029 C185.13037713 217.3863962 186.85054054 217.38127667 188.57060623 217.36697197 C190.91856005 217.34865299 193.26443988 217.36100401 195.61233521 217.38095093 C196.92601641 217.37981985 198.23969761 217.37868877 199.59318733 217.37752342 C203.88263102 218.16127013 205.36386669 219.58763456 208 223 C208.61353987 226.88575251 208.75670705 228.94830288 206.42923832 232.18309784 C203.19193279 234.60437836 200.45706669 234.55743949 196.56968689 234.50793457 C195.81857323 234.51417453 195.06745957 234.5204145 194.29358488 234.52684355 C191.77475033 234.54280776 189.25687897 234.53015611 186.73803711 234.51757812 C184.93265213 234.52299806 183.12727157 234.53012 181.32189941 234.53881836 C176.41441947 234.55707907 171.50727532 234.54997044 166.59978938 234.53730202 C161.45995472 234.52717772 156.3201489 234.53656712 151.18031311 234.54284668 C142.54081058 234.55012933 133.90144468 234.54052397 125.26196289 234.52148438 C115.29066078 234.49976265 105.31968644 234.50673029 95.34839243 234.52879 C86.78002948 234.54698402 78.21176485 234.54948133 69.64338881 234.53903532 C64.5295431 234.53281615 59.41585099 234.53192027 54.3020153 234.54518127 C49.48628165 234.55679568 44.67096677 234.54861245 39.85527802 234.52560425 C38.09415187 234.52034481 36.33299009 234.52178317 34.57187843 234.53065491 C20.0625422 234.596967 8.73939572 232.63194413 -1.90625 222.1171875 C-9.80588286 213.58156724 -13.31971961 204.31620215 -13.26069641 192.70625305 C-13.26452196 191.89863453 -13.26834751 191.091016 -13.27228898 190.25892419 C-13.28256302 187.56748702 -13.2786376 184.87626542 -13.2746582 182.18481445 C-13.27900761 180.249408 -13.28419153 178.31400326 -13.29014587 176.37860107 C-13.30351825 171.13302708 -13.3041168 165.88752521 -13.30158257 160.64193749 C-13.30051229 156.26280901 -13.30539739 151.88369508 -13.310188 147.50456971 C-13.32127576 137.17775868 -13.32172382 126.85098403 -13.31567383 116.52416992 C-13.30962527 105.8648334 -13.32196909 95.20562859 -13.3432439 84.54631454 C-13.36083914 75.39458572 -13.36686479 66.24289892 -13.36360615 57.0911538 C-13.36179081 51.62491947 -13.36445504 46.15877923 -13.37832069 40.6925602 C-13.39086164 35.55679075 -13.38899045 30.42122756 -13.37590981 25.28546143 C-13.37353681 23.39883035 -13.37630444 21.51218492 -13.38453293 19.6255703 C-13.39494053 17.05440367 -13.3869485 14.48393695 -13.3742218 11.91279602 C-13.38159609 11.16270541 -13.38897037 10.4126148 -13.39656812 9.63979417 C-13.3639812 6.52027617 -13.17937805 4.32656634 -11.66411114 1.56795025 C-8.05182336 -1.83560099 -4.52689087 -1.05088538 0 0 Z " fill="#000000" transform="translate(36,181)"/>
<path d="M0 0 C0.8814418 -0.00817749 1.76288361 -0.01635498 2.67103577 -0.02478027 C5.59529943 -0.04964492 8.51951458 -0.06615147 11.44384766 -0.08056641 C12.44098408 -0.08589008 13.4381205 -0.09121376 14.46547318 -0.09669876 C19.74145998 -0.12343277 25.01742308 -0.14280839 30.29345703 -0.15722656 C35.75032434 -0.17389092 41.20658964 -0.21868304 46.66322899 -0.26959801 C50.85306516 -0.30320419 55.04275714 -0.31479662 59.23271561 -0.32045364 C61.24462113 -0.32718261 63.25651663 -0.34244714 65.26829147 -0.36634445 C68.08170875 -0.39786198 70.89348477 -0.39805329 73.70703125 -0.390625 C74.54042526 -0.40703033 75.37381927 -0.42343567 76.23246765 -0.44033813 C80.02945313 -0.3992275 82.05273082 -0.16841042 85.0010376 2.30769348 C86.78105236 5.77334829 86.97810838 8.04865369 86.96875 11.93920898 C86.97254669 12.59675674 86.97634338 13.2543045 86.98025513 13.93177795 C86.98763202 16.0935215 86.96632331 18.25390441 86.94384766 20.41552734 C86.94146163 21.92337384 86.94055825 23.43122335 86.94107056 24.93907166 C86.93794762 28.09393009 86.92142064 31.24833245 86.89453125 34.40307617 C86.86052273 38.44387839 86.85290382 42.4841807 86.85442162 46.52510929 C86.85387744 49.63668069 86.84290324 52.74814314 86.82841873 55.85967827 C86.82206212 57.34959527 86.8181145 58.83952459 86.81663132 60.32945442 C86.81228773 62.41182556 86.79476578 64.49367009 86.7734375 66.57592773 C86.76200211 68.35200157 86.76200211 68.35200157 86.75033569 70.16395569 C86.48922618 73.12133452 86.14363247 74.76224924 84.48291016 77.19287109 C80.64543084 79.75119064 77.50126187 79.48835546 73.05175781 79.48339844 C71.76104622 79.49347427 71.76104622 79.49347427 70.44425964 79.50375366 C67.5951055 79.52277666 64.74618639 79.52666006 61.89697266 79.52880859 C59.91783551 79.53523369 57.93869933 79.54196183 55.95956421 79.54898071 C51.80846962 79.56096435 47.65745832 79.56466043 43.50634766 79.56347656 C38.1875474 79.56327335 32.86928133 79.59057319 27.55060768 79.62502098 C23.46193998 79.64726084 19.37340141 79.65131499 15.28467941 79.65025711 C13.32386815 79.65261755 11.36305356 79.66146594 9.40230179 79.67692184 C6.65877157 79.69652223 3.91640053 79.69076726 1.17285156 79.67871094 C0.36332535 79.68994995 -0.44620087 79.70118896 -1.28025818 79.71276855 C-5.02826311 79.67092396 -7.28088266 79.33891378 -10.49771118 77.3500061 C-13.85647964 73.76211188 -13.65021947 70.59249235 -13.67822266 65.87304688 C-13.6878302 64.5680423 -13.69743774 63.26303772 -13.70733643 61.91848755 C-13.7121843 60.49172134 -13.71646315 59.0649531 -13.72021484 57.63818359 C-13.7259685 56.17471312 -13.73172621 54.71124266 -13.73748779 53.24777222 C-13.74798951 50.17950083 -13.75383765 47.11125558 -13.75732422 44.04296875 C-13.76280837 40.11652255 -13.78683784 36.19042321 -13.81529617 32.26408577 C-13.83394407 29.24086505 -13.83912928 26.21772756 -13.8406601 23.19445419 C-13.84368213 21.74720233 -13.85169553 20.29995178 -13.86484528 18.8527565 C-13.88194939 16.82573588 -13.87817441 14.79857184 -13.87353516 12.77148438 C-13.87718079 11.61915314 -13.88082642 10.4668219 -13.88458252 9.27957153 C-13.47461145 5.83608011 -12.57640738 3.95709649 -10.51708984 1.19287109 C-7.23873089 -0.44630838 -3.60458756 0.01833602 0 0 Z M3.48291016 16.19287109 C3.48291016 31.37287109 3.48291016 46.55287109 3.48291016 62.19287109 C25.26291016 62.19287109 47.04291016 62.19287109 69.48291016 62.19287109 C69.48291016 47.01287109 69.48291016 31.83287109 69.48291016 16.19287109 C47.70291016 16.19287109 25.92291016 16.19287109 3.48291016 16.19287109 Z " fill="#000000" transform="translate(234.51708984375,189.80712890625)"/>
<path d="M0 0 C0.88173386 -0.00700928 1.76346771 -0.01401855 2.67192078 -0.02124023 C5.58563762 -0.03884109 8.4983827 -0.02719007 11.41210938 -0.01367188 C13.43705431 -0.01636619 15.46199798 -0.0202481 17.48693848 -0.02526855 C21.73051269 -0.03116644 25.97375009 -0.02259118 30.21728516 -0.00390625 C35.658397 0.01888332 41.09871967 0.00576181 46.53980255 -0.01819611 C50.72110955 -0.03264615 54.90222925 -0.02805171 59.08354187 -0.01768494 C61.08981927 -0.01501546 63.09611364 -0.01829514 65.10237122 -0.02760315 C67.90594561 -0.03775558 70.70823978 -0.02228605 73.51171875 0 C74.34197067 -0.00809692 75.1722226 -0.01619385 76.02763367 -0.02453613 C79.48512586 0.02641471 81.82222552 0.24140552 84.76902771 2.11816406 C86.77529126 5.35582512 86.77030375 7.62322785 86.78930664 11.42578125 C86.80223 12.45577492 86.80223 12.45577492 86.81541443 13.50657654 C86.83807414 15.77104638 86.831337 18.03427876 86.82226562 20.29882812 C86.827501 21.87536995 86.83377717 23.45190864 86.84104919 25.02844238 C86.85145311 28.33047235 86.84689203 31.63207136 86.83227539 34.93408203 C86.81508049 39.16474087 86.83858985 43.39404247 86.87376499 47.62454987 C86.89572908 50.87942496 86.89430019 54.13397472 86.88599968 57.38890076 C86.88517973 58.94861846 86.89205163 60.50835995 86.90677071 62.06800842 C86.92420197 64.24931203 86.90969194 66.42816967 86.88696289 68.609375 C86.88600113 69.84973511 86.88503937 71.09009521 86.88404846 72.36804199 C86.25585938 75.51757812 86.25585938 75.51757812 84.2575531 77.91600037 C80.34811591 80.00191193 76.92217806 80.08602274 72.59765625 80.05102539 C71.7368898 80.05964096 70.87612335 80.06825653 69.98927307 80.07713318 C67.1507439 80.09979199 64.31320198 80.09305498 61.47460938 80.08398438 C59.49832872 80.08921973 57.52205058 80.09549588 55.54577637 80.10276794 C51.40653717 80.11317178 47.26764177 80.10861044 43.12841797 80.09399414 C37.8251883 80.07679998 32.52304142 80.10030962 27.21993256 80.13548374 C23.13979926 80.15744739 19.05992552 80.15601886 14.97975159 80.14771843 C13.02452913 80.14689847 11.06928771 80.15377041 9.11412048 80.16848946 C6.38009108 80.18591786 3.64801349 80.17140819 0.9140625 80.14868164 C0.10767838 80.16037384 -0.69870575 80.17206604 -1.52952576 80.18411255 C-5.42199665 80.11830801 -7.53326344 79.66555309 -10.74583435 77.41125488 C-13.20119597 73.85573242 -13.37185619 71.88659487 -13.37524414 67.58764648 C-13.38239944 66.91059158 -13.38955475 66.23353668 -13.39692688 65.53596497 C-13.41376778 63.30908711 -13.3944443 61.08423562 -13.37304688 58.85742188 C-13.37387592 57.30473159 -13.37633665 55.75204139 -13.38035583 54.19935608 C-13.38321051 50.95026127 -13.36854445 47.70185711 -13.34106445 44.45288086 C-13.30695275 40.29074385 -13.31301187 36.12983911 -13.33172703 31.96764278 C-13.3423002 28.76336921 -13.33335701 25.55938192 -13.31834221 22.35513496 C-13.31316411 20.82056084 -13.31363772 19.28595678 -13.31988716 17.75138664 C-13.32534478 15.60630962 -13.30495241 13.46299169 -13.27758789 11.31811523 C-13.27138931 10.09853622 -13.26519073 8.87895721 -13.25880432 7.62242126 C-12.74414062 4.51757812 -12.74414062 4.51757812 -11.25730896 2.12489319 C-7.62242725 -0.19982181 -4.17844619 -0.04074975 0 0 Z M3.25585938 16.51757812 C3.25585938 31.69757813 3.25585938 46.87757813 3.25585938 62.51757812 C25.36585937 62.51757812 47.47585937 62.51757812 70.25585938 62.51757812 C70.25585938 47.33757812 70.25585938 32.15757812 70.25585938 16.51757812 C48.14585937 16.51757812 26.03585938 16.51757812 3.25585938 16.51757812 Z " fill="#000000" transform="translate(97.744140625,189.482421875)"/>
<path d="M0 0 C0.87212631 -0.0071553 1.74425262 -0.01431061 2.64280701 -0.02168274 C5.51883698 -0.03855948 8.39330609 -0.01917502 11.26928711 0.00219727 C13.27038197 0.00136855 15.27147676 -0.00109094 17.27256775 -0.00511169 C21.46317065 -0.0079689 25.65323883 0.00672546 29.84375 0.03417969 C35.21648217 0.06828419 40.58825958 0.06223611 45.96103764 0.04351711 C50.09175075 0.03295211 54.22224145 0.04188006 58.35293388 0.05690193 C60.33408383 0.06208639 62.31525698 0.06159876 64.29640388 0.05535698 C67.06399684 0.04990998 69.83021943 0.07026223 72.59765625 0.09765625 C73.41698639 0.09113037 74.23631653 0.08460449 75.08047485 0.07788086 C78.51344377 0.13569683 80.81904325 0.36597356 83.74156189 2.23268127 C85.75735899 5.47188342 85.74193777 7.73088265 85.75170898 11.53930664 C85.75871826 12.22596909 85.76572754 12.91263153 85.77294922 13.62010193 C85.79052098 15.88460002 85.77891081 18.14784324 85.76538086 20.41235352 C85.76807605 21.98889404 85.77195869 23.56543294 85.77697754 25.14196777 C85.78287142 28.44400885 85.77431364 31.74561674 85.75561523 35.04760742 C85.73282517 39.27811412 85.74594893 43.50760579 85.76990509 47.73807526 C85.78436637 50.99293655 85.77975569 54.24755758 85.76939392 57.50242615 C85.76672752 59.06212993 85.7699934 60.62185559 85.77931213 62.18153381 C85.78948388 64.36257614 85.77397127 66.54197998 85.75170898 68.72290039 C85.74852661 69.9632605 85.74534424 71.20362061 85.74206543 72.48156738 C85.23413086 75.63110352 85.23413086 75.63110352 83.74156189 78.02952576 C80.13700511 80.33187342 76.740924 80.19755148 72.59765625 80.16455078 C71.72728226 80.17316635 70.85690826 80.18178192 69.9601593 80.19065857 C67.0837325 80.21335671 64.20827698 80.2065724 61.33178711 80.19750977 C59.331657 80.20274389 57.33152937 80.20901959 55.33140564 80.21629333 C51.13911323 80.22670483 46.94716009 80.22212561 42.75488281 80.20751953 C37.38324791 80.19033632 32.0126831 80.21381753 26.64116764 80.24900913 C22.51042089 80.27097407 18.3799305 80.26954373 14.2491436 80.26124382 C12.26880152 80.2604237 10.28844073 80.26729873 8.30815315 80.28201485 C5.53810076 80.29944273 2.769975 80.28493311 0 80.26220703 C-1.22595886 80.27974533 -1.22595886 80.27974533 -2.47668457 80.29763794 C-6.55528707 80.22958315 -8.34444155 79.92720293 -11.77330017 77.51805115 C-14.20309538 73.99762519 -14.39873244 72.06364956 -14.4128418 67.80883789 C-14.42598419 66.81029533 -14.42598419 66.81029533 -14.43939209 65.7915802 C-14.46130983 63.60199841 -14.44686391 61.414454 -14.42993164 59.22485352 C-14.43330205 57.69697687 -14.43815655 56.16910284 -14.44442749 54.64123535 C-14.45178836 51.44342451 -14.44111984 48.24631331 -14.41772461 45.04858398 C-14.38923588 40.95587221 -14.40564427 36.86479979 -14.43558693 32.77214813 C-14.45368201 29.61842567 -14.44789207 26.4650899 -14.43494797 23.31135559 C-14.43161999 21.80271713 -14.43567969 20.2940432 -14.44734573 18.78544617 C-14.46009272 16.6738124 -14.44063166 14.56480772 -14.4128418 12.45336914 C-14.40886383 11.25377563 -14.40488586 10.05418213 -14.40078735 8.8182373 C-12.76516799 0.60782906 -7.17106228 -0.10258765 0 0 Z M2.23413086 16.63110352 C2.23413086 32.14110352 2.23413086 47.65110352 2.23413086 63.63110352 C24.34413086 63.63110352 46.45413086 63.63110352 69.23413086 63.63110352 C69.23413086 48.12110352 69.23413086 32.61110352 69.23413086 16.63110352 C47.12413086 16.63110352 25.01413086 16.63110352 2.23413086 16.63110352 Z " fill="#000000" transform="translate(98.765869140625,295.368896484375)"/>
<path d="M0 0 C0.87315353 -0.00807175 1.74630707 -0.01614349 2.6459198 -0.02445984 C4.49610405 -0.03830239 6.34631387 -0.04902378 8.1965332 -0.05688477 C11.02149072 -0.07408795 13.84527496 -0.11797041 16.66992188 -0.16210938 C18.46743931 -0.17223722 20.2649667 -0.18075304 22.0625 -0.1875 C22.90537064 -0.20500809 23.74824127 -0.22251617 24.61665344 -0.24055481 C28.69449729 -0.22552955 30.72739014 -0.07706394 34.26416016 2.13989258 C36.23046875 4.23828125 36.23046875 4.23828125 36.859375 6.23828125 C36.83746094 6.89828125 36.81554687 7.55828125 36.79296875 8.23828125 C36.79490234 9.22828125 36.79490234 9.22828125 36.796875 10.23828125 C35.96302413 13.18263741 34.61528715 14.33940835 32.23046875 16.23828125 C29.11425781 16.69238281 29.11425781 16.69238281 25.49609375 16.62890625 C24.32852539 16.61891602 23.16095703 16.60892578 21.95800781 16.59863281 C19.74162598 16.54400879 19.74162598 16.54400879 17.48046875 16.48828125 C12.77796875 16.40578125 8.07546875 16.32328125 3.23046875 16.23828125 C3.23046875 31.74828125 3.23046875 47.25828125 3.23046875 63.23828125 C4.55046875 63.89828125 5.87046875 64.55828125 7.23046875 65.23828125 C9.57596549 68.75652636 9.81038278 70.09603819 9.23046875 74.23828125 C7.54296875 77.11328125 7.54296875 77.11328125 4.23046875 79.23828125 C-0.17643308 79.87979228 -4.38309311 80.05058461 -8.76953125 79.23828125 C-11.07296041 77.35785244 -12.4449192 75.88750534 -13.76953125 73.23828125 C-13.87662368 71.14096142 -13.91841617 69.04020203 -13.93066406 66.94018555 C-13.93811142 65.97156082 -13.93811142 65.97156082 -13.94570923 64.98336792 C-13.96033589 62.84306783 -13.96713428 60.7028419 -13.97265625 58.5625 C-13.9784081 57.07518003 -13.98416583 55.58786009 -13.9899292 54.10054016 C-14.00044117 50.97921401 -14.00628228 47.85791363 -14.00976562 44.73657227 C-14.01524526 40.74171843 -14.03926075 36.74720631 -14.06773758 32.75245953 C-14.0863865 29.67862462 -14.09157079 26.60487157 -14.0931015 23.53098488 C-14.09612441 22.05861357 -14.10414079 20.58624357 -14.11728668 19.11392784 C-14.1343921 17.05054342 -14.13245639 14.98798762 -14.12597656 12.92456055 C-14.13144501 11.16489204 -14.13144501 11.16489204 -14.13702393 9.36967468 C-13.72973899 5.8992127 -12.84845613 4.02009713 -10.76953125 1.23828125 C-7.42936142 -0.43180366 -3.67469975 0.03197476 0 0 Z " fill="#000000" transform="translate(234.76953125,295.76171875)"/>
<path d="M0 0 C2.86434922 2.92186689 3.37108722 5.01648724 3.34057617 9.04394531 C3.34034958 10.04468079 3.34012299 11.04541626 3.33988953 12.07647705 C3.32440567 13.14952087 3.30892181 14.2225647 3.29296875 15.328125 C3.28872391 16.43226746 3.28447906 17.53640991 3.28010559 18.67401123 C3.26331668 22.19958916 3.22566309 25.72459491 3.1875 29.25 C3.17245348 31.64061674 3.15876502 34.03124245 3.14648438 36.421875 C3.11341243 42.28144513 3.06321046 48.14068169 3 54 C4.03930664 53.97905273 5.07861328 53.95810547 6.14941406 53.93652344 C10.01076442 53.86404326 13.87205483 53.81817169 17.73388672 53.78027344 C19.40423702 53.76017607 21.07451713 53.73289317 22.74462891 53.69824219 C25.1476372 53.64963881 27.54971434 53.62701344 29.953125 53.609375 C30.69806213 53.58872986 31.44299927 53.56808472 32.21051025 53.54681396 C35.68080889 53.54531707 37.63350154 53.7312538 40.46777344 55.80957031 C42.74015465 59.05810508 42.61089666 61.13098779 42 65 C39.97062538 67.86312847 38.36504155 69.70427447 34.84277344 70.46734619 C32.16409047 70.66278857 29.52946026 70.69289329 26.84375 70.6640625 C25.37391663 70.67123795 25.37391663 70.67123795 23.87438965 70.67855835 C21.80670564 70.68195441 19.73896772 70.67277263 17.67138672 70.65185547 C14.51017298 70.62508615 11.35250982 70.65161371 8.19140625 70.68359375 C6.17967968 70.6802896 4.16795531 70.67388326 2.15625 70.6640625 C1.21342163 70.67418365 0.27059326 70.68430481 -0.70080566 70.69473267 C-4.82667635 70.62120741 -7.43260319 70.30900505 -11.09545898 68.31420898 C-14.20402183 62.90480754 -13.69158086 57.434829 -13.62890625 51.30859375 C-13.62973551 49.95768544 -13.63219707 48.60677723 -13.63621521 47.25587463 C-13.63906821 44.43044513 -13.62442113 41.60581057 -13.59692383 38.78051758 C-13.56280713 35.16312919 -13.5688737 31.5471585 -13.5875864 27.92970181 C-13.59816504 25.14232102 -13.5892117 22.355269 -13.57420158 19.56791878 C-13.56651675 17.58707627 -13.57386686 15.6061939 -13.58143616 13.62535095 C-13.56559982 12.42052567 -13.54976349 11.21570038 -13.53344727 9.97436523 C-13.52724869 8.91467026 -13.52105011 7.85497528 -13.5146637 6.76316833 C-12.87456371 3.32654746 -11.68298636 2.1666232 -9 0 C-5.8168485 -1.59157575 -3.38676935 -0.77242108 0 0 Z " fill="#000000" transform="translate(378,326)"/>
<path d="M0 0 C1.99301736 1.58066894 2.86543351 2.73086702 4 5 C4.11734084 7.09706909 4.16980016 9.19787301 4.19287109 11.2980957 C4.20104858 11.94384552 4.20922607 12.58959534 4.21765137 13.25491333 C4.24249426 15.39519321 4.2590188 17.53540679 4.2734375 19.67578125 C4.27876118 20.40688803 4.28408485 21.1379948 4.28956985 21.89125633 C4.3162973 25.76139655 4.33567298 29.63150457 4.35009766 33.50170898 C4.36674045 37.49679252 4.4115148 41.49105028 4.4624691 45.48582172 C4.49614614 48.5596561 4.50767547 51.63329461 4.51332474 54.70729637 C4.52003661 56.17971288 4.53525738 57.65211653 4.55921555 59.12435341 C4.59088279 61.18815753 4.59090361 63.24973684 4.58349609 65.3137207 C4.59562637 67.07338921 4.59562637 67.07338921 4.60800171 68.86860657 C3.81290262 72.96360833 2.23602303 74.44935386 -1 77 C-4.5625 77.5625 -4.5625 77.5625 -8 77 C-10.90717073 74.78136971 -11.83981643 73.48055071 -13 70 C-13.1041017 67.95653471 -13.14860547 65.90984642 -13.16113281 63.86376953 C-13.17074036 62.59880646 -13.1803479 61.33384338 -13.19024658 60.0305481 C-13.1950945 58.6479714 -13.19937335 57.26539261 -13.203125 55.8828125 C-13.20887891 54.46418252 -13.21463661 53.04555256 -13.22039795 51.62692261 C-13.23089889 48.65280801 -13.23674753 45.67872037 -13.24023438 42.70458984 C-13.24571822 38.89920711 -13.26974732 35.09418233 -13.29820633 31.28891182 C-13.31685715 28.35833708 -13.32203959 25.42784816 -13.32357025 22.49721909 C-13.32659165 21.094624 -13.33460292 19.69203024 -13.34775543 18.28949356 C-13.36486554 16.32474125 -13.36108369 14.35984087 -13.35644531 12.39501953 C-13.36009094 11.27821808 -13.36373657 10.16141663 -13.36749268 9.01077271 C-12.95292189 5.61430117 -12.00003839 3.74831684 -10 1 C-6.62152517 -1.56298091 -3.97719014 -1.10007387 0 0 Z " fill="#000000" transform="translate(379,181)"/>
</svg>
