<?xml version="1.0" encoding="UTF-8"?>
<svg version="1.1" xmlns="http://www.w3.org/2000/svg" width="512" height="512">
<path d="M0 0 C0.61875 0.4125 1.2375 0.825 1.875 1.25 C2.555625 1.6625 3.23625 2.075 3.9375 2.5 C11.59829133 7.60719422 16.00170564 14.63011691 18.875 23.25 C18.875 31.17 18.875 39.09 18.875 47.25 C35.375 47.25 51.875 47.25 68.875 47.25 C68.875 39.33 68.875 31.41 68.875 23.25 C74.13518343 11.41458727 79.49044731 3.23212985 91.63671875 -1.921875 C100.32872374 -4.14467965 112.03553944 -4.48000906 120 0 C120.61875 0.4125 121.2375 0.825 121.875 1.25 C122.555625 1.6625 123.23625 2.075 123.9375 2.5 C131.59829133 7.60719422 136.00170564 14.63011691 138.875 23.25 C138.875 31.17 138.875 39.09 138.875 47.25 C155.375 47.25 171.875 47.25 188.875 47.25 C188.875 39.33 188.875 31.41 188.875 23.25 C194.13518343 11.41458727 199.49044731 3.23212985 211.63671875 -1.921875 C220.32872374 -4.14467965 232.03553944 -4.48000906 240 0 C240.61875 0.4125 241.2375 0.825 241.875 1.25 C242.555625 1.6625 243.23625 2.075 243.9375 2.5 C251.24981053 7.37487369 256.7084428 14.71752355 258.875 23.25 C259.11558679 27.3783458 259.06329285 31.49149023 259 35.625 C258.99097656 36.74261719 258.98195313 37.86023437 258.97265625 39.01171875 C258.94918346 41.75803462 258.91634728 44.50390472 258.875 47.25 C259.5123407 47.23667633 260.1496814 47.22335266 260.80633545 47.20962524 C267.49063765 47.07601058 274.17455544 46.98602959 280.85986328 46.92041016 C283.34862702 46.89039394 285.83728638 46.84956742 288.32568359 46.79736328 C291.92051061 46.72388185 295.51392922 46.69038984 299.109375 46.6640625 C300.75543732 46.61761093 300.75543732 46.61761093 302.43475342 46.57022095 C311.33099251 46.5664182 318.91422177 49.08144535 325.80755615 54.87393188 C332.33196175 61.90251111 334.48128498 69.86748806 334.31996155 79.2379303 C334.31970158 80.20369395 334.3194416 81.16945761 334.31917375 82.16448683 C334.31374378 85.37964329 334.27992301 88.59386198 334.24633789 91.80883789 C334.23705793 94.12227209 334.22970203 96.43571469 334.22412109 98.74916077 C334.2089942 103.72065274 334.1822092 108.6918973 334.14689827 113.66328621 C334.09306825 121.52557464 334.077196 129.38765512 334.06871033 137.25010681 C334.06530924 139.94440207 334.06162221 142.63869687 334.05782986 145.3329916 C334.05688954 146.00615936 334.05594923 146.67932711 334.05498042 147.37289389 C334.04368689 155.02180954 334.02348473 162.6706937 333.99975586 170.31958008 C333.99652065 171.36747571 333.99652065 171.36747571 333.99322008 172.43654095 C333.95728963 183.76652767 333.89418875 195.09625078 333.82466669 206.4260735 C333.75422859 218.07463165 333.72675759 229.72277994 333.73367494 241.37154764 C333.7361401 249.18701729 333.69032791 257.0002431 333.6090976 264.81526768 C333.57019678 269.67679097 333.57732918 274.53743527 333.59758759 279.39903831 C333.59779353 281.65173451 333.57915277 283.90452389 333.54019737 286.15688324 C332.87984002 297.93200461 332.87984002 297.93200461 337.2930584 308.3100872 C340.081731 310.36124343 342.73505051 311.81772373 345.875 313.25 C367.49279889 329.3309131 380.91124068 355.00687191 385.47363281 381.15771484 C386.23585611 387.03017244 386.25789347 392.89803364 386.25 398.8125 C386.24978851 399.4706369 386.24957703 400.1287738 386.24935913 400.80685425 C386.1677624 426.31801345 377.89136089 450.96479099 360.875 470.25 C360.18792969 471.06855469 359.50085938 471.88710938 358.79296875 472.73046875 C341.45567209 492.87921892 317.12346709 505.42536104 290.875 509.25 C274.749072 510.15630215 258.33754371 510.37277724 242.875 505.25 C242.23643066 505.04101074 241.59786133 504.83202148 240.93994141 504.61669922 C225.50209474 499.37654532 207.11828311 490.51957611 197.25063729 477.02929753 C194.61977176 473.54856052 192.47758176 470.74989736 188.21844435 469.42133391 C185.0457046 469.11775207 181.9809315 469.09471284 178.79437256 469.17012024 C177.591356 469.16258026 176.38833945 469.15504028 175.14886785 469.14727181 C171.82485587 469.13532349 168.50562909 469.16349853 165.18220162 469.2088207 C161.592442 469.24781892 158.00282916 469.23447723 154.41291809 469.22735596 C148.19599153 469.22188169 141.9798789 469.24857662 135.76314545 469.29662514 C126.76190312 469.3656158 117.76122514 469.37900665 108.75974932 469.37788203 C94.13736645 469.37699942 79.5153128 469.41181913 64.89306641 469.47338867 C63.58122698 469.47889781 63.58122698 469.47889781 62.24288574 469.48451825 C58.69972815 469.4994458 55.15657082 469.51443473 51.61341386 469.52951049 C41.86843423 469.57061794 32.12343516 469.60466572 22.37841797 469.63549805 C21.5061409 469.63826798 20.63386383 469.64103792 19.73515412 469.64389179 C5.17125255 469.68927779 -9.39261052 469.71067563 -23.95657897 469.71753091 C-32.9306482 469.72310778 -41.90410244 469.75163891 -50.87798539 469.81022193 C-57.03173182 469.84922408 -63.18530847 469.86730436 -69.33917746 469.8692197 C-72.88525207 469.87114548 -76.43057265 469.88292522 -79.97645378 469.92148399 C-83.82998232 469.96323929 -87.68267752 469.95804335 -91.53643799 469.94892883 C-92.64385668 469.96865401 -93.75127537 469.98837919 -94.89225221 470.0087021 C-103.67039247 469.9258376 -111.25786668 467.33729018 -118.0582478 461.62650949 C-126.13530147 452.91918467 -126.70884935 443.23689658 -126.64639282 431.89811707 C-126.65244003 430.33971991 -126.6602211 428.78132869 -126.66957796 427.2229479 C-126.69010233 422.95655141 -126.68578368 418.69049173 -126.67721677 414.42406785 C-126.67227573 409.81655483 -126.69031874 405.20912222 -126.70529175 400.60163879 C-126.73077223 391.58103123 -126.73437481 382.56054277 -126.72969122 373.53990527 C-126.72612291 366.20611287 -126.72962836 358.87235658 -126.73814011 351.5385685 C-126.73933048 350.49416603 -126.74052086 349.44976357 -126.74174731 348.37371254 C-126.74417086 346.25188912 -126.74659913 344.1300657 -126.74903207 342.00824229 C-126.77077813 322.11565659 -126.76646053 302.22313873 -126.75426237 282.33054922 C-126.74392559 264.14233717 -126.76643155 245.95433941 -126.80445881 227.76616975 C-126.84322719 209.07992154 -126.85972552 190.39377466 -126.85221231 171.70748597 C-126.84838982 161.22082964 -126.85334809 150.73435565 -126.88164139 140.24773216 C-126.90548593 131.31979684 -126.90826023 122.39215611 -126.88406105 113.46421667 C-126.87229485 108.91170195 -126.87005169 104.3597258 -126.89406586 99.80724716 C-126.91582355 95.63393042 -126.90953246 91.46160059 -126.88154249 87.28832964 C-126.87625925 85.78435786 -126.8809485 84.28030824 -126.89701422 82.77641299 C-127.0005898 72.3513972 -125.47464164 63.37617576 -118.38397467 55.2562539 C-110.68715939 47.87887885 -101.91479037 46.66899175 -91.65234375 46.859375 C-89.90685997 46.86786469 -89.90685997 46.86786469 -88.12611389 46.87652588 C-84.43781034 46.89877734 -80.75050609 46.94895493 -77.0625 47 C-74.55014431 47.02007941 -72.03777328 47.03832765 -69.52539062 47.0546875 C-63.39159061 47.09860535 -57.25836673 47.16540515 -51.125 47.25 C-51.1564209 46.23015015 -51.1564209 46.23015015 -51.18847656 45.18969727 C-51.27239895 42.06411953 -51.3238991 38.93877984 -51.375 35.8125 C-51.40851563 34.74322266 -51.44203125 33.67394531 -51.4765625 32.57226562 C-51.6044117 22.12059336 -48.39492235 13.86021659 -41.125 6.25 C-30.16467897 -2.81814834 -13.30378283 -7.48337784 0 0 Z M-27.125 22.25 C-32.76713199 29.83769475 -31.125 37.789451 -31.125 47.25 C-21.225 47.25 -11.325 47.25 -1.125 47.25 C-0.20975753 33.82668748 -0.20975753 33.82668748 -5.5625 22.4375 C-10.17592383 18.49921137 -12.71518413 17.8045412 -18.6171875 17.93359375 C-22.31721913 18.40042017 -24.38313697 19.7756358 -27.125 22.25 Z M92.875 22.25 C87.23286801 29.83769475 88.875 37.789451 88.875 47.25 C98.775 47.25 108.675 47.25 118.875 47.25 C119.79024247 33.82668748 119.79024247 33.82668748 114.4375 22.4375 C109.82407617 18.49921137 107.28481587 17.8045412 101.3828125 17.93359375 C97.68278087 18.40042017 95.61686303 19.7756358 92.875 22.25 Z M212.875 22.25 C207.23286801 29.83769475 208.875 37.789451 208.875 47.25 C218.775 47.25 228.675 47.25 238.875 47.25 C239.79024247 33.82668748 239.79024247 33.82668748 234.4375 22.4375 C229.82407617 18.49921137 227.28481587 17.8045412 221.3828125 17.93359375 C217.68278087 18.40042017 215.61686303 19.7756358 212.875 22.25 Z M-103.125 70.25 C-110.6198258 87.73792687 -106.125 108.22370241 -106.125 127.25 C32.145 127.25 170.415 127.25 312.875 127.25 C312.875 109.43 312.875 91.61 312.875 73.25 C307.93076304 68.0109074 307.93076304 68.0109074 301.89915848 67.12695217 C300.85384523 67.12833486 300.85384523 67.12833486 299.78741455 67.12974548 C298.98257126 67.12837082 298.17772797 67.12699615 297.34849548 67.12557983 C296.0375869 67.13097275 296.0375869 67.13097275 294.70019531 67.13647461 C293.773022 67.13632858 292.84584869 67.13618256 291.89057922 67.1360321 C288.82807063 67.13672838 285.76562296 67.14450751 282.703125 67.15234375 C280.5789188 67.15420894 278.45471216 67.15563237 276.33050537 67.15663147 C270.74097505 67.16044869 265.15147073 67.17027222 259.56195068 67.18133545 C253.85771028 67.19156663 248.15346568 67.19613275 242.44921875 67.20117188 C231.25780108 67.21189518 220.0664027 67.22896209 208.875 67.25 C208.99640116 68.84574657 209.12872923 70.4406642 209.265625 72.03515625 C209.33813477 72.92340088 209.41064453 73.81164551 209.48535156 74.72680664 C210.19632892 79.33078595 212.48605048 82.10615922 216 85 C219.47163856 86.50940807 222.85073717 87.1758876 226.5703125 87.8203125 C228.875 88.25 228.875 88.25 231.875 89.25 C232.85775588 92.19826763 233.00914725 94.17652504 233 97.25 C233.00257813 98.11625 233.00515625 98.9825 233.0078125 99.875 C232.875 102.25 232.875 102.25 231.875 105.25 C224.76716151 107.6192795 215.95721111 107.09378512 208.99609375 104.34765625 C199.01397035 99.18195335 193.38432701 91.77798104 189.875 81.25 C189.545 76.63 189.215 72.01 188.875 67.25 C155.875 67.25 122.875 67.25 88.875 67.25 C89.6411547 77.83281217 89.6411547 77.83281217 96 85 C99.47163856 86.50940807 102.85073717 87.1758876 106.5703125 87.8203125 C108.875 88.25 108.875 88.25 111.875 89.25 C112.85775588 92.19826763 113.00914725 94.17652504 113 97.25 C113.00257813 98.11625 113.00515625 98.9825 113.0078125 99.875 C112.875 102.25 112.875 102.25 111.875 105.25 C104.76716151 107.6192795 95.95721111 107.09378512 88.99609375 104.34765625 C79.01397035 99.18195335 73.38432701 91.77798104 69.875 81.25 C69.545 76.63 69.215 72.01 68.875 67.25 C35.875 67.25 2.875 67.25 -31.125 67.25 C-30.3588453 77.83281217 -30.3588453 77.83281217 -24 85 C-20.52836144 86.50940807 -17.14926283 87.1758876 -13.4296875 87.8203125 C-11.125 88.25 -11.125 88.25 -8.125 89.25 C-7.14224412 92.19826763 -6.99085275 94.17652504 -7 97.25 C-6.99613281 98.549375 -6.99613281 98.549375 -6.9921875 99.875 C-7.125 102.25 -7.125 102.25 -8.125 105.25 C-15.23283849 107.6192795 -24.04278889 107.09378512 -31.00390625 104.34765625 C-39.45888218 99.97224513 -45.71737145 93.489624 -49.16040039 84.56665039 C-50.21563591 80.93836019 -50.53668464 77.64357141 -50.75 73.875 C-50.82476562 72.62976563 -50.89953125 71.38453125 -50.9765625 70.1015625 C-51.02554688 69.16054687 -51.07453125 68.21953125 -51.125 67.25 C-57.40543803 67.17368154 -63.68575562 67.12128779 -69.96655273 67.08520508 C-72.10136382 67.07015638 -74.23614419 67.04971264 -76.37084961 67.02368164 C-79.44652914 66.98712614 -82.52179844 66.9702341 -85.59765625 66.95703125 C-86.54584732 66.94154739 -87.49403839 66.92606354 -88.47096252 66.91011047 C-94.0983166 66.90869431 -98.3079929 67.1984654 -103.125 70.25 Z M-106.125 147.25 C-106.186875 195.285625 -106.24875 243.32125 -106.3125 292.8125 C-106.33981201 307.9932251 -106.36712402 323.1739502 -106.39526367 338.81469727 C-106.40529549 352.39433949 -106.40529549 352.39433949 -106.41133118 365.97398376 C-106.41413192 372.03371154 -106.42514967 378.09335661 -106.44172668 384.15306091 C-106.46081304 391.14037263 -106.46951009 398.12760485 -106.46533485 405.11494284 C-106.46352634 408.68983784 -106.46640839 412.26455512 -106.48264539 415.83941758 C-106.49992587 419.66726885 -106.49398627 423.4948831 -106.48576355 427.32276917 C-106.49450154 428.43821578 -106.50323954 429.5536624 -106.51224232 430.70291042 C-106.47816095 436.58841329 -106.38609114 441.23980365 -103.125 446.25 C-97.37154883 449.93835096 -91.59478368 449.66675663 -84.91908264 449.61076355 C-83.79829187 449.61332682 -82.67750111 449.6158901 -81.52274698 449.61853105 C-77.77160956 449.6234678 -74.02087566 449.6069772 -70.26977539 449.59057617 C-67.5791127 449.58972988 -64.88847463 449.59007302 -62.19781494 449.59190369 C-56.40730179 449.59347466 -50.61689026 449.58408391 -44.82640266 449.56719017 C-36.45440735 449.54278082 -28.08246105 449.53499292 -19.71043401 449.5312262 C-6.12650825 449.52466475 7.45736338 449.50471191 21.04125977 449.47631836 C34.23461639 449.44876986 47.4279583 449.42754015 60.62133789 449.41479492 C61.43494862 449.41400675 62.24855935 449.41321858 63.08682495 449.41240653 C67.16858187 449.40849134 71.25033889 449.40470023 75.33209598 449.40097082 C109.1797699 449.36988445 143.02737831 449.31705701 176.875 449.25 C176.40276192 447.82850135 175.93010488 446.40714188 175.45727539 444.98583984 C175.06252769 443.79853775 175.06252769 443.79853775 174.6598053 442.58724976 C173.97416837 440.54533598 173.26808926 438.51030928 172.55859375 436.4765625 C172.14738281 435.28804688 171.73617188 434.09953125 171.3125 432.875 C170.89871094 431.69164062 170.48492187 430.50828125 170.05859375 429.2890625 C167.02121398 419.52764617 166.48642156 409.86162753 166.5 399.6875 C166.50021149 399.0293631 166.50042297 398.3712262 166.50064087 397.69314575 C166.58987426 369.79438966 176.74658634 345.23637068 194.875 324.25 C195.51953125 323.50234375 196.1640625 322.7546875 196.828125 321.984375 C213.7131744 303.92471347 239.67354062 291.64023472 264.28173828 290.02661133 C268.00295513 289.91018124 271.71447399 289.87097562 275.4375 289.875 C276.75419678 289.87443604 278.07089355 289.87387207 279.42749023 289.87329102 C289.74642919 289.98916301 299.00124226 291.40114058 308.875 294.25 C310.525 294.58 312.175 294.91 313.875 295.25 C313.875 246.41 313.875 197.57 313.875 147.25 C175.275 147.25 36.675 147.25 -106.125 147.25 Z M213.36376953 334.79248047 C196.8799697 350.93027729 186.81523228 372.40057231 186.49462891 395.56152344 C186.5371623 421.80076084 194.20956491 444.18195148 212.83203125 463.36328125 C230.39700427 480.56003997 254.1608952 489.04932514 278.50390625 489.28515625 C303.06420812 488.13956765 326.21990382 477.36377035 342.875 459.25 C360.96319173 437.89508723 366.42942601 413.72564444 364.875 386.25 C362.14461087 363.02615356 348.28457013 341.81559279 330.1875 327.5 C293.76136811 301.50155612 246.03087734 304.10582252 213.36376953 334.79248047 Z " fill="#000000" transform="translate(126.125,2.75)"/>
<path d="M0 0 C2.87029869 1.79393668 4.49131638 2.98263276 6 6 C6.08690293 8.844062 6.11561213 11.66399702 6.09765625 14.5078125 C6.09664917 15.25281006 6.09564209 15.99780762 6.09460449 16.76538086 C6.08936714 19.5519362 6.07540589 22.33846962 6.0625 25.125 C6.041875 31.35375 6.02125 37.5825 6 44 C19.53 44 33.06 44 47 44 C46.84196083 31.71900434 46.84196083 31.71900434 46.63964844 19.4387207 C46.62795989 17.89275214 46.61776845 16.34677122 46.609375 14.80078125 C46.58891113 14.0058728 46.56844727 13.21096436 46.54736328 12.39196777 C46.54485308 8.38881765 46.69682583 6.47685634 48.89941406 3.01245117 C52.38025576 -0.32234406 55.07075244 -0.3894396 59.73828125 -0.359375 C63.32520929 0.21056866 64.86838894 2.20226049 67 5 C68.61323229 8.22646459 68.12063563 11.7466195 68.09765625 15.2890625 C68.09664917 16.01440186 68.09564209 16.73974121 68.09460449 17.48706055 C68.08936769 20.19972309 68.07540644 22.91236311 68.0625 25.625 C68.041875 31.68875 68.02125 37.7525 68 44 C81.53 44 95.06 44 109 44 C108.80243175 31.38971745 108.80243175 31.38971745 108.54956055 18.78051758 C108.5349504 17.19353926 108.52221097 15.60654214 108.51171875 14.01953125 C108.48613892 13.20303101 108.46055908 12.38653076 108.4342041 11.54528809 C108.43087175 7.18190172 108.58571532 5.527345 111.37426758 1.9777832 C114.22057439 -0.16614348 115.48500854 -0.67992174 119 -0.625 C119.825 -0.63789063 120.65 -0.65078125 121.5 -0.6640625 C125.2283117 0.3262703 126.62518443 1.97708567 129 5 C129.67381781 8.0183275 129.58477115 10.93960397 129.48828125 14.01953125 C129.48324585 14.78116577 129.47821045 15.54280029 129.47302246 16.32751465 C129.44698055 19.15622932 129.37717292 21.98440483 129.3125 24.8125 C129.1578125 34.3103125 129.1578125 34.3103125 129 44 C142.53 44 156.06 44 170 44 C169.84207352 32.09313659 169.84207352 32.09313659 169.63964844 20.18701172 C169.62795638 18.68458192 169.61776577 17.18213936 169.609375 15.6796875 C169.58891113 14.91148682 169.56844727 14.14328613 169.54736328 13.35180664 C169.54398692 8.11000044 170.53013265 5.16271162 174 1 C177.45739557 -0.72869779 181.21975568 -0.48966895 185 0 C187.87029869 1.79393668 189.49131638 2.98263276 191 6 C191.08690293 8.844062 191.11561213 11.66399702 191.09765625 14.5078125 C191.09664917 15.25281006 191.09564209 15.99780762 191.09460449 16.76538086 C191.08936714 19.5519362 191.07540589 22.33846962 191.0625 25.125 C191.041875 31.35375 191.02125 37.5825 191 44 C204.53 44 218.06 44 232 44 C231.84196083 31.71900434 231.84196083 31.71900434 231.63964844 19.4387207 C231.62795989 17.89275214 231.61776845 16.34677122 231.609375 14.80078125 C231.58891113 14.0058728 231.56844727 13.21096436 231.54736328 12.39196777 C231.54485308 8.38881765 231.69682583 6.47685634 233.89941406 3.01245117 C237.38025576 -0.32234406 240.07075244 -0.3894396 244.73828125 -0.359375 C248.32520929 0.21056866 249.86838894 2.20226049 252 5 C253.61301773 8.22603545 253.12053599 11.74710038 253.09765625 15.2890625 C253.09553383 16.51669815 253.09553383 16.51669815 253.09336853 17.76913452 C253.0877629 20.38779325 253.07520948 23.00636704 253.0625 25.625 C253.05748572 27.39843627 253.05292269 29.17187387 253.04882812 30.9453125 C253.03779164 35.29690782 253.02052325 39.6484395 253 44 C254.18029785 43.97381592 255.3605957 43.94763184 256.57666016 43.9206543 C260.97099729 43.82990433 265.36525221 43.77266094 269.76025391 43.7253418 C271.65948431 43.70025396 273.5586187 43.66617532 275.45751953 43.62280273 C278.19327521 43.5618967 280.9277507 43.53373347 283.6640625 43.51171875 C284.50804596 43.48591232 285.35202942 43.4601059 286.22158813 43.43351746 C290.44213523 43.43152601 293.17190069 43.69152707 296.53588867 46.37426758 C299.19666803 49.20956748 299.8006581 50.18835875 299.6875 54 C299.45880771 57.8363132 299.09442845 58.87494611 296.6875 62.0625 C292.05451892 65.40255613 287.88587642 65.13240152 282.39453125 65.09765625 C281.55532639 65.0962413 280.71612152 65.09482635 279.85148621 65.09336853 C277.17178784 65.08777215 274.4921731 65.07522035 271.8125 65.0625 C269.99544392 65.05748453 268.17838652 65.05292171 266.36132812 65.04882812 C261.90751987 65.03780391 257.45377411 65.02054178 253 65 C253.01571045 65.81678223 253.0314209 66.63356445 253.04760742 67.47509766 C253.1101394 71.19166077 253.14904944 74.90811296 253.1875 78.625 C253.22520508 80.55279297 253.22520508 80.55279297 253.26367188 82.51953125 C253.27333984 83.76347656 253.28300781 85.00742187 253.29296875 86.2890625 C253.3086792 87.43068848 253.32438965 88.57231445 253.34057617 89.74853516 C252.89772431 93.97642126 251.68519039 97.6268819 248.3125 100.375 C244.83798354 101.3140585 241.53864272 101.58977379 238 101 C235.1899654 99.20636089 233.49059532 97.98119065 232 95 C231.91426606 92.74879258 231.89287812 90.49500697 231.90234375 88.2421875 C231.90484131 87.02901855 231.90733887 85.81584961 231.90991211 84.56591797 C231.92356812 82.24391357 231.92356812 82.24391357 231.9375 79.875 C231.958125 74.96625 231.97875 70.0575 232 65 C218.47 65 204.94 65 191 65 C191 80.18 191 95.36 191 111 C193.64 111 196.28 111 199 111 C202.28440333 113.37595134 203.67080315 115.05355906 205 118.875 C205 122.90306262 203.89929459 125.47273862 202 129 C198.91111478 131.05925681 198.29064073 131.2390374 194.8125 131.125 C193.554375 131.08375 192.29625 131.0425 191 131 C191.04640625 131.59167969 191.0928125 132.18335938 191.140625 132.79296875 C191.33369653 137.01985618 191.4219755 139.3248392 189.125 143 C185.61416183 146.30431828 182.93570206 146.38948117 178.26171875 146.359375 C174.67479071 145.78943134 173.13161106 143.79773951 171 141 C170 139 170 139 170 131 C156.47 131 142.94 131 129 131 C129 146.18 129 161.36 129 177 C137.94485927 176.88170175 137.94485927 176.88170175 146.88916016 176.72973633 C148.01112793 176.72224365 149.1330957 176.71475098 150.2890625 176.70703125 C152.00150146 176.68346558 152.00150146 176.68346558 153.74853516 176.65942383 C158.44084614 177.15092209 161.80008633 178.64525876 164.9375 182.1875 C166.39104621 186.03512232 166.2275038 189.08835456 165 193 C163.10571954 195.38312703 161.69988821 196.6500559 159 198 C156.74879258 198.08573394 154.49500697 198.10712188 152.2421875 198.09765625 C151.24761032 198.09553383 151.24761032 198.09553383 150.23294067 198.09336853 C148.11358137 198.08776754 145.99432741 198.075215 143.875 198.0625 C142.43880361 198.05748512 141.00260556 198.05292219 139.56640625 198.04882812 C136.04423655 198.03779782 132.52212855 198.02053259 129 198 C129.02618408 199.1552417 129.05236816 200.3104834 129.0793457 201.50073242 C129.17000348 205.79627026 129.22730551 210.09172394 129.2746582 214.38793945 C129.29976702 216.24550609 129.33386134 218.10297427 129.37719727 219.96020508 C129.43801124 222.63387358 129.4662452 225.30623365 129.48828125 227.98046875 C129.51408768 228.80773972 129.5398941 229.63501068 129.56648254 230.48735046 C129.5685871 234.8364574 129.40607937 236.48309958 126.62573242 240.0222168 C123.77942561 242.16614348 122.51499146 242.67992174 119 242.625 C118.175 242.63789063 117.35 242.65078125 116.5 242.6640625 C112.7716883 241.6737297 111.37481557 240.02291433 109 237 C108.32618219 233.9816725 108.41522885 231.06039603 108.51171875 227.98046875 C108.51675415 227.21883423 108.52178955 226.45719971 108.52697754 225.67248535 C108.55301945 222.84377068 108.62282708 220.01559517 108.6875 217.1875 C108.8421875 207.6896875 108.8421875 207.6896875 109 198 C95.47 198 81.94 198 68 198 C68.15792648 209.90686341 68.15792648 209.90686341 68.36035156 221.81298828 C68.37204362 223.31541808 68.38223423 224.81786064 68.390625 226.3203125 C68.41108887 227.08851318 68.43155273 227.85671387 68.45263672 228.64819336 C68.45601308 233.88999956 67.46986735 236.83728838 64 241 C60.54260443 242.72869779 56.78024432 242.48966895 53 242 C50.12970131 240.20606332 48.50868362 239.01736724 47 236 C46.91309707 233.155938 46.88438787 230.33600298 46.90234375 227.4921875 C46.90335083 226.74718994 46.90435791 226.00219238 46.90539551 225.23461914 C46.91063286 222.4480638 46.92459411 219.66153038 46.9375 216.875 C46.958125 210.64625 46.97875 204.4175 47 198 C33.47 198 19.94 198 6 198 C6.15803917 210.28099566 6.15803917 210.28099566 6.36035156 222.5612793 C6.37204011 224.10724786 6.38223155 225.65322878 6.390625 227.19921875 C6.41108887 227.9941272 6.43155273 228.78903564 6.45263672 229.60803223 C6.45514692 233.61118235 6.30317417 235.52314366 4.10058594 238.98754883 C0.61974424 242.32234406 -2.07075244 242.3894396 -6.73828125 242.359375 C-10.32520929 241.78943134 -11.86838894 239.79773951 -14 237 C-15.61301773 233.77396455 -15.12053599 230.25289962 -15.09765625 226.7109375 C-15.0962413 225.89251373 -15.09482635 225.07408997 -15.09336853 224.23086548 C-15.0877629 221.61220675 -15.07520948 218.99363296 -15.0625 216.375 C-15.05748572 214.60156373 -15.05292269 212.82812613 -15.04882812 211.0546875 C-15.03779164 206.70309218 -15.02052325 202.3515605 -15 198 C-16.18553467 198.02094727 -17.37106934 198.04189453 -18.5925293 198.06347656 C-22.99995804 198.13599331 -27.40733426 198.18184215 -31.81518555 198.21972656 C-33.7212003 198.23981546 -35.62715362 198.26709194 -37.53295898 198.30175781 C-40.27603326 198.35039642 -43.01829125 198.37299579 -45.76171875 198.390625 C-46.61086349 198.41127014 -47.46000824 198.43191528 -48.33488464 198.45318604 C-52.42666113 198.45473044 -54.47207999 198.33259516 -58.01489258 196.10058594 C-61.31393468 192.60963055 -61.39295081 189.91699091 -61.35546875 185.26171875 C-60.78672178 181.64298801 -58.84834388 180.11969777 -56 178 C-52.11562746 176.70520915 -48.44117884 176.87663082 -44.39453125 176.90234375 C-43.65054077 176.90335083 -42.90655029 176.90435791 -42.14001465 176.90539551 C-39.36416073 176.91062257 -36.58832879 176.92458385 -33.8125 176.9375 C-27.604375 176.958125 -21.39625 176.97875 -15 177 C-15 161.82 -15 146.64 -15 131 C-28.26845825 131.19759581 -28.26845825 131.19759581 -41.53588867 131.45043945 C-43.20489909 131.46504872 -44.87392737 131.47778836 -46.54296875 131.48828125 C-47.40265259 131.51386108 -48.26233643 131.53944092 -49.14807129 131.5657959 C-53.61664931 131.569042 -55.4122243 131.45761898 -59.04956055 128.62573242 C-61.16258971 125.78111749 -61.67964863 124.49751246 -61.625 121 C-61.63789062 120.175 -61.65078125 119.35 -61.6640625 118.5 C-60.66915702 114.75447347 -59.05078884 113.37522388 -56 111 C-52.83788243 110.32100171 -49.76474135 110.41585513 -46.54296875 110.51171875 C-45.74201782 110.51675415 -44.94106689 110.52178955 -44.11584473 110.52697754 C-41.13936288 110.55303144 -38.16339347 110.62283901 -35.1875 110.6875 C-28.525625 110.790625 -21.86375 110.89375 -15 111 C-15 95.82 -15 80.64 -15 65 C-27.2357977 65.11845439 -27.2357977 65.11845439 -39.47119141 65.27026367 C-41.01464208 65.27903238 -42.55809974 65.28667541 -44.1015625 65.29296875 C-44.89135498 65.30831665 -45.68114746 65.32366455 -46.49487305 65.33947754 C-51.400884 65.34178516 -54.76491619 64.75187873 -59 62 C-61.6790573 57.98141405 -61.69610694 54.72358279 -61 50 C-59.20606332 47.12970131 -58.01736724 45.50868362 -55 44 C-52.01029711 43.91294854 -49.04415045 43.88449855 -46.0546875 43.90234375 C-44.72716965 43.90446617 -44.72716965 43.90446617 -43.37283325 43.90663147 C-40.54018809 43.9122386 -37.70762136 43.92479229 -34.875 43.9375 C-32.95703239 43.94251408 -31.03906354 43.94707715 -29.12109375 43.95117188 C-24.41403218 43.96221034 -19.7070294 43.97947975 -15 44 C-15.02094727 42.91058105 -15.04189453 41.82116211 -15.06347656 40.69873047 C-15.13611865 36.63978322 -15.18188718 32.58089294 -15.21972656 28.52148438 C-15.2397871 26.76780521 -15.26704251 25.01419247 -15.30175781 23.26074219 C-15.35052302 20.73355682 -15.37302392 18.20725909 -15.390625 15.6796875 C-15.41127014 14.90132538 -15.43191528 14.12296326 -15.45318604 13.3210144 C-15.45531932 8.09368411 -14.45923427 5.14995539 -11 1 C-7.54260443 -0.72869779 -3.78024432 -0.48966895 0 0 Z M6 65 C6 80.18 6 95.36 6 111 C19.53 111 33.06 111 47 111 C47 95.82 47 80.64 47 65 C33.47 65 19.94 65 6 65 Z M68 65 C68 80.18 68 95.36 68 111 C81.53 111 95.06 111 109 111 C109 95.82 109 80.64 109 65 C95.47 65 81.94 65 68 65 Z M129 65 C129 80.18 129 95.36 129 111 C142.53 111 156.06 111 170 111 C170 95.82 170 80.64 170 65 C156.47 65 142.94 65 129 65 Z M6 131 C6 146.18 6 161.36 6 177 C19.53 177 33.06 177 47 177 C47 161.82 47 146.64 47 131 C33.47 131 19.94 131 6 131 Z M68 131 C68 146.18 68 161.36 68 177 C81.53 177 95.06 177 109 177 C109 161.82 109 146.64 109 131 C95.47 131 81.94 131 68 131 Z " fill="#000000" transform="translate(111,180)"/>
<path d="M0 0 C4.82951394 1.3048907 7.7973912 4.62440299 11.17675781 8.17236328 C12.88896992 9.95727959 14.64258527 11.69555521 16.40234375 13.43359375 C19.8450997 16.83921008 23.25805951 20.27253385 26.66015625 23.71875 C30.19447676 22.21584971 32.42750956 20.17111567 35.1015625 17.4375 C35.93236328 16.59574219 36.76316406 15.75398438 37.61914062 14.88671875 C38.90788086 13.56607422 38.90788086 13.56607422 40.22265625 12.21875 C41.93003071 10.47694752 43.63957149 8.73726516 45.3515625 7 C46.10638916 6.22720703 46.86121582 5.45441406 47.63891602 4.65820312 C50.9148331 1.51484217 53.05972922 0.39687653 57.53515625 0.28125 C61.2030146 0.38313495 62.5464663 0.65053603 65.78515625 2.59375 C68.02010154 6.31865882 68.63317116 8.74244696 68.37890625 13.05859375 C67.07401555 17.88810769 63.75450326 20.85598495 60.20654297 24.23535156 C58.42162666 25.94756367 56.68335104 27.70117902 54.9453125 29.4609375 C51.53969617 32.90369345 48.1063724 36.31665326 44.66015625 39.71875 C46.16305654 43.25307051 48.20779058 45.48610331 50.94140625 48.16015625 C51.78316406 48.99095703 52.62492187 49.82175781 53.4921875 50.67773438 C54.81283203 51.96647461 54.81283203 51.96647461 56.16015625 53.28125 C57.90195873 54.98862446 59.64164109 56.69816524 61.37890625 58.41015625 C62.5380957 59.54239624 62.5380957 59.54239624 63.72070312 60.69750977 C66.86406408 63.97342685 67.98202972 66.11832297 68.09765625 70.59375 C67.9957713 74.26160835 67.72837022 75.60506005 65.78515625 78.84375 C62.06024743 81.07869529 59.63645929 81.69176491 55.3203125 81.4375 C50.49079856 80.1326093 47.5229213 76.81309701 44.14355469 73.26513672 C42.43134258 71.48022041 40.67772723 69.74194479 38.91796875 68.00390625 C35.4752128 64.59828992 32.06225299 61.16496615 28.66015625 57.71875 C25.12583574 59.22165029 22.89280294 61.26638433 20.21875 64 C19.38794922 64.84175781 18.55714844 65.68351562 17.70117188 66.55078125 C16.41243164 67.87142578 16.41243164 67.87142578 15.09765625 69.21875 C13.39028179 70.96055248 11.68074101 72.70023484 9.96875 74.4375 C9.21392334 75.21029297 8.45909668 75.98308594 7.68139648 76.77929688 C4.4054794 79.92265783 2.26058328 81.04062347 -2.21484375 81.15625 C-5.8827021 81.05436505 -7.2261538 80.78696397 -10.46484375 78.84375 C-12.69978904 75.11884118 -13.31285866 72.69505304 -13.05859375 68.37890625 C-11.75370305 63.54939231 -8.43419076 60.58151505 -4.88623047 57.20214844 C-3.10131416 55.48993633 -1.36303854 53.73632098 0.375 51.9765625 C3.78061633 48.53380655 7.2139401 45.12084674 10.66015625 41.71875 C9.15725596 38.18442949 7.11252192 35.95139669 4.37890625 33.27734375 C3.53714844 32.44654297 2.69539063 31.61574219 1.828125 30.75976562 C0.94769531 29.90060547 0.06726563 29.04144531 -0.83984375 28.15625 C-2.58164623 26.44887554 -4.32132859 24.73933476 -6.05859375 23.02734375 C-6.83138672 22.27251709 -7.60417969 21.51769043 -8.40039062 20.73999023 C-11.54375158 17.46407315 -12.66171722 15.31917703 -12.77734375 10.84375 C-12.6754588 7.17589165 -12.40805772 5.83243995 -10.46484375 2.59375 C-6.73993493 0.35880471 -4.31614679 -0.25426491 0 0 Z " fill="#000000" transform="translate(374.33984375,361.28125)"/>
</svg>
