<?xml version="1.0" encoding="UTF-8"?>
<svg version="1.1" xmlns="http://www.w3.org/2000/svg" width="512" height="512">
<path d="M0 0 C1.18529297 -0.02449219 2.37058594 -0.04898437 3.59179688 -0.07421875 C11.5089125 -0.10056522 18.59298644 0.48689216 24.56176758 6.15478516 C28.1602493 10.11463245 30.92807994 13.91030009 30.95492554 19.40875244 C30.96772049 20.59867546 30.96772049 20.59867546 30.98077393 21.81263733 C30.97986755 22.67400803 30.97896118 23.53537872 30.97802734 24.42285156 C30.98474457 25.33717453 30.99146179 26.2514975 30.99838257 27.19352722 C31.01738675 30.21761506 31.0212883 33.24148115 31.0234375 36.265625 C31.02986482 38.37066743 31.03659314 40.47570896 31.04360962 42.58074951 C31.05558921 46.9957486 31.05928985 51.4106694 31.05810547 55.82568359 C31.05790249 61.472601 31.08517988 67.11901394 31.11964989 72.76581192 C31.14193249 77.11537971 31.14594255 81.46482648 31.14488602 85.8144455 C31.14724087 87.89558395 31.15605784 89.9767258 31.17155075 92.05780792 C31.19123349 94.97541659 31.18536301 97.89194274 31.17333984 100.80957031 C31.18457886 101.66284409 31.19581787 102.51611786 31.20739746 103.39524841 C31.13775921 110.07404179 29.38367392 115.3843831 24.86328125 120.3984375 C23.94095703 121.06746094 23.94095703 121.06746094 23 121.75 C22.09701172 122.44222656 22.09701172 122.44222656 21.17578125 123.1484375 C14.41005567 126.48350474 7.09917634 126.69341547 -0.3125 126.625 C-1.56933594 126.63660156 -1.56933594 126.63660156 -2.8515625 126.6484375 C-10.8400899 126.62370522 -18.26969029 126.21908776 -24.3125 120.5 C-25.42625 119.48292969 -25.42625 119.48292969 -26.5625 118.4453125 C-28.34009213 116.34235752 -28.92635689 115.06593477 -29.3125 112.375 C-33.28452505 111.91436592 -36.51317832 112.07168839 -40.3125 113.375 C-44.24406642 117.3122315 -47.1723305 121.79761993 -50.3125 126.375 C-62.91648441 141.64257152 -83.05696528 147.89591536 -102.08935547 149.92480469 C-102.88469696 150.01042664 -103.68003845 150.09604858 -104.4994812 150.18426514 C-105.0977774 150.24720764 -105.69607361 150.31015015 -106.3125 150.375 C-106.32463028 151.60195587 -106.32463028 151.60195587 -106.33700562 152.85369873 C-106.41495964 160.56385332 -106.50225266 168.27381889 -106.60002708 175.98374557 C-106.64996426 179.94746147 -106.69629444 183.91115105 -106.734375 187.875 C-106.77126052 191.7006299 -106.81762918 195.52603826 -106.87056351 199.35147858 C-106.88909013 200.81066246 -106.90420451 202.2698938 -106.91584396 203.72914886 C-106.93273638 205.77376471 -106.96177753 207.8178751 -106.99365234 209.86230469 C-107.00697601 211.02590515 -107.02029968 212.18950562 -107.0340271 213.3883667 C-107.30876612 216.33495403 -107.59962059 217.98273976 -109.3125 220.375 C-112.12354059 222.0636552 -114.21506842 222.62582177 -117.47642422 222.63226891 C-118.30338627 222.6387178 -119.13034833 222.64516669 -119.98236984 222.651811 C-121.33717259 222.6471652 -121.33717259 222.6471652 -122.71934509 222.64242554 C-123.68295332 222.64695665 -124.64656155 222.65148776 -125.63937002 222.65615618 C-128.87673452 222.66884306 -132.11393171 222.66717705 -135.35131836 222.66552734 C-137.66889157 222.67150985 -139.98646279 222.67831475 -142.30403137 222.68588257 C-148.60559277 222.70357653 -154.90709989 222.70823934 -161.20868373 222.70951414 C-166.46488826 222.71141123 -171.72108008 222.71876645 -176.97727972 222.72585833 C-188.66631134 222.74122118 -200.35531644 222.74719509 -212.04435735 222.74584763 C-213.09639094 222.74572776 -213.09639094 222.74572776 -214.16967773 222.74560547 C-214.87188926 222.74552371 -215.57410079 222.74544195 -216.29759146 222.74535771 C-227.68156925 222.74454455 -239.06541481 222.76368975 -250.44935434 222.7918822 C-262.13723491 222.82059913 -273.82504488 222.83405677 -285.51296145 222.83269465 C-292.07532547 222.83218396 -298.63753983 222.83792626 -305.19987297 222.85905075 C-311.36980789 222.87836948 -317.53944938 222.87860114 -323.70939445 222.86401749 C-325.97617011 222.86192048 -328.24296383 222.86668301 -330.5097084 222.8787384 C-333.59971101 222.8941102 -336.68869162 222.88493579 -339.77867126 222.86947632 C-340.67964238 222.87976344 -341.58061349 222.89005057 -342.50888675 222.90064943 C-346.60263622 222.85526128 -348.77765184 222.70003239 -352.3458643 220.53159523 C-355.37504715 217.20982024 -355.43930605 214.46881059 -355.45294189 210.15054321 C-355.45865204 209.06821915 -355.46436218 207.98589508 -355.47024536 206.87077332 C-355.47136322 205.6831691 -355.47248108 204.49556488 -355.47363281 203.27197266 C-355.47859772 202.02135544 -355.48356262 200.77073822 -355.48867798 199.48222351 C-355.50078792 196.0503411 -355.50824497 192.61851963 -355.51268864 189.1866231 C-355.51562061 187.04227339 -355.51972563 184.89792902 -355.52419281 182.753582 C-355.53786467 176.0436088 -355.5475331 169.3336478 -355.5513947 162.62366164 C-355.55587619 154.87927552 -355.57342947 147.13506583 -355.6023953 139.39073336 C-355.62401196 133.40337946 -355.63409895 127.4160752 -355.63543582 121.42868268 C-355.63648378 117.85312897 -355.64238953 114.27774117 -355.66025543 110.70222855 C-355.67979773 106.7136999 -355.67544718 102.72539182 -355.66894531 98.73681641 C-355.6781601 97.55326065 -355.68737488 96.3697049 -355.6968689 95.15028381 C-355.69129974 94.0623201 -355.68573059 92.97435638 -355.67999268 91.85342407 C-355.68145924 90.91063913 -355.6829258 89.96785419 -355.6844368 88.99650002 C-355.23279529 85.81322206 -354.1987532 83.96164866 -352.3125 81.375 C-348.7344039 78.9896026 -346.23126454 79.11432156 -342.10644531 79.16723633 C-341.37597992 79.16843475 -340.64551453 79.16963318 -339.89291382 79.17086792 C-338.30672176 79.17401789 -336.72053377 79.18133032 -335.13437653 79.1923008 C-332.62007683 79.20715263 -330.10630885 79.2055555 -327.59197998 79.19865417 C-320.44331212 79.17982243 -313.29505444 79.17331633 -306.14648438 79.22045898 C-301.77248248 79.24811245 -297.39964051 79.24167443 -293.02565765 79.21344566 C-291.36235667 79.20919508 -289.69897144 79.21761708 -288.03580475 79.2391758 C-279.04961686 79.62517144 -279.04961686 79.62517144 -270.76293945 76.83798218 C-269.00683594 75.10432853 -267.65633841 73.43586628 -266.3125 71.375 C-265.33796875 70.2921875 -265.33796875 70.2921875 -264.34375 69.1875 C-263.8384375 68.589375 -263.333125 67.99125 -262.8125 67.375 C-260.5669206 64.76852391 -258.26698488 62.28565479 -255.8125 59.875 C-253.37860268 57.48446833 -251.09894441 55.02453738 -248.875 52.4375 C-245.83381216 48.9064564 -242.59973215 45.6399959 -239.27734375 42.375 C-237.37850092 40.44218185 -235.62411004 38.44323174 -233.875 36.375 C-227.90149424 29.54813627 -221.78935768 24.28641987 -213.75 20.0625 C-213.15646729 19.73701172 -212.56293457 19.41152344 -211.95141602 19.07617188 C-199.95854399 13.12382162 -185.90290791 12.93375831 -172.80859375 13.03442383 C-171.22989925 13.03527287 -169.65120358 13.03478957 -168.07250977 13.03309631 C-163.84207977 13.03224573 -159.61191198 13.04971709 -155.38154221 13.07081819 C-150.94000374 13.08974369 -146.49845734 13.0913478 -142.05688477 13.09489441 C-133.67085943 13.10416873 -125.2849533 13.12871912 -116.89898014 13.15894288 C-107.34137131 13.19263168 -97.78375638 13.20900907 -88.22610283 13.22402918 C-68.58816903 13.25527352 -48.95034207 13.30794292 -29.3125 13.375 C-29.01827148 12.58569092 -28.72404297 11.79638184 -28.42089844 10.9831543 C-27.18127686 8.06622097 -26.10227261 7.0234209 -23.5625 5.1875 C-22.90765625 4.69894531 -22.2528125 4.21039063 -21.578125 3.70703125 C-14.71157059 -0.33002919 -7.72182429 0.00831645 0 0 Z M-12.93177795 18.38555908 C-15.10886333 21.52245599 -14.74612094 24.8758971 -14.73242188 28.5625 C-14.74089142 29.39692627 -14.74936096 30.23135254 -14.75808716 31.09106445 C-14.78150929 33.85253081 -14.78247819 36.61344179 -14.78125 39.375 C-14.78834779 41.29166895 -14.79604622 43.20833577 -14.80432129 45.125 C-14.81777761 49.14328926 -14.81932941 53.161382 -14.81347656 57.1796875 C-14.80757551 62.33517221 -14.83818333 67.4897168 -14.87859344 72.64501953 C-14.90441027 76.603242 -14.90735342 80.56123619 -14.90370178 84.51953125 C-14.90539829 86.42059698 -14.91509158 88.32167267 -14.93284607 90.22265625 C-14.95492057 92.87824945 -14.94539426 95.53191482 -14.92773438 98.1875 C-14.94099762 98.97616455 -14.95426086 99.7648291 -14.96792603 100.57739258 C-14.98658028 103.01914043 -14.98658028 103.01914043 -14.3125 106.375 C-11.21566801 108.94171842 -8.79233604 109.75532762 -4.80859375 109.7734375 C-3.57399414 109.77923828 -3.57399414 109.77923828 -2.31445312 109.78515625 C-1.46818359 109.77355469 -0.62191406 109.76195313 0.25 109.75 C1.52520508 109.76740234 1.52520508 109.76740234 2.82617188 109.78515625 C6.44377176 109.76813225 8.98223374 109.74779917 12.21484375 108.0390625 C15.36853235 104.47547803 14.83554551 100.24747539 14.83276367 95.77001953 C14.83612228 94.99732727 14.8394809 94.22463501 14.84294128 93.42852783 C14.85244786 90.87160641 14.85439429 88.3147505 14.85546875 85.7578125 C14.85868167 83.9804583 14.86204577 82.20310437 14.86555481 80.42575073 C14.87154544 76.69837837 14.87339479 72.97102919 14.87280273 69.24365234 C14.87270115 64.46981841 14.88635021 59.69613333 14.90357494 54.92233467 C14.91469944 51.25059325 14.9167218 47.57888775 14.91619301 43.9071312 C14.91737256 42.14729169 14.92179298 40.38745124 14.92952538 38.62762833 C14.93933378 36.16456972 14.93644384 33.70183344 14.93041992 31.23876953 C14.93884918 30.15071518 14.93884918 30.15071518 14.94744873 29.04067993 C14.92275522 25.06292055 14.58046232 21.90742963 12.6875 18.375 C8.80869395 16.43559697 4.01635864 17.14658815 -0.25 17.125 C-1.26513672 17.104375 -2.28027344 17.08375 -3.32617188 17.0625 C-4.78700195 17.05476563 -4.78700195 17.05476563 -6.27734375 17.046875 C-7.61720337 17.03285645 -7.61720337 17.03285645 -8.98413086 17.01855469 C-11.29391304 17.2152921 -11.29391304 17.2152921 -12.93177795 18.38555908 Z M-222.0625 48.75 C-222.86042969 49.56210937 -223.65835938 50.37421875 -224.48046875 51.2109375 C-228.73995169 55.57533381 -232.82756229 60.05290232 -236.81152344 64.66894531 C-239.22653781 67.41392261 -241.86735888 69.90211594 -244.515625 72.41796875 C-246.49768037 74.57668558 -247.83877263 76.84990661 -249.3125 79.375 C-248.30660828 79.38086624 -247.30071655 79.38673248 -246.26434326 79.39277649 C-236.78823493 79.4499708 -227.31235681 79.5227151 -217.836483 79.61071491 C-212.96473593 79.65545685 -208.09307323 79.69470452 -203.22119141 79.72143555 C-198.52020335 79.7474304 -193.81953929 79.78780564 -189.11875153 79.83818626 C-187.32463865 79.85488085 -185.53046969 79.86637897 -183.73628998 79.87261391 C-181.22456333 79.88222692 -178.71367043 79.9102518 -176.20214844 79.94262695 C-175.45911972 79.94119186 -174.716091 79.93975677 -173.95054626 79.9382782 C-170.84459469 79.99495989 -168.63528092 80.19758027 -165.88970947 81.70671082 C-164.3125 83.375 -164.3125 83.375 -163.1875 86.5 C-163.51911904 96.78019027 -174.58650567 105.28950566 -181.3125 112.375 C-192.89478885 124.24536413 -192.89478885 124.24536413 -201.3125 138.375 C-201.03705805 141.69050202 -201.03705805 141.69050202 -199.3125 144.375 C-187.09294062 145.33798501 -187.09294062 145.33798501 -176.3125 140.375 C-173.49371056 137.83702981 -170.89848101 135.1468 -168.3125 132.375 C-166.12530481 130.16930062 -163.92332464 127.97928976 -161.71508789 125.79467773 C-152.6215028 116.86370553 -152.6215028 116.86370553 -144.07421875 107.41796875 C-141.76241317 104.73709443 -139.34589449 102.15615561 -136.9375 99.5625 C-132.46309254 94.7410726 -128.31754348 89.75533645 -124.28515625 84.5546875 C-122.30797487 82.36999995 -121.09179418 81.2908436 -118.3125 80.375 C-115.9453125 80.36328125 -115.9453125 80.36328125 -113.4375 80.6875 C-112.61507812 80.78675781 -111.79265625 80.88601562 -110.9453125 80.98828125 C-109.09660498 81.25982731 -107.25286196 81.5663632 -105.4140625 81.8984375 C-94.59298087 83.56112259 -85.00960365 83.00072383 -75.875 76.69140625 C-72.67668336 74.24532527 -69.66780315 71.71297129 -66.75 68.9375 C-63.06551007 66.57564748 -60.64561761 66.88577704 -56.3125 67.375 C-54.3125 68.375 -54.3125 68.375 -53.3125 70.375 C-52.61296089 73.75610569 -52.37141023 75.17306734 -53.3125 78.375 C-61.24706501 89.46816882 -74.15634285 96.04159851 -87.3125 98.375 C-88.93211498 98.45149781 -90.55439445 98.48311681 -92.17578125 98.47265625 C-92.97540283 98.47015869 -93.77502441 98.46766113 -94.59887695 98.46508789 C-95.59749756 98.45598389 -96.59611816 98.44687988 -97.625 98.4375 C-102.4203125 98.4065625 -102.4203125 98.4065625 -107.3125 98.375 C-107.3125 109.595 -107.3125 120.815 -107.3125 132.375 C-91.6368787 132.375 -76.50678538 127.99779906 -65.125 116.8125 C-60.06470434 111.63790777 -55.98170772 105.95767785 -52.0546875 99.89453125 C-50.3125 97.375 -50.3125 97.375 -48.3125 96.375 C-39.8975 95.88 -39.8975 95.88 -31.3125 95.375 C-31.3125 73.925 -31.3125 52.475 -31.3125 30.375 C-51.55824124 30.30715118 -71.80388973 30.25194164 -92.049716 30.21956348 C-101.45123568 30.20412689 -110.85267945 30.18309902 -120.25415039 30.14868164 C-128.45315934 30.11868073 -136.65211328 30.09940171 -144.85117561 30.09273452 C-149.18826952 30.08884029 -153.52520612 30.07975598 -157.86224937 30.05780983 C-161.95391535 30.0372753 -166.0453609 30.03120004 -170.13707352 30.03567696 C-171.62969096 30.03485927 -173.12231665 30.02899545 -174.61488914 30.01738358 C-194.36461006 29.8714193 -208.31425585 34.34492046 -222.0625 48.75 Z M-338.3125 96.375 C-338.3125 103.965 -338.3125 111.555 -338.3125 119.375 C-328.59196212 115.7297983 -321.95075407 111.28006541 -317.1875 101.875 C-315.8555669 99.22783442 -315.8555669 99.22783442 -315.3125 96.375 C-322.9025 96.375 -330.4925 96.375 -338.3125 96.375 Z M-298.3125 96.375 C-299.6325 100.665 -300.9525 104.955 -302.3125 109.375 C-310.92646407 125.08281682 -321.45662528 131.31823758 -338.3125 136.375 C-338.3125 145.945 -338.3125 155.515 -338.3125 165.375 C-334.3525 166.695 -330.3925 168.015 -326.3125 169.375 C-312.33897979 177.01169128 -303.89617197 185.94823305 -299.3125 201.375 C-298.9825 202.695 -298.6525 204.015 -298.3125 205.375 C-254.7525 205.375 -211.1925 205.375 -166.3125 205.375 C-164.9925 201.085 -163.6725 196.795 -162.3125 192.375 C-155.25311967 179.61381247 -146.76356195 172.81571769 -133.3125 167.375 C-128.8575 166.385 -128.8575 166.385 -124.3125 165.375 C-124.3125 147.555 -124.3125 129.735 -124.3125 111.375 C-128.81344419 115.23295216 -132.36702781 118.4562984 -136.109375 122.84765625 C-140.8001111 128.22869571 -145.72143332 133.40315489 -150.62597656 138.58886719 C-151.67075502 139.69535231 -152.71240612 140.80481072 -153.74902344 141.91894531 C-161.05903659 149.76477095 -170.37243947 158.33502172 -181.3125 160.375 C-183.17940743 160.36088731 -185.04634261 160.34587569 -186.91308594 160.31738281 C-190.23553141 160.3093692 -193.08740291 160.54117649 -196.3125 161.375 C-198.66197566 164.21134419 -199.76043923 166.86454559 -201.078125 170.29296875 C-204.04018583 177.6887472 -210.04159826 181.12962626 -216.98046875 184.4296875 C-225.50692036 187.88597107 -237.84947388 187.88445255 -246.36328125 184.4140625 C-256.57139113 178.97246485 -262.86618609 171.36785769 -266.3125 160.375 C-268.68952061 150.01119013 -267.15360243 140.05214957 -261.8046875 130.75390625 C-256.10013128 122.88692523 -247.95301698 117.1451101 -238.3125 115.375 C-229.06529839 114.48647885 -221.77166791 115.64697733 -213.3125 119.375 C-211.8275 119.87 -211.8275 119.87 -210.3125 120.375 C-199.5486147 108.60307879 -199.5486147 108.60307879 -189.3125 96.375 C-225.2825 96.375 -261.2525 96.375 -298.3125 96.375 Z M-249.0625 141.625 C-251.69581342 147.41828953 -251.93043442 152.52352453 -249.875 158.5625 C-247.27334185 164.42307732 -242.93446951 167.56401525 -237.3125 170.375 C-230.15733926 171.10978923 -224.23480956 170.67322467 -218.3125 166.375 C-215.04066773 163.10316773 -213.04879016 159.97681351 -212.3125 155.375 C-213.24383747 153.74515942 -214.19273647 152.1214294 -215.25 150.5703125 C-216.67283622 147.63048179 -216.77233822 144.93005784 -217.0625 141.6875 C-217.55884479 137.26926293 -217.55884479 137.26926293 -219.859375 133.6484375 C-231.12254696 127.38611389 -241.73095115 132.19872291 -249.0625 141.625 Z M-338.3125 183.375 C-338.3125 190.635 -338.3125 197.895 -338.3125 205.375 C-330.7225 205.375 -323.1325 205.375 -315.3125 205.375 C-318.67075632 196.41964982 -322.97359689 189.2921824 -331.6875 184.75 C-335.1338295 183.19767288 -335.1338295 183.19767288 -338.3125 183.375 Z M-141.51953125 191.44140625 C-145.42632 195.6546098 -147.92023212 199.80592849 -149.3125 205.375 C-141.0625 205.375 -132.8125 205.375 -124.3125 205.375 C-124.3125 197.785 -124.3125 190.195 -124.3125 182.375 C-130.81645556 182.375 -136.97414966 187.2226389 -141.51953125 191.44140625 Z " fill="#000000" transform="translate(481.3125,9.625)"/>
<path d="M0 0 C0.79376817 -0.00367669 1.58753633 -0.00735338 2.40535808 -0.01114148 C5.07995789 -0.02220346 7.75451889 -0.02602641 10.42913818 -0.02983093 C12.34085718 -0.03609369 14.25257495 -0.04274032 16.16429138 -0.04974365 C21.36895104 -0.06717092 26.5736015 -0.07771013 31.77828312 -0.08594918 C35.02836582 -0.09109571 38.27844564 -0.0971716 41.52852631 -0.10346031 C51.69253469 -0.12251726 61.85653578 -0.13674729 72.0205586 -0.14507228 C83.76194888 -0.15484737 95.50315077 -0.18117195 107.24447465 -0.22157317 C116.31374977 -0.25171147 125.38297083 -0.26653899 134.45229506 -0.26985329 C139.87176725 -0.27220641 145.29103828 -0.28120077 150.71045685 -0.30631447 C155.80925979 -0.32956013 160.90772866 -0.3338425 166.00657082 -0.32355309 C167.87785515 -0.32305676 169.74915572 -0.32940561 171.62038994 -0.34310913 C174.17595788 -0.36077672 176.73032027 -0.35374765 179.28588867 -0.34057617 C180.0257823 -0.35154542 180.76567593 -0.36251466 181.52799058 -0.37381631 C186.6128857 -0.31057788 189.46302106 0.97991143 193.39691162 4.14717102 C198.43993598 9.88578495 197.61592002 16.1614857 197.637146 23.43403625 C197.64682668 25.44205129 197.67802453 27.44992484 197.70941162 29.4577179 C197.71456787 30.73324524 197.71972412 32.00877258 197.72503662 33.32295227 C197.73438232 34.48737854 197.74372803 35.65180481 197.75335693 36.85151672 C197.209408 41.88080896 195.52628825 45.10043171 191.83441162 48.52217102 C189.39691162 50.14717102 189.39691162 50.14717102 187.39691162 50.14717102 C187.72691162 64.99717102 188.05691162 79.84717102 188.39691162 95.14717102 C193.01691162 90.52717102 197.63691162 85.90717102 202.39691162 81.14717102 C216.20183527 69.48670153 229.80701074 61.63051244 248.39691162 63.14717102 C257.06601766 65.16267747 263.15236985 70.20110671 268.70941162 76.95967102 C273.49523294 85.99955573 275.12417469 95.85770961 272.74066162 105.91670227 C270.51459935 112.16310975 266.9481309 116.43431965 262.39691162 121.14717102 C260.72791973 122.97838782 259.06148436 124.8119363 257.39691162 126.64717102 C251.10050604 133.51217777 244.71559375 140.29480956 238.33636475 147.0827179 C235.18711356 150.43494197 232.04217625 153.791207 228.89691162 157.14717102 C225.13579453 161.1594544 221.3743428 165.17142265 217.61175537 169.18232727 C210.95383139 176.28044457 204.30386326 183.3858169 197.66619873 190.50288391 C194.67373419 193.71056714 191.67848006 196.91558136 188.67816162 200.11592102 C188.0551416 200.78051331 187.43212158 201.44510559 186.79022217 202.12983704 C185.53246291 203.46998723 184.27351854 204.8090262 183.0133667 206.14692688 C179.87308289 209.48477956 176.75888841 212.84122507 173.68988037 216.24482727 C160.00988845 231.34924399 145.57474056 240.94742877 124.6180706 242.41109467 C120.5361976 242.50361103 116.46522205 242.50484896 112.38299561 242.46846008 C110.83241429 242.46600966 109.28183017 242.46498929 107.73124695 242.465271 C104.42360638 242.46345988 101.11615652 242.45290908 97.80856133 242.43560028 C92.57624097 242.40947368 87.34413988 242.41078054 82.11177063 242.41688538 C67.24439583 242.43042062 52.37722582 242.41260555 37.50994873 242.35664368 C29.27491458 242.32588248 21.04024399 242.32007068 12.80517632 242.34152961 C7.60434294 242.35364053 2.40483659 242.33481369 -2.79582894 242.29304457 C-6.02483196 242.27443823 -9.25324824 242.2850087 -12.48222923 242.30389595 C-13.97823327 242.30679898 -15.47431609 242.29771432 -16.97016144 242.27573204 C-24.69507343 241.82019652 -24.69507343 241.82019652 -31.50022697 244.67813873 C-32.84297195 246.48766588 -32.84297195 246.48766588 -33.68348598 248.41347885 C-35.58875951 252.00542013 -39.71088688 253.54569632 -43.45562744 254.73603821 C-48.33655743 255.67049547 -53.40091392 255.37535527 -58.35308838 255.39717102 C-59.50808838 255.41779602 -60.66308838 255.43842102 -61.85308838 255.45967102 C-69.65154671 255.49528042 -75.95482982 255.29871832 -82.09918213 249.99092102 C-82.73984619 249.21748352 -83.38051025 248.44404602 -84.04058838 247.64717102 C-85.02865479 246.48701477 -85.02865479 246.48701477 -86.03668213 245.30342102 C-89.16688197 240.9945175 -88.76369954 236.58982265 -88.78009033 231.48823547 C-88.78666153 230.60331924 -88.79323273 229.71840302 -88.80000305 228.80667114 C-88.81973206 225.87459732 -88.83139881 222.94257475 -88.84136963 220.01045227 C-88.84544516 219.00819296 -88.84952068 218.00593365 -88.85371971 216.97330284 C-88.8745804 211.66675904 -88.88888121 206.36024109 -88.89825439 201.05366516 C-88.90930884 195.58049857 -88.94369779 190.10773965 -88.98342609 184.63471699 C-89.00961142 180.41984314 -89.01794803 176.20506606 -89.02153587 171.99011803 C-89.02639815 169.97316426 -89.03800186 167.95621471 -89.05657387 165.93934059 C-89.08100214 163.11026149 -89.07999332 160.28223218 -89.07305908 157.45307922 C-89.08586914 156.62628662 -89.0986792 155.79949402 -89.11187744 154.94764709 C-89.05593576 148.65755423 -87.50698408 143.37378729 -83.22650623 138.61760426 C-75.93962633 132.0746961 -67.43642631 132.78132444 -58.22808838 132.77217102 C-56.93902588 132.74767883 -55.64996338 132.72318665 -54.32183838 132.69795227 C-46.43718594 132.67366689 -39.97447651 132.84835139 -34.05889893 138.66572571 C-32.29615802 140.69811315 -30.80766276 142.73802226 -29.60308838 145.14717102 C-27.60945872 145.39333566 -25.60673019 145.56622848 -23.60308838 145.70967102 C-22.48933838 145.81408508 -21.37558838 145.91849915 -20.22808838 146.02607727 C-15.46554618 144.87136607 -13.4659849 143.03080084 -10.32330322 139.33456421 C-6.57113531 132.38215679 -7.5180625 124.16209712 -7.60308838 116.45576477 C-7.59556201 114.54046993 -7.58452115 112.62518598 -7.57012939 110.70993042 C-7.54180103 105.69379514 -7.56091589 100.67894262 -7.59020996 95.66285706 C-7.61166583 90.53449805 -7.58784341 85.40636611 -7.56793213 80.2780304 C-7.53555802 70.23412183 -7.55334735 60.19098533 -7.60308838 50.14717102 C-8.38168213 49.86744446 -9.16027588 49.5877179 -9.96246338 49.29951477 C-13.27106544 47.85567215 -14.58590787 46.10089962 -16.60308838 43.14717102 C-18.25424812 38.19369179 -17.82818144 33.04809997 -17.84332275 27.86030579 C-17.85300343 25.85229075 -17.88420129 23.8444172 -17.91558838 21.83662415 C-17.92332275 19.92333313 -17.92332275 19.92333313 -17.93121338 17.97138977 C-17.94055908 16.8069635 -17.94990479 15.64253723 -17.95953369 14.44282532 C-17.41727364 9.4291483 -15.77039454 6.20059365 -12.04058838 2.83467102 C-7.92521131 -0.01443618 -4.87944405 -0.00120134 0 0 Z M-0.60308838 17.14717102 C-0.60308838 22.75717102 -0.60308838 28.36717102 -0.60308838 34.14717102 C20.51691162 34.14717102 41.63691162 34.14717102 63.39691162 34.14717102 C63.39691162 28.53717102 63.39691162 22.92717102 63.39691162 17.14717102 C42.27691162 17.14717102 21.15691162 17.14717102 -0.60308838 17.14717102 Z M80.39691162 17.14717102 C80.39691162 45.85717102 80.39691162 74.56717102 80.39691162 104.14717102 C86.06945759 106.98344401 93.05481242 105.14717102 99.39691162 105.14717102 C99.39691162 76.10717102 99.39691162 47.06717102 99.39691162 17.14717102 C93.12691162 17.14717102 86.85691162 17.14717102 80.39691162 17.14717102 Z M116.39691162 17.14717102 C116.39691162 22.75717102 116.39691162 28.36717102 116.39691162 34.14717102 C137.51691162 34.14717102 158.63691162 34.14717102 180.39691162 34.14717102 C180.39691162 28.53717102 180.39691162 22.92717102 180.39691162 17.14717102 C159.27691162 17.14717102 138.15691162 17.14717102 116.39691162 17.14717102 Z M9.39691162 51.14717102 C9.39691162 73.25717102 9.39691162 95.36717102 9.39691162 118.14717102 C13.69951833 115.28221763 13.69951833 115.28221763 17.96722412 112.36592102 C32.86860562 102.34052674 45.07173222 102.14717102 63.39691162 102.14717102 C63.39691162 85.31717102 63.39691162 68.48717102 63.39691162 51.14717102 C45.57691162 51.14717102 27.75691162 51.14717102 9.39691162 51.14717102 Z M116.39691162 51.14717102 C116.39691162 68.96717102 116.39691162 86.78717102 116.39691162 105.14717102 C120.02691162 106.46717102 123.65691162 107.78717102 127.39691162 109.14717102 C134.63574353 113.18192979 138.77702697 119.28751707 141.39691162 127.14717102 C141.62251838 129.53971678 141.80539757 131.93645225 141.95941162 134.33467102 C142.08509521 136.24312805 142.08509521 136.24312805 142.21331787 138.19013977 C142.27390381 139.16596008 142.33448975 140.1417804 142.39691162 141.14717102 C147.99558061 137.34007611 152.75167661 132.98494723 157.52191162 128.20967102 C158.10730713 127.62492004 158.69270264 127.04016907 159.2958374 126.43769836 C161.02028612 124.69188222 162.72868247 122.94714908 164.39691162 121.14717102 C164.90024017 120.7277272 165.40356873 120.30828339 165.92214966 119.87612915 C169.95751316 116.09224288 170.83096976 113.07521442 171.07806396 107.56929016 C171.07711712 104.93514653 171.04482478 102.31446244 170.98284912 99.68232727 C170.97164299 98.27987492 170.9631095 96.8773989 170.9571228 95.47491455 C170.93433454 91.80330794 170.87550325 88.1331507 170.80889893 84.46211243 C170.74725675 80.70824641 170.71973143 76.95413664 170.68988037 73.1999054 C170.62893381 65.84771858 170.51149336 58.49949903 170.39691162 51.14717102 C152.57691162 51.14717102 134.75691162 51.14717102 116.39691162 51.14717102 Z M203.53780937 104.81134415 C201.65556671 106.73733283 199.76298639 108.65263926 197.86763 110.5657196 C193.16798522 115.31292176 188.48324385 120.07471373 183.80291748 124.84095764 C179.82857071 128.88815467 175.84620166 132.92709394 171.85203743 136.95473862 C170.00349762 138.82517285 168.16712339 140.70699089 166.33085632 142.58946228 C150.5703967 158.58223056 134.90869856 165.23042045 112.35962772 165.4415617 C110.15195277 165.4509246 107.94444695 165.45027297 105.73675537 165.44795227 C104.17307931 165.45184985 102.60940429 165.45618667 101.04573059 165.4609375 C97.79760266 165.46833398 94.54958362 165.46815297 91.30145264 165.46284485 C87.14200817 165.45700264 82.98300217 165.47412603 78.82363033 165.49718952 C75.60744126 165.51190602 72.39135906 165.51280239 69.17514229 165.50967979 C67.64055055 165.51019222 66.10595271 165.51541518 64.57139397 165.52549171 C62.43473131 165.53782377 60.29894104 165.53108934 58.16229248 165.51948547 C56.94907822 165.5201149 55.73586395 165.52074432 54.48588562 165.52139282 C51.1363667 165.11560663 49.76472347 164.50528535 47.39691162 162.14717102 C46.28468446 159.12826874 46.28040372 157.56465767 47.14691162 154.45967102 C48.39691162 152.14717102 48.39691162 152.14717102 51.39691162 150.14717102 C54.14025879 149.89561462 54.14025879 149.89561462 57.50140381 149.89179993 C58.7599115 149.884841 60.01841919 149.87788208 61.31506348 149.87071228 C62.32368565 149.87173384 62.32368565 149.87173384 63.35268402 149.87277603 C65.46375024 149.87374266 67.57430915 149.86078193 69.68530273 149.84379578 C75.68678816 149.79757609 81.68822309 149.77293742 87.68988037 149.76631165 C91.36346819 149.76127848 95.03652911 149.73693444 98.70993805 149.70098495 C100.10524574 149.69122475 101.50062628 149.68883432 102.89595795 149.69415665 C113.36839274 149.80614955 113.36839274 149.80614955 122.39691162 145.14717102 C125.81155052 141.40208319 125.97429414 137.47058649 125.80706787 132.58467102 C125.10585847 128.41748373 123.58914635 126.93188642 120.39691162 124.14717102 C114.1421403 120.41887114 108.18139027 120.88901836 101.04721069 121.09223938 C89.12422405 121.41562333 77.59478874 120.95718511 65.76849365 119.21357727 C51.22632215 117.09908462 39.70027249 117.66294341 27.26409912 125.99482727 C19.93215526 131.49877968 13.34690029 137.80419825 7.45550537 144.82685852 C4.45803361 148.20541303 1.27441986 151.38863176 -1.91558838 154.58467102 C-2.5393335 155.21284729 -3.16307861 155.84102356 -3.8057251 156.48823547 C-4.39498779 157.07564514 -4.98425049 157.66305481 -5.59136963 158.26826477 C-6.12286621 158.79863342 -6.65436279 159.32900208 -7.20196533 159.8754425 C-12.93001957 165.07450759 -18.59215336 162.61711602 -27.60308838 163.14717102 C-27.60308838 183.60717102 -27.60308838 204.06717102 -27.60308838 225.14717102 C-7.60084402 225.21500472 12.40130658 225.27022063 32.40363693 225.30260754 C41.69196453 225.31804792 50.98021535 225.33908312 60.26849365 225.37348938 C68.36824353 225.4034786 76.46793778 225.42276656 84.56774163 225.4294365 C88.85282548 225.43333269 93.13775025 225.44242971 97.4227829 225.46436119 C101.46437915 225.48487715 105.50575232 225.49097463 109.54739571 225.48649406 C111.0226952 225.48731256 112.49800295 225.49318764 113.97325706 225.50478745 C129.57500291 225.62134044 142.24887168 223.11333206 153.84613037 212.12373352 C155.26939082 210.68351396 156.68218524 209.23287765 158.08441162 207.77217102 C158.7914624 207.05545227 159.49851318 206.33873352 160.22698975 205.60029602 C164.26100667 201.48076537 168.11053312 197.23641632 171.8805542 192.87519836 C173.63661172 190.87401093 175.4818589 188.99618744 177.39691162 187.14717102 C180.01731771 184.56707887 182.50014574 181.93613495 184.89691162 179.14717102 C187.91333085 175.63715592 191.12786294 172.39665826 194.42425537 169.15107727 C196.97028991 166.56470951 199.31712719 163.83181822 201.68206787 161.08076477 C203.89860559 158.58147964 206.26853444 156.26435218 208.65081787 153.92451477 C210.46168805 152.08123528 212.15012516 150.16894303 213.83441162 148.20967102 C216.25308941 145.40140755 218.75590845 142.74746509 221.39691162 140.14717102 C224.01731771 137.56707887 226.50014574 134.93613495 228.89691162 132.14717102 C231.2936775 129.35820709 233.77650553 126.72726317 236.39691162 124.14717102 C239.62254523 120.9649594 242.64293193 117.67168421 245.59222412 114.23310852 C248.26561958 111.14308 251.03420193 108.13931576 253.79534912 105.12763977 C256.48621145 101.8001588 256.74390424 98.54072558 256.67425537 94.33857727 C256.00165794 89.02411028 253.57490126 85.24297533 249.70941162 81.64717102 C231.96370921 73.61138125 214.70750443 93.37675783 203.53780937 104.81134415 Z M-71.22434998 152.206604 C-72.91470409 155.8117836 -73.01766365 158.91312569 -72.97540283 162.81147766 C-72.9790535 163.56656113 -72.98270416 164.32164459 -72.98646545 165.09960938 C-72.99454563 167.58574691 -72.98098357 170.07122752 -72.96636963 172.55732727 C-72.96585077 174.28937784 -72.96636947 176.02142901 -72.96788025 177.753479 C-72.96779064 181.3790214 -72.95738392 185.00434089 -72.93927002 188.62983704 C-72.91656632 193.27595128 -72.91604307 197.92174046 -72.92278767 202.56789494 C-72.92612942 206.1426787 -72.91949393 209.71738841 -72.90965843 213.29215813 C-72.90581099 215.00536652 -72.90465633 216.71858315 -72.90624428 218.43179512 C-72.90661528 220.82544273 -72.89398572 223.21867389 -72.87774658 225.61225891 C-72.880224 226.31938019 -72.88270142 227.02650146 -72.88525391 227.75505066 C-72.8462599 231.35776996 -72.69580176 234.14067722 -70.60308838 237.14717102 C-66.83594526 239.03074258 -62.31135908 238.41840588 -58.16558838 238.45967102 C-57.19814697 238.48867493 -56.23070557 238.51767883 -55.23394775 238.54756165 C-53.84079346 238.56013 -53.84079346 238.56013 -52.41949463 238.57295227 C-51.56814941 238.58753479 -50.7168042 238.60211731 -49.83966064 238.61714172 C-47.51490544 238.33344331 -47.51490544 238.33344331 -45.98756409 236.60792542 C-44.079183 233.21598641 -44.1837401 230.09412033 -44.21490479 226.30513 C-44.20964783 225.51932556 -44.20439087 224.73352112 -44.19897461 223.92390442 C-44.18578581 221.33015486 -44.19450767 218.73702042 -44.20465088 216.14326477 C-44.20263002 214.34012738 -44.19971848 212.53699079 -44.19595337 210.7338562 C-44.19153171 206.9569164 -44.19795671 203.18018957 -44.2119751 199.40327454 C-44.2290792 194.5585383 -44.21921713 189.7143002 -44.20125771 184.86958218 C-44.19042603 181.14728022 -44.19386315 177.42509671 -44.20164108 173.70279121 C-44.20364416 171.91618351 -44.20118003 170.1295651 -44.19420242 168.34296989 C-44.18659666 165.84829512 -44.19817875 163.35443172 -44.21490479 160.8598175 C-44.20883209 160.11947769 -44.2027594 159.37913788 -44.19650269 158.61636353 C-44.24184514 154.65542451 -44.24184514 154.65542451 -45.9828186 151.19137573 C-49.60603353 148.856346 -54.43904761 149.63654847 -58.60308838 149.64717102 C-59.61371338 149.61881165 -60.62433838 149.59045227 -61.66558838 149.56123352 C-62.63496338 149.5586554 -63.60433838 149.55607727 -64.60308838 149.55342102 C-65.48996338 149.54633118 -66.37683838 149.53924133 -67.29058838 149.53193665 C-69.77854377 149.94611307 -69.77854377 149.94611307 -71.22434998 152.206604 Z " fill="#000000" transform="translate(88.60308837890625,246.8528289794922)"/>
</svg>
