<?xml version="1.0" encoding="UTF-8"?>
<svg version="1.1" xmlns="http://www.w3.org/2000/svg" width="512" height="512">
<path d="M0 0 C1.41945419 -0.01058945 1.41945419 -0.01058945 2.86758423 -0.02139282 C42.06384731 -0.24745021 42.06384731 -0.24745021 58.8671875 3.203125 C60.38602539 3.50114014 60.38602539 3.50114014 61.93554688 3.80517578 C104.69483974 12.35575337 145.4936395 30.91396852 178.23828125 59.99609375 C180.6777784 62.04411142 183.09018689 63.65586695 185.8671875 65.203125 C186.44726562 64.72101563 187.02734375 64.23890625 187.625 63.7421875 C193.36738678 59.09900347 197.6891055 55.89490583 205.3046875 56.203125 C210.36168157 56.91212924 213.61028232 59.35077456 216.8671875 63.203125 C219.20240529 66.88180142 219.4539148 70.76988059 219.859375 75.0078125 C219.94017303 75.79147186 220.02097107 76.57513123 220.10421753 77.38253784 C220.36883229 79.98849601 220.61961056 82.59549526 220.8671875 85.203125 C220.95440063 86.11130981 221.04161377 87.01949463 221.13146973 87.9552002 C221.68459918 93.75083771 222.21282093 99.54844582 222.72705078 105.34765625 C222.99500086 108.35975067 223.26888244 111.37127095 223.54296875 114.3828125 C223.71650376 116.32548889 223.88969362 118.26819616 224.0625 120.2109375 C224.14372101 121.09750031 224.22494202 121.98406311 224.30862427 122.89749146 C225.65705644 138.32229389 225.65705644 138.32229389 221.8671875 144.203125 C218.65030233 147.82212081 216.57056276 149.89288238 211.65205383 150.45733643 C203.43316497 150.72988288 196.75269398 148.56514573 189.09765625 145.75 C187.80541633 145.2874722 186.51270693 144.82625421 185.21955872 144.36627197 C182.52884763 143.40510375 179.84264039 142.43257486 177.15942383 141.45068359 C173.73514275 140.19798495 170.30321887 138.96810446 166.86797619 137.74583054 C164.20515017 136.79680925 161.54551842 135.83909986 158.88686562 134.87845612 C157.01247063 134.20187146 155.13640126 133.52993122 153.26029968 132.85809326 C138.36421651 127.39356107 138.36421651 127.39356107 135.4921875 121.453125 C133.67381514 117.3099981 132.86360817 113.66732273 133.8671875 109.203125 C136.12271222 104.13743834 139.1787332 100.24428455 143.8671875 97.203125 C144.5271875 97.203125 145.1871875 97.203125 145.8671875 97.203125 C145.8671875 96.543125 145.8671875 95.883125 145.8671875 95.203125 C145.33996094 94.97367187 144.81273437 94.74421875 144.26953125 94.5078125 C141.73514951 93.13141656 139.53158418 91.48464521 137.25146484 89.72607422 C105.82775013 65.61294229 63.9369895 49.22797921 24.0390625 49 C22.8052182 48.98941055 22.8052182 48.98941055 21.54644775 48.97860718 C-2.95730396 48.70356065 -2.95730396 48.70356065 -27.1328125 52.203125 C-28.03177246 52.39116699 -28.93073242 52.57920898 -29.85693359 52.77294922 C-63.77714417 59.92092989 -93.57376957 75.06020355 -120.26171875 96.94921875 C-123.18091025 99.25453105 -125.10486385 100.19886165 -128.8203125 100.765625 C-132.1328125 100.203125 -132.1328125 100.203125 -134.5703125 98.640625 C-136.77343011 95.20376153 -136.75604984 93.21954344 -136.1328125 89.203125 C-132.63572567 84.37819693 -128.60410273 80.95757702 -123.8203125 77.453125 C-122.76589966 76.67497437 -122.76589966 76.67497437 -121.69018555 75.88110352 C-95.84820924 57.05053846 -66.5439479 42.7381676 -35.1328125 36.203125 C-33.76286133 35.91115234 -33.76286133 35.91115234 -32.36523438 35.61328125 C-4.69080213 29.9789657 27.19216483 29.12754677 54.8671875 35.203125 C55.71893555 35.38004883 56.57068359 35.55697266 57.44824219 35.73925781 C95.00725609 43.62705943 129.66075699 60.22458043 158.8671875 85.203125 C159.59035156 85.80382812 160.31351562 86.40453125 161.05859375 87.0234375 C166.70192604 91.74331541 166.70192604 91.74331541 167.2421875 96.515625 C166.86241966 100.25000875 166.43076699 101.3980259 163.64453125 103.8046875 C163.05800781 104.26617187 162.47148437 104.72765625 161.8671875 105.203125 C161.02285156 105.89148438 160.17851562 106.57984375 159.30859375 107.2890625 C156.84402853 109.2816897 154.3601707 111.24629435 151.8671875 113.203125 C163.36695783 118.30222629 175.26200649 122.33652056 187.1171875 126.515625 C189.23057655 127.26336727 191.34385873 128.01141165 193.45703125 128.75976562 C198.59252269 130.57770491 203.72932242 132.3919057 208.8671875 134.203125 C208.5371875 133.213125 208.2071875 132.223125 207.8671875 131.203125 C207.63954624 129.34960913 207.4548584 127.49068703 207.29467773 125.63012695 C207.14463539 123.91869255 207.14463539 123.91869255 206.99156189 122.17268372 C206.88735428 120.94136215 206.78314667 119.71004059 206.67578125 118.44140625 C206.56621597 117.18047653 206.4566507 115.91954681 206.34376526 114.6204071 C206.0534604 111.27185119 205.76632464 107.92305404 205.48071289 104.57409668 C205.18836148 101.15528819 204.89185795 97.73684012 204.59570312 94.31835938 C204.01569918 87.61360723 203.43986991 80.90850626 202.8671875 74.203125 C199.41503128 76.48565166 196.08175482 78.78548607 192.8671875 81.390625 C189.55697447 83.87486106 187.13863743 85.29804611 182.8671875 85.203125 C178.81091176 83.13442437 175.81948527 80.41035949 172.5546875 77.265625 C156.28904365 62.03587941 137.04821786 49.52590824 116.86962891 40.13867188 C114.83088693 39.18616526 112.80874942 38.20296739 110.78515625 37.21875 C91.89037164 28.22973642 71.48907483 22.53368154 50.8671875 19.203125 C49.57683594 18.99042969 48.28648437 18.77773438 46.95703125 18.55859375 C9.58323231 13.18635171 -28.43696161 17.13290606 -64.1328125 29.203125 C-64.8036084 29.42548828 -65.4744043 29.64785156 -66.16552734 29.87695312 C-96.69173019 40.13143089 -124.61724539 57.30053903 -148.1328125 79.203125 C-149.50356433 80.39552622 -150.87839113 81.58326383 -152.2578125 82.765625 C-160.05472813 89.59378558 -166.72706673 97.0672402 -173.1328125 105.203125 C-173.63506348 105.83428223 -174.13731445 106.46543945 -174.65478516 107.11572266 C-182.29142324 116.7379326 -189.19307973 126.44834259 -195.1328125 137.203125 C-195.56303711 137.97076172 -195.99326172 138.73839844 -196.43652344 139.52929688 C-211.47127686 166.52569585 -221.37139925 195.47881582 -225.1328125 226.203125 C-225.21860062 226.87730972 -225.30438873 227.55149445 -225.39277649 228.24610901 C-226.04886399 233.68900469 -226.31969078 239.05925365 -226.37109375 244.5390625 C-226.38093292 245.40770432 -226.39077209 246.27634613 -226.40090942 247.17131042 C-226.77702534 289.03273242 -220.18639512 328.87082799 -200.20556641 366.19775391 C-199.46824384 367.57608062 -198.73918722 368.95885108 -198.01708984 370.34521484 C-182.27508913 400.54347521 -158.87173695 428.33267855 -131.1328125 448.203125 C-130.53500977 448.63995605 -129.93720703 449.07678711 -129.32128906 449.52685547 C-76.81777726 487.74491098 -12.33813532 502.72330847 51.73974609 492.98657227 C109.10624399 483.38900293 163.94269899 452.32679018 199.8671875 406.203125 C201.01380859 404.79933594 201.01380859 404.79933594 202.18359375 403.3671875 C225.28765203 374.51492853 240.12881357 340.1527829 247.8671875 304.203125 C248.08036621 303.24212891 248.29354492 302.28113281 248.51318359 301.29101562 C254.70025686 272.30352247 254.3576029 239.54439605 248.31933594 210.57470703 C248.04524902 209.24802002 248.04524902 209.24802002 247.765625 207.89453125 C247.59466309 207.09345947 247.42370117 206.2923877 247.24755859 205.46704102 C246.8671875 203.203125 246.8671875 203.203125 246.8671875 199.203125 C245.95195312 199.5640625 245.03671875 199.925 244.09375 200.296875 C242.90523438 200.7609375 241.71671875 201.225 240.4921875 201.703125 C239.30882812 202.1671875 238.12546875 202.63125 236.90625 203.109375 C233.8671875 204.203125 233.8671875 204.203125 231.8671875 204.203125 C231.98312256 204.85273193 232.09905762 205.50233887 232.21850586 206.17163086 C232.75022181 209.16077265 233.27748023 212.15068483 233.8046875 215.140625 C233.98708984 216.16220703 234.16949219 217.18378906 234.35742188 218.23632812 C234.53466797 219.24501953 234.71191406 220.25371094 234.89453125 221.29296875 C235.13804321 222.66763306 235.13804321 222.66763306 235.38647461 224.07006836 C236.46150884 231.07662718 237.02924935 237.97146138 237.0703125 245.05859375 C237.07732681 245.87440918 237.08434113 246.69022461 237.09156799 247.53076172 C237.10897769 250.15077297 237.11542085 252.77055802 237.1171875 255.390625 C237.11786224 256.28673492 237.11853699 257.18284485 237.11923218 258.10610962 C237.10299059 271.68028461 236.63705328 284.87080202 233.8671875 298.203125 C233.69026367 299.07340332 233.51333984 299.94368164 233.33105469 300.84033203 C225.40174451 338.85035001 208.35704816 375.49698117 181.8671875 404.203125 C179.01394313 405.62974719 177.03264201 405.51346368 173.8671875 405.203125 C170.9921875 403.640625 170.9921875 403.640625 168.8671875 401.203125 C168.21969674 396.80558356 168.60393888 394.11394112 171.140625 390.546875 C172.15962201 389.25377752 173.19442902 387.97302979 174.2421875 386.703125 C175.35459395 385.28622893 176.46391359 383.86690458 177.5703125 382.4453125 C178.12783203 381.7347168 178.68535156 381.02412109 179.25976562 380.29199219 C200.87007986 352.20908687 213.46500221 319.04043529 218.8671875 284.203125 C218.9710376 283.54932861 219.0748877 282.89553223 219.18188477 282.22192383 C220.29508061 273.96864377 220.15218269 265.5791807 220.1796875 257.265625 C220.18330292 256.42829834 220.18691833 255.59097168 220.19064331 254.72827148 C220.21631689 239.88505004 218.77762413 225.78158401 215.8671875 211.203125 C215.13463732 207.44557346 214.6729726 204.46624774 215.4296875 200.703125 C215.55472656 199.9915625 215.67976563 199.28 215.80859375 198.546875 C218.86641243 191.77679674 224.6770635 188.91971636 231.2421875 186.390625 C231.95890625 186.09220703 232.675625 185.79378906 233.4140625 185.48632812 C239.40596541 183.09064853 244.9346091 181.84298379 251.4296875 182.640625 C256.23284399 184.82387795 258.99039388 187.80166118 261.8671875 192.203125 C263.30277217 196.1337341 264.01106138 200.08035111 264.6796875 204.203125 C264.96489258 205.73646484 264.96489258 205.73646484 265.25585938 207.30078125 C265.84976705 210.59482591 266.36852019 213.89336132 266.8671875 217.203125 C267.05410156 218.3900293 267.24101562 219.57693359 267.43359375 220.79980469 C269.08384347 232.34271213 269.2647149 243.80586499 269.2421875 255.453125 C269.24197601 256.46381042 269.24176453 257.47449585 269.24154663 258.51580811 C269.20705649 275.07271146 268.26622226 290.95374266 264.8671875 307.203125 C264.67995117 308.1101416 264.49271484 309.0171582 264.29980469 309.95166016 C263.0554704 315.77467184 261.55720718 321.49451068 259.8671875 327.203125 C259.62661621 328.02232422 259.38604492 328.84152344 259.13818359 329.68554688 C249.43450533 362.06026253 233.64334403 392.31147467 211.8671875 418.203125 C211.45452637 418.70457031 211.04186523 419.20601563 210.61669922 419.72265625 C198.93201494 433.91876415 186.28530111 446.97242029 171.51123047 457.96044922 C169.91754129 459.1650643 168.36215391 460.41983798 166.80859375 461.67578125 C152.84264273 472.90191513 137.06579387 481.63239916 120.8671875 489.203125 C120.25552734 489.49493652 119.64386719 489.78674805 119.01367188 490.08740234 C99.57058478 499.31106325 78.99790607 505.34827233 57.8671875 509.203125 C57.03687012 509.36683594 56.20655273 509.53054688 55.35107422 509.69921875 C25.52770165 515.43744667 -8.4920268 514.39608455 -38.1328125 508.203125 C-39.65793457 507.88964111 -39.65793457 507.88964111 -41.21386719 507.56982422 C-82.67012793 498.75987387 -120.95372317 479.70072354 -153.1328125 452.203125 C-153.88175781 451.56632812 -154.63070312 450.92953125 -155.40234375 450.2734375 C-168.89801871 438.45610032 -181.56839275 425.71760912 -192.1328125 411.203125 C-192.98930316 410.05317669 -193.84607683 408.90343911 -194.703125 407.75390625 C-200.74315459 399.56378242 -206.12648864 391.05932882 -211.1328125 382.203125 C-211.535 381.49591309 -211.9371875 380.78870117 -212.3515625 380.06005859 C-225.3769866 356.92466664 -234.12582711 331.75350091 -239.4453125 305.765625 C-239.59266846 305.04673096 -239.74002441 304.32783691 -239.8918457 303.5871582 C-242.83381057 288.10866585 -243.50518587 272.79709813 -243.4453125 257.078125 C-243.44348969 256.08455994 -243.44166687 255.09099487 -243.43978882 254.06732178 C-243.39501971 239.57583808 -242.94346516 225.45833479 -240.1328125 211.203125 C-239.96652344 210.29159668 -239.80023438 209.38006836 -239.62890625 208.44091797 C-235.63675561 186.73914354 -228.66376046 166.08195932 -219.1328125 146.203125 C-218.81344727 145.5234668 -218.49408203 144.84380859 -218.16503906 144.14355469 C-202.40854525 110.69499778 -178.01253579 80.22379651 -149.1328125 57.203125 C-148.41222656 56.59210937 -147.69164062 55.98109375 -146.94921875 55.3515625 C-107.21536512 22.06295072 -52.08746405 0.25850592 0 0 Z " fill="#000000" transform="translate(243.1328125,-0.203125)"/>
<path d="M0 0 C2.875 1.5625 2.875 1.5625 5 4 C5.71517513 7.3808279 5.77896007 9.63053794 4.03125 12.703125 C2.41922701 14.85873714 0.70869952 16.91998693 -1 19 C-24.30620503 49.18788495 -39.14578957 83.24769529 -45 121 C-45.1038501 121.65379639 -45.2077002 122.30759277 -45.31469727 122.98120117 C-51.19457772 166.57487835 -41.35013762 210.46400792 -21 249 C-20.68836914 249.5966748 -20.37673828 250.19334961 -20.05566406 250.80810547 C-7.20623843 275.18122234 12.21555034 297.24590051 34.25292969 313.69287109 C35.92325549 314.94258103 37.57497164 316.21398041 39.2265625 317.48828125 C81.48198336 349.48722275 137.00828932 361.29476015 189.11035156 355.1730957 C193.10970462 354.59959624 197.0521884 353.85604123 201 353 C201.81452637 352.82839355 202.62905273 352.65678711 203.46826172 352.47998047 C237.77118644 345.06545994 269.09782493 329.68457458 295.640625 306.71484375 C299.41004266 303.97515111 301.42891207 304.34698744 306 305 C308.99097304 307.54232708 309.84202557 309.1574697 310.5625 313 C309.7903321 317.11822881 308.17757661 318.28581998 305 321 C304.48824219 321.48855469 303.97648437 321.97710937 303.44921875 322.48046875 C278.14635743 346.10021291 242.86664516 361.29422048 209.4375 368.75 C208.11032959 369.04825684 208.11032959 369.04825684 206.75634766 369.35253906 C191.83430145 372.5016985 177.01887946 373.38039974 161.8125 373.3125 C160.95971466 373.31067719 160.10692932 373.30885437 159.228302 373.30697632 C145.93846771 373.25928683 133.06304493 372.60794731 120 370 C119.13310547 369.83902832 118.26621094 369.67805664 117.37304688 369.51220703 C73.1907297 361.19807251 34.00383751 339.15469635 2 308 C1.13503906 307.175 0.27007812 306.35 -0.62109375 305.5 C-38.00553728 269.21700455 -62.03534523 213.64869005 -63.26409912 161.73320007 C-63.32664467 157.42590904 -63.33055484 153.12013787 -63.3125 148.8125 C-63.31067719 147.90858521 -63.30885437 147.00467041 -63.30697632 146.07336426 C-63.26203468 132.83446444 -62.8292815 119.97802917 -60 107 C-59.82307617 106.14680176 -59.64615234 105.29360352 -59.46386719 104.41455078 C-51.4737484 66.37523741 -34.52994015 29.74957657 -8 1 C-5.14675563 -0.42662219 -3.16545451 -0.31033868 0 0 Z " fill="#000000" transform="translate(95,107)"/>
<path d="M0 0 C2.4375 1.5625 2.4375 1.5625 4 4 C4.6875 7.25 4.6875 7.25 4 11 C-1.55419001 19.12129997 -9.85448897 25.98083909 -16.80859375 32.90625 C-18.14402327 34.2398113 -19.47922985 35.57359588 -20.81422424 36.90759277 C-24.30539128 40.39496648 -27.79955234 43.8793249 -31.29437256 47.36303711 C-34.86930632 50.92768783 -38.44136294 54.49521917 -42.01367188 58.0625 C-49.00632174 65.04446878 -56.00214201 72.02325147 -63 79 C-62.78846786 79.75563232 -62.57693573 80.51126465 -62.35899353 81.28979492 C-62.08446854 82.28084229 -61.80994354 83.27188965 -61.52709961 84.29296875 C-61.25369247 85.27547607 -60.98028534 86.2579834 -60.69859314 87.27026367 C-58.41717212 96.18486286 -59.70985787 104.91659661 -64 113 C-68.64431985 119.88087019 -74.2190247 124.12190691 -82 127 C-82.66 127 -83.32 127 -84 127 C-83.99111755 128.14147995 -83.98223511 129.2829599 -83.9730835 130.45903015 C-83.89200665 141.21491887 -83.83203883 151.97074561 -83.79275131 162.72687054 C-83.77187416 168.25676392 -83.7435538 173.78641067 -83.69824219 179.31616211 C-83.65478958 184.65242246 -83.63086386 189.98844554 -83.62049103 195.32486916 C-83.61309865 197.36105904 -83.59866312 199.3972359 -83.57707977 201.43332481 C-83.54805384 204.28485581 -83.54404369 207.13540566 -83.54589844 209.98706055 C-83.52432678 211.25049789 -83.52432678 211.25049789 -83.50231934 212.53945923 C-83.53068997 216.56894669 -83.70295677 218.5284147 -85.90338135 222.02180481 C-88.15136615 224.14281652 -88.96181582 224.68433953 -92 224.625 C-92.66 224.63789063 -93.32 224.65078125 -94 224.6640625 C-97.2177146 223.5956807 -98.20816622 221.84471209 -100 219 C-100.56348229 215.99124659 -100.50623251 213.04033489 -100.45410156 209.98706055 C-100.45468567 209.08900192 -100.45526978 208.1909433 -100.45587158 207.26567078 C-100.45309113 204.30562306 -100.4220008 201.34658994 -100.390625 198.38671875 C-100.38316248 196.33120779 -100.3774696 194.2756897 -100.37347412 192.22016907 C-100.35821875 186.81623614 -100.31893744 181.41273484 -100.2746582 176.00897217 C-100.23370362 170.49236896 -100.21546268 164.97569586 -100.1953125 159.45898438 C-100.15244336 148.63913352 -100.08419293 137.81960269 -100 127 C-100.61868958 126.80306046 -101.23737915 126.60612091 -101.87481689 126.4032135 C-103.0916214 126.0084507 -103.0916214 126.0084507 -104.33300781 125.60571289 C-105.13732239 125.34689835 -105.94163696 125.0880838 -106.77032471 124.82142639 C-113.36856533 122.39059308 -117.86816594 116.84267718 -121 110.75 C-124.89581288 102.25496358 -125.36244474 93.26552098 -122.5 84.3125 C-118.82826662 75.41560758 -112.96491297 69.85015117 -104.296875 65.875 C-100.26157834 64.33774413 -96.76495273 63.81914705 -92.4375 63.75 C-91.48746094 63.72421875 -90.53742188 63.6984375 -89.55859375 63.671875 C-86.25384197 63.97659415 -83.46207709 64.62778428 -80.27758789 65.52050781 C-79.28876114 65.7959845 -78.29993439 66.07146118 -77.28114319 66.35528564 C-76.52836594 66.56804138 -75.77558868 66.78079712 -75 67 C-74.1775882 66.17536758 -73.35517639 65.35073517 -72.50784302 64.50111389 C-64.77037982 56.74340996 -57.03030099 48.98832433 -49.28763008 41.23581791 C-45.30679963 37.24976102 -41.32690796 33.26277599 -37.34912109 29.27368164 C-33.51284819 25.42657144 -29.67416271 21.58188407 -25.83376694 17.73888969 C-24.36642503 16.26969507 -22.89996591 14.79961825 -21.43439102 13.32866096 C-19.38711416 11.27416255 -17.33676735 9.22277689 -15.28564453 7.17211914 C-14.67568634 6.55856567 -14.06572815 5.94501221 -13.43728638 5.31286621 C-8.77193923 0.65901069 -6.70543059 -0.57805436 0 0 Z M-105.375 86.5625 C-108.21058953 90.8158843 -108.66135555 95.0030914 -108 100 C-106.21261411 104.81817066 -103.258506 108.160996 -99 111 C-94.65402177 112.44865941 -90.39624753 112.88893053 -86.0625 111.28125 C-81.0643505 108.60982527 -77.79219171 105.37657513 -76 100 C-75.4610766 93.53291918 -76.22595657 90.30406103 -80 85 C-84.39923974 80.92265585 -87.8223495 79.62974043 -93.875 79.71875 C-98.7297621 80.36129204 -102.08338535 83.01102103 -105.375 86.5625 Z " fill="#000000" transform="translate(348,160)"/>
<path d="M0 0 C3.625 0.5 3.625 0.5 6.625 2.5 C8.82849995 5.80524993 8.90877754 7.2633657 8.30664062 11.11035156 C6.87773795 16.11969946 4.05467405 20.44796738 1.375 24.875 C0.80136719 25.87144531 0.22773438 26.86789062 -0.36328125 27.89453125 C-0.92917969 28.84457031 -1.49507812 29.79460937 -2.078125 30.7734375 C-2.59020508 31.63372559 -3.10228516 32.49401367 -3.62988281 33.38037109 C-5.70539946 35.90130499 -7.25507004 36.62668889 -10.375 37.5 C-13.79122583 37.36335097 -15.64693412 37.13099043 -18.25 34.875 C-19.80045119 31.60182527 -20.07089297 29.00695498 -19.375 25.5 C-17.58123339 21.55684472 -15.34478684 17.92688295 -13.0625 14.25 C-12.46759766 13.25742187 -11.87269531 12.26484375 -11.25976562 11.2421875 C-4.88136079 0.72316456 -4.88136079 0.72316456 0 0 Z " fill="#000000" transform="translate(175.375,386.5)"/>
<path d="M0 0 C4.61550492 1.29482994 8.52856337 3.88301033 12.56835938 6.40039062 C13.45265625 6.92632812 14.33695312 7.45226562 15.24804688 7.99414062 C23.60649387 13.09506598 23.60649387 13.09506598 26.31835938 17.65039062 C26.31835938 21.42949678 26.15125652 23.65732096 23.69335938 26.58789062 C20.41432834 28.05482556 17.80246694 28.33823851 14.31835938 27.65039062 C10.37507439 25.85693779 6.74522642 23.6201676 3.06835938 21.33789062 C2.07578125 20.74298828 1.08320313 20.14808594 0.06054688 19.53515625 C-8.49748265 14.34583618 -8.49748265 14.34583618 -10.68164062 11.65039062 C-11.3269296 7.29469007 -11.14229703 5.34137523 -8.68164062 1.65039062 C-5.3532433 -0.56854092 -3.87223005 -0.60581092 0 0 Z " fill="#000000" transform="translate(397.681640625,328.349609375)"/>
<path d="M0 0 C2.76913845 2.32250322 2.97632892 3.85534341 3.5625 7.4375 C2.92996397 11.4435615 1.99820949 12.23297908 -1.09448242 14.64624023 C-4.75309627 17.24547327 -8.5666902 19.54570052 -12.4375 21.8125 C-13.66823242 22.56563477 -13.66823242 22.56563477 -14.92382812 23.33398438 C-19.78890701 26.1878016 -23.19438573 27.7433565 -29 27 C-31.375 25.9375 -31.375 25.9375 -33 24 C-34.0625 20.6875 -34.0625 20.6875 -34 17 C-30.20107459 11.27430955 -25.30781261 8.4640306 -19.375 5.1875 C-18.51648438 4.69830078 -17.65796875 4.20910156 -16.7734375 3.70507812 C-10.73820435 0.2961144 -7.08675999 -1.64514071 0 0 Z " fill="#000000" transform="translate(122,329)"/>
<path d="M0 0 C2.375 1.0625 2.375 1.0625 4 3 C5.0625 6.3125 5.0625 6.3125 5 10 C1.24130716 15.60748077 -3.51113039 18.52129498 -9.3125 21.8125 C-10.12912109 22.30169922 -10.94574219 22.79089844 -11.78710938 23.29492188 C-16.9393793 26.263122 -21.01430026 27.91514275 -27 28 C-30 26 -30 26 -32 23 C-32.6875 19.5 -32.6875 19.5 -32 16 C-27.38726348 11.57089152 -22.0605241 8.40721857 -16.5625 5.1875 C-15.74201172 4.68541016 -14.92152344 4.18332031 -14.07617188 3.66601562 C-9.21109299 0.8121984 -5.80561427 -0.7433565 0 0 Z " fill="#000000" transform="translate(419,156)"/>
<path d="M0 0 C3.94328498 1.79345283 7.57313296 4.03022303 11.25 6.3125 C12.24257812 6.90740234 13.23515625 7.50230469 14.2578125 8.11523438 C22.81584202 13.30455444 22.81584202 13.30455444 25 16 C25.64528897 20.35570056 25.46065641 22.30901539 23 26 C19.67160268 28.21893155 18.19058942 28.25620155 14.31835938 27.65039062 C9.70285446 26.35556069 5.789796 23.7673803 1.75 21.25 C0.86570312 20.7240625 -0.01859375 20.198125 -0.9296875 19.65625 C-9.28813449 14.55532465 -9.28813449 14.55532465 -12 10 C-12 6.22089384 -11.83289714 3.99306967 -9.375 1.0625 C-6.09596896 -0.40443494 -3.48410757 -0.68784789 0 0 Z " fill="#000000" transform="translate(100,156)"/>
<path d="M0 0 C4.42910848 4.61273652 7.59278143 9.9394759 10.8125 15.4375 C11.56563477 16.66823242 11.56563477 16.66823242 12.33398438 17.92382812 C15.18640895 22.78653288 16.75047215 26.1968441 16 32 C14.875 34.375 14.875 34.375 13 36 C8.62049957 37.33289144 6.02838178 37.09096674 2 35 C0.25488281 32.88037109 0.25488281 32.88037109 -1.296875 30.2734375 C-2.14572266 28.84837891 -2.14572266 28.84837891 -3.01171875 27.39453125 C-3.58535156 26.39808594 -4.15898437 25.40164063 -4.75 24.375 C-5.33910156 23.40175781 -5.92820312 22.42851562 -6.53515625 21.42578125 C-9.77862494 15.88578761 -12.02915154 11.48621818 -12 5 C-8.73759908 0.10639861 -5.76925042 -1.13324562 0 0 Z " fill="#000000" transform="translate(340,387)"/>
<path d="M0 0 C4.09526018 4.38584795 7.19226175 9.22994342 10.25 14.375 C10.69601563 15.09171875 11.14203125 15.8084375 11.6015625 16.546875 C14.51551205 21.43877818 15.88346366 25.27131878 16 31 C13.60220738 34.48769835 12.17642926 35.77941951 8 36.5625 C3.46888781 35.71291646 1.11214748 33.59170547 -1.52587891 29.81616211 C-3.18841664 27.14081109 -4.7601446 24.4281712 -6.3125 21.6875 C-6.86228516 20.76259766 -7.41207031 19.83769531 -7.97851562 18.88476562 C-10.95323234 13.68547814 -12.88390716 10.02161751 -12 4 C-9.12212511 -1.20758314 -5.48797743 -1.64639323 0 0 Z " fill="#000000" transform="translate(168,89)"/>
<path d="M0 0 C2.59991277 2.180572 2.93873676 3.60519245 3.45703125 6.9453125 C3.36119023 12.73954358 -0.3073048 17.47363392 -3.25 22.25 C-3.83652344 23.24257812 -4.42304688 24.23515625 -5.02734375 25.2578125 C-10.01668313 33.53226747 -10.01668313 33.53226747 -14 36 C-18.04537506 36.68857448 -19.52059062 36.32640639 -22.9375 34 C-25.2583941 30.62415404 -25.21161287 29.17007525 -24.59008789 25.21582031 C-23.52234849 21.20638596 -21.42740633 17.87395352 -19.25 14.375 C-18.81945312 13.65054688 -18.38890625 12.92609375 -17.9453125 12.1796875 C-9.29325872 -2.11951515 -9.29325872 -2.11951515 0 0 Z " fill="#000000" transform="translate(353,89)"/>
<path d="M0 0 C2.97840798 2.24154123 3.90227288 3.40925799 4.51757812 7.12866211 C4.52208984 8.33272705 4.52660156 9.53679199 4.53125 10.77734375 C4.53640625 12.09541016 4.5415625 13.41347656 4.546875 14.77148438 C4.53849609 15.45557373 4.53011719 16.13966309 4.52148438 16.84448242 C4.50009639 18.92811004 4.52127712 21.00827716 4.546875 23.09179688 C4.54171875 24.41115234 4.5365625 25.73050781 4.53125 27.08984375 C4.52673828 28.29503662 4.52222656 29.50022949 4.51757812 30.74194336 C3.90639574 34.58922114 2.71721341 36.25963573 0 39 C-2 39.6640625 -2 39.6640625 -4 39.625 C-4.99 39.64433594 -4.99 39.64433594 -6 39.6640625 C-9.14217744 38.6207614 -10.20133776 36.72445781 -12 34 C-12.51757812 30.74194336 -12.51757812 30.74194336 -12.53125 27.08984375 C-12.53640625 25.77048828 -12.5415625 24.45113281 -12.546875 23.09179688 C-12.53849609 22.40980225 -12.53011719 21.72780762 -12.52148438 21.02514648 C-12.5000197 18.93941428 -12.52132969 16.85711167 -12.546875 14.77148438 C-12.54171875 13.45341797 -12.5365625 12.13535156 -12.53125 10.77734375 C-12.52448242 8.97124634 -12.52448242 8.97124634 -12.51757812 7.12866211 C-11.90471771 3.42403653 -10.91372835 2.28289664 -8 0 C-5.02898609 -1.48550695 -3.16565278 -0.82306972 0 0 Z " fill="#000000" transform="translate(260,409)"/>
<path d="M0 0 C2.10084701 -0.01718633 4.2001085 -0.06106997 6.30053711 -0.10522461 C7.64232244 -0.1153545 8.98412112 -0.12386968 10.32592773 -0.13061523 C12.15281128 -0.15248901 12.15281128 -0.15248901 14.01660156 -0.17480469 C17.91167055 0.38163374 19.54729147 1.54502018 22.30639648 4.29516602 C22.97045898 6.29516602 22.97045898 6.29516602 22.93139648 8.29516602 C22.94428711 8.95516602 22.95717773 9.61516602 22.97045898 10.29516602 C21.92715788 13.43734345 20.0308543 14.49650377 17.30639648 16.29516602 C14.04833984 16.81274414 14.04833984 16.81274414 10.39624023 16.82641602 C8.41720703 16.83415039 8.41720703 16.83415039 6.39819336 16.84204102 C5.71619873 16.83366211 5.0342041 16.8252832 4.33154297 16.81665039 C2.24581076 16.79518572 0.16350815 16.8164957 -1.92211914 16.84204102 C-3.24018555 16.83688477 -4.55825195 16.83172852 -5.91625977 16.82641602 C-7.72235718 16.81964844 -7.72235718 16.81964844 -9.56494141 16.81274414 C-13.28286204 16.19768431 -14.4400292 15.25910249 -16.69360352 12.29516602 C-17.86951325 8.61064883 -18.0284169 7.01262327 -16.38110352 3.48266602 C-12.53665968 -1.50087229 -5.77895385 0.03295342 0 0 Z " fill="#000000" transform="translate(425.693603515625,247.704833984375)"/>
<path d="M0 0 C1.9790332 -0.00773438 1.9790332 -0.00773438 3.99804688 -0.015625 C4.6800415 -0.00724609 5.36203613 0.00113281 6.06469727 0.00976562 C8.15042947 0.0312303 10.23273208 0.00992031 12.31835938 -0.015625 C13.63642578 -0.01046875 14.95449219 -0.0053125 16.3125 0 C18.11859741 0.00676758 18.11859741 0.00676758 19.96118164 0.01367188 C23.67910227 0.62873171 24.83626943 1.56731353 27.08984375 4.53125 C28.26575349 8.21576718 28.42465713 9.81379275 26.77734375 13.34375 C25.08984375 15.53125 25.08984375 15.53125 23.08984375 16.53125 C18.86220271 16.78914144 14.63074431 16.80226954 10.39624023 16.82641602 C8.29539323 16.84360234 6.19613174 16.88748599 4.09570312 16.93164062 C2.7539178 16.94177052 1.41211911 16.9502857 0.0703125 16.95703125 C-1.75657104 16.97890503 -1.75657104 16.97890503 -3.62036133 17.0012207 C-7.51543032 16.44478228 -9.15105124 15.28139584 -11.91015625 12.53125 C-12.57421875 10.53125 -12.57421875 10.53125 -12.53515625 8.53125 C-12.54804687 7.87125 -12.5609375 7.21125 -12.57421875 6.53125 C-10.64854148 0.73156317 -5.3938495 0.02019223 0 0 Z " fill="#000000" transform="translate(75.91015625,247.46875)"/>
<path d="M0 0 C0.99 0.01933594 0.99 0.01933594 2 0.0390625 C2.66 0.02617188 3.32 0.01328125 4 0 C7.14217744 1.0433011 8.20133776 2.93960469 10 5.6640625 C10.51757812 8.92211914 10.51757812 8.92211914 10.53125 12.57421875 C10.53640625 13.89357422 10.5415625 15.21292969 10.546875 16.57226562 C10.53849609 17.25426025 10.53011719 17.93625488 10.52148438 18.63891602 C10.5000197 20.72464822 10.52132969 22.80695083 10.546875 24.89257812 C10.54171875 26.21064453 10.5365625 27.52871094 10.53125 28.88671875 C10.52673828 30.09078369 10.52222656 31.29484863 10.51757812 32.53540039 C9.90251829 36.25332102 8.96393647 37.41048818 6 39.6640625 C2.31548282 40.83997224 0.71745725 40.99887588 -2.8125 39.3515625 C-5 37.6640625 -5 37.6640625 -6 35.6640625 C-6.25789144 31.43642146 -6.27101954 27.20496306 -6.29516602 22.97045898 C-6.31235234 20.86961198 -6.35623599 18.77035049 -6.40039062 16.66992188 C-6.41052052 15.32813655 -6.4190357 13.98633786 -6.42578125 12.64453125 C-6.44036377 11.42660889 -6.45494629 10.20868652 -6.4699707 8.95385742 C-5.86895944 4.74677861 -4.23340016 1.40562115 0 0 Z " fill="#000000" transform="translate(254,63.3359375)"/>
</svg>
