<?xml version="1.0" encoding="UTF-8"?>
<svg version="1.1" xmlns="http://www.w3.org/2000/svg" width="512" height="512">
<path d="M0 0 C9.91696861 6.37970592 17.2852071 14.76216101 20.25 26.3125 C21.822783 34.4572691 21.38766096 42.09087307 19 50 C20.09284302 50.41620605 20.09284302 50.41620605 21.20776367 50.84082031 C23.82694348 51.92815665 26.21122742 53.14897015 28.67578125 54.546875 C29.57337158 55.05460449 30.47096191 55.56233398 31.39575195 56.08544922 C32.35827881 56.63475098 33.32080566 57.18405273 34.3125 57.75 C35.32723389 58.32637207 36.34196777 58.90274414 37.38745117 59.49658203 C46.5780878 64.73040401 55.71188214 70.06024042 64.83984375 75.40234375 C71.17086955 79.10512955 77.52061745 82.774974 83.875 86.4375 C84.94484131 87.05415527 86.01468262 87.67081055 87.11694336 88.30615234 C89.29661567 89.56217932 91.47638523 90.81803754 93.65625 92.07373047 C98.26777425 94.73034016 102.8785214 97.38829557 107.48876953 100.04711914 C109.66664882 101.30312898 111.84469506 102.55884939 114.02294922 103.81420898 C121.02831943 107.85394615 128.01842828 111.91927676 135 116 C135.51119385 115.59064209 136.0223877 115.18128418 136.54907227 114.75952148 C146.67200936 106.73723934 157.89567242 101.68119387 171 103 C183.12306972 104.95480393 192.07605148 109.83263883 200.01953125 119.23828125 C206.99281111 128.96236185 209.24781001 140.27662757 207.4375 152.0625 C204.61475102 163.50206165 198.46260931 173.30632265 188.41015625 179.62890625 C183.72665577 182.10094936 180.36979567 183.10503405 175 184 C175 228.88 175 273.76 175 320 C177.97 320.66 180.94 321.32 184 322 C194.90903232 327.29071688 201.54465803 335.946779 206 347 C209.64083716 358.00601692 208.09498289 369.70163033 203 380 C197.02336764 389.70232526 188.12072828 397.12260877 177 400 C164.09694698 402.19852255 152.93424341 400.22998952 142 393 C138.9375 390.8125 138.9375 390.8125 137 389 C137 388.34 137 387.68 137 387 C124.33694564 394.10688914 111.72529349 401.29275481 99.19287109 408.62768555 C91.85171444 412.92352098 84.49421549 417.18998141 77.125 421.4375 C76.0515332 422.05633057 74.97806641 422.67516113 73.87207031 423.31274414 C69.44732162 425.86276187 65.0218853 428.41158405 60.59619141 430.95996094 C57.20961328 432.9102045 53.82350416 434.86126012 50.4375 436.8125 C49.35936035 437.43318359 48.2812207 438.05386719 47.17041016 438.69335938 C42.31788853 441.4909676 37.47446329 444.30110853 32.66015625 447.1640625 C31.86359619 447.63739014 31.06703613 448.11071777 30.24633789 448.59838867 C28.7938606 449.4642552 27.34365882 450.33395536 25.89624023 451.20825195 C21.21802943 454 21.21802943 454 19 454 C19.33 455.093125 19.66 456.18625 20 457.3125 C22.71656958 468.41330231 20.85202024 479.2375799 15.375 489.1875 C9.32989506 498.56783526 -0.00005415 505.60659958 -11 508 C-24.85319071 508.83750707 -35.95017352 508.12552401 -47 498.8515625 C-55.58143536 490.90703055 -60.38054173 482.03376637 -61.1875 470.265625 C-61.31523482 464.48562437 -60.6692665 459.52944528 -59 454 C-59.72856201 453.7225293 -60.45712402 453.44505859 -61.20776367 453.15917969 C-63.82694348 452.07184335 -66.21122742 450.85102985 -68.67578125 449.453125 C-69.57337158 448.94539551 -70.47096191 448.43766602 -71.39575195 447.91455078 C-72.35827881 447.36524902 -73.32080566 446.81594727 -74.3125 446.25 C-75.32723389 445.67362793 -76.34196777 445.09725586 -77.38745117 444.50341797 C-86.5780878 439.26959599 -95.71188214 433.93975958 -104.83984375 428.59765625 C-114.42185976 422.99348498 -124.04620164 417.46250852 -133.66503906 411.921875 C-137.08753544 409.94955498 -140.50884627 407.97518863 -143.9296875 406 C-154.93984459 399.64329846 -165.95051146 393.28816348 -177 387 C-177.33 387.99 -177.66 388.98 -178 390 C-187.56404679 398.34956466 -197.48020084 400.98473195 -210 401 C-221.53195521 400.08344287 -231.24726022 394.42107942 -239 386 C-245.86845454 377.37694026 -248.47243371 366.81255622 -248 355.875 C-246.39581741 343.30890304 -240.36610988 334.12149131 -230.734375 326.1171875 C-225.2523959 322.14946137 -222.28746682 321.61943707 -215 320 C-215 275.12 -215 230.24 -215 184 C-216.98 183.67 -218.96 183.34 -221 183 C-231.19201954 179.37040958 -238.40141756 172.54935747 -243.4375 163.0625 C-248.69927419 151.48659679 -249.47968258 139.9674289 -245.0625 127.875 C-239.84852818 116.61282088 -231.52679342 109.32645227 -220 105 C-209.30162159 101.49653742 -198.75721624 102.40549375 -188.546875 107.13671875 C-183.74931746 109.72315709 -179.41305118 112.81279637 -175 116 C-174.34854004 115.62415771 -173.69708008 115.24831543 -173.02587891 114.86108398 C-116.5 82.25 -116.5 82.25 -113.24609375 80.37280273 C-111.0923828 79.13023981 -108.93873633 77.88756511 -106.78515625 76.64477539 C-101.76315738 73.74685377 -96.74057193 70.84996651 -91.71557617 67.95724487 C-89.94954478 66.94052802 -88.18372569 65.92344342 -86.41796875 64.90625 C-84.21265845 63.63599127 -82.00695784 62.36640982 -79.80078125 61.09765625 C-74.13585991 57.83361706 -68.51676466 54.51571108 -62.9609375 51.06860352 C-61 50 -61 50 -59 50 C-59.33 48.906875 -59.66 47.81375 -60 46.6875 C-62.71656958 35.58669769 -60.85202024 24.7624201 -55.375 14.8125 C-43.83960398 -3.08725245 -19.07999472 -10.59999707 0 0 Z M-40.5234375 21.859375 C-44.37287973 27.44004786 -45.92315376 33.20456257 -45 40 C-43.42280369 47.59682888 -40.1778765 53.0583579 -33.80859375 57.54296875 C-27.35650295 61.24023426 -21.33734562 62.19062468 -14 61 C-7.17338084 58.81740486 -1.74700911 55.17081699 2 49 C4.94698172 42.78108421 6.35862612 36.42896763 4.30859375 29.74609375 C1.34224448 22.41089535 -3.12414683 15.95061939 -10.53125 12.66015625 C-22.81176106 9.37628541 -32.67219834 12.17976507 -40.5234375 21.859375 Z M-57.52929688 66.66674805 C-58.26212891 67.10672119 -58.99496094 67.54669434 -59.75 68 C-60.9265918 68.68026245 -60.9265918 68.68026245 -62.12695312 69.37426758 C-64.76021912 70.90138794 -67.37966666 72.45081009 -70 74 C-71.86885519 75.0888485 -73.7386692 76.17605277 -75.609375 77.26171875 C-79.63215827 79.59906313 -83.64977743 81.94496658 -87.6640625 84.296875 C-94.05282079 88.0363464 -100.4612239 91.74113956 -106.875 95.4375 C-108.49003418 96.36864624 -108.49003418 96.36864624 -110.13769531 97.31860352 C-115.6397191 100.48985195 -121.14357007 103.65790954 -126.6484375 106.82421875 C-140.48821599 114.78973485 -154.27400167 122.83989191 -168 131 C-167.83757812 131.83402344 -167.67515625 132.66804688 -167.5078125 133.52734375 C-166.96294223 137.25341816 -166.8674024 140.79788959 -166.875 144.5625 C-166.87113281 146.48255859 -166.87113281 146.48255859 -166.8671875 148.44140625 C-166.97921478 151.44307844 -167.29644645 154.09086189 -168 157 C-163.78103191 159.98843573 -159.49374413 162.76572814 -154.9453125 165.2265625 C-154.23439453 165.61271729 -153.52347656 165.99887207 -152.79101562 166.39672852 C-151.36602319 167.16367384 -149.93510303 167.91972282 -148.49804688 168.66381836 C-144.43458481 170.85504518 -141.85365301 172.56268392 -140 177 C-140.21766367 180.70028236 -140.35491041 182.35491041 -143 185 C-150.99602773 186.26204585 -156.1068917 182.53760952 -162.75 178.4375 C-164.77973611 177.19597384 -166.81594887 175.96495614 -168.859375 174.74609375 C-169.75108398 174.19622803 -170.64279297 173.6463623 -171.56152344 173.07983398 C-173.89683053 171.80026864 -173.89683053 171.80026864 -176.20727539 172.24902344 C-178.36233632 173.15178354 -179.88848768 174.32275185 -181.6875 175.8125 C-186.98050655 179.9281836 -192.51472293 182.37868073 -199 184 C-199 228.88 -199 273.76 -199 320 C-195.37 321.32 -191.74 322.64 -188 324 C-185.02734375 325.6328125 -185.02734375 325.6328125 -182.9375 327.125 C-182.22464844 327.62257813 -181.51179688 328.12015625 -180.77734375 328.6328125 C-179 330 -179 330 -177 332 C-173.14643443 331.66049128 -170.4521204 330.29347019 -167.19921875 328.27734375 C-166.30396484 327.73916016 -165.40871094 327.20097656 -164.48632812 326.64648438 C-162.62722397 325.51130214 -160.77298603 324.36811003 -158.92382812 323.21679688 C-153.31556435 319.86791965 -149.56765554 318.04376121 -143 319 C-140.43665981 321.64101717 -140.05928254 323.30343012 -139.75 326.9375 C-141.74922782 331.83560815 -145.52482178 333.42338223 -150 336 C-152.22229284 337.29319866 -154.44287836 338.58924886 -156.66210938 339.88769531 C-158.21116883 340.79034274 -159.76453742 341.68563844 -161.32226562 342.57324219 C-162.40024414 343.19440918 -162.40024414 343.19440918 -163.5 343.828125 C-164.1496875 344.1984082 -164.799375 344.56869141 -165.46875 344.95019531 C-167.16899674 345.93397363 -167.16899674 345.93397363 -168 348 C-167.78730469 348.82371094 -167.78730469 348.82371094 -167.5703125 349.6640625 C-166.7743964 352.92404763 -166.86831025 356.02343743 -166.875 359.375 C-166.87113281 361.30472656 -166.87113281 361.30472656 -166.8671875 363.2734375 C-166.98636526 366.6174251 -167.36043872 369.72097949 -168 373 C-154.85530222 380.78063587 -141.63190942 388.42193456 -128.39501953 396.04443359 C-122.92830017 399.19332056 -117.46427167 402.34686818 -112 405.5 C-109.83984911 406.74610303 -107.67969284 407.99219677 -105.51953125 409.23828125 C-100.00882326 412.41744026 -94.49934627 415.59872486 -88.99072266 418.78149414 C-86.81068467 420.03940667 -84.62939341 421.29515003 -82.44677734 422.54858398 C-77.21911305 425.55175281 -72.01161385 428.58110173 -66.83984375 431.6796875 C-65.39121948 432.53687378 -65.39121948 432.53687378 -63.91333008 433.41137695 C-62.09943463 434.48548385 -60.29278893 435.5719618 -58.49487305 436.67260742 C-57.69476807 437.14287354 -56.89466309 437.61313965 -56.0703125 438.09765625 C-55.03028076 438.72426147 -55.03028076 438.72426147 -53.96923828 439.36352539 C-51.96237995 440.23724366 -51.96237995 440.23724366 -49.86889648 439.2043457 C-47.84614537 437.9008537 -45.88900585 436.53300235 -43.9375 435.125 C-40.46768405 432.7673434 -37.15134807 431.18128127 -33.19140625 429.8046875 C-32.21502197 429.46163574 -31.2386377 429.11858398 -30.23266602 428.76513672 C-29.12749634 428.38639404 -29.12749634 428.38639404 -28 428 C-27.98598145 426.5773584 -27.98598145 426.5773584 -27.97167969 425.12597656 C-27.92760769 421.59935242 -27.86597217 418.07393797 -27.79248047 414.54785156 C-27.76429465 413.02322569 -27.74306811 411.49845434 -27.72900391 409.97363281 C-27.70753951 407.77854064 -27.66087831 405.58519289 -27.609375 403.390625 C-27.58842773 402.07094727 -27.56748047 400.75126953 -27.54589844 399.39160156 C-26.92156364 395.51268428 -26.13776219 394.29095131 -23 392 C-20 391.5 -20 391.5 -17 392 C-13.86223781 394.29095131 -13.07843636 395.51268428 -12.45410156 399.39160156 C-12.4331543 400.7112793 -12.41220703 402.03095703 -12.390625 403.390625 C-12.37408875 404.09523865 -12.35755249 404.79985229 -12.34051514 405.52581787 C-12.29208861 407.76730102 -12.27067813 410.00810613 -12.25 412.25 C-12.22183552 413.77347151 -12.19190741 415.29691152 -12.16015625 416.8203125 C-12.08633407 420.54672756 -12.03672531 424.2730138 -12 428 C-11.26322021 428.25249512 -10.52644043 428.50499023 -9.76733398 428.76513672 C-8.79094971 429.10818848 -7.81456543 429.45124023 -6.80859375 429.8046875 C-5.84493896 430.13968262 -4.88128418 430.47467773 -3.88842773 430.81982422 C-0.22415209 432.31700184 2.82973471 434.32575252 6.02734375 436.6328125 C6.67832031 437.08398438 7.32929688 437.53515625 8 438 C8.58394531 438.47179687 9.16789063 438.94359375 9.76953125 439.4296875 C12.95827304 440.24502253 14.77650468 438.90389353 17.52880859 437.33349609 C18.62829834 436.67341553 18.62829834 436.67341553 19.75 436 C20.53584473 435.5457666 21.32168945 435.0915332 22.13134766 434.62353516 C24.76333704 433.09744083 27.38139939 431.54893851 30 430 C31.84547855 428.9229774 33.69185204 427.84748697 35.5390625 426.7734375 C38.49787463 425.0517279 41.45536323 423.3279253 44.40917969 421.59765625 C52.24159251 417.00971421 60.1130205 412.49310552 68 408 C88.11753356 396.53335035 108.0800129 384.80597567 128 373 C127.83757812 372.16597656 127.67515625 371.33195312 127.5078125 370.47265625 C126.96294223 366.74658184 126.8674024 363.20211041 126.875 359.4375 C126.87242187 358.15746094 126.86984375 356.87742187 126.8671875 355.55859375 C126.97921478 352.55692156 127.29644645 349.90913811 128 347 C123.676535 343.96987923 119.2738826 341.13129633 114.6875 338.515625 C113.92751709 338.08040527 113.16753418 337.64518555 112.38452148 337.19677734 C110.85014957 336.32335819 109.31063534 335.45890481 107.76586914 334.60400391 C106.69260376 333.99177979 106.69260376 333.99177979 105.59765625 333.3671875 C104.95320557 333.00737793 104.30875488 332.64756836 103.64477539 332.27685547 C101.62630727 330.70989862 100.88475931 329.38495391 100 327 C100.43478261 321.56521739 100.43478261 321.56521739 103 319 C110.99602773 317.73795415 116.1068917 321.46239048 122.75 325.5625 C124.77973611 326.80402616 126.81594887 328.03504386 128.859375 329.25390625 C130.19693848 330.07870483 130.19693848 330.07870483 131.56152344 330.92016602 C133.89683053 332.19973136 133.89683053 332.19973136 136.20727539 331.75097656 C138.36233632 330.84821646 139.88848768 329.67724815 141.6875 328.1875 C146.98050655 324.0718164 152.51472293 321.62131927 159 320 C159 275.12 159 230.24 159 184 C155.37 182.68 151.74 181.36 148 180 C145.02734375 178.3671875 145.02734375 178.3671875 142.9375 176.875 C142.22464844 176.37742187 141.51179688 175.87984375 140.77734375 175.3671875 C139 174 139 174 137 172 C133.14643443 172.33950872 130.4521204 173.70652981 127.19921875 175.72265625 C126.30396484 176.26083984 125.40871094 176.79902344 124.48632812 177.35351562 C122.62722397 178.48869786 120.77298603 179.63188997 118.92382812 180.78320312 C113.31556435 184.13208035 109.56765554 185.95623879 103 185 C100.43665981 182.35898283 100.05928254 180.69656988 99.75 177.0625 C101.74922782 172.16439185 105.52482178 170.57661777 110 168 C112.22229284 166.70680134 114.44287836 165.41075114 116.66210938 164.11230469 C118.21116883 163.20965726 119.76453742 162.31436156 121.32226562 161.42675781 C122.04091797 161.01264648 122.75957031 160.59853516 123.5 160.171875 C124.1496875 159.8015918 124.799375 159.43130859 125.46875 159.04980469 C127.16899674 158.06602637 127.16899674 158.06602637 128 156 C127.78730469 155.17628906 127.78730469 155.17628906 127.5703125 154.3359375 C126.7743964 151.07595237 126.86831025 147.97656257 126.875 144.625 C126.87242187 143.33851563 126.86984375 142.05203125 126.8671875 140.7265625 C126.98636526 137.3825749 127.36043872 134.27902051 128 131 C114.85530222 123.21936413 101.63190942 115.57806544 88.39501953 107.95556641 C82.92830017 104.80667944 77.46427167 101.65313182 72 98.5 C69.83984911 97.25389697 67.67969284 96.00780323 65.51953125 94.76171875 C60.00882326 91.58255974 54.49934627 88.40127514 48.99072266 85.21850586 C46.81068467 83.96059333 44.62939341 82.70484997 42.44677734 81.45141602 C37.21911305 78.44824719 32.01161385 75.41889827 26.83984375 72.3203125 C25.87409424 71.74885498 24.90834473 71.17739746 23.91333008 70.58862305 C22.09943463 69.51451615 20.29278893 68.4280382 18.49487305 67.32739258 C17.29471558 66.62199341 17.29471558 66.62199341 16.0703125 65.90234375 C15.03028076 65.27573853 15.03028076 65.27573853 13.96923828 64.63647461 C11.96237995 63.76275634 11.96237995 63.76275634 9.86889648 64.7956543 C7.84614537 66.0991463 5.88900585 67.46699765 3.9375 68.875 C0.46768405 71.2326566 -2.84865193 72.81871873 -6.80859375 74.1953125 C-8.27317017 74.70989014 -8.27317017 74.70989014 -9.76733398 75.23486328 C-10.50411377 75.4873584 -11.24089355 75.73985352 -12 76 C-12.01401855 77.4226416 -12.01401855 77.4226416 -12.02832031 78.87402344 C-12.07239231 82.40064758 -12.13402783 85.92606203 -12.20751953 89.45214844 C-12.23570535 90.97677431 -12.25693189 92.50154566 -12.27099609 94.02636719 C-12.29246049 96.22145936 -12.33912169 98.41480711 -12.390625 100.609375 C-12.41157227 101.92905273 -12.43251953 103.24873047 -12.45410156 104.60839844 C-13.07843636 108.48731572 -13.86223781 109.70904869 -17 112 C-20 112.5 -20 112.5 -23 112 C-26.13776219 109.70904869 -26.92156364 108.48731572 -27.54589844 104.60839844 C-27.5668457 103.2887207 -27.58779297 101.96904297 -27.609375 100.609375 C-27.62591125 99.90476135 -27.64244751 99.20014771 -27.65948486 98.47418213 C-27.70791139 96.23269898 -27.72932187 93.99189387 -27.75 91.75 C-27.77816448 90.22652849 -27.80809259 88.70308848 -27.83984375 87.1796875 C-27.91366593 83.45327244 -27.96327469 79.7269862 -28 76 C-29.10516968 75.62125732 -29.10516968 75.62125732 -30.23266602 75.23486328 C-31.20905029 74.89181152 -32.18543457 74.54875977 -33.19140625 74.1953125 C-34.15506104 73.86031738 -35.11871582 73.52532227 -36.11157227 73.18017578 C-39.77584791 71.68299816 -42.82973471 69.67424748 -46.02734375 67.3671875 C-46.67832031 66.91601562 -47.32929688 66.46484375 -48 66 C-48.58394531 65.52820313 -49.16789063 65.05640625 -49.76953125 64.5703125 C-52.95844658 63.7549331 -54.77683805 65.09630861 -57.52929688 66.66674805 Z M-225.2734375 127.05078125 C-230.08341268 132.48104735 -232.2766023 138.74820927 -232 146 C-230.88048634 153.57733983 -227.69890581 158.93300572 -222 164 C-215.7788408 168.48079316 -209.54871971 169.87100612 -202 169 C-194.76597325 166.81075506 -188.6215332 163.01295549 -184.6875 156.4375 C-181.58045687 150.10833807 -180.72664932 143.38752354 -182.71875 136.5234375 C-185.90314295 128.84494159 -191.38232058 123.36264287 -199 120 C-209.33334785 117.49679609 -217.6165129 119.7751776 -225.2734375 127.05078125 Z M148 127 C142.59985742 133.85964057 141.16429592 140.44398207 142 149 C143.29535754 155.06314413 146.35417471 159.91416258 151 164 C157.41430142 168.00893839 163.44462447 169.81490953 171 169 C178.18108835 167.1856002 183.51210656 163.91301837 188 158 C191.76603154 151.22114323 192.86886123 144.45908965 191 136.9375 C188.67849561 130.18307772 184.41565061 125.08001826 178.1875 121.5625 C167.41172946 116.90270733 156.56936678 119.100115 148 127 Z M-227.58984375 345.765625 C-231.32041223 351.67666426 -232.72878661 357.94322086 -231.5625 364.84375 C-229.56874485 372.48647807 -225.54267725 377.58776748 -219 382 C-212.55614226 385.43436374 -206.03549568 385.77124294 -199 384 C-190.99120343 380.59369819 -186.31513633 375.96100642 -182.6875 368.1875 C-181.09309499 360.79525858 -181.29085784 353.707133 -185 347 C-189.19823906 340.77897303 -194.51193088 336.52013433 -202 335 C-212.54428414 333.70508791 -220.98214567 337.45523403 -227.58984375 345.765625 Z M147 344 C142.29103547 350.59255035 141.16038912 357.0470192 142 365 C144.39218781 373.24264714 149.39566764 378.6380056 156.69921875 382.984375 C162.44947531 385.52268859 168.66873313 385.66034948 174.6875 384 C181.04152693 381.48344095 186.11799558 377.10727236 189.4375 371.125 C192.47255395 364.07933905 192.63892156 357.67052908 190.12890625 350.421875 C186.85542633 343.39918452 181.61215082 338.98740006 174.61328125 335.84375 C164.16133665 332.46913111 154.22890269 336.11058843 147 344 Z M-40.81640625 453.05078125 C-44.28147915 458.75728744 -46.13638008 465.34770763 -45 472 C-42.66745105 479.603846 -38.36491927 486.24227156 -31.5 490.4375 C-25.09410712 493.28319472 -17.26820295 493.09616769 -10.56640625 491.375 C-3.93314225 488.47860402 1.1540198 482.60751375 3.9375 476 C6.24841544 468.63664831 5.25902674 461.87741385 2 455 C-1.74700911 448.82918301 -7.17338084 445.18259514 -14 443 C-24.57380918 441.28419719 -34.2055417 444.41732925 -40.81640625 453.05078125 Z " fill="#000000" transform="translate(276,4)"/>
<path d="M0 0 C7.79606015 5.9295767 13.90541547 12.84858414 17.75 21.875 C23.03 21.875 28.31 21.875 33.75 21.875 C34.554375 20.245625 35.35875 18.61625 36.1875 16.9375 C42.60306496 5.2083377 52.52926055 -2.46160612 65.2109375 -6.39453125 C79.8007149 -9.40588707 93.80026515 -7.02492965 106.37109375 1.06640625 C115.83004401 8.25769356 123.11012655 18.91979353 124.75 30.875 C125.90388147 46.70699284 123.48884334 58.04324316 113.75 70.875 C113.42 71.535 113.09 72.195 112.75 72.875 C113.43964844 73.33648437 114.12929688 73.79796875 114.83984375 74.2734375 C130.94200435 85.44997147 139.8520666 99.34148382 144.33203125 118.34375 C144.8356971 121.39398804 144.99444832 124.34652098 145.0625 127.4375 C145.11857422 129.11005859 145.11857422 129.11005859 145.17578125 130.81640625 C144.66065597 134.5168016 143.64175424 135.60137167 140.75 137.875 C138.10942927 139.06751581 137.00605675 138.94369815 134.1875 138.1875 C131.36248141 136.66633615 130.38760334 135.62562622 128.75 132.875 C128.1953125 129.625 128.1953125 129.625 127.875 125.875 C126.35515496 111.99734721 119.89746567 99.25450309 108.8984375 90.42578125 C108.18945312 89.91402344 107.48046875 89.40226562 106.75 88.875 C105.99976563 88.33230469 105.24953125 87.78960937 104.4765625 87.23046875 C100.69114509 84.90899108 98.09648559 83.7192498 93.609375 84.23828125 C91.39876925 84.79093269 89.19883615 85.38803251 87.01171875 86.02734375 C81.32181177 87.50603814 75.35417335 87.74305778 69.75 85.875 C69.54375 86.679375 69.3375 87.48375 69.125 88.3125 C67.58319062 92.30718793 65.48643804 95.36926406 62.9921875 98.82421875 C61.49095747 100.90305594 61.49095747 100.90305594 61.75 103.875 C63.34755142 105.39148766 63.34755142 105.39148766 65.4375 106.75 C68.89306427 109.22345653 71.84688447 111.74856789 74.75 114.875 C75.28238281 115.40222656 75.81476563 115.92945313 76.36328125 116.47265625 C87.69050334 128.30219418 92.66648278 144.69134571 92.98046875 160.76171875 C92.71416529 163.20358609 92.01419157 164.78005398 90.75 166.875 C88.07366974 168.9565902 86.63246332 168.87087591 83.1875 168.75 C79.75 167.875 79.75 167.875 78.08984375 166.25390625 C76.32668649 163.12340255 76.1824479 160.51064446 75.875 156.9375 C74.58866117 145.25051928 70.68523891 135.63646769 62.75 126.875 C62.22792969 126.24980469 61.70585937 125.62460937 61.16796875 124.98046875 C56.42835916 119.68732812 50.61633222 115.80061346 43.75 113.875 C40.53154325 114.191433 37.8150436 114.97868532 34.74609375 115.984375 C27.33461449 118.18752659 20.46365217 117.16736448 13.1875 115 C8.08196118 113.68994567 5.47822504 113.88408446 0.8125 116.375 C-10.9763596 123.80908766 -20.04113035 135.1561809 -23.25 148.875 C-23.82479718 152.78440825 -24.29802162 156.65519001 -24.66015625 160.58984375 C-25.26546155 163.96111368 -25.81686211 165.50498597 -28.25 167.875 C-31.67890226 168.74781149 -34.14259577 169.20422829 -37.5625 168.1875 C-39.61262213 166.59296056 -40.2407423 165.25581303 -41.25 162.875 C-42.63419847 145.98777864 -36.12748298 130.14005508 -26 116.9375 C-21.11466885 111.29070742 -15.38329701 107.07802079 -9.25 102.875 C-9.73210937 102.15054688 -10.21421875 101.42609375 -10.7109375 100.6796875 C-11.34257812 99.71289062 -11.97421875 98.74609375 -12.625 97.75 C-13.25148438 96.79867187 -13.87796875 95.84734375 -14.5234375 94.8671875 C-16.22681069 91.91518781 -17.29193409 89.13629506 -18.25 85.875 C-19.735 86.37 -19.735 86.37 -21.25 86.875 C-27.47712623 87.4391299 -32.82089116 86.81389335 -38.8125 85.0625 C-43.39008058 83.93163198 -46.1194457 83.6284075 -50.4375 85.625 C-59.61833117 91.25292415 -66.48336708 98.22181887 -71.25 107.875 C-71.63929688 108.64328125 -72.02859375 109.4115625 -72.4296875 110.203125 C-75.26928912 116.46268478 -76.000403 122.67673621 -76.5625 129.45703125 C-77.34055359 133.3251954 -78.50138323 135.09035267 -81.25 137.875 C-84.72454134 139.33796477 -85.97080658 138.98775119 -89.5 137.5625 C-92.25 135.875 -92.25 135.875 -93.25 133.875 C-94.65697343 115.99020307 -88.9375652 99.78939737 -77.36328125 86.125 C-72.43579049 80.87872518 -66.93581251 76.27691936 -61.25 71.875 C-61.70890625 71.34132813 -62.1678125 70.80765625 -62.640625 70.2578125 C-72.75885621 57.97138889 -74.46670096 45.33737956 -73.25 29.875 C-72.4290325 25.85929611 -71.13451673 22.50313501 -69.25 18.875 C-68.82589844 18.01648438 -68.40179688 17.15796875 -67.96484375 16.2734375 C-61.89352793 5.07786349 -51.58279335 -2.64216769 -39.421875 -6.265625 C-26.034303 -9.36610404 -11.56756387 -7.51625118 0 0 Z M-50.25 18.875 C-56.70688974 28.10747582 -58.4548007 35.55932284 -57.25 46.875 C-54.38708545 56.11937295 -48.70339123 63.19102816 -40.29296875 67.9921875 C-34.65277847 70.57266671 -29.39574105 71.10691476 -23.25 70.875 C-22.59 70.545 -21.93 70.215 -21.25 69.875 C-20.73256807 67.38953217 -20.31401975 64.94443282 -19.9375 62.4375 C-17.62739128 49.03056611 -11.4054081 38.827804 -0.1875 30.75 C0.781875 30.13125 1.75125 29.5125 2.75 28.875 C-0.79466846 20.24450289 -6.46248272 14.32394936 -15 10.375 C-27.48257199 6.03323583 -41.46091727 8.75683647 -50.25 18.875 Z M52.3671875 21.51953125 C50.12844995 24.61149395 49.75 25.93918684 49.75 29.875 C51.26074741 31.39038412 51.26074741 31.39038412 53.3125 32.625 C63.08903008 39.53420854 68.87692395 48.49280447 71.06152344 60.234375 C71.30976452 61.68900324 71.54379552 63.14613677 71.76269531 64.60546875 C72.03462506 66.37173342 72.3857707 68.12543614 72.75 69.875 C77.93523928 72.46761964 84.03511458 70.60859893 89.2578125 68.91796875 C97.87939329 65.30987773 104.47297511 58.14270719 108.01953125 49.55859375 C110.24951036 41.36610365 109.60448095 32.72590343 106.0078125 25.0546875 C101.12643108 16.59564765 94.1256988 11.52211894 84.75 8.875 C71.2917365 7.40620474 61.09539464 11.1393753 52.3671875 21.51953125 Z M1.75 49.875 C-4.15796763 57.6470592 -6.26087794 65.14205985 -5.25 74.875 C-3.46314939 83.09677463 0.33417199 89.42264105 6.75 94.875 C15.25162684 100.21085588 23.58911585 102.45401518 33.53125 100.26171875 C41.52866584 97.71198084 47.8732777 93.45848576 52.3828125 86.2734375 C56.67029948 77.96796273 58.39917224 70.0015978 55.9140625 60.76953125 C52.33769832 51.30056702 46.842603 44.82055882 37.609375 40.56640625 C24.33347114 35.62977814 11.09453057 39.61474705 1.75 49.875 Z " fill="#000000" transform="translate(230.25,141.125)"/>
<path d="M0 0 C1.07390991 -0.00571014 2.14781982 -0.01142029 3.25427246 -0.01730347 C4.43252594 -0.01842133 5.61077942 -0.01953918 6.82473755 -0.02069092 C8.0656012 -0.02565582 9.30646484 -0.03062073 10.58493042 -0.03573608 C13.98995431 -0.04784575 17.39491678 -0.055303 20.79995489 -0.05974674 C22.92755365 -0.06267878 25.05514703 -0.06678381 27.18274307 -0.07125092 C33.84039055 -0.08492268 40.49802572 -0.09459116 47.15568626 -0.09845281 C54.83951244 -0.10293426 62.52316079 -0.12048743 70.2069329 -0.1494534 C76.14757809 -0.17107053 82.08817325 -0.18115708 88.02885735 -0.18249393 C91.57646594 -0.18354185 95.12390729 -0.1894469 98.67147446 -0.20731354 C102.62887054 -0.22685686 106.58604434 -0.2225051 110.54348755 -0.21600342 C111.71769257 -0.2252182 112.89189758 -0.23443298 114.10168457 -0.243927 C115.18123413 -0.23835785 116.26078369 -0.2327887 117.37304688 -0.22705078 C118.30845747 -0.22851734 119.24386806 -0.2299839 120.20762444 -0.2314949 C123.38131261 0.2214846 125.23341379 1.26092279 127.81350708 3.14044189 C129.81350708 6.14044189 129.81350708 6.14044189 129.62600708 9.64044189 C128.5873806 14.1145252 128.5873806 14.1145252 125.81350708 16.14044189 C123.36280918 16.52355194 123.36280918 16.52355194 120.39250183 16.53485107 C119.26666183 16.54620087 118.14082184 16.55755066 116.98086548 16.56924438 C115.74493652 16.56631378 114.50900757 16.56338318 113.23562622 16.56036377 C111.93463486 16.56883331 110.63364349 16.57730286 109.29322815 16.58602905 C105.72294621 16.60827182 102.15289487 16.61117439 98.58255315 16.60928154 C95.60285017 16.60916197 92.62319628 16.61772074 89.64350694 16.62605906 C82.61428432 16.64530305 75.58518047 16.64817335 68.55593872 16.64141846 C61.30248447 16.63477642 54.04953859 16.65764575 46.79618746 16.69473219 C40.57018379 16.72541163 34.34434381 16.73679117 28.11826605 16.73289537 C24.39901674 16.73082602 20.68016298 16.73633498 16.96098518 16.76078796 C12.81390766 16.78715295 8.66790603 16.77334086 4.52078247 16.75567627 C3.28687775 16.76893951 2.05297302 16.78220276 0.78167725 16.79586792 C-7.49267737 16.71369471 -7.49267737 16.71369471 -10.98460388 13.82855225 C-12.6249272 10.15985243 -12.25120983 7.97342276 -11.18649292 4.14044189 C-8.26206436 0.15258476 -4.66892694 0.01485945 0 0 Z " fill="#000000" transform="translate(197.18649291992188,361.85955810546875)"/>
<path d="M0 0 C1.27746094 -0.00064453 2.55492187 -0.00128906 3.87109375 -0.00195312 C4.86471924 0.01363647 4.86471924 0.01363647 5.87841797 0.02954102 C7.90024898 0.05850777 9.91945672 0.0501431 11.94140625 0.03710938 C21.69996454 0.10111606 21.69996454 0.10111606 24.75976562 1.81225586 C27.37284078 4.48461341 27.34337067 6.84909265 27.40625 10.49609375 C26.06062601 13.44365107 25.32070456 15.03886647 22.40625 16.49609375 C17.80782809 16.79555085 13.20076583 16.77423013 8.59375 16.80859375 C7.30919922 16.83759766 6.02464844 16.86660156 4.70117188 16.89648438 C3.46302734 16.90486328 2.22488281 16.91324219 0.94921875 16.921875 C-0.18491455 16.93645752 -1.31904785 16.95104004 -2.48754883 16.96606445 C-6.25736863 16.39568772 -7.90413897 15.14532671 -10.59375 12.49609375 C-11.22265625 10.49609375 -11.22265625 10.49609375 -11.15625 8.49609375 C-11.15753906 7.83609375 -11.15882813 7.17609375 -11.16015625 6.49609375 C-9.52628465 0.72683678 -5.40151421 -0.00856556 0 0 Z " fill="#000000" transform="translate(299.59375,332.50390625)"/>
<path d="M0 0 C3.8425303 0.72047443 5.45767292 1.57152696 8 4.5625 C8.71730941 7.3854596 8.71730941 9.7395404 8 12.5625 C5.45767292 15.55347304 3.8425303 16.40452557 0 17.125 C-4.10389613 16.35551948 -5.53959272 14.89128632 -8 11.5625 C-8.625 8.5625 -8.625 8.5625 -8 5.5625 C-5.53959272 2.23371368 -4.10389613 0.76948052 0 0 Z " fill="#000000" transform="translate(245,332.4375)"/>
<path d="M0 0 C3.8425303 0.72047443 5.45767292 1.57152696 8 4.5625 C8.71730941 7.3854596 8.71730941 9.7395404 8 12.5625 C5.45767292 15.55347304 3.8425303 16.40452557 0 17.125 C-4.10389613 16.35551948 -5.53959272 14.89128632 -8 11.5625 C-8.625 8.5625 -8.625 8.5625 -8 5.5625 C-5.53959272 2.23371368 -4.10389613 0.76948052 0 0 Z " fill="#000000" transform="translate(219,332.4375)"/>
<path d="M0 0 C2.875 1.5 2.875 1.5 5 4 C5.71730941 6.8229596 5.71730941 9.1770404 5 12 C2.41832046 15.03727005 0.87501007 15.87499856 -3.0625 16.4375 C-6.41948631 15.93752331 -7.76774103 15.562964 -10 13 C-11.10373378 9.02655839 -11.41543583 6.91000228 -9.6875 3.125 C-6.84166592 -0.45864292 -4.43603275 -0.43490517 0 0 Z " fill="#000000" transform="translate(196,333)"/>
</svg>
