<?xml version="1.0" encoding="UTF-8"?>
<svg version="1.1" xmlns="http://www.w3.org/2000/svg" width="512" height="512">
<path d="M0 0 C6.81564327 5.40363749 10.9910255 12.84298738 12.8125 21.3125 C13.17149 26.84040359 13.0971613 32.33925036 13 37.875 C12.98492392 39.37563759 12.97124069 40.87628985 12.95898438 42.37695312 C12.92621482 46.02244452 12.87459479 49.66737635 12.8125 53.3125 C13.6488649 53.30361755 14.4852298 53.29473511 15.34693909 53.2855835 C23.24727101 53.2052767 31.1474649 53.14445409 39.04811192 53.10525131 C43.10948225 53.08441877 47.17051397 53.05618134 51.23168945 53.01074219 C55.15448754 52.96712835 59.07696091 52.94333033 62.99998283 52.93299103 C64.4930628 52.92562737 65.98612595 52.91124781 67.47906685 52.88957977 C76.49598429 52.76397266 82.88325384 52.74656481 89.7734375 59.12890625 C90.24007812 59.70511719 90.70671875 60.28132813 91.1875 60.875 C91.91066406 61.74318359 91.91066406 61.74318359 92.6484375 62.62890625 C96.13655025 67.67379415 95.30628002 74.47884171 94.8125 80.3125 C93.14118661 85.98087012 88.55758868 90.03167302 83.8125 93.3125 C80.63724853 94.37091716 78.46192261 94.4125919 75.12963867 94.375 C73.95958786 94.365896 72.78953705 94.35679199 71.58403015 94.34741211 C70.31235489 94.33589111 69.04067963 94.32437012 67.73046875 94.3125 C65.01494068 94.31133957 62.29950089 94.31226489 59.58398438 94.31640625 C55.3209881 94.32254633 51.05930354 94.31830152 46.79663086 94.26123047 C28.51744784 94.03225825 13.24270363 95.56275506 -3.1875 104.3125 C-3.96933151 104.71819214 -4.75116302 105.12388428 -5.5566864 105.54187012 C-8.80625755 107.23244923 -12.01112238 108.96188216 -15.19140625 110.78125 C-19.03972571 112.74805734 -21.66950113 113.73612759 -25.875 112.5625 C-28.1875 111.3125 -28.1875 111.3125 -30.1875 108.3125 C-30.45492554 105.13809204 -30.45492554 105.13809204 -30.47802734 101.16650391 C-30.48810318 100.08061729 -30.48810318 100.08061729 -30.49838257 98.97279358 C-30.51738984 96.57814684 -30.52128817 94.18377999 -30.5234375 91.7890625 C-30.52986383 90.12380864 -30.53659206 88.45855592 -30.54360962 86.79330444 C-30.5555894 83.30130394 -30.55928976 79.80940242 -30.55810547 76.31738281 C-30.5579023 71.84601891 -30.58519835 67.37529079 -30.61964989 62.90407753 C-30.64190514 59.46392918 -30.64594343 56.02393413 -30.64488602 52.58372116 C-30.64724429 50.93550807 -30.6560806 49.28729089 -30.67155075 47.63914871 C-30.69118267 45.33141033 -30.68538481 43.02504642 -30.67333984 40.71728516 C-30.67618988 39.40506989 -30.67903992 38.09285461 -30.68197632 36.74087524 C-30.10452887 32.73723249 -29.07883953 31.09679925 -26.1875 28.3125 C-22.75 27.25 -22.75 27.25 -19.1875 27.3125 C-15.76008371 29.39875339 -14.46268963 30.4869311 -13.1875 34.3125 C-13.08420924 37.15603384 -13.04721613 39.96888079 -13.0625 42.8125 C-13.06443359 43.69510498 -13.06636719 44.57770996 -13.06835938 45.48706055 C-13.15799302 60.43222549 -13.71134387 75.37563426 -14.1875 90.3125 C-13.4346875 89.94898438 -12.681875 89.58546875 -11.90625 89.2109375 C-8.98006659 87.82597205 -6.03645283 86.49622966 -3.07836914 85.18170166 C-1.32827233 84.37721074 0.38601479 83.49602274 2.09570312 82.60888672 C15.62576199 76.35567275 30.51883538 77.40792814 45.11553955 77.43695068 C48.81024825 77.43787449 52.50465326 77.40485253 56.19921875 77.375 C63.40375987 77.32163213 70.60773712 77.30489517 77.8125 77.3125 C77.8125 75.0025 77.8125 72.6925 77.8125 70.3125 C76.4009539 70.31036247 76.4009539 70.31036247 74.96089172 70.30818176 C66.08837822 70.2915053 57.21632298 70.24871218 48.34405231 70.18040943 C43.78276824 70.14613234 39.22181935 70.12102836 34.66040039 70.11694336 C30.25750911 70.1126619 25.85537403 70.08421246 21.45271873 70.03906822 C19.77387078 70.02608824 18.09493236 70.02178734 16.41604042 70.02634621 C14.06209505 70.03124902 11.7103626 70.00517876 9.35668945 69.97192383 C8.6640097 69.98054947 7.97132996 69.98917511 7.25765991 69.99806213 C3.50012046 69.90918865 1.87581484 69.36192796 -1.12077332 67.02258301 C-3.11682186 64.4051797 -3.81088143 63.47810705 -3.79931641 60.29174805 C-3.80927643 59.53713791 -3.81923645 58.78252777 -3.82949829 58.00505066 C-3.81615448 57.20287613 -3.80281067 56.4007016 -3.7890625 55.57421875 C-3.79706879 54.73462112 -3.80507507 53.8950235 -3.81332397 53.02998352 C-3.83634651 50.35282872 -3.8269596 47.67719477 -3.8125 45 C-3.80863699 42.33380061 -3.81223779 39.66827655 -3.83309937 37.00215149 C-3.84506912 35.34707076 -3.84271882 33.69180014 -3.82339478 32.03678894 C-3.85293843 25.86196209 -4.81963721 20.14855384 -8.90625 15.25390625 C-9.78796875 14.57134766 -9.78796875 14.57134766 -10.6875 13.875 C-11.2753125 13.40191406 -11.863125 12.92882812 -12.46875 12.44140625 C-17.15976154 9.36026458 -22.8093924 9.67329869 -28.1875 10.3125 C-33.47178343 12.26348544 -36.57330438 15.16080219 -39.32421875 20.1082592 C-41.05420647 24.52548652 -40.74055042 29.16165081 -40.70507812 33.84399414 C-40.7120874 34.9862999 -40.71909668 36.12860565 -40.72631836 37.30552673 C-40.74387944 41.0698194 -40.73228218 44.83335634 -40.71875 48.59765625 C-40.72144525 51.21886845 -40.72532794 53.84007967 -40.73034668 56.46128845 C-40.73760993 61.94961697 -40.72806933 67.43772969 -40.70898438 72.92602539 C-40.68720702 79.26154705 -40.69427808 85.59655392 -40.71629 91.93206316 C-40.73666057 98.04088774 -40.73446507 104.14948495 -40.72276306 110.25832939 C-40.72009558 112.85187286 -40.72336624 115.44542948 -40.73268127 118.0389576 C-40.74284264 121.66312577 -40.72735002 125.28630579 -40.70507812 128.91040039 C-40.71317505 129.98121857 -40.72127197 131.05203674 -40.72961426 132.15530396 C-40.66323919 137.98703533 -40.38630613 141.87671655 -36.1875 146.3125 C-31.20032346 149.78386844 -26.60892499 149.73332715 -20.75732422 149.68139648 C-19.36113358 149.6870462 -19.36113358 149.6870462 -17.93673706 149.69281006 C-15.92335897 149.69922784 -13.90995057 149.69892633 -11.89657211 149.69262505 C-8.71071894 149.68350365 -5.52545283 149.69374964 -2.33963013 149.70924377 C6.71513995 149.74932353 15.769863 149.75054083 24.82470703 149.74829102 C30.36898975 149.74823999 35.912954 149.76736559 41.45714951 149.79762459 C44.59713853 149.80847053 47.7365255 149.79630929 50.87649536 149.78379822 C52.79804079 149.79269959 54.71958127 149.80277291 56.64111328 149.81420898 C57.51497681 149.80446548 58.38884033 149.79472198 59.28918457 149.78468323 C65.18935177 149.8549154 65.18935177 149.8549154 68.32321167 152.15614319 C70.49846964 155.30572292 70.93787057 157.83423314 70.95053101 161.56335449 C70.95598434 162.42980087 70.96143768 163.29624725 70.96705627 164.18894958 C70.9680986 165.13657669 70.96914093 166.0842038 70.97021484 167.06054688 C70.97529556 168.06078384 70.98037628 169.06102081 70.98561096 170.09156799 C70.99631799 172.26542788 71.00493686 174.4392988 71.01173019 176.61317444 C71.0235031 180.05040284 71.04295038 183.48750469 71.06484985 186.92468262 C71.12653101 196.6979555 71.18058545 206.47121479 71.21386719 216.24462891 C71.23476474 222.21985283 71.27002543 228.19484517 71.31462479 234.16993713 C71.32882119 236.45053896 71.33751538 238.73118174 71.34067917 241.01182556 C71.34556559 244.1962829 71.36866394 247.3801208 71.39599609 250.56445312 C71.39298996 251.51208023 71.38998383 252.45970734 71.3868866 253.43605042 C71.39797958 254.3024968 71.40907257 255.16894318 71.42050171 256.06164551 C71.42546693 257.19098888 71.42546693 257.19098888 71.43053246 258.34314728 C71.92225003 260.87835049 72.77115421 261.76859076 74.8125 263.3125 C78.03340079 263.7151126 79.9460699 263.9399149 82.625 262 C84.88471196 258.78883037 84.93795336 255.91962924 84.93948364 252.12600708 C84.94230347 251.05209717 84.94512329 249.97818726 84.94802856 248.87173462 C84.94600433 247.69348114 84.9439801 246.51522766 84.94189453 245.30126953 C84.94364685 244.06040588 84.94539917 242.81954224 84.94720459 241.54107666 C84.95085588 238.13604717 84.94999379 234.73107831 84.9468255 231.32605219 C84.94429493 227.76227899 84.9466415 224.1985084 84.94821167 220.63473511 C84.95003179 214.64759862 84.94763166 208.66047446 84.94287109 202.67333984 C84.93743374 195.75524122 84.93918793 188.83717208 84.9446975 181.91907418 C84.94923902 175.97843013 84.94987393 170.03779495 84.94725883 164.09714973 C84.94570115 160.54960578 84.94548828 157.00207568 84.94879532 153.45453262 C84.95222651 149.49718332 84.94746727 145.53986689 84.94189453 141.58251953 C84.94493088 139.82121201 84.94493088 139.82121201 84.94802856 138.02432251 C84.94520874 136.94477295 84.94238892 135.86522339 84.93948364 134.75296021 C84.93910662 133.81754961 84.93872959 132.88213902 84.93834114 131.91838264 C84.81149298 129.291647 84.39588688 126.87334597 83.8125 124.3125 C75.97915022 122.07567 68.35223554 122.03096711 60.27869225 122.03810501 C57.84455091 122.03907938 55.41084014 122.02602562 52.97676086 122.00912476 C46.06323417 121.96309858 39.14975901 121.93821881 32.23608398 121.93164062 C27.99152714 121.92663055 23.74743146 121.90242253 19.50303078 121.86631393 C17.89032571 121.85651914 16.27755725 121.85418227 14.66483116 121.85948563 C12.41496527 121.86654537 10.16648303 121.84930425 7.91674805 121.82666016 C5.99888741 121.8223851 5.99888741 121.8223851 4.0422821 121.81802368 C0.8125 121.3125 0.8125 121.3125 -1.59635925 119.49520874 C-3.1875 117.3125 -3.1875 117.3125 -3.75 113.875 C-3.03237844 109.33006348 -1.76794028 108.13812131 1.8125 105.3125 C4.52518906 104.83108887 6.60418922 104.65487778 9.30566406 104.71313477 C10.04296249 104.70919205 10.78026093 104.70524933 11.53990173 104.70118713 C13.97000785 104.69449145 16.3982207 104.72361756 18.828125 104.75390625 C20.52577348 104.75816023 22.2234278 104.76048536 23.92108154 104.76097107 C27.47874341 104.76713325 31.03577491 104.78980806 34.59326172 104.82543945 C39.13353699 104.87057343 43.67323952 104.88545882 48.21371841 104.88917637 C51.7209631 104.89362681 55.22808979 104.90897111 58.7352829 104.9280529 C60.40806872 104.93688068 62.08086689 104.94363676 63.75366974 104.94821358 C86.14036557 105.0352991 86.14036557 105.0352991 93.8125 111.3125 C101.86681518 119.55412484 102.254804 127.61295341 102.20068359 138.578125 C102.20856903 140.5503302 102.20856903 140.5503302 102.21661377 142.56237793 C102.23022327 146.14918924 102.22501531 149.73574001 102.21547651 153.32255554 C102.20784671 157.08776518 102.21493471 160.85295348 102.21963501 164.61816406 C102.22508294 170.93949359 102.21792632 177.26071774 102.20361328 183.58203125 C102.18728857 190.87572297 102.19257776 198.16916304 102.2090925 205.46284866 C102.22273491 211.74081186 102.2246136 218.01869958 102.21677649 224.29667282 C102.21211507 228.03933584 102.21143272 231.78188084 102.22138596 235.52453613 C102.23171289 239.69879909 102.2173734 243.87263264 102.20068359 248.046875 C102.20675629 249.27724487 102.21282898 250.50761475 102.21908569 251.77526855 C102.14642166 261.599792 100.49463457 268.32923362 93.62109375 275.6171875 C88.23449597 280.66639579 81.96982163 281.4520578 74.8125 281.3125 C67.9864407 280.28090905 61.9984476 276.82504342 57.8125 271.3125 C54.47979881 264.64310781 53.23347084 258.86099659 53.35839844 251.45654297 C53.35781433 250.5284935 53.35723022 249.60044403 53.35662842 248.64427185 C53.35938797 245.61401346 53.39037824 242.58477142 53.421875 239.5546875 C53.42934498 237.43906186 53.43503433 235.32342925 53.43902588 233.20779419 C53.45422258 227.66748605 53.49345269 222.12760427 53.5378418 216.58746338 C53.57892362 210.9229509 53.59706438 205.25836884 53.6171875 199.59375 C53.65995296 188.49981374 53.7281315 177.40619247 53.8125 166.3125 C52.73223541 166.32138245 51.65197083 166.33026489 50.53897095 166.3394165 C40.32914089 166.42071105 30.11937702 166.48056533 19.90929604 166.51974869 C14.66090976 166.54057091 9.41278601 166.56879017 4.16455078 166.61425781 C-0.90589584 166.65790735 -5.97609087 166.68167741 -11.04671097 166.69200897 C-12.9755003 166.69936615 -14.90427679 166.71373264 -16.83295822 166.73542023 C-28.42354365 166.86050059 -37.4611136 166.71052188 -47.4375 160.1875 C-56.52242443 150.68962446 -58.49608909 140.69041392 -58.44628906 127.99047852 C-58.4497937 126.88210632 -58.45329834 125.77373413 -58.45690918 124.6317749 C-58.46567797 120.98492076 -58.45989398 117.33826221 -58.453125 113.69140625 C-58.45447314 111.14607201 -58.45641491 108.60073802 -58.45892334 106.05540466 C-58.46186812 100.72693181 -58.45779045 95.39852836 -58.44824219 90.07006836 C-58.43736511 83.92955265 -58.44088173 77.78916986 -58.451895 71.64865738 C-58.46210249 65.71769972 -58.46097363 59.78678297 -58.45513153 53.85581779 C-58.45380092 51.34290485 -58.45542206 48.8299885 -58.46009064 46.31707954 C-58.46519189 42.79926812 -58.45739466 39.28170876 -58.44628906 35.76391602 C-58.45236176 34.21830238 -58.45236176 34.21830238 -58.45855713 32.64146423 C-58.38841028 20.59587198 -55.83146506 11.09397209 -47.5625 2.0625 C-33.99169117 -10.81434702 -14.79853805 -10.05183717 0 0 Z " fill="#000000" transform="translate(113.1875,177.6875)"/>
<path d="M0 0 C8.15005386 6.46130396 12.6740857 14.69251191 14 25 C14.15272788 28.69294256 14.15715294 32.38336282 14.16113281 36.07910156 C14.16609772 37.18557541 14.17106262 38.29204926 14.17617798 39.43205261 C14.19075774 43.08491645 14.19759462 46.73773687 14.203125 50.390625 C14.20887984 52.93642172 14.21463753 55.48221843 14.22039795 58.02801514 C14.22955578 62.68298332 14.23586095 67.33793857 14.2388947 71.99291348 C14.24337089 78.82146169 14.26090579 85.64980927 14.2898953 92.47829652 C14.31420846 98.41350616 14.32184343 104.34866642 14.32357025 110.28392792 C14.32658925 112.79881635 14.33459224 115.31370408 14.34775543 117.82855988 C14.36488952 121.3536329 14.36291745 124.87822207 14.35644531 128.40332031 C14.3656601 129.43327621 14.37487488 130.46323212 14.3843689 131.5243988 C14.32528259 141.844362 11.94640997 151.13642335 5 159 C-2.36060878 165.16022276 -9.30235909 167.31191416 -18.75927734 167.22705078 C-19.61846771 167.22734283 -20.47765808 167.22763489 -21.36288452 167.22793579 C-24.1873402 167.22654853 -27.01152821 167.21101584 -29.8359375 167.1953125 C-31.80034237 167.19158022 -33.7647491 167.18873426 -35.72915649 167.18673706 C-40.88797181 167.17911753 -46.04667369 167.15948345 -51.20544434 167.1373291 C-56.47418687 167.11683447 -61.74294781 167.10772761 -67.01171875 167.09765625 C-77.34119554 167.07623599 -87.67058832 167.04212032 -98 167 C-97.99111755 168.16796112 -97.98223511 169.33592224 -97.9730835 170.53927612 C-97.89181991 181.57321514 -97.83194934 192.60709303 -97.79275131 203.64126396 C-97.77192137 209.31337888 -97.74368759 214.98525122 -97.69824219 220.65722656 C-97.65462076 226.1361541 -97.63082837 231.61484905 -97.62049103 237.09393692 C-97.61312888 239.17902408 -97.59875255 241.26409924 -97.57707977 243.34908676 C-97.54782926 246.28101361 -97.54405303 249.21199253 -97.54589844 252.14404297 C-97.52432678 253.42259407 -97.52432678 253.42259407 -97.50231934 254.72697449 C-97.55109103 261.93888785 -99.41835711 268.60019192 -103.82421875 274.40234375 C-110.30860887 279.74482869 -116.05335988 282.37609459 -124.5625 282 C-131.5764934 281.08769037 -135.89293875 278.10706125 -140.8125 273.1875 C-146.26232861 265.24632117 -146.43845555 258.14491983 -146.40405273 248.76611328 C-146.41091599 247.4545224 -146.41777924 246.14293152 -146.42485046 244.79159546 C-146.44271263 241.21292782 -146.44162651 237.63450632 -146.43590808 234.05580759 C-146.43280562 231.05902516 -146.4389205 228.06228928 -146.44494683 225.06551349 C-146.45896812 217.99041319 -146.45745126 210.91543369 -146.44604492 203.84033203 C-146.43457043 196.56253193 -146.44863334 189.28510064 -146.4754414 182.00734913 C-146.49765739 175.73954124 -146.50422242 169.47184861 -146.49836498 163.20400417 C-146.49500771 159.46905422 -146.49732769 155.7343405 -146.51461601 151.99942398 C-146.53307394 147.83027349 -146.51883769 143.66183201 -146.50170898 139.49267578 C-146.51137695 138.26949646 -146.52104492 137.04631714 -146.53100586 135.78607178 C-146.4600135 127.50944596 -145.35733293 120.16496173 -140.03515625 113.5625 C-132.38559596 107.50344234 -126.06177586 105.86769775 -116.26025391 105.88647461 C-115.61564209 105.88632858 -114.97103027 105.88618256 -114.30688477 105.8860321 C-112.19674195 105.88672339 -110.08668971 105.89447867 -107.9765625 105.90234375 C-106.5054021 105.90421072 -105.03424108 105.90563331 -103.56307983 105.90663147 C-99.70634215 105.91043467 -95.84964262 105.92024602 -91.99291992 105.93133545 C-88.05127478 105.94159698 -84.10962342 105.94613922 -80.16796875 105.95117188 C-72.44529518 105.96187041 -64.72265295 105.97892023 -57 106 C-57.00888245 104.97206833 -57.01776489 103.94413666 -57.0269165 102.88505554 C-57.10827545 93.16117312 -57.1680959 83.43736046 -57.20724869 73.71321392 C-57.2280548 68.71483272 -57.25624395 63.71672799 -57.30175781 58.71850586 C-57.34546571 53.88795597 -57.36918948 49.05767074 -57.37950897 44.22693825 C-57.38685581 42.39107922 -57.40120167 40.5552334 -57.42292023 38.71948814 C-57.57310144 25.49011178 -56.88372335 14.5798861 -47.97265625 4.00390625 C-34.87938855 -9.29677955 -15.13192539 -10.53590543 0 0 Z M-36.8125 16.875 C-40.61171254 22.30244648 -41.29396641 27.24983973 -41.22705078 33.74951172 C-41.22734283 34.50141281 -41.22763489 35.2533139 -41.22793579 36.02799988 C-41.22655052 38.49534945 -41.21102748 40.96239115 -41.1953125 43.4296875 C-41.19157951 45.14746943 -41.18873389 46.8652535 -41.18673706 48.58303833 C-41.17912311 53.09084006 -41.15949395 57.59851167 -41.1373291 62.10626221 C-41.11682235 66.71144857 -41.10772503 71.31665608 -41.09765625 75.921875 C-41.07624586 84.94797365 -41.04213705 93.97397598 -41 103 C-39.35303396 102.5247412 -37.70745272 102.04468109 -36.0625 101.5625 C-35.14597656 101.29566406 -34.22945313 101.02882813 -33.28515625 100.75390625 C-31.0597507 100.20973949 -31.0597507 100.20973949 -30 99 C-29.92172564 97.03170666 -29.91425662 95.06056966 -29.93408203 93.09082031 C-29.94384064 91.82570618 -29.95359924 90.56059204 -29.96365356 89.25714111 C-29.97101658 88.57648842 -29.97837959 87.89583572 -29.98596573 87.19455719 C-30.00792126 85.06758862 -30.02204459 82.94070836 -30.03366089 80.81365967 C-30.06731249 74.7643215 -30.10874845 68.71512856 -30.17138672 62.66601562 C-30.2091052 58.96904623 -30.2320814 55.2722294 -30.24569321 51.57509613 C-30.25373591 50.16689565 -30.2673286 48.75871532 -30.28662491 47.35062408 C-30.31319661 45.37613998 -30.31936861 43.40141349 -30.32470703 41.42675781 C-30.33922409 39.74250702 -30.33922409 39.74250702 -30.35403442 38.02423096 C-29.95093654 34.58089038 -29.12401823 32.72454347 -27 30 C-23.625 28.875 -23.625 28.875 -20 29 C-16.55041448 31.62238 -15.15675082 33.11611987 -14.39199829 37.42837524 C-14.40008514 38.74059052 -14.408172 40.05280579 -14.41650391 41.40478516 C-14.41416748 42.1322142 -14.41183105 42.85964325 -14.40942383 43.6091156 C-14.40781453 46.00317208 -14.44178166 48.39528085 -14.4765625 50.7890625 C-14.48335489 52.4562409 -14.4880753 54.12342891 -14.49081421 55.7906189 C-14.5042103 60.17264805 -14.54848839 64.55386413 -14.59838867 68.93560791 C-14.63381461 72.51582099 -14.64687235 76.09595239 -14.65880775 79.67630959 C-14.67359146 83.94311169 -14.69880917 88.20982731 -14.7265625 92.4765625 C-14.73147327 93.29145771 -14.73638405 94.10635292 -14.74144363 94.94594193 C-14.75771363 97.24872502 -14.78111758 99.55131263 -14.80712891 101.85400391 C-14.81998932 103.16462799 -14.83284973 104.47525208 -14.84609985 105.82559204 C-15 109 -15 109 -16 112 C-17.65234375 112.73828125 -17.65234375 112.73828125 -19.9375 113.3125 C-23.33541362 114.1925902 -26.621541 115.20548588 -29.89961243 116.45147705 C-40.816264 120.53680844 -50.32361645 121.85368832 -61.91796875 121.734375 C-63.55700486 121.74057366 -65.1960322 121.74969075 -66.83503723 121.76153564 C-71.08865308 121.7859309 -75.341471 121.77719824 -79.59509277 121.75897217 C-86.43779415 121.73528998 -93.28045732 121.76287421 -100.12310219 121.79169464 C-102.49345206 121.796769 -104.86337212 121.7870286 -107.23368835 121.77484131 C-108.6911927 121.77502992 -110.14869706 121.77552232 -111.60620117 121.77636719 C-112.86873215 121.77159363 -114.13126312 121.76682007 -115.43205261 121.76190186 C-119.9103735 122.06075152 -124.24474704 122.65430606 -127.875 125.4375 C-130.12381679 128.56085665 -130.12863016 131.47360424 -130.14044189 135.17976379 C-130.14615204 136.25222855 -130.15186218 137.3246933 -130.15774536 138.42965698 C-130.15886322 139.60633942 -130.15998108 140.78302185 -130.16113281 141.99536133 C-130.16609772 143.23461868 -130.17106262 144.47387604 -130.17617798 145.75068665 C-130.18828823 149.1516456 -130.19574524 152.55254305 -130.20018864 155.95351624 C-130.20312097 158.07911268 -130.2072261 160.20470374 -130.21169281 162.33029747 C-130.22536575 168.98314158 -130.23503324 175.63597339 -130.2388947 182.28883058 C-130.24337429 189.96415682 -130.26091829 197.63930486 -130.2898953 205.31457692 C-130.31152503 211.25014224 -130.32159968 217.18565747 -130.32293582 223.12126178 C-130.32398298 226.66498999 -130.32987164 230.20855066 -130.34775543 233.75223732 C-130.36732576 237.70703481 -130.36294196 241.66161034 -130.35644531 245.61645508 C-130.3656601 246.78706482 -130.37487488 247.95767456 -130.3843689 249.16375732 C-130.35552551 257.00446798 -130.35552551 257.00446798 -127 264 C-124.15916359 265.42041821 -122.14522722 265.31452272 -119 265 C-116.64087282 263.65709369 -116.64087282 263.65709369 -115 261 C-114.39916754 257.7275698 -114.45700896 254.4894485 -114.48583984 251.17016602 C-114.47871475 250.17299561 -114.47158966 249.1758252 -114.46424866 248.1484375 C-114.44493971 244.85005994 -114.45325295 241.55232173 -114.4609375 238.25390625 C-114.45103427 235.96230632 -114.43909445 233.67071435 -114.42520142 231.37913513 C-114.39279377 225.34268823 -114.38244334 219.3064228 -114.37835693 213.26989746 C-114.36961107 203.61096698 -114.33413298 193.95218598 -114.2861824 184.29337883 C-114.27358398 180.91815014 -114.27435666 177.54310941 -114.27645874 174.16786194 C-114.26987817 172.09831599 -114.26287186 170.02877133 -114.25537109 167.95922852 C-114.25949509 167.02036301 -114.26361908 166.0814975 -114.26786804 165.11418152 C-114.21677611 156.87781796 -114.21677611 156.87781796 -112 153 C-108.61845678 151.30922839 -104.77598753 151.84668647 -101.05566406 151.84228516 C-100.12866699 151.83720444 -99.20166992 151.83212372 -98.24658203 151.82688904 C-96.22877199 151.81617108 -94.21094996 151.80755652 -92.19312286 151.80076981 C-88.99878184 151.78900044 -85.80457721 151.76955181 -82.61029053 151.74765015 C-73.52637271 151.68597382 -64.44246774 151.63200642 -55.35839844 151.59863281 C-49.80575611 151.57768163 -44.25336043 151.54237152 -38.70085907 151.49787521 C-36.58462174 151.48371526 -34.46834074 151.47499279 -32.35205841 151.47182083 C-29.3884148 151.46690952 -26.42542477 151.44374441 -23.46191406 151.41650391 C-22.15247833 151.42101311 -22.15247833 151.42101311 -20.81658936 151.4256134 C-15.80521606 151.35724546 -12.34023059 150.77791981 -8 148 C-4.42562097 144.03920161 -2.87938444 141.6569662 -2.85282898 136.37155151 C-2.84567368 135.39590744 -2.83851837 134.42026337 -2.83114624 133.41505432 C-2.82845734 132.34077682 -2.82576843 131.26649933 -2.82299805 130.15966797 C-2.81642685 129.0310585 -2.80985565 127.90244904 -2.80308533 126.73963928 C-2.78331439 122.99048807 -2.77168007 119.24137702 -2.76171875 115.4921875 C-2.75764322 114.21319706 -2.7535677 112.93420662 -2.74936867 111.61645889 C-2.73064463 105.54346037 -2.71608429 99.47048624 -2.7077567 93.39746654 C-2.69799791 86.39674082 -2.6717168 79.39633243 -2.63125581 72.39571846 C-2.59738455 66.32594305 -2.58560552 60.25630035 -2.58155251 54.1864357 C-2.57668199 51.60847958 -2.5650549 49.03052695 -2.54651451 46.4526329 C-2.52215411 42.84039899 -2.52308329 39.22899022 -2.5300293 35.61669922 C-2.51721924 34.55456711 -2.50440918 33.492435 -2.49121094 32.39811707 C-2.54302556 24.99163231 -3.71693341 19.48460137 -8.97265625 13.90625 C-18.68718219 7.36937273 -28.82605641 8.0783375 -36.8125 16.875 Z " fill="#000000" transform="translate(443,177)"/>
<path d="M0 0 C0.90500748 -0.0115361 1.81001495 -0.0230722 2.7424469 -0.03495789 C5.71772033 -0.06909484 8.69278728 -0.08772836 11.66821289 -0.10327148 C13.19919711 -0.11362584 13.19919711 -0.11362584 14.76111031 -0.12418938 C20.15844998 -0.15994411 25.55568615 -0.18352879 30.953125 -0.19726562 C36.5162368 -0.21383915 42.07808331 -0.27232525 47.640769 -0.34040928 C51.93114639 -0.38523751 56.22122072 -0.39876299 60.51181221 -0.40388298 C62.56231096 -0.41176215 64.6128006 -0.43136344 66.66306877 -0.46310616 C84.69634507 -0.72398486 84.69634507 -0.72398486 89.57885742 3.45043945 C90.65909777 4.71422897 91.70274765 6.010415 92.70336914 7.33813477 C93.87240557 8.49596855 95.05748145 9.63782561 96.2578125 10.76318359 C97.43893288 11.93784892 98.61733481 13.11525301 99.79321289 14.29516602 C100.42320694 14.92420334 101.05320099 15.55324066 101.70228577 16.20133972 C103.01678117 17.51516108 104.33004069 18.83022006 105.64208984 20.14648438 C107.65681686 22.16662534 109.67690299 24.1812986 111.69750977 26.19555664 C112.97973204 27.47843878 114.26164459 28.76163058 115.54321289 30.04516602 C116.14729477 30.64722366 116.75137665 31.24928131 117.37376404 31.86958313 C121.87324693 36.39463475 122.82726828 38.11809146 122.84381104 44.44044495 C122.84952118 45.74279587 122.85523132 47.04514679 122.8611145 48.38696289 C122.86235996 49.83886709 122.86348503 51.2907714 122.86450195 52.74267578 C122.86912924 54.26529562 122.87415378 55.7879143 122.87954712 57.31053162 C122.89268681 61.45551294 122.8991198 65.60047805 122.90355778 69.74547696 C122.90648761 72.3362654 122.91059237 74.92704941 122.91506195 77.51783562 C122.9287446 85.6267328 122.93840597 93.73561985 122.94226384 101.84452778 C122.94673853 111.19853531 122.96425573 120.55239628 122.99326444 129.90635926 C123.01491278 137.13875519 123.0249699 144.37111 123.02630496 151.60353798 C123.02735127 155.92145953 123.03322117 160.23924344 123.05112457 164.55713081 C123.06765853 168.62420245 123.06973507 172.69103385 123.06098557 176.75812721 C123.06021787 178.24597062 123.06452237 179.73382721 123.07444382 181.22163773 C123.14853317 193.03075773 122.23926583 201.583404 113.89477539 210.38891602 C108.48949582 215.19682066 102.35129771 217.44618902 95.15830994 217.48530579 C93.7981929 217.49603874 93.7981929 217.49603874 92.41059875 217.50698853 C91.42303085 217.50967743 90.43546295 217.51236633 89.41796875 217.51513672 C88.37191467 217.52170792 87.3258606 217.52827911 86.24810791 217.53504944 C82.78397548 217.55476903 79.31988644 217.56644375 75.85571289 217.57641602 C74.07798587 217.58252931 74.07798587 217.58252931 72.26434517 217.5887661 C65.98824361 217.60962374 59.71216388 217.62392534 53.43603516 217.63330078 C46.96889138 217.64434862 40.50209323 217.67873113 34.03507137 217.71847248 C29.04974246 217.74468305 24.06449522 217.75299672 19.07910347 217.75658226 C16.69621008 217.76143875 14.3133201 217.7730258 11.93049431 217.79162025 C8.58489919 217.81609943 5.24018944 217.81502996 1.89453125 217.80810547 C0.43443382 217.82732056 0.43443382 217.82732056 -1.05516052 217.84692383 C-9.12314413 217.78645583 -16.3102277 215.85130197 -23.17163086 211.52563477 C-33.5024702 200.89094721 -33.74650574 188.37891593 -33.68481445 174.20336914 C-33.68888883 172.61517478 -33.69423553 171.02698325 -33.70074463 169.438797 C-33.7143212 165.15984085 -33.70915989 160.88110379 -33.69960737 156.60214424 C-33.69196031 152.10345029 -33.6990703 147.60477387 -33.70376587 143.1060791 C-33.70920882 135.55432807 -33.70207029 128.00266533 -33.68774414 120.45092773 C-33.67142045 111.74624158 -33.67670999 103.0417663 -33.69322336 94.33708525 C-33.70688 86.83521339 -33.70873754 79.33340466 -33.70090735 71.83152437 C-33.69625372 67.36333038 -33.69554185 62.89523519 -33.70551682 58.42704773 C-33.71424532 54.22437967 -33.70805834 50.02198092 -33.69083405 45.81934166 C-33.68690038 44.28599683 -33.68794904 42.75262895 -33.69462204 41.21929359 C-33.78478663 18.37813691 -33.78478663 18.37813691 -26.87475586 9.86547852 C-18.95313461 2.19876092 -10.69133834 0.04838057 0 0 Z M-14.47141361 22.015172 C-16.55939054 25.81651105 -16.79922965 28.0491982 -16.80456543 32.35925293 C-16.81080539 33.04209933 -16.81704535 33.72494573 -16.82347441 34.42848444 C-16.83935956 36.70406343 -16.82681889 38.97856451 -16.81420898 41.25415039 C-16.81963214 42.8906059 -16.82675588 44.52705652 -16.83544922 46.16349792 C-16.85366265 50.59947653 -16.8466233 55.03508243 -16.83393288 59.47106743 C-16.82379493 64.11674874 -16.83320076 68.76239847 -16.83947754 73.40808105 C-16.84675163 81.20920532 -16.83717251 89.01017804 -16.81811523 96.8112793 C-16.79634693 105.82615953 -16.80339847 114.84067787 -16.82542086 123.85554934 C-16.84358166 131.60010513 -16.84612986 139.34455208 -16.83566618 147.0891223 C-16.82943499 151.71261748 -16.82858532 156.33594266 -16.84181213 160.95942688 C-16.85337993 165.30652593 -16.84532812 169.6531591 -16.82223511 174.0002079 C-16.81695295 175.59411661 -16.81845339 177.18806463 -16.82728577 178.78195763 C-16.8382452 180.96083711 -16.82447553 183.13823133 -16.80456543 185.3170166 C-16.80305733 186.53520836 -16.80154922 187.75340012 -16.79999542 189.00850677 C-16.19117979 193.03566663 -14.84125751 195.18998585 -12.29663086 198.33813477 C-6.7095013 201.64511432 -1.71177197 201.76894247 4.67431641 201.72631836 C6.13905899 201.7342038 6.13905899 201.7342038 7.63339233 201.74224854 C10.84568503 201.75540055 14.05747807 201.74672796 17.26977539 201.73657227 C19.50984288 201.73859421 21.74990973 201.74150665 23.98997498 201.74526978 C28.6779509 201.7496865 33.36575502 201.74328231 38.05371094 201.72924805 C44.05827013 201.71214684 50.06242729 201.72200765 56.06697178 201.73996544 C60.69010948 201.75081234 65.31315206 201.7473529 69.93629265 201.73958206 C72.15024806 201.73758309 74.36421215 201.74002869 76.57815742 201.74702072 C79.67294284 201.75465101 82.76707924 201.74300882 85.86181641 201.72631836 C86.77367203 201.73239105 87.68552765 201.73846375 88.62501526 201.74472046 C93.73796536 201.69371241 97.27637958 201.18075083 101.70336914 198.33813477 C106.44660287 193.46670553 106.82965963 189.12105967 106.82362366 182.53581238 C106.82499832 181.37619995 106.82637299 180.21658752 106.82778931 179.02183533 C106.82419403 177.75876053 106.82059875 176.49568573 106.81689453 175.19433594 C106.8166123 173.84386192 106.8167711 172.49338775 106.81733704 171.14291382 C106.81762361 167.48422218 106.81174949 163.82556342 106.80476308 160.16687942 C106.79850625 156.34052812 106.7979239 152.51417605 106.79673767 148.68782043 C106.79363123 141.44541438 106.78542709 134.20302344 106.77538818 126.96062404 C106.76420573 118.71399235 106.75871122 110.46735994 106.75369275 102.22072256 C106.74324391 85.25985122 106.72565776 68.29899459 106.70336914 51.33813477 C104.95479614 51.31626099 104.95479614 51.31626099 103.17089844 51.29394531 C98.84880792 51.2360036 94.52724067 51.15877083 90.20556641 51.07568359 C88.334559 51.04241475 86.46345076 51.01438892 84.59228516 50.99169922 C81.90361531 50.95818888 79.21587116 50.90587611 76.52758789 50.84985352 C75.68999435 50.84346359 74.85240082 50.83707367 73.98942566 50.83049011 C68.14875677 50.68238137 68.14875677 50.68238137 65.98535156 49.01025391 C63.90335043 46.29465197 64.26021886 43.62377125 64.19165039 40.26391602 C64.17369919 39.58008347 64.15574799 38.89625092 64.13725281 38.19169617 C64.08314839 36.01140476 64.04925574 33.83133221 64.01586914 31.65063477 C63.98269594 30.1707866 63.94820627 28.69096731 63.91235352 27.21118164 C63.8274239 23.58704308 63.76061279 19.96282825 63.70336914 16.33813477 C54.82782115 16.26848236 45.95236793 16.2152464 37.0766058 16.18269825 C32.95478059 16.16707311 28.83314302 16.14589287 24.71142578 16.11181641 C20.73028798 16.0791099 16.74933015 16.06125806 12.76806831 16.05350304 C11.25268282 16.04797971 9.73730665 16.03719407 8.22199821 16.0209446 C6.09179631 15.99901934 3.96232866 15.996174 1.83203125 15.99755859 C0.62179794 15.99089676 -0.58843536 15.98423492 -1.83534241 15.97737122 C-7.23087136 16.539737 -10.99336399 17.73388535 -14.47141361 22.015172 Z M79.70336914 19.33813477 C79.70336914 24.61813477 79.70336914 29.89813477 79.70336914 35.33813477 C84.98336914 35.33813477 90.26336914 35.33813477 95.70336914 35.33813477 C91.01982787 29.69386708 86.08260454 24.33233016 80.70336914 19.33813477 C80.37336914 19.33813477 80.04336914 19.33813477 79.70336914 19.33813477 Z " fill="#000000" transform="translate(242.296630859375,42.661865234375)"/>
<path d="M0 0 C0.98613281 0.17208984 0.98613281 0.17208984 1.9921875 0.34765625 C2.65476562 0.43917969 3.31734375 0.53070313 4 0.625 C6.63104165 1.73135852 7.41443186 2.95092421 8.8671875 5.41015625 C9.24750423 8.54612732 9.24750423 8.54612732 9.25486755 12.31811523 C9.26025309 13.01291457 9.26563863 13.70771391 9.27118737 14.42356777 C9.28549299 16.75130877 9.27835713 19.07848318 9.27124023 21.40625 C9.27694242 23.07521014 9.28390608 24.74416638 9.29203796 26.41311646 C9.31000016 30.94611756 9.30879541 35.47892542 9.30309558 40.01195145 C9.30000853 43.79445895 9.3060907 47.57692908 9.31213433 51.35943127 C9.32618763 60.28099353 9.32461121 69.20246005 9.31323242 78.12402344 C9.30174654 87.33315672 9.3158329 96.54199894 9.3426289 105.75109386 C9.36476574 113.65437722 9.37142795 121.55756907 9.36555248 129.46088123 C9.36217733 134.18272178 9.3646351 138.90437566 9.38180351 143.62619019 C9.39723882 148.06516119 9.39335535 152.50369994 9.37449837 156.94265366 C9.37080316 158.57288402 9.37394801 160.20314617 9.38438416 161.83334732 C9.39753288 164.05679958 9.38610327 166.27880779 9.36839294 168.50219727 C9.36807902 170.36933128 9.36807902 170.36933128 9.36775875 172.27418518 C8.77277685 176.00161863 7.88106824 177.19896397 4.8671875 179.41015625 C1.6328125 179.80078125 1.6328125 179.80078125 -1.8828125 179.66015625 C-3.05328125 179.6240625 -4.22375 179.58796875 -5.4296875 179.55078125 C-6.32171875 179.504375 -7.21375 179.45796875 -8.1328125 179.41015625 C-8.12393005 180.48899582 -8.11504761 181.56783539 -8.105896 182.67936707 C-8.02480784 192.84660646 -7.96484594 203.01378025 -7.92556381 213.18126965 C-7.90468949 218.40849981 -7.87637442 223.63546891 -7.83105469 228.86254883 C-7.78759179 233.90703713 -7.76367423 238.95127434 -7.75330353 243.99593544 C-7.74591298 245.92048406 -7.73148096 247.84501895 -7.70989227 249.76946068 C-7.68085236 252.46534288 -7.67685673 255.16018772 -7.67871094 257.85620117 C-7.66432983 258.65173904 -7.64994873 259.44727692 -7.63513184 260.266922 C-7.66284578 263.99109793 -7.99562549 266.18913538 -9.9776001 269.38227844 C-12.7440894 271.98531759 -14.35107143 272.41015625 -18.1328125 272.41015625 C-21.189203 271.15981468 -22.68669473 270.2394886 -24.25924683 267.31611633 C-25.39548778 263.53635373 -25.39603163 259.94726789 -25.35986328 256.03979492 C-25.36015533 255.21001129 -25.36044739 254.38022766 -25.36074829 253.52529907 C-25.35935911 250.79279996 -25.34381733 248.06057626 -25.328125 245.328125 C-25.32439341 243.42955169 -25.32154712 241.53097644 -25.31954956 239.63240051 C-25.31192464 234.64290013 -25.29228592 229.65351675 -25.2701416 224.6640625 C-25.24605534 218.67349922 -25.23689676 212.68289676 -25.22523499 206.69229889 C-25.2058609 197.59817004 -25.16753033 188.50429777 -25.1328125 179.41015625 C-43.2828125 179.41015625 -61.4328125 179.41015625 -80.1328125 179.41015625 C-80.08640625 185.71625 -80.04 192.02234375 -79.9921875 198.51953125 C-79.9717522 202.51173519 -79.95249667 206.50387474 -79.9375 210.49609375 C-79.91357745 216.83444592 -79.88526051 223.17256724 -79.83105469 229.51074219 C-79.78763122 234.6200641 -79.76368257 239.72913849 -79.75330353 244.83863068 C-79.74590589 246.78912504 -79.73146017 248.73960567 -79.70989227 250.68999481 C-79.68090478 253.41960553 -79.67685454 256.14819012 -79.67871094 258.87792969 C-79.65713928 260.09065552 -79.65713928 260.09065552 -79.63513184 261.32788086 C-79.66146238 264.89986507 -79.81180368 266.97954243 -81.9776001 269.88482666 C-84.79279659 271.87725325 -86.68669389 272.3398273 -90.1328125 272.41015625 C-94.69802989 270.27972147 -94.69802989 270.27972147 -96.1328125 267.41015625 C-96.22605229 264.633359 -96.25857752 261.88183393 -96.24633789 259.10498047 C-96.24648392 258.24637421 -96.24662994 257.38776794 -96.2467804 256.50314331 C-96.24608213 253.65701801 -96.23829375 250.81095766 -96.23046875 247.96484375 C-96.22860426 245.99472082 -96.22718051 244.02459743 -96.22618103 242.05447388 C-96.22235826 236.86275966 -96.21253001 231.67107331 -96.20147705 226.47937012 C-96.19125778 221.18416725 -96.1866823 215.88895988 -96.18164062 210.59375 C-96.17090754 200.19920649 -96.15383398 189.80468369 -96.1328125 179.41015625 C-98.01226562 179.49716797 -98.01226562 179.49716797 -99.9296875 179.5859375 C-101.5806919 179.63284103 -103.23173661 179.67834056 -104.8828125 179.72265625 C-106.1203125 179.78549805 -106.1203125 179.78549805 -107.3828125 179.84960938 C-113.49910221 179.97292167 -113.49910221 179.97292167 -116.71484375 177.1171875 C-118.64316986 173.43583765 -118.23034135 171.3612601 -117.1328125 167.41015625 C-115.55395284 165.35077409 -114.44138827 164.56444414 -112.1328125 163.41015625 C-110.72632787 163.31838941 -109.31557155 163.28821978 -107.90609741 163.28990173 C-107.01986191 163.28852707 -106.1336264 163.2871524 -105.22053528 163.28573608 C-104.24589828 163.28933136 -103.27126129 163.29292664 -102.26708984 163.29663086 C-100.7304644 163.29641182 -100.7304644 163.29641182 -99.16279602 163.29618835 C-95.7647594 163.29688699 -92.36677708 163.30467714 -88.96875 163.3125 C-86.61748281 163.31436435 -84.26621523 163.31578817 -81.91494751 163.31678772 C-75.71711155 163.32061154 -69.5192989 163.33044069 -63.32147217 163.3414917 C-57.00077632 163.35170872 -50.68007672 163.35628597 -44.359375 163.36132812 C-31.95051057 163.37206306 -19.54166347 163.38913787 -7.1328125 163.41015625 C-7.13742146 162.60047551 -7.14203043 161.79079477 -7.14677906 160.95657825 C-7.25717459 141.26021296 -7.33992834 121.56390095 -7.39187336 101.86729145 C-7.41766096 92.3421601 -7.45282208 82.81723518 -7.51000977 73.29223633 C-7.55982775 64.99075804 -7.59209947 56.68942925 -7.60325497 48.38780564 C-7.60977649 43.99160297 -7.62511515 39.595828 -7.66146278 35.19976234 C-7.69539711 31.06205647 -7.7058708 26.92495454 -7.69835091 22.78712273 C-7.69972662 21.26854801 -7.70967495 19.74995312 -7.72883987 18.23149872 C-7.75374084 16.15683145 -7.74773224 14.08444038 -7.73408508 12.00971985 C-7.73869405 10.84918248 -7.74330301 9.68864511 -7.74805164 8.49293995 C-6.89539354 4.22051918 -4.46416465 0.8584932 0 0 Z " fill="#000000" transform="translate(472.1328125,186.58984375)"/>
<path d="M0 0 C2.3646881 2.29445597 2.95898319 3.6711335 3.36914349 6.95973587 C3.36499542 8.70192461 3.36499542 8.70192461 3.36076355 10.47930908 C3.36332682 11.12792805 3.3658901 11.77654703 3.36853105 12.44482112 C3.37346873 14.61613702 3.35697723 16.78675608 3.34057617 18.95800781 C3.33972989 20.5152281 3.34020506 22.07244959 3.34190369 23.62966919 C3.34276503 27.856675 3.32511679 32.08342584 3.30418181 36.31037235 C3.28543822 40.72795891 3.2836664 45.1455512 3.28010559 49.56317139 C3.27077831 57.92834608 3.24615528 66.29340326 3.21605712 74.65852618 C3.18253437 84.18200038 3.16603245 93.70548016 3.15097082 103.22899866 C3.11960633 122.81939805 3.06683254 142.40969162 3 162 C4.30656555 161.99555878 5.6131311 161.99111755 6.95928955 161.98654175 C19.26073079 161.9460326 31.56215852 161.91603335 43.86365128 161.89637566 C50.1882632 161.88592979 56.51282136 161.87175586 62.83740234 161.84912109 C68.93873372 161.82742148 75.04001333 161.81543742 81.14138031 161.81024551 C83.47143113 161.80654459 85.80147905 161.79931779 88.13150787 161.78853989 C91.39014351 161.7740634 94.64856404 161.77202046 97.90722656 161.77294922 C99.35839622 161.76216339 99.35839622 161.76216339 100.83888245 161.75115967 C102.1723597 161.75528366 102.1723597 161.75528366 103.53277588 161.75949097 C104.30339481 161.75764738 105.07401375 161.75580379 105.86798477 161.75390434 C108.31099639 162.0358979 109.90347073 162.73191966 112 164 C114.09679403 166.69587803 113.99510821 168.092944 113.8125 171.5625 C112.99306757 175.0293295 112.720691 175.9305073 110 178 C108.00708008 178.34057617 108.00708008 178.34057617 105.76953125 178.29296875 C104.96708984 178.28330078 104.16464844 178.27363281 103.33789062 178.26367188 C102.50451172 178.23853516 101.67113281 178.21339844 100.8125 178.1875 C99.96751953 178.17396484 99.12253906 178.16042969 98.25195312 178.14648438 C96.16769616 178.11115799 94.08376723 178.05735139 92 178 C92.00999275 179.64038239 92.00999275 179.64038239 92.02018738 181.31390381 C92.08097093 191.61392745 92.12595941 201.91391477 92.15543652 212.214077 C92.17110039 217.50965595 92.19235195 222.80509024 92.22631836 228.10058594 C92.25888589 233.20989659 92.27684758 238.319068 92.28463173 243.42847443 C92.29017991 245.37895144 92.30101401 247.32942074 92.31719017 249.27983856 C92.33892975 252.00931845 92.34196838 254.73822107 92.34057617 257.46777344 C92.351362 258.27625732 92.36214783 259.08474121 92.3732605 259.91772461 C92.35528969 263.16826862 92.22542753 265.57426681 90.68965149 268.47467041 C87.97094079 270.9289812 85.58151346 270.93824977 82 271 C79.05244268 269.65437601 77.45722728 268.91445456 76 266 C75.90676021 263.22320275 75.87423498 260.47167768 75.88647461 257.69482422 C75.88632858 256.83621796 75.88618256 255.97761169 75.8860321 255.09298706 C75.88673037 252.24686176 75.89451875 249.40080141 75.90234375 246.5546875 C75.90420824 244.58456457 75.90563199 242.61444118 75.90663147 240.64431763 C75.91045424 235.45260341 75.92028249 230.26091706 75.93133545 225.06921387 C75.94335067 218.84342525 75.94795296 212.61762733 75.95378876 206.39183044 C75.96349436 196.92786757 75.98265261 187.46396586 76 178 C57.85 178 39.7 178 21 178 C21.02320313 184.07792969 21.04640625 190.15585937 21.0703125 196.41796875 C21.08053178 200.26888448 21.09015975 204.11978349 21.09765625 207.97070312 C21.10961092 214.082799 21.12375226 220.19483494 21.15087891 226.30688477 C21.1726125 231.23464426 21.18456976 236.16233948 21.18975449 241.0901432 C21.1934493 242.97000452 21.20066432 244.84986233 21.21146011 246.72969627 C21.22598182 249.3630877 21.22797765 251.99621364 21.22705078 254.62963867 C21.23424133 255.40647507 21.24143188 256.18331146 21.24884033 256.98368835 C21.23321498 261.08748935 20.95995449 264.35644721 19 268 C16.15744489 270.36879593 14.65156631 271 10.9375 271 C7.12452482 269.70196589 6.12037273 268.41611514 4 265 C3.63276234 262.01935683 3.4921505 259.41928849 3.54589844 256.44604492 C3.54531433 255.59675415 3.54473022 254.74746338 3.54412842 253.87243652 C3.54690764 251.07469327 3.57799158 248.2780251 3.609375 245.48046875 C3.61683797 243.53705935 3.62253064 241.5936424 3.62652588 239.65022278 C3.64177774 234.54219686 3.68105585 229.43462794 3.7253418 224.32678223 C3.76630407 219.11179791 3.78453895 213.89673955 3.8046875 208.68164062 C3.8475504 198.45422661 3.91579645 188.22715135 4 178 C3.10796875 178.04640625 2.2159375 178.0928125 1.296875 178.140625 C0.12640625 178.17671875 -1.0440625 178.2128125 -2.25 178.25 C-3.41015625 178.29640625 -4.5703125 178.3428125 -5.765625 178.390625 C-9 178 -9 178 -11.1708231 176.40733337 C-13.63054584 173.17015459 -13.50052527 171.13749651 -13.50120544 167.09204102 C-13.50673984 166.39724168 -13.51227424 165.70244234 -13.51797634 164.98658848 C-13.53158866 162.65866375 -13.51661166 160.33181015 -13.50170898 158.00390625 C-13.50549198 156.33494613 -13.51099185 154.66598914 -13.51808167 152.99703979 C-13.53205624 148.46396157 -13.52085254 143.93126204 -13.50437045 139.3982048 C-13.49053157 134.65682418 -13.4969787 129.91546579 -13.50050354 125.17407227 C-13.50320658 117.21136361 -13.48972197 109.24880562 -13.46655273 101.28613281 C-13.4399424 92.07703378 -13.43819554 82.86818668 -13.4499411 73.65906239 C-13.4607162 64.80424078 -13.45453392 55.9495104 -13.44038582 47.09469604 C-13.43462368 43.32443081 -13.43471048 39.55423229 -13.43945122 35.78396606 C-13.44421969 31.34503531 -13.43412479 26.90638079 -13.41249657 22.46750259 C-13.40692674 20.83728085 -13.4064652 19.20703257 -13.41144943 17.57680893 C-13.41739489 15.35355127 -13.40491241 13.13114031 -13.38768005 10.90795898 C-13.38525016 9.66320297 -13.38282026 8.41844696 -13.38031673 7.13597107 C-12.96975916 3.75064361 -12.41408082 2.3668848 -10 0 C-6.20519658 -1.26493447 -3.87641726 -0.89988258 0 0 Z " fill="#000000" transform="translate(44,188)"/>
<path d="M0 0 C8.10139106 7.81506331 12.39984286 17.88509226 12.71875 29.11328125 C12.19163203 40.3277161 8.67634588 49.82035519 0.625 57.8125 C-9.00599417 65.14773393 -18.71948843 68.79564274 -30.8828125 67.4140625 C-38.5722316 66.00239809 -44.39622967 63.87237748 -50.375 58.8125 C-51.01050781 58.2865625 -51.64601563 57.760625 -52.30078125 57.21875 C-58.9969943 51.13910475 -63.03666718 43.09825698 -63.61328125 34.08984375 C-63.90747735 22.60691929 -62.71136404 12.89377346 -55.203125 3.66015625 C-40.17314919 -11.53039622 -16.9072157 -13.59648715 0 0 Z M-42.75 15.1875 C-46.67444402 20.22102602 -47.86427937 25.1319444 -47.68359375 31.4453125 C-46.77910975 38.38350625 -43.60397151 43.26408005 -38.25390625 47.62109375 C-32.51876758 51.25772014 -26.99878719 51.54744268 -20.375 50.8125 C-14.19845906 49.04626312 -9.85225944 45.13912991 -6.375 39.8125 C-3.60490163 34.00667738 -3.25429492 27.73161238 -5.02734375 21.53125 C-7.65147449 15.67482088 -11.98790989 11.4285626 -17.765625 8.671875 C-27.25795979 5.54565695 -36.09313684 7.95317401 -42.75 15.1875 Z " fill="#000000" transform="translate(446.375,93.1875)"/>
<path d="M0 0 C8.68196496 8.25845448 12.53278861 18.09992858 13.1875 29.87109375 C13.02467312 38.67392183 10.429576 46.26238572 5.125 53.25 C4.52300781 54.07242188 3.92101562 54.89484375 3.30078125 55.7421875 C0.97843052 58.41893646 -1.24951169 60.06744776 -4.25 61.9375 C-5.16523438 62.51886719 -6.08046875 63.10023438 -7.0234375 63.69921875 C-16.67754814 68.94946796 -27.45005142 69.26097934 -37.875 66.25 C-47.6854991 62.72412138 -55.09852661 56.21672338 -59.875 46.9375 C-64.24360283 37.51770014 -64.56333332 25.22991663 -61.4375 15.3125 C-57.00070101 5.03287418 -47.97026217 -2.70917336 -37.8125 -7.0625 C-24.5073793 -10.17646442 -11.03502796 -8.72593621 0 0 Z M-42.25 15.625 C-46.17444402 20.65852602 -47.36427937 25.5694444 -47.18359375 31.8828125 C-46.27910975 38.82100625 -43.10397151 43.70158005 -37.75390625 48.05859375 C-32.01876758 51.69522014 -26.49878719 51.98494268 -19.875 51.25 C-13.69845906 49.48376312 -9.35225944 45.57662991 -5.875 40.25 C-3.10490163 34.44417738 -2.75429492 28.16911238 -4.52734375 21.96875 C-7.15147449 16.11232088 -11.48790989 11.8660626 -17.265625 9.109375 C-26.75795979 5.98315695 -35.59313684 8.39067401 -42.25 15.625 Z " fill="#000000" transform="translate(155.875,103.75)"/>
<path d="M0 0 C0.89489136 -0.00287018 1.78978271 -0.00574036 2.71179199 -0.00869751 C4.60132481 -0.0107364 6.49087881 -0.00521879 8.38037109 0.00732422 C11.27098835 0.0233805 14.16020743 0.00746974 17.05078125 -0.01171875 C18.88802392 -0.00973629 20.72526571 -0.00589255 22.5625 0 C23.85794739 -0.00910904 23.85794739 -0.00910904 25.17956543 -0.0184021 C31.1582925 0.0516017 31.1582925 0.0516017 34.31054688 1.80664062 C36.03492588 3.67300037 36.46888899 4.76478816 36.78125 7.2734375 C36.9359375 8.25957031 36.9359375 8.25957031 37.09375 9.265625 C36.59143536 12.69392239 35.31076032 14.04100272 32.78125 16.3984375 C29.56971982 17.15859578 26.41303529 17.09917564 23.125 17.0625 C22.18571655 17.06728363 21.24643311 17.07206726 20.27868652 17.07699585 C18.2949862 17.08039471 16.31122985 17.0711932 14.32763672 17.05029297 C11.29137268 17.02352674 8.25880532 17.0500407 5.22265625 17.08203125 C3.29426267 17.07872715 1.3658714 17.07232091 -0.5625 17.0625 C-1.92356873 17.07768173 -1.92356873 17.07768173 -3.31213379 17.09317017 C-9.59872457 16.97628433 -9.59872457 16.97628433 -12.80273438 13.99023438 C-14.25723081 11.32800435 -14.68111401 10.22100807 -14.21875 7.2734375 C-14.13625 6.61085938 -14.05375 5.94828125 -13.96875 5.265625 C-11.5292623 -0.80768291 -5.53432847 -0.03891506 0 0 Z " fill="#000000" transform="translate(297.21875,117.6015625)"/>
<path d="M0 0 C0.93928345 -0.00478363 1.87856689 -0.00956726 2.84631348 -0.01449585 C4.8300138 -0.01789471 6.81377015 -0.0086932 8.79736328 0.01220703 C11.83362732 0.03897326 14.86619468 0.0124593 17.90234375 -0.01953125 C19.83073733 -0.01622715 21.7591286 -0.00982091 23.6875 0 C24.59487915 -0.01012115 25.5022583 -0.02024231 26.43713379 -0.03067017 C32.72426252 0.08622567 32.72426252 0.08622567 35.92553711 3.07226562 C37.37170677 5.71515376 37.82648631 6.85316498 37.40625 9.7890625 C37.33535156 10.45164063 37.26445312 11.11421875 37.19140625 11.796875 C35.87486265 14.69691113 34.21320028 15.31702993 31.34375 16.6640625 C28.39316507 17.09588511 25.47797555 17.08478271 22.5 17.0625 C21.65328735 17.06537018 20.80657471 17.06824036 19.9342041 17.07119751 C18.14900033 17.07323354 16.36377402 17.067736 14.57861328 17.05517578 C11.85268062 17.03911512 9.12823053 17.05503968 6.40234375 17.07421875 C4.66405924 17.07223624 2.92577565 17.06839239 1.1875 17.0625 C0.37591431 17.06857269 -0.43567139 17.07464539 -1.27185059 17.0809021 C-5.87708989 17.02392218 -8.91153359 16.64411266 -12.65625 13.6640625 C-13.50390625 11.796875 -13.50390625 11.796875 -13.71875 9.7890625 C-13.81285156 9.13164062 -13.90695312 8.47421875 -14.00390625 7.796875 C-12.69797147 -0.21481477 -6.60969226 -0.07372631 0 0 Z " fill="#000000" transform="translate(296.65625,158.3359375)"/>
<path d="M0 0 C3.5 0.8125 3.5 0.8125 5.375 1.9375 C7.1265922 4.85682033 7.76721846 7.45460829 7.5 10.8125 C5.99705574 14.47947483 3.94027315 17.72825754 1.8125 21.0625 C0.99749023 22.40828125 0.99749023 22.40828125 0.16601562 23.78125 C-5.61481721 33.12005613 -5.61481721 33.12005613 -11.625 34.5625 C-17.73412626 33.38008847 -21.22843126 29.13873232 -25.5 24.8125 C-26.16 24.1525 -26.82 23.4925 -27.5 22.8125 C-27.80078125 20.75390625 -27.80078125 20.75390625 -27.8125 18.375 C-27.82925781 17.59253906 -27.84601563 16.81007813 -27.86328125 16.00390625 C-27.4128251 13.28663851 -26.68795753 12.44462537 -24.5 10.8125 C-20.11748201 9.83860711 -16.83650632 9.82896248 -12.5 10.8125 C-12.10167969 10.18601562 -11.70335937 9.55953125 -11.29296875 8.9140625 C-10.76316406 8.09679687 -10.23335938 7.27953125 -9.6875 6.4375 C-9.16542969 5.62539062 -8.64335937 4.81328125 -8.10546875 3.9765625 C-5.59451383 0.59196633 -4.24305193 -0.22730635 0 0 Z " fill="#000000" transform="translate(267.5,109.1875)"/>
<path d="M0 0 C0.87411026 -0.00524185 1.74822052 -0.0104837 2.64881897 -0.0158844 C4.49723244 -0.02230683 6.34568677 -0.02096473 8.1940918 -0.01245117 C11.02141209 -0.00394759 13.84670786 -0.03268773 16.67382812 -0.06445312 C18.47005148 -0.0660654 20.26627841 -0.0654871 22.0625 -0.0625 C23.3298423 -0.07935097 23.3298423 -0.07935097 24.62278748 -0.09654236 C30.48645788 -0.02698788 30.48645788 -0.02698788 33.62695312 2.33959961 C35.20853324 4.59146093 35.66547972 5.7079779 35.66015625 8.43359375 C35.68207031 9.09359375 35.70398438 9.75359375 35.7265625 10.43359375 C34.71529379 13.64955387 32.90745364 14.64349571 30.09765625 16.43359375 C27.15126469 16.80057874 24.59328242 16.94927774 21.65625 16.89453125 C20.85155777 16.89361481 20.04686554 16.89269836 19.2177887 16.89175415 C17.52249221 16.88573069 15.82720575 16.87002235 14.13208008 16.84521484 C11.54012781 16.80866386 8.94960524 16.80419604 6.35742188 16.8046875 C4.70701892 16.79485694 3.05662563 16.7832002 1.40625 16.76953125 C0.63325058 16.7673056 -0.13974884 16.76507996 -0.93617249 16.76278687 C-4.7103054 16.69630197 -7.74162228 16.62698928 -10.90234375 14.43359375 C-12.99913778 11.73771572 -12.89745196 10.34064975 -12.71484375 6.87109375 C-10.9908405 -0.42276615 -6.70372044 -0.02323681 0 0 Z " fill="#000000" transform="translate(295.90234375,196.56640625)"/>
<path d="M0 0 C3 2 3 2 5 5 C4.97618227 12.2564673 2.10238138 16.92179195 -1.8125 22.875 C-2.34681641 23.72835937 -2.88113281 24.58171875 -3.43164062 25.4609375 C-7.96016521 32.50159565 -7.96016521 32.50159565 -12 34 C-15.60376008 34.06799547 -18.00181356 33.79771385 -20.8671875 31.5078125 C-22.64871055 29.72628945 -24.32779356 27.88382562 -26 26 C-26.78375 25.278125 -27.5675 24.55625 -28.375 23.8125 C-30.26121829 21.70864114 -30.91907326 20.83243577 -31 18 C-28.6185567 11.30927835 -28.6185567 11.30927835 -26 10 C-21.76028942 9.76446052 -18.63821698 9.67154114 -15 12 C-14.7525 11.29875 -14.505 10.5975 -14.25 9.875 C-10.95567948 2.2980628 -8.46704315 -0.86105524 0 0 Z " fill="#000000" transform="translate(270,188)"/>
<path d="M0 0 C3 2 3 2 5 5 C4.97618227 12.2564673 2.10238138 16.92179195 -1.8125 22.875 C-2.34681641 23.72835937 -2.88113281 24.58171875 -3.43164062 25.4609375 C-7.96016521 32.50159565 -7.96016521 32.50159565 -12 34 C-15.60376008 34.06799547 -18.00181356 33.79771385 -20.8671875 31.5078125 C-22.64816616 29.72683384 -24.31783274 27.87370116 -26 26 C-26.804375 25.360625 -27.60875 24.72125 -28.4375 24.0625 C-30.51946034 21.31431235 -30.57485959 19.2943465 -30.37890625 15.90625 C-30 14 -30 14 -28.4375 11.5 C-25.09971339 9.44597747 -22.85600245 9.58685688 -19 10 C-16.5625 11 -16.5625 11 -15 12 C-14.7525 11.29875 -14.505 10.5975 -14.25 9.875 C-10.95567948 2.2980628 -8.46704315 -0.86105524 0 0 Z " fill="#000000" transform="translate(270,150)"/>
</svg>
