<?xml version="1.0" encoding="UTF-8"?>
<svg version="1.1" xmlns="http://www.w3.org/2000/svg" width="512" height="512">
<path d="M0 0 C1.88280437 -0.00668677 1.88280437 -0.00668677 3.80364519 -0.01350862 C5.19918733 -0.01341932 6.59472946 -0.01322947 7.99027157 -0.01294994 C9.47081328 -0.0162495 10.9513541 -0.01997526 12.43189377 -0.02409142 C16.50618755 -0.03410923 20.58046661 -0.03782787 24.65477097 -0.04048073 C29.04691483 -0.04438446 33.43904702 -0.05396279 37.83118343 -0.0626936 C48.44145018 -0.08245658 59.05171787 -0.09252423 69.66199842 -0.10142139 C74.65899604 -0.10580476 79.6559926 -0.11117146 84.65298939 -0.11641026 C101.26511986 -0.13342274 117.87724967 -0.14791665 134.48938751 -0.155159 C138.80038676 -0.15706888 143.11138599 -0.15898922 147.42238522 -0.16094494 C148.49385911 -0.16142868 149.56533301 -0.16191242 150.66927581 -0.16241082 C168.02424685 -0.17071011 185.37914893 -0.19604524 202.73408986 -0.22852562 C220.55343654 -0.26160314 238.37274819 -0.27960841 256.19212574 -0.28280324 C266.19645394 -0.28496774 276.20068162 -0.29370768 286.2049799 -0.31926441 C294.72566813 -0.34098089 303.24623141 -0.34901717 311.76694418 -0.33929763 C316.11262923 -0.33475562 320.45805653 -0.33663332 324.80370617 -0.35605907 C328.78699595 -0.37371083 332.76984032 -0.37267694 336.75313496 -0.35716178 C338.18927702 -0.35478874 339.62545009 -0.35909348 341.06154484 -0.37099043 C354.84875097 -0.47807382 365.77191903 2.7262384 376.07643795 12.09906483 C382.23112412 18.46082455 386.25981589 26.40019713 387.9162817 35.13422108 C387.71112728 37.33987904 387.71112728 37.33987904 387.26467037 39.78021717 C384.29203263 57.92412111 381.30036156 80.05012765 392.61680794 95.89532185 C404.15582103 110.86468182 418.95807628 123.69626557 433.46320248 135.71971607 C448.46689587 148.25362704 459.88948143 164.31776241 466.7912817 182.63422108 C467.06552975 183.35633778 467.33977779 184.07845448 467.62233639 184.8224535 C473.40548175 201.13918506 473.36066685 217.13642457 473.32311475 234.26400912 C473.31834157 237.93872529 473.33092842 241.6133912 473.34113216 245.28809071 C473.35823819 252.4643305 473.35917827 259.64048244 473.35391926 266.81673732 C473.34986516 272.64730379 473.35133573 278.47784444 473.35666752 284.30840969 C473.35741594 285.14060618 473.35816436 285.97280268 473.35893546 286.83021725 C473.36046701 288.52106832 473.36200536 290.21191938 473.36355043 291.90277044 C473.3772428 307.71722375 473.37185816 323.53162742 473.36036522 339.34607957 C473.35041033 353.81779218 473.36341812 368.28937736 473.38729941 382.76107033 C473.41166261 397.63706106 473.42130674 412.51299234 473.41464669 427.38900262 C473.4111516 435.73464187 473.41340695 444.08018284 473.43089771 452.425807 C473.44558382 459.52060194 473.44630108 466.61522915 473.4288268 473.71002068 C473.42028948 477.32987692 473.41823388 480.94943303 473.43347836 484.56927395 C473.44978096 488.48867658 473.43523824 492.40761129 473.41748714 496.32701588 C473.42709215 497.47630815 473.43669716 498.62560043 473.44659323 499.80971974 C473.43677893 500.85693552 473.42696464 501.9041513 473.41685295 502.98310089 C473.41674561 503.88781748 473.41663828 504.79253406 473.41652769 505.7246663 C472.75201256 508.92546278 471.44686455 510.12816868 468.9162817 512.13422108 C465.90804291 512.64037895 465.90804291 512.64037895 462.31876278 512.64888477 C461.65733743 512.6558303 460.99591207 512.66277583 460.31444353 512.66993183 C458.09942944 512.68821968 455.88548428 512.6779336 453.67043209 512.66766834 C452.0819077 512.674726 450.49339003 512.68347037 448.90488338 512.69377613 C444.59076255 512.71629789 440.27700809 512.71332391 435.96285081 512.70445466 C432.36185537 512.69934808 428.76092899 512.70663468 425.15994066 512.71392673 C416.66500414 512.73093474 408.1702472 512.72735104 399.6753149 512.71063709 C390.91033232 512.69371485 382.14584771 512.70954952 373.38091952 512.74185997 C365.85636936 512.76854754 358.3319743 512.77583414 350.80738157 512.76734489 C346.31294546 512.7624132 341.818809 512.7646442 337.32441044 512.78513241 C333.09791531 512.80347656 328.87213694 512.79754691 324.64568043 512.77293301 C323.0948882 512.76792099 321.54404149 512.77142513 319.99329281 512.78408146 C317.87496497 512.80000181 315.75900049 512.7850765 313.64078426 512.76241016 C311.86352506 512.7615307 311.86352506 512.7615307 310.05036163 512.76063347 C305.95751783 511.94259177 304.46187888 510.38104625 301.9162817 507.13422108 C301.45886977 504.152036 301.30261015 501.75627008 301.383811 498.78656483 C301.38617764 497.95815586 301.38854427 497.12974689 301.39098263 496.27623463 C301.39883852 494.48103461 301.41791661 492.6858562 301.44695759 490.89087391 C301.49101457 488.03843451 301.50123434 485.18766481 301.50217342 482.33490467 C301.51093201 474.22635717 301.58036489 466.11868076 301.67238522 458.01068592 C301.72639921 453.04444818 301.74088173 448.07927136 301.73278904 443.11276722 C301.73787419 441.23104954 301.75810079 439.34930342 301.79449177 437.46793079 C302.03775764 424.81374681 300.67254304 417.30391085 292.9162817 407.13422108 C279.33480732 383.56852281 275.0792653 355.10305687 279.1662817 328.38422108 C279.27544918 327.66524647 279.38461666 326.94627186 279.49709225 326.20551014 C280.72184694 319.03206165 282.84616252 312.10006028 284.9162817 305.13422108 C283.97503696 305.49768383 283.97503696 305.49768383 283.01477718 305.86848927 C229.28722042 326.6149711 229.28722042 326.6149711 206.16600704 335.4988451 C194.74759016 339.88651358 183.33433304 344.28742396 171.92374325 348.69540882 C165.8182938 351.05394058 159.71245135 353.41144066 153.60549068 355.76605701 C151.80024677 356.46210545 151.80024677 356.46210545 149.95853329 357.17221546 C147.53328827 358.10729893 145.10802584 359.04233723 142.68274593 359.97733021 C135.62579759 362.69919354 128.57277283 365.43090958 121.52312374 368.17162037 C117.19594221 369.85250958 112.86631571 371.52703382 108.53615475 373.2002306 C106.52200684 373.98022437 104.50895437 374.76305367 102.49709225 375.54892445 C99.72428158 376.63169095 96.94775591 377.70435361 94.17018795 378.77484608 C93.37480114 379.08836521 92.57941433 379.40188435 91.75992489 379.72490406 C77.77119122 385.07484038 64.7033627 385.64856046 50.7912817 379.50922108 C37.6561084 372.28487576 31.42688225 360.40628661 26.3772192 346.87250233 C25.97369228 345.81495243 25.57016537 344.75740253 25.15441036 343.66780567 C23.85781805 340.26407564 22.57440611 336.85554812 21.2912817 333.44672108 C20.40192622 331.10407733 19.51162222 328.76179346 18.62038326 326.41986561 C16.8603079 321.79327846 15.10432745 317.16516859 13.35085201 312.53607655 C11.24106064 306.97598956 9.10235376 301.42785334 6.9397192 295.88812733 C6.65136196 295.1488953 6.36300472 294.40966328 6.06590939 293.64803028 C5.01367988 290.95270927 3.9604085 288.25781454 2.90230465 285.56479359 C2.21139629 283.80520185 1.52463584 282.04398303 0.8381567 280.28265858 C0.46271725 279.32536854 0.08727779 278.3680785 -0.29953861 277.38177967 C-1.0837183 275.13422108 -1.0837183 275.13422108 -1.0837183 273.13422108 C-2.2180933 273.05172108 -3.3524683 272.96922108 -4.5212183 272.88422108 C-15.63224868 271.45370041 -24.52326048 264.59789966 -31.54856205 256.21234608 C-37.0546793 248.75877259 -39.38775731 240.85420438 -39.35114384 231.62819386 C-39.35567495 230.78553319 -39.36020606 229.94287253 -39.36487448 229.07467669 C-39.37750863 226.25828702 -39.37589873 223.44209098 -39.37424564 220.62567616 C-39.3802316 218.60325338 -39.3870373 216.5808329 -39.39460087 214.55841541 C-39.4122635 209.06852556 -39.41695643 203.57869807 -39.41823244 198.08878255 C-39.41965471 194.65638377 -39.4239258 191.2240008 -39.42922688 187.79160595 C-39.44772964 175.80969074 -39.45589738 163.82782002 -39.45432377 151.845891 C-39.45312305 140.68965255 -39.47421124 129.53360779 -39.5058111 118.37741834 C-39.53199656 108.78993441 -39.54269007 99.20251363 -39.54141295 89.61499423 C-39.54090389 83.89306561 -39.54655609 78.17130905 -39.56776905 72.44941616 C-39.58718897 67.06408435 -39.58725009 61.67908801 -39.57273579 56.29374409 C-39.5706511 54.32297174 -39.57532818 52.3521782 -39.5874567 50.38144207 C-39.66841588 36.30915681 -38.75379438 25.13890814 -29.0837183 14.13422108 C-28.58227299 13.5283617 -28.08082767 12.92250233 -27.56418705 12.29828358 C-20.46158288 4.38345947 -10.53132968 0.0173426 0 0 Z M-14.8962183 25.44672108 C-15.43891361 25.97910389 -15.98160892 26.5114867 -16.54074955 27.06000233 C-20.6499097 32.58396192 -21.52508127 37.79807703 -21.47139835 44.55290699 C-21.47678389 45.37403746 -21.48216943 46.19516793 -21.48771816 47.04118115 C-21.50196743 49.77864801 -21.49490158 52.51562924 -21.48777103 55.25311756 C-21.49347618 57.22144426 -21.50044099 59.18976764 -21.50856876 61.15808582 C-21.52649904 66.4948629 -21.52533203 71.83147554 -21.51962638 77.16827369 C-21.51653443 81.62656177 -21.52262704 86.08481826 -21.52866513 90.54310185 C-21.54270824 101.06186431 -21.54115074 111.58054556 -21.52976322 122.09930897 C-21.5182812 132.94492399 -21.53235967 143.79029176 -21.5591597 154.63587421 C-21.58132207 163.95412767 -21.58795288 173.27230354 -21.58208328 182.59058148 C-21.57871394 188.15310021 -21.58112751 193.71546043 -21.59833431 199.27795696 C-21.6138099 204.50900587 -21.60984088 209.73968867 -21.59102917 214.97072315 C-21.58734506 216.8879238 -21.59044654 218.80515162 -21.60091496 220.72232723 C-21.61413886 223.34482232 -21.60256543 225.96610783 -21.58492374 228.58855152 C-21.59452875 229.34255456 -21.60413376 230.0965576 -21.61402982 230.87340921 C-21.51692895 237.91557722 -18.8309234 243.98362132 -13.7712183 248.94672108 C-6.03643489 256.20221236 3.23735805 256.2846024 13.31859493 256.25447559 C14.36502733 256.25533002 15.41145973 256.25618444 16.48960221 256.25706476 C19.99496463 256.25871149 23.50027916 256.25321135 27.00563717 256.24774647 C29.51880549 256.2474644 32.0319739 256.24762272 34.54514217 256.24818897 C39.95530843 256.24841667 45.36545928 256.24558075 50.77562237 256.23995113 C58.59776498 256.23181701 66.41990177 256.22921895 74.24204816 256.22796314 C86.93359286 256.22577563 99.62513112 256.2191237 112.31667233 256.20966053 C124.64382044 256.20047864 136.9709668 256.1934016 149.29811764 256.18915272 C150.43827893 256.18875863 150.43827893 256.18875863 151.60147379 256.18835659 C155.41478815 256.18705153 159.22810251 256.18578783 163.04141688 256.18454468 C194.66637654 256.17418144 226.29132812 256.15649685 257.9162817 256.13422108 C256.96143773 254.84656164 256.00459053 253.56038752 255.04689693 252.27484608 C254.51426739 251.55844959 253.98163784 250.84205311 253.432868 250.10394764 C251.75982368 247.93101502 249.96916923 246.01940842 247.9787817 244.13422108 C244.79616755 241.03551766 241.85170506 237.83380266 238.96706295 234.45843983 C237.35135114 232.62729978 235.70971455 230.85418876 234.02175045 229.09125233 C222.91298115 217.45538678 214.97384185 205.86102547 214.4162817 189.13422108 C214.75422588 179.00716056 217.50850508 170.18979522 223.5490942 162.03656483 C224.98480182 160.17839169 224.98480182 160.17839169 225.8459692 158.01312733 C227.20528764 155.62687854 228.42928523 155.22086122 230.9162817 154.13422108 C232.32200111 153.16930087 233.71736845 152.18918083 235.1037817 151.19672108 C244.9614947 144.54925014 256.45390864 142.90899406 268.09987545 144.59515858 C287.66913115 148.51361967 300.42745141 164.49227954 313.9329958 178.07577038 C316.19591714 180.3516378 318.46210814 182.62420585 320.72910213 184.89601612 C325.52351505 189.70174501 330.31391949 194.51145707 335.1037817 199.32172108 C340.69607367 204.93762445 346.29000189 210.55187845 351.88810825 216.16198635 C354.12433265 218.40470691 356.35753676 220.65040586 358.59064388 222.89622974 C359.94668368 224.25589799 361.30286178 225.61542832 362.65920162 226.97479725 C363.59333134 227.91667645 363.59333134 227.91667645 364.54633236 228.8775835 C365.98413111 230.31556177 367.44737803 231.72803163 368.9162817 233.13422108 C369.2462817 233.13422108 369.5762817 233.13422108 369.9162817 233.13422108 C370.009787 207.88212293 370.08029135 182.63005079 370.12353039 157.37781429 C370.14414203 145.6523519 370.17223603 133.92699717 370.21803951 122.20160389 C370.25794992 111.97991261 370.28372467 101.75829932 370.29263568 91.53653228 C370.29784327 86.12583216 370.31005411 80.71535512 370.33920193 75.3047266 C370.36643732 70.20759477 370.37471024 65.11077705 370.36871243 60.01357937 C370.36980903 58.14719591 370.3777143 56.28080149 370.3931036 54.41448116 C370.64256584 39.16277338 370.64256584 39.16277338 364.02175045 25.73187733 C363.07235592 24.97197498 363.07235592 24.97197498 362.1037817 24.19672108 C361.47858639 23.67207264 360.85339108 23.1474242 360.20925045 22.60687733 C352.47695683 17.64082163 345.70452938 17.70469342 336.68912411 17.74654102 C335.22860077 17.74236583 333.76808068 17.73688729 332.30756658 17.73022121 C328.30260496 17.71577226 324.29784923 17.72000957 320.29287636 17.72738802 C315.97035964 17.73211874 311.64788752 17.71961072 307.32538509 17.70937061 C298.86065159 17.69217558 290.3959923 17.69134404 281.93124587 17.69658352 C275.05122917 17.70062502 268.17123441 17.6991819 261.29121876 17.69383526 C260.31199909 17.69308684 259.33277943 17.69233841 258.32388644 17.69156731 C256.33460502 17.69003584 254.34532361 17.68849749 252.3560422 17.68695235 C233.70160782 17.67322484 215.04721539 17.67866683 196.39278197 17.69013756 C179.32695996 17.70007095 162.26124636 17.68712788 145.19544107 17.66320337 C127.67093724 17.63882094 110.1464839 17.62920234 92.62196344 17.63585609 C82.78378423 17.63935012 72.9456884 17.63710408 63.10752201 17.61960506 C54.73283111 17.60489384 46.35828232 17.60423355 37.98359425 17.62167598 C33.71117831 17.63019711 29.43901636 17.63230841 25.16661358 17.61702442 C21.25389689 17.60320047 17.34165233 17.60791062 13.42896312 17.62726366 C12.01517804 17.63103104 10.60135535 17.62808035 9.18760372 17.61765201 C-0.43748342 17.55171444 -7.83471643 18.24776905 -14.8962183 25.44672108 Z M387.9162817 145.13422108 C387.90819485 146.28156727 387.90010799 147.42891346 387.89177608 148.61102772 C387.81418936 159.43971586 387.72641853 170.26828031 387.62875462 181.09680653 C387.57887351 186.66345206 387.53254276 192.23007937 387.4944067 197.79681873 C387.45745051 203.17206769 387.41106255 208.54716108 387.35821819 213.9222765 C387.33972911 215.96987642 387.32460104 218.01750962 387.31293774 220.0651598 C387.29598125 222.93990372 387.26692376 225.81429561 387.23512936 228.68890858 C387.23296917 229.52976505 387.23080898 230.37062153 387.22858334 231.2369585 C387.15445596 236.50602078 386.37319767 241.06561429 384.9162817 246.13422108 C395.77495248 243.29248383 405.54239364 239.89809946 411.9162817 230.13422108 C415.88943448 222.64159732 415.35758956 214.99093397 412.98958492 207.01157093 C411.76653873 203.6006668 410.45902517 200.23619449 409.1115942 196.87250233 C408.62570499 195.62992683 408.14110071 194.38684821 407.65770626 193.14330006 C406.39233197 189.89791093 405.11021565 186.65940782 403.82411861 183.42218494 C402.52320383 180.13936817 401.23783484 176.85048201 399.95143795 173.56195545 C398.06313836 168.73794985 396.16557095 163.91770297 394.26051998 159.10028553 C392.42998531 154.46212798 390.64729342 149.81038172 388.9162817 145.13422108 C388.5862817 145.13422108 388.2562817 145.13422108 387.9162817 145.13422108 Z M402.9162817 131.13422108 C404.90935394 138.14314464 407.26207638 144.9340351 409.9006567 151.72406483 C410.46868008 153.20006908 410.46868008 153.20006908 411.04817867 154.70589161 C412.25074793 157.82918404 413.45821238 160.95055241 414.6662817 164.07172108 C423.86063577 187.88134533 423.86063577 187.88134533 427.9319067 198.76312733 C428.22176449 199.52632786 428.51162228 200.28952839 428.81026363 201.07585621 C433.06403853 212.53928605 432.97581314 223.58134402 428.9162817 235.13422108 C422.89988994 247.9144957 414.37897783 253.38103979 401.9162817 259.13422108 C400.58108702 259.79715198 399.24733197 260.46300769 397.9162817 261.13422108 C401.55224018 265.60197595 405.43647276 269.69878523 409.56862545 273.70843983 C410.0759219 274.20312763 410.58321835 274.69781544 411.10588741 275.20749378 C413.22848019 277.27585565 415.3523415 279.34236484 417.49465084 281.39032459 C419.07238612 282.90175852 420.63396942 284.42838663 422.19362545 285.95843983 C423.12424801 286.85651356 424.05487057 287.75458729 425.01369381 288.67987537 C426.9162817 291.13422108 426.9162817 291.13422108 426.84059811 293.31024647 C425.47158116 296.01175878 423.53293953 297.79714034 421.3537817 299.88422108 C420.11434811 301.0830492 420.11434811 301.0830492 418.84987545 302.30609608 C418.21178951 302.90937733 417.57370358 303.51265858 416.9162817 304.13422108 C412.97702302 302.54171031 410.34110695 299.82240278 407.41539669 296.8469286 C406.6000596 296.02992139 406.6000596 296.02992139 405.76825106 295.19640899 C403.94741489 293.36949931 402.13383533 291.53555175 400.32009029 289.70160389 C399.01600514 288.39040614 397.71144828 287.0796774 396.40645504 285.76938343 C393.59579535 282.94561757 390.78817545 280.11887525 387.98276043 277.28989887 C383.54177086 272.81231704 379.09209018 268.3434417 374.64079952 263.8761034 C361.98374398 251.17075501 349.33838274 238.45380589 336.70192623 225.72797108 C329.72367243 218.70051425 322.73816644 211.68034673 315.7449013 204.66782737 C311.3237554 200.23363683 306.91175712 195.790605 302.5064199 191.34071112 C299.75468649 188.56540922 296.9945217 185.79861177 294.23197842 183.03407383 C292.95870336 181.75652687 291.68884405 180.47556437 290.42280865 179.19084263 C277.54574932 165.80919109 277.54574932 165.80919109 260.2287817 160.88422108 C251.25317473 161.04214965 245.38634361 163.770851 238.86550045 169.93890858 C233.11715069 176.4130019 231.54110812 183.55731425 231.6428442 192.00140858 C232.39160705 200.58009147 237.20110038 206.10152968 242.9162817 212.13422108 C244.31490512 213.69422412 245.71057059 215.25688251 247.1037817 216.82172108 C251.6533737 221.86566603 256.26080926 226.85495916 260.87331295 231.84125233 C265.11699602 236.42992836 269.33668711 241.04053711 273.55739498 245.65033436 C275.84270666 248.14586514 278.12957751 250.63996635 280.4162817 253.13422108 C281.33295574 254.13421432 282.24962241 255.13421432 283.1662817 256.13422108 C283.6200317 256.62922108 284.0737817 257.12422108 284.5412817 257.63422108 C285.9162817 259.13422108 287.2912817 260.63422108 288.6662817 262.13422108 C289.1207568 262.62994617 289.5752319 263.12567127 290.04347897 263.63641834 C290.9530872 264.62885059 291.862433 265.62152343 292.77150631 266.61444569 C295.16898575 269.23234342 297.57190438 271.84497145 299.98268795 274.45062733 C300.48413326 274.99396717 300.98557858 275.53730701 301.5022192 276.0971117 C302.46278355 277.13772308 303.42494066 278.17686722 304.38893795 279.2142992 C308.31126418 283.46932274 310.34609416 286.02901789 310.18776608 292.00726795 C309.74721916 295.45874699 308.26832689 298.35056104 306.6662817 301.38422108 C306.01603475 302.70497393 305.37022762 304.02792152 304.7287817 305.35297108 C304.41553951 305.99750233 304.10229733 306.64203358 303.77956295 307.30609608 C292.59685598 330.98712261 293.67215354 359.90696292 302.2522192 384.17328358 C307.58036498 397.60288652 307.58036498 397.60288652 315.9162817 409.13422108 C318.44239675 409.43339374 318.44239675 409.43339374 321.43376827 409.37473011 C322.60608501 409.37747944 323.77840176 409.38022877 324.98624325 409.38306141 C326.27880535 409.37587086 327.57136745 409.36868031 328.90309811 409.36127186 C330.27283374 409.36070794 331.64256998 409.36102392 333.01230526 409.36215687 C336.73732728 409.36273214 340.46222124 409.35094969 344.18721342 409.33700895 C348.0776397 409.32453061 351.96806872 409.32333339 355.85851192 409.32095814 C363.22853652 409.31473483 370.59850198 409.29831254 377.96850049 409.27825916 C386.35773808 409.25592658 394.74697844 409.24491339 403.13623834 409.23486829 C420.39628703 409.21394702 437.65627812 409.17875457 454.9162817 409.13422108 C455.00993657 383.35109832 455.0803643 357.56800126 455.12353039 331.78474236 C455.14411047 319.81174039 455.17214361 307.83884443 455.21803951 295.86591053 C455.2580471 285.4240451 455.28374757 274.98225648 455.29263568 264.54031652 C455.29782692 259.01705307 455.30993238 253.4940093 455.33920193 247.97081661 C455.36659147 242.75957701 455.37467967 237.5486451 455.36871243 232.33734035 C455.36980223 230.43680867 455.37761455 228.53626542 455.3931036 226.63579655 C455.62772211 196.33186382 444.98292508 172.8323609 423.9631567 151.23187733 C422.61553559 149.86467256 421.2665254 148.49883586 419.9162817 147.13422108 C419.18344967 146.38769276 418.45061764 145.64116444 417.69557858 144.87201405 C414.14257731 141.25540211 410.57808518 137.65013734 406.9865942 134.07172108 C406.13218746 133.21900623 406.13218746 133.21900623 405.26051998 132.34906483 C404.09460563 131.0224716 404.09460563 131.0224716 402.9162817 131.13422108 Z M90.82579708 289.80048084 C83.97312273 293.11428992 76.89172764 295.73465438 69.75612545 298.36468983 C67.5445092 299.21083159 65.33415418 300.06027962 63.12526608 300.91351795 C61.03477783 301.71626936 58.94428298 302.51900359 56.8537817 303.32172108 C54.57185471 304.19860667 52.28995382 305.07556021 50.00807858 305.95258045 C44.64444046 308.01389367 39.2805064 310.07443485 33.9162817 312.13422108 C34.73918078 316.56824217 36.11338263 320.64466958 37.71706295 324.84906483 C37.99470989 325.58242558 38.27235683 326.31578632 38.55841732 327.07137012 C39.14559919 328.61776888 39.73490216 330.1633637 40.32619381 331.70819569 C41.22331699 334.05741113 42.10816876 336.41100747 42.99245358 338.76508045 C43.56657702 340.27252637 44.14142342 341.77969719 44.71706295 343.28656483 C44.97763988 343.98362034 45.23821682 344.68067585 45.50669003 345.39885426 C48.63765224 353.49777116 53.17711326 360.51168716 61.2756567 364.21234608 C70.7562949 367.45107341 78.65687651 365.22057264 87.7287817 361.65375233 C89.14013142 361.11372074 89.14013142 361.11372074 90.57999325 360.56277943 C93.69608695 359.36754069 96.80607867 358.15719681 99.9162817 356.94672108 C102.14045043 356.09007481 104.36498688 355.23438277 106.58986568 354.37958241 C112.50380297 352.10454355 118.41271994 349.81673035 124.32076168 347.52643299 C130.17374813 345.2601134 136.03148833 343.00616174 141.88893795 340.75140858 C152.58849207 336.63078613 163.28378312 332.49922657 173.97734737 328.36308765 C182.56826706 325.04069975 191.16153451 321.72444333 199.75612545 318.41156483 C211.60877237 313.84276606 223.45906111 309.26790395 235.30739498 304.68793201 C239.65655267 303.00687376 244.00650818 301.32790716 248.35719967 299.65082264 C253.28941907 297.74930726 258.21963148 295.84268552 263.14821529 293.93176746 C264.93444385 293.24017207 266.72137826 292.55039663 268.50905514 291.8625536 C270.92668342 290.9319815 273.34170026 289.99494113 275.75612545 289.05609608 C276.46143902 288.78636982 277.16675259 288.51664356 277.89343929 288.23874378 C280.72459652 287.13087152 282.74165902 286.30884376 284.9162817 284.13422108 C284.36198483 283.59152576 283.80768795 283.04883045 283.2365942 282.48968983 C282.51214108 281.77426014 281.78768795 281.05883045 281.0412817 280.32172108 C279.96233639 279.26017811 279.96233639 279.26017811 278.8615942 278.17718983 C276.9162817 276.13422108 276.9162817 276.13422108 274.9162817 273.13422108 C272.52914085 272.6324611 272.52914085 272.6324611 269.69055843 272.64560413 C268.58064037 272.6140221 267.47072231 272.58244007 266.32717037 272.54990101 C265.10223873 272.53083698 263.87730709 272.51177296 262.61525631 272.49213123 C261.32817272 272.46117359 260.04108913 272.43021595 258.71500301 272.3983202 C254.4165192 272.29856654 250.11783002 272.23293032 245.81862545 272.17328358 C245.0801057 272.16274307 244.34158595 272.15220256 243.58068681 272.14134264 C236.56384432 272.0429134 229.5469412 271.95830105 222.5296154 271.90339565 C214.45663707 271.83937181 206.38816811 271.74052834 198.31740475 271.53607655 C159.03397711 270.56199179 126.9194642 272.24797091 90.82579708 289.80048084 Z M18.9162817 274.13422108 C21.2160286 281.98355758 21.2160286 281.98355758 23.8537817 289.69672108 C24.15155514 290.52301014 24.44932858 291.3492992 24.75612545 292.20062733 C25.73165599 294.25984128 25.73165599 294.25984128 27.66207027 294.86272144 C30.61747874 295.218674 32.37471191 294.49391218 35.14382076 293.41180897 C36.70498623 292.81107311 36.70498623 292.81107311 38.29769039 292.19820118 C39.41448177 291.75556431 40.53127316 291.31292744 41.6819067 290.85687733 C43.40470852 290.18887356 43.40470852 290.18887356 45.16231441 289.50737476 C48.21009467 288.32334605 51.25393383 287.12984295 54.29616451 285.93164539 C57.40340411 284.71055297 60.51556265 283.50221693 63.6272192 282.2924242 C69.72813367 279.91791082 75.82402039 277.53084216 81.9162817 275.13422108 C81.9162817 274.80422108 81.9162817 274.47422108 81.9162817 274.13422108 C61.1262817 274.13422108 40.3362817 274.13422108 18.9162817 274.13422108 Z M319.9162817 427.13422108 C319.9162817 449.24422108 319.9162817 471.35422108 319.9162817 494.13422108 C364.4662817 494.13422108 409.0162817 494.13422108 454.9162817 494.13422108 C454.9162817 472.02422108 454.9162817 449.91422108 454.9162817 427.13422108 C410.3662817 427.13422108 365.8162817 427.13422108 319.9162817 427.13422108 Z " fill="#000000" transform="translate(39.08371829986572,-0.13422107696533203)"/>
<path d="M0 0 C1.05492142 -0.0127597 2.10984283 -0.02551941 3.19673157 -0.03866577 C4.32701279 -0.04089142 5.45729401 -0.04311707 6.62182617 -0.04541016 C7.79436447 -0.05206696 8.96690277 -0.05872375 10.17497253 -0.06558228 C12.6537418 -0.07569873 15.13253824 -0.08039961 17.61132812 -0.08007812 C21.39067846 -0.08444479 25.16885472 -0.12075958 28.94799805 -0.15869141 C31.36010344 -0.16456113 33.77221437 -0.16852948 36.18432617 -0.17041016 C37.87063896 -0.19196671 37.87063896 -0.19196671 39.59101868 -0.21395874 C47.19490781 -0.17000001 52.95113349 0.74509453 58.62573242 6.25537109 C59.07174805 6.90634766 59.51776367 7.55732422 59.97729492 8.22802734 C60.66952148 9.200625 60.66952148 9.200625 61.37573242 10.19287109 C63.75114535 14.2552811 64.85202669 17.70185447 64.87695312 22.4128418 C64.88648514 23.40770096 64.89601715 24.40256012 64.90583801 25.42756653 C64.90492661 26.49222641 64.9040152 27.55688629 64.90307617 28.65380859 C64.9073613 29.75975876 64.91164642 30.86570892 64.9160614 32.00517273 C64.92179822 34.34271562 64.92230975 36.68027636 64.91796875 39.01782227 C64.91481554 42.57974016 64.93825364 46.14082185 64.96362305 49.70263672 C64.96589688 51.9780263 64.96659914 54.25341811 64.96557617 56.52880859 C64.97478592 57.58739578 64.98399567 58.64598297 64.9934845 59.73664856 C64.94968401 66.79893645 64.21245787 72.55700312 60.05932617 78.49755859 C59.51663086 79.02736328 58.97393555 79.55716797 58.41479492 80.10302734 C57.88499023 80.64572266 57.35518555 81.18841797 56.80932617 81.74755859 C50.00344258 86.50565421 43.18677121 86.73638516 35.16479492 86.68896484 C34.08528564 86.69183502 33.00577637 86.6947052 31.89355469 86.69766235 C29.621007 86.69969537 27.34844152 86.69421911 25.07592773 86.68164062 C21.61296163 86.66557682 18.15116257 86.68151608 14.68823242 86.70068359 C12.47208403 86.69870103 10.25593636 86.69485708 8.03979492 86.68896484 C7.01249268 86.69503754 5.98519043 86.70111023 4.92675781 86.70736694 C-2.70395495 86.63332752 -8.20471757 85.43965355 -14.64770508 81.10302734 C-21.422248 74.17451754 -21.99734032 67.39341689 -21.92895508 57.97802734 C-21.93278198 56.80973389 -21.93660889 55.64144043 -21.94055176 54.43774414 C-21.94326395 51.97687921 -21.93595158 49.51598512 -21.91918945 47.05517578 C-21.89777192 43.30223931 -21.91901686 39.55121722 -21.94458008 35.79833984 C-21.94193668 33.39989815 -21.93681146 31.00145763 -21.92895508 28.60302734 C-21.937052 27.48822998 -21.94514893 26.37343262 -21.95349121 25.22485352 C-21.8625385 17.61678978 -20.76367947 12.19114196 -15.65161133 6.26708984 C-15.09344727 5.82107422 -14.5352832 5.37505859 -13.96020508 4.91552734 C-13.40461914 4.45404297 -12.8490332 3.99255859 -12.27661133 3.51708984 C-8.29294611 0.91652669 -4.7241468 0.03897424 0 0 Z M-3.39770508 20.29052734 C-3.64148391 23.64796847 -3.64148391 23.64796847 -3.52270508 27.41552734 C-3.48145508 29.68427734 -3.44020508 31.95302734 -3.39770508 34.29052734 C2.21229492 34.29052734 7.82229492 34.29052734 13.60229492 34.29052734 C13.60229492 40.23052734 13.60229492 46.17052734 13.60229492 52.29052734 C7.99229492 52.29052734 2.38229492 52.29052734 -3.39770508 52.29052734 C-3.45958008 54.55927734 -3.52145508 56.82802734 -3.58520508 59.16552734 C-3.62000977 60.44169922 -3.65481445 61.71787109 -3.69067383 63.03271484 C-3.59399414 64.10779297 -3.49731445 65.18287109 -3.39770508 66.29052734 C-0.29058039 68.36194381 0.40782974 68.5439726 3.93432617 68.56518555 C4.80532959 68.57471756 5.67633301 68.58424957 6.57373047 68.59407043 C7.98005737 68.59270332 7.98005737 68.59270332 9.41479492 68.59130859 C10.38006104 68.59559372 11.34532715 68.59987885 12.33984375 68.60429382 C14.38077001 68.61003707 16.42171675 68.61053742 18.46264648 68.60620117 C21.5902788 68.60303949 24.71696698 68.62650655 27.84448242 68.65185547 C29.82625206 68.65412823 31.80802425 68.65483206 33.78979492 68.65380859 C34.72734619 68.66301834 35.66489746 68.67222809 36.63085938 68.68171692 C37.50186279 68.67548813 38.37286621 68.66925934 39.27026367 68.6628418 C40.41918091 68.66378593 40.41918091 68.66378593 41.59130859 68.66474915 C44.1641582 68.18597095 45.05083811 67.3707812 46.60229492 65.29052734 C46.96591112 62.08914666 46.96591112 62.08914666 46.78979492 58.60302734 C46.72791992 56.51990234 46.66604492 54.43677734 46.60229492 52.29052734 C40.99229492 52.29052734 35.38229492 52.29052734 29.60229492 52.29052734 C29.60229492 46.35052734 29.60229492 40.41052734 29.60229492 34.29052734 C35.21229492 34.29052734 40.82229492 34.29052734 46.60229492 34.29052734 C46.64354492 32.20740234 46.68479492 30.12427734 46.72729492 27.97802734 C46.75049805 26.80626953 46.77370117 25.63451172 46.79760742 24.42724609 C46.85550111 21.12659074 46.85550111 21.12659074 44.60229492 18.29052734 C42.56336963 17.84013454 42.56336963 17.84013454 40.18432617 17.91821289 C39.26997803 17.9119841 38.35562988 17.90575531 37.41357422 17.89933777 C36.42397705 17.90854752 35.43437988 17.91775726 34.41479492 17.92724609 C33.4013501 17.92674759 32.38790527 17.92624908 31.34375 17.92573547 C29.19846641 17.9280787 27.05318022 17.93782179 24.90795898 17.9543457 C21.61571792 17.97793118 18.32428642 17.97490936 15.03198242 17.96826172 C12.9512484 17.9738384 10.87051781 17.98094822 8.78979492 17.98974609 C7.80019775 17.98883469 6.81060059 17.98792328 5.79101562 17.98698425 C4.41949341 18.00128227 4.41949341 18.00128227 3.02026367 18.01586914 C1.81019653 18.02278023 1.81019653 18.02278023 0.57568359 18.02983093 C-1.63046252 18.11767961 -1.63046252 18.11767961 -3.39770508 20.29052734 Z " fill="#000000" transform="translate(55.397705078125,33.70947265625)"/>
<path d="M0 0 C11.55 0 23.1 0 35 0 C35 5.94 35 11.88 35 18 C23.45 18 11.9 18 0 18 C0 12.06 0 6.12 0 0 Z " fill="#000000" transform="translate(196,196)"/>
<path d="M0 0 C11.55 0 23.1 0 35 0 C35 5.94 35 11.88 35 18 C23.45 18 11.9 18 0 18 C0 12.06 0 6.12 0 0 Z " fill="#000000" transform="translate(42,196)"/>
<path d="M0 0 C11.55 0 23.1 0 35 0 C35 5.94 35 11.88 35 18 C23.45 18 11.9 18 0 18 C0 12.06 0 6.12 0 0 Z " fill="#000000" transform="translate(196,145)"/>
<path d="M0 0 C11.55 0 23.1 0 35 0 C35 5.94 35 11.88 35 18 C23.45 18 11.9 18 0 18 C0 12.06 0 6.12 0 0 Z " fill="#000000" transform="translate(145,145)"/>
<path d="M0 0 C11.55 0 23.1 0 35 0 C35 5.94 35 11.88 35 18 C23.45 18 11.9 18 0 18 C0 12.06 0 6.12 0 0 Z " fill="#000000" transform="translate(93,145)"/>
<path d="M0 0 C11.55 0 23.1 0 35 0 C35 5.94 35 11.88 35 18 C23.45 18 11.9 18 0 18 C0 12.06 0 6.12 0 0 Z " fill="#000000" transform="translate(42,145)"/>
<path d="M0 0 C5.94 0 11.88 0 18 0 C18 8.91 18 17.82 18 27 C12.06 27 6.12 27 0 27 C0 18.09 0 9.18 0 0 Z " fill="#000000" transform="translate(358,42)"/>
<path d="M0 0 C5.94 0 11.88 0 18 0 C18 8.91 18 17.82 18 27 C12.06 27 6.12 27 0 27 C0 18.09 0 9.18 0 0 Z " fill="#000000" transform="translate(324,42)"/>
<path d="M0 0 C5.94 0 11.88 0 18 0 C18 8.91 18 17.82 18 27 C12.06 27 6.12 27 0 27 C0 18.09 0 9.18 0 0 Z " fill="#000000" transform="translate(290,42)"/>
<path d="M0 0 C5.94 0 11.88 0 18 0 C18 8.91 18 17.82 18 27 C12.06 27 6.12 27 0 27 C0 18.09 0 9.18 0 0 Z " fill="#000000" transform="translate(256,42)"/>
<path d="M0 0 C5.94 0 11.88 0 18 0 C18 5.94 18 11.88 18 18 C12.06 18 6.12 18 0 18 C0 12.06 0 6.12 0 0 Z " fill="#000000" transform="translate(375,443)"/>
</svg>
