<?xml version="1.0" encoding="UTF-8"?>
<svg version="1.1" xmlns="http://www.w3.org/2000/svg" width="512" height="512">
<path d="M0 0 C2.75569447 2.18159145 4.43588747 3.87177494 6 7 C6 9.97 6 12.94 6 16 C53.19 16 100.38 16 149 16 C149 12.7 149 9.4 149 6 C150.79646854 3.06576805 151.9441071 1.52794645 155 0 C158.05920574 -0.42071592 160.9467746 -0.48514117 164 0 C166.75569447 2.18159145 168.43588747 3.87177494 170 7 C170.06950541 8.54023996 170.08452357 10.08334988 170.0625 11.625 C170.05347656 12.44226562 170.04445313 13.25953125 170.03515625 14.1015625 C170.01775391 15.04128906 170.01775391 15.04128906 170 16 C170.72805344 15.99111755 171.45610687 15.98223511 172.20622253 15.9730835 C179.07701343 15.89284049 185.94773403 15.83198632 192.81887341 15.79275131 C196.35121382 15.77190157 199.88316613 15.74363321 203.4152832 15.69824219 C207.47871567 15.64635175 211.54174228 15.62703334 215.60546875 15.609375 C216.8702153 15.58872986 218.13496185 15.56808472 219.43803406 15.54681396 C220.61888077 15.54651184 221.79972748 15.54620972 223.01635742 15.54589844 C224.05338303 15.53701599 225.09040863 15.52813354 226.15885925 15.51898193 C229.73996129 16.12527882 231.40421996 17.51322582 234 20 C235.21921434 22.43842869 235.12972238 24.00351708 235.13701439 26.72993183 C235.1446262 28.23610662 235.1446262 28.23610662 235.15239179 29.77270919 C235.15288955 30.88406602 235.15338731 31.99542285 235.15390015 33.14045715 C235.1582824 34.31470125 235.16266465 35.48894535 235.1671797 36.69877261 C235.17826107 39.96825827 235.18479734 43.2377169 235.18936086 46.50721705 C235.19531082 50.02947437 235.2069221 53.55171397 235.21765137 57.07395935 C235.24218813 65.58489464 235.25680379 74.0958358 235.26971143 82.60679558 C235.27342225 85.00965421 235.27739556 87.41251227 235.2814641 89.81537032 C235.30669798 104.72917878 235.32875627 119.64298814 235.34119225 134.55681324 C235.34412205 138.01224076 235.3470837 141.46766825 235.35009766 144.9230957 C235.35084371 145.7819502 235.35158976 146.6408047 235.35235842 147.52568509 C235.36501732 161.444674 235.39824689 175.36353531 235.43989949 189.28246454 C235.48229007 203.5647796 235.50588389 217.84702929 235.51111281 232.12940711 C235.51453006 240.15170998 235.52632208 248.17381341 235.55921555 256.19605446 C235.58717772 263.02690527 235.59823235 269.85751577 235.58702008 276.68841938 C235.58182358 280.1747285 235.58478323 283.66053409 235.60948563 287.14677048 C235.63202325 290.92446946 235.62395205 294.70088841 235.60800171 298.47859192 C235.6218838 299.58325658 235.63576588 300.68792124 235.65006864 301.82606059 C235.57271152 309.23063734 235.57271152 309.23063734 232.64949989 313.15758801 C228.93353007 315.74160297 226.27226193 316.126262 221.85820007 316.14044189 C220.79414948 316.14615204 219.73009888 316.15186218 218.63380432 316.15774536 C217.46647263 316.15886322 216.29914093 316.15998108 215.09643555 316.16113281 C213.25217987 316.16858017 213.25217987 316.16858017 211.3706665 316.17617798 C207.99656607 316.18828796 204.62252763 316.19574517 201.24841285 316.20018864 C199.13956736 316.20312104 197.03072729 316.20722618 194.92188454 316.21169281 C188.32136615 316.22536566 181.72086017 316.2350332 175.12032861 316.2388947 C167.5055623 316.24337424 159.89097559 316.26091805 152.27626389 316.2898953 C146.38740729 316.31152561 140.49860117 316.32159971 134.60970527 316.32293582 C131.09392217 316.32398294 127.57830797 316.32987075 124.06256676 316.34775543 C120.13890183 316.36732701 116.2154606 316.36294174 112.29174805 316.35644531 C111.13048904 316.3656601 109.96923004 316.37487488 108.77278137 316.3843689 C98.71594182 316.3321474 98.71594182 316.3321474 94 313 C92 310 92 310 92 306 C79.79 306 67.58 306 55 306 C54.67 307.65 54.34 309.3 54 311 C52.31260108 313.42985444 50.98548707 314.6969318 48.1328125 315.57421875 C44.64342499 316.1865075 42.51672608 316.20669043 39.1875 314.875 C36.74920985 312.78503702 35.402972 310.87978464 34 308 C34 307.34 34 306.68 34 306 C20.8 306 7.6 306 -6 306 C-6.66 307.98 -7.32 309.96 -8 312 C-10.08291979 314.745667 -11.66810822 315.38174629 -15 316 C-17.48718218 316.11773221 -19.94588487 316.18770211 -22.43359375 316.203125 C-23.14854507 316.20882507 -23.8634964 316.21452515 -24.60011292 316.22039795 C-26.10880057 316.22982114 -27.61750856 316.23637125 -29.1262207 316.24023438 C-31.42631015 316.24995272 -33.72551013 316.2810049 -36.02539062 316.3125 C-37.49478639 316.31902971 -38.96418851 316.32428031 -40.43359375 316.328125 C-41.11707382 316.3404718 -41.80055389 316.3528186 -42.50474548 316.36553955 C-47.87568173 316.34064181 -51.04707294 314.95292706 -54.8125 311.1875 C-56.35502854 308.34600006 -56.2170174 306.18292189 -56 303 C-57.0828125 302.6596875 -57.0828125 302.6596875 -58.1875 302.3125 C-64.15645633 299.52698705 -67.15569717 294.68860565 -70 289 C-71.01351147 285.11230719 -71.12345831 281.44634436 -71.12025452 277.43840027 C-71.12110894 276.79301042 -71.12196337 276.14762058 -71.12284368 275.48267347 C-71.12448569 273.32850828 -71.11899814 271.17442164 -71.11352539 269.02026367 C-71.11324322 267.47274782 -71.11340184 265.92523184 -71.1139679 264.37771606 C-71.11425469 260.18185322 -71.10837695 255.986019 -71.10139394 251.7901628 C-71.09514084 247.40326695 -71.09455505 243.01637044 -71.09336853 238.62947083 C-71.09026099 230.32458668 -71.08205537 222.01971571 -71.07201904 213.71483737 C-71.06083999 204.25903856 -71.05534293 194.80323913 -71.05032361 185.34743536 C-71.03987229 165.89828277 -71.022284 146.44914244 -71 127 C-71.77859375 126.87367187 -72.5571875 126.74734375 -73.359375 126.6171875 C-76.66244075 125.84516917 -77.8673338 124.5896661 -80 122 C-81.32962424 118.01112727 -81.15578635 114.17754072 -81.16113281 110.01806641 C-81.16609772 109.09907059 -81.17106262 108.18007477 -81.17617798 107.23323059 C-81.19079784 104.18933365 -81.19760103 101.1454888 -81.203125 98.1015625 C-81.20887623 95.98790485 -81.21463396 93.87424722 -81.22039795 91.7605896 C-81.23090718 87.32704424 -81.23675048 82.89351701 -81.24023438 78.45996094 C-81.24572147 72.77807117 -81.26975455 67.09642075 -81.29820633 61.41460609 C-81.31682584 57.04801736 -81.32203793 52.68148638 -81.32357025 48.3148613 C-81.32659843 46.22008326 -81.3346325 44.12530629 -81.34775543 42.03056717 C-81.36480272 39.10043339 -81.36293891 36.17088586 -81.35644531 33.24072266 C-81.3656601 32.37509201 -81.37487488 31.50946136 -81.3843689 30.61759949 C-81.35176101 25.92250591 -81.0925878 22.77677656 -78 19 C-74.82713981 15.87838274 -72.51019462 15.63134491 -68.12988281 15.65942383 C-66.94896057 15.65965042 -65.76803833 15.65987701 -64.55133057 15.66011047 C-63.28142273 15.67559433 -62.01151489 15.69107819 -60.703125 15.70703125 C-58.74726471 15.71339851 -58.74726471 15.71339851 -56.75189209 15.71989441 C-53.29281228 15.73132451 -49.83411302 15.76077523 -46.37518311 15.79400635 C-42.84262235 15.8247472 -39.30999984 15.83840828 -35.77734375 15.85351562 C-28.85140661 15.88564718 -21.9257216 15.93682096 -15 16 C-15.02175293 15.31365479 -15.04350586 14.62730957 -15.06591797 13.92016602 C-15.09129639 12.56942993 -15.09129639 12.56942993 -15.1171875 11.19140625 C-15.13894043 10.29881104 -15.16069336 9.40621582 -15.18310547 8.48657227 C-14.92510616 4.98294167 -13.55122678 3.32611853 -11 1 C-7.52736727 -0.73631636 -3.78806987 -0.60190402 0 0 Z " fill="#FEFEFE" transform="translate(277,0)"/>
<path d="M0 0 C2.75569447 2.18159145 4.43588747 3.87177494 6 7 C6 9.97 6 12.94 6 16 C53.19 16 100.38 16 149 16 C149 12.7 149 9.4 149 6 C150.79646854 3.06576805 151.9441071 1.52794645 155 0 C158.05920574 -0.42071592 160.9467746 -0.48514117 164 0 C166.75569447 2.18159145 168.43588747 3.87177494 170 7 C170.06950541 8.54023996 170.08452357 10.08334988 170.0625 11.625 C170.05347656 12.44226562 170.04445313 13.25953125 170.03515625 14.1015625 C170.01775391 15.04128906 170.01775391 15.04128906 170 16 C170.72805344 15.99111755 171.45610687 15.98223511 172.20622253 15.9730835 C179.07701343 15.89284049 185.94773403 15.83198632 192.81887341 15.79275131 C196.35121382 15.77190157 199.88316613 15.74363321 203.4152832 15.69824219 C207.47871567 15.64635175 211.54174228 15.62703334 215.60546875 15.609375 C216.8702153 15.58872986 218.13496185 15.56808472 219.43803406 15.54681396 C220.61888077 15.54651184 221.79972748 15.54620972 223.01635742 15.54589844 C224.05338303 15.53701599 225.09040863 15.52813354 226.15885925 15.51898193 C229.73996129 16.12527882 231.40421996 17.51322582 234 20 C235.21921434 22.43842869 235.12972238 24.00351708 235.13701439 26.72993183 C235.1446262 28.23610662 235.1446262 28.23610662 235.15239179 29.77270919 C235.15288955 30.88406602 235.15338731 31.99542285 235.15390015 33.14045715 C235.1582824 34.31470125 235.16266465 35.48894535 235.1671797 36.69877261 C235.17826107 39.96825827 235.18479734 43.2377169 235.18936086 46.50721705 C235.19531082 50.02947437 235.2069221 53.55171397 235.21765137 57.07395935 C235.24218813 65.58489464 235.25680379 74.0958358 235.26971143 82.60679558 C235.27342225 85.00965421 235.27739556 87.41251227 235.2814641 89.81537032 C235.30669798 104.72917878 235.32875627 119.64298814 235.34119225 134.55681324 C235.34412205 138.01224076 235.3470837 141.46766825 235.35009766 144.9230957 C235.35084371 145.7819502 235.35158976 146.6408047 235.35235842 147.52568509 C235.36501732 161.444674 235.39824689 175.36353531 235.43989949 189.28246454 C235.48229007 203.5647796 235.50588389 217.84702929 235.51111281 232.12940711 C235.51453006 240.15170998 235.52632208 248.17381341 235.55921555 256.19605446 C235.58717772 263.02690527 235.59823235 269.85751577 235.58702008 276.68841938 C235.58182358 280.1747285 235.58478323 283.66053409 235.60948563 287.14677048 C235.63202325 290.92446946 235.62395205 294.70088841 235.60800171 298.47859192 C235.6218838 299.58325658 235.63576588 300.68792124 235.65006864 301.82606059 C235.57271152 309.23063734 235.57271152 309.23063734 232.64949989 313.15758801 C228.93353007 315.74160297 226.27226193 316.126262 221.85820007 316.14044189 C220.79414948 316.14615204 219.73009888 316.15186218 218.63380432 316.15774536 C217.46647263 316.15886322 216.29914093 316.15998108 215.09643555 316.16113281 C213.25217987 316.16858017 213.25217987 316.16858017 211.3706665 316.17617798 C207.99656607 316.18828796 204.62252763 316.19574517 201.24841285 316.20018864 C199.13956736 316.20312104 197.03072729 316.20722618 194.92188454 316.21169281 C188.32136615 316.22536566 181.72086017 316.2350332 175.12032861 316.2388947 C167.5055623 316.24337424 159.89097559 316.26091805 152.27626389 316.2898953 C146.38740729 316.31152561 140.49860117 316.32159971 134.60970527 316.32293582 C131.09392217 316.32398294 127.57830797 316.32987075 124.06256676 316.34775543 C120.13890183 316.36732701 116.2154606 316.36294174 112.29174805 316.35644531 C111.13048904 316.3656601 109.96923004 316.37487488 108.77278137 316.3843689 C98.71594182 316.3321474 98.71594182 316.3321474 94 313 C91.51613941 309.27420911 91.6195788 307.41288598 92 303 C93.84247396 298.94655729 95.30055637 297.77458272 99 295 C137.28 295 175.56 295 215 295 C215 209.53 215 124.06 215 36 C199.82 36 184.64 36 169 36 C169 39.63 169 43.26 169 47 C166.7984026 49.89683868 165.21405538 51.39297231 162 53 C158.12785818 53.43023798 156.47503629 53.31669086 153.1875 51.125 C151 49 151 49 150 47 C150 43.37 150 39.74 150 36 C102.15 36 54.3 36 5 36 C5 39.63 5 43.26 5 47 C2.7984026 49.89683868 1.21405538 51.39297231 -2 53 C-5.77160651 53.41906739 -7.50970134 53.31200824 -10.75 51.25 C-14.12 47.88 -14.12 47.88 -15 45 C-15 42.36 -15 39.72 -15 37 C-29.85 37 -44.7 37 -60 37 C-59.95359375 42.93355469 -59.9071875 48.86710937 -59.859375 54.98046875 C-59.83893601 58.74025188 -59.81968023 62.49996648 -59.8046875 66.25976562 C-59.78077909 72.22711417 -59.7525002 78.19421713 -59.69824219 84.16137695 C-59.65477015 88.97244774 -59.63085984 93.78325517 -59.62049103 98.59450722 C-59.6131021 100.42974303 -59.5986732 102.26496447 -59.57707977 104.10008812 C-59.54802743 106.67145268 -59.54404471 109.24173005 -59.54589844 111.81323242 C-59.52432678 112.9504348 -59.52432678 112.9504348 -59.50231934 114.11061096 C-59.53069131 117.74955069 -59.8870252 119.82120654 -61.84869385 122.92573547 C-64.50254253 125.48454569 -66.39176044 126.27835209 -70 127 C-73.69812259 126.8520751 -75.42641343 126.4650702 -78.3125 124.125 C-81.71240644 119.84363634 -81.15444259 115.22296658 -81.16113281 110.01806641 C-81.16609772 109.09907059 -81.17106262 108.18007477 -81.17617798 107.23323059 C-81.19079784 104.18933365 -81.19760103 101.1454888 -81.203125 98.1015625 C-81.20887623 95.98790485 -81.21463396 93.87424722 -81.22039795 91.7605896 C-81.23090718 87.32704424 -81.23675048 82.89351701 -81.24023438 78.45996094 C-81.24572147 72.77807117 -81.26975455 67.09642075 -81.29820633 61.41460609 C-81.31682584 57.04801736 -81.32203793 52.68148638 -81.32357025 48.3148613 C-81.32659843 46.22008326 -81.3346325 44.12530629 -81.34775543 42.03056717 C-81.36480272 39.10043339 -81.36293891 36.17088586 -81.35644531 33.24072266 C-81.3656601 32.37509201 -81.37487488 31.50946136 -81.3843689 30.61759949 C-81.35176101 25.92250591 -81.0925878 22.77677656 -78 19 C-74.82713981 15.87838274 -72.51019462 15.63134491 -68.12988281 15.65942383 C-66.94896057 15.65965042 -65.76803833 15.65987701 -64.55133057 15.66011047 C-63.28142273 15.67559433 -62.01151489 15.69107819 -60.703125 15.70703125 C-58.74726471 15.71339851 -58.74726471 15.71339851 -56.75189209 15.71989441 C-53.29281228 15.73132451 -49.83411302 15.76077523 -46.37518311 15.79400635 C-42.84262235 15.8247472 -39.30999984 15.83840828 -35.77734375 15.85351562 C-28.85140661 15.88564718 -21.9257216 15.93682096 -15 16 C-15.02175293 15.31365479 -15.04350586 14.62730957 -15.06591797 13.92016602 C-15.09129639 12.56942993 -15.09129639 12.56942993 -15.1171875 11.19140625 C-15.13894043 10.29881104 -15.16069336 9.40621582 -15.18310547 8.48657227 C-14.92510616 4.98294167 -13.55122678 3.32611853 -11 1 C-7.52736727 -0.73631636 -3.78806987 -0.60190402 0 0 Z " fill="#052A75" transform="translate(277,0)"/>
<path d="M0 0 C47.85 0 95.7 0 145 0 C145.33 3.63 145.66 7.26 146 11 C147.96144954 14.29826662 147.96144954 14.29826662 151 16 C154.67825595 16.61304266 156.46568226 16.26122201 159.8125 14.625 C162.09605332 13.18398646 162.09605332 13.18398646 163 11 C163.33 7.37 163.66 3.74 164 0 C179.18 0 194.36 0 210 0 C210 18.48 210 36.96 210 56 C119.25 56 28.5 56 -65 56 C-65 37.85 -65 19.7 -65 1 C-50.15 1 -35.3 1 -20 1 C-19.34 4.3 -18.68 7.6 -18 11 C-15.48334937 14.4953481 -14.25628528 15.79061912 -10 16.5 C-6.67038979 15.94506497 -4.69908083 15.00503147 -2 13 C-0.03927451 9.07854902 -0.39693727 4.36631 0 0 Z " fill="#FB5F50" transform="translate(282,36)"/>
<path d="M0 0 C1.27810547 -0.09087891 1.27810547 -0.09087891 2.58203125 -0.18359375 C6.38241519 0.72234485 8.02844511 3.36946228 10.1875 6.4375 C11.42813026 8.80200136 12.53422567 11.083104 13.578125 13.52734375 C14.03137901 14.555215 14.03137901 14.555215 14.49378967 15.60385132 C15.48449153 17.85688715 16.4610336 20.11576261 17.4375 22.375 C18.1309009 23.95960234 18.82517188 25.5438242 19.52026367 27.12768555 C21.36851333 31.34580146 23.20454022 35.56913436 25.03826904 39.7935791 C26.98822788 44.27965468 28.94989904 48.76060496 30.91015625 53.2421875 C33.8589826 59.9882292 36.8029384 66.73636094 39.73828125 73.48828125 C40.04387466 74.19101166 40.34946808 74.89374207 40.6643219 75.61776733 C40.95338913 76.28313507 41.24245636 76.94850281 41.5402832 77.6340332 C41.78736526 78.20273636 42.03444733 78.77143951 42.28901672 79.3573761 C43.59514058 82.38124924 44.89081087 85.40956935 46.1875 88.4375 C46.18892502 87.40877274 46.19035004 86.38004547 46.19181824 85.32014465 C46.20849047 75.62354659 46.2512709 65.92736807 46.31959057 56.23099232 C46.353876 51.24597473 46.37897297 46.26126412 46.38305664 41.27612305 C46.38733625 36.46477671 46.41577089 31.65412302 46.46093178 26.84299278 C46.47391759 25.00784019 46.47821062 23.17260476 46.47365379 21.33741188 C46.46875536 18.76560379 46.49480425 16.19582602 46.52807617 13.62426758 C46.51945053 12.86613266 46.51082489 12.10799774 46.50193787 11.32688904 C46.5880911 7.35243279 47.0518541 5.6064297 49.57246399 2.46733093 C53.1784569 -0.3316959 55.39253782 -0.27845188 59.80859375 -0.0546875 C63.48850927 0.70667433 65.06595256 2.42627137 67.1875 5.4375 C68.25728425 8.62840154 68.31773835 11.61513271 68.32794189 14.96530151 C68.33365204 16.08962585 68.33936218 17.2139502 68.34524536 18.37234497 C68.34692215 20.21613235 68.34692215 20.21613235 68.34863281 22.09716797 C68.35608017 24.04405518 68.35608017 24.04405518 68.36367798 26.03027344 C68.37677863 29.58817671 68.38324217 33.14606113 68.38768864 36.70398474 C68.39062266 38.92791464 68.39472806 41.15183943 68.39919281 43.37576675 C68.41286055 50.33722245 68.42253118 57.2986664 68.4263947 64.26013458 C68.43087618 72.29032049 68.44843116 80.32033625 68.4773953 88.35047042 C68.49902096 94.56206195 68.50909942 100.77360562 68.51043582 106.98523438 C68.51148306 110.6932652 68.51737375 114.40113592 68.53525543 118.10912704 C68.5548176 122.24587057 68.55044365 126.38225829 68.54394531 130.51904297 C68.5531601 131.7441861 68.56237488 132.96932922 68.5718689 134.2315979 C68.52046666 144.66095342 68.52046666 144.66095342 65.1875 149.4375 C62.01935999 152.24356686 60.46613806 152.4375 56.1875 152.4375 C51.88987792 152.02160109 49.97535475 149.57819794 47.1875 146.4375 C45.85389229 143.90634897 44.70281923 141.4883475 43.61328125 138.859375 C43.29151413 138.11127563 42.96974701 137.36317627 42.63822937 136.59240723 C41.58118036 134.12863463 40.54075435 131.65819437 39.5 129.1875 C38.76369363 127.46395208 38.02604044 125.74097896 37.28710938 124.01855469 C36.1274327 121.31472257 34.96876607 118.61049792 33.81448364 115.90435791 C29.35826981 105.46088823 24.7703545 95.07584475 20.1875 84.6875 C18.66484096 81.23517541 17.14415678 77.78199197 15.625 74.328125 C15.29038254 73.5705188 14.95576508 72.8129126 14.61100769 72.03234863 C13.36104291 69.18917696 12.17028011 66.38584034 11.1875 63.4375 C11.18607498 64.45147858 11.18464996 65.46545715 11.18318176 66.51016235 C11.16649982 76.07400625 11.12368968 85.63742531 11.05540943 95.20104408 C11.02114362 100.11765243 10.99603008 105.03395019 10.99194336 109.95068359 C10.98765954 114.69719949 10.95918995 119.44301478 10.91406822 124.18931198 C10.90109588 125.99851778 10.89678462 127.80780743 10.90134621 129.61705399 C10.90625424 132.15513658 10.88015337 134.69117311 10.84692383 137.22900391 C10.85554947 137.97419281 10.86417511 138.71938171 10.87306213 139.4871521 C10.74758999 145.2177077 9.12019836 147.56479836 5.1875 151.4375 C2.49920844 152.69100011 0.1231296 152.78793719 -2.8125 152.4375 C-6.88702148 150.40023926 -9.17639861 148.67444027 -10.8125 144.4375 C-11.06976891 141.82248878 -11.06976891 141.82248878 -11.07992554 138.79580688 C-11.08845551 137.64624008 -11.09698547 136.49667328 -11.10577393 135.31227112 C-11.10486755 134.05502731 -11.10396118 132.79778351 -11.10302734 131.50244141 C-11.10901328 130.16184617 -11.11581898 128.82125438 -11.12338257 127.48066711 C-11.14104334 123.84216895 -11.14573797 120.20376487 -11.14701414 116.56522799 C-11.14843626 114.29103779 -11.15270702 112.01687148 -11.15800858 109.74268723 C-11.17650914 101.80598178 -11.18467916 93.86934349 -11.18310547 85.93261719 C-11.18190407 78.53895857 -11.20300581 71.14559188 -11.2345928 63.75200713 C-11.26075998 57.40027897 -11.27147258 51.04864613 -11.27019465 44.69686449 C-11.26968514 40.90495882 -11.27536195 37.11331261 -11.29655075 33.32146072 C-11.31594087 29.75413437 -11.31605287 26.18731474 -11.30151749 22.61997032 C-11.29843551 20.69121721 -11.31510053 18.76246402 -11.33239746 16.83378601 C-11.25505906 6.18388021 -11.25505906 6.18388021 -6.8125 1.4375 C-4.41706179 0.2397809 -2.67280046 0.1322375 0 0 Z " fill="#052974" transform="translate(120.8125,163.5625)"/>
<path d="M0 0 C1.35497337 -0.00855011 1.35497337 -0.00855011 2.73731995 -0.01727295 C4.65649238 -0.02673499 6.57568115 -0.03326169 8.49487305 -0.03710938 C11.3985753 -0.04673305 14.3015446 -0.07770998 17.20507812 -0.109375 C32.2438127 -0.19624075 45.79848779 1.1506396 57.53515625 11.6484375 C69.2752277 24.07542803 70.62228656 37.63285301 70.53515625 53.890625 C70.53785791 55.68318898 70.54174589 57.47575152 70.54675293 59.26831055 C70.55261635 63.00681652 70.5441878 66.74493758 70.52539062 70.48339844 C70.50260289 75.2442032 70.51574307 80.00410556 70.53968048 84.76487732 C70.55422445 88.46096435 70.54949336 92.15684201 70.53916931 95.85293579 C70.5365257 97.60698558 70.53968717 99.3610552 70.54908752 101.11508179 C70.61424044 116.68372364 68.36985666 129.15239991 57.34765625 140.98046875 C48.08500462 149.56589821 36.93106939 152.5097564 24.65234375 152.5390625 C23.18675522 152.5490477 23.18675522 152.5490477 21.69155884 152.55923462 C19.63586296 152.5693179 17.58013464 152.57405299 15.52441406 152.57373047 C12.3816174 152.57812121 9.24020655 152.61453494 6.09765625 152.65234375 C4.09505686 152.65820931 2.09245084 152.66218045 0.08984375 152.6640625 C-0.84671051 152.67843353 -1.78326477 152.69280457 -2.74819946 152.70761108 C-7.02400348 152.67764382 -9.3609957 152.59724362 -13.06396484 150.29931641 C-16.10754251 146.9973 -16.12601935 145.08733321 -16.1499939 140.68132019 C-16.15859436 139.50781509 -16.16719482 138.33431 -16.17605591 137.12524414 C-16.18031586 135.83118652 -16.18457581 134.53712891 -16.18896484 133.20385742 C-16.19686523 131.83238008 -16.20513414 130.46090482 -16.21374512 129.08943176 C-16.23997183 124.57917264 -16.25527301 120.0689042 -16.26953125 115.55859375 C-16.27489059 114.00658983 -16.2802681 112.45458597 -16.2856636 110.90258217 C-16.30729295 104.44730401 -16.32603017 97.99202837 -16.337286 91.53672314 C-16.35352871 82.28194214 -16.38671319 73.02758077 -16.44368684 63.77295798 C-16.48237167 57.2675854 -16.50191691 50.76232512 -16.50720656 44.25684053 C-16.51086198 40.37039438 -16.52290253 36.48439571 -16.5553093 32.59807396 C-16.58536503 28.94126833 -16.59171132 25.2851815 -16.57992554 21.62827873 C-16.5795993 19.6479813 -16.60408156 17.66772839 -16.62930298 15.68759155 C-16.56119112 6.00964752 -16.56119112 6.00964752 -13.58462524 2.9289093 C-9.02128323 -0.11348907 -5.36369781 0.02608523 0 0 Z M5.00390625 21.203125 C5.00390625 57.503125 5.00390625 93.803125 5.00390625 131.203125 C29.84237387 133.21558618 29.84237387 133.21558618 42.00390625 126.203125 C44.2895075 124.0064419 44.2895075 124.0064419 45.56640625 121.578125 C46.02144531 120.82273437 46.47648437 120.06734375 46.9453125 119.2890625 C49.07789303 115.08685585 49.14610534 111.6772889 49.1809082 107.01293945 C49.1874794 106.28408035 49.1940506 105.55522125 49.20082092 104.80427551 C49.22053315 102.39165133 49.23221351 99.97908942 49.2421875 97.56640625 C49.24626303 96.74066793 49.25033855 95.91492962 49.25453758 95.06416893 C49.27539216 90.69130072 49.289695 86.31846381 49.29907227 81.94555664 C49.31011931 77.44089667 49.34450095 72.93673303 49.38424397 68.43224812 C49.41046212 64.95854306 49.41876882 61.48495518 49.42235374 58.0111599 C49.42720839 56.35145921 49.43879029 54.69176335 49.45739174 53.03215981 C49.6418953 39.52208328 49.6418953 39.52208328 43.07421875 27.9609375 C42.43226563 27.42210937 41.7903125 26.88328125 41.12890625 26.328125 C40.17371094 25.49667969 40.17371094 25.49667969 39.19921875 24.6484375 C29.00395558 17.93625356 16.8574854 21.203125 5.00390625 21.203125 Z " fill="#042974" transform="translate(226.99609375,358.796875)"/>
<path d="M0 0 C9.26633772 6.74898264 15.50688662 16.10875518 17.46875 27.45703125 C17.55859084 29.07439587 17.60333138 30.69472788 17.60919189 32.3145752 C17.61490204 33.26502213 17.62061218 34.21546906 17.62649536 35.19471741 C17.62817215 36.74092018 17.62817215 36.74092018 17.62988281 38.31835938 C17.63733017 39.96063759 17.63733017 39.96063759 17.64492798 41.63609314 C17.65951932 45.25349558 17.66634531 48.87085423 17.671875 52.48828125 C17.67762734 55.00264487 17.68338507 57.51700848 17.68914795 60.03137207 C17.69830712 64.62742303 17.70461203 69.22346143 17.7076447 73.81952047 C17.71212946 80.57794873 17.72970415 87.33617514 17.7586453 94.09454203 C17.78287466 99.95662552 17.79058925 105.81864167 17.79232025 111.68077087 C17.79534998 114.17188112 17.80338924 116.66299044 17.81650543 119.15406799 C17.83352953 122.63476966 17.83169473 126.1149769 17.82519531 129.59570312 C17.8344101 130.62650497 17.84362488 131.65730682 17.8531189 132.71934509 C17.80130392 141.56223177 17.80130392 141.56223177 14.46875 145.45703125 C10.45016405 148.13608855 7.19233279 148.15313819 2.46875 147.45703125 C-0.40154869 145.66309457 -2.02256638 144.47439849 -3.53125 141.45703125 C-3.65224762 138.5510281 -3.71699865 135.66493529 -3.7421875 132.7578125 C-3.77027021 130.97329834 -3.79893475 129.18879326 -3.828125 127.40429688 C-3.86928106 124.59123118 -3.90616725 121.7783324 -3.93261719 118.96508789 C-3.96036076 116.24980564 -4.00624678 113.53529416 -4.0546875 110.8203125 C-4.05794037 109.98776443 -4.06119324 109.15521637 -4.06454468 108.29743958 C-4.20414737 101.60783976 -5.48527219 96.87989971 -9.90625 91.64453125 C-14.54322838 87.7803826 -18.40631438 87.04409774 -24.32421875 87.2109375 C-29.19176962 87.75369096 -32.24243611 89.90574954 -35.34375 93.51953125 C-38.76172899 98.10938875 -38.69265927 101.36967258 -38.7421875 106.9375 C-38.77027083 108.67644147 -38.79893538 110.41537363 -38.828125 112.15429688 C-38.86927497 114.89493402 -38.90616186 117.63540017 -38.93261719 120.3762207 C-38.96036942 123.02201307 -39.00625565 125.66701582 -39.0546875 128.3125 C-39.05794037 129.12317429 -39.06119324 129.93384857 -39.06454468 130.76908875 C-39.19265418 136.75312649 -40.1577573 141.73191 -44.21875 146.39453125 C-47.67526709 147.98266072 -50.85502251 148.21908992 -54.53125 147.45703125 C-57.53183103 145.83090992 -60.03629284 143.89630253 -61.1830492 140.56168365 C-61.54946873 138.34691062 -61.66002826 136.27749449 -61.66496277 134.03259277 C-61.66922775 133.15253571 -61.67349274 132.27247864 -61.67788696 131.36575317 C-61.67743378 130.40780853 -61.67698059 129.44986389 -61.67651367 128.46289062 C-61.67987228 127.44770355 -61.6832309 126.43251648 -61.68669128 125.38656616 C-61.69620199 122.02462545 -61.69814488 118.66273459 -61.69921875 115.30078125 C-61.70243274 112.95869934 -61.70579692 110.61661762 -61.70930481 108.27453613 C-61.71529744 103.35847509 -61.71714472 98.44243163 -61.71655273 93.52636719 C-61.71645145 87.25000135 -61.73006846 80.97374949 -61.74732494 74.69741058 C-61.7584898 69.85530081 -61.76047052 65.01321812 -61.75994301 60.1710968 C-61.76111772 57.8588268 -61.76551073 55.54655597 -61.77327538 53.23429871 C-61.88041941 18.01201171 -61.88041941 18.01201171 -49.90625 5.14453125 C-36.51762734 -7.60272027 -15.82315769 -9.64528903 0 0 Z M-38.53125 25.45703125 C-39.67440747 27.74334619 -39.65237732 29.00050531 -39.64477539 31.53955078 C-39.64469986 32.3802713 -39.64462433 33.22099182 -39.64454651 34.08718872 C-39.63938522 34.99556488 -39.63422394 35.90394104 -39.62890625 36.83984375 C-39.6274913 37.76924774 -39.62607635 38.69865173 -39.62461853 39.65621948 C-39.61901053 42.63152249 -39.60645668 45.60675089 -39.59375 48.58203125 C-39.58873603 50.59635308 -39.58417295 52.61067609 -39.58007812 54.625 C-39.5690385 59.56903927 -39.55176849 64.5130226 -39.53125 69.45703125 C-38.9021875 69.24481934 -38.273125 69.03260742 -37.625 68.81396484 C-32.07520529 67.03055001 -27.35935416 66.04678062 -21.53125 66.08203125 C-20.2525 66.07429688 -18.97375 66.0665625 -17.65625 66.05859375 C-12.7310154 66.31613839 -8.17612255 67.89010063 -3.53125 69.45703125 C-3.45678529 64.03103598 -3.40249963 58.60534185 -3.36645508 53.17895508 C-3.35142012 51.33515233 -3.33098667 49.49138503 -3.30493164 47.64770508 C-3.26831439 44.98900575 -3.25147057 42.33078154 -3.23828125 39.671875 C-3.22279739 38.85492661 -3.20731354 38.03797821 -3.19136047 37.1962738 C-3.18943251 30.55724986 -4.46916984 25.90923469 -8.84375 20.70703125 C-13.79100655 16.56514204 -17.87591724 14.86132091 -24.29296875 15.109375 C-30.88048022 16.13256614 -34.72297881 20.30466435 -38.53125 25.45703125 Z " fill="#042974" transform="translate(388.53125,363.54296875)"/>
<path d="M0 0 C7.53208901 5.81046866 12.3058588 14.57382702 14.32421875 23.79296875 C14.43434186 26.73937004 14.49176466 29.6627857 14.5012207 32.60961914 C14.5077919 33.49961609 14.5143631 34.38961304 14.52113342 35.30657959 C14.54083761 38.25126231 14.55252489 41.19589401 14.5625 44.140625 C14.56657553 45.14925535 14.57065105 46.1578857 14.57485008 47.19708061 C14.59570219 52.53950673 14.61000559 57.88190725 14.61938477 63.22436523 C14.63042537 68.72299023 14.66480077 74.22120791 14.70455647 79.71968937 C14.73079836 83.96384902 14.7390835 88.2079129 14.74266624 92.45214653 C14.74751548 94.477785 14.75908161 96.50341968 14.77770424 98.52897835 C14.90076104 112.80522514 14.33640724 124.16814716 4.66796875 135.49609375 C-4.46864046 144.44997078 -14.32651617 147.26423845 -26.7578125 147.22241211 C-37.80606296 146.93563444 -45.66655354 142.77007931 -53.55078125 135.11328125 C-64.34741405 123.32431088 -64.14053929 109.94607894 -64.109375 94.8046875 C-64.11394439 92.85471923 -64.1192522 90.90475257 -64.1252594 88.95478821 C-64.13416304 84.8790531 -64.13179962 80.80351421 -64.12182617 76.7277832 C-64.1103534 71.53660903 -64.13053633 66.34611683 -64.15974331 61.15503216 C-64.17820169 57.13037398 -64.17779352 53.10587624 -64.17210579 49.08118629 C-64.17195368 47.16886248 -64.17790546 45.25652702 -64.19039726 43.344244 C-64.27853557 27.63923628 -63.18601479 14.75411853 -51.86328125 2.89453125 C-37.60122012 -10.73493846 -16.00512389 -10.17594219 0 0 Z M-38.25 19.51171875 C-42.17049356 24.81393353 -42.8297445 29.18774051 -42.8527832 35.7175293 C-42.8593544 36.52441696 -42.8659256 37.33130463 -42.87269592 38.16264343 C-42.89241735 40.83499242 -42.90409025 43.50728518 -42.9140625 46.1796875 C-42.91813803 47.09368631 -42.92221355 48.00768513 -42.92641258 48.94938087 C-42.94727051 53.7890869 -42.96157224 58.62876461 -42.97094727 63.46850586 C-42.98199836 68.45741719 -43.01638402 73.44588086 -43.05611897 78.43463421 C-43.08231911 82.2789236 -43.09064222 86.12310699 -43.09422874 89.9674778 C-43.09908757 91.80580473 -43.11068145 93.64412716 -43.12926674 95.48236656 C-43.15372612 98.06241215 -43.1526808 100.64130849 -43.14575195 103.22143555 C-43.15856201 103.97342224 -43.17137207 104.72540894 -43.18457031 105.50018311 C-43.1255165 111.56773799 -41.43241495 116.87821447 -37.19299793 121.36080456 C-32.117247 125.76164072 -27.87188713 126.14707277 -21.3984375 126.0703125 C-16.13116179 125.53376074 -13.2024274 122.5236631 -9.86328125 118.73046875 C-6.42023287 114.10694664 -6.51783644 110.21393291 -6.4987793 104.66894531 C-6.4922081 103.84094421 -6.4856369 103.01294312 -6.47886658 102.15985107 C-6.45914527 99.41776437 -6.44747317 96.67573242 -6.4375 93.93359375 C-6.43342447 92.99628166 -6.42934895 92.05896957 -6.42514992 91.09325409 C-6.40429349 86.13150757 -6.38999029 81.16978868 -6.38061523 76.20800781 C-6.3695557 71.08896712 -6.3351598 65.97036169 -6.29544353 60.85147476 C-6.26926911 56.91029057 -6.26092263 52.96920993 -6.25733376 49.02794647 C-6.25246943 47.14134534 -6.24085981 45.25474879 -6.22229576 43.36823273 C-6.19788808 40.72333013 -6.19887223 38.0795516 -6.20581055 35.43457031 C-6.18659546 34.27314514 -6.18659546 34.27314514 -6.16699219 33.08825684 C-6.21968085 27.5574371 -7.54231729 24.36663423 -10.67578125 19.79296875 C-15.61308012 15.2259673 -19.62096986 13.29760396 -26.30078125 13.484375 C-31.10083311 14.10806595 -34.96643869 15.92668903 -38.25 19.51171875 Z " fill="#052974" transform="translate(165.67578125,365.20703125)"/>
<path d="M0 0 C11.107087 12.41380312 11.05040197 27.05296986 10.9921875 42.75390625 C10.99421242 44.6872112 10.99712732 46.62051539 11.00088501 48.55381775 C11.00528763 52.58909437 10.99894339 56.62417065 10.98486328 60.65942383 C10.96776118 65.80929264 10.9776323 70.95869264 10.99558067 76.10854435 C11.0064646 80.09532653 11.00295129 84.08199908 10.9951973 88.06878471 C10.99320861 89.96683242 10.99560728 91.86489037 11.00263596 93.7629261 C11.04101208 107.03409678 10.52662721 117.64519209 2.59375 128.78125 C2.01625 129.6475 1.43875 130.51375 0.84375 131.40625 C-5.84240945 138.46386275 -15.26167255 143.11587714 -24.96484375 144.01953125 C-36.06146142 144.30560416 -45.96104254 141.99965189 -54.48046875 134.6171875 C-55.11597656 134.01132812 -55.75148438 133.40546875 -56.40625 132.78125 C-56.96957031 132.25789062 -57.53289063 131.73453125 -58.11328125 131.1953125 C-68.63891172 120.26997455 -68.13858606 106.56587889 -68.03515625 92.43359375 C-68.03598656 90.36959203 -68.03845202 88.30559039 -68.04246521 86.24159241 C-68.04531065 81.93388768 -68.0307436 77.62670649 -68.00317383 73.3190918 C-67.9690722 67.82282604 -67.97512871 62.32749409 -67.9938364 56.83118343 C-68.00444976 52.57495972 -67.99542962 48.31894992 -67.98045158 44.06274605 C-67.97530256 42.03714192 -67.9757113 40.01151515 -67.98199654 37.98591423 C-68.01205434 22.48363623 -66.7667793 10.93586019 -55.88671875 -0.8671875 C-49.63866102 -6.85680975 -40.52918374 -10.76708155 -31.87890625 -11.28515625 C-19.80183737 -10.96081159 -9.03781468 -8.35571546 0 0 Z M-41.21875 14.59375 C-45.47333599 18.84833599 -46.74285342 22.99319253 -46.82394409 28.97114563 C-46.81944244 29.75209091 -46.8149408 30.53303619 -46.81030273 31.33764648 C-46.81716599 32.17583923 -46.82402924 33.01403198 -46.83110046 33.87762451 C-46.84933478 36.63603876 -46.8455358 39.39388242 -46.83984375 42.15234375 C-46.84440718 44.0775623 -46.84971324 46.00277921 -46.85572815 47.92799377 C-46.86465265 51.95865506 -46.86224364 55.98911814 -46.85229492 60.01977539 C-46.8408064 65.17578494 -46.86101838 70.3311095 -46.89021206 75.48702908 C-46.90859003 79.46169861 -46.9082784 83.43620447 -46.90257454 87.41090584 C-46.90242152 89.31144229 -46.90844989 91.21198998 -46.92086601 93.11248589 C-46.93580439 95.7739095 -46.92507846 98.4340738 -46.90795898 101.09545898 C-46.91762695 101.87438004 -46.92729492 102.65330109 -46.93725586 103.45582581 C-46.86296446 108.99310253 -45.53941052 112.19940763 -42.40625 116.78125 C-38.30756085 120.66974997 -34.70139432 122.52142234 -29.09375 123.15625 C-23.15989423 122.55280704 -18.49845719 120.35936525 -14.53125 115.84375 C-10.81159462 110.48307019 -10.10789112 106.16352722 -10.11572266 99.72143555 C-10.10900543 98.9240094 -10.10228821 98.12658325 -10.09536743 97.30499268 C-10.07641245 94.67592082 -10.07246438 92.04710464 -10.0703125 89.41796875 C-10.06388236 87.5833984 -10.05715383 85.74882908 -10.05014038 83.91426086 C-10.03817353 80.07017643 -10.0344589 76.22618182 -10.03564453 72.38208008 C-10.03584758 67.46941744 -10.00855782 62.55733423 -9.97410011 57.64480877 C-9.95180153 53.85540653 -9.94780791 50.06614302 -9.94886398 46.2766819 C-9.94651201 44.46627622 -9.9377113 42.65586649 -9.92219925 40.84552574 C-9.90248089 38.30636059 -9.9083998 35.76843554 -9.92041016 33.22924805 C-9.90355164 32.12000725 -9.90355164 32.12000725 -9.88635254 30.98835754 C-9.95821117 24.97388478 -11.71216456 19.78143273 -15.78277016 15.24833202 C-23.99390073 7.89420525 -32.56557457 9.01725916 -41.21875 14.59375 Z " fill="#042974" transform="translate(67.40625,173.21875)"/>
<path d="M0 0 C6.08143172 3.95050383 8.52715933 9.13426501 11.6171875 15.55078125 C12.11920685 16.56472458 12.6212262 17.57866791 13.13845825 18.62333679 C14.73062886 21.84669738 16.30299722 25.07926357 17.875 28.3125 C18.9544342 30.50649696 20.03514964 32.69986407 21.1171875 34.89257812 C23.75967373 40.25451293 26.38599073 45.62412982 29 51 C36.10298504 37.63263883 36.10298504 37.63263883 42.93359375 24.125 C43.22891998 23.52647217 43.52424622 22.92794434 43.82852173 22.3112793 C45.00380892 19.92477537 46.17585642 17.53671203 47.34155273 15.14550781 C48.22103715 13.34437678 49.10844315 11.54712054 49.99609375 9.75 C50.50325928 8.71359375 51.0104248 7.6771875 51.53295898 6.609375 C53.28827837 3.48724926 54.59520025 1.41565236 58.0859375 0.3828125 C61.91439756 -0.04837925 64.33019809 -0.28502209 67.9375 1.25 C71.17517849 3.99712114 71.95811642 5.69871505 72.54663086 9.93212891 C72.37551047 16.59869752 68.65423585 21.55954269 65.25390625 27.0859375 C63.82376852 29.52634935 62.42170157 31.98230809 61.02441406 34.44165039 C60.66010694 35.08245513 60.29579981 35.72325987 59.92045307 36.38348293 C41.29391721 69.32005757 36.91936066 97.26072145 39.70097351 134.80192566 C39.77999405 135.94502701 39.85901459 137.08812836 39.94042969 138.26586914 C40.06402863 139.75407921 40.06402863 139.75407921 40.19012451 141.27235413 C39.90529787 145.35865637 38.04988277 147.87234813 35.3125 150.8125 C31.91635199 152.5564679 28.6895784 152.68081506 25 152 C22.1899654 150.20636089 20.49059532 148.98119065 19 146 C19.03831672 144.20001944 19.14652402 142.40137456 19.28662109 140.60644531 C22.58750272 92.75356726 13.23024092 60.07799563 -11.70959473 19.26367188 C-14.085915 15.09505178 -14.32712188 11.74326727 -14 7 C-12.74544028 4.17724064 -11.71615278 2.53711459 -9.25 0.6875 C-5.9260257 -0.32815881 -3.46313738 -0.41796486 0 0 Z " fill="#042974" transform="translate(440,359)"/>
<path d="M0 0 C0.77859375 0.05027344 1.5571875 0.10054687 2.359375 0.15234375 C3.51179688 0.20068359 3.51179688 0.20068359 4.6875 0.25 C11.41628696 2.58336967 14.50978889 11.36856585 17.41015625 17.30078125 C17.8913945 18.26891754 18.37263275 19.23705383 18.86845398 20.23452759 C20.3938566 23.30760533 21.90799833 26.38607438 23.421875 29.46484375 C24.45824408 31.55765843 25.49534575 33.65011049 26.53320312 35.7421875 C29.06708903 40.85390596 31.59176867 45.97008944 34.109375 51.08984375 C36.18229246 48.45252737 37.82624206 45.87891831 39.2824707 42.85961914 C39.68331375 42.03518814 40.0841568 41.21075714 40.49714661 40.36134338 C40.92218979 39.47897507 41.34723297 38.59660675 41.78515625 37.6875 C42.70447755 35.80895076 43.62441879 33.93070481 44.54492188 32.05273438 C45.98623606 29.10210328 47.42318412 26.14962857 48.84936523 23.19165039 C50.23180611 20.3296422 51.63201493 17.47690446 53.03515625 14.625 C53.45412674 13.74465591 53.87309723 12.86431183 54.30476379 11.95729065 C56.89544738 6.73182497 59.26171527 3.39470559 64.109375 0.08984375 C67.33122914 -0.50447886 70.0195583 0.04036142 73.109375 1.08984375 C76.40747471 3.74441181 77.00083682 5.36012527 77.62084961 9.52856445 C77.48288752 15.85677885 73.58147314 20.78307284 70.36328125 26.0078125 C51.12353455 58.73386625 42.69689365 85.01415991 44.33032227 123.16870117 C44.37546384 124.2473656 44.37546384 124.2473656 44.42151737 125.34782124 C44.57095345 128.73176805 44.7670194 132.09607707 45.03694153 135.47358704 C45.68992507 145.23104585 45.68992507 145.23104585 42.76220703 148.87670898 C39.16178526 151.88037393 36.7178632 152.49180114 32.109375 152.08984375 C27.84152687 150.3827045 26.11509457 148.15168804 24.109375 144.08984375 C23.81590271 141.07284546 23.81590271 141.07284546 23.92749023 137.67333984 C23.95999374 136.39365326 23.99249725 135.11396667 24.02598572 133.79550171 C24.04969679 133.11514233 24.07340786 132.43478294 24.09783745 131.73380661 C24.1691534 129.57746167 24.21478094 127.42197854 24.25270081 125.26480103 C24.36191134 119.13322649 24.49048009 113.00310826 24.69897461 106.87402344 C25.27039633 89.495754 25.68636084 75.26907888 15.5640564 60.35479736 C12.86450774 56.15157286 10.76577096 51.63471464 8.57421875 47.15234375 C7.65571193 45.31309473 6.73579278 43.47455034 5.81445312 41.63671875 C5.13298218 40.27063477 5.13298218 40.27063477 4.43774414 38.87695312 C3.0194718 36.03493153 1.59681075 33.1951344 0.17382812 30.35546875 C-0.73463226 28.53788898 -1.64284525 26.72018553 -2.55078125 24.90234375 C-2.97359879 24.05873291 -3.39641632 23.21512207 -3.83204651 22.34594727 C-4.22012985 21.56662842 -4.6082132 20.78730957 -5.00805664 19.984375 C-5.34873672 19.30221924 -5.68941681 18.62006348 -6.04042053 17.91723633 C-7.94266398 13.82863684 -8.35422065 10.57126835 -7.890625 6.08984375 C-5.453125 3.21484375 -5.453125 3.21484375 -2.890625 1.08984375 C-1.890625 0.08984375 -1.890625 0.08984375 0 0 Z " fill="#082C76" transform="translate(286.890625,163.91015625)"/>
<path d="M0 0 C0.6946637 -0.0049649 1.38932739 -0.00992981 2.1050415 -0.01504517 C4.40223177 -0.02964548 6.69935299 -0.03646503 8.99658203 -0.04199219 C10.59457399 -0.04774518 12.19256593 -0.05350289 13.79055786 -0.05926514 C17.14129966 -0.06976891 20.4920175 -0.07561572 23.84277344 -0.07910156 C28.13241169 -0.08458651 32.42173257 -0.10861699 36.71127129 -0.13707352 C40.01243002 -0.15571363 43.31351248 -0.16090621 46.61471939 -0.16243744 C48.19594178 -0.16546115 49.77716292 -0.17348023 51.35833359 -0.18662262 C53.57246691 -0.20371315 55.78582714 -0.20179603 58 -0.1953125 C59.25892059 -0.19895813 60.51784119 -0.20260376 61.81491089 -0.20635986 C65.39522835 0.19060708 67.26073776 1.03009786 70.12939453 3.16113281 C72.6957197 6.5828997 72.49374504 10.00753702 72.12939453 14.16113281 C70.43365246 17.97655248 68.99585952 19.67025717 65.12939453 21.16113281 C62.28857422 21.38818359 62.28857422 21.38818359 59.05126953 21.35644531 C57.31103516 21.34677734 57.31103516 21.34677734 55.53564453 21.33691406 C54.32908203 21.32015625 53.12251953 21.30339844 51.87939453 21.28613281 C50.04634766 21.27259766 50.04634766 21.27259766 48.17626953 21.25878906 C45.16044671 21.23522795 42.14501961 21.20232988 39.12939453 21.16113281 C39.1330817 21.80074039 39.13676888 22.44034796 39.14056778 23.09933758 C39.22891832 38.6648581 39.29510376 54.23029138 39.33664322 69.79600048 C39.35726553 77.32348322 39.38537958 84.85079855 39.43115234 92.37817383 C39.47103052 98.93930734 39.49682976 105.50031961 39.50574851 112.06157094 C39.51096169 115.5355307 39.52320699 119.00914362 39.55231476 122.48299217 C39.58455099 126.3616929 39.5853533 130.2400548 39.58349609 134.11889648 C39.60506775 135.84519539 39.60506775 135.84519539 39.6270752 137.60636902 C39.58662157 145.39480284 39.58662157 145.39480284 37.22601318 149.35127258 C33.96564084 152.16571776 31.56610089 152.55604817 27.23486328 152.51660156 C23.47370338 151.88160054 21.72648405 149.88490962 19.12939453 147.16113281 C18.13572069 144.18011129 18.00596929 142.24129506 18.00914001 139.1308136 C18.00776535 138.09174866 18.00639069 137.05268372 18.00497437 135.98213196 C18.00856964 134.84277695 18.01216492 133.70342194 18.01586914 132.52954102 C18.01572311 131.32941376 18.01557709 130.1292865 18.01542664 128.89279175 C18.01600433 125.6017275 18.02102299 122.31072581 18.02800059 119.01967263 C18.03424773 115.58035227 18.03483901 112.14103109 18.036026 108.70170593 C18.0391353 102.1888014 18.04734329 95.67591364 18.05737549 89.1630165 C18.06854908 81.74833821 18.07405022 74.33365913 18.07907093 66.91897452 C18.08952622 51.6663509 18.10711791 36.41374402 18.12939453 21.16113281 C17.36796143 21.18208008 16.60652832 21.20302734 15.82202148 21.22460938 C12.36211422 21.30791076 8.90241815 21.35983866 5.44189453 21.41113281 C4.24371094 21.44464844 3.04552734 21.47816406 1.81103516 21.51269531 C0.65410156 21.52558594 -0.50283203 21.53847656 -1.69482422 21.55175781 C-2.75789795 21.57270508 -3.82097168 21.59365234 -4.91625977 21.61523438 C-8.59151241 21.05032487 -10.22331781 19.71606978 -12.87060547 17.16113281 C-14.60068114 13.70098146 -14.35413277 9.94440727 -13.87060547 6.16113281 C-10.22448499 0.12617478 -6.6765137 0.03625721 0 0 Z " fill="#042A74" transform="translate(13.87060546875,358.8388671875)"/>
<path d="M0 0 C0.77085937 0.04382813 1.54171875 0.08765625 2.3359375 0.1328125 C5.8724193 1.27945336 6.72648809 2.64630357 8.625 5.875 C9.21330788 9.88716334 9.12968772 13.86901521 9.07910156 17.91723633 C9.07968567 19.13716278 9.08026978 20.35708923 9.08087158 21.61398315 C9.07856544 24.95074788 9.0585334 28.28651759 9.03057575 31.62310624 C9.00553739 35.1131027 9.0032182 38.60311301 8.99847412 42.09318542 C8.98605142 48.69822422 8.95323964 55.30299757 8.91307616 61.90791959 C8.86833626 69.42901571 8.84636588 76.95012464 8.82629442 84.47132075 C8.78450616 99.93936746 8.71416815 115.40714947 8.625 130.875 C9.26002441 130.85405273 9.89504883 130.83310547 10.54931641 130.81152344 C13.44938076 130.72795419 16.34919116 130.67621226 19.25 130.625 C20.24902344 130.59148437 21.24804688 130.55796875 22.27734375 130.5234375 C28.39307573 130.44243443 32.00416863 130.72174991 36.625 134.875 C38.12655335 137.77938866 38.56093672 140.61359643 38.625 143.875 C37.31491227 146.95370616 35.97040984 148.52959016 33.625 150.875 C29.94349557 152.23262581 26.06585688 152.05410481 22.19140625 152.078125 C21.47645493 152.08382507 20.7615036 152.08952515 20.02488708 152.09539795 C18.51619943 152.10482114 17.00749144 152.11137125 15.4987793 152.11523438 C13.19868985 152.12495272 10.89948987 152.1560049 8.59960938 152.1875 C7.13021361 152.19402971 5.66081149 152.19928031 4.19140625 152.203125 C3.50792618 152.2154718 2.82444611 152.2278186 2.12025452 152.24053955 C-2.23892764 152.22033194 -4.9302996 151.56513975 -8.375 148.875 C-11.3293168 145.66556979 -11.75340236 143.5147228 -11.76940918 139.19534302 C-11.78075897 138.03736206 -11.79210876 136.8793811 -11.80380249 135.68630981 C-11.79940659 133.786418 -11.79940659 133.786418 -11.79492188 131.84814453 C-11.80226316 130.49769387 -11.81084956 129.14724948 -11.82058716 127.79681396 C-11.84280759 124.13142005 -11.84573355 120.46625091 -11.84383965 116.80079889 C-11.84371995 113.73921904 -11.85228375 110.67768682 -11.86061716 107.61612022 C-11.87985367 100.39167153 -11.88273441 93.16733838 -11.87597656 85.94287109 C-11.86933742 78.49460419 -11.892194 71.04683273 -11.92929029 63.59866631 C-11.95999987 57.20021434 -11.97134593 50.80192162 -11.96745348 44.40339744 C-11.965387 40.58349874 -11.97084872 36.76398545 -11.99534607 32.94415665 C-12.01763158 29.35046153 -12.01572159 25.75757076 -11.99541855 22.16387177 C-11.99039006 20.22080175 -12.01001483 18.27771663 -12.03042603 16.33474731 C-11.93865395 6.80760232 -11.93865395 6.80760232 -8.96154785 3.10714722 C-5.63593152 0.23719636 -4.28088793 -0.32711104 0 0 Z " fill="#082D77" transform="translate(232.375,164.125)"/>
</svg>
