<?xml version="1.0" encoding="UTF-8"?>
<svg version="1.1" xmlns="http://www.w3.org/2000/svg" width="512" height="512">
<path d="M0 0 C1.29017532 -0.00902847 2.58035065 -0.01805695 3.90962219 -0.02735901 C6.62865698 -0.04377155 9.34756966 -0.05153618 12.06665039 -0.05444336 C15.54725991 -0.05985184 19.02672244 -0.09766291 22.50700665 -0.14318752 C25.83800027 -0.18007605 29.16880897 -0.181467 32.5 -0.1875 C33.74794846 -0.20703232 34.99589691 -0.22656464 36.28166199 -0.24668884 C38.01915459 -0.23757225 38.01915459 -0.23757225 39.79174805 -0.22827148 C40.80988083 -0.23334213 41.82801361 -0.23841278 42.8769989 -0.24363708 C45.55078125 0.37109375 45.55078125 0.37109375 47.91462708 2.68199158 C49.55078125 5.37109375 49.55078125 5.37109375 49.48828125 8.99609375 C48.23332093 13.51395089 48.23332093 13.51395089 45.55078125 15.37109375 C42.54740131 16.3722204 40.57958649 16.48993708 37.44360352 16.48120117 C35.88036095 16.48206978 35.88036095 16.48206978 34.28553772 16.48295593 C32.59345436 16.47979118 32.59345436 16.47979118 30.8671875 16.4765625 C28.47069418 16.49002833 26.0742092 16.50505324 23.67773438 16.52148438 C19.90571311 16.54422949 16.13462888 16.55866462 12.36254883 16.54614258 C8.71758276 16.53726354 5.07446239 16.56638782 1.4296875 16.6015625 C-0.23506874 16.58321602 -0.23506874 16.58321602 -1.93345642 16.5644989 C-11.01556507 16.70312216 -18.8249197 19.28122193 -25.72068787 25.38005066 C-34.57712944 34.60741896 -34.5995523 45.92699611 -34.59448242 58.02270508 C-34.59784103 59.1780928 -34.60119965 60.33348053 -34.60466003 61.52388 C-34.61413893 65.33363935 -34.61611161 69.1433546 -34.6171875 72.953125 C-34.61958914 74.93773827 -34.62199265 76.92235154 -34.62464792 78.90696448 C-34.63277337 85.14444115 -34.63523391 91.38190341 -34.63452148 97.61938477 C-34.63392123 104.03193935 -34.644467 110.44440967 -34.66026515 116.85694295 C-34.67338582 122.38161479 -34.67870348 127.90625925 -34.67806607 133.43094653 C-34.6778124 136.72207857 -34.68152568 140.01311928 -34.69124413 143.30423927 C-34.70108231 146.97999618 -34.69815073 150.65553819 -34.69213867 154.33129883 C-34.70056793 155.94400665 -34.70056793 155.94400665 -34.70916748 157.58929443 C-34.66628123 167.95000409 -33.77908075 178.63839334 -26.43359375 186.5390625 C-17.8012298 194.5988717 -9.9932128 196.55576696 1.73046875 196.37109375 C3.31510428 196.36993553 4.89974333 196.37131663 6.484375 196.375 C8.95634093 196.3794151 11.42451281 196.37112008 13.89599609 196.31982422 C27.5441315 196.06118212 27.5441315 196.06118212 32.22412109 199.11621094 C34.30912076 201.41638137 35.92015641 203.73252912 37.55078125 206.37109375 C38.70569657 207.90406971 39.86971304 209.43023366 41.04296875 210.94921875 C42.17493978 212.50333911 43.30247684 214.06069775 44.42578125 215.62109375 C49.44095392 222.52255194 54.55737129 229.31349437 59.85546875 236 C61.55078125 238.37109375 61.55078125 238.37109375 61.55078125 240.37109375 C62.21078125 240.37109375 62.87078125 240.37109375 63.55078125 240.37109375 C63.95913208 239.50327271 63.95913208 239.50327271 64.37573242 238.61791992 C65.54680596 236.37869495 66.84980144 234.45193809 68.3515625 232.421875 C68.91061279 231.66390625 69.46966309 230.9059375 70.0456543 230.125 C70.64547119 229.31933594 71.24528809 228.51367188 71.86328125 227.68359375 C72.48050049 226.85085937 73.09771973 226.018125 73.73364258 225.16015625 C78.03496895 219.3717827 82.37031286 213.60933155 86.73828125 207.87109375 C87.27815674 207.15993408 87.81803223 206.44877441 88.37426758 205.71606445 C88.87982178 205.05566162 89.38537598 204.39525879 89.90625 203.71484375 C90.34606201 203.13927734 90.78587402 202.56371094 91.23901367 201.97070312 C91.67189697 201.44283203 92.10478027 200.91496094 92.55078125 200.37109375 C92.96225297 199.85080705 93.37372468 199.33052035 93.79766524 198.79446739 C96.2215496 196.82648975 97.81102356 196.99664384 100.91240501 196.99750614 C102.03201445 196.9905164 103.15162389 196.98352665 104.30516088 196.97632509 C105.54044015 196.98390115 106.77571942 196.9914772 108.0484314 196.99928284 C109.35672618 196.99545827 110.66502095 196.99163371 112.01296103 196.98769325 C115.65247605 196.97738966 119.29174972 196.98574257 122.93125319 196.99699008 C126.85378808 197.00582305 130.77628807 196.99734629 134.69882202 196.99078369 C141.50047373 196.98161425 148.30205803 196.98296616 155.10371017 196.9909687 C164.95197404 197.00219072 174.80014167 196.99316685 184.64839716 196.9784069 C200.64433994 196.9546142 216.64027086 196.94126683 232.63623047 196.93725586 C234.07303759 196.93688856 234.07303759 196.93688856 235.53887112 196.93651383 C246.21459433 196.93397043 256.89031661 196.93339971 267.56604004 196.93444824 C271.43123372 196.93478123 275.2964274 196.93506664 279.16162109 196.93530273 C280.59213234 196.93539692 280.59213234 196.93539692 282.0515428 196.935493 C297.97473109 196.93609861 313.89786475 196.92118175 329.82103026 196.89446968 C339.63829834 196.87868713 349.45538973 196.876383 359.27265961 196.8916037 C366.00863783 196.90109305 372.74450991 196.89627575 379.48047571 196.88038988 C383.3626169 196.87172208 387.2444757 196.86949059 391.12660217 196.88491631 C394.68878851 196.89895689 398.25046634 196.8942605 401.81262584 196.87539529 C403.6947497 196.87013574 405.57689787 196.88438944 407.45896757 196.89960581 C418.70257069 196.80541743 429.47516357 194.85354125 437.6938715 186.67632198 C444.21521893 178.58050892 445.28120482 170.16686553 445.18188477 160.07202148 C445.18904007 158.78925323 445.19619537 157.50648499 445.2035675 156.18484497 C445.22192733 152.69912966 445.20924319 149.2141889 445.18947721 145.7285068 C445.17296379 142.06167789 445.18192093 138.39489319 445.18699646 134.7280426 C445.19150281 128.57418597 445.17573738 122.42063475 445.14770508 116.2668457 C445.1156453 109.17470001 445.1156791 102.08310434 445.13291985 94.99091953 C445.14883866 88.13779337 445.14201806 81.28486688 445.12498283 74.43174934 C445.11815016 71.52885616 445.11910543 68.62612487 445.12652779 65.72323418 C445.1356827 61.66210784 445.11154138 57.60181631 445.08422852 53.54077148 C445.09075439 52.35035751 445.09728027 51.15994354 445.10400391 49.93345642 C444.99925325 40.73861211 443.18699973 31.89079638 436.54942942 25.08072358 C428.00362237 17.77069928 418.95362017 16.50004397 408.08180237 16.62506104 C406.65606603 16.61973442 405.23033756 16.61177123 403.80462879 16.60142779 C399.91893011 16.5807168 396.03415588 16.59689703 392.14850056 16.61947513 C387.94608202 16.63726323 383.7437832 16.6201973 379.54136658 16.60740662 C372.26996772 16.58990288 364.99884168 16.59395174 357.72744942 16.61264801 C347.20899638 16.63948573 336.69079432 16.63121494 326.17233144 16.61415944 C309.09736178 16.58723385 292.02249023 16.58548254 274.94750977 16.60107422 C258.37881659 16.61612254 241.81015546 16.62425787 225.24145508 16.61962891 C224.2199083 16.61934906 223.19836152 16.61906921 222.14585877 16.61878088 C210.99590524 16.61545509 199.84595586 16.60934124 188.69600582 16.59991074 C187.22677306 16.59867618 187.22677306 16.59867618 185.72785882 16.59741668 C181.81272646 16.5940893 177.89759418 16.59073187 173.98246216 16.58701727 C162.51937864 16.57621133 151.0563719 16.57411693 139.59329002 16.58771029 C132.40942909 16.59602633 125.22558664 16.59795754 118.04172159 16.59484753 C113.89527063 16.59338442 109.74889005 16.59537624 105.60245132 16.6061306 C101.80864963 16.61596048 98.01495946 16.61671865 94.22115158 16.61023566 C92.19535788 16.60922409 90.16956682 16.61817674 88.14379412 16.6274569 C86.94295119 16.6236916 85.74210825 16.6199263 84.50487614 16.61604691 C82.94999582 16.61750808 82.94999582 16.61750808 81.36370379 16.61899877 C78.38079101 16.35611238 76.22965392 15.69026845 73.55078125 14.37109375 C71.38358919 11.71135805 71.55543262 10.28271779 71.73828125 6.80859375 C72.78782222 2.36822812 72.78782222 2.36822812 75.55078125 0.37109375 C78.14736694 -0.00610441 78.14736694 -0.00610441 81.33686733 -0.00922298 C82.55114515 -0.01766293 83.76542296 -0.02610287 85.01649708 -0.03479856 C86.3710609 -0.02900272 87.72562353 -0.02292166 89.08018494 -0.0165863 C90.51378137 -0.0207567 91.94737451 -0.0262326 93.38096148 -0.03290612 C97.33023063 -0.04741958 101.27929215 -0.04309762 105.22857296 -0.0357393 C109.48443342 -0.03102409 113.74024787 -0.04350325 117.99609375 -0.05375671 C126.339727 -0.07098607 134.68328509 -0.07177569 143.02693152 -0.06654381 C149.81118582 -0.06250637 156.59541786 -0.06394062 163.3796711 -0.06929207 C164.34440102 -0.07004049 165.30913095 -0.07078891 166.30309512 -0.07156001 C168.26289475 -0.07309148 170.22269437 -0.07462983 172.18249399 -0.07617498 C190.57998675 -0.0899165 208.97743704 -0.08445212 227.37492884 -0.07298977 C244.19580883 -0.0630691 261.01657863 -0.07597494 277.83744162 -0.09992396 C295.10871553 -0.12432875 312.37993816 -0.13391861 329.65122896 -0.12727123 C339.34763162 -0.12378035 349.04394967 -0.12600175 358.74033928 -0.14352226 C367.00046229 -0.15826203 375.26044121 -0.15885719 383.52056145 -0.14145135 C387.73268839 -0.13295105 391.94455813 -0.13076758 396.15667152 -0.14610291 C400.01918033 -0.1599906 403.88121261 -0.15513492 407.74369413 -0.13586367 C409.1347899 -0.13211557 410.5259242 -0.13499106 411.9169855 -0.14547532 C426.56137367 -0.24792438 438.027922 3.31257305 448.7734375 13.47265625 C459.22326213 24.52798474 461.85205055 35.87168557 461.84130859 50.64331055 C461.84730063 51.98446524 461.85410772 53.32561651 461.86166382 54.66676331 C461.87926602 58.29515659 461.88401685 61.92345541 461.88529539 65.55188727 C461.88672125 67.82429775 461.89099914 70.09668455 461.89628983 72.36908913 C461.91477358 80.31272519 461.92296284 88.25629432 461.92138672 96.19995117 C461.92018695 103.57821654 461.94126101 110.95618862 461.97287405 118.33437985 C461.99912357 124.68965919 462.00975034 131.04484328 462.0084759 137.40017635 C462.00796865 141.18664013 462.01351891 144.97284327 462.034832 148.75925255 C462.0543606 152.3258158 462.05424068 155.89187376 462.03979874 159.45845604 C462.03674892 161.37171283 462.05328574 163.28497047 462.07067871 165.19815063 C461.97124275 179.03711824 457.70923566 189.72400764 448.26171875 199.81640625 C435.60502848 211.99093689 421.21847582 213.73292374 404.28128052 213.52844238 C402.30907809 213.51782065 400.33687565 213.50719941 398.36467313 213.49659446 C396.24734788 213.48319706 394.1301239 213.46468165 392.01285172 213.44463158 C387.46481454 213.40170851 382.91675133 213.37337202 378.36859131 213.34712219 C373.46566914 213.3181664 368.56276292 213.28817987 363.65987802 213.25342369 C351.51187875 213.16758905 339.36404235 213.1147192 327.21578979 213.08166504 C326.33507817 213.0792068 325.45436654 213.07674856 324.54696669 213.07421583 C317.2993226 213.05403852 310.05167524 213.03513762 302.80402771 213.01624811 C296.28910625 212.99911236 289.7741901 212.98062948 283.25927734 212.96044922 C281.86638533 212.95615625 281.86638533 212.95615625 280.44535409 212.95177656 C265.39458056 212.90361356 250.34470089 212.79770871 235.29439618 212.67241985 C219.81495155 212.5450687 204.33629537 212.48656646 188.85632408 212.48980856 C179.32192222 212.48951857 169.79100042 212.43519057 160.25740145 212.31039977 C153.72052463 212.22984285 147.18558458 212.21584956 140.64832772 212.25326514 C136.88126061 212.27284324 133.12023902 212.26384308 129.35403824 212.17493629 C114.49766442 211.31415147 114.49766442 211.31415147 100.98532248 216.14856148 C96.66222822 220.31147049 93.55235281 225.00811263 90.71214843 230.26734066 C89.19068247 233.02339299 87.34311606 235.4606586 85.40234375 237.93359375 C84.32481676 239.41129964 83.24919464 240.89039703 82.17578125 242.37109375 C68.69020433 260.80138221 68.69020433 260.80138221 65.55078125 262.37109375 C62.09644573 262.75490881 60.20006001 262.79147424 57.24609375 260.87890625 C53.69621056 257.57597146 51.04472838 253.8724176 48.23828125 249.93359375 C47.0081482 248.23449014 45.77630799 246.53662149 44.54296875 244.83984375 C43.89811523 243.95167969 43.25326172 243.06351563 42.58886719 242.1484375 C39.07667268 237.36229415 35.47021789 232.64851937 31.86328125 227.93359375 C31.18031982 227.040354 30.4973584 226.14711426 29.79370117 225.22680664 C28.57582849 223.63446299 27.35733726 222.04259204 26.13793945 220.45141602 C24.55078125 218.37109375 24.55078125 218.37109375 23.21923828 216.13500977 C21.63131941 214.1110143 21.63131941 214.1110143 18.83032227 213.85693359 C17.74936279 213.84871582 16.66840332 213.84049805 15.5546875 213.83203125 C13.75547852 213.79722656 13.75547852 213.79722656 11.91992188 213.76171875 C10.66373047 213.7565625 9.40753906 213.75140625 8.11328125 213.74609375 C-9.41029236 213.56114838 -24.48574784 212.15212841 -37.88671875 199.80859375 C-45.27631305 191.8702672 -50.54287423 181.60203545 -50.6031189 170.66261292 C-50.61171936 169.49791977 -50.62031982 168.33322662 -50.62918091 167.13323975 C-50.63344086 165.85894104 -50.63770081 164.58464233 -50.64208984 163.27172852 C-50.64999587 161.91293633 -50.65826513 160.55414622 -50.66687012 159.19535828 C-50.69304627 154.73442578 -50.70839972 150.27348415 -50.72265625 145.8125 C-50.72801894 144.27243482 -50.73339646 142.73236969 -50.7387886 141.19230461 C-50.76041654 134.7798535 -50.7791481 128.36740484 -50.790411 121.95492649 C-50.80661539 112.7914289 -50.83970814 103.62835764 -50.89681184 94.46502072 C-50.93566026 88.00873948 -50.95506157 81.55257152 -50.96033156 75.09617656 C-50.96396655 71.2475077 -50.97578692 67.39929397 -51.0084343 63.55075264 C-51.03877656 59.92180115 -51.04473542 56.29357387 -51.03305054 52.66452217 C-51.03272877 50.71918012 -51.05702255 48.77388101 -51.08242798 46.82870483 C-50.98543957 32.95319762 -46.15479385 22.30141479 -36.57421875 12.44140625 C-25.83224939 2.34915277 -14.25421563 0.06155294 0 0 Z " fill="#000000" transform="translate(50.44921875,-0.37109375)"/>
<path d="M0 0 C0.68181335 0.00021149 1.36362671 0.00042297 2.06610107 0.00064087 C13.12486167 0.03481384 23.36385015 0.99098824 33.9375 4.375 C35.07316406 4.73722656 36.20882812 5.09945313 37.37890625 5.47265625 C65.91830513 15.60397113 89.51571626 36.38930765 102.75 63.625 C115.59243755 91.10559255 117.26561844 123.61134007 106.96801758 152.20068359 C101.84174085 165.4930965 94.57866739 177.88268622 84.9375 188.375 C84.49035645 188.86452148 84.04321289 189.35404297 83.58251953 189.85839844 C68.95352472 205.69768771 50.66116081 216.5916528 29.9375 222.375 C28.86242187 222.6946875 27.78734375 223.014375 26.6796875 223.34375 C-2.09377771 230.55380625 -32.40758236 224.59957491 -57.8828125 210.3359375 C-83.19535645 194.72549885 -100.92752292 171.12873847 -109.30859375 142.625 C-111.5952013 132.76770734 -112.45053685 123.44771703 -112.4375 113.3125 C-112.43728851 112.63068665 -112.43707703 111.94887329 -112.43685913 111.24639893 C-112.40268616 100.18763833 -111.44651176 89.94864985 -108.0625 79.375 C-107.70027344 78.23933594 -107.33804688 77.10367188 -106.96484375 75.93359375 C-96.54972147 46.59472388 -75.40329338 23.39766802 -47.4375 10 C-31.97177793 2.88597703 -16.9815699 -0.02184325 0 0 Z M-69.375 45.3125 C-87.22900848 63.48533006 -96.63322318 88.05254577 -97.0625 113.375 C-96.66516571 136.34363117 -88.31441121 157.48430294 -74.0625 175.375 C-72.8039422 172.88966617 -71.59372867 170.38793923 -70.3984375 167.87109375 C-61.07004369 148.4197363 -49.33847055 136.01298527 -30.0625 126.375 C-31.38940906 123.51994449 -32.90206205 121.19665128 -34.875 118.75 C-43.22385101 107.70665428 -45.97061615 96.68589133 -44.66015625 82.93359375 C-42.55220707 70.3823408 -36.80172707 60.8034395 -26.8125 53.0625 C-15.15441064 45.18031003 -3.87209091 43.96494934 9.9375 45.375 C22.17017725 47.96268173 31.24159346 55.2888179 38.515625 65.1875 C45.77479414 76.35545252 46.86378006 89.85367286 44.25390625 102.75390625 C42.40164043 108.1569887 39.6386361 112.78145644 36.3046875 117.40234375 C34.87411025 119.34011162 34.87411025 119.34011162 33.9453125 121.56640625 C32.9375 123.375 32.9375 123.375 29.9375 124.375 C32.43291741 127.20032005 35.19956047 128.7185372 38.5 130.5 C55.89861837 140.49003901 67.91751413 156.38026196 73.9375 175.375 C77.89849932 171.69991788 80.71122258 167.96443864 83.4375 163.3125 C83.82768311 162.64911621 84.21786621 161.98573242 84.61987305 161.30224609 C97.22895837 139.45349596 101.35769611 112.80440506 94.84472656 88.18286133 C89.78565485 71.20700636 81.16846396 57.18945948 68.9375 44.375 C68.41027344 43.77300781 67.88304687 43.17101562 67.33984375 42.55078125 C52.1506627 25.88541381 28.41399772 17.55589744 6.5 15.5 C-22.39946361 14.27544646 -48.80713679 25.1036768 -69.375 45.3125 Z M-20.0625 67.375 C-26.12186055 73.66397842 -29.50033306 81.04855999 -30.12109375 89.765625 C-29.93856659 97.8941678 -26.40404245 105.34124903 -21.0625 111.375 C-12.2274542 118.65183667 -4.40619101 120.33065012 6.9375 119.375 C15.16159822 117.67778305 20.86388915 112.92626127 25.9375 106.375 C30.34755935 99.21905464 30.94669475 91.61002916 29.9375 83.375 C27.48876105 74.17973539 23.09809364 68.87737389 15.25390625 63.70703125 C3.22368718 56.78914811 -9.38986202 59.024905 -20.0625 67.375 Z M-43.41015625 153.53515625 C-51.73757543 162.37601938 -57.79938313 173.39379306 -60.0625 185.375 C-59.89794895 188.37531421 -59.27524928 189.17108023 -57.0859375 191.26953125 C-45.00544908 200.01808555 -32.55409594 205.12748573 -18.0625 208.375 C-17.29019043 208.5500708 -16.51788086 208.7251416 -15.72216797 208.90551758 C10.07411988 213.45905728 35.38672403 206.67661851 56.6796875 192.171875 C59.14092417 190.40095234 59.14092417 190.40095234 60.9375 187.375 C59.63613448 174.00642695 51.27664864 161.46881199 41.9375 152.375 C41.33550781 151.74078125 40.73351562 151.1065625 40.11328125 150.453125 C16.93082306 127.72325276 -21.01892588 132.93224378 -43.41015625 153.53515625 Z " fill="#000000" transform="translate(112.0625,286.625)"/>
<path d="M0 0 C1.33092303 -0.00551503 1.33092303 -0.00551503 2.6887334 -0.01114148 C5.6679678 -0.02217252 8.64716731 -0.02602118 11.62641907 -0.02983093 C13.76016348 -0.036096 15.8939068 -0.04274284 18.02764893 -0.04974365 C25.04013815 -0.07078062 32.05262759 -0.08114546 39.06513977 -0.09111023 C41.47948022 -0.09515787 43.89382056 -0.09927479 46.30816078 -0.10346031 C57.65056545 -0.12251089 68.99296362 -0.13674241 80.33538121 -0.14507228 C93.42715478 -0.15484569 106.51875933 -0.18116865 119.61047333 -0.22157317 C129.73035758 -0.25173384 139.85019336 -0.26654111 149.97012168 -0.26985329 C156.01395752 -0.27220375 162.05761276 -0.28116406 168.10140038 -0.30631447 C173.78872522 -0.32959923 179.47575058 -0.33382661 185.16311073 -0.32355309 C187.2476056 -0.32305772 189.33211524 -0.3293782 191.41656494 -0.34310913 C194.26870846 -0.36084211 197.1197788 -0.3537148 199.97192383 -0.34057617 C201.20084784 -0.35703004 201.20084784 -0.35703004 202.45459861 -0.37381631 C209.66678271 -0.29394492 215.58603279 1.85248763 221.11592102 6.52217102 C228.08844318 14.88919761 228.97278437 21.73070689 228.48701477 32.22090149 C227.84323994 38.9754007 224.37431544 43.83691076 219.30342102 48.14717102 C218.68467102 48.70404602 218.06592102 49.26092102 217.42842102 49.83467102 C211.77634831 53.32565711 205.76232945 53.43777232 199.32200623 53.40786743 C197.99948894 53.41360575 197.99948894 53.41360575 196.65025413 53.41946 C193.70792157 53.42974515 190.76578579 53.42580637 187.82344055 53.42182922 C185.70895711 53.42617818 183.59447525 53.43136195 181.47999573 53.43731689 C175.74443389 53.45069849 170.00893799 53.45128647 164.27336359 53.4487536 C159.48214243 53.44768329 154.69093457 53.4525688 149.89971626 53.45735902 C138.59465849 53.46845136 127.28963394 53.46889317 115.98457336 53.46284485 C104.32900332 53.4568048 92.67355399 53.46911755 81.01800454 53.49041492 C71.00420969 53.50803841 60.99045323 53.51403108 50.97664344 53.51077718 C44.99884692 53.50896533 39.0211365 53.51159069 33.04335403 53.52549171 C27.42085517 53.53807748 21.79854429 53.53611871 16.17604828 53.52308083 C14.11574871 53.52071712 12.05543588 53.52344231 9.99515152 53.53170395 C7.17615181 53.54219051 4.35778064 53.53405533 1.5388031 53.52139282 C0.72934868 53.52876711 -0.08010574 53.53614139 -0.91408908 53.54373914 C-8.25751221 53.47465351 -15.77106203 51.91125898 -21.34892273 46.79951477 C-26.95077085 39.93116186 -29.27031958 31.89671524 -28.69657898 23.14717102 C-27.217819 15.47767009 -24.3023232 8.58652547 -17.89189148 3.79951477 C-11.93739019 0.23448073 -6.78768064 -0.00150691 0 0 Z M-10.69657898 19.14717102 C-13.26290415 22.56893791 -13.06092949 25.99357523 -12.69657898 30.14717102 C-11.49135503 32.8589249 -10.54375579 34.54641251 -8.11776543 36.2667551 C-4.52781086 37.57217012 -0.97919374 37.43258302 2.79240417 37.42132568 C3.65730158 37.42656236 4.52219898 37.43179904 5.4133054 37.43719441 C8.31666523 37.45221784 11.21984918 37.45290007 14.12324524 37.4535675 C16.20274657 37.46118736 18.28224507 37.46961456 20.36174011 37.47879028 C26.01462381 37.50075812 31.6674534 37.50953716 37.32037497 37.51461673 C40.85088463 37.51825732 44.38138006 37.5244958 47.91188431 37.53161812 C60.22518284 37.55611967 72.5384392 37.56916623 84.85176086 37.57270813 C96.33528185 37.57634488 107.8185358 37.6062486 119.30197513 37.64811271 C129.1568544 37.68278222 139.01164503 37.69825599 148.8665849 37.69895416 C154.75442359 37.69974806 160.64199032 37.70853857 166.52976608 37.73695183 C172.06694661 37.76307533 177.60362856 37.76536944 183.14084244 37.74929619 C185.17338394 37.74747721 187.20595373 37.75421275 189.23843384 37.7701149 C192.0130394 37.79050047 194.78588817 37.78006815 197.56047058 37.76190186 C198.36514609 37.77510182 199.1698216 37.78830179 199.99888122 37.80190176 C204.07188561 37.74097414 206.56911888 37.33319324 209.79297066 34.73765659 C212.81415002 31.62015956 213.25656556 30.22101931 213.47529602 26.07295227 C213.138273 22.29676257 211.28743374 20.15021978 208.72112179 17.5342617 C205.19164486 15.5093194 201.7667796 15.73350321 197.80770874 15.76622009 C196.50930428 15.75920013 196.50930428 15.75920013 195.18466944 15.75203836 C192.27886716 15.74005491 189.37353359 15.74955873 186.46772766 15.75898743 C184.38660405 15.75492319 182.30548259 15.74958214 180.22436523 15.74305725 C174.56736837 15.72935948 168.91053531 15.73469272 163.25353551 15.74419451 C157.33814753 15.75177935 151.42277377 15.74474867 145.50738525 15.74003601 C135.57161435 15.73457461 125.6359103 15.74177974 115.70014954 15.75605774 C104.20871783 15.77238046 92.71744584 15.76709998 81.22601801 15.75057852 C71.36605431 15.73696929 61.50613871 15.73504139 51.64616865 15.74289453 C45.75453444 15.7475747 39.86297531 15.74818649 33.9713459 15.73828506 C28.43178512 15.72962607 22.89243041 15.73561795 17.35289192 15.75296783 C15.31833234 15.75693855 13.28375545 15.75578866 11.24920273 15.74917984 C8.47460576 15.74099737 5.70067154 15.75124616 2.92611694 15.76622009 C2.11852859 15.75952793 1.31094024 15.75283576 0.47887951 15.7459408 C-4.09176724 15.79387485 -7.05480411 16.32095753 -10.69657898 19.14717102 Z " fill="#000000" transform="translate(282.6965789794922,296.8528289794922)"/>
<path d="M0 0 C1.33198138 -0.00445668 1.33198138 -0.00445668 2.69087148 -0.0090034 C5.67244351 -0.01768909 8.65397539 -0.01919854 11.63555908 -0.02069092 C13.77092576 -0.02531918 15.90629161 -0.03034386 18.04165649 -0.03573608 C23.84755643 -0.0488613 29.6534448 -0.05530529 35.45935726 -0.05974674 C39.08636315 -0.06267729 42.71336588 -0.06678206 46.34037018 -0.07125092 C57.6875802 -0.0849262 69.03478299 -0.09459269 80.38200068 -0.09845281 C93.48224351 -0.1029337 106.58238201 -0.12048298 119.68259311 -0.1494534 C129.80755793 -0.17106726 139.9324934 -0.18115693 150.05748105 -0.18249393 C156.10516192 -0.18354217 162.15274472 -0.18945415 168.20040131 -0.20731354 C173.89014947 -0.22378899 179.57972578 -0.22595218 185.26948929 -0.21717453 C187.3560113 -0.21640388 189.44254254 -0.22075056 191.52904129 -0.23063278 C194.38138159 -0.24334828 197.23311289 -0.23747747 200.08544922 -0.22705078 C201.3187425 -0.23913539 201.3187425 -0.23913539 202.57695079 -0.25146413 C209.75514119 -0.19025735 216.47889101 1.47197669 221.90997314 6.53106689 C228.04487729 13.65101199 229.18052992 21.22299003 228.71856689 30.35137939 C227.86434145 38.02358937 225.21185134 43.11255637 219.29669189 48.14044189 C218.67794189 48.69731689 218.05919189 49.25419189 217.42169189 49.82794189 C212.58088884 52.81784966 207.30112017 53.39116226 201.7180481 53.41459656 C200.43669983 53.42457169 199.15535156 53.43454681 197.83517456 53.44482422 C196.43286145 53.4457198 195.03054818 53.44638348 193.62823486 53.44683838 C192.13779285 53.45446738 190.64735475 53.46289615 189.15692139 53.47206116 C185.12406323 53.49392947 181.09128085 53.50279372 177.05837011 53.5078876 C174.5374306 53.51153774 172.01651075 53.51778095 169.49557877 53.52488899 C160.69766624 53.54934875 151.89981246 53.5624296 143.10186768 53.565979 C134.90431342 53.56962017 126.70713219 53.59956571 118.50969207 53.64138359 C111.46493207 53.67606024 104.420296 53.69152692 97.37545121 53.69222504 C93.17053287 53.69301821 88.96599564 53.70177648 84.76116562 53.7302227 C80.80962522 53.75636148 76.8587833 53.75863268 72.90719604 53.74256706 C71.45797326 53.74074968 70.00871065 53.74746957 68.55957413 53.76338577 C66.58027559 53.7837991 64.60071424 53.77032166 62.62136841 53.75517273 C61.51416883 53.75718406 60.40696926 53.75919538 59.26621819 53.76126766 C55.31288424 52.93476157 53.80275533 51.23721074 51.29669189 48.14044189 C50.67169189 45.14044189 50.67169189 45.14044189 51.29669189 42.14044189 C53.7938644 39.06009423 55.30600417 37.34898062 59.24057007 36.52075863 C60.88314285 36.52440347 60.88314285 36.52440347 62.55889893 36.52812195 C63.82066956 36.51861511 65.08244019 36.50910828 66.38244629 36.49931335 C67.77313692 36.51394355 69.16382292 36.52901887 70.55450439 36.54449463 C72.02494752 36.54259005 73.49538919 36.53843317 74.96582031 36.53219604 C78.1280461 36.52341181 81.2897228 36.53014723 84.4519043 36.54885674 C89.45255636 36.57795977 94.4527358 36.57015328 99.45343018 36.55696106 C109.16527231 36.53630188 118.87688548 36.55189585 128.5887146 36.57243347 C140.95073676 36.59757964 153.31263153 36.61044204 165.67465782 36.58247715 C170.64521759 36.57252257 175.6152108 36.5826538 180.58570862 36.60838497 C183.67799751 36.62055742 186.77010953 36.61635273 189.86240387 36.60780716 C191.29549861 36.60727215 192.72861501 36.6136079 194.16164398 36.62734795 C196.11917623 36.64520481 198.07689866 36.63615283 200.03448486 36.6257782 C201.67705765 36.62998858 201.67705765 36.62998858 203.35281372 36.63428402 C207.00162811 36.02218727 208.67188055 34.69792114 211.29669189 32.14044189 C212.45781654 29.14934201 212.60339021 26.32669657 212.29669189 23.14044189 C210.53165875 20.21900773 209.33821555 18.66120372 206.29669189 17.14044189 C203.53447998 17.04023457 200.79734074 17.00148841 198.03475952 17.00672913 C197.17015983 17.00446357 196.30556015 17.00219801 195.41476047 16.9998638 C192.50055368 16.99350391 189.58639316 16.99435444 186.67218018 16.99517822 C184.58973124 16.99218796 182.50728285 16.98878575 180.42483521 16.98500061 C174.75544142 16.97614266 169.08606272 16.97382174 163.41666269 16.97318482 C158.68984341 16.97223713 153.96302767 16.96856044 149.23620975 16.96501273 C138.08726058 16.95686127 126.93831948 16.95442912 115.78936768 16.95513916 C104.27527128 16.95574008 92.76122173 16.94518701 81.24713719 16.9293955 C71.37365311 16.91633485 61.50018436 16.91095464 51.6266917 16.91159457 C45.72445016 16.91185 39.82225021 16.90897406 33.92001724 16.89841652 C28.36986587 16.88876039 22.81979606 16.88863924 17.26964188 16.89593315 C15.22982159 16.89698211 13.18999629 16.89459778 11.15018463 16.88857269 C8.37088995 16.88089362 5.59187979 16.88547041 2.81259155 16.89320374 C1.5947934 16.88548839 1.5947934 16.88548839 0.35239327 16.87761718 C-4.98856387 16.89972579 -4.98856387 16.89972579 -9.70330811 19.14044189 C-12.24689778 22.57428796 -11.999371 25.99556133 -11.70330811 30.14044189 C-10.8744872 32.69597303 -10.29719975 33.74678517 -8.06463623 35.22662354 C-4.86871308 36.46342465 -2.09580953 36.41533557 1.32794189 36.44903564 C2.70945669 36.47418699 4.09096701 36.49958513 5.47247314 36.52520752 C7.63831505 36.55397069 9.80407959 36.5780058 11.97003174 36.59674072 C14.06889679 36.61842026 16.16688224 36.65784646 18.26544189 36.69903564 C19.51776611 36.71249023 20.77009033 36.72594482 22.06036377 36.73980713 C25.50200063 37.16585768 26.91313715 37.6623644 29.29669189 40.14044189 C30.40042568 44.11388351 30.71212772 46.23043961 28.98419189 50.01544189 C27.29669189 52.14044189 27.29669189 52.14044189 25.29669189 53.14044189 C20.71464587 53.37757436 16.12854034 53.36893236 11.54107666 53.38067627 C9.26717423 53.39030227 6.99420713 53.4212839 4.72052002 53.45294189 C-4.65662063 53.52171956 -13.97413141 53.55746594 -21.35565186 46.79278564 C-26.95749997 39.92443273 -29.27704871 31.88998612 -28.70330811 23.14044189 C-27.22454812 15.47094096 -24.30905233 8.57979635 -17.89862061 3.79278564 C-11.94012826 0.22536212 -6.79204862 -0.00708105 0 0 Z " fill="#000000" transform="translate(283.70330810546875,448.85955810546875)"/>
<path d="M0 0 C0.6728613 -0.00382555 1.3457226 -0.00765109 2.03897363 -0.01159257 C4.27438031 -0.0218412 6.50952623 -0.01794618 8.74494934 -0.01396179 C10.35523718 -0.01831259 11.96552295 -0.02349697 13.57580566 -0.02944946 C17.93504828 -0.04280619 22.29420404 -0.04342221 26.65346313 -0.04088616 C30.2944503 -0.03981492 33.93542001 -0.04470338 37.57640344 -0.04949158 C46.1628722 -0.06057369 54.7492972 -0.06103045 63.33576965 -0.05497742 C72.19557465 -0.04892794 81.05522122 -0.06127627 89.91499919 -0.08254749 C97.52534122 -0.10014743 105.13563274 -0.10616768 112.74599439 -0.10290974 C117.29002878 -0.10109532 121.83394996 -0.10374955 126.37796593 -0.11762428 C130.64701023 -0.1301731 134.91580651 -0.12828666 139.18484688 -0.11521339 C140.75219175 -0.1128422 142.31955393 -0.11560167 143.88687897 -0.12383652 C146.0245667 -0.13425957 148.16141512 -0.12624038 150.29907227 -0.11352539 C152.09399251 -0.113777 152.09399251 -0.113777 153.92517376 -0.1140337 C157.25593288 0.29736454 158.63443439 0.87208673 160.95906067 3.26069641 C162.06279445 7.23413803 162.37449649 9.35069413 160.64656067 13.13569641 C158.95906067 15.26069641 158.95906067 15.26069641 156.95906067 16.26069641 C154.84180707 16.35628112 152.72146089 16.38534338 150.60205078 16.38526917 C149.94233428 16.38667931 149.28261778 16.38808946 148.60290986 16.38954234 C146.38200603 16.39320583 144.16116563 16.38985431 141.94026184 16.38667297 C140.3520401 16.38806726 138.76381873 16.38996625 137.17559814 16.39233398 C133.74995818 16.39683649 130.32433021 16.39868719 126.89868736 16.39879608 C121.48252692 16.39993463 116.06643493 16.41275978 110.65029907 16.42835999 C109.28021227 16.43221927 109.28021227 16.43221927 107.88244694 16.43615651 C106.0144265 16.44142325 104.1464061 16.44670873 102.27838576 16.45201254 C89.66566728 16.48714717 77.05303329 16.51367363 64.44026184 16.51118469 C55.93723921 16.50959693 47.43444924 16.52561285 38.93150121 16.56189132 C34.43032121 16.58036825 29.92952974 16.58967933 25.42831993 16.57741547 C21.19363255 16.56598998 16.95964091 16.57765552 12.72504616 16.60704994 C11.17103967 16.61369796 9.61696964 16.61181089 8.06298828 16.60075188 C5.94016602 16.58689847 3.81969865 16.60374778 1.69702148 16.62818909 C0.50958438 16.62965565 -0.67785273 16.63112221 -1.90127277 16.63263321 C-5.97696577 17.44794042 -7.45947417 19.07323684 -10.04093933 22.26069641 C-11.33436804 26.06014326 -11.23559369 27.72795818 -9.85343933 31.51069641 C-7.87851347 34.50713565 -7.33734551 35.10824572 -4.04093933 36.26069641 C-1.18875701 36.45304111 1.56499768 36.53476612 4.41680908 36.52139282 C5.70908821 36.52713114 5.70908821 36.52713114 7.02747399 36.53298539 C9.91936346 36.5433187 12.81105451 36.53932261 15.70295715 36.53535461 C17.77422774 36.53970089 19.84549673 36.54488376 21.91676331 36.55084229 C27.54686596 36.56425231 33.17690157 36.56480874 38.80701709 36.56227899 C43.50402242 36.56121067 48.2010141 36.56608905 52.89801651 36.57088441 C63.97705004 36.58198644 75.05604966 36.58241302 86.13508606 36.57637024 C97.57197964 36.57032828 109.00875026 36.58264555 120.44562286 36.60394031 C130.2588719 36.62154145 140.07208175 36.62756003 149.885346 36.62430257 C155.74904189 36.62248725 161.61265008 36.62515066 167.47633171 36.63901711 C172.98961658 36.65156667 178.50270939 36.64967854 184.01599121 36.63660622 C186.04087958 36.63423465 188.06578135 36.63699579 190.09065437 36.64522934 C192.85210372 36.65564938 195.61290298 36.64763434 198.37432861 36.63491821 C199.17802602 36.6422925 199.98172342 36.64966678 200.80977529 36.65726453 C205.36015694 36.61309862 208.35206237 36.11219647 211.95906067 33.26069641 C213.67868727 29.82144321 213.34126031 26.02905079 212.95906067 22.26069641 C211.23217022 18.97138127 210.51698057 18.44666971 206.95906067 17.26069641 C205.60960666 17.17185764 204.25671664 17.12932348 202.90437317 17.12007141 C201.73454895 17.0910675 201.73454895 17.0910675 200.54109192 17.06147766 C198.91112975 17.02779005 197.28077507 17.00940703 195.65046692 17.00679016 C191.30594636 16.87080023 189.46569486 16.6550354 185.92781067 13.90132141 C183.95906067 11.26069641 183.95906067 11.26069641 183.33406067 8.26069641 C184.20321866 4.08873804 185.56294274 2.83455124 188.95906067 0.26069641 C192.37001435 -0.45498806 195.67341713 -0.40400855 199.14656067 -0.30180359 C200.5612262 -0.27473328 200.5612262 -0.27473328 202.00447083 -0.24711609 C210.97264804 0.06368541 217.48485266 1.35216826 223.89656067 7.94819641 C229.63628711 15.28529954 230.89921738 23.11072058 229.95906067 32.26069641 C228.73105908 39.10874129 225.55204436 45.01366652 219.95906067 49.26069641 C210.60943112 54.99498989 199.5972678 53.82346322 189.06257629 53.77827454 C186.93941774 53.78370019 184.81626294 53.79082533 182.69311523 53.79951477 C176.94725694 53.81769818 171.20168702 53.81070107 165.4558239 53.79799843 C159.43203348 53.78784498 153.40826713 53.79727062 147.38447571 53.80354309 C137.27013229 53.81081265 127.15590584 53.80124987 117.0415802 53.78218079 C105.36149359 53.76041348 93.68168631 53.76746533 82.00160646 53.78948641 C71.95884456 53.80766003 61.91616657 53.8101891 51.87339354 53.79973173 C45.88162377 53.79350763 39.88998513 53.79263143 33.89822388 53.80587769 C28.2641224 53.81746404 22.63037977 53.80935928 16.99631691 53.78630066 C14.93321642 53.78102848 12.87008554 53.78250168 10.8069973 53.79135132 C-11.07718865 53.87654247 -11.07718865 53.87654247 -19.44328308 47.40132141 C-26.4370034 38.78819002 -28.19524224 31.4144838 -27.04093933 20.26069641 C-25.51358729 13.02104774 -22.04752068 8.66861687 -16.55265808 3.85444641 C-11.39164461 0.57965092 -6.00242547 0.01028783 0 0 Z " fill="#000000" transform="translate(282.0409393310547,372.7393035888672)"/>
<path d="M0 0 C1.09828125 -0.01546875 1.09828125 -0.01546875 2.21875 -0.03125 C5.44527444 0.7201324 7.0615023 2.26981967 9.5 4.5 C11.24511719 7.32495117 11.24511719 7.32495117 12.796875 10.54296875 C13.36277344 11.69861328 13.92867188 12.85425781 14.51171875 14.04492188 C15.09160912 15.25889339 15.6710309 16.47308884 16.25 17.6875 C17.40781268 20.07860742 18.57146777 22.46683057 19.734375 24.85546875 C20.24194336 25.91403076 20.74951172 26.97259277 21.27246094 28.06323242 C22.28448519 30.38894492 22.28448519 30.38894492 23.5 31.5 C25.49689088 31.83410209 27.50315644 32.11248214 29.51171875 32.3671875 C30.74470703 32.53089844 31.97769531 32.69460937 33.24804688 32.86328125 C35.85414898 33.20180319 38.46091994 33.53521892 41.06835938 33.86328125 C42.30779297 34.02957031 43.54722656 34.19585937 44.82421875 34.3671875 C45.95947998 34.51269043 47.09474121 34.65819336 48.2644043 34.80810547 C53.28756211 35.88224938 56.61644721 37.17467082 59.5 41.5 C60.49470247 46.01692762 60.48330192 49.92824537 57.9921875 53.91015625 C53.1717086 59.42062527 47.5276042 64.53184909 41.62890625 68.87890625 C39.08026363 70.94489599 37.63142623 72.35002045 37.25 75.6875 C37.46924668 78.68387125 37.94769432 81.54533402 38.5 84.5 C38.90858879 86.78435918 39.31039963 89.06968191 39.70532227 91.35644531 C39.97961196 92.92080609 40.26731552 94.48288982 40.57006836 96.04199219 C41.43740438 100.78655462 41.59669127 104.71985653 40.5 109.5 C37.99569579 112.88817628 36.41092357 114.25401694 32.33203125 115.35546875 C27.4383772 115.54004082 24.57957122 114.15574663 20.3125 111.9375 C19.63380859 111.60169922 18.95511719 111.26589844 18.25585938 110.91992188 C17.55912109 110.57380859 16.86238281 110.22769531 16.14453125 109.87109375 C15.41081299 109.51265381 14.67709473 109.15421387 13.92114258 108.78491211 C11.5 107.5 11.5 107.5 8.7253418 105.67016602 C2.91391087 102.04507315 2.91391087 102.04507315 -3.68676758 102.22485352 C-7.06316361 103.80139584 -10.15715383 105.58105769 -13.3125 107.5625 C-26.72855701 115.5 -26.72855701 115.5 -32.5 115.5 C-36.3406797 114.24439317 -38.01002159 113.25561591 -40.21484375 109.85546875 C-41.73473246 105.88712711 -41.5021156 102.9500461 -40.8125 98.875 C-40.71018066 98.17785889 -40.60786133 97.48071777 -40.50244141 96.76245117 C-40.18986157 94.67084689 -39.8503689 92.58557717 -39.5 90.5 C-39.30535156 89.33339844 -39.11070313 88.16679687 -38.91015625 86.96484375 C-38.57511943 84.9913057 -38.22919597 83.0195504 -37.8671875 81.05078125 C-37.74601562 80.20902344 -37.62484375 79.36726563 -37.5 78.5 C-37.37882812 77.67628906 -37.25765625 76.85257812 -37.1328125 76.00390625 C-37.68798958 72.21807108 -39.76292254 70.72076096 -42.5 68.125 C-42.99822266 67.64603271 -43.49644531 67.16706543 -44.00976562 66.67358398 C-47.51055619 63.33513752 -51.11822492 60.12134334 -54.84375 57.03515625 C-57.47137054 54.59964947 -59.27009709 52.67825243 -59.96875 49.09765625 C-59.9790625 48.26105469 -59.989375 47.42445312 -60 46.5625 C-60.0309375 45.72847656 -60.061875 44.89445312 -60.09375 44.03515625 C-59.20857923 40.25570999 -57.54950939 38.85133224 -54.5 36.5 C-51.71798529 35.7030687 -49.33103406 35.18124012 -46.5 34.8125 C-45.38310791 34.63944336 -45.38310791 34.63944336 -44.24365234 34.46289062 C-40.70250183 33.92054543 -37.15258168 33.45370076 -33.6015625 32.98046875 C-32.45429687 32.82191406 -31.30703125 32.66335937 -30.125 32.5 C-29.10664062 32.37625 -28.08828125 32.2525 -27.0390625 32.125 C-24.09691213 31.40077837 -23.42218334 30.78546235 -21.5 28.5 C-20.52750094 26.73009352 -19.61989273 24.9238931 -18.7578125 23.09765625 C-18.24863281 22.04255859 -17.73945312 20.98746094 -17.21484375 19.90039062 C-16.15790654 17.68134186 -15.10579091 15.45998992 -14.05859375 13.23632812 C-13.29095703 11.65174805 -13.29095703 11.65174805 -12.5078125 10.03515625 C-12.05035645 9.069729 -11.59290039 8.10430176 -11.12158203 7.10961914 C-8.41269345 2.75019276 -5.25964425 -0.0740795 0 0 Z M-0.5 22.5 C-1.98198208 25.60283021 -3.46009683 28.70748727 -4.9375 31.8125 C-5.35837891 32.69357422 -5.77925781 33.57464844 -6.21289062 34.48242188 C-6.81713867 35.75375977 -6.81713867 35.75375977 -7.43359375 37.05078125 C-7.80540771 37.83106689 -8.17722168 38.61135254 -8.56030273 39.4152832 C-9.59606238 41.6189272 -9.59606238 41.6189272 -10.5 44.5 C-13.78883359 46.1617641 -16.95074189 46.86144983 -20.58203125 47.3515625 C-21.51337891 47.48046875 -22.44472656 47.609375 -23.40429688 47.7421875 C-24.36400391 47.86851563 -25.32371094 47.99484375 -26.3125 48.125 C-27.29154297 48.2590625 -28.27058594 48.393125 -29.27929688 48.53125 C-31.68548162 48.85989962 -34.09230719 49.18262087 -36.5 49.5 C-34.61133617 53.65149691 -31.76253131 56.39136168 -28.5 59.5 C-21.57386364 66.09943182 -21.57386364 66.09943182 -20.5 69.5 C-20.453125 71.8046875 -20.453125 71.8046875 -20.75 74.375 C-20.85699219 75.32761719 -20.96398437 76.28023437 -21.07421875 77.26171875 C-21.83078356 83.0157759 -22.63704549 88.76093359 -23.5 94.5 C-22.44941406 93.94570312 -21.39882812 93.39140625 -20.31640625 92.8203125 C-5.35781976 85.04427141 -5.35781976 85.04427141 1.5 84.5 C3.90589798 85.42534538 6.1781664 86.39828804 8.5 87.5 C9.14960693 87.79865967 9.79921387 88.09731934 10.46850586 88.4050293 C12.46265652 89.32321167 14.45068567 90.25356078 16.4375 91.1875 C17.12134766 91.50783203 17.80519531 91.82816406 18.50976562 92.15820312 C20.17365316 92.93778679 21.83689538 93.71874751 23.5 94.5 C23.15775391 92.581875 23.15775391 92.581875 22.80859375 90.625 C22.51763123 88.91676841 22.22730021 87.20842916 21.9375 85.5 C21.71030273 84.24123047 21.71030273 84.24123047 21.47851562 82.95703125 C20.46837862 76.89620921 19.54072436 70.77113846 22.84765625 65.25 C23.41355469 64.6725 23.97945312 64.095 24.5625 63.5 C25.18382812 62.84773438 25.80515625 62.19546875 26.4453125 61.5234375 C27.12335938 60.85570312 27.80140625 60.18796875 28.5 59.5 C29.23992187 58.77039063 29.97984375 58.04078125 30.7421875 57.2890625 C32.14881281 55.90246032 33.56593394 54.52637792 34.99609375 53.1640625 C36.72350093 51.62652316 36.72350093 51.62652316 36.5 49.5 C35.88479492 49.41959473 35.26958984 49.33918945 34.63574219 49.25634766 C31.83945757 48.88663896 29.04477586 48.5059393 26.25 48.125 C25.28191406 47.99867187 24.31382812 47.87234375 23.31640625 47.7421875 C22.38183594 47.61328125 21.44726562 47.484375 20.484375 47.3515625 C19.62553711 47.23635254 18.76669922 47.12114258 17.88183594 47.00244141 C14.56905631 46.30362012 12.29070725 45.58184956 10.25146484 42.79174805 C9.90809082 42.12183838 9.5647168 41.45192871 9.2109375 40.76171875 C8.82679687 40.02373047 8.44265625 39.28574219 8.046875 38.52539062 C7.66015625 37.75388672 7.2734375 36.98238281 6.875 36.1875 C6.28332031 35.04764648 6.28332031 35.04764648 5.6796875 33.88476562 C3.7606207 30.15360704 1.96235493 26.43892375 0.5 22.5 C0.17 22.5 -0.16 22.5 -0.5 22.5 Z " fill="#000000" transform="translate(112.5,48.5)"/>
<path d="M0 0 C0.83402344 -0.0309375 1.66804688 -0.061875 2.52734375 -0.09375 C6.18260658 0.76233621 7.94217515 2.54156984 10.0625 5.5 C12.35664575 9.47277997 14.37373894 13.56096292 16.375 17.6875 C16.92478516 18.79287109 17.47457031 19.89824219 18.04101562 21.03710938 C22.0625 29.20496894 22.0625 29.20496894 22.0625 31.5 C23.33311279 31.65819214 23.33311279 31.65819214 24.62939453 31.81958008 C27.79513967 32.21903703 30.95941663 32.62833978 34.12304688 33.04418945 C35.48810434 33.22160172 36.85366737 33.3951707 38.21972656 33.56469727 C40.19206638 33.81015999 42.16247773 34.07096189 44.1328125 34.33203125 C45.31633301 34.48389893 46.49985352 34.6357666 47.71923828 34.79223633 C52.26450261 35.75446221 55.84254344 37.16198313 59 40.625 C60.58753461 44.92068188 60.72483067 48.17902867 59.0625 52.5 C56.09074784 55.71002985 52.72887917 58.37979889 49.35308838 61.15371704 C40.87654004 68.15163756 40.87654004 68.15163756 36.41748047 77.81103516 C36.57226597 84.43604673 38.32030461 90.50460492 40.32641602 96.77954102 C41.43084993 100.86136757 41.39944656 104.29024795 41.0625 108.5 C39.30604745 111.55752852 37.79425925 113.01912964 34.875 114.9375 C25.34543471 116.84341306 16.63459266 110.14325559 8.8828125 105.4921875 C7.94695312 104.95335937 7.01109375 104.41453125 6.046875 103.859375 C5.20866211 103.35889648 4.37044922 102.85841797 3.50683594 102.34277344 C1.0677739 101.24400677 1.0677739 101.24400677 -1.44677734 102.19213867 C-2.67968506 102.83953003 -2.67968506 102.83953003 -3.9375 103.5 C-4.72431152 103.9029126 -5.51112305 104.3058252 -6.32177734 104.72094727 C-7.1308252 105.16494873 -7.93987305 105.6089502 -8.7734375 106.06640625 C-9.67320312 106.55173828 -10.57296875 107.03707031 -11.5 107.53710938 C-13.37061088 108.55165597 -15.23783572 109.57247144 -17.1015625 110.59960938 C-27.96079912 116.42481416 -27.96079912 116.42481416 -34.625 114.875 C-37.73264401 113.02721167 -39.14645728 111.68407594 -40.9375 108.5 C-41.67693929 103.06088583 -41.01100609 98.22606847 -39.2890625 93.046875 C-37.33633041 86.8171625 -35.63289456 81.02796513 -36.9375 74.5 C-41.86561324 66.37803581 -49.40952989 60.26925076 -56.7409668 54.36572266 C-59.87481074 51.70385365 -59.90474022 50.89966928 -60.25 46.6875 C-60.20379919 43.50541933 -59.93120282 42.48927147 -58.25 39.625 C-54.08124138 35.79424883 -49.60457683 35.15644187 -44.10546875 34.4296875 C-42.81318359 34.25566406 -41.52089844 34.08164063 -40.18945312 33.90234375 C-38.83465374 33.72642131 -37.47983579 33.55064184 -36.125 33.375 C-34.75057159 33.19200199 -33.37622157 33.00841423 -32.00195312 32.82421875 C-28.64786085 32.37700645 -25.29308789 31.93582359 -21.9375 31.5 C-21.65825684 30.61916748 -21.37901367 29.73833496 -21.09130859 28.83081055 C-19.34099507 23.7780117 -16.939654 19.09495852 -14.5625 14.3125 C-14.08039063 13.31541016 -13.59828125 12.31832031 -13.1015625 11.29101562 C-12.6271875 10.33517578 -12.1528125 9.37933594 -11.6640625 8.39453125 C-11.02331787 7.09286011 -11.02331787 7.09286011 -10.36962891 5.76489258 C-7.69354699 1.53270507 -4.94928454 0.06100813 0 0 Z M-0.9375 23.5 C-1.45699219 24.66917969 -1.97648437 25.83835937 -2.51171875 27.04296875 C-3.21555727 28.5914135 -3.92001736 30.13957582 -4.625 31.6875 C-5.13450195 32.84088867 -5.13450195 32.84088867 -5.65429688 34.01757812 C-8.01443727 39.15694926 -10.45375547 44.00988271 -15.9375 46.35546875 C-16.5975 46.46503906 -17.2575 46.57460937 -17.9375 46.6875 C-18.69933594 46.82285156 -19.46117187 46.95820312 -20.24609375 47.09765625 C-21.57833984 47.29681641 -21.57833984 47.29681641 -22.9375 47.5 C-24.08347656 47.68433594 -25.22945312 47.86867188 -26.41015625 48.05859375 C-29.58333358 48.55925829 -32.75847793 49.03813281 -35.9375 49.5 C-36.24896271 52.4484632 -36.24896271 52.4484632 -34.66821289 54.09399414 C-33.79797485 54.93111938 -33.79797485 54.93111938 -32.91015625 55.78515625 C-32.28302734 56.39810547 -31.65589844 57.01105469 -31.00976562 57.64257812 C-30.34654297 58.27615234 -29.68332031 58.90972656 -29 59.5625 C-27.6971333 60.82206517 -26.39625274 62.083689 -25.09765625 63.34765625 C-24.51636963 63.90461182 -23.93508301 64.46156738 -23.33618164 65.03540039 C-20.49246371 68.01313889 -20.73722185 70.79562095 -20.76953125 74.7890625 C-21.01938027 78.82150952 -21.74476388 82.73813534 -22.5 86.703125 C-22.91516052 89.35718692 -23.0157607 91.81957112 -22.9375 94.5 C-21.8753125 93.94570312 -20.813125 93.39140625 -19.71875 92.8203125 C-18.29188929 92.08810766 -16.86479327 91.35636127 -15.4375 90.625 C-14.39335937 90.07779297 -14.39335937 90.07779297 -13.328125 89.51953125 C-2.26794859 83.887034 -2.26794859 83.887034 3.609375 84.96875 C4.33640625 85.3090625 5.0634375 85.649375 5.8125 86 C6.64007813 86.37640625 7.46765625 86.7528125 8.3203125 87.140625 C9.67769531 87.81351563 9.67769531 87.81351563 11.0625 88.5 C12.15304687 89.03109375 13.24359375 89.5621875 14.3671875 90.109375 C17.27908463 91.54819476 20.17555634 93.01188471 23.0625 94.5 C22.918125 93.46101563 22.77375 92.42203125 22.625 91.3515625 C19.72078679 69.82317777 19.72078679 69.82317777 23.0625 64.5 C24.796875 62.82421875 24.796875 62.82421875 26.8125 61.1875 C30.69175346 57.91703449 33.85642422 54.42744284 37.0625 50.5 C35.52473453 48.96223453 33.89918948 49.12158505 31.765625 48.8515625 C30.8890625 48.73296875 30.0125 48.614375 29.109375 48.4921875 C27.26115153 48.24954364 25.41218848 48.01246106 23.5625 47.78125 C22.68078125 47.66007812 21.7990625 47.53890625 20.890625 47.4140625 C20.0852832 47.3104541 19.27994141 47.2068457 18.45019531 47.10009766 C14.53310043 46.11561716 11.86994519 44.6141269 9.48510742 41.32348633 C9.05045166 40.50130615 8.6157959 39.67912598 8.16796875 38.83203125 C7.68779297 37.93935547 7.20761719 37.04667969 6.71289062 36.12695312 C6.23013672 35.19818359 5.74738281 34.26941406 5.25 33.3125 C4.49686523 31.90194336 4.49686523 31.90194336 3.72851562 30.46289062 C2.49463308 28.14789195 1.27325531 25.82715367 0.0625 23.5 C-0.2675 23.5 -0.5975 23.5 -0.9375 23.5 Z " fill="#000000" transform="translate(255.9375,48.5)"/>
<path d="M0 0 C1.09828125 -0.01546875 1.09828125 -0.01546875 2.21875 -0.03125 C5.6529449 0.76849402 7.01113434 1.93948518 9.5 4.5 C11.65655455 8.03277686 13.45543112 11.71050451 15.25 15.4375 C15.99056641 16.9215332 15.99056641 16.9215332 16.74609375 18.43554688 C18.89133718 22.80537835 20.71289599 26.6651648 21.5 31.5 C22.38260498 31.60546143 23.26520996 31.71092285 24.17456055 31.81958008 C27.46522995 32.21844254 30.75424676 32.6277876 34.04272461 33.04418945 C35.46310558 33.22187855 36.88400967 33.39543885 38.30541992 33.56469727 C40.35488726 33.80948478 42.40198051 34.06932568 44.44921875 34.33203125 C45.67987061 34.48389893 46.91052246 34.6357666 48.1784668 34.79223633 C52.38679566 35.68896146 55.18371224 37.27449071 58.3125 40.1875 C60.06988466 43.6097754 60.1275887 46.78496344 59.5 50.5 C56.32140554 56.98963036 50.24762831 61.27793773 44.72265625 65.74609375 C39.55529845 70.11571319 39.55529845 70.11571319 36.984375 76.140625 C37.21811805 79.35908698 37.80761615 82.34619156 38.5 85.5 C38.94451044 87.93805667 39.36049816 90.37911051 39.76293945 92.82446289 C40.04102541 94.4950575 40.33836469 96.16258745 40.65698242 97.82592773 C41.51334719 102.65694748 41.62207278 105.89984881 39.5 110.5 C37.32591867 113.47929664 36.00144268 114.35864945 32.4375 115.36328125 C27.13898959 115.54725731 23.81966715 113.77107682 19.1875 111.375 C18.39666016 110.983125 17.60582031 110.59125 16.79101562 110.1875 C15.99759766 109.79304688 15.20417969 109.39859375 14.38671875 108.9921875 C13.58065186 108.59757324 12.77458496 108.20295898 11.9440918 107.79638672 C9.5 106.5 9.5 106.5 7.11254883 104.86376953 C4.51086508 103.19950913 2.53017334 102.13534557 -0.5 101.5 C-5.19067872 102.75737356 -9.06289889 105.10729017 -13.1875 107.625 C-26.70464939 115.5 -26.70464939 115.5 -32.5 115.5 C-37.29892004 113.83883537 -39.29859539 112.02004379 -41.5 107.5 C-41.6796875 104.984375 -41.6796875 104.984375 -41.375 102.25 C-41.26027344 101.21230469 -41.14554687 100.17460937 -41.02734375 99.10546875 C-40.30613141 94.17451327 -39.45803647 89.26977332 -38.51708984 84.37597656 C-37.46534738 78.96579609 -37.46534738 78.96579609 -37.5 73.5 C-38.95642819 71.46367939 -38.95642819 71.46367939 -41.04296875 69.72265625 C-41.78740234 69.04396484 -42.53183594 68.36527344 -43.29882812 67.66601562 C-44.08708984 66.97185547 -44.87535156 66.27769531 -45.6875 65.5625 C-58.86112901 53.73604848 -58.86112901 53.73604848 -60.5 48 C-60.5 43.85462026 -59.88469886 41.88473387 -57.5 38.5 C-53.38362087 36.07204152 -49.83401951 35.01751764 -45.11328125 34.4375 C-43.92798828 34.28023437 -42.74269531 34.12296875 -41.52148438 33.9609375 C-39.0372872 33.65221157 -36.55290974 33.34493307 -34.06835938 33.0390625 C-32.88693359 32.88179687 -31.70550781 32.72453125 -30.48828125 32.5625 C-28.87240112 32.36333984 -28.87240112 32.36333984 -27.22387695 32.16015625 C-24.21626275 31.43123371 -23.30316876 30.96226037 -21.5 28.5 C-20.52750094 26.73009352 -19.61989273 24.9238931 -18.7578125 23.09765625 C-18.24863281 22.04255859 -17.73945313 20.98746094 -17.21484375 19.90039062 C-16.15790654 17.68134186 -15.10579091 15.45998992 -14.05859375 13.23632812 C-13.29095703 11.65174805 -13.29095703 11.65174805 -12.5078125 10.03515625 C-12.05035645 9.069729 -11.59290039 8.10430176 -11.12158203 7.10961914 C-8.41269345 2.75019276 -5.25964425 -0.0740795 0 0 Z M-0.5 23.5 C-0.96055786 24.38522339 -0.96055786 24.38522339 -1.43041992 25.28833008 C-2.83576056 27.97048537 -4.26131338 30.64137512 -5.6875 33.3125 C-6.41163086 34.7056543 -6.41163086 34.7056543 -7.15039062 36.12695312 C-7.8706543 37.4659668 -7.8706543 37.4659668 -8.60546875 38.83203125 C-9.04012451 39.65421143 -9.47478027 40.4763916 -9.92260742 41.32348633 C-12.30733104 44.61396939 -14.9625294 46.12380704 -18.88769531 47.08422852 C-19.69303711 47.18147217 -20.49837891 47.27871582 -21.328125 47.37890625 C-22.65070313 47.55389648 -22.65070313 47.55389648 -24 47.73242188 C-24.9075 47.84134766 -25.815 47.95027344 -26.75 48.0625 C-28.56873018 48.28476102 -30.38653131 48.51481046 -32.203125 48.75390625 C-33.00395508 48.85002197 -33.80478516 48.9461377 -34.62988281 49.04516602 C-35.24702148 49.19526123 -35.86416016 49.34535645 -36.5 49.5 C-36.83 50.16 -37.16 50.82 -37.5 51.5 C-37.00371094 51.92410156 -36.50742187 52.34820312 -35.99609375 52.78515625 C-21.46104306 65.33439357 -21.46104306 65.33439357 -20.5 70.5 C-20.57755339 73.87357248 -21.02314184 77.1619929 -21.5 80.5 C-21.67144531 81.74136719 -21.84289062 82.98273438 -22.01953125 84.26171875 C-22.49948307 87.67662773 -22.99374248 91.08890564 -23.5 94.5 C-22.44941406 93.94570312 -21.39882813 93.39140625 -20.31640625 92.8203125 C-18.89871868 92.08799707 -17.48073379 91.35625703 -16.0625 90.625 C-15.37478516 90.26019531 -14.68707031 89.89539063 -13.97851562 89.51953125 C-2.15075034 83.46811645 -2.15075034 83.46811645 3.95825195 85.19482422 C6.53288407 86.30271598 8.9743444 87.53813437 11.4375 88.875 C13.11195081 89.73956079 14.78767057 90.60166978 16.46484375 91.4609375 C17.1930835 91.85071777 17.92132324 92.24049805 18.67163086 92.64208984 C20.46515836 93.64159461 20.46515836 93.64159461 22.5 93.5 C22.43941406 92.77296875 22.37882812 92.0459375 22.31640625 91.296875 C22.14011276 89.18135315 21.96857565 87.06543168 21.80078125 84.94921875 C21.60450766 82.69844501 21.37423564 80.45030344 21.10546875 78.20703125 C20.98816406 77.16933594 20.87085938 76.13164063 20.75 75.0625 C20.63140625 74.11503906 20.5128125 73.16757813 20.390625 72.19140625 C20.64896735 65.83433923 25.8756522 61.93748549 30.1875 57.8125 C32.34535654 55.74636957 34.43344344 53.66089295 36.5 51.5 C36.5 50.84 36.5 50.18 36.5 49.5 C35.89003174 49.42483154 35.28006348 49.34966309 34.65161133 49.2722168 C31.87025437 48.92259825 29.09151788 48.55523048 26.3125 48.1875 C25.35279297 48.06955078 24.39308594 47.95160156 23.40429688 47.83007812 C13.70744532 46.52150646 13.70744532 46.52150646 10.5 43.5 C8.47226449 40.21936091 6.82220994 36.80230301 5.1875 33.3125 C4.73310547 32.37212891 4.27871094 31.43175781 3.81054688 30.46289062 C2.6941058 28.14774439 1.5912699 25.82708939 0.5 23.5 C0.17 23.5 -0.16 23.5 -0.5 23.5 Z " fill="#000000" transform="translate(399.5,48.5)"/>
</svg>
