<?xml version="1.0" encoding="UTF-8"?>
<svg version="1.1" xmlns="http://www.w3.org/2000/svg" width="512" height="512">
<path d="M0 0 C130.35 0 260.7 0 395 0 C395 26.4 395 52.8 395 80 C389.39 79.01 383.78 78.02 378 77 C360.79611931 75.31841768 344.70179999 76.42552112 328.09033203 81.41064453 C324.29415119 82.53192464 321.78657234 83.20037705 318 82 C318.16008545 81.46785889 318.3201709 80.93571777 318.48510742 80.38745117 C319.61557187 75.14571964 319.27156876 69.65266213 319.3125 64.3125 C319.35600586 62.44948242 319.35600586 62.44948242 319.40039062 60.54882812 C319.45463767 52.67466076 319.05996518 45.53149933 313.58740234 39.42333984 C306.73277885 33.30619745 299.48611779 33.62739234 290.81762695 33.62939453 C288.70376237 33.62503355 286.59200979 33.58871134 284.47851562 33.55078125 C276.38976365 33.48268546 269.6890668 33.59853132 263.49536133 39.41235352 C257.31643828 46.28919875 257.62737828 53.45301455 257.62939453 62.18237305 C257.62503355 64.29623763 257.58871134 66.40799021 257.55078125 68.52148438 C257.48250866 76.63836283 257.64122118 83.23702945 263.37695312 89.50463867 C269.41155909 95.02488692 276.12322606 95.3448154 283.875 95.625 C284.75414062 95.66367187 285.63328125 95.70234375 286.5390625 95.7421875 C288.69238793 95.83581034 290.84616414 95.91896459 293 96 C289.99859418 99.080529 286.99322282 101.90708293 283.5625 104.5 C282.78261719 105.09941406 282.00273437 105.69882812 281.19921875 106.31640625 C280.47347656 106.87199219 279.74773437 107.42757812 279 108 C264.63814878 119.20224395 254.21781313 135.46874961 247 152 C246.71785645 152.64549805 246.43571289 153.29099609 246.14501953 153.95605469 C233.63466064 183.28204624 232.83285115 217.2525615 244.25 247.0625 C244.77398142 248.34589517 245.29984476 249.62852461 245.828125 250.91015625 C247 254 247 254 247 257 C221.32999047 257.09363436 195.66000672 257.16407263 169.98986053 257.20724869 C158.06951675 257.22783308 146.14927937 257.25587459 134.22900391 257.30175781 C123.83365984 257.34175208 113.43839287 257.36746274 103.042974 257.37635398 C97.54377536 257.38154745 92.0447972 257.39366741 86.54566956 257.42292023 C81.35823519 257.45028859 76.17110987 257.45840213 70.98361015 257.45243073 C69.09072115 257.45352146 67.19782064 257.46134662 65.30499458 257.4768219 C46.47612051 257.62307067 29.44609238 255.17458534 15.125 241.6875 C4.8396141 230.69534255 -0.17420654 217.32169435 -0.12025452 202.38835144 C-0.12111053 201.52453354 -0.12196655 200.66071564 -0.12284851 199.77072144 C-0.12450319 196.86820409 -0.11898085 193.96574449 -0.11352539 191.06323242 C-0.11321906 188.95002653 -0.11335254 186.83682054 -0.11389065 184.72361469 C-0.11411653 179.06148486 -0.1083181 173.39937613 -0.10128021 167.73725128 C-0.09558785 162.42529737 -0.09531723 157.11334861 -0.09460449 151.8013916 C-0.0893559 136.26342494 -0.07539476 120.7254622 -0.0625 105.1875 C-0.041875 70.475625 -0.02125 35.76375 0 0 Z M70.9765625 38.74609375 C70.53054687 39.30425781 70.08453125 39.86242187 69.625 40.4375 C69.16351563 40.99308594 68.70203125 41.54867187 68.2265625 42.12109375 C64.14406327 48.37485849 64.62773459 54.99564784 64.62939453 62.18237305 C64.62503355 64.29623763 64.58871134 66.40799021 64.55078125 68.52148438 C64.47760964 77.15956485 64.97401352 83.23867352 70.7109375 90.0234375 C71.26007813 90.46945312 71.80921875 90.91546875 72.375 91.375 C72.91898437 91.83648437 73.46296875 92.29796875 74.0234375 92.7734375 C80.78717451 96.97069723 88.21370576 96.33226598 95.875 96.3125 C97.73705078 96.33666992 97.73705078 96.33666992 99.63671875 96.36132812 C107.81902462 96.36568505 113.74574731 95.70725171 120.75 91.25 C128.5842825 83.4157175 128.23242843 74.75917095 128.3125 64.3125 C128.34150391 63.07048828 128.37050781 61.82847656 128.40039062 60.54882812 C128.45626746 52.43809127 128.00999413 45.28735532 122.24926758 39.12817383 C115.2073806 32.59182686 108.00610626 32.62727224 98.81762695 32.62939453 C96.70376237 32.62503355 94.59200979 32.58871134 92.47851562 32.55078125 C83.85430051 32.47766335 77.70800426 32.93730134 70.9765625 38.74609375 Z M166.9765625 38.74609375 C166.53054687 39.30425781 166.08453125 39.86242187 165.625 40.4375 C165.16351563 40.99308594 164.70203125 41.54867187 164.2265625 42.12109375 C160.14406327 48.37485849 160.62773459 54.99564784 160.62939453 62.18237305 C160.62503355 64.29623763 160.58871134 66.40799021 160.55078125 68.52148438 C160.47760964 77.15956485 160.97401352 83.23867352 166.7109375 90.0234375 C167.26007813 90.46945312 167.80921875 90.91546875 168.375 91.375 C168.91898438 91.83648437 169.46296875 92.29796875 170.0234375 92.7734375 C176.78717451 96.97069723 184.21370576 96.33226598 191.875 96.3125 C193.73705078 96.33666992 193.73705078 96.33666992 195.63671875 96.36132812 C203.81902462 96.36568505 209.74574731 95.70725171 216.75 91.25 C224.5842825 83.4157175 224.23242843 74.75917095 224.3125 64.3125 C224.34150391 63.07048828 224.37050781 61.82847656 224.40039062 60.54882812 C224.45626746 52.43809127 224.00999413 45.28735532 218.24926758 39.12817383 C211.2073806 32.59182686 204.00610626 32.62727224 194.81762695 32.62939453 C192.70376237 32.62503355 190.59200979 32.58871134 188.47851562 32.55078125 C179.85430051 32.47766335 173.70800426 32.93730134 166.9765625 38.74609375 Z M69 147 C64.34548922 153.93061769 64.38255653 160.71632153 64.47851562 168.8359375 C64.49995963 170.9959336 64.47865103 173.15260519 64.453125 175.3125 C64.43444187 183.94223684 64.8023226 190.4319393 70.859375 197.0234375 C71.79523438 197.69246094 71.79523438 197.69246094 72.75 198.375 C73.36359375 198.83648437 73.9771875 199.29796875 74.609375 199.7734375 C81.44154641 203.27883264 88.43224231 203.31164483 95.9375 203.25 C96.87529297 203.25773437 97.81308594 203.26546875 98.77929688 203.2734375 C106.82956949 203.25106009 114.68177894 203.06913365 120.875 197.375 C121.59429687 196.74335938 122.31359375 196.11171875 123.0546875 195.4609375 C128.90583328 188.05888561 128.46006064 180.03532994 128.375 171 C128.38660156 169.76765625 128.39820313 168.5353125 128.41015625 167.265625 C128.38464047 159.33872182 128.13373608 152.96436493 123.0546875 146.5390625 C122.33539063 145.90742188 121.61609375 145.27578125 120.875 144.625 C120.17117187 143.97789062 119.46734375 143.33078125 118.7421875 142.6640625 C111.88658205 138.50382329 103.86801267 138.66041633 96.0625 138.6875 C95.13759766 138.67138672 94.21269531 138.65527344 93.25976562 138.63867188 C84.0585134 138.63222391 75.46297951 140.07537909 69 147 Z M165 147 C160.34548922 153.93061769 160.38255653 160.71632153 160.47851562 168.8359375 C160.49995963 170.9959336 160.47865103 173.15260519 160.453125 175.3125 C160.43444187 183.94223684 160.8023226 190.4319393 166.859375 197.0234375 C167.79523438 197.69246094 167.79523438 197.69246094 168.75 198.375 C169.36359375 198.83648437 169.9771875 199.29796875 170.609375 199.7734375 C177.44154641 203.27883264 184.43224231 203.31164483 191.9375 203.25 C192.87529297 203.25773437 193.81308594 203.26546875 194.77929688 203.2734375 C202.82956949 203.25106009 210.68177894 203.06913365 216.875 197.375 C217.59429687 196.74335938 218.31359375 196.11171875 219.0546875 195.4609375 C224.90583328 188.05888561 224.46006064 180.03532994 224.375 171 C224.38660156 169.76765625 224.39820313 168.5353125 224.41015625 167.265625 C224.38464047 159.33872182 224.13373608 152.96436493 219.0546875 146.5390625 C218.33539063 145.90742188 217.61609375 145.27578125 216.875 144.625 C216.17117187 143.97789062 215.46734375 143.33078125 214.7421875 142.6640625 C207.88658205 138.50382329 199.86801267 138.66041633 192.0625 138.6875 C191.13759766 138.67138672 190.21269531 138.65527344 189.25976562 138.63867188 C180.0585134 138.63222391 171.46297951 140.07537909 165 147 Z " fill="#000000" transform="translate(21,181)"/>
<path d="M0 0 C19.37115368 16.64041836 31.89714881 36.0650185 38.3125 60.6875 C38.68181641 62.08742188 38.68181641 62.08742188 39.05859375 63.515625 C44.67685948 90.01834057 38.86973543 118.8466782 24.8125 141.75 C23.67340204 143.41503283 22.50723168 145.06192481 21.3125 146.6875 C20.70921875 147.51121094 20.1059375 148.33492187 19.484375 149.18359375 C3.49890923 170.01018635 -17.51040819 183.1345583 -42.6875 189.6875 C-44.10482422 190.05681641 -44.10482422 190.05681641 -45.55078125 190.43359375 C-73.05423586 196.20494096 -102.40816366 189.62141579 -125.91845703 174.85205078 C-130.5107116 171.82899609 -134.64050362 168.3977569 -138.6875 164.6875 C-139.61175781 163.84445312 -140.53601563 163.00140625 -141.48828125 162.1328125 C-156.86975114 147.4534014 -166.37279308 129.08564639 -171.6875 108.6875 C-171.93371094 107.75421875 -172.17992187 106.8209375 -172.43359375 105.859375 C-178.3217111 78.0837042 -171.47609181 48.64791801 -156.40234375 25.01171875 C-140.77803103 1.6444978 -117.67118473 -13.28194079 -90.6875 -20.3125 C-89.75421875 -20.55871094 -88.8209375 -20.80492187 -87.859375 -21.05859375 C-57.52573641 -27.48897035 -24.1306824 -19.16763424 0 0 Z M-74.6875 13.6875 C-77.02121072 17.19146059 -76.95208768 20.33275227 -76.97802734 24.47216797 C-76.98474457 25.14586426 -76.99146179 25.81956055 -76.99838257 26.51367188 C-77.01734473 28.73575259 -77.02128583 30.95753096 -77.0234375 33.1796875 C-77.0298668 34.72901533 -77.03659526 36.27834194 -77.04360962 37.82766724 C-77.05557799 41.07410496 -77.05929092 44.32043631 -77.05810547 47.56689453 C-77.05790233 51.71866553 -77.08520057 55.86975163 -77.11964989 60.0213604 C-77.14193209 63.22135526 -77.14594261 66.42118566 -77.14488602 69.62125015 C-77.14724014 71.15141281 -77.15605312 72.68158012 -77.17155075 74.21166611 C-77.19123846 76.35627382 -77.18536362 78.49940946 -77.17333984 80.64404297 C-77.17618988 81.86219696 -77.17903992 83.08035095 -77.18197632 84.3354187 C-76.38202171 89.75835357 -73.23508876 93.38733503 -69.45117188 97.18261719 C-68.84374146 97.79635193 -68.23631104 98.41008667 -67.61047363 99.04241943 C-66.96557983 99.68326477 -66.32068604 100.32411011 -65.65625 100.984375 C-64.98331909 101.65921936 -64.31038818 102.33406372 -63.61706543 103.02935791 C-62.20078028 104.44699801 -60.78199051 105.86213985 -59.36083984 107.27490234 C-57.18742922 109.43757043 -55.02493491 111.61074368 -52.86328125 113.78515625 C-51.48241193 115.16470451 -50.10092262 116.54363253 -48.71875 117.921875 C-47.7514093 118.89528839 -47.7514093 118.89528839 -46.76452637 119.8883667 C-46.15709595 120.4894928 -45.54966553 121.0906189 -44.92382812 121.70996094 C-44.39406372 122.23813416 -43.86429932 122.76630737 -43.31848145 123.31048584 C-40.56507997 125.63514307 -38.3348217 126.61863599 -34.75 127 C-31.22971975 126.64078773 -29.46952183 125.85129476 -26.6875 123.6875 C-24.35682423 120.46894775 -24.22008863 117.58259474 -24.6875 113.6875 C-27.40775924 108.80731017 -30.26926513 106.37265809 -34.94921875 103.41015625 C-44.46742603 96.66454733 -53.81686925 89.06486272 -56.47027588 77.1819458 C-58.73013327 60.71436106 -57.92160729 43.7146863 -56.88435364 27.16920471 C-56.78497749 25.4073307 -56.78497749 25.4073307 -56.68359375 23.60986328 C-56.61325928 22.58321564 -56.5429248 21.55656799 -56.47045898 20.49880981 C-56.72966855 17.14129512 -57.7189046 15.38694426 -59.6875 12.6875 C-64.67174831 9.07821674 -70.03736731 10.07073013 -74.6875 13.6875 Z " fill="#000000" transform="translate(450.6875,299.3125)"/>
<path d="M0 0 C0.01458252 0.9065332 0.02916504 1.81306641 0.04418945 2.74707031 C0.10590888 6.16933631 0.18017443 9.59088451 0.26245117 13.01269531 C0.29533418 14.48264618 0.32347494 15.95271223 0.34643555 17.42285156 C0.59848123 33.1462119 2.78129188 48.17638416 13.9296875 60.12109375 C23.21525194 68.54818148 35.35776939 74.11187815 48 74 C60.9500789 73.36420801 72.76216482 68.19705466 82.10546875 59.1484375 C96.84950015 42.42840189 94.3697858 21.4272828 95 0 C127.01 0 159.02 0 192 0 C192.33 10.56 192.66 21.12 193 32 C196.67992714 46.71970857 200.57046823 57.24279279 213.25 65.75 C224.90394482 72.73280141 236.14363038 75.2876833 249.5625 72.9140625 C261.63574533 69.70367681 272.4423087 62.84792984 279.3125 52.3125 C285.60553053 40.54063789 286.63125672 29.22578873 286.75 16.1875 C286.77823646 14.60869242 286.80817422 13.02991432 286.83984375 11.45117188 C286.91278581 7.6341692 286.96290883 3.81751241 287 0 C301.01334467 -0.31102368 313.50895862 4.03722783 324.3125 13.1875 C332.86344337 21.36785674 338.14779081 31.59116325 341 43 C341 64.12 341 85.24 341 107 C210.65 107 80.3 107 -54 107 C-54 32.48618785 -54 32.48618785 -39 15 C-27.60530224 4.84045268 -15.24741144 -0.29896885 0 0 Z " fill="#000000" transform="translate(75,53)"/>
<path d="M0 0 C6.70664011 4.13553467 11.43950341 9.53871816 13.47436523 17.27246094 C14.08674979 21.2269615 14.10821662 25.11294225 14.12890625 29.109375 C14.13460632 29.968797 14.1403064 30.82821899 14.1461792 31.71368408 C14.15560331 33.52916239 14.16215286 35.3446576 14.16601562 37.16015625 C14.17569993 39.9143722 14.20673891 42.66783458 14.23828125 45.421875 C14.24481449 47.19270394 14.2500637 48.96353818 14.25390625 50.734375 C14.26625305 51.54718933 14.27859985 52.36000366 14.2913208 53.19744873 C14.25530701 62.60574822 11.35412121 70.28993815 4.92578125 77.1875 C-2.68473825 83.2124946 -10.61697389 84.23459189 -20.07421875 83.1875 C-27.93376714 80.91671884 -33.44736201 75.81025573 -38.07421875 69.1875 C-40.79059061 64.21773229 -40.3978781 58.99182944 -40.41015625 53.48046875 C-40.42014145 51.9214257 -40.42014145 51.9214257 -40.43032837 50.33088684 C-40.44043973 48.13459031 -40.44514586 45.93826314 -40.44482422 43.74194336 C-40.4491899 40.39710308 -40.48550618 37.05359074 -40.5234375 33.70898438 C-40.52930759 31.57031699 -40.5332757 29.43164337 -40.53515625 27.29296875 C-40.54952728 26.3000029 -40.56389832 25.30703705 -40.57870483 24.28398132 C-40.52739101 16.40957733 -38.57050044 10.10724766 -32.88671875 4.4375 C-23.7885429 -3.96821426 -11.11487082 -5.85207092 0 0 Z " fill="#000000" transform="translate(328.07421875,23.8125)"/>
<path d="M0 0 C6.70664011 4.13553467 11.43950341 9.53871816 13.47436523 17.27246094 C14.08674979 21.2269615 14.10821662 25.11294225 14.12890625 29.109375 C14.13460632 29.968797 14.1403064 30.82821899 14.1461792 31.71368408 C14.15560331 33.52916239 14.16215286 35.3446576 14.16601562 37.16015625 C14.17569993 39.9143722 14.20673891 42.66783458 14.23828125 45.421875 C14.24481449 47.19270394 14.2500637 48.96353818 14.25390625 50.734375 C14.26625305 51.54718933 14.27859985 52.36000366 14.2913208 53.19744873 C14.25530701 62.60574822 11.35412121 70.28993815 4.92578125 77.1875 C-2.68473825 83.2124946 -10.61697389 84.23459189 -20.07421875 83.1875 C-27.93376714 80.91671884 -33.44736201 75.81025573 -38.07421875 69.1875 C-40.79059061 64.21773229 -40.3978781 58.99182944 -40.41015625 53.48046875 C-40.42014145 51.9214257 -40.42014145 51.9214257 -40.43032837 50.33088684 C-40.44043973 48.13459031 -40.44514586 45.93826314 -40.44482422 43.74194336 C-40.4491899 40.39710308 -40.48550618 37.05359074 -40.5234375 33.70898438 C-40.52930759 31.57031699 -40.5332757 29.43164337 -40.53515625 27.29296875 C-40.54952728 26.3000029 -40.56389832 25.30703705 -40.57870483 24.28398132 C-40.52739101 16.40957733 -38.57050044 10.10724766 -32.88671875 4.4375 C-23.7885429 -3.96821426 -11.11487082 -5.85207092 0 0 Z " fill="#000000" transform="translate(136.07421875,23.8125)"/>
</svg>
