<?xml version="1.0" encoding="UTF-8"?>
<svg version="1.1" xmlns="http://www.w3.org/2000/svg" width="128" height="128">
<path d="M0 0 C8.77738616 4.86000322 19.66300298 3.82989234 29.4375 3.8125 C28.69350848 7.0176138 27.55777633 9.66143984 26.125 12.625 C24.58803194 16.1802225 24.58803194 16.1802225 25.03125 19.87890625 C26.06539326 21.588936 27.24875808 23.206092 28.4375 24.8125 C31.00656303 31.86136669 30.70624177 42.98504941 27.75 49.875 C27.01899791 51.21009409 26.24949572 52.52505942 25.4375 53.8125 C25.086875 54.43382812 24.73625 55.05515625 24.375 55.6953125 C20.09888965 62.55490619 13.1445631 66.75415022 5.4375 68.8125 C-8.28913755 70.03580656 -16.81762931 67.40839655 -27.5625 58.8125 C-29.5425 61.4525 -31.5225 64.0925 -33.5625 66.8125 C-37.94885744 64.61932128 -39.07506905 62.89899371 -41.5625 58.8125 C-42.02398437 59.19921875 -42.48546875 59.5859375 -42.9609375 59.984375 C-51.1694297 66.53819091 -58.71402641 69.5947032 -69.328125 69.18359375 C-79.57702303 68.00769361 -86.76559102 63.50639882 -93.5625 55.8125 C-99.12255034 47.44300624 -99.31167538 38.5419224 -98.5625 28.8125 C-97.58800665 25.25559929 -96.27205334 22.07369612 -94.5625 18.8125 C-94.2325 18.1525 -93.9025 17.4925 -93.5625 16.8125 C-94.56132134 14.40300911 -94.56132134 14.40300911 -96 11.8125 C-98.5625 7.00868529 -98.5625 7.00868529 -98.5625 4.8125 C-97.28117187 4.82152344 -95.99984375 4.83054687 -94.6796875 4.83984375 C-84.21909065 4.72923014 -77.11161022 3.7582284 -67.93359375 -1.3984375 C-48.84214396 -11.53040043 -18.55027954 -10.96633335 0 0 Z " fill="#040E14" transform="translate(98.5625,33.1875)"/>
<path d="M0 0 C6.55672416 3.40144052 10.93409288 8.20276031 13.2890625 15.1875 C14.36512329 23.28134857 14.19813297 31.38530395 9.2890625 38.1875 C4.25067859 43.61128268 -0.42207194 47.74682803 -7.98046875 48.5234375 C-17.08727355 48.62384329 -22.56475998 47.76828968 -29.4609375 41.8125 C-35.06773353 35.27123796 -38.25731774 29.24820269 -38.0234375 20.55078125 C-37.07925639 13.41041161 -33.08358649 6.89927645 -27.7109375 2.1875 C-18.45432934 -3.59129333 -10.02474473 -4.46923604 0 0 Z " fill="#F7F8F8" transform="translate(107.7109375,46.8125)"/>
<path d="M0 0 C6.15302359 3.74531871 11.2306122 8.06581936 13.06640625 15.2578125 C13.90549987 22.93631076 14.70065166 31.16393557 9.69140625 37.58203125 C4.32090887 43.12035668 -0.21770639 47.77326493 -8.203125 48.59375 C-16.97369166 48.69044864 -22.64908638 48.28983998 -29.12109375 42.19921875 C-36.04571114 34.86654355 -37.47738408 28.74965776 -37.30859375 18.73828125 C-36.57877316 11.96463394 -33.47915822 7.43683379 -28.55859375 2.8828125 C-19.84677559 -3.84734746 -9.85736007 -5.0433005 0 0 Z " fill="#F7F7F8" transform="translate(43.93359375,46.7421875)"/>
<path d="M0 0 C4.39063739 2.15540381 7.47901962 4.79836603 10 9 C11.42475275 13.79819959 11.47704163 17.73244181 9.375 22.3125 C6.83240602 26.72904732 3.87081252 29.37639583 -1 31 C-5.66694522 31.54225459 -9.07771048 31.4698456 -13.3125 29.3125 C-18.23518769 25.07669897 -20.76544395 21.81467263 -21.3125 15.25 C-21.23667782 10.6669704 -19.8631789 7.54531556 -17 4 C-11.96844758 -0.78611084 -6.6108623 -0.97537313 0 0 Z " fill="#0A141B" transform="translate(101,54)"/>
<path d="M0 0 C3.46236126 2.39067801 5.74528805 5.0530761 7.625 8.8125 C8.18269904 14.77558973 8.12656448 19.74126868 4.625 24.8125 C-0.32832477 29.39432541 -4.30929406 30.18709646 -10.87109375 30.08203125 C-14.70093552 29.66977059 -16.6009836 28.45442038 -19.375 25.8125 C-22.68668042 21.22789241 -24.10153397 16.64198807 -23.828125 10.98828125 C-22.81851657 6.1404201 -19.79251323 3.06801172 -16.1875 -0.125 C-10.76505329 -2.17347987 -5.42453258 -1.90863183 0 0 Z " fill="#09131A" transform="translate(39.375,55.1875)"/>
<path d="M0 0 C1.05445312 -0.00322266 2.10890625 -0.00644531 3.1953125 -0.00976562 C11.6178404 0.04756594 19.53693821 1.11189743 27.5 3.9375 C28.24507812 4.19789062 28.99015625 4.45828125 29.7578125 4.7265625 C30.29148438 4.91992188 30.82515625 5.11328125 31.375 5.3125 C31.375 5.6425 31.375 5.9725 31.375 6.3125 C30.09625 6.51875 28.8175 6.725 27.5 6.9375 C18.68571544 8.92244912 11.46055941 13.86939649 6.375 21.3125 C4.25880511 24.96111187 2.98857969 28.1401581 2.375 32.3125 C1.715 32.3125 1.055 32.3125 0.375 32.3125 C0.22804688 31.755625 0.08109375 31.19875 -0.0703125 30.625 C-2.70478226 21.66174658 -7.14510839 15.54937325 -15.1015625 10.56640625 C-19.41056627 8.42524493 -23.9366408 7.31151486 -28.625 6.3125 C-20.80519432 -0.26769268 -9.73709097 -0.14989364 0 0 Z " fill="#F2BF0F" transform="translate(62.625,31.6875)"/>
<path d="M0 0 C2.80907699 1.76119659 3.33896525 2.89940179 5 6 C5.41548911 10.36641278 4.76210131 13.7806379 2.4375 17.5 C-0.98070625 19.60351154 -3.98722663 20.33182549 -8 20 C-11.21634616 18.39182692 -13.24987382 17.02289934 -15.375 14.125 C-16.25151896 11.14483554 -16.43422592 9.10161374 -16 6 C-11.74689622 -0.81445253 -7.53527392 -2.06214897 0 0 Z " fill="#F3F3F3" transform="translate(37,60)"/>
<path d="M0 0 C3.95403662 0.26360244 5.65370756 0.86143155 8.75 3.25 C11.20917586 6.9387638 11.56591937 9.9684429 10.75 14.25 C9.00549494 17.2720794 6.91697836 19.66651082 3.75 21.25 C-1.51883876 21.84873168 -4.1346468 20.50400021 -8.25 17.25 C-9.98498116 13.78003768 -9.85794181 10.03492805 -9.25 6.25 C-6.8125 3.25 -6.8125 3.25 -4.25 1.25 C-3.25 0.25 -3.25 0.25 0 0 Z " fill="#F0F3F3" transform="translate(95.25,58.75)"/>
<path d="M0 0 C2.5625 0.3125 2.5625 0.3125 4.4375 1.4375 C5.5625 3.3125 5.5625 3.3125 5.375 6.375 C4.5625 9.3125 4.5625 9.3125 2.5625 11.3125 C-0.4375 11.125 -0.4375 11.125 -3.4375 10.3125 C-5.4375 7.3125 -5.4375 7.3125 -5.1875 4.75 C-4.19253762 1.51637226 -3.41216263 0.43745675 0 0 Z " fill="#F07453" transform="translate(31.4375,63.6875)"/>
<path d="M0 0 C2.4375 0.75 2.4375 0.75 4.4375 2.75 C4.8008156 5.58386167 4.7943671 7.15522151 3.3125 9.625 C1.4375 10.75 1.4375 10.75 -1.6875 10.5625 C-2.63625 10.294375 -3.585 10.02625 -4.5625 9.75 C-5.95681504 6.96136993 -5.81910094 4.82921132 -5.5625 1.75 C-2.5625 -0.25 -2.5625 -0.25 0 0 Z " fill="#0CB28C" transform="translate(96.5625,64.25)"/>
</svg>
