<?xml version="1.0" encoding="UTF-8"?>
<svg version="1.1" xmlns="http://www.w3.org/2000/svg" width="512" height="512">
<path d="M0 0 C2.35729305 1.12821421 4.54140395 2.32435516 6.75268555 3.71362305 C7.95018433 4.46095703 7.95018433 4.46095703 9.171875 5.22338867 C10.02998779 5.76415039 10.88810059 6.30491211 11.7722168 6.86206055 C13.64431466 8.03180839 15.51672572 9.20105511 17.3894043 10.36987305 C18.38552734 10.9928125 19.38165039 11.61575195 20.40795898 12.25756836 C26.05518357 15.77645069 31.72741207 19.25473209 37.3972168 22.73706055 C39.54975175 24.05966609 41.7021046 25.38256805 43.85424805 26.70581055 C44.85738037 27.3088501 45.8605127 27.91188965 46.89404297 28.53320312 C49.5847168 30.23706055 49.5847168 30.23706055 51.50390625 31.82177734 C57.69399379 36.77332771 65.18678542 35.59731425 72.66165161 35.18453979 C75.17914929 35.04782644 77.69577562 34.94698438 80.21533203 34.85644531 C83.65665994 34.7312827 87.09733067 34.59687475 90.5378418 34.45092773 C91.80072021 34.39745178 91.80072021 34.39745178 93.08911133 34.34289551 C94.72029954 34.27371921 96.35148458 34.20446784 97.98266602 34.13513184 C102.36762244 33.95376621 106.75048434 33.81045021 111.13839722 33.72518921 C113.10987467 33.67550169 115.08003883 33.58036797 117.04980469 33.484375 C125.46681898 33.33544674 125.46681898 33.33544674 128.27563477 35.60083008 C129.66782883 37.73709885 130.59970248 39.88453032 131.5847168 42.23706055 C132.6750527 44.26538967 133.78053323 46.28561685 134.8972168 48.29956055 C135.80640531 50.011047 136.71554057 51.72256273 137.62271118 53.43511963 C138.61063392 55.28560613 139.61557611 57.12598287 140.62451172 58.96508789 C143.81509378 64.81239115 146.80517785 70.57070349 149.26049805 76.77612305 C157.28788036 95.99074757 171.41909335 102.07763261 189.43286133 110.30200195 C195.26160324 112.98155783 200.85414759 116.05730307 206.4597168 119.17456055 C207.34328857 119.653125 208.22686035 120.13168945 209.13720703 120.62475586 C213.63965587 123.07400152 213.63965587 123.07400152 215.5847168 124.23706055 C216.68553589 124.84312134 216.68553589 124.84312134 217.80859375 125.46142578 C219.5847168 127.23706055 219.5847168 127.23706055 220.0546875 130.24536133 C220.04010498 131.4620752 220.02552246 132.67878906 220.01049805 133.93237305 C220.0061097 134.92386856 220.0061097 134.92386856 220.00163269 135.93539429 C219.98665459 138.07834445 219.94261387 140.21955746 219.8972168 142.36206055 C219.880288 143.82233247 219.86466325 145.2826201 219.8503418 146.74291992 C219.73170663 156.59005242 219.41250602 166.42184543 218.5847168 176.23706055 C219.14868164 176.21611328 219.71264648 176.19516602 220.29370117 176.17358398 C222.89051929 176.08957554 225.48705042 176.03813826 228.0847168 175.98706055 C228.9715918 175.95354492 229.8584668 175.9200293 230.7722168 175.88549805 C237.95451 175.77987609 243.12278691 177.24964228 248.6081543 181.9831543 C249.05416992 182.54131836 249.50018555 183.09948242 249.9597168 183.67456055 C250.42120117 184.23014648 250.88268555 184.78573242 251.3581543 185.3581543 C253.94648537 189.32308184 254.83489866 192.86476067 254.85214233 197.56794739 C254.8606723 198.62344284 254.86920227 199.67893829 254.87799072 200.76641846 C254.87708435 201.91406677 254.87617798 203.06171509 254.87524414 204.24414062 C254.88531998 206.06938515 254.88531998 206.06938515 254.89559937 207.9315033 C254.91132807 211.26229314 254.91795359 214.5928336 254.91923094 217.92364335 C254.92065485 220.00739685 254.92492901 222.0911244 254.93022537 224.17487144 C254.9487175 231.45253528 254.95689714 238.73012595 254.95532227 246.0078125 C254.95412156 252.7783267 254.97521176 259.54852176 255.00680959 266.31895524 C255.03301408 272.14250263 255.0436878 277.96594606 255.04241145 283.78955191 C255.04190297 287.26293555 255.04752211 290.73603552 255.06876755 294.20936012 C255.09183912 298.08696427 255.08260348 301.96413539 255.07055664 305.84179688 C255.08179565 306.9833725 255.09303467 308.12494812 255.10461426 309.30111694 C255.04441093 316.93656868 253.93548777 322.27427661 248.8737793 328.26049805 C248.32463867 328.70651367 247.77549805 329.1525293 247.2097168 329.61206055 C246.66573242 330.07354492 246.12174805 330.5350293 245.5612793 331.01049805 C239.82002813 334.57325075 234.23530183 334.48982049 227.7097168 334.36206055 C226.83057617 334.35303711 225.95143555 334.34401367 225.0456543 334.3347168 C222.89188969 334.31130631 220.73826665 334.27544064 218.5847168 334.23706055 C218.6569043 335.09299805 218.7290918 335.94893555 218.8034668 336.83081055 C219.14908993 341.63113187 219.38202071 346.42878274 219.5847168 351.23706055 C219.64288574 352.51258789 219.70105469 353.78811523 219.76098633 355.10229492 C219.91493355 358.67164811 220.01629728 362.24017989 220.09155273 365.81201172 C220.12857327 367.25857293 220.17978066 368.70484262 220.24536133 370.15039062 C220.75096922 381.68539782 220.75096922 381.68539782 218.22094727 385.05151367 C216.08201764 386.43364314 213.95465309 387.30360643 211.5847168 388.23706055 C209.55432136 389.32354375 207.53424952 390.42943747 205.5222168 391.54956055 C203.81073034 392.45874906 202.09921461 393.36788432 200.38665771 394.27505493 C198.53617122 395.26297767 196.69579447 396.26791986 194.85668945 397.27685547 C189.00938619 400.46743753 183.25107385 403.4575216 177.0456543 405.9128418 C157.83102977 413.94022411 151.74414474 428.0714371 143.51977539 446.08520508 C140.84021951 451.91394699 137.76447427 457.50649134 134.6472168 463.11206055 C134.16865234 463.99563232 133.69008789 464.8792041 133.19702148 465.78955078 C130.74777582 470.29199962 130.74777582 470.29199962 129.5847168 472.23706055 C128.94904785 473.33787964 128.94904785 473.33787964 128.30053711 474.4609375 C126.5847168 476.23706055 126.5847168 476.23706055 124.00146484 476.70703125 C122.96030518 476.69244873 121.91914551 476.67786621 120.84643555 476.6628418 C119.65300537 476.65381836 118.4595752 476.64479492 117.22998047 476.63549805 C115.92391846 476.60713867 114.61785645 476.5787793 113.2722168 476.54956055 C111.8950282 476.54330387 110.51782687 476.53945094 109.140625 476.5378418 C101.38213568 476.49840056 93.71860206 476.12031247 85.9909668 475.4362793 C64.53184773 473.68312523 52.34012687 475.35676197 34.72924805 488.91040039 C29.72567002 492.61258196 24.40393581 495.75696681 19.06604004 498.94851685 C16.34545452 500.58047493 13.64481423 502.24437291 10.9440918 503.90893555 C9.99856445 504.48579102 9.05303711 505.06264648 8.07885742 505.65698242 C6.01723415 506.96305386 4.10166205 508.33951423 2.1628418 509.81518555 C1.31206055 510.2844043 0.4612793 510.75362305 -0.4152832 511.23706055 C-4.06826508 510.11213315 -7.13198058 508.29273848 -10.3449707 506.25268555 C-11.29436523 505.65375488 -12.24375977 505.05482422 -13.22192383 504.43774414 C-14.74076172 503.47215576 -14.74076172 503.47215576 -16.2902832 502.48706055 C-18.4431907 501.12911843 -20.59685691 499.77237857 -22.7512207 498.41674805 C-23.85175781 497.72419922 -24.95229492 497.03165039 -26.08618164 496.31811523 C-32.27185941 492.45138619 -38.51167556 488.67403604 -44.75073242 484.89428711 C-45.64034668 484.35513672 -46.52996094 483.81598633 -47.4465332 483.26049805 C-48.30706299 482.75252686 -49.16759277 482.24455566 -50.05419922 481.72119141 C-52.4152832 480.23706055 -52.4152832 480.23706055 -54.22753906 478.72363281 C-60.47955364 473.72324481 -67.94476894 474.87279869 -75.49221802 475.2895813 C-78.0097157 475.42629465 -80.52634203 475.52713672 -83.04589844 475.61767578 C-86.48722634 475.74283839 -89.92789707 475.87724634 -93.3684082 476.02319336 C-94.21032715 476.05884399 -95.05224609 476.09449463 -95.91967773 476.13122559 C-97.55086595 476.20040188 -99.18205099 476.26965325 -100.81323242 476.33898926 C-105.19818885 476.52035488 -109.58105075 476.66367088 -113.96896362 476.74893188 C-115.94044108 476.79861941 -117.91060523 476.89375312 -119.88037109 476.98974609 C-128.27789638 477.13832952 -128.27789638 477.13832952 -131.08642578 474.9128418 C-132.48988747 472.76768542 -133.4203318 470.60091804 -134.4152832 468.23706055 C-135.59065361 466.03971873 -136.78088537 463.85029475 -137.98168945 461.66674805 C-138.63296263 460.44045279 -139.28182962 459.21287704 -139.9284668 457.98413086 C-141.32267033 455.34004186 -142.73713628 452.70831745 -144.16772461 450.08374023 C-147.38833764 444.14796034 -150.48603803 438.31741862 -152.93481445 432.01049805 C-160.39091949 413.83024615 -175.34484486 408.03519737 -192.24731445 400.2043457 C-198.06850932 397.49053185 -203.67524396 394.41580587 -209.2902832 391.29956055 C-210.61552002 390.58195557 -210.61552002 390.58195557 -211.9675293 389.84985352 C-216.4758052 387.39678124 -216.4758052 387.39678124 -218.4152832 386.23706055 C-219.1491626 385.83302002 -219.88304199 385.42897949 -220.63916016 385.01269531 C-222.4152832 383.23706055 -222.4152832 383.23706055 -222.88525391 380.22875977 C-222.87067139 379.0120459 -222.85608887 377.79533203 -222.84106445 376.54174805 C-222.83813889 375.88075104 -222.83521332 375.21975403 -222.8321991 374.53872681 C-222.817221 372.39577664 -222.77318028 370.25456364 -222.7277832 368.11206055 C-222.7108544 366.65178862 -222.69522965 365.191501 -222.6809082 363.73120117 C-222.56227303 353.88406867 -222.24307243 344.05227566 -221.4152832 334.23706055 C-222.70563477 334.27186523 -223.99598633 334.30666992 -225.32543945 334.3425293 C-227.04287427 334.37068397 -228.76032327 334.39798232 -230.4777832 334.42456055 C-231.74912109 334.46226562 -231.74912109 334.46226562 -233.04614258 334.50073242 C-240.20890358 334.58369877 -244.62845317 333.14959096 -250.6027832 329.04956055 C-256.5037443 323.14859945 -257.86969425 317.57361027 -257.95739746 309.33444214 C-257.94930054 308.19757965 -257.94120361 307.06071716 -257.93286133 305.8894043 C-257.93987061 304.67213654 -257.94687988 303.45486877 -257.95410156 302.20071411 C-257.96863057 298.88222038 -257.96531022 295.56473205 -257.95258522 292.24629593 C-257.9424049 288.76135228 -257.95186478 285.27644938 -257.95812988 281.79150391 C-257.96539175 275.94092159 -257.95585722 270.09054175 -257.93676758 264.23999023 C-257.91500142 257.4915351 -257.92205384 250.74356348 -257.9440732 243.99512005 C-257.96226912 238.18422422 -257.96476516 232.37347331 -257.95431852 226.56255817 C-257.94810649 223.09931331 -257.94718425 219.63629517 -257.96046448 216.17306519 C-257.97424487 212.31009361 -257.95510493 208.44765659 -257.93286133 204.5847168 C-257.94095825 203.44785431 -257.94905518 202.31099182 -257.95739746 201.13967896 C-257.876485 193.53845871 -256.77736854 188.13316838 -251.66918945 182.21362305 C-250.83194336 181.54459961 -250.83194336 181.54459961 -249.9777832 180.86206055 C-249.1444043 180.16983398 -249.1444043 180.16983398 -248.29418945 179.46362305 C-242.68311463 175.80067608 -237.60850309 175.99252082 -231.1027832 176.11206055 C-230.17143555 176.12108398 -229.24008789 176.13010742 -228.28051758 176.1394043 C-225.99183961 176.16287792 -223.70369648 176.19571326 -221.4152832 176.23706055 C-221.4874707 175.38112305 -221.5596582 174.52518555 -221.6340332 173.64331055 C-221.97965634 168.84298922 -222.21258712 164.04533836 -222.4152832 159.23706055 C-222.47345215 157.9615332 -222.53162109 156.68600586 -222.59155273 155.37182617 C-222.74549996 151.80247299 -222.84686369 148.2339412 -222.92211914 144.66210938 C-222.95913968 143.21554817 -223.01034707 141.76927847 -223.07592773 140.32373047 C-223.58153562 128.78872327 -223.58153562 128.78872327 -221.05151367 125.42260742 C-218.91258404 124.04047795 -216.7852195 123.17051467 -214.4152832 122.23706055 C-212.38488776 121.15057734 -210.36481592 120.04468363 -208.3527832 118.92456055 C-206.64122481 118.01515211 -204.9296356 117.10579962 -203.21694946 116.19851685 C-201.36764749 115.21163983 -199.52792371 114.20855622 -197.68945312 113.20166016 C-191.82775463 110.00755418 -186.03789546 107.00202063 -179.84106445 104.4909668 C-161.20901257 96.55840739 -155.22853228 83.76139211 -147.24780273 66.18383789 C-144.6505216 60.50685704 -141.63640095 55.06494607 -138.6027832 49.61206055 C-138.12873047 48.73751221 -137.65467773 47.86296387 -137.16625977 46.96191406 C-136.31140003 45.38981761 -135.43880418 43.8271621 -134.54418945 42.27734375 C-133.25398762 40.03308399 -133.25398762 40.03308399 -131.92700195 36.6784668 C-128.22400482 33.07913055 -124.99462165 33.5977682 -119.97192383 33.66235352 C-118.67448242 33.70763184 -117.37704102 33.75291016 -116.0402832 33.79956055 C-114.6698799 33.81738847 -113.29942841 33.83179672 -111.92895508 33.84301758 C-104.98792662 33.92700325 -98.08833563 34.22978444 -91.16868591 34.78144836 C-70.64700526 36.40638992 -56.88179135 36.55930865 -39.9934082 23.20336914 C-35.6752405 19.90994843 -31.00830442 17.2088634 -26.3527832 14.42456055 C-21.56215091 11.48994743 -16.80196655 8.53358334 -12.16918945 5.35424805 C-11.20734741 4.7022644 -11.20734741 4.7022644 -10.22607422 4.03710938 C-8.54940026 2.89122016 -6.88786943 1.72325795 -5.2277832 0.5534668 C-2.4152832 -0.76293945 -2.4152832 -0.76293945 0 0 Z M-8.5793457 22.17456055 C-9.60423096 22.81530518 -10.62911621 23.4560498 -11.68505859 24.11621094 C-12.79228271 24.81609131 -13.89950684 25.51597168 -15.0402832 26.23706055 C-16.21671337 26.95578146 -17.39439053 27.6724648 -18.57324219 28.38720703 C-24.44536893 31.97083835 -30.05137383 35.64545083 -35.47387695 39.8972168 C-53.85414235 53.73363953 -69.70125051 52.45853494 -91.67358398 50.59301758 C-98.11244472 50.06898642 -104.51945335 50.08654242 -110.9777832 50.17456055 C-112.85408178 50.18436966 -114.73038372 50.19357596 -116.60668945 50.2019043 C-117.86352539 50.21350586 -119.12036133 50.22510742 -120.4152832 50.23706055 C-120.71595703 50.81858887 -121.01663086 51.40011719 -121.32641602 51.99926758 C-128.39205413 65.64721784 -135.47834736 79.29241096 -143.04711914 92.67041016 C-144.46602161 95.23323593 -144.46602161 95.23323593 -145.57250977 98.02441406 C-149.69961795 107.30399394 -156.73138508 110.48145621 -165.4152832 114.67456055 C-166.85201387 115.39715697 -168.28706453 116.12310293 -169.72045898 116.85229492 C-172.58698812 118.30792678 -175.45980049 119.74975104 -178.33813477 121.18188477 C-184.07100486 124.05067418 -189.68074919 127.13471693 -195.2902832 130.23706055 C-197.03732408 131.19604081 -198.7846833 132.15444153 -200.5324707 133.11206055 C-201.24000488 133.50135742 -201.94753906 133.8906543 -202.67651367 134.29174805 C-203.91075848 134.96276685 -205.15873986 135.60878887 -206.4152832 136.23706055 C-206.53779547 149.6229389 -206.2913125 162.87761378 -205.4152832 176.23706055 C-194.1952832 176.23706055 -182.9752832 176.23706055 -171.4152832 176.23706055 C-170.3427832 173.96831055 -169.2702832 171.69956055 -168.1652832 169.36206055 C-160.89825738 154.57391708 -151.35455849 141.49513563 -140.4152832 129.23706055 C-139.3344043 127.97442383 -139.3344043 127.97442383 -138.23168945 126.6862793 C-130.3508873 117.54577778 -120.98891498 110.49025414 -111.4152832 103.23706055 C-108.55329623 105.94972646 -106.30596074 108.67874072 -104.1652832 111.98706055 C-103.64450195 112.7862793 -103.1237207 113.58549805 -102.5871582 114.40893555 C-102.20043945 115.0122168 -101.8137207 115.61549805 -101.4152832 116.23706055 C-102.27766602 116.63924805 -102.27766602 116.63924805 -103.1574707 117.04956055 C-124.43407557 128.24002401 -142.9539594 153.00672695 -153.4152832 174.23706055 C-153.4152832 174.89706055 -153.4152832 175.55706055 -153.4152832 176.23706055 C-53.0952832 176.23706055 47.2247168 176.23706055 150.5847168 176.23706055 C144.2130968 157.12220055 126.95068383 137.82965792 111.5847168 125.23706055 C111.0666748 124.80135742 110.54863281 124.3656543 110.01489258 123.91674805 C74.21189427 93.83458827 29.21589141 80.00538945 -17.36206055 83.45532227 C-44.00224739 86.14438849 -67.59822805 95.53001914 -91.4152832 107.23706055 C-91.69114258 106.51131836 -91.96700195 105.78557617 -92.2512207 105.0378418 C-93.35893884 102.37262735 -94.61759695 99.93298104 -96.0402832 97.42456055 C-96.48629883 96.63436523 -96.93231445 95.84416992 -97.3918457 95.0300293 C-97.72958008 94.43834961 -98.06731445 93.84666992 -98.4152832 93.23706055 C-97.57352539 92.98311523 -96.73176758 92.72916992 -95.86450195 92.4675293 C-92.80982247 91.37780785 -90.03194573 90.08366329 -87.16748047 88.57250977 C-43.77558083 65.68867597 7.85622246 62.07719435 54.5847168 76.23706055 C66.79895995 80.12241785 78.32435672 85.13343003 89.5847168 91.23706055 C90.63014648 91.80166992 91.67557617 92.3662793 92.75268555 92.94799805 C104.17995881 99.37866966 114.57633667 106.95499067 124.1237793 115.9284668 C126.30988661 117.97924365 128.54573229 119.92826329 130.8347168 121.86206055 C147.61470135 136.53605514 158.70530473 157.19808943 169.5847168 176.23706055 C180.4747168 176.23706055 191.3647168 176.23706055 202.5847168 176.23706055 C203.46074609 162.87761378 203.70722906 149.6229389 203.5847168 136.23706055 C202.71242432 135.7860498 202.71242432 135.7860498 201.82250977 135.32592773 C188.17455951 128.26028962 174.52936638 121.17399639 161.15136719 113.60522461 C158.58854141 112.18632214 158.58854141 112.18632214 155.79736328 111.07983398 C146.5177834 106.9527258 143.34032114 99.92095867 139.1472168 91.23706055 C138.42462037 89.80032988 137.69867441 88.36527922 136.96948242 86.93188477 C135.51385056 84.06535563 134.07202631 81.19254326 132.63989258 78.31420898 C129.77110317 72.58133889 126.68706041 66.97159456 123.5847168 61.36206055 C122.62573653 59.61501967 121.66733581 57.86766045 120.7097168 56.11987305 C120.32041992 55.41233887 119.93112305 54.70480469 119.5300293 53.97583008 C118.8590105 52.74158527 118.21298847 51.49360389 117.5847168 50.23706055 C115.70593216 50.21704982 113.82710773 50.19951678 111.94824219 50.18969727 C110.10752701 50.17928541 108.26684509 50.16093365 106.42626953 50.13598633 C100.26913048 50.09719375 94.20438949 50.3022141 88.06599426 50.7542572 C49.56391318 53.56455049 49.56391318 53.56455049 32.10864258 39.22094727 C27.7276726 35.77736417 22.9231914 33.02946342 18.1472168 30.17456055 C16.47963188 29.14559819 14.81413767 28.11323695 13.15112305 27.0769043 C12.38429199 26.60365723 11.61746094 26.13041016 10.82739258 25.64282227 C9.32382 24.70034775 7.83250228 23.73805372 6.35375977 22.75708008 C5.30599365 22.068479 5.30599365 22.068479 4.23706055 21.3659668 C3.62725342 20.95548096 3.01744629 20.54499512 2.38916016 20.12207031 C-2.00662604 17.96610698 -4.84795597 19.82504369 -8.5793457 22.17456055 Z M-241.4152832 195.23706055 C-242.53873085 198.10579452 -242.54271126 200.87719785 -242.54899597 203.93638611 C-242.55326096 204.87704422 -242.55752594 205.81770233 -242.56192017 206.78686523 C-242.56146698 207.81191162 -242.56101379 208.83695801 -242.56054688 209.89306641 C-242.56390549 210.97801895 -242.5672641 212.0629715 -242.57072449 213.18080139 C-242.58023198 216.77118064 -242.58217743 220.36151324 -242.58325195 223.9519043 C-242.58646439 226.44527709 -242.58982845 228.9386497 -242.59333801 231.43202209 C-242.59932858 236.65992536 -242.60122076 241.88781678 -242.60058594 247.11572266 C-242.60005148 252.48652098 -242.60710172 257.85724747 -242.62109375 263.22802734 C-242.63774114 269.71004737 -242.64464235 276.19200279 -242.64397621 282.67404366 C-242.64515749 285.1456088 -242.64958749 287.61717458 -242.65730858 290.08872795 C-242.66709047 293.54311443 -242.66423754 296.99727007 -242.65820312 300.45166016 C-242.66382263 301.47468231 -242.66944214 302.49770447 -242.67523193 303.55172729 C-242.67103745 304.49520523 -242.66684296 305.43868317 -242.66252136 306.41075134 C-242.66306613 307.22687362 -242.6636109 308.04299589 -242.66417217 308.88384914 C-242.3696464 311.66855032 -241.67591048 313.73811298 -240.4152832 316.23706055 C-236.55767834 318.80879712 -233.40131053 318.50918288 -228.93025208 318.47756958 C-228.0538086 318.47927843 -227.17736512 318.48098728 -226.27436274 318.48274791 C-223.32621826 318.48605229 -220.37829943 318.47502352 -217.43017578 318.46411133 C-215.32138576 318.46354742 -213.21259534 318.46386338 -211.10380554 318.46499634 C-205.36859472 318.46557164 -199.63346706 318.45378858 -193.89827561 318.43984842 C-187.90848093 318.42737066 -181.91868446 318.4261729 -175.92887878 318.42379761 C-164.58168432 318.41757414 -153.23452827 318.4011516 -141.88735074 318.38109863 C-128.97096637 318.35876658 -116.05458019 318.34775298 -103.13818133 318.33770776 C-76.56386064 318.31678612 -49.98957407 318.28159332 -23.4152832 318.23706055 C-23.4152832 323.51706055 -23.4152832 328.79706055 -23.4152832 334.23706055 C-66.3152832 334.23706055 -109.2152832 334.23706055 -153.4152832 334.23706055 C-147.03756412 353.37021778 -129.77669832 372.61606155 -114.4152832 385.23706055 C-113.35925523 386.14066152 -112.30326928 387.0443116 -111.24731445 387.94799805 C-76.23670927 417.41895051 -30.81151698 430.37726212 14.53149414 427.01879883 C51.34402484 423.30293401 84.54161299 408.17629551 112.5847168 384.23706055 C113.3890918 383.55643555 114.1934668 382.87581055 115.0222168 382.17456055 C120.01206577 377.85901548 124.3986796 373.32884848 128.5847168 368.23706055 C129.02187012 367.71756836 129.45902344 367.19807617 129.90942383 366.6628418 C135.70785502 359.76133226 141.12716318 352.78781927 145.7722168 345.04956055 C146.14652832 344.42621826 146.52083984 343.80287598 146.90649414 343.16064453 C148.66769083 340.12950607 149.7247867 337.67678092 150.5847168 334.23706055 C107.6847168 334.23706055 64.7847168 334.23706055 20.5847168 334.23706055 C20.5847168 328.95706055 20.5847168 323.67706055 20.5847168 318.23706055 C21.68392834 318.24074772 22.78313988 318.24443489 23.91566086 318.2482338 C50.63836615 318.33695686 77.36105238 318.4027278 104.08387375 318.44430923 C117.00673399 318.46495119 129.92949705 318.49310308 142.85229492 318.53881836 C154.11330073 318.57863601 165.37423617 318.60448146 176.63531041 318.61341453 C182.60025189 318.61863785 188.56499202 318.63094862 194.52986908 318.65998077 C200.14078034 318.68706964 205.75140673 318.69551872 211.36237717 318.68949127 C213.42478609 318.69059443 215.48720424 318.69858695 217.54955673 318.71388245 C220.35986812 318.73370807 223.16909605 318.72902687 225.97943115 318.71807861 C226.80044272 318.72972998 227.62145429 318.74138134 228.467345 318.75338578 C232.04526714 318.7155641 234.14820794 318.56198499 237.06004715 316.39449692 C239.36153817 313.13784362 239.71047247 310.53561731 239.71842957 306.6579895 C239.72269455 305.71870605 239.72695953 304.77942261 239.73135376 303.81167603 C239.73067398 302.26871353 239.73067398 302.26871353 239.72998047 300.69458008 C239.73333908 299.60977356 239.73669769 298.52496704 239.74015808 297.4072876 C239.74967813 293.81147119 239.75161173 290.21570129 239.75268555 286.61987305 C239.75589742 284.12507101 239.75926144 281.63026916 239.76277161 279.13546753 C239.76876553 273.9015879 239.770654 268.66772012 239.77001953 263.43383789 C239.7694853 258.05620365 239.77652873 252.67864119 239.79052734 247.30102539 C239.80717543 240.81367433 239.81407589 234.32638784 239.81340981 227.83901596 C239.81459121 225.36465973 239.81902194 222.89030287 239.82674217 220.4159584 C239.8365246 216.95667333 239.83367077 213.49761876 239.82763672 210.03833008 C239.83325623 209.01373688 239.83887573 207.98914368 239.84466553 206.9335022 C239.84047104 205.9885791 239.83627655 205.04365601 239.83195496 204.07009888 C239.83249972 203.25267778 239.83304449 202.43525669 239.83360577 201.59306526 C239.53928282 198.80697858 238.8461375 196.73712829 237.5847168 194.23706055 C233.89601299 191.77792467 231.12113154 191.95751975 226.85534763 191.98258495 C226.05617211 191.97937848 225.25699658 191.976172 224.43360361 191.97286835 C221.73297239 191.96451108 219.03255964 191.97051253 216.33192444 191.97636414 C214.38527878 191.97334606 212.4386343 191.96945832 210.49199194 191.96477157 C205.12492934 191.95443848 199.75793315 191.95668683 194.39086497 191.96095216 C188.60959366 191.96340979 182.82833875 191.95441727 177.04707336 191.94691467 C165.71424827 191.93413884 154.38144684 191.93237756 143.04861576 191.93471494 C133.84105179 191.936495 124.63349503 191.93475517 115.42593193 191.93049049 C114.11752279 191.9298953 112.80911364 191.92930012 111.46105574 191.92868689 C108.80337926 191.92747519 106.14570279 191.92626106 103.48802631 191.92504451 C85.63271625 191.91709772 67.77740872 191.91334157 49.92209721 191.91736126 C48.87418052 191.91759582 48.87418052 191.91759582 47.80509381 191.91783513 C44.26404687 191.91864094 40.72299994 191.91948671 37.18195302 191.92034843 C36.47865731 191.92051952 35.77536159 191.9206906 35.05075389 191.92086688 C33.62851838 191.92121353 32.20628287 191.92156206 30.78404737 191.92191246 C8.64996114 191.92727066 -13.48408526 191.91933778 -35.61816406 191.90087891 C-60.4712431 191.88017691 -85.32429724 191.86946383 -110.17738539 191.87345439 C-123.34213225 191.87537048 -136.50684281 191.87283929 -149.67158318 191.85873985 C-160.87839432 191.84685926 -172.08514684 191.84538371 -183.29195874 191.85753002 C-189.01389116 191.86344206 -194.73571617 191.86445428 -200.4576416 191.85252762 C-205.69017958 191.84174742 -210.92251944 191.84467759 -216.15504784 191.8587893 C-218.05340159 191.86145807 -219.95177047 191.85900217 -221.85010945 191.85105344 C-224.42034035 191.84103388 -226.98987098 191.84929458 -229.5600729 191.86233044 C-230.30595835 191.85502109 -231.0518438 191.84771174 -231.82033184 191.8401809 C-235.94896282 191.88391738 -238.47699474 192.22407887 -241.4152832 195.23706055 Z M-205.4152832 334.23706055 C-206.2913125 347.59650732 -206.53779547 360.8511822 -206.4152832 374.23706055 C-205.83375488 374.53773438 -205.25222656 374.8384082 -204.65307617 375.14819336 C-191.00512591 382.21383147 -177.35993279 389.3001247 -163.98193359 396.86889648 C-161.41910782 398.28779896 -161.41910782 398.28779896 -158.62792969 399.39428711 C-149.34834981 403.52139529 -146.17088754 410.55316242 -141.9777832 419.23706055 C-141.25518678 420.67379122 -140.52924082 422.10884188 -139.80004883 423.54223633 C-138.34441697 426.40876546 -136.90259271 429.28157784 -135.47045898 432.15991211 C-132.60166957 437.89278221 -129.51762682 443.50252653 -126.4152832 449.11206055 C-125.45630294 450.85910142 -124.49790222 452.60646065 -123.5402832 454.35424805 C-123.15098633 455.06178223 -122.76168945 455.76931641 -122.3605957 456.49829102 C-121.6895769 457.73253583 -121.04355488 458.9805172 -120.4152832 460.23706055 C-118.26549586 460.25690474 -116.11567628 460.27448643 -113.96582031 460.28442383 C-111.92100906 460.29478238 -109.87622679 460.31306609 -107.83154297 460.33813477 C-101.5463179 460.37471568 -95.35807435 460.19858104 -89.09352112 459.71986389 C-67.83555662 458.09907376 -52.34948686 457.19172685 -34.97143555 471.25317383 C-30.5638934 474.67396538 -25.7584311 477.43736305 -20.9777832 480.29956055 C-19.31028574 481.32866463 -17.64479759 482.36103422 -15.98168945 483.3972168 C-14.82757568 484.10515381 -14.82757568 484.10515381 -13.65014648 484.82739258 C-12.16162909 485.76629354 -10.69555629 486.74176396 -9.25463867 487.75219727 C-5.20419153 490.53932518 -5.20419153 490.53932518 -0.44262695 491.3737793 C3.76757308 489.79291709 7.28741815 487.53222562 11.0222168 485.04956055 C12.70324521 483.95906906 14.38559898 482.87061864 16.0690918 481.78393555 C16.95790039 481.20836914 17.84670898 480.63280273 18.76245117 480.03979492 C23.71477109 476.87647915 28.74474902 473.84148854 33.7722168 470.79956055 C35.66172545 469.65533595 37.55105645 468.51081794 39.44018555 467.3659668 C40.24093506 466.88200439 41.04168457 466.39804199 41.86669922 465.89941406 C44.46861389 464.36027169 44.46861389 464.36027169 46.35449219 462.93888855 C51.69210502 459.18577582 55.56580044 458.59776177 61.9987793 458.9675293 C62.88368546 458.9968454 63.76859161 459.0261615 64.68031311 459.05636597 C67.52491183 459.15535974 70.36660863 459.28983952 73.2097168 459.42456055 C75.15598102 459.49767602 77.10235589 459.56790284 79.04882812 459.63525391 C82.85008485 459.7675877 86.65076515 459.90971051 90.45141602 460.05834961 C99.49617442 460.39440994 108.53580634 460.30829802 117.5847168 460.23706055 C118.30836426 458.86493408 118.30836426 458.86493408 119.04663086 457.46508789 C119.36883606 456.85458588 119.69104126 456.24408386 120.02301025 455.61508179 C120.75243497 454.23245603 121.48121668 452.84949088 122.20941162 451.46621704 C124.24615816 447.60177623 126.29811928 443.74661613 128.37768555 439.9050293 C133.73253637 430.00861101 133.73253637 430.00861101 138.2565918 419.71362305 C145.62393467 401.72598641 160.67972712 395.96514378 177.39916992 388.2175293 C183.31906218 385.45405623 189.00735261 382.29779802 194.7097168 379.11206055 C196.46171395 378.15001678 198.21424504 377.18894412 199.9675293 376.22924805 C201.17345153 375.56553622 202.37926651 374.90162915 203.5847168 374.23706055 C203.70722906 360.8511822 203.46074609 347.59650732 202.5847168 334.23706055 C191.6947168 334.23706055 180.8047168 334.23706055 169.5847168 334.23706055 C167.8522168 337.35143555 166.1197168 340.46581055 164.3347168 343.67456055 C156.12829553 358.15495238 147.04286452 371.16066744 135.5847168 383.23706055 C134.53390148 384.47937959 133.4909859 385.72846868 132.4597168 386.98706055 C129.17810344 390.83071818 125.48333023 394.03195047 121.5847168 397.23706055 C120.0687793 398.49196289 120.0687793 398.49196289 118.5222168 399.7722168 C79.27662868 431.72836152 28.93445066 446.57203375 -21.4309082 441.7409668 C-46.48487279 438.8241907 -70.26425101 431.2439338 -92.4152832 419.23706055 C-93.98342773 418.39014648 -93.98342773 418.39014648 -95.58325195 417.52612305 C-107.01052521 411.09545144 -117.40690308 403.51913043 -126.9543457 394.5456543 C-129.14045301 392.49487744 -131.3762987 390.5458578 -133.6652832 388.61206055 C-150.44526776 373.93806596 -161.53587114 353.27603166 -172.4152832 334.23706055 C-183.3052832 334.23706055 -194.1952832 334.23706055 -205.4152832 334.23706055 Z " fill="#000000" transform="translate(257.415283203125,0.762939453125)"/>
<path d="M0 0 C4.95 0 9.9 0 15 0 C18.33665255 3.54602417 19.87878255 5.80771998 22 10 C23.34497053 12.17174752 24.70505463 14.33418962 26.078125 16.48828125 C27.4719719 18.7611425 28.86259621 21.03572654 30.25 23.3125 C30.96325651 24.47738819 31.67679695 25.64210258 32.390625 26.80664062 C35.27996713 31.52644666 38.15276687 36.25461144 41 41 C41.33 27.47 41.66 13.94 42 0 C47.28 0 52.56 0 58 0 C58 24.75 58 49.5 58 75 C53.05 75 48.1 75 43 75 C39.68207738 71.42462461 38.09209934 69.18915795 36 65 C34.90928397 63.23947204 33.80382657 61.48798886 32.68359375 59.74609375 C31.59850837 57.97843366 30.51647644 56.20889558 29.4375 54.4375 C28.35444299 52.66439948 27.26981894 50.89225516 26.18359375 49.12109375 C25.48061157 47.96758423 25.48061157 47.96758423 24.76342773 46.79077148 C22.24976218 42.81268607 19.61025658 38.91538487 17 35 C16.67 48.53 16.34 62.06 16 76 C10.72 76 5.44 76 0 76 C0 50.92 0 25.84 0 0 Z " fill="#000000" transform="translate(312,218)"/>
<path d="M0 0 C35.47598253 0 35.47598253 0 42.0234375 5.7890625 C45.76969456 10.8779088 47.81585598 15.61940979 48 22 C47.62856374 24.02963385 47.21004126 26.05109738 46.75 28.0625 C46.02327688 31.56972899 45.6985447 33.31893431 47.16015625 36.62109375 C48.75925751 38.99459382 48.75925751 38.99459382 50.51953125 41.0625 C53.97826123 45.58896456 53.45086765 51.55679778 53 57 C51.73329811 62.66524939 49.21355074 66.96574929 45 71 C35 76 35 76 0 76 C0 50.92 0 25.84 0 0 Z M16 16 C16 19.96 16 23.92 16 28 C17.7325 28.061875 19.465 28.12375 21.25 28.1875 C22.22453125 28.22230469 23.1990625 28.25710937 24.203125 28.29296875 C27.42027204 27.95597709 28.73357995 27.2770356 31 25 C31.45137977 21.90482445 31.65549806 19.96304338 29.859375 17.32421875 C27.16447391 15.40495096 25.0766302 15.70720548 21.8125 15.8125 C18.9353125 15.9053125 18.9353125 15.9053125 16 16 Z M16 44 C16 49.28 16 54.56 16 60 C18.5575 60.0825 21.115 60.165 23.75 60.25 C24.54889648 60.28641602 25.34779297 60.32283203 26.17089844 60.36035156 C29.673312 60.4150492 31.61823599 60.28465393 34.45703125 58.16796875 C36.46486279 55.34683836 36.92939349 53.45971898 37 50 C35.26655125 46.27156036 35.26655125 46.27156036 32 44 C29.28024285 43.92812481 26.59325368 43.9072138 23.875 43.9375 C19.976875 43.9684375 19.976875 43.9684375 16 44 Z " fill="#000000" transform="translate(57,218)"/>
<path d="M0 0 C31 0 31 0 41 5 C46.84966134 11.68532724 49.57652657 17.11939893 49.37109375 26.0859375 C48.62245146 31.96474961 46.28601962 36.84948059 41.95703125 40.921875 C39.40522074 42.87407976 36.87325886 44.56337057 34 46 C35.33748429 48.92984235 36.8436297 51.14904304 39.00390625 53.53125 C39.57947266 54.17707031 40.15503906 54.82289063 40.74804688 55.48828125 C41.95943611 56.83137158 43.17298712 58.17251522 44.38867188 59.51171875 C44.96294922 60.15753906 45.53722656 60.80335938 46.12890625 61.46875 C46.65556885 62.05076172 47.18223145 62.63277344 47.72485352 63.23242188 C49.11168538 65.15481565 49.58276871 66.68409626 50 69 C48.21326795 70.5058745 46.42046492 72.0045485 44.625 73.5 C43.62726563 74.3353125 42.62953125 75.170625 41.6015625 76.03125 C39 78 39 78 37 78 C35.62508701 76.49212839 34.32635538 74.91460239 33.0625 73.3125 C32.27101562 72.3225 31.47953125 71.3325 30.6640625 70.3125 C30.23770508 69.77882813 29.81134766 69.24515625 29.37207031 68.6953125 C26.94255805 65.69343828 24.43857745 62.75476782 21.9375 59.8125 C20.308125 57.894375 18.67875 55.97625 17 54 C16.67 61.26 16.34 68.52 16 76 C10.72 76 5.44 76 0 76 C0 50.92 0 25.84 0 0 Z M16 16 C16 20.95 16 25.9 16 31 C24.07557784 31.71905153 24.07557784 31.71905153 31.3125 28.9375 C33.29126158 26.0405799 33.29126158 26.0405799 33.0625 22.375 C31.87647735 18.60763393 31.35678105 17.87866906 28 16 C24.9522555 15.63842121 24.9522555 15.63842121 21.75 15.8125 C19.8525 15.874375 17.955 15.93625 16 16 Z " fill="#000000" transform="translate(138,218)"/>
<path d="M0 0 C37.70355505 0 37.70355505 0 46.953125 8.69140625 C55.13290366 17.91707264 56.55435796 29.24423975 56.24609375 41.09375 C55.59333976 51.45492441 51.33680601 61.30672047 43.625 68.4375 C31.93604191 78.47801528 13.06283252 74 0 74 C0 49.58 0 25.16 0 0 Z M16 16 C16 30.19 16 44.38 16 59 C25.04447786 59.29980529 25.04447786 59.29980529 33 56 C39.08815251 49.01185972 40.30706049 43.10583311 40.21875 34.04296875 C39.7628451 27.70100595 37.46784924 22.60323861 33 18 C27.80743041 15.03103721 27.80743041 15.03103721 16 16 Z " fill="#000000" transform="translate(399,218)"/>
<path d="M0 0 C2.53833008 0.02286784 5.07666016 0.04573568 7.61499023 0.06860352 C8.67919189 0.07819092 9.74339355 0.08777832 10.83984375 0.09765625 C16.65763469 14.40446546 22.17789089 28.81048569 27.56103516 43.28613281 C28.8619962 46.78218621 30.16912 50.27589729 31.4765625 53.76953125 C32.30635638 55.99595708 33.13579738 58.22251447 33.96484375 60.44921875 C34.55060181 62.01296738 34.55060181 62.01296738 35.14819336 63.60830688 C35.50276611 64.56466034 35.85733887 65.52101379 36.22265625 66.50634766 C36.69276123 67.76821396 36.69276123 67.76821396 37.17236328 69.05557251 C37.83984375 71.09765625 37.83984375 71.09765625 37.83984375 73.09765625 C32.88984375 74.74765625 27.93984375 76.39765625 22.83984375 78.09765625 C17.96484375 66.72265625 17.96484375 66.72265625 16.83984375 61.09765625 C8.25984375 61.42765625 -0.32015625 61.75765625 -9.16015625 62.09765625 C-11.14015625 67.37765625 -13.12015625 72.65765625 -15.16015625 78.09765625 C-25.87444196 74.95479911 -25.87444196 74.95479911 -30.16015625 73.09765625 C-29.58530029 67.58346446 -28.17074907 62.93665822 -26.1328125 57.796875 C-25.82799454 57.01050156 -25.52317657 56.22412811 -25.2091217 55.41392517 C-24.22057623 52.86823563 -23.22177538 50.3267122 -22.22265625 47.78515625 C-21.54014434 46.03396738 -20.85834492 44.28250067 -20.17724609 42.53076172 C-18.81638635 39.03248312 -17.45207393 35.53558091 -16.08544922 32.03955078 C-14.36318313 27.62739705 -12.66324146 23.20711482 -10.9765625 18.78125 C-10.51564209 17.57315674 -10.05472168 16.36506348 -9.57983398 15.12036133 C-8.73302454 12.89802548 -7.88743404 10.67522468 -7.04321289 8.4519043 C-6.67188232 7.48164307 -6.30055176 6.51138184 -5.91796875 5.51171875 C-5.59973145 4.67592285 -5.28149414 3.84012695 -4.95361328 2.97900391 C-3.65254646 -0.10592561 -3.60009921 0.11125152 0 0 Z M2.83984375 28.09765625 C0.85984375 33.70765625 -1.12015625 39.31765625 -3.16015625 45.09765625 C1.12984375 45.09765625 5.41984375 45.09765625 9.83984375 45.09765625 C8.99797672 40.88832112 7.94869912 37.68498546 6.27734375 33.78515625 C5.82230469 32.71652344 5.36726563 31.64789063 4.8984375 30.546875 C4.54910156 29.73863281 4.19976562 28.93039063 3.83984375 28.09765625 C3.50984375 28.09765625 3.17984375 28.09765625 2.83984375 28.09765625 Z " fill="#000000" transform="translate(245.16015625,217.90234375)"/>
<path d="M0 0 C5.28 0 10.56 0 16 0 C16 5.28 16 10.56 16 16 C10.72 16 5.44 16 0 16 C0 10.72 0 5.44 0 0 Z " fill="#000000" transform="translate(248,319)"/>
<path d="M0 0 C4.95 0 9.9 0 15 0 C15 5.28 15 10.56 15 16 C10.05 16 5.1 16 0 16 C0 10.72 0 5.44 0 0 Z " fill="#000000" transform="translate(331,128)"/>
<path d="M0 0 C4.95 0 9.9 0 15 0 C15 5.28 15 10.56 15 16 C10.05 16 5.1 16 0 16 C0 10.72 0 5.44 0 0 Z " fill="#000000" transform="translate(301,113)"/>
</svg>
