<?xml version="1.0" encoding="UTF-8"?>
<svg version="1.1" xmlns="http://www.w3.org/2000/svg" width="512" height="512">
<path d="M0 0 C2.35729305 1.12821421 4.54140395 2.32435516 6.75268555 3.71362305 C7.95018433 4.46095703 7.95018433 4.46095703 9.171875 5.22338867 C10.02998779 5.76415039 10.88810059 6.30491211 11.7722168 6.86206055 C13.64431466 8.03180839 15.51672572 9.20105511 17.3894043 10.36987305 C18.38552734 10.9928125 19.38165039 11.61575195 20.40795898 12.25756836 C26.05518357 15.77645069 31.72741207 19.25473209 37.3972168 22.73706055 C39.54975175 24.05966609 41.7021046 25.38256805 43.85424805 26.70581055 C44.85738037 27.3088501 45.8605127 27.91188965 46.89404297 28.53320312 C49.5847168 30.23706055 49.5847168 30.23706055 51.50390625 31.82177734 C57.69399379 36.77332771 65.18678542 35.59731425 72.66165161 35.18453979 C75.17914929 35.04782644 77.69577562 34.94698438 80.21533203 34.85644531 C83.65665994 34.7312827 87.09733067 34.59687475 90.5378418 34.45092773 C91.80072021 34.39745178 91.80072021 34.39745178 93.08911133 34.34289551 C94.72029954 34.27371921 96.35148458 34.20446784 97.98266602 34.13513184 C102.36762244 33.95376621 106.75048434 33.81045021 111.13839722 33.72518921 C113.10987467 33.67550169 115.08003883 33.58036797 117.04980469 33.484375 C125.46681898 33.33544674 125.46681898 33.33544674 128.27563477 35.60083008 C129.66782883 37.73709885 130.59970248 39.88453032 131.5847168 42.23706055 C132.6750527 44.26538967 133.78053323 46.28561685 134.8972168 48.29956055 C135.80640531 50.011047 136.71554057 51.72256273 137.62271118 53.43511963 C138.61063392 55.28560613 139.61557611 57.12598287 140.62451172 58.96508789 C143.81509378 64.81239115 146.80517785 70.57070349 149.26049805 76.77612305 C157.28788036 95.99074757 171.41909335 102.07763261 189.43286133 110.30200195 C195.26160324 112.98155783 200.85414759 116.05730307 206.4597168 119.17456055 C207.34328857 119.653125 208.22686035 120.13168945 209.13720703 120.62475586 C213.63965587 123.07400152 213.63965587 123.07400152 215.5847168 124.23706055 C216.68553589 124.84312134 216.68553589 124.84312134 217.80859375 125.46142578 C219.5847168 127.23706055 219.5847168 127.23706055 220.0546875 130.24536133 C220.04010498 131.4620752 220.02552246 132.67878906 220.01049805 133.93237305 C220.0061097 134.92386856 220.0061097 134.92386856 220.00163269 135.93539429 C219.98665459 138.07834445 219.94261387 140.21955746 219.8972168 142.36206055 C219.880288 143.82233247 219.86466325 145.2826201 219.8503418 146.74291992 C219.73170663 156.59005242 219.41250602 166.42184543 218.5847168 176.23706055 C219.14868164 176.21611328 219.71264648 176.19516602 220.29370117 176.17358398 C222.89051929 176.08957554 225.48705042 176.03813826 228.0847168 175.98706055 C228.9715918 175.95354492 229.8584668 175.9200293 230.7722168 175.88549805 C237.95451 175.77987609 243.12278691 177.24964228 248.6081543 181.9831543 C249.05416992 182.54131836 249.50018555 183.09948242 249.9597168 183.67456055 C250.42120117 184.23014648 250.88268555 184.78573242 251.3581543 185.3581543 C253.94648537 189.32308184 254.83489866 192.86476067 254.85214233 197.56794739 C254.8606723 198.62344284 254.86920227 199.67893829 254.87799072 200.76641846 C254.87708435 201.91406677 254.87617798 203.06171509 254.87524414 204.24414062 C254.88531998 206.06938515 254.88531998 206.06938515 254.89559937 207.9315033 C254.91132807 211.26229314 254.91795359 214.5928336 254.91923094 217.92364335 C254.92065485 220.00739685 254.92492901 222.0911244 254.93022537 224.17487144 C254.9487175 231.45253528 254.95689714 238.73012595 254.95532227 246.0078125 C254.95412156 252.7783267 254.97521176 259.54852176 255.00680959 266.31895524 C255.03301408 272.14250263 255.0436878 277.96594606 255.04241145 283.78955191 C255.04190297 287.26293555 255.04752211 290.73603552 255.06876755 294.20936012 C255.09183912 298.08696427 255.08260348 301.96413539 255.07055664 305.84179688 C255.08179565 306.9833725 255.09303467 308.12494812 255.10461426 309.30111694 C255.04441093 316.93656868 253.93548777 322.27427661 248.8737793 328.26049805 C248.32463867 328.70651367 247.77549805 329.1525293 247.2097168 329.61206055 C246.66573242 330.07354492 246.12174805 330.5350293 245.5612793 331.01049805 C239.82002813 334.57325075 234.23530183 334.48982049 227.7097168 334.36206055 C226.83057617 334.35303711 225.95143555 334.34401367 225.0456543 334.3347168 C222.89188969 334.31130631 220.73826665 334.27544064 218.5847168 334.23706055 C218.6569043 335.09299805 218.7290918 335.94893555 218.8034668 336.83081055 C219.14908993 341.63113187 219.38202071 346.42878274 219.5847168 351.23706055 C219.64288574 352.51258789 219.70105469 353.78811523 219.76098633 355.10229492 C219.91493355 358.67164811 220.01629728 362.24017989 220.09155273 365.81201172 C220.12857327 367.25857293 220.17978066 368.70484262 220.24536133 370.15039062 C220.75096922 381.68539782 220.75096922 381.68539782 218.22094727 385.05151367 C216.08201764 386.43364314 213.95465309 387.30360643 211.5847168 388.23706055 C209.55432136 389.32354375 207.53424952 390.42943747 205.5222168 391.54956055 C203.81073034 392.45874906 202.09921461 393.36788432 200.38665771 394.27505493 C198.53617122 395.26297767 196.69579447 396.26791986 194.85668945 397.27685547 C189.00938619 400.46743753 183.25107385 403.4575216 177.0456543 405.9128418 C157.83102977 413.94022411 151.74414474 428.0714371 143.51977539 446.08520508 C140.84021951 451.91394699 137.76447427 457.50649134 134.6472168 463.11206055 C134.16865234 463.99563232 133.69008789 464.8792041 133.19702148 465.78955078 C130.74777582 470.29199962 130.74777582 470.29199962 129.5847168 472.23706055 C128.94904785 473.33787964 128.94904785 473.33787964 128.30053711 474.4609375 C126.5847168 476.23706055 126.5847168 476.23706055 124.00146484 476.70703125 C122.96030518 476.69244873 121.91914551 476.67786621 120.84643555 476.6628418 C119.65300537 476.65381836 118.4595752 476.64479492 117.22998047 476.63549805 C115.92391846 476.60713867 114.61785645 476.5787793 113.2722168 476.54956055 C111.8950282 476.54330387 110.51782687 476.53945094 109.140625 476.5378418 C101.38213568 476.49840056 93.71860206 476.12031247 85.9909668 475.4362793 C64.53184773 473.68312523 52.34012687 475.35676197 34.72924805 488.91040039 C29.72567002 492.61258196 24.40393581 495.75696681 19.06604004 498.94851685 C16.34545452 500.58047493 13.64481423 502.24437291 10.9440918 503.90893555 C9.99856445 504.48579102 9.05303711 505.06264648 8.07885742 505.65698242 C6.01723415 506.96305386 4.10166205 508.33951423 2.1628418 509.81518555 C1.31206055 510.2844043 0.4612793 510.75362305 -0.4152832 511.23706055 C-4.06826508 510.11213315 -7.13198058 508.29273848 -10.3449707 506.25268555 C-11.29436523 505.65375488 -12.24375977 505.05482422 -13.22192383 504.43774414 C-14.74076172 503.47215576 -14.74076172 503.47215576 -16.2902832 502.48706055 C-18.4431907 501.12911843 -20.59685691 499.77237857 -22.7512207 498.41674805 C-23.85175781 497.72419922 -24.95229492 497.03165039 -26.08618164 496.31811523 C-32.27185941 492.45138619 -38.51167556 488.67403604 -44.75073242 484.89428711 C-45.64034668 484.35513672 -46.52996094 483.81598633 -47.4465332 483.26049805 C-48.30706299 482.75252686 -49.16759277 482.24455566 -50.05419922 481.72119141 C-52.4152832 480.23706055 -52.4152832 480.23706055 -54.22753906 478.72363281 C-60.47955364 473.72324481 -67.94476894 474.87279869 -75.49221802 475.2895813 C-78.0097157 475.42629465 -80.52634203 475.52713672 -83.04589844 475.61767578 C-86.48722634 475.74283839 -89.92789707 475.87724634 -93.3684082 476.02319336 C-94.21032715 476.05884399 -95.05224609 476.09449463 -95.91967773 476.13122559 C-97.55086595 476.20040188 -99.18205099 476.26965325 -100.81323242 476.33898926 C-105.19818885 476.52035488 -109.58105075 476.66367088 -113.96896362 476.74893188 C-115.94044108 476.79861941 -117.91060523 476.89375312 -119.88037109 476.98974609 C-128.27789638 477.13832952 -128.27789638 477.13832952 -131.08642578 474.9128418 C-132.48988747 472.76768542 -133.4203318 470.60091804 -134.4152832 468.23706055 C-135.59065361 466.03971873 -136.78088537 463.85029475 -137.98168945 461.66674805 C-138.63296263 460.44045279 -139.28182962 459.21287704 -139.9284668 457.98413086 C-141.32267033 455.34004186 -142.73713628 452.70831745 -144.16772461 450.08374023 C-147.38833764 444.14796034 -150.48603803 438.31741862 -152.93481445 432.01049805 C-160.39091949 413.83024615 -175.34484486 408.03519737 -192.24731445 400.2043457 C-198.06850932 397.49053185 -203.67524396 394.41580587 -209.2902832 391.29956055 C-210.61552002 390.58195557 -210.61552002 390.58195557 -211.9675293 389.84985352 C-216.4758052 387.39678124 -216.4758052 387.39678124 -218.4152832 386.23706055 C-219.1491626 385.83302002 -219.88304199 385.42897949 -220.63916016 385.01269531 C-222.4152832 383.23706055 -222.4152832 383.23706055 -222.88525391 380.22875977 C-222.87067139 379.0120459 -222.85608887 377.79533203 -222.84106445 376.54174805 C-222.83813889 375.88075104 -222.83521332 375.21975403 -222.8321991 374.53872681 C-222.817221 372.39577664 -222.77318028 370.25456364 -222.7277832 368.11206055 C-222.7108544 366.65178862 -222.69522965 365.191501 -222.6809082 363.73120117 C-222.56227303 353.88406867 -222.24307243 344.05227566 -221.4152832 334.23706055 C-222.70563477 334.27186523 -223.99598633 334.30666992 -225.32543945 334.3425293 C-227.04287427 334.37068397 -228.76032327 334.39798232 -230.4777832 334.42456055 C-231.74912109 334.46226562 -231.74912109 334.46226562 -233.04614258 334.50073242 C-240.20890358 334.58369877 -244.62845317 333.14959096 -250.6027832 329.04956055 C-256.5037443 323.14859945 -257.86969425 317.57361027 -257.95739746 309.33444214 C-257.94930054 308.19757965 -257.94120361 307.06071716 -257.93286133 305.8894043 C-257.93987061 304.67213654 -257.94687988 303.45486877 -257.95410156 302.20071411 C-257.96863057 298.88222038 -257.96531022 295.56473205 -257.95258522 292.24629593 C-257.9424049 288.76135228 -257.95186478 285.27644938 -257.95812988 281.79150391 C-257.96539175 275.94092159 -257.95585722 270.09054175 -257.93676758 264.23999023 C-257.91500142 257.4915351 -257.92205384 250.74356348 -257.9440732 243.99512005 C-257.96226912 238.18422422 -257.96476516 232.37347331 -257.95431852 226.56255817 C-257.94810649 223.09931331 -257.94718425 219.63629517 -257.96046448 216.17306519 C-257.97424487 212.31009361 -257.95510493 208.44765659 -257.93286133 204.5847168 C-257.94095825 203.44785431 -257.94905518 202.31099182 -257.95739746 201.13967896 C-257.876485 193.53845871 -256.77736854 188.13316838 -251.66918945 182.21362305 C-250.83194336 181.54459961 -250.83194336 181.54459961 -249.9777832 180.86206055 C-249.1444043 180.16983398 -249.1444043 180.16983398 -248.29418945 179.46362305 C-242.68311463 175.80067608 -237.60850309 175.99252082 -231.1027832 176.11206055 C-230.17143555 176.12108398 -229.24008789 176.13010742 -228.28051758 176.1394043 C-225.99183961 176.16287792 -223.70369648 176.19571326 -221.4152832 176.23706055 C-221.4874707 175.38112305 -221.5596582 174.52518555 -221.6340332 173.64331055 C-221.97965634 168.84298922 -222.21258712 164.04533836 -222.4152832 159.23706055 C-222.47345215 157.9615332 -222.53162109 156.68600586 -222.59155273 155.37182617 C-222.74549996 151.80247299 -222.84686369 148.2339412 -222.92211914 144.66210938 C-222.95913968 143.21554817 -223.01034707 141.76927847 -223.07592773 140.32373047 C-223.58153562 128.78872327 -223.58153562 128.78872327 -221.05151367 125.42260742 C-218.91258404 124.04047795 -216.7852195 123.17051467 -214.4152832 122.23706055 C-212.38488776 121.15057734 -210.36481592 120.04468363 -208.3527832 118.92456055 C-206.64122481 118.01515211 -204.9296356 117.10579962 -203.21694946 116.19851685 C-201.36764749 115.21163983 -199.52792371 114.20855622 -197.68945312 113.20166016 C-191.82775463 110.00755418 -186.03789546 107.00202063 -179.84106445 104.4909668 C-161.20901257 96.55840739 -155.22853228 83.76139211 -147.24780273 66.18383789 C-144.6505216 60.50685704 -141.63640095 55.06494607 -138.6027832 49.61206055 C-138.12873047 48.73751221 -137.65467773 47.86296387 -137.16625977 46.96191406 C-136.31140003 45.38981761 -135.43880418 43.8271621 -134.54418945 42.27734375 C-133.25398762 40.03308399 -133.25398762 40.03308399 -131.92700195 36.6784668 C-128.22400482 33.07913055 -124.99462165 33.5977682 -119.97192383 33.66235352 C-118.67448242 33.70763184 -117.37704102 33.75291016 -116.0402832 33.79956055 C-114.6698799 33.81738847 -113.29942841 33.83179672 -111.92895508 33.84301758 C-104.98792662 33.92700325 -98.08833563 34.22978444 -91.16868591 34.78144836 C-70.64700526 36.40638992 -56.88179135 36.55930865 -39.9934082 23.20336914 C-35.6752405 19.90994843 -31.00830442 17.2088634 -26.3527832 14.42456055 C-21.56215091 11.48994743 -16.80196655 8.53358334 -12.16918945 5.35424805 C-11.20734741 4.7022644 -11.20734741 4.7022644 -10.22607422 4.03710938 C-8.54940026 2.89122016 -6.88786943 1.72325795 -5.2277832 0.5534668 C-2.4152832 -0.76293945 -2.4152832 -0.76293945 0 0 Z " fill="#020202" transform="translate(257.415283203125,0.762939453125)"/>
<path d="M0 0 C1.20177543 -0.01090081 1.20177543 -0.01090081 2.42782915 -0.02202183 C5.12366028 -0.04032984 7.81807903 -0.02289013 10.51390076 -0.00571251 C12.46156576 -0.01147141 14.40922534 -0.01941097 16.35687351 -0.02934873 C21.71761369 -0.05027693 27.07791046 -0.03987967 32.43865252 -0.02441764 C38.21652303 -0.01313251 43.99431581 -0.03055273 49.77217102 -0.04431725 C61.09440974 -0.06658451 72.41648301 -0.06173289 83.73872828 -0.04725404 C92.93814248 -0.03597553 102.1375102 -0.03442489 111.33692932 -0.03987312 C112.64477876 -0.04063929 113.9526282 -0.04140545 115.30010945 -0.04219484 C117.95673713 -0.04379342 120.61336481 -0.04541448 123.26999247 -0.04705779 C147.48730582 -0.06142114 171.70453543 -0.04652906 195.92183448 -0.02034481 C218.03614912 0.00338381 240.1503198 0.00126069 262.26463318 -0.02264977 C287.10200585 -0.04941459 311.93929776 -0.05995213 336.77668285 -0.04458845 C339.42369778 -0.04299565 342.07071271 -0.0414238 344.71772766 -0.03987312 C346.67144998 -0.03871606 346.67144998 -0.03871606 348.66464144 -0.03753562 C357.85612356 -0.03321319 367.04755471 -0.04051686 376.23902893 -0.05227089 C387.43592746 -0.0662743 398.63265068 -0.06254135 409.82952905 -0.03586717 C415.54558353 -0.02270001 421.2613454 -0.01762608 426.97739792 -0.03411293 C432.20572708 -0.04896529 437.43349121 -0.04090215 442.66176879 -0.01422517 C444.55738319 -0.00862017 446.45304491 -0.01152556 448.34862912 -0.02360411 C450.91799169 -0.03872546 453.485398 -0.02330468 456.05465698 0 C456.79734372 -0.01170583 457.54003047 -0.02341166 458.30522287 -0.03547221 C462.23129408 0.03611254 463.88912001 0.51773303 466.9862951 3.01577342 C469.23727434 5.89802995 469.65435611 7.0807555 469.6622467 10.67656898 C469.67634583 11.66908669 469.69044495 12.66160439 469.70497131 13.68419838 C469.68978958 15.30053169 469.68978958 15.30053169 469.67430115 16.9495182 C469.68744354 18.6649482 469.68744354 18.6649482 469.70085144 20.41503334 C469.72285717 24.19514344 469.70828689 27.97408371 469.69139099 31.7542057 C469.69475874 34.38067283 469.69961102 37.00713844 469.70588684 39.63360023 C469.71497602 45.13812368 469.70301517 50.64231139 469.67918396 56.14678383 C469.65197347 62.50510311 469.6607882 68.86262071 469.68831599 75.22092056 C469.71376446 81.34473338 469.71104 87.46819157 469.69640732 93.59203529 C469.69306999 96.19477895 469.69717178 98.79754304 469.70880508 101.40026283 C469.72149257 105.03702561 469.70216254 108.67224546 469.67430115 112.3088932 C469.6844223 113.38644875 469.69454346 114.46400429 469.70497131 115.57421303 C469.68382263 117.06298958 469.68382263 117.06298958 469.6622467 118.58184242 C469.66036158 119.44091194 469.65847645 120.29998146 469.65653419 121.18508339 C468.69453103 124.92194304 467.11091897 126.3494744 464.02732849 128.6292057 C461.10969982 129.32776576 458.29051513 129.28368511 455.30178833 129.23047829 C454.423636 129.23475041 453.54548367 129.23902254 452.64072067 129.24342412 C449.69835154 129.25165964 446.75740806 129.22415982 443.81517029 129.19683266 C441.70608555 129.19542231 439.59699835 129.1962139 437.48791504 129.19904518 C431.76090641 129.20048124 426.03442013 129.17106011 420.30753303 129.13617539 C414.32311121 129.10494391 408.33867775 129.10198367 402.35418701 129.09604836 C391.02112835 129.08050053 379.68831051 129.03945913 368.35535794 128.98930091 C355.45346585 128.93343684 342.55156232 128.90592829 329.64957941 128.88082373 C303.10869553 128.82854429 276.5680255 128.74058355 250.02732849 128.6292057 C250.02732849 133.5792057 250.02732849 138.5292057 250.02732849 143.6292057 C293.25732849 143.6292057 336.48732849 143.6292057 381.02732849 143.6292057 C367.07980987 178.49800225 332.75604565 207.55428421 299.08982849 222.4417057 C276.43893275 232.03335627 254.45495589 236.81205134 229.91648865 236.86944008 C227.42835008 236.87910463 224.94105414 236.91019404 222.45310974 236.9417057 C211.9270189 237.01049002 202.30347256 235.94117438 192.02732849 233.6292057 C190.30945129 233.27934608 190.30945129 233.27934608 188.55686951 232.92241859 C174.10293599 229.97168963 160.75252232 224.44480584 147.7743988 217.54912758 C146.24410124 216.74334764 144.69558817 215.97235817 143.14451599 215.2073307 C130.53707903 208.80952687 119.17923504 199.38143089 109.02732849 189.6292057 C108.53700134 189.16997719 108.04667419 188.71074867 107.54148865 188.23760414 C94.36529219 175.86745229 83.51071227 161.6105297 75.02732849 145.6292057 C75.02732849 144.9692057 75.02732849 144.3092057 75.02732849 143.6292057 C118.25732849 143.6292057 161.48732849 143.6292057 206.02732849 143.6292057 C206.02732849 138.6792057 206.02732849 133.7292057 206.02732849 128.6292057 C204.92903874 128.63381467 203.830749 128.63842363 202.69917774 128.64317226 C175.99283032 128.75410028 149.28651273 128.83630125 122.57998371 128.88826656 C109.6649692 128.91406365 96.75010674 128.94924317 83.83518982 129.00640297 C72.58039999 129.05619157 61.32572027 129.08848576 50.07082337 129.09964818 C44.10971238 129.10617456 38.14891642 129.12154513 32.18790627 129.15785599 C26.57941186 129.19174338 20.97136286 129.20227319 15.3627758 129.19474411 C13.30239061 129.19612189 11.24199082 129.20609728 9.18169403 129.22523308 C6.37153536 129.25005754 3.56306519 129.24414961 0.75286865 129.23047829 C-0.47427944 129.2523246 -0.47427944 129.2523246 -1.7262184 129.27461225 C-5.87180492 129.21997866 -7.53951756 128.94944104 -10.97833538 126.40708637 C-13.11396883 123.4323948 -13.59969346 122.18024095 -13.60758972 118.58184242 C-13.62168884 117.58932472 -13.63578796 116.59680702 -13.65031433 115.57421303 C-13.6351326 113.95787971 -13.6351326 113.95787971 -13.61964417 112.3088932 C-13.62840576 111.16527321 -13.63716736 110.02165321 -13.64619446 108.84337807 C-13.66820019 105.06326797 -13.65362991 101.28432769 -13.63673401 97.5042057 C-13.64010176 94.87773857 -13.64495403 92.25127296 -13.65122986 89.62481117 C-13.66031904 84.12028773 -13.64835818 78.61610002 -13.62452698 73.11162758 C-13.59731649 66.7533083 -13.60613122 60.3957907 -13.63365901 54.03749084 C-13.65910748 47.91367803 -13.65638301 41.79021984 -13.64175034 35.66637611 C-13.638413 33.06363246 -13.6425148 30.46086837 -13.6541481 27.85814857 C-13.66683559 24.22138579 -13.64750555 20.58616595 -13.61964417 16.9495182 C-13.62976532 15.87196266 -13.63988647 14.79440712 -13.65031433 13.68419838 C-13.63621521 12.69168068 -13.62211609 11.69916298 -13.60758972 10.67656898 C-13.60570459 9.81749947 -13.60381947 8.95842995 -13.60187721 8.07332802 C-11.79830446 1.06742777 -6.41267428 -0.10107314 0 0 Z " fill="#FDC176" transform="translate(27.972671508789063,191.37079429626465)"/>
<path d="M0 0 C2.76824307 0.79426926 4.79100777 1.8344731 7.23388672 3.35180664 C8.12309814 3.89877197 9.01230957 4.4457373 9.9284668 5.00927734 C10.88132568 5.60571045 11.83418457 6.20214355 12.81591797 6.81665039 C13.80809326 7.42919678 14.80026855 8.04174316 15.82250977 8.67285156 C18.5208058 10.33955101 21.21512435 12.01249116 23.90856934 13.68701172 C28.66278701 16.63692803 33.43210331 19.56247743 38.19790649 22.49362183 C39.92398554 23.55622649 41.64881111 24.62083763 43.37329102 25.68603516 C44.42299072 26.3337085 45.47269043 26.98138184 46.55419922 27.64868164 C47.48659424 28.22465088 48.41898926 28.80062012 49.37963867 29.39404297 C53.20280576 31.70637212 55.22848682 31.83765254 59.72705078 31.70898438 C61.00888245 31.67663193 62.29071411 31.64427948 63.61138916 31.61094666 C64.29872383 31.59222944 64.9860585 31.57351223 65.6942215 31.55422783 C70.09771039 31.44300611 74.50232926 31.38662988 78.90665054 31.31816006 C82.77704718 31.25479233 86.64553249 31.17362257 90.51464844 31.0546875 C94.25830519 30.94067521 97.99997732 30.87604141 101.74520111 30.84431648 C103.16965775 30.82338733 104.59397166 30.7846173 106.01743317 30.72741508 C110.38966378 30.55739838 114.40372855 30.55584035 118.62841797 31.75415039 C121.65997228 34.69064754 123.0742551 37.87505235 124.62841797 41.75415039 C125.28018085 42.97527409 125.9471007 44.18855167 126.63549805 45.3894043 C127.21710693 46.49203613 127.79871582 47.59466797 128.39794922 48.73071289 C129.059836 49.98347306 129.72186909 51.23615593 130.3840332 52.48876953 C130.71942108 53.12493195 131.05480896 53.76109436 131.40036011 54.41653442 C132.46364507 56.42201641 133.54034499 58.41976387 134.62084961 60.41601562 C140.63803849 71.56142993 140.63803849 71.56142993 142.79248047 76.81274414 C148.25378846 89.59357687 159.17547987 93.6159561 171.31298828 99.18969727 C176.55673837 101.6640677 181.61790955 104.45026788 186.69091797 107.25415039 C187.57545654 107.73464844 188.45999512 108.21514648 189.37133789 108.71020508 C191.80433218 110.03826995 194.22849402 111.36702351 196.62841797 112.75415039 C197.3037558 113.06889816 197.97909363 113.38364594 198.67489624 113.70793152 C204.21195335 116.56496816 204.21195335 116.56496816 205.3250885 119.74343872 C205.55579873 122.19765764 205.52939068 124.53030492 205.40966797 126.99243164 C205.3926886 128.31358223 205.3926886 128.31358223 205.37536621 129.66142273 C205.33069776 132.46541033 205.2303683 135.26421853 205.12841797 138.06665039 C205.08827796 139.97087322 205.05177807 141.8751765 205.01904297 143.77954102 C204.9377918 148.44132695 204.78134598 153.09197011 204.62841797 157.75415039 C193.07841797 157.75415039 181.52841797 157.75415039 169.62841797 157.75415039 C167.21529297 153.23727539 167.21529297 153.23727539 164.75341797 148.62915039 C152.79958116 126.67512623 136.64156691 105.90922624 116.62841797 90.75415039 C116.0731543 90.32392578 115.51789063 89.89370117 114.94580078 89.45043945 C105.65662096 82.26293019 96.05931714 76.14962432 85.62841797 70.75415039 C84.46181641 70.14958008 83.29521484 69.54500977 82.09326172 68.92211914 C56.38443366 56.30970405 30.17904586 50.57701668 1.71801758 50.51391602 C-0.903975 50.50426125 -3.52516474 50.47318205 -6.14697266 50.44165039 C-17.22693044 50.37252549 -27.54353226 51.44323105 -38.37158203 53.75415039 C-39.81922611 54.04790026 -41.26706306 54.34070117 -42.71508789 54.63256836 C-61.56825335 58.53728621 -78.63654341 66.42078028 -95.37158203 75.75415039 C-93.80516452 80.06179854 -91.68822048 83.81586504 -89.37158203 87.75415039 C-88.39060547 87.24625977 -87.40962891 86.73836914 -86.39892578 86.21508789 C-63.10253229 74.27859827 -37.90163001 64.69476662 -11.40283203 64.55102539 C-10.14496887 64.54247528 -10.14496887 64.54247528 -8.86169434 64.53375244 C-7.09351845 64.52435816 -5.3253255 64.51779081 -3.55712891 64.51391602 C-0.90641077 64.50427704 1.74350831 64.47322787 4.39404297 64.44165039 C15.192623 64.37526516 25.09385195 65.32759733 35.62841797 67.75415039 C36.66385742 67.97707764 37.69929687 68.20000488 38.76611328 68.4296875 C54.48481075 71.88633191 69.57224207 78.00089898 83.62841797 85.75415039 C84.56113525 86.26002686 84.56113525 86.26002686 85.51269531 86.77612305 C113.85639535 102.30802838 137.5135619 127.28020436 152.62841797 155.75415039 C152.62841797 156.41415039 152.62841797 157.07415039 152.62841797 157.75415039 C51.64841797 157.75415039 -49.33158203 157.75415039 -153.37158203 157.75415039 C-146.36868028 140.24689602 -133.75044717 125.9218185 -120.62158203 112.69165039 C-119.93708984 112.00151855 -119.25259766 111.31138672 -118.54736328 110.6003418 C-105.51671695 97.75415039 -105.51671695 97.75415039 -101.37158203 97.75415039 C-102.30465624 96.3137737 -103.2432328 94.87696054 -104.18408203 93.44165039 C-104.70615234 92.64114258 -105.22822266 91.84063477 -105.76611328 91.01586914 C-107.17548052 89.03041019 -108.5925486 87.40496519 -110.37158203 85.75415039 C-123.85764604 95.67828055 -136.24311663 106.3272113 -146.37158203 119.75415039 C-146.80035645 120.30796387 -147.22913086 120.86177734 -147.67089844 121.43237305 C-154.38371871 130.10736568 -160.11753109 139.04391094 -165.26586914 148.72875977 C-166.92211894 151.76259689 -168.65668218 154.75307565 -170.37158203 157.75415039 C-181.92158203 157.75415039 -193.47158203 157.75415039 -205.37158203 157.75415039 C-205.60180767 152.16222542 -205.80046565 146.5867953 -205.92089844 140.99389648 C-205.97108535 139.09424084 -206.03925707 137.19496961 -206.12597656 135.29663086 C-206.81986736 119.71265999 -206.81986736 119.71265999 -203.65917969 115.43847656 C-200.97649881 113.79469626 -198.33347889 112.8167224 -195.37158203 111.75415039 C-192.81315293 110.4746269 -190.3219904 109.07594299 -187.81689453 107.69555664 C-186.44756738 106.96891047 -185.07644011 106.24564728 -183.70361328 105.52563477 C-182.66454834 104.97975708 -182.66454834 104.97975708 -181.60449219 104.42285156 C-180.90888184 104.05780518 -180.21327148 103.69275879 -179.49658203 103.31665039 C-176.72671255 101.86271075 -173.95824122 100.40618868 -171.19189453 98.94555664 C-170.52587219 98.5942569 -169.85984985 98.24295715 -169.17364502 97.88101196 C-163.89052047 95.07470307 -158.74242532 92.08406016 -153.625 88.984375 C-151.37158203 87.75415039 -151.37158203 87.75415039 -149.37158203 87.75415039 C-149.12029541 87.08101807 -148.86900879 86.40788574 -148.61010742 85.71435547 C-147.12390033 82.16216525 -145.36159188 78.7868597 -143.55517578 75.39086914 C-143.17982193 74.68122513 -142.80446808 73.97158112 -142.41773987 73.24043274 C-141.62127237 71.73613592 -140.82355 70.23250293 -140.0246582 68.72949219 C-138.83415816 66.48884629 -137.64844499 64.24572086 -136.46337891 62.00219727 C-132.5048404 54.52601111 -128.48305202 47.08928895 -124.34423828 39.71118164 C-123.9598912 39.02481125 -123.57554413 38.33844086 -123.17955017 37.63127136 C-120.49708763 32.87965599 -120.49708763 32.87965599 -119.37158203 31.75415039 C-117.41479032 31.72320461 -115.45684821 31.76354523 -113.50097656 31.83105469 C-111.61102463 31.88926643 -111.61102463 31.88926643 -109.68289185 31.94865417 C-109.00334568 31.97061544 -108.32379951 31.99257671 -107.62366104 32.01520348 C-103.23596746 32.1459806 -98.84675384 32.21418927 -94.45788765 32.29376507 C-90.61970406 32.36688297 -86.78448977 32.46109556 -82.94824219 32.60449219 C-64.886005 33.26030149 -50.88028558 33.39644474 -36.28710938 21.29043579 C-33.38295027 18.96125096 -30.24219302 17.10770724 -27.03955078 15.22290039 C-25.95480469 14.55774414 -24.87005859 13.89258789 -23.75244141 13.20727539 C-22.17172852 12.24047852 -22.17172852 12.24047852 -20.55908203 11.25415039 C-18.36441625 9.91147103 -16.17038354 8.56775621 -13.97705078 7.22290039 C-12.98753418 6.61961914 -11.99801758 6.01633789 -10.97851562 5.39477539 C-8.88228743 4.0755533 -6.90691141 2.69883303 -4.92236328 1.22290039 C-2.37158203 -0.24584961 -2.37158203 -0.24584961 0 0 Z " fill="#FDFDFD" transform="translate(256.37158203125,19.245849609375)"/>
<path d="M0 0 C4.62 0 9.24 0 14 0 C14 2.64 14 5.28 14 8 C19.28 8 24.56 8 30 8 C30 5.36 30 2.72 30 0 C34.62 0 39.24 0 44 0 C44 2.64 44 5.28 44 8 C87.23 8 130.46 8 175 8 C161.05248138 42.86879655 126.72871716 71.92507851 93.0625 86.8125 C70.41160426 96.40415057 48.4276274 101.18284564 23.88916016 101.24023438 C21.40102158 101.24989893 18.91372565 101.28098834 16.42578125 101.3125 C5.89969041 101.38128432 -3.72385594 100.31196868 -14 98 C-15.14525146 97.76676025 -16.29050293 97.53352051 -17.47045898 97.29321289 C-31.9243925 94.34248393 -45.27480617 88.81560014 -58.25292969 81.91992188 C-59.78322725 81.11414194 -61.33174032 80.34315247 -62.8828125 79.578125 C-75.49024946 73.18032117 -86.84809345 63.75222519 -97 54 C-97.49032715 53.54077148 -97.9806543 53.08154297 -98.48583984 52.60839844 C-111.6620363 40.23824658 -122.51661622 25.98132399 -131 10 C-131 9.34 -131 8.68 -131 8 C-87.77 8 -44.54 8 0 8 C0 5.36 0 2.72 0 0 Z " fill="#FEFEFE" transform="translate(234,327)"/>
<path d="M0 0 C2.76824307 0.79426926 4.79100777 1.8344731 7.23388672 3.35180664 C8.12309814 3.89877197 9.01230957 4.4457373 9.9284668 5.00927734 C10.88132568 5.60571045 11.83418457 6.20214355 12.81591797 6.81665039 C13.80809326 7.42919678 14.80026855 8.04174316 15.82250977 8.67285156 C18.5208058 10.33955101 21.21512435 12.01249116 23.90856934 13.68701172 C28.66278701 16.63692803 33.43210331 19.56247743 38.19790649 22.49362183 C39.92398554 23.55622649 41.64881111 24.62083763 43.37329102 25.68603516 C44.42299072 26.3337085 45.47269043 26.98138184 46.55419922 27.64868164 C47.48659424 28.22465088 48.41898926 28.80062012 49.37963867 29.39404297 C53.20280576 31.70637212 55.22848682 31.83765254 59.72705078 31.70898438 C61.00888245 31.67663193 62.29071411 31.64427948 63.61138916 31.61094666 C64.29872383 31.59222944 64.9860585 31.57351223 65.6942215 31.55422783 C70.09771039 31.44300611 74.50232926 31.38662988 78.90665054 31.31816006 C82.77704718 31.25479233 86.64553249 31.17362257 90.51464844 31.0546875 C94.25830519 30.94067521 97.99997732 30.87604141 101.74520111 30.84431648 C103.16965775 30.82338733 104.59397166 30.7846173 106.01743317 30.72741508 C110.38966378 30.55739838 114.40372855 30.55584035 118.62841797 31.75415039 C121.65997228 34.69064754 123.0742551 37.87505235 124.62841797 41.75415039 C125.28018085 42.97527409 125.9471007 44.18855167 126.63549805 45.3894043 C127.21710693 46.49203613 127.79871582 47.59466797 128.39794922 48.73071289 C129.059836 49.98347306 129.72186909 51.23615593 130.3840332 52.48876953 C130.71942108 53.12493195 131.05480896 53.76109436 131.40036011 54.41653442 C132.46364507 56.42201641 133.54034499 58.41976387 134.62084961 60.41601562 C140.63803849 71.56142993 140.63803849 71.56142993 142.79248047 76.81274414 C148.25378846 89.59357687 159.17547987 93.6159561 171.31298828 99.18969727 C176.55673837 101.6640677 181.61790955 104.45026788 186.69091797 107.25415039 C187.57545654 107.73464844 188.45999512 108.21514648 189.37133789 108.71020508 C191.80433218 110.03826995 194.22849402 111.36702351 196.62841797 112.75415039 C197.3037558 113.06889816 197.97909363 113.38364594 198.67489624 113.70793152 C204.21195335 116.56496816 204.21195335 116.56496816 205.3250885 119.74343872 C205.55579873 122.19765764 205.52939068 124.53030492 205.40966797 126.99243164 C205.3926886 128.31358223 205.3926886 128.31358223 205.37536621 129.66142273 C205.33069776 132.46541033 205.2303683 135.26421853 205.12841797 138.06665039 C205.08827796 139.97087322 205.05177807 141.8751765 205.01904297 143.77954102 C204.9377918 148.44132695 204.78134598 153.09197011 204.62841797 157.75415039 C193.07841797 157.75415039 181.52841797 157.75415039 169.62841797 157.75415039 C167.21529297 153.23727539 167.21529297 153.23727539 164.75341797 148.62915039 C152.79958116 126.67512623 136.64156691 105.90922624 116.62841797 90.75415039 C116.0731543 90.32392578 115.51789063 89.89370117 114.94580078 89.45043945 C105.65662096 82.26293019 96.05931714 76.14962432 85.62841797 70.75415039 C84.46181641 70.14958008 83.29521484 69.54500977 82.09326172 68.92211914 C56.38443366 56.30970405 30.17904586 50.57701668 1.71801758 50.51391602 C-0.903975 50.50426125 -3.52516474 50.47318205 -6.14697266 50.44165039 C-17.22693044 50.37252549 -27.54353226 51.44323105 -38.37158203 53.75415039 C-39.81922611 54.04790026 -41.26706306 54.34070117 -42.71508789 54.63256836 C-61.56825335 58.53728621 -78.63654341 66.42078028 -95.37158203 75.75415039 C-94.38158203 79.21915039 -94.38158203 79.21915039 -93.37158203 82.75415039 C-94.07025391 83.23625977 -94.76892578 83.71836914 -95.48876953 84.21508789 C-96.39884766 84.84672852 -97.30892578 85.47836914 -98.24658203 86.12915039 C-99.15150391 86.75563477 -100.05642578 87.38211914 -100.98876953 88.02758789 C-103.40652328 89.68395989 -103.40652328 89.68395989 -105.37158203 91.75415039 C-106.69158203 89.77415039 -108.01158203 87.79415039 -109.37158203 85.75415039 C-115.36872679 88.68608783 -119.82516464 92.70942338 -124.68408203 97.25805664 C-126.84207723 99.26235741 -129.03268829 101.14035301 -131.30908203 103.00415039 C-148.28174228 117.86819093 -159.92930292 138.10617785 -170.37158203 157.75415039 C-181.92158203 157.75415039 -193.47158203 157.75415039 -205.37158203 157.75415039 C-205.60180767 152.16222542 -205.80046565 146.5867953 -205.92089844 140.99389648 C-205.97108535 139.09424084 -206.03925707 137.19496961 -206.12597656 135.29663086 C-206.81986736 119.71265999 -206.81986736 119.71265999 -203.65917969 115.43847656 C-200.97649881 113.79469626 -198.33347889 112.8167224 -195.37158203 111.75415039 C-192.81315293 110.4746269 -190.3219904 109.07594299 -187.81689453 107.69555664 C-186.44756738 106.96891047 -185.07644011 106.24564728 -183.70361328 105.52563477 C-182.66454834 104.97975708 -182.66454834 104.97975708 -181.60449219 104.42285156 C-180.90888184 104.05780518 -180.21327148 103.69275879 -179.49658203 103.31665039 C-176.72671255 101.86271075 -173.95824122 100.40618868 -171.19189453 98.94555664 C-170.52587219 98.5942569 -169.85984985 98.24295715 -169.17364502 97.88101196 C-163.89052047 95.07470307 -158.74242532 92.08406016 -153.625 88.984375 C-151.37158203 87.75415039 -151.37158203 87.75415039 -149.37158203 87.75415039 C-149.12029541 87.08101807 -148.86900879 86.40788574 -148.61010742 85.71435547 C-147.12390033 82.16216525 -145.36159188 78.7868597 -143.55517578 75.39086914 C-143.17982193 74.68122513 -142.80446808 73.97158112 -142.41773987 73.24043274 C-141.62127237 71.73613592 -140.82355 70.23250293 -140.0246582 68.72949219 C-138.83415816 66.48884629 -137.64844499 64.24572086 -136.46337891 62.00219727 C-132.5048404 54.52601111 -128.48305202 47.08928895 -124.34423828 39.71118164 C-123.9598912 39.02481125 -123.57554413 38.33844086 -123.17955017 37.63127136 C-120.49708763 32.87965599 -120.49708763 32.87965599 -119.37158203 31.75415039 C-117.41479032 31.72320461 -115.45684821 31.76354523 -113.50097656 31.83105469 C-111.61102463 31.88926643 -111.61102463 31.88926643 -109.68289185 31.94865417 C-109.00334568 31.97061544 -108.32379951 31.99257671 -107.62366104 32.01520348 C-103.23596746 32.1459806 -98.84675384 32.21418927 -94.45788765 32.29376507 C-90.61970406 32.36688297 -86.78448977 32.46109556 -82.94824219 32.60449219 C-64.886005 33.26030149 -50.88028558 33.39644474 -36.28710938 21.29043579 C-33.38295027 18.96125096 -30.24219302 17.10770724 -27.03955078 15.22290039 C-25.95480469 14.55774414 -24.87005859 13.89258789 -23.75244141 13.20727539 C-22.17172852 12.24047852 -22.17172852 12.24047852 -20.55908203 11.25415039 C-18.36441625 9.91147103 -16.17038354 8.56775621 -13.97705078 7.22290039 C-12.98753418 6.61961914 -11.99801758 6.01633789 -10.97851562 5.39477539 C-8.88228743 4.0755533 -6.90691141 2.69883303 -4.92236328 1.22290039 C-2.37158203 -0.24584961 -2.37158203 -0.24584961 0 0 Z " fill="#FDC076" transform="translate(256.37158203125,19.245849609375)"/>
<path d="M0 0 C11.55 0 23.1 0 35 0 C36.60875 3.01125 38.2175 6.0225 39.875 9.125 C44.6644798 17.92659074 49.90491346 26.05791754 56 34 C56.64195313 34.85335937 57.28390625 35.70671875 57.9453125 36.5859375 C66.729369 47.94273021 76.52823012 58.34639521 88 67 C88.55381348 67.42877441 89.10762695 67.85754883 89.67822266 68.29931641 C98.96984656 75.48929384 108.5623286 81.61015725 119 87 C119.66725098 87.34659668 120.33450195 87.69319336 121.02197266 88.05029297 C142.63402818 99.12419579 167.33734871 107.00079915 191.7734375 107.23828125 C192.60584961 107.24821106 193.43826172 107.25814087 194.29589844 107.26837158 C245.09112733 107.74861824 290.09871449 94.53701384 329 61 C329.5676709 60.51354004 330.1353418 60.02708008 330.72021484 59.52587891 C337.95128501 53.2793916 344.16502701 46.56690844 350 39 C350.81210937 37.99195313 351.62421875 36.98390625 352.4609375 35.9453125 C361.42903258 24.73259972 368.12349228 12.60693081 375 0 C386.55 0 398.1 0 410 0 C410 13.2 410 26.4 410 40 C402.13316418 44.49533475 394.32099161 48.95826447 386.33666992 53.2199707 C384.12253759 54.40403919 381.91469755 55.59992392 379.7121582 56.80541992 C370.22691212 61.98519027 370.22691212 61.98519027 365.22265625 64.0234375 C352.27372882 69.5526022 348.21397089 80.38204902 342.56445312 92.68457031 C340.09008269 97.9283204 337.30388252 102.98949158 334.5 108.0625 C334.01950195 108.94703857 333.53900391 109.83157715 333.04394531 110.74291992 C331.71588044 113.17591421 330.38712688 115.60007605 329 118 C328.73972519 118.68064011 328.47945038 119.36128021 328.21128845 120.06254578 C327.05858674 122.59581921 326.10472898 124.16137812 324 126 C320.00368602 126.86424334 316.17357942 126.70391682 312.10605049 126.44849205 C310.02815631 126.32188822 307.95495131 126.25187285 305.87400818 126.19648743 C299.964157 126.02958388 294.06001839 125.76791359 288.15600586 125.45874023 C269.06532536 124.49557354 255.2573059 125.23499368 239.34422302 137.27171326 C235.33164481 140.23000079 231.05864461 142.76958256 226.8125 145.375 C222.68815559 147.97628723 218.57698127 150.58846781 214.55078125 153.33984375 C213.58527344 153.99082031 212.61976563 154.64179688 211.625 155.3125 C210.83351563 155.86550781 210.04203125 156.41851562 209.2265625 156.98828125 C206.29498959 158.32034684 205.08306493 157.87203932 202 157 C200.01322809 155.96565416 198.06924418 154.84732605 196.16015625 153.67578125 C195.59791855 153.33306686 195.03568085 152.99035248 194.45640564 152.63725281 C192.65410052 151.53590525 190.85841303 150.42423256 189.0625 149.3125 C187.92291594 148.61589821 186.78294401 147.91993054 185.64257812 147.22460938 C185.06699158 146.87074158 184.49140503 146.51687378 183.89837646 146.15228271 C182.6717447 145.40195144 181.4400934 144.65977903 180.2041626 143.92486572 C176.37287127 141.61015922 172.85346514 139.1275407 169.36035156 136.32519531 C153.50768786 124.14641799 138.95722605 124.23431356 119.89428711 125.03869629 C116.05956131 125.18453551 112.22344506 125.24639443 108.38671875 125.31640625 C100.92081953 125.46448801 93.46157882 125.7018382 86 126 C81.48148115 118.17004919 77.03738709 110.31284479 72.7800293 102.33666992 C71.59596081 100.12253759 70.40007608 97.91469755 69.19458008 95.7121582 C64.01480973 86.22691212 64.01480973 86.22691212 61.9765625 81.22265625 C56.4473978 68.27372882 45.61795098 64.21397089 33.31542969 58.56445312 C28.0716796 56.09008269 23.01050842 53.30388252 17.9375 50.5 C17.05296143 50.01950195 16.16842285 49.53900391 15.25708008 49.04394531 C12.82408579 47.71588044 10.39992395 46.38712688 8 45 C6.98699326 44.52787834 6.98699326 44.52787834 5.95352173 44.04621887 C0.41646462 41.18918223 0.41646462 41.18918223 -0.69667053 38.01071167 C-0.92738076 35.55649275 -0.90097271 33.22384547 -0.78125 30.76171875 C-0.76993042 29.88095169 -0.75861084 29.00018463 -0.74694824 28.09272766 C-0.70227979 25.28874006 -0.60195033 22.48993186 -0.5 19.6875 C-0.45985999 17.78327717 -0.4233601 15.87897389 -0.390625 13.97460938 C-0.30937383 9.31282344 -0.15292801 4.66218028 0 0 Z " fill="#FDC076" transform="translate(51,335)"/>
<path d="M0 0 C4.62 0 9.24 0 14 0 C14 2.64 14 5.28 14 8 C19.28 8 24.56 8 30 8 C30 5.36 30 2.72 30 0 C34.62 0 39.24 0 44 0 C44 2.64 44 5.28 44 8 C87.23 8 130.46 8 175 8 C170.51772182 19.20569546 170.51772182 19.20569546 167 23 C163.12326818 24.4740406 159.43471672 24.36538855 155.32278442 24.2900238 C153.54721611 24.31659871 153.54721611 24.31659871 151.73577774 24.34371048 C148.45711786 24.38247921 145.18209115 24.3764729 141.90341163 24.35122383 C138.36523918 24.33476262 134.82766067 24.37578935 131.28967285 24.40925598 C124.36125818 24.46528349 117.43385848 24.46682403 110.50528182 24.44820463 C104.87323941 24.43381877 99.24149531 24.43784747 93.60946274 24.45497322 C92.8077307 24.45737172 92.00599866 24.45977022 91.17997172 24.4622414 C89.5512167 24.46715559 87.92246175 24.47209485 86.29370688 24.47705889 C71.02026457 24.52109209 55.74739471 24.5014906 40.47397409 24.46170289 C26.50505457 24.42714634 12.5375554 24.46763862 -1.431159 24.54434144 C-15.77817573 24.62252975 -30.12453333 24.6527022 -44.47175705 24.62985379 C-52.52515751 24.61779606 -60.57749082 24.62423814 -68.63073349 24.68014336 C-75.48722175 24.72712314 -82.34186939 24.72825698 -89.19830762 24.67064988 C-92.69609335 24.64248079 -96.19061019 24.6350095 -99.68823624 24.68425369 C-120.21472098 24.91272957 -120.21472098 24.91272957 -124.92379999 21.67887235 C-128.45576428 17.97378419 -131 13.21901636 -131 8 C-87.77 8 -44.54 8 0 8 C0 5.36 0 2.72 0 0 Z " fill="#9DE4F7" transform="translate(234,327)"/>
<path d="M0 0 C2.14328554 -0.05884478 4.28850447 -0.06252345 6.43223763 -0.02323246 C8.20780594 -0.04980737 8.20780594 -0.04980737 10.01924431 -0.07691914 C13.29790419 -0.11568787 16.57293089 -0.10968156 19.85161042 -0.08443248 C23.38978287 -0.06797127 26.92736138 -0.108998 30.4653492 -0.14246464 C37.39376386 -0.19849215 44.32116357 -0.20003269 51.24974023 -0.18141329 C56.88178264 -0.16702743 62.51352674 -0.17105613 68.14555931 -0.18818188 C68.94729135 -0.19058038 69.74902338 -0.19297888 70.57505033 -0.19545006 C72.20380535 -0.20036425 73.8325603 -0.2053035 75.46131517 -0.21026755 C90.73475748 -0.25430075 106.00762734 -0.23469925 121.28104796 -0.19491155 C135.24996748 -0.160355 149.21746665 -0.20084728 163.18618105 -0.27755009 C177.53319777 -0.35573841 191.87955538 -0.38591085 206.2267791 -0.36306244 C214.28017956 -0.35100472 222.33251287 -0.3574468 230.38575554 -0.41335201 C237.2422438 -0.4603318 244.09689143 -0.46146564 250.95332967 -0.40385853 C254.4511154 -0.37568944 257.94563224 -0.36821816 261.44325829 -0.41746235 C281.96974303 -0.64593823 281.96974303 -0.64593823 286.67882204 2.587919 C290.21078633 6.29300716 292.75502205 11.04777499 292.75502205 16.26679134 C191.77502205 16.26679134 90.79502205 16.26679134 -13.24497795 16.26679134 C-7.07899976 0.85184587 -7.07899976 0.85184587 0 0 Z " fill="#9DE4F7" transform="translate(116.2449779510498,160.73320865631104)"/>
<path d="M0 0 C35.82352941 0 35.82352941 0 45.9375 8.1875 C53.35445595 16.43863681 55.21180829 25.36904041 55.3125 36.0625 C55.34150391 37.06216797 55.37050781 38.06183594 55.40039062 39.09179688 C55.48781642 49.44166543 52.30835339 58.49847427 45 66 C30.53618591 77.49949884 21.83925116 74 0 74 C0 49.58 0 25.16 0 0 Z " fill="#030201" transform="translate(399,218)"/>
<path d="M0 0 C30 0 30 0 40 5 C46.06646457 12.02432739 47.64222155 16.79026968 47 26 C46.62169813 27.44806942 46.207819 28.88757224 45.75 30.3125 C44.5571936 33.98210978 44.5571936 33.98210978 46.6875 36.625 C47.450625 37.40875 48.21375 38.1925 49 39 C53.05394508 44.79135011 52.82988334 51.20931997 52 58 C49.80907448 65.41465998 45.70788345 70.23951988 39 74 C26.91394204 78.83442318 13.01708279 76 0 76 C0 50.92 0 25.84 0 0 Z " fill="#050302" transform="translate(57,218)"/>
<path d="M0 0 C15 0 15 0 18.44921875 3.26953125 C19.62084961 5.43652344 19.62084961 5.43652344 20.6875 7.8125 C21.55418388 9.46127278 22.42409295 11.10835342 23.296875 12.75390625 C23.73064453 13.61387207 24.16441406 14.47383789 24.61132812 15.35986328 C26.9576683 19.82071466 29.70777367 24.01694613 32.4375 28.25 C33.41595201 29.7965035 34.3938471 31.34335954 35.37109375 32.890625 C37.5301456 36.29880937 39.7599359 39.63990385 42 43 C42.33 28.81 42.66 14.62 43 0 C47.95 0 52.9 0 58 0 C58 24.75 58 49.5 58 75 C53.05 75 48.1 75 43 75 C39.24400237 70.8241767 37.20705932 67.92542991 34.75 63.0625 C33.51882985 60.82245432 32.28438838 58.58420387 31.046875 56.34765625 C29.71140625 53.92292969 28.3759375 51.49820313 27 49 C23.37 43.39 19.74 37.78 16 32 C15.67 46.52 15.34 61.04 15 76 C10.05 76 5.1 76 0 76 C0 50.92 0 25.84 0 0 Z " fill="#020201" transform="translate(312,218)"/>
<path d="M0 0 C29 0 29 0 39 5 C45.44730284 11.56243324 47.48496124 15.86450978 47.50415039 25.20849609 C47.30623348 31.56186002 45.41610817 35.53568105 41 40 C37.8619142 42.80044365 35.37487254 45 31 45 C34.60867699 50.78462863 39.02305287 55.6323091 43.66210938 60.609375 C44.5196582 61.56457031 44.5196582 61.56457031 45.39453125 62.5390625 C45.91893799 63.10834473 46.44334473 63.67762695 46.98364258 64.26416016 C48 66 48 66 47.77172852 68.09619141 C46.72670248 70.67420881 45.22771553 71.9476724 43.125 73.75 C42.42632812 74.36359375 41.72765625 74.9771875 41.0078125 75.609375 C39 77 39 77 36 77 C34.125 75.05078125 34.125 75.05078125 32 72.3125 C31.21753906 71.3225 30.43507812 70.3325 29.62890625 69.3125 C29.20883301 68.77882813 28.78875977 68.24515625 28.35595703 67.6953125 C25.94571547 64.68185961 23.43846923 61.75068069 20.9375 58.8125 C19.308125 56.894375 17.67875 54.97625 16 53 C15.67 60.59 15.34 68.18 15 76 C10.05 76 5.1 76 0 76 C0 50.92 0 25.84 0 0 Z " fill="#040301" transform="translate(139,218)"/>
<path d="M0 0 C4.29 0 8.58 0 13 0 C15.98656946 5.73450959 18.4306803 11.48437733 20.64453125 17.5546875 C20.97740646 18.45510773 21.31028168 19.35552795 21.65324402 20.28323364 C22.71064299 23.1455872 23.76190689 26.01014226 24.8125 28.875 C25.84965397 31.69349565 26.88816481 34.51148181 27.92819214 37.32891846 C28.61150678 39.18077754 29.29310011 41.03327271 29.97293091 42.88641357 C31.62417871 47.3686071 33.31562211 51.82662009 35.10693359 56.25488281 C35.43827805 57.07908722 35.7696225 57.90329163 36.11100769 58.75247192 C36.73603514 60.29707442 37.37036734 61.83795655 38.01557922 63.37423706 C40.42623719 69.33993899 40.42623719 69.33993899 39 73 C36.56640625 74.265625 36.56640625 74.265625 33.5625 75.25 C32.57378906 75.58515625 31.58507812 75.9203125 30.56640625 76.265625 C28 77 28 77 26 77 C24.02 71.72 22.04 66.44 20 61 C11.09 60.67 2.18 60.34 -7 60 C-7.33 61.65 -7.66 63.3 -8 65 C-8.81164833 67.12093023 -9.66793728 69.22518699 -10.5625 71.3125 C-11.01753906 72.38113281 -11.47257813 73.44976562 -11.94140625 74.55078125 C-12.29074219 75.35902344 -12.64007813 76.16726563 -13 77 C-14.58468677 76.54636829 -16.16769924 76.08688548 -17.75 75.625 C-19.07257813 75.24214844 -19.07257813 75.24214844 -20.421875 74.8515625 C-22.76589562 74.07732539 -24.81171553 73.12668178 -27 72 C-25.04308592 66.00821153 -22.96039785 60.07942485 -20.7421875 54.1796875 C-20.43741989 53.3656546 -20.13265228 52.5516217 -19.81864929 51.71292114 C-18.8393492 49.09955717 -17.85736761 46.48721228 -16.875 43.875 C-16.54184784 42.98748047 -16.20869568 42.09996094 -15.865448 41.18554688 C-10.69369597 27.4103937 -5.43681728 13.67307977 0 0 Z " fill="#040302" transform="translate(242,218)"/>
<path d="M0 0 C0.8026816 -0.00576922 1.6053632 -0.01153844 2.43236849 -0.01748249 C5.13329013 -0.03076136 7.83273379 -0.00825306 10.53357983 0.01396656 C12.48480443 0.01178694 14.43602761 0.00741044 16.38724297 0.00102073 C21.75767567 -0.01018364 27.12761179 0.00987364 32.49798119 0.03491104 C38.28595016 0.0564622 44.07389014 0.04919939 49.86188793 0.04539967 C59.89282229 0.0427753 69.92359429 0.05849004 79.9544878 0.08658886 C94.45752756 0.12718879 108.96048865 0.1402425 123.46357908 0.14652882 C146.99266862 0.15703267 170.52167356 0.19072441 194.05071545 0.23804188 C216.90976035 0.28395893 239.76878211 0.31937948 262.62786388 0.34058094 C263.33240064 0.34123857 264.0369374 0.3418962 264.76282376 0.34257376 C271.83803026 0.34916632 278.91323693 0.3555454 285.98844376 0.36176806 C300.40163285 0.37444934 314.81482043 0.3885556 329.22800732 0.40352345 C329.89071164 0.40420989 330.55341596 0.40489634 331.23620223 0.4056036 C375.4952908 0.45161189 419.75433184 0.53094242 464.01336193 0.61523914 C464.01336193 0.94523914 464.01336193 1.27523914 464.01336193 1.61523914 C311.88336193 1.61523914 159.75336193 1.61523914 3.01336193 1.61523914 C3.01336193 43.19523914 3.01336193 84.77523914 3.01336193 127.61523914 C69.67336193 127.61523914 136.33336193 127.61523914 205.01336193 127.61523914 C205.01336193 127.94523914 205.01336193 128.27523914 205.01336193 128.61523914 C177.32801734 128.73196824 149.64270956 128.82017633 121.95716858 128.8743 C109.10268783 128.90009696 96.24835986 128.93527624 83.39397717 128.99243641 C72.19192504 129.0422254 60.98998355 129.07451929 49.78782386 129.08568162 C43.85465789 129.09220794 37.92180844 129.10757809 31.98874378 129.14388943 C26.40651365 129.17777744 20.82473102 129.18830651 15.2424078 129.18077755 C13.19169783 129.1821553 11.1409732 129.19213034 9.09035206 129.21126652 C6.29332803 129.23609199 3.49800032 129.23018273 0.70093822 129.21651173 C-0.11326955 129.23107593 -0.92747733 129.24564014 -1.76635808 129.26064569 C-5.74596778 129.20795649 -7.75781781 128.78454205 -10.9899292 126.39311981 C-13.12828255 123.41817914 -13.61365663 122.16781935 -13.62155628 118.56787586 C-13.6356554 117.57535816 -13.64975452 116.58284046 -13.66428089 115.56024647 C-13.64909916 113.94391315 -13.64909916 113.94391315 -13.63361073 112.29492664 C-13.64237232 111.15130665 -13.65113392 110.00768665 -13.66016102 108.82941151 C-13.68216675 105.0493014 -13.66759647 101.27036113 -13.65070057 97.49023914 C-13.65406832 94.86377201 -13.65892059 92.2373064 -13.66519642 89.61084461 C-13.6742856 84.10632117 -13.66232474 78.60213346 -13.63849354 73.09766102 C-13.61128305 66.73934174 -13.62009778 60.38182414 -13.64762557 54.02352428 C-13.67307404 47.89971147 -13.67034957 41.77625328 -13.6557169 35.65240955 C-13.65237956 33.0496659 -13.65648136 30.44690181 -13.66811466 27.84418201 C-13.68080215 24.20741923 -13.66147211 20.57219939 -13.63361073 16.93555164 C-13.64373188 15.8579961 -13.65385303 14.78044056 -13.66428089 13.67023182 C-13.65018177 12.67771412 -13.63608265 11.68519642 -13.62155628 10.66260242 C-13.61967115 9.80353291 -13.61778603 8.94446339 -13.61584377 8.05936146 C-11.80949151 1.04266431 -6.41941073 -0.11331486 0 0 Z " fill="#E59216" transform="translate(27.986638069152832,191.38476085662842)"/>
<path d="M0 0 C14.96551724 0 14.96551724 0 19 3 C24.91443527 9.07872514 25.3947561 15.85841896 25.36791992 23.94628906 C25.19089686 31.23192072 23.65613337 36.34386663 18.5 41.5 C12.36552417 45.1806855 7.63482579 44 0 44 C0 29.48 0 14.96 0 0 Z " fill="#FBBF75" transform="translate(414,233)"/>
<path d="M0 0 C11.55 0 23.1 0 35 0 C35 4.95 35 9.9 35 15 C21.14 15 7.28 15 -7 15 C-5 9 -5 9 0 0 Z " fill="#F39402" transform="translate(426,335)"/>
<path d="M0 0 C11.55 0 23.1 0 35 0 C42 13 42 13 42 15 C28.14 15 14.28 15 0 15 C0 10.05 0 5.1 0 0 Z " fill="#F39402" transform="translate(51,335)"/>
<path d="M0 0 C13.86 0 27.72 0 42 0 C42 4.95 42 9.9 42 15 C30.45 15 18.9 15 7 15 C0 2 0 2 0 0 Z " fill="#F39402" transform="translate(419,162)"/>
<path d="M0 0 C13.86 0 27.72 0 42 0 C40 6 40 6 35 15 C23.45 15 11.9 15 0 15 C0 10.05 0 5.1 0 0 Z " fill="#F39402" transform="translate(51,162)"/>
<path d="M0 0 C3.83625 -0.061875 3.83625 -0.061875 7.75 -0.125 C8.54889648 -0.14320801 9.34779297 -0.16141602 10.17089844 -0.18017578 C16.95346749 -0.23313791 16.95346749 -0.23313791 20 2 C22.44521115 5.66781672 22.72237759 8.73453233 22 13 C20.12984906 15.43119623 18.71861655 16.64069173 16 18 C13.28024285 18.07187519 10.59325368 18.0927862 7.875 18.0625 C5.27625 18.041875 2.6775 18.02125 0 18 C0 12.06 0 6.12 0 0 Z " fill="#F5BB72" transform="translate(72,261)"/>
<path d="M0 0 C12.03647687 -0.43505338 12.03647687 -0.43505338 16 3 C17.54586876 6.09173752 17.29359521 8.59429552 17 12 C15.13291495 14.36497439 13.67938569 15.66030715 11 17 C7.32984725 17.1377685 3.67388652 17.04271961 0 17 C0 11.39 0 5.78 0 0 Z " fill="#F7BC73" transform="translate(154,233)"/>
<path d="M0 0 C5.28 0 10.56 0 16 0 C16 4.95 16 9.9 16 15 C10.72 15 5.44 15 0 15 C0 10.05 0 5.1 0 0 Z " fill="#0F100F" transform="translate(248,320)"/>
<path d="M0 0 C4.95 0 9.9 0 15 0 C15 4.62 15 9.24 15 14 C10.05 14 5.1 14 0 14 C0 9.38 0 4.76 0 0 Z " fill="#000000" transform="translate(331,129)"/>
<path d="M0 0 C4.95 0 9.9 0 15 0 C15 4.62 15 9.24 15 14 C10.05 14 5.1 14 0 14 C0 9.38 0 4.76 0 0 Z " fill="#000000" transform="translate(301,114)"/>
<path d="M0 0 C12.33120703 -0.49324828 12.33120703 -0.49324828 15.42578125 1.7890625 C17 4 17 4 16.9375 7.625 C16 11 16 11 13 13 C8.65339644 13.27064779 4.35919984 13.08632079 0 13 C0 8.71 0 4.42 0 0 Z " fill="#F2B871" transform="translate(72,233)"/>
<path d="M0 0 C3.37538004 1.68769002 3.90150506 5.55093626 5.125 8.9375 C5.40214844 9.67935547 5.67929688 10.42121094 5.96484375 11.18554688 C8 16.71455511 8 16.71455511 8 19 C3.38 19 -1.24 19 -6 19 C-4.70024676 12.28460827 -2.70071112 6.27980887 0 0 Z " fill="#F2B871" transform="translate(248,244)"/>
</svg>
