<?xml version="1.0" encoding="UTF-8"?>
<svg version="1.1" xmlns="http://www.w3.org/2000/svg" width="512" height="512">
<path d="M0 0 C2.06086477 1.69096597 4.10066785 3.39197105 6.125 5.125 C12.90151607 11.19257398 12.90151607 11.19257398 21 15 C25.38111926 13.99926625 28.50153222 12.18586132 32.0625 9.5 C33.01125 8.79230469 33.96 8.08460937 34.9375 7.35546875 C37.05531305 5.72658958 39.1583181 4.08729881 41.25 2.42578125 C50.83341437 -5.15637407 60.18842239 -12.23907594 73 -11 C82.40344124 -9.01361416 88.87403783 -2.06608185 94.07421875 5.64453125 C97.21802843 11.12228484 99.84633623 16.84823212 102.44873047 22.60009766 C105.3115571 29.47472738 105.3115571 29.47472738 110 35 C117.28293311 36.34227354 124.62971117 34.17518176 131.6875 32.5 C155.88918662 27.1538283 155.88918662 27.1538283 166.0703125 32.609375 C173.17163985 37.72693074 176.88039927 44.19625776 178.51416016 52.6652832 C179.03976517 56.27294094 179.19481989 59.76560987 179.28125 63.41015625 C179.29965942 64.10008163 179.31806885 64.79000702 179.33703613 65.50083923 C179.41502697 68.42725505 179.48330816 71.3538767 179.55224609 74.28051758 C179.60424561 76.42800228 179.66137233 78.57530958 179.71875 80.72265625 C179.74904297 81.99890869 179.77933594 83.27516113 179.81054688 84.59008789 C179.97279438 87.51033398 180.330159 90.16029449 181 93 C187.7580238 95.11794309 194.5329367 96.87247413 201.4375 98.4375 C215.32213461 101.71991953 226.82839916 104.56108107 235.125 117.25 C238.84722266 133.20238285 232.06332935 146.43704021 225.03540039 160.34033203 C222.78206945 164.89120515 221.17398478 168.82556375 221 174 C225.47278093 181.04801844 232.86710519 185.75769531 239.41748047 190.78417969 C247.17934161 196.74747319 254.10522651 203.35075505 257 213 C258.2180893 222.54169952 256.09761949 229.05345464 250.71875 236.859375 C246.32202038 242.43197417 240.53159976 246.62294814 235 251 C232.99571451 252.59880904 230.99557123 254.20282731 229 255.8125 C228.113125 256.52019531 227.22625 257.22789062 226.3125 257.95703125 C223.22169197 260.6393023 223.22169197 260.6393023 221 264 C221.39699344 268.89355925 222.5330579 272.71806889 224.65234375 277.125 C225.44608398 278.80335938 225.44608398 278.80335938 226.25585938 280.515625 C226.81080078 281.66546875 227.36574219 282.8153125 227.9375 284 C238.65201079 306.35635936 238.65201079 306.35635936 235.41796875 319.3359375 C232.65208052 325.72652856 227.41723599 330.9830905 221.09863281 333.86816406 C211.63922206 337.61039709 201.68760997 339.96982022 191.76953125 342.140625 C188.1264111 342.97118089 184.58134727 343.94092454 181 345 C180.0394594 349.06134292 179.84819016 352.89844892 179.7890625 357.06640625 C179.76096265 358.45378721 179.73229804 359.84115682 179.703125 361.22851562 C179.66220526 363.38483974 179.62526602 365.54095944 179.59863281 367.69750977 C179.26685961 392.49755641 179.26685961 392.49755641 170.43359375 401.6171875 C163.89773817 407.72901666 157.15348222 408.48671465 148.42578125 408.40234375 C141.74674112 407.97260584 135.1995591 406.31629522 128.70336914 404.77905273 C119.4262012 402.56565467 119.4262012 402.56565467 110 403 C104.54432971 407.93644412 102.05540661 416.10157521 99.02856445 422.68701172 C94.13894526 433.19975102 87.53970866 443.82538583 76.4375 448.5 C65.29753625 450.12035836 57.18709638 447.62972883 48.125 440.875 C46.60857368 439.68239388 45.09238061 438.48935519 43.58984375 437.27929688 C41.35210815 435.47866197 39.09173589 433.70810659 36.82373047 431.94580078 C35.2123883 430.69294635 33.6098326 429.42881521 32.0078125 428.1640625 C29.01869273 426.01344905 26.46639936 424.2580405 23 423 C18.58137421 423.85776644 15.49605119 425.81596139 11.9375 428.5 C10.98875 429.20769531 10.04 429.91539062 9.0625 430.64453125 C6.94468695 432.27341042 4.8416819 433.91270119 2.75 435.57421875 C-6.83341437 443.15637407 -16.18842239 450.23907594 -29 449 C-38.40344124 447.01361416 -44.87403783 440.06608185 -50.07421875 432.35546875 C-53.21802843 426.87771516 -55.84633623 421.15176788 -58.44873047 415.39990234 C-61.3115571 408.52527262 -61.3115571 408.52527262 -66 403 C-73.29656438 401.65377998 -80.67696309 403.82695473 -87.75 405.5 C-112.23750926 410.91666106 -112.23750926 410.91666106 -122 405 C-128.64305406 400.58763937 -131.90383119 395.66226677 -134 388 C-134.87715226 383.50301593 -135.17268853 379.16761549 -135.28125 374.58984375 C-135.29965942 373.89991837 -135.31806885 373.20999298 -135.33703613 372.49916077 C-135.41502697 369.57274495 -135.48330816 366.6461233 -135.55224609 363.71948242 C-135.60424561 361.57199772 -135.66137233 359.42469042 -135.71875 357.27734375 C-135.74904297 356.00109131 -135.77933594 354.72483887 -135.81054688 353.40991211 C-135.97279438 350.48966602 -136.330159 347.83970551 -137 345 C-142.86863166 343.15593224 -148.73290061 341.54850012 -154.73754883 340.21337891 C-167.93308119 337.269638 -180.69245548 334.40431155 -189.375 323.23046875 C-192.9869764 317.27321601 -192.85008909 310.73999206 -192 304 C-189.70460666 294.73014226 -185.32508133 286.14590712 -181.03540039 277.65966797 C-178.78206945 273.10879485 -177.17398478 269.17443625 -177 264 C-181.47278093 256.95198156 -188.86710519 252.24230469 -195.41748047 247.21582031 C-203.17934161 241.25252681 -210.10522651 234.64924495 -213 225 C-214.2180893 215.45830048 -212.09761949 208.94654536 -206.71875 201.140625 C-202.32202038 195.56802583 -196.53159976 191.37705186 -191 187 C-188.99571451 185.40119096 -186.99557123 183.79717269 -185 182.1875 C-183.6696875 181.12595703 -183.6696875 181.12595703 -182.3125 180.04296875 C-179.22169197 177.3606977 -179.22169197 177.3606977 -177 174 C-177.39699344 169.10644075 -178.5330579 165.28193111 -180.65234375 160.875 C-181.18150391 159.75609375 -181.71066406 158.6371875 -182.25585938 157.484375 C-182.81080078 156.33453125 -183.36574219 155.1846875 -183.9375 154 C-194.65201079 131.64364064 -194.65201079 131.64364064 -191.41796875 118.6640625 C-188.45299866 111.81349235 -182.65437305 106.77415473 -176.0390625 103.5625 C-167.21015913 100.20709729 -157.98078731 98.19349337 -148.78515625 96.11328125 C-144.8093184 95.20971755 -140.90709826 94.16415581 -137 93 C-136.0394594 88.93865708 -135.84819016 85.10155108 -135.7890625 80.93359375 C-135.76096265 79.54621279 -135.73229804 78.15884318 -135.703125 76.77148438 C-135.66220526 74.61516026 -135.62526602 72.45904056 -135.59863281 70.30249023 C-135.26462626 45.33550067 -135.26462626 45.33550067 -126.3984375 36.3828125 C-119.81880894 30.3249166 -113.46021513 29.51937122 -104.68359375 29.59765625 C-97.89109892 30.0063737 -91.25632311 31.65215329 -84.65283203 33.22094727 C-75.40168037 35.43453713 -75.40168037 35.43453713 -66 35 C-60.54418248 30.06410944 -58.0552927 21.89817695 -55.02856445 15.31298828 C-50.13894526 4.80024898 -43.53970866 -5.82538583 -32.4375 -10.5 C-19.50932751 -12.38046145 -10.38685757 -7.49215956 0 0 Z M-27 12 C-31.81648936 19.71036008 -35.85879761 27.63458437 -39.6796875 35.87695312 C-43.62716951 44.05306048 -48.98620073 52.68181794 -57.703125 56.34765625 C-71.9962969 60.40711153 -86.92464227 55.82598175 -100.94921875 52.55078125 C-104.09216655 51.98336046 -106.8177016 51.68586754 -110 52 C-113.40611189 57.10916784 -113.11980186 62.89337492 -113.2109375 68.89453125 C-113.23929687 70.18037109 -113.26765625 71.46621094 -113.296875 72.79101562 C-113.35147726 75.46035112 -113.39306204 78.12909377 -113.4296875 80.79882812 C-113.67241378 90.91747976 -114.52448982 100.19051697 -121.16015625 108.25390625 C-129.19375136 115.87814619 -141.58197065 117.63891693 -151.98046875 120.25390625 C-153.25869507 120.5797168 -153.25869507 120.5797168 -154.56274414 120.91210938 C-156.24060327 121.33800902 -157.92074753 121.75502841 -159.60327148 122.16210938 C-163.67112707 123.18999241 -166.84808224 124.06104965 -170 127 C-169.43187204 131.45911973 -168.2844009 134.97907426 -166.34765625 139.02734375 C-165.81849609 140.14947266 -165.28933594 141.27160156 -164.74414062 142.42773438 C-164.18919922 143.58595703 -163.63425781 144.74417969 -163.0625 145.9375 C-151.92771998 169.26193393 -151.92771998 169.26193393 -155.8046875 182.8125 C-160.56137808 193.31002403 -170.01680627 199.96708533 -178.96484375 206.7109375 C-186.64382557 212.0524762 -186.64382557 212.0524762 -191 220 C-187.48869541 224.49947662 -183.86694587 227.90041926 -179.3125 231.3125 C-158.56565114 247.30304659 -158.56565114 247.30304659 -155 258 C-153.54253983 273.26169006 -159.32650927 285.156289 -165.96459961 298.4284668 C-168.04047275 302.63820825 -169.54388481 306.25640198 -170 311 C-166.24968267 314.49691751 -161.9644098 315.26662122 -157.125 316.4375 C-155.40993896 316.87284279 -153.69509653 317.30904766 -151.98046875 317.74609375 C-150.71275635 318.06489502 -150.71275635 318.06489502 -149.41943359 318.39013672 C-123.94093882 324.81246567 -123.94093882 324.81246567 -118.28271484 333.69702148 C-113.41614392 342.43443365 -113.49887038 351.94876479 -113.375 361.6875 C-113.3381925 363.75961691 -113.29735179 365.83156365 -113.25234985 367.90351868 C-113.21327091 369.77497382 -113.18514492 371.64664843 -113.15771484 373.51831055 C-113.16382723 380.37293395 -113.16382723 380.37293395 -110 386 C-103.36101373 386.39517775 -96.7227751 384.52127906 -90.3125 383 C-78.99558748 380.36437564 -65.82186422 377.37496626 -55 383 C-44.95596299 389.52139813 -40.37705182 400.9625648 -35.3125 411.375 C-34.37491127 413.30134191 -33.43364073 415.22589719 -32.48828125 417.1484375 C-32.08134033 417.98552246 -31.67439941 418.82260742 -31.25512695 419.68505859 C-30.013559 421.97499194 -28.61561677 423.96104294 -27 426 C-21.73405765 425.55333525 -19.05699864 423.87951037 -15 420.5625 C-13.85953582 419.65311026 -12.71755585 418.74561885 -11.57421875 417.83984375 C-10.69515869 417.13770752 -10.69515869 417.13770752 -9.79833984 416.42138672 C11.00415142 399.97934163 11.00415142 399.97934163 24.93359375 400.56640625 C35.51360458 402.06243326 43.33617337 408.12427245 51.37548828 414.67724609 C54.03535224 416.84303252 56.72615641 418.96112493 59.4375 421.0625 C60.36433594 421.79597656 61.29117188 422.52945312 62.24609375 423.28515625 C65.2435702 425.15166995 67.51187312 425.66608506 71 426 C75.31254583 418.65949646 79.40687346 411.28607423 83.125 403.625 C87.49546809 394.71385449 92.29169089 386.35415455 101.5 381.75 C111.50884958 378.74734513 120.33661145 380.26778907 130.3125 382.4375 C138.21123368 384.14546361 145.92861279 385.47021783 154 386 C157.40611189 380.89083216 157.11980186 375.10662508 157.2109375 369.10546875 C157.23929687 367.81962891 157.26765625 366.53378906 157.296875 365.20898438 C157.35147726 362.53964888 157.39306204 359.87090623 157.4296875 357.20117188 C157.66956297 347.20136315 158.48703831 337.78915557 165.03833008 329.79711914 C172.70237527 322.77595714 183.53682374 320.51217762 193.375 318.3125 C195.82182782 317.75267604 198.26720948 317.18648506 200.7109375 316.61328125 C201.77618652 316.37391846 202.84143555 316.13455566 203.93896484 315.88793945 C207.26931454 314.92187773 210.04639959 313.82472753 213 312 C214.17245449 309.64710104 214.16273211 308.58056772 213.45849609 306.06811523 C213.14992676 305.40497314 212.84135742 304.74183105 212.5234375 304.05859375 C212.1845752 303.31520752 211.84571289 302.57182129 211.49658203 301.8059082 C211.12645996 301.0243335 210.75633789 300.24275879 210.375 299.4375 C210.00616699 298.6333667 209.63733398 297.8292334 209.25732422 297.00073242 C208.1826592 294.66179708 207.09390144 292.32998931 206 290 C200.73453914 278.71314578 196.18143406 267.85129845 199.8046875 255.1875 C204.5396635 244.73789778 213.94554227 238.04069369 222.88671875 231.359375 C229.85270039 226.48629922 229.85270039 226.48629922 235 220 C233.79133884 214.85430285 230.41306269 212.38061688 226.5 209.1875 C225.872146 208.66124023 225.24429199 208.13498047 224.59741211 207.59277344 C220.97542819 204.57098815 217.2852795 201.64676987 213.5625 198.75 C207.46790623 193.90840659 200.61259114 187.96216878 199 180 C197.48981216 164.87924421 202.96190458 153.5733984 209.55810547 140.38452148 C211.76551086 135.91529405 213.57520208 132.04759886 214 127 C210.27573258 123.54531762 206.1089491 122.77977173 201.3125 121.625 C199.60247441 121.19033421 197.89284621 120.75410237 196.18359375 120.31640625 C195.31976074 120.09742676 194.45592773 119.87844727 193.56591797 119.65283203 C167.42293581 113.00142059 167.42293581 113.00142059 160.97265625 102.3203125 C157.52284337 94.09063839 157.63888537 85.8624906 157.5 77.0625 C158.23969524 63.82495528 158.23969524 63.82495528 154 52 C147.25880254 51.92963259 140.76282424 53.45370539 134.25 55 C109.46968475 60.78380342 109.46968475 60.78380342 98.890625 54.80859375 C89.5690191 48.37808743 85.10918707 38.71021231 80.3125 28.75 C79.18724427 26.43051713 78.05847982 24.11273233 76.92578125 21.796875 C76.43505127 20.77948242 75.94432129 19.76208984 75.4387207 18.71386719 C74.13720626 16.25881295 72.73768264 14.16058853 71 12 C66.02062917 12.47667026 63.33827384 13.85051764 59.4375 16.9375 C57.87322266 18.14986328 57.87322266 18.14986328 56.27734375 19.38671875 C54.08818699 21.12168275 51.91901915 22.87971324 49.75390625 24.64453125 C40.4874887 32.12198448 31.3726764 38.11252543 18.99609375 37.46875 C8.44991393 35.81876098 0.67115144 29.88169811 -7.37548828 23.32275391 C-10.03535224 21.15696748 -12.72615641 19.03887507 -15.4375 16.9375 C-16.36433594 16.20402344 -17.29117188 15.47054687 -18.24609375 14.71484375 C-21.2435702 12.84833005 -23.51187312 12.33391494 -27 12 Z " fill="#000000" transform="translate(234,37)"/>
<path d="M0 0 C3.98568689 2.1461391 6.33067941 3.79175926 8 8 C8.610538 12.18422041 7.92528956 15.74195629 5.40612316 19.16706944 C4.36279308 20.28326617 4.36279308 20.28326617 3.29838562 21.42201233 C2.48048239 22.29801149 1.66257915 23.17401066 0.81989098 24.07655525 C-4.70239901 29.82970738 -10.32517162 35.48188972 -15.96166992 41.12280273 C-17.35244813 42.51821903 -18.74303208 43.91382895 -20.13343811 45.30961609 C-23.88274731 49.07194295 -27.63529661 52.83102081 -31.38888717 56.5890758 C-33.73640717 58.93953962 -36.08334447 61.29058378 -38.43010902 63.64180183 C-45.78117168 71.00650202 -53.13420594 78.36922512 -60.49015254 85.72904724 C-68.96851951 94.2119069 -77.44028297 102.70128998 -85.90643996 111.19633526 C-92.46527476 117.77677061 -99.02984753 124.3514454 -105.59882241 130.92175823 C-109.51713871 134.84112233 -113.43298881 138.76287693 -117.34288597 142.6906414 C-121.01435626 146.3785674 -124.69289168 150.05929537 -128.37698936 153.73460579 C-129.72681772 155.08366284 -131.07408605 156.43528701 -132.41858292 157.78965759 C-134.25491329 159.63868059 -136.10027133 161.47820307 -137.94816589 163.31565857 C-138.47706443 163.85261351 -139.00596296 164.38956844 -139.55088872 164.94279474 C-143.55245669 168.89173257 -147.37165135 171.61669916 -153 172.4375 C-156.88576111 171.8708265 -158.97792261 170.47260877 -162 168 C-164.21863636 164.39938476 -164.48215597 161.70642261 -163.8185091 157.58155155 C-162.83532239 154.48061207 -161.51681111 152.95134901 -159.29838562 150.57798767 C-158.48048239 149.70198851 -157.66257915 148.82598934 -156.81989098 147.92344475 C-151.29760099 142.17029262 -145.67482838 136.51811028 -140.03833008 130.87719727 C-138.64755187 129.48178097 -137.25696792 128.08617105 -135.86656189 126.69038391 C-132.11725269 122.92805705 -128.36470339 119.16897919 -124.61111283 115.4109242 C-122.26359283 113.06046038 -119.91665553 110.70941622 -117.56989098 108.35819817 C-110.21882832 100.99349798 -102.86579406 93.63077488 -95.50984746 86.27095276 C-87.03148049 77.7880931 -78.55971703 69.29871002 -70.09356004 60.80366474 C-63.53472524 54.22322939 -56.97015247 47.6485546 -50.40117759 41.07824177 C-46.48286129 37.15887767 -42.56701119 33.23712307 -38.65711403 29.3093586 C-34.98564374 25.6214326 -31.30710832 21.94070463 -27.62301064 18.26539421 C-26.27318228 16.91633716 -24.92591395 15.56471299 -23.58141708 14.21034241 C-21.74508671 12.36131941 -19.89972867 10.52179693 -18.05183411 8.68434143 C-17.52293557 8.14738649 -16.99403704 7.61043156 -16.44911128 7.05720526 C-11.65580463 2.32694199 -6.91824266 -1.00891039 0 0 Z " fill="#000000" transform="translate(334,170)"/>
<path d="M0 0 C7.02284314 5.73029532 13.0181383 13.05325676 14.6875 22.1875 C15.49819978 34.85302275 14.87915822 46.07550365 6.51171875 56.33984375 C-1.97014976 64.93068701 -10.92310352 68.42882533 -22.75 68.625 C-34.31144954 68.5460352 -42.68896614 64.56571779 -51 56.5625 C-58.87896399 48.05321889 -60.81545896 38.3679679 -60.5859375 27.08203125 C-59.91982662 17.59470921 -55.96452131 9.91568949 -49.3125 3.1875 C-34.96550968 -9.02169375 -15.84876985 -11.15394558 0 0 Z M-35.75 21.875 C-38.25923855 27.19458572 -39.09770466 31.7856975 -37.25 37.4375 C-34.57679878 41.23172108 -31.51506941 44.08621529 -27.3125 46.1875 C-21.93129002 46.85604136 -17.40239817 46.54868251 -12.8203125 43.51171875 C-9.55994557 40.6483395 -7.69829837 37.45406543 -6.96875 33.16796875 C-6.75147865 28.43326388 -7.70939739 25.09215392 -10.3125 21.1875 C-14.21503774 17.00620957 -17.25527682 15.32178851 -23.00390625 14.9921875 C-28.46749217 15.45441981 -32.13202707 17.88595292 -35.75 21.875 Z " fill="#000000" transform="translate(225.3125,171.8125)"/>
<path d="M0 0 C7.54707501 6.08635082 12.90396594 13.50452888 14.75 23.1875 C15.6651789 35.80496647 14.14429603 46.18106677 5.79296875 56.1171875 C-2.54716028 64.56894349 -11.434564 68.21486483 -23.1875 68.625 C-34.39125252 68.34521031 -43.01495467 64.33574656 -50.93359375 56.52734375 C-59.721788 46.90635304 -60.97801519 36.88099811 -60.42919922 24.27734375 C-59.6460607 15.14428424 -54.85716614 7.08828632 -47.95703125 1.24609375 C-33.44380356 -9.53194666 -14.99873962 -10.49630371 0 0 Z M-35.5703125 20.6953125 C-38.59211709 25.23858513 -39.21456846 29.84827257 -38.25 35.1875 C-36.0353315 39.53481225 -33.44278605 42.67182837 -29.25 45.1875 C-24.48304148 46.60297619 -20.50978313 46.66376057 -15.9375 44.625 C-12.18338966 42.42637761 -10.13313919 40.17975508 -8.25 36.1875 C-7.10097207 31.74299612 -6.87721228 28.32779186 -8.3125 23.9375 C-10.98570122 20.14327892 -14.04743059 17.28878471 -18.25 15.1875 C-25.19563813 14.32459995 -30.82817461 15.27973491 -35.5703125 20.6953125 Z " fill="#000000" transform="translate(332.25,278.8125)"/>
</svg>
