<?xml version="1.0" encoding="UTF-8"?>
<svg version="1.1" xmlns="http://www.w3.org/2000/svg" width="512" height="512">
<path d="M0 0 C1.10794922 -0.00945648 2.21589844 -0.01891296 3.35742188 -0.02865601 C4.54916016 -0.02258331 5.74089844 -0.01651062 6.96875 -0.01025391 C8.19658203 -0.01312408 9.42441406 -0.01599426 10.68945312 -0.01895142 C13.28516094 -0.02099272 15.88088412 -0.01545833 18.4765625 -0.00292969 C22.45347435 0.01312194 26.42936982 -0.00277732 30.40625 -0.02197266 C32.92708558 -0.01999024 35.44792053 -0.01614659 37.96875 -0.01025391 C39.75635742 -0.01936295 39.75635742 -0.01936295 41.58007812 -0.02865601 C43.24200195 -0.01447128 43.24200195 -0.01447128 44.9375 0 C46.39833008 0.00358017 46.39833008 0.00358017 47.88867188 0.00723267 C50.93713806 0.45734152 52.31392429 1.19926007 54.46875 3.38818359 C54.82417824 6.31320512 54.93528426 8.85604327 54.859375 11.77490234 C54.85371521 12.59191116 54.84805542 13.40891998 54.84222412 14.25068665 C54.81983697 16.85961562 54.76963846 19.46716995 54.71875 22.07568359 C54.69868792 23.84454396 54.68043664 25.61342587 54.6640625 27.38232422 C54.6199648 31.71814016 54.55092294 36.05292884 54.46875 40.38818359 C55.70455811 40.55688965 55.70455811 40.55688965 56.96533203 40.72900391 C63.949272 41.73404675 70.61236334 43.02997175 77.34375 45.13818359 C78.19743164 45.40131348 79.05111328 45.66444336 79.93066406 45.93554688 C97.43536532 51.43730528 113.78353837 59.06266829 129.15405273 69.06298828 C129.77739502 69.46678711 130.4007373 69.87058594 131.04296875 70.28662109 C131.58526123 70.6441748 132.12755371 71.00172852 132.6862793 71.37011719 C134.86733442 72.61583693 137.12363997 73.49702675 139.46875 74.38818359 C140.06824463 73.75726807 140.66773926 73.12635254 141.28540039 72.47631836 C143.53011322 70.12897277 145.78833327 67.79572151 148.05639648 65.47094727 C149.03267599 64.4646085 150.00348926 63.45293523 150.96850586 62.43579102 C152.36187321 60.96912637 153.77419069 59.52317846 155.19140625 58.07958984 C156.03453369 57.2050415 156.87766113 56.33049316 157.74633789 55.42944336 C161.0527968 52.95026634 163.37719059 52.56354912 167.46875 52.38818359 C169.515625 53.43505859 169.515625 53.43505859 171.21875 55.13818359 C171.87488281 55.78271484 172.53101563 56.42724609 173.20703125 57.09130859 C173.95339844 57.84927734 174.69976562 58.60724609 175.46875 59.38818359 C176.43167969 60.26990234 177.39460938 61.15162109 178.38671875 62.06005859 C179.39442226 63.00149147 180.40093919 63.94419609 181.40625 64.88818359 C182.81197266 66.20302734 182.81197266 66.20302734 184.24609375 67.54443359 C186.91477245 70.95884149 187.4388686 73.08028169 187.46875 77.38818359 C186.52734375 79.32958984 186.52734375 79.32958984 184.90625 80.95068359 C184.27460938 81.60166016 183.64296875 82.25263672 182.9921875 82.92333984 C182.15945313 83.73673828 181.32671875 84.55013672 180.46875 85.38818359 C179.27184366 86.59363439 178.07667409 87.80081099 176.8828125 89.00927734 C173.43286209 92.49088271 169.95625255 95.94421436 166.46875 99.38818359 C169.05782148 103.41889715 171.78346433 106.9816196 174.96875 110.57568359 C201.15783656 141.22690768 216.37421925 184.31884039 217.46875 224.38818359 C217.50871094 225.59732422 217.54867188 226.80646484 217.58984375 228.05224609 C218.30280008 269.90697636 206.21041192 311.46896422 181.46875 345.38818359 C180.88407959 346.20391846 180.88407959 346.20391846 180.28759766 347.03613281 C161.98292645 372.4343398 138.24160132 392.1336683 110.46875 406.38818359 C109.85531738 406.70980469 109.24188477 407.03142578 108.60986328 407.36279297 C64.47645813 430.30384813 10.59379281 433.15815918 -36.53125 418.38818359 C-57.35606184 411.61423818 -77.26045879 401.91850933 -94.53125 388.38818359 C-95.39234375 387.73591797 -96.2534375 387.08365234 -97.140625 386.41162109 C-118.98975002 369.50290332 -136.73990017 348.69292305 -149.56542969 324.21289062 C-150.45356355 322.53495521 -151.38500496 320.88013171 -152.3203125 319.22802734 C-175.46126449 276.59161579 -178.23582564 222.37749309 -164.64697266 176.39599609 C-160.71494015 163.81349206 -155.8834861 151.93172989 -149.53125 140.38818359 C-149.21188477 139.79247559 -148.89251953 139.19676758 -148.56347656 138.58300781 C-130.63817631 105.18007522 -102.80014487 78.17723535 -69.42041016 60.40234375 C-67.71859059 59.48875387 -66.03568304 58.54014378 -64.35546875 57.58740234 C-48.88586624 49.20723162 -27.36426331 40.38818359 -9.53125 40.38818359 C-9.55219727 39.2830542 -9.57314453 38.1779248 -9.59472656 37.03930664 C-9.6670964 32.94129379 -9.71303836 28.84333745 -9.75097656 24.74487305 C-9.77109903 22.9706879 -9.7984003 21.19656913 -9.83300781 19.42260742 C-9.88149992 16.87320593 -9.90421153 14.32468064 -9.921875 11.77490234 C-9.94252014 10.98105637 -9.96316528 10.18721039 -9.98443604 9.36930847 C-9.98668745 3.85082786 -9.98668745 3.85082786 -7.84857178 1.67887878 C-5.02686349 0.10725185 -3.22126978 0.00789462 0 0 Z M3.46875 13.38818359 C3.46875 21.63818359 3.46875 29.88818359 3.46875 38.38818359 C16.00875 38.38818359 28.54875 38.38818359 41.46875 38.38818359 C41.46875 30.13818359 41.46875 21.88818359 41.46875 13.38818359 C28.92875 13.38818359 16.38875 13.38818359 3.46875 13.38818359 Z M-116.00830078 114.07177734 C-123.47493874 122.88419093 -129.7084048 132.43163842 -135.53125 142.38818359 C-135.88815918 142.99210937 -136.24506836 143.59603516 -136.61279297 144.21826172 C-160.45260965 185.02253226 -164.98469233 234.48638526 -153.234375 279.78222656 C-144.84344095 310.88112588 -128.6052886 337.19896325 -106.53125 360.38818359 C-105.83902344 361.14486328 -105.14679688 361.90154297 -104.43359375 362.68115234 C-93.90626722 373.81699485 -80.8064529 382.84618876 -67.53125 390.38818359 C-65.84902344 391.36851562 -65.84902344 391.36851562 -64.1328125 392.36865234 C-23.3768322 415.53450173 26.21328341 420.09281964 71.1418457 407.92602539 C119.18614379 394.11895088 158.60093682 361.78711582 182.96142578 318.35131836 C194.04137245 297.91863533 200.78758085 275.45870883 203.46875 252.38818359 C203.57960938 251.43427734 203.69046875 250.48037109 203.8046875 249.49755859 C208.38465365 203.20276561 194.12946962 155.83204178 165.11328125 119.55615234 C160.48938825 113.93202443 155.49456025 108.65126385 150.46875 103.38818359 C149.86675781 102.73333984 149.26476562 102.07849609 148.64453125 101.40380859 C117.22101355 68.15978483 69.3896168 51.45070841 24.58764648 50.03442383 C-29.29914604 49.49425204 -80.65836589 73.77869454 -116.00830078 114.07177734 Z M162.97827148 69.76513672 C162.35509033 70.39355469 161.73190918 71.02197266 161.08984375 71.66943359 C160.41630859 72.34619141 159.74277344 73.02294922 159.04882812 73.72021484 C158.34177734 74.43564453 157.63472656 75.15107422 156.90625 75.88818359 C156.19533203 76.60361328 155.48441406 77.31904297 154.75195312 78.05615234 C152.98864403 79.83129573 151.2277016 81.60872404 149.46875 83.38818359 C151.08151502 87.64001865 152.05008199 87.73698279 156.46875 90.38818359 C161.41875 85.43818359 166.36875 80.48818359 171.46875 75.38818359 C169.48875 73.07818359 167.50875 70.76818359 165.46875 68.38818359 C164.2529763 68.27508695 164.2529763 68.27508695 162.97827148 69.76513672 Z " fill="#000000" transform="translate(204.53125,31.61181640625)"/>
<path d="M0 0 C1.01823853 0.00215515 2.03647705 0.0043103 3.08557129 0.00653076 C17.70394496 0.05621405 32.01132916 0.34890333 46.375 3.3125 C47.39819336 3.51649414 48.42138672 3.72048828 49.47558594 3.93066406 C95.65838766 13.3258624 138.31148434 33.85225288 172.9375 66.0625 C174.99725336 67.96381079 177.0976261 69.76885509 179.25 71.5625 C199.82792582 89.58390143 215.54480939 113.3694994 228.375 137.3125 C228.88111816 138.2408667 228.88111816 138.2408667 229.39746094 139.18798828 C260.44381389 196.4798679 264.96906433 267.01969444 247.22167969 329.09716797 C242.43557553 345.20434606 236.30892773 360.50921508 228.375 375.3125 C228.00149414 376.02470703 227.62798828 376.73691406 227.24316406 377.47070312 C216.12571365 398.63181191 201.83190074 417.40815181 185.5625 434.875 C184.66567505 435.83901733 184.66567505 435.83901733 183.75073242 436.82250977 C179.5279125 441.28061024 175.04166344 445.32632902 170.375 449.3125 C169.36485788 450.20065561 168.35565455 451.08988079 167.34765625 451.98046875 C141.57332144 474.2951613 110.98002646 491.31982612 78.375 501.3125 C77.50552734 501.57901367 76.63605469 501.84552734 75.74023438 502.12011719 C55.46124097 508.21557967 34.54308884 512.36500419 13.3203125 512.55078125 C12.38900513 512.5605751 11.45769775 512.57036896 10.49816895 512.58045959 C-10.19697723 512.75323452 -30.28395342 512.58500375 -50.625 508.3125 C-52.14794678 507.99901611 -52.14794678 507.99901611 -53.70166016 507.67919922 C-100.04330555 497.83261373 -141.72937054 475.23508811 -176.05615234 442.78027344 C-177.70202668 441.24043583 -179.37571805 439.73454537 -181.05078125 438.2265625 C-182.16009568 437.19404058 -183.26820325 436.16022026 -184.375 435.125 C-185.1637854 434.43120239 -185.1637854 434.43120239 -185.96850586 433.72338867 C-188.84078223 430.97366533 -189.96922756 428.96905867 -190.078125 425.07421875 C-189.625 421.3125 -189.625 421.3125 -187.625 419.3125 C-184.30810311 418.64691426 -182.79620582 418.4241601 -179.625 419.3125 C-175.98610779 422.00886201 -173.04835286 425.29016334 -170 428.625 C-168.22686771 430.47924643 -166.44822006 432.32823466 -164.6640625 434.171875 C-163.80200195 435.06455078 -162.93994141 435.95722656 -162.05175781 436.87695312 C-157.00754435 441.93943537 -151.42943928 446.17000851 -145.625 450.3125 C-145.02864746 450.74788086 -144.43229492 451.18326172 -143.81787109 451.63183594 C-90.72230076 490.2846342 -25.43052687 505.92672263 39.37695312 496.02758789 C73.3978262 490.51869015 107.02057976 478.12769716 135.375 458.3125 C136.13216309 457.78543457 136.88932617 457.25836914 137.66943359 456.71533203 C147.23790475 449.99304472 156.27836538 442.96597752 164.7109375 434.859375 C166.8357255 432.82805274 168.9788944 430.92340591 171.25 429.0625 C175.05577421 425.84009264 178.15895419 422.10997782 181.375 418.3125 C182.30441511 417.2551244 183.23553775 416.19924829 184.16796875 415.14453125 C190.84833645 407.54554592 196.84837371 399.80616195 202.375 391.3125 C203.00535156 390.35730469 203.63570313 389.40210938 204.28515625 388.41796875 C227.72826254 351.68883097 242.26180361 309.06595821 243.375 265.3125 C243.39546387 264.65507812 243.41592773 263.99765625 243.43701172 263.3203125 C244.85178992 212.99630116 230.55296044 159.09352762 200.375 118.3125 C199.68277344 117.35085937 198.99054688 116.38921875 198.27734375 115.3984375 C192.66176985 107.73273344 186.62069957 100.46662458 180.375 93.3125 C179.93478516 92.8076709 179.49457031 92.3028418 179.04101562 91.78271484 C173.81622458 85.82575016 168.45637071 80.38030892 162.375 75.3125 C161.45460938 74.50425781 160.53421875 73.69601563 159.5859375 72.86328125 C125.351783 42.92539078 83.14807734 23.76024594 38.375 16.3125 C37.65280273 16.18939453 36.93060547 16.06628906 36.18652344 15.93945312 C-22.08361496 6.35536224 -86.16843317 20.67517448 -134.625 54.3125 C-135.19089844 54.69728516 -135.75679687 55.08207031 -136.33984375 55.47851562 C-145.92764684 62.00206539 -155.40668423 69.09418423 -163.625 77.3125 C-162.97211502 77.31836624 -162.31923004 77.32423248 -161.64656067 77.33027649 C-154.84929362 77.39422634 -148.05249933 77.47865062 -141.25561523 77.57495117 C-138.71922032 77.60819888 -136.18275144 77.63623125 -133.64624023 77.65893555 C-129.99951672 77.6924834 -126.35347089 77.74480152 -122.70703125 77.80078125 C-121.00677544 77.81036613 -121.00677544 77.81036613 -119.27217102 77.82014465 C-118.21144882 77.83993881 -117.15072662 77.85973297 -116.05786133 77.88012695 C-115.12742508 77.89123001 -114.19698883 77.90233307 -113.23835754 77.91377258 C-110.07699148 78.39611122 -108.1799958 79.40848155 -105.625 81.3125 C-104.51257605 84.58024537 -104.15063058 86.32717001 -105.66491699 89.47254944 C-108.51386028 92.14688251 -111.27729179 91.86510813 -114.98632812 91.81420898 C-115.73297226 91.81961197 -116.47961639 91.82501495 -117.24888611 91.83058167 C-119.71840992 91.84309521 -122.1867738 91.82656163 -124.65625 91.80859375 C-126.37113506 91.80874868 -128.08602048 91.81023663 -129.80090332 91.81300354 C-133.39558382 91.8143887 -136.98986588 91.80181018 -140.58447266 91.77905273 C-145.1949803 91.75066754 -149.80482575 91.75340375 -154.41538239 91.76614285 C-157.95670235 91.77309387 -161.49786893 91.76531739 -165.03916931 91.75288582 C-166.73924675 91.74836569 -168.43934061 91.74803941 -170.13941956 91.75195122 C-172.51451435 91.75485785 -174.8886928 91.73838385 -177.26367188 91.71655273 C-177.96817978 91.72105438 -178.67268768 91.72555603 -179.39854431 91.73019409 C-182.09171465 91.68900874 -184.17953764 91.5587041 -186.56082153 90.24258423 C-188.1969517 87.27515994 -188.04195724 84.32833914 -188.01318359 81.02709961 C-188.01844055 80.28860275 -188.02369751 79.5501059 -188.02911377 78.78923035 C-188.04232076 76.34755319 -188.03357449 73.90652756 -188.0234375 71.46484375 C-188.02545783 69.76998265 -188.02836892 68.0751224 -188.03213501 66.38026428 C-188.03655911 62.82853925 -188.03012382 59.27704054 -188.01611328 55.7253418 C-187.99900818 51.16632325 -188.00887021 46.60783399 -188.02683067 42.0488348 C-188.03765513 38.54960621 -188.03422859 35.05050377 -188.0264473 31.55127144 C-188.02444225 29.86989848 -188.0269152 28.18851417 -188.03388596 26.50715446 C-188.0414801 24.1606281 -188.02992651 21.8149675 -188.01318359 19.46850586 C-188.02229263 18.4203772 -188.02229263 18.4203772 -188.03158569 17.35107422 C-188.00595093 15.41807556 -188.00595093 15.41807556 -187.625 12.3125 C-184.15501271 9.99917514 -182.69990752 9.97292437 -178.625 10.3125 C-175.625 12.3125 -175.625 12.3125 -174.95727539 15.23852539 C-174.43556299 20.30699684 -174.39251234 25.40542892 -174.30859375 30.49609375 C-174.28781265 31.55159927 -174.26703156 32.6071048 -174.24562073 33.69459534 C-174.18055152 37.0463345 -174.12143948 40.398148 -174.0625 43.75 C-174.01927419 46.03060646 -173.97565864 48.31120557 -173.93164062 50.59179688 C-173.82491416 56.16528738 -173.72307078 61.73885083 -173.625 67.3125 C-172.56442383 66.33192627 -172.56442383 66.33192627 -171.48242188 65.33154297 C-166.19209779 60.47492531 -160.90469479 55.71131124 -155.125 51.4375 C-154.45831299 50.94266113 -153.79162598 50.44782227 -153.10473633 49.93798828 C-108.23323398 17.13194584 -55.48204424 -0.21124613 0 0 Z " fill="#000000" transform="translate(222.625,-0.3125)"/>
<path d="M0 0 C0.79470703 0.20399414 1.58941406 0.40798828 2.40820312 0.61816406 C32.46274044 8.54121362 58.50495018 23.40263994 80 46 C80.63035156 46.64710938 81.26070313 47.29421875 81.91015625 47.9609375 C112.74719839 80.70150076 123.31048488 122.97509754 122.17480469 166.84228516 C120.90243649 202.90398638 103.04083779 236.94923332 79 263 C78.25363281 263.81726563 77.50726563 264.63453125 76.73828125 265.4765625 C55.78442225 287.39871443 28.15352563 300.93091502 -1 308 C-1.71494629 308.17934082 -2.42989258 308.35868164 -3.16650391 308.54345703 C-39.64294451 317.33306595 -82.25195881 309.67349747 -114.27001953 290.65136719 C-152.06526907 267.26223647 -178.55618635 232.29762978 -189 188.96875 C-191.55844856 177.45573149 -192.23924625 166.37900804 -192.25 154.625 C-192.25100708 153.86399994 -192.25201416 153.10299988 -192.25305176 152.31893921 C-192.24285613 140.93897161 -191.68008614 130.09161192 -189 119 C-188.73316406 117.76765625 -188.46632813 116.5353125 -188.19140625 115.265625 C-181.75413478 88.14325455 -167.14128959 63.9973401 -148 44 C-146.90365234 42.80890625 -146.90365234 42.80890625 -145.78515625 41.59375 C-125.44112413 20.20035849 -98.2613855 7.25444324 -70 0 C-69.30841797 -0.18079102 -68.61683594 -0.36158203 -67.90429688 -0.54785156 C-47.15890749 -5.68821159 -20.64809672 -5.39775501 0 0 Z M-59.0625 11.1875 C-59.7829248 11.3205957 -60.50334961 11.45369141 -61.24560547 11.59082031 C-75.00310335 14.2593391 -87.53023889 18.64877151 -100 25 C-101.68416016 25.8353125 -101.68416016 25.8353125 -103.40234375 26.6875 C-113.96648419 32.11402636 -123.1353912 39.1427331 -132 47 C-129.13760824 50.49847881 -126.21935158 53.82341198 -122.96484375 56.9609375 C-122.42698242 57.48204102 -121.88912109 58.00314453 -121.33496094 58.54003906 C-120.24905494 59.58474886 -119.15477405 60.62083269 -118.05175781 61.64746094 C-114.9900388 64.60045689 -113.16376144 66.66032192 -113 71 C-113.9375 73.3125 -113.9375 73.3125 -115 75 C-118.1475085 75.51977205 -119.94678165 75.72194325 -123 75 C-126.60083562 72.41171217 -129.50169577 69.25223227 -132.5 66 C-133.32242188 65.14148438 -134.14484375 64.28296875 -134.9921875 63.3984375 C-137.01404641 61.28253864 -139.01489355 59.15032017 -141 57 C-145.27448729 60.10592242 -148.19378529 63.51408751 -151.25 67.75 C-151.96506714 68.7407251 -151.96506714 68.7407251 -152.69458008 69.75146484 C-168.7669872 92.43971705 -179.50836031 119.92721388 -179 148 C-178.13197754 148.01458252 -177.26395508 148.02916504 -176.36962891 148.04418945 C-173.15261121 148.10520111 -169.93624337 148.17934391 -166.71972656 148.26245117 C-165.32693911 148.29572873 -163.93401589 148.32375197 -162.54101562 148.34643555 C-160.54008622 148.37992689 -158.53953079 148.43381305 -156.5390625 148.48828125 C-155.33459473 148.51446533 -154.13012695 148.54064941 -152.88916016 148.56762695 C-151.9357373 148.71031006 -150.98231445 148.85299316 -150 149 C-148 152 -148 152 -148.3125 155.125 C-149 158 -149 158 -150 159 C-152.14386657 159.15858842 -154.29266838 159.25129298 -156.44140625 159.31640625 C-158.39916992 159.37924805 -158.39916992 159.37924805 -160.39648438 159.44335938 C-161.7851533 159.48317608 -163.17382522 159.52288825 -164.5625 159.5625 C-165.95509183 159.60567989 -167.34767028 159.649294 -168.74023438 159.69335938 C-172.16004801 159.79985876 -175.57993763 159.90186923 -179 160 C-179.21379089 166.8705447 -178.71086456 173.26114898 -177.375 180 C-177.19461182 180.91007813 -177.01422363 181.82015625 -176.82836914 182.7578125 C-171.51629968 208.34483721 -159.54876482 231.60399678 -142 251 C-138.50508661 248.14052541 -135.18836022 245.23574743 -132.07421875 241.96484375 C-131.55762695 241.42698242 -131.04103516 240.88912109 -130.50878906 240.33496094 C-129.47494534 239.25099925 -128.45175383 238.15675973 -127.44042969 237.05175781 C-124.97427027 234.47787734 -123.22663834 233.06711135 -119.78125 232.046875 C-117 232 -117 232 -114.5625 233.5625 C-113 236 -113 236 -113.15014648 238.86962891 C-114.13812264 242.5087643 -115.34170164 243.92415962 -118.03515625 246.5234375 C-118.84404297 247.31621094 -119.65292969 248.10898437 -120.48632812 248.92578125 C-121.33646484 249.73402344 -122.18660156 250.54226563 -123.0625 251.375 C-124.34350586 252.62216797 -124.34350586 252.62216797 -125.65039062 253.89453125 C-127.75609934 255.94142129 -129.87257749 257.97572717 -132 260 C-112.48386891 279.82811187 -85.86840968 292.12435172 -58.5625 296.8125 C-57.84143066 296.93657227 -57.12036133 297.06064453 -56.37744141 297.18847656 C-51.20995451 297.99407696 -46.22826115 298.09786893 -41 298 C-40.97812622 296.69796631 -40.97812622 296.69796631 -40.95581055 295.36962891 C-40.89479889 292.15261121 -40.82065609 288.93624337 -40.73754883 285.71972656 C-40.70427127 284.32693911 -40.67624803 282.93401589 -40.65356445 281.54101562 C-40.62007311 279.54008622 -40.56618695 277.53953079 -40.51171875 275.5390625 C-40.48553467 274.33459473 -40.45935059 273.13012695 -40.43237305 271.88916016 C-40.28968994 270.9357373 -40.14700684 269.98231445 -40 269 C-37 267 -37 267 -33.875 267.3125 C-31 268 -31 268 -30 269 C-29.84141158 271.14386657 -29.74870702 273.29266838 -29.68359375 275.44140625 C-29.62075195 277.39916992 -29.62075195 277.39916992 -29.55664062 279.39648438 C-29.51682392 280.7851533 -29.47711175 282.17382522 -29.4375 283.5625 C-29.39432011 284.95509183 -29.350706 286.34767028 -29.30664062 287.74023438 C-29.20014124 291.16004801 -29.09813077 294.57993763 -29 298 C4.44835384 298.52314141 37.48117379 283.18369991 62 261 C59.14052541 257.50508661 56.23574743 254.18836022 52.96484375 251.07421875 C52.15805176 250.29933105 52.15805176 250.29933105 51.33496094 249.50878906 C50.25099925 248.47494534 49.15675973 247.45175383 48.05175781 246.44042969 C45.47787734 243.97427027 44.06711135 242.22663834 43.046875 238.78125 C43 236 43 236 44.5625 233.5625 C47 232 47 232 49.86962891 232.15014648 C53.5087643 233.13812264 54.92415962 234.34170164 57.5234375 237.03515625 C58.31621094 237.84404297 59.10898437 238.65292969 59.92578125 239.48632812 C60.73402344 240.33646484 61.54226563 241.18660156 62.375 242.0625 C63.62216797 243.34350586 63.62216797 243.34350586 64.89453125 244.65039062 C66.94142129 246.75609934 68.97572717 248.87257749 71 251 C90.37803406 231.92686508 102.09561208 206.71722653 107.3125 180.1875 C107.48410645 179.32833984 107.65571289 178.46917969 107.83251953 177.58398438 C108.92186239 171.67268067 109.19471339 166.00406351 109 160 C108.13197754 159.98541748 107.26395508 159.97083496 106.36962891 159.95581055 C103.15261121 159.89479889 99.93624337 159.82065609 96.71972656 159.73754883 C95.32693911 159.70427127 93.93401589 159.67624803 92.54101562 159.65356445 C90.54008622 159.62007311 88.53953079 159.56618695 86.5390625 159.51171875 C85.33459473 159.48553467 84.13012695 159.45935059 82.88916016 159.43237305 C81.9357373 159.28968994 80.98231445 159.14700684 80 159 C78 156 78 156 78.3125 152.875 C79 150 79 150 80 149 C82.14386657 148.84141158 84.29266838 148.74870702 86.44140625 148.68359375 C88.39916992 148.62075195 88.39916992 148.62075195 90.39648438 148.55664062 C91.7851533 148.51682392 93.17382522 148.47711175 94.5625 148.4375 C95.95509183 148.39432011 97.34767028 148.350706 98.74023438 148.30664062 C102.16004801 148.20014124 105.57993763 148.09813077 109 148 C109.92319133 118.33162898 97.06734932 86.4144777 78 64 C77.06607422 62.87851563 77.06607422 62.87851563 76.11328125 61.734375 C74.76446121 60.13717085 73.38667392 58.56445263 72 57 C68.50146461 59.86243805 65.20090041 62.73774712 62.14453125 66.0703125 C61.38317871 66.88387207 61.38317871 66.88387207 60.60644531 67.71386719 C59.59210597 68.80519623 58.59457261 69.9124372 57.61621094 71.03613281 C55.56264877 73.22191628 53.85912661 74.86137483 50.83935547 75.34863281 C48.62109375 75.3515625 48.62109375 75.3515625 45 75 C43.8125 72.3125 43.8125 72.3125 43 69 C44.75740675 65.43669411 46.97584685 62.7837667 49.79296875 60.01171875 C50.50517578 59.30595703 51.21738281 58.60019531 51.95117188 57.87304688 C52.68916016 57.15181641 53.42714844 56.43058594 54.1875 55.6875 C54.93708984 54.94693359 55.68667969 54.20636719 56.45898438 53.44335938 C58.30153282 51.62428288 60.14859662 49.81005611 62 48 C58.87047359 43.67938518 55.40580104 40.76482331 51.125 37.6875 C50.12762817 36.96856567 50.12762817 36.96856567 49.11010742 36.23510742 C26.58767197 20.24911796 -1.11851487 9.49510389 -29 10 C-29.01458252 10.86802246 -29.02916504 11.73604492 -29.04418945 12.63037109 C-29.10520111 15.84738879 -29.17934391 19.06375663 -29.26245117 22.28027344 C-29.29572873 23.67306089 -29.32375197 25.06598411 -29.34643555 26.45898438 C-29.37992689 28.45991378 -29.43381305 30.46046921 -29.48828125 32.4609375 C-29.51446533 33.66540527 -29.54064941 34.86987305 -29.56762695 36.11083984 C-29.71031006 37.0642627 -29.85299316 38.01768555 -30 39 C-33 41 -33 41 -36.125 40.6875 C-39 40 -39 40 -40 39 C-40.15858842 36.85613343 -40.25129298 34.70733162 -40.31640625 32.55859375 C-40.37924805 30.60083008 -40.37924805 30.60083008 -40.44335938 28.60351562 C-40.48317608 27.2148467 -40.52288825 25.82617478 -40.5625 24.4375 C-40.60567989 23.04490817 -40.649294 21.65232972 -40.69335938 20.25976562 C-40.79985876 16.83995199 -40.90186923 13.42006237 -41 10 C-47.1578692 9.86498325 -53.00571523 10.05083798 -59.0625 11.1875 Z " fill="#000000" transform="translate(262,110)"/>
<path d="M0 0 C2.20778632 1.61789489 2.91808232 2.49568462 3.36076355 5.22099304 C3.35410172 6.08481094 3.34743988 6.94862885 3.34057617 7.83862305 C3.34023628 9.30980843 3.34023628 9.30980843 3.33988953 10.81071472 C3.32440567 11.86704605 3.30892181 12.92337738 3.29296875 14.01171875 C3.28872391 15.09508011 3.28447906 16.17844147 3.28010559 17.29463196 C3.26329569 20.75917277 3.22563848 24.22313462 3.1875 27.6875 C3.17245619 30.03449682 3.15876726 32.38150274 3.14648438 34.72851562 C3.11338461 40.48587505 3.06316205 46.24289617 3 52 C3.78246094 52.14477783 4.56492188 52.28955566 5.37109375 52.4387207 C12.16530595 53.8893052 17.07402718 58.50363805 21 64 C24 69.27586207 24 69.27586207 24 73 C24.82019119 72.99111755 25.64038239 72.98223511 26.48542786 72.9730835 C34.2104359 72.89297512 41.93524292 72.8320551 49.66055775 72.79275131 C53.63236504 72.7718655 57.60382949 72.7435306 61.57543945 72.69824219 C65.4074459 72.65481855 69.23912235 72.63087038 73.07135582 72.62049103 C74.53424972 72.61309327 75.99712531 72.59864711 77.45987892 72.57707977 C79.50726132 72.54808981 81.55327586 72.54404181 83.60083008 72.54589844 C84.76665115 72.53701599 85.93247223 72.52813354 87.13362122 72.51898193 C90 73 90 73 91.91166687 74.83306885 C93.44698878 77.88997926 92.91316426 79.7688034 92 83 C90 85 90 85 87.25387573 85.24050903 C86.08583405 85.23606781 84.91779236 85.23162659 83.71435547 85.22705078 C83.07032776 85.22734283 82.42630005 85.22763489 81.76275635 85.22793579 C79.63076373 85.22654074 77.49911918 85.21097174 75.3671875 85.1953125 C73.89031159 85.19158298 72.41343322 85.18873572 70.93655396 85.18673706 C67.04682602 85.17909574 63.15724712 85.15944308 59.26757812 85.1373291 C55.29949968 85.11688135 51.33139718 85.10773764 47.36328125 85.09765625 C39.57545284 85.07619756 31.78774729 85.04205572 24 85 C23.85522217 85.78246094 23.71044434 86.56492187 23.5612793 87.37109375 C22.1106948 94.16530595 17.49636195 99.07402718 12 103 C5.27277392 106.84412919 -1.66779798 108.22911775 -9.3046875 106.46875 C-18.19503501 103.71483764 -24.08446298 99.10218978 -28.75 90.9375 C-32.02563557 83.2397564 -31.7710191 75.84585171 -28.91015625 68.1015625 C-25.52220777 60.27874584 -19.79277707 55.29028365 -12 52 C-11.01 52 -10.02 52 -9 52 C-9.00666183 51.3927861 -9.01332367 50.7855722 -9.02018738 50.15995789 C-9.08646887 43.8499378 -9.13177064 37.54001632 -9.16479492 31.22973633 C-9.17989747 28.87357569 -9.20038091 26.51744323 -9.22631836 24.16137695 C-9.26263656 20.77808688 -9.27971167 17.39516792 -9.29296875 14.01171875 C-9.30845261 12.95538742 -9.32393646 11.89905609 -9.33988953 10.81071472 C-9.34011612 9.82992447 -9.34034271 8.84913422 -9.34057617 7.83862305 C-9.34723801 6.97480515 -9.35389984 6.11098724 -9.36076355 5.22099304 C-8.48766894 -0.15409833 -4.84854839 -0.60606855 0 0 Z M-14.8125 69.625 C-17.69654015 73.39859799 -18.40830128 77.31270133 -18 82 C-16.67346015 86.17614397 -14.51142611 88.56812906 -11.1875 91.375 C-6.1965597 93.91940094 -2.78947422 94.52450106 2.625 92.9375 C7.05258007 90.39574107 10.16270106 87.8840297 11.6328125 82.8203125 C12.44050588 77.71637771 12.05618041 74.33780445 9 70 C5.02310557 65.73904168 2.01531183 64.19463975 -3.828125 63.87109375 C-8.6936235 64.15987334 -11.35459772 66.39762454 -14.8125 69.625 Z " fill="#000000" transform="translate(230,185)"/>
</svg>
