<?xml version="1.0" encoding="UTF-8"?>
<svg version="1.1" xmlns="http://www.w3.org/2000/svg" width="512" height="512">
<path d="M0 0 C5.28 0 10.56 0 16 0 C16.375 7.6875 16.375 7.6875 16.47802734 10.08081055 C16.69851337 14.02611362 16.91039917 17.54510783 19 21 C22.85061763 22.96850277 26.07503788 23.25264612 30.36328125 23.25878906 C32.26049927 23.26824554 32.26049927 23.26824554 34.19604492 23.27789307 C35.56819804 23.27431304 36.94034988 23.27021102 38.3125 23.265625 C39.72827216 23.26697336 41.14404387 23.26891533 42.55981445 23.27142334 C45.52201765 23.27436654 48.48409995 23.27010292 51.44628906 23.26074219 C55.23586146 23.24934804 59.02515051 23.25591183 62.81471252 23.26788712 C65.7367159 23.27512748 68.65865253 23.27280781 71.58065796 23.26763153 C72.9776513 23.26630105 74.37465079 23.26792161 75.77163696 23.27259064 C77.72666298 23.27769141 79.68171036 23.26853359 81.63671875 23.25878906 C82.74748779 23.25719788 83.85825684 23.25560669 85.00268555 23.25396729 C88.08275401 22.99298812 90.25490854 22.40333855 93 21 C95.47708308 16.90445465 95.42423368 12.35127305 95.625 7.6875 C95.810625 3.8821875 95.810625 3.8821875 96 0 C101.28 0 106.56 0 112 0 C112 87.12 112 174.24 112 264 C104.08 264 96.16 264 88 264 C87.970271 261.49466675 87.970271 261.49466675 87.93994141 258.9387207 C87.86386933 252.74195275 87.77515384 246.54541911 87.68261719 240.34887695 C87.64325464 237.6669486 87.60865764 234.98502158 87.578125 232.30297852 C87.53246047 228.44789318 87.47446701 224.59316031 87.4140625 220.73828125 C87.40251129 219.53915604 87.39096008 218.34003082 87.37905884 217.10456848 C87.35918915 215.98378403 87.33931946 214.86299957 87.31884766 213.70825195 C87.30552399 212.72452103 87.29220032 211.7407901 87.2784729 210.72724915 C86.97057833 207.71185629 86.50444202 205.64002846 85 203 C81.69746718 201.15395056 78.84845672 200.74841671 75.10546875 200.74121094 C73.68874878 200.73175446 73.68874878 200.73175446 72.2434082 200.72210693 C71.2349585 200.7261554 70.22650879 200.73020386 69.1875 200.734375 C67.61778442 200.73150482 67.61778442 200.73150482 66.01635742 200.72857666 C63.80745198 200.72721782 61.59853846 200.73089324 59.38964844 200.73925781 C56.01218699 200.74996138 52.63525744 200.73935213 49.2578125 200.7265625 C47.10937383 200.72788415 44.96093549 200.73044665 42.8125 200.734375 C41.80405029 200.73032654 40.79560059 200.72627808 39.7565918 200.72210693 C38.81211182 200.72841125 37.86763184 200.73471558 36.89453125 200.74121094 C36.06800049 200.74280212 35.24146973 200.74439331 34.38989258 200.74603271 C31.52304957 201.0506842 29.52494955 201.58860397 27 203 C24.98844448 206.52992255 24.73549376 209.69604422 24.68115234 213.70825195 C24.66128265 214.82903641 24.64141296 215.94982086 24.62094116 217.10456848 C24.60361435 218.9032563 24.60361435 218.9032563 24.5859375 220.73828125 C24.56657135 221.97418503 24.5472052 223.21008881 24.5272522 224.48344421 C24.47767445 227.75651967 24.43637171 231.029561 24.39910889 234.30279541 C24.35897981 237.64793457 24.30776548 240.99288373 24.2578125 244.33789062 C24.16183179 250.89182779 24.07777375 257.44582251 24 264 C16.08 264 8.16 264 0 264 C0 176.88 0 89.76 0 0 Z M16 40 C16 45.28 16 50.56 16 56 C21.28 56 26.56 56 32 56 C32 50.72 32 45.44 32 40 C26.72 40 21.44 40 16 40 Z M48 40 C48 45.28 48 50.56 48 56 C53.28 56 58.56 56 64 56 C64 50.72 64 45.44 64 40 C58.72 40 53.44 40 48 40 Z M80 40 C80 45.28 80 50.56 80 56 C85.28 56 90.56 56 96 56 C96 50.72 96 45.44 96 40 C90.72 40 85.44 40 80 40 Z M16 72 C16 77.28 16 82.56 16 88 C21.28 88 26.56 88 32 88 C32 82.72 32 77.44 32 72 C26.72 72 21.44 72 16 72 Z M48 72 C48 77.28 48 82.56 48 88 C53.28 88 58.56 88 64 88 C64 82.72 64 77.44 64 72 C58.72 72 53.44 72 48 72 Z M80 72 C80 77.28 80 82.56 80 88 C85.28 88 90.56 88 96 88 C96 82.72 96 77.44 96 72 C90.72 72 85.44 72 80 72 Z M16 104 C16 109.28 16 114.56 16 120 C21.28 120 26.56 120 32 120 C32 114.72 32 109.44 32 104 C26.72 104 21.44 104 16 104 Z M48 104 C48 109.28 48 114.56 48 120 C53.28 120 58.56 120 64 120 C64 114.72 64 109.44 64 104 C58.72 104 53.44 104 48 104 Z M80 104 C80 109.28 80 114.56 80 120 C85.28 120 90.56 120 96 120 C96 114.72 96 109.44 96 104 C90.72 104 85.44 104 80 104 Z M16 136 C16 141.28 16 146.56 16 152 C21.28 152 26.56 152 32 152 C32 146.72 32 141.44 32 136 C26.72 136 21.44 136 16 136 Z M48 136 C48 141.28 48 146.56 48 152 C53.28 152 58.56 152 64 152 C64 146.72 64 141.44 64 136 C58.72 136 53.44 136 48 136 Z M80 136 C80 141.28 80 146.56 80 152 C85.28 152 90.56 152 96 152 C96 146.72 96 141.44 96 136 C90.72 136 85.44 136 80 136 Z M16 168 C16 173.28 16 178.56 16 184 C21.28 184 26.56 184 32 184 C32 178.72 32 173.44 32 168 C26.72 168 21.44 168 16 168 Z M48 168 C48 173.28 48 178.56 48 184 C53.28 184 58.56 184 64 184 C64 178.72 64 173.44 64 168 C58.72 168 53.44 168 48 168 Z M80 168 C80 173.28 80 178.56 80 184 C85.28 184 90.56 184 96 184 C96 178.72 96 173.44 96 168 C90.72 168 85.44 168 80 168 Z " fill="#000000" transform="translate(200,216)"/>
<path d="M0 0 C0.66 0 1.32 0 2 0 C2.20677872 0.54013229 2.41355743 1.08026459 2.62660217 1.63676453 C11.09032264 27.1144265 11.09032264 27.1144265 27.77832031 46.52636719 C35.23836783 49.62989391 43.4742151 49.40640785 51.41210938 49.07617188 C56.56878043 48.96669437 61.39337781 49.83879752 66.4375 50.8125 C67.93520266 51.05442124 69.43380266 51.29091407 70.93359375 51.51953125 C71.94550781 51.67808594 72.95742188 51.83664063 74 52 C72.67963073 54.96013759 71.30040192 56.90381325 68.90234375 59.07421875 C68.27312012 59.65034912 67.64389648 60.22647949 66.99560547 60.82006836 C65.97684326 61.74444702 65.97684326 61.74444702 64.9375 62.6875 C63.50069523 64.03581194 62.06452046 65.38479548 60.62890625 66.734375 C57.51329068 69.63952115 54.33005536 72.43811013 51.08984375 75.203125 C42.76020091 82.16464344 42.76020091 82.16464344 38.203125 91.61328125 C38.60186716 95.05058639 39.30186345 98.0534379 40.29296875 101.35205078 C41.68205156 106.55439615 42.4211458 111.89679183 43.29315186 117.20568848 C44.00984683 121.48582199 44.79979008 125.75387713 45.57275391 130.02416992 C45.96221733 132.73683833 46.08296996 135.2654749 46 138 C41.14759739 136.53465423 36.8439038 134.5240644 32.37109375 132.19140625 C31.65897232 131.8240184 30.94685089 131.45663055 30.21315002 131.07810974 C28.71534997 130.30434679 27.21861584 129.52851736 25.72290039 128.75073242 C23.4432881 127.56550936 21.16044483 126.38671297 18.87695312 125.20898438 C17.41647323 124.45349883 15.95618037 123.69765158 14.49609375 122.94140625 C13.48028481 122.41626183 13.48028481 122.41626183 12.44395447 121.88050842 C9.62586628 120.41342526 6.94467825 118.96102204 4.34399414 117.12866211 C2.07473228 115.73396273 2.07473228 115.73396273 -0.25317383 116.52685547 C-1.15962646 117.01299316 -2.0660791 117.49913086 -3 118 C-4.37178272 118.68807403 -5.74379628 119.37568793 -7.1159668 120.06298828 C-8.72811222 120.89671374 -10.33913652 121.73260956 -11.94921875 122.5703125 C-13.70112355 123.47535397 -15.45307815 124.38029905 -17.20507812 125.28515625 C-19.95788399 126.71027159 -22.71000496 128.13668332 -25.46118164 129.56494141 C-28.12207111 130.94522307 -30.78547091 132.32055728 -33.44921875 133.6953125 C-34.2762883 134.12651398 -35.10335785 134.55771545 -35.95549011 135.00198364 C-36.72000992 135.3959433 -37.48452972 135.78990295 -38.2722168 136.19580078 C-38.94552536 136.54506622 -39.61883392 136.89433167 -40.31254578 137.25418091 C-42 138 -42 138 -44 138 C-43.59591397 131.40234426 -42.71458098 124.94553789 -41.5546875 118.4453125 C-41.42016174 117.690224 -41.28563599 116.9351355 -41.14703369 116.15716553 C-40.5826669 113.01234014 -40.01202894 109.86874162 -39.43310547 106.7265625 C-39.00732795 104.40500464 -38.59283381 102.08164644 -38.1796875 99.7578125 C-38.04642059 99.05254425 -37.91315369 98.347276 -37.77584839 97.62063599 C-37.10238495 93.79282404 -36.59077317 90.6634649 -38 87 C-39.77986001 84.8676834 -41.51918158 82.99050369 -43.50390625 81.0703125 C-44.06061508 80.51689178 -44.61732391 79.96347107 -45.19090271 79.39328003 C-46.97227281 77.62762611 -48.76729449 75.87657288 -50.5625 74.125 C-51.74370152 72.9552979 -52.92404925 71.78473295 -54.10351562 70.61328125 C-59.48132765 65.29430949 -64.86127463 60.05833254 -70.72241211 55.26513672 C-71.14401611 54.8476416 -71.56562012 54.43014648 -72 54 C-72 53.34 -72 52.68 -72 52 C-71.43259094 51.91452408 -70.86518188 51.82904816 -70.28057861 51.74098206 C-64.37550306 50.85104006 -58.47083881 49.95840679 -52.56640625 49.06420898 C-50.36273466 48.73083552 -48.15895909 48.39814862 -45.95507812 48.06616211 C-42.78748434 47.58888278 -39.62027258 47.10913644 -36.453125 46.62890625 C-35.46757629 46.48095108 -34.48202759 46.33299591 -33.46661377 46.18055725 C-32.5459613 46.04048752 -31.62530884 45.90041779 -30.67675781 45.75610352 C-29.46430389 45.57290306 -29.46430389 45.57290306 -28.22735596 45.38600159 C-27.49232849 45.25862106 -26.75730103 45.13124054 -26 45 C-24.94184082 44.85757874 -24.94184082 44.85757874 -23.86230469 44.71228027 C-21.21961911 43.7015258 -20.75782752 42.36045034 -19.52636719 39.84741211 C-19.08621277 38.96657455 -18.64605835 38.085737 -18.19256592 37.1782074 C-17.73198792 36.22092239 -17.27140991 35.26363739 -16.796875 34.27734375 C-16.3142218 33.30213272 -15.8315686 32.32692169 -15.33428955 31.32215881 C-13.79295704 28.20025311 -12.27135602 25.06918162 -10.75 21.9375 C-9.70961698 19.82163397 -8.66796604 17.70639087 -7.625 15.59179688 C-5.06856698 10.40167486 -2.52827646 5.20389094 0 0 Z " fill="#000000" transform="translate(255,24)"/>
<path d="M0 0 C18.48 0 36.96 0 56 0 C56 60.72 56 121.44 56 184 C37.52 184 19.04 184 0 184 C0 123.28 0 62.56 0 0 Z M16 24 C16 29.28 16 34.56 16 40 C23.92 40 31.84 40 40 40 C40 34.72 40 29.44 40 24 C32.08 24 24.16 24 16 24 Z M16 64 C16 69.28 16 74.56 16 80 C23.92 80 31.84 80 40 80 C40 74.72 40 69.44 40 64 C32.08 64 24.16 64 16 64 Z M16 104 C16 109.28 16 114.56 16 120 C23.92 120 31.84 120 40 120 C40 114.72 40 109.44 40 104 C32.08 104 24.16 104 16 104 Z M16 144 C16 149.28 16 154.56 16 160 C23.92 160 31.84 160 40 160 C40 154.72 40 149.44 40 144 C32.08 144 24.16 144 16 144 Z " fill="#000000" transform="translate(328,264)"/>
<path d="M0 0 C18.48 0 36.96 0 56 0 C56 60.72 56 121.44 56 184 C37.52 184 19.04 184 0 184 C0 123.28 0 62.56 0 0 Z M16 24 C16 29.28 16 34.56 16 40 C23.92 40 31.84 40 40 40 C40 34.72 40 29.44 40 24 C32.08 24 24.16 24 16 24 Z M16 64 C16 69.28 16 74.56 16 80 C23.92 80 31.84 80 40 80 C40 74.72 40 69.44 40 64 C32.08 64 24.16 64 16 64 Z M16 104 C16 109.28 16 114.56 16 120 C23.92 120 31.84 120 40 120 C40 114.72 40 109.44 40 104 C32.08 104 24.16 104 16 104 Z M16 144 C16 149.28 16 154.56 16 160 C23.92 160 31.84 160 40 160 C40 154.72 40 149.44 40 144 C32.08 144 24.16 144 16 144 Z " fill="#000000" transform="translate(128,264)"/>
<path d="M0 0 C0.66 0 1.32 0 2 0 C3.99880222 4.09101351 5.99249302 8.18446206 7.98144531 12.28027344 C8.65907394 13.67386252 9.33810524 15.06677045 10.01855469 16.45898438 C10.99521741 18.45786843 11.96684344 20.45913137 12.9375 22.4609375 C13.24373291 23.08495453 13.54996582 23.70897156 13.86547852 24.35189819 C16 28.77225659 16 28.77225659 16 31 C17.65322266 31.16435547 17.65322266 31.16435547 19.33984375 31.33203125 C29.99475166 32.43181642 40.47764839 34.00208514 51 36 C49.60279886 39.15765714 47.95955325 41.28706899 45.515625 43.71484375 C44.82726562 44.40126953 44.13890625 45.08769531 43.4296875 45.79492188 C42.71039063 46.50197266 41.99109375 47.20902344 41.25 47.9375 C40.54617187 48.64068359 39.84234375 49.34386719 39.1171875 50.06835938 C38.07691406 51.09993164 38.07691406 51.09993164 37.015625 52.15234375 C36.34096191 52.83151855 35.66629883 53.51069336 34.97119141 54.21044922 C33 56 33 56 31.07177734 57.09033203 C29.01273298 58.11844435 29.01273298 58.11844435 27 61 C27.00965574 66.13001216 28.06548786 71.00716626 29.125 76 C29.52896426 78.05356534 29.92360062 80.10872601 30.31588745 82.16455078 C30.67730954 84.03198061 31.0609828 85.89506313 31.44580078 87.7578125 C31.93070309 90.59459783 32.11290569 93.13341254 32 96 C27.71514272 94.72186668 24.26751496 93.08608264 20.5078125 90.6796875 C10.19390654 83.81445431 10.19390654 83.81445431 -1.50244141 81.06542969 C-5.98355171 82.31398711 -9.53134431 84.85855385 -13.17822266 87.67382812 C-16.19638781 89.87091646 -19.5164307 91.39577805 -22.875 93 C-24.00679687 93.5775 -25.13859375 94.155 -26.3046875 94.75 C-29 96 -29 96 -31 96 C-30.67830585 93.74814094 -30.35591142 91.49641079 -30.03027344 89.24511719 C-29.75812598 87.31778857 -29.4985279 85.38864972 -29.25097656 83.45800781 C-28.15480586 75.12097413 -28.15480586 75.12097413 -26.7578125 71.0859375 C-25.57511519 67.17111771 -25.12037246 65.02373212 -26 61 C-31.06564832 53.63727564 -38.29450639 47.89301099 -45.12939453 42.23828125 C-46.78309933 40.86095817 -48.39618324 39.43510634 -50 38 C-50 37.34 -50 36.68 -50 36 C-46.04247389 35.34915656 -42.08384689 34.7052566 -38.125 34.0625 C-37.01640625 33.88009766 -35.9078125 33.69769531 -34.765625 33.50976562 C-28.18913099 32.44592101 -21.63884939 31.56247111 -15 31 C-14.72744385 30.12964111 -14.4548877 29.25928223 -14.17407227 28.36254883 C-13.0533844 25.15289319 -11.73907708 22.23479602 -10.21484375 19.19921875 C-9.68439453 18.14025391 -9.15394531 17.08128906 -8.60742188 15.99023438 C-8.05634766 14.90033203 -7.50527344 13.81042969 -6.9375 12.6875 C-6.38255859 11.57826172 -5.82761719 10.46902344 -5.25585938 9.32617188 C-1.14043257 1.14043257 -1.14043257 1.14043257 0 0 Z " fill="#000000" transform="translate(125,112)"/>
<path d="M0 0 C3 1 3 1 4.62573242 3.65209961 C5.19654541 4.80718018 5.7673584 5.96226074 6.35546875 7.15234375 C6.66196854 7.76767471 6.96846832 8.38300568 7.28425598 9.01698303 C7.93013542 10.31848408 8.57118943 11.62238929 9.20776367 12.9284668 C10.18439121 14.93112517 11.17575185 16.92592334 12.16992188 18.91992188 C17 28.68889467 17 28.68889467 17 31 C17.66942627 31.08040527 18.33885254 31.16081055 19.02856445 31.24365234 C22.12363009 31.61737399 25.21805649 31.99616289 28.3125 32.375 C29.8912793 32.56449219 29.8912793 32.56449219 31.50195312 32.7578125 C38.38629874 33.60511658 45.19067427 34.67867362 52 36 C50.11907537 40.15087251 47.29601843 42.70246828 43.9375 45.6875 C42.76816672 46.76685944 41.59889629 47.84628697 40.4296875 48.92578125 C38.35671903 50.8155007 36.28447913 52.56001434 34.0703125 54.29296875 C31.51803781 56.41191331 29.6805738 58.13611808 28 61 C27.70841159 65.12625111 28.54808917 68.77753995 29.51660156 72.77636719 C30.49176892 77.26213702 31.01093656 81.8284804 31.625 86.375 C31.88644081 88.21637086 32.14933561 90.0575362 32.4140625 91.8984375 C32.609375 93.265625 32.8046875 94.6328125 33 96 C28.71398898 94.72822278 25.33600083 93.10456226 21.61328125 90.64453125 C11.13303437 83.59547166 11.13303437 83.59547166 -0.84521484 81.1796875 C-6.12219313 82.6971732 -10.5667632 85.47543579 -15.02587891 88.62304688 C-17.75809983 90.52877604 -20.61115993 92.02001437 -23.5625 93.5625 C-24.38878906 94.03816406 -25.21507812 94.51382813 -26.06640625 95.00390625 C-28 96 -28 96 -30 96 C-29.67087371 90.21546359 -29.04510669 84.76332766 -27.5 79.16796875 C-24.41758517 68.86117465 -24.41758517 68.86117465 -26.14208984 58.68261719 C-29.47952152 54.49095594 -33.65097039 51.42911506 -38.03710938 48.40478516 C-40.80395812 46.42462998 -43.06097936 44.18401711 -45.4375 41.75 C-46.13746094 41.06421875 -46.83742188 40.3784375 -47.55859375 39.671875 C-49 38 -49 38 -49 36 C-44.65902154 35.28386807 -40.31738543 34.57190832 -35.97509766 33.86376953 C-34.49867381 33.62239675 -33.02243417 33.37989441 -31.54638672 33.13623047 C-29.42202671 32.78574683 -27.29703261 32.43936018 -25.171875 32.09375 C-23.2552002 31.77954102 -23.2552002 31.77954102 -21.29980469 31.45898438 C-18 31 -18 31 -14 31 C-13.72816895 30.13487793 -13.45633789 29.26975586 -13.17626953 28.37841797 C-12.03424668 25.09836146 -10.69332221 22.06919689 -9.1796875 18.9453125 C-8.64472656 17.83671875 -8.10976563 16.728125 -7.55859375 15.5859375 C-7.00300781 14.44382812 -6.44742188 13.30171875 -5.875 12.125 C-5.31167969 10.9596875 -4.74835938 9.794375 -4.16796875 8.59375 C-2.78187239 5.72758466 -1.39245478 2.86308022 0 0 Z " fill="#000000" transform="translate(385,112)"/>
<path d="M0 0 C1.258125 -0.01546875 2.51625 -0.0309375 3.8125 -0.046875 C15.44243645 0.00240439 15.44243645 0.00240439 20 4.5 C25.47001989 10.32588555 24.51121757 17.06114768 24.390625 24.6484375 C24.3831563 26.02990904 24.37746634 27.41139124 24.37347412 28.7928772 C24.35826689 32.41316438 24.31902917 36.0328005 24.2746582 39.65283203 C24.23359831 43.35310053 24.21544037 47.05347516 24.1953125 50.75390625 C24.15252847 58.00293409 24.08222075 65.25129254 24 72.5 C18.72 72.5 13.44 72.5 8 72.5 C7.7525 71.05625 7.505 69.6125 7.25 68.125 C4.84189653 56.15231653 -0.1377912 46.86975967 -10 39.5 C-14.46208283 36.80102481 -19.04686489 35.10661181 -24 33.5 C-24.11674705 29.79193404 -24.18743274 26.0843446 -24.25 22.375 C-24.28351563 21.32828125 -24.31703125 20.2815625 -24.3515625 19.203125 C-24.42829791 13.14102778 -24.3557583 9.12979608 -20 4.5 C-14.38621483 -1.03991958 -7.39116829 -0.09087502 0 0 Z " fill="#000000" transform="translate(456,407.5)"/>
<path d="M0 0 C1.258125 -0.01546875 2.51625 -0.0309375 3.8125 -0.046875 C15.44243645 0.00240439 15.44243645 0.00240439 20 4.5 C24.3557583 9.12979608 24.42829791 13.14102778 24.3515625 19.203125 C24.31804687 20.24984375 24.28453125 21.2965625 24.25 22.375 C24.23195312 23.44492187 24.21390625 24.51484375 24.1953125 25.6171875 C24.14837439 28.24572178 24.08272933 30.87238913 24 33.5 C22.80503906 33.97179687 22.80503906 33.97179687 21.5859375 34.453125 C10.14862056 39.07257661 1.1486821 44.67942985 -4.2265625 56.2109375 C-5.52072816 60.04114495 -6.06414663 63.96426019 -6.60546875 67.9609375 C-7 70.5 -7 70.5 -8 72.5 C-13.28 72.5 -18.56 72.5 -24 72.5 C-24.09051771 64.51981961 -24.16383979 56.54004107 -24.20724869 48.55948448 C-24.22808715 44.8534265 -24.25633503 41.1477392 -24.30175781 37.44189453 C-24.34535112 33.86274214 -24.36916523 30.28394536 -24.37950897 26.70454788 C-24.38687635 25.34181753 -24.40126338 23.97910573 -24.42292023 22.61652756 C-24.62416956 9.42500634 -24.62416956 9.42500634 -20 4.5 C-14.38621483 -1.03991958 -7.39116829 -0.09087502 0 0 Z " fill="#000000" transform="translate(56,407.5)"/>
<path d="M0 0 C2.24435921 2.07266832 3.68404081 3.99211933 5.04296875 6.72265625 C5.39423828 7.42583984 5.74550781 8.12902344 6.10742188 8.85351562 C6.46384766 9.58248047 6.82027344 10.31144531 7.1875 11.0625 C7.55552734 11.79533203 7.92355469 12.52816406 8.30273438 13.28320312 C11 18.73278061 11 18.73278061 11 21 C22.88 22.485 22.88 22.485 35 24 C33.17733482 27.64533036 32.64184842 28.53995378 29.63671875 30.78515625 C22.31740398 36.38751058 22.31740398 36.38751058 18.64013672 44.4296875 C18.85049254 49.47047225 20.0765571 54.20945295 21.49316406 59.03173828 C22.10235535 61.3974898 22.18590097 63.56861103 22 66 C18.44008101 65.01870533 15.57813371 63.81841903 12.58203125 61.703125 C8.6070476 59.03410166 4.83945994 56.57158189 0 56 C-6.38463839 57.52229428 -11.92859526 61.27546165 -17.28271484 64.95507812 C-19 66 -19 66 -21 66 C-20.88097649 64.43703338 -20.75425098 62.8746541 -20.625 61.3125 C-20.55410156 60.30445313 -20.48320312 59.29640625 -20.41015625 58.2578125 C-20 55 -20 55 -18.99609375 51.8671875 C-17.91366098 48.18057548 -17.43000548 45.8246197 -18 42 C-21.73094876 36.2601908 -27.82939103 30.08530448 -34 27 C-34 26.01 -34 25.02 -34 24 C-26.08 23.01 -18.16 22.02 -10 21 C-9.34 19.02 -8.68 17.04 -8 15 C-7.38928094 13.69264559 -6.74409658 12.40043565 -6.0546875 11.1328125 C-5.70019531 10.47539062 -5.34570312 9.81796875 -4.98046875 9.140625 C-4.61566406 8.47546875 -4.25085938 7.8103125 -3.875 7.125 C-3.50246094 6.43664062 -3.12992187 5.74828125 -2.74609375 5.0390625 C-1.83500474 3.35705202 -0.91809685 1.67819564 0 0 Z " fill="#000000" transform="translate(453,216)"/>
<path d="M0 0 C2.24435921 2.07266832 3.68404081 3.99211933 5.04296875 6.72265625 C5.39423828 7.42583984 5.74550781 8.12902344 6.10742188 8.85351562 C6.46384766 9.58248047 6.82027344 10.31144531 7.1875 11.0625 C7.55552734 11.79533203 7.92355469 12.52816406 8.30273438 13.28320312 C11 18.73278061 11 18.73278061 11 21 C22.88 22.485 22.88 22.485 35 24 C35 27 35 27 33.53125 28.54296875 C32.8609375 29.08566406 32.190625 29.62835938 31.5 30.1875 C30.78199219 30.81398437 30.06398438 31.44046875 29.32421875 32.0859375 C27 34 27 34 24.58203125 35.6015625 C21.89626282 37.62628982 20.46726591 38.94650068 19 42 C18.86732881 47.42901008 20.32695262 52.70529087 21.58984375 57.94628906 C22.13053372 60.65360099 22.14056377 63.25022129 22 66 C18.44008101 65.01870533 15.57813371 63.81841903 12.58203125 61.703125 C8.6070476 59.03410166 4.83945994 56.57158189 0 56 C-6.38463839 57.52229428 -11.92859526 61.27546165 -17.28271484 64.95507812 C-19 66 -19 66 -21 66 C-20.88097649 64.43703338 -20.75425098 62.8746541 -20.625 61.3125 C-20.55667969 60.301875 -20.48835938 59.29125 -20.41796875 58.25 C-20 55 -20 55 -18.92578125 51.9375 C-17.72167204 48.13004004 -17.27399598 45.96476447 -18 42 C-21.94593269 36.38638676 -27.28592713 31.89442132 -32.49951172 27.48950195 C-32.99467285 26.99796631 -33.48983398 26.50643066 -34 26 C-34 25.34 -34 24.68 -34 24 C-26.08 23.01 -18.16 22.02 -10 21 C-9.34 19.02 -8.68 17.04 -8 15 C-7.38928094 13.69264559 -6.74409658 12.40043565 -6.0546875 11.1328125 C-5.70019531 10.47539062 -5.34570312 9.81796875 -4.98046875 9.140625 C-4.61566406 8.47546875 -4.25085938 7.8103125 -3.875 7.125 C-3.50246094 6.43664062 -3.12992188 5.74828125 -2.74609375 5.0390625 C-1.83500474 3.35705202 -0.91809685 1.67819564 0 0 Z " fill="#000000" transform="translate(58,216)"/>
<path d="M0 0 C10.56 0 21.12 0 32 0 C32 15.84 32 31.68 32 48 C21.44 48 10.88 48 0 48 C0 32.16 0 16.32 0 0 Z " fill="#000000" transform="translate(240,432)"/>
<path d="M0 0 C15.84 0 31.68 0 48 0 C48 10.56 48 21.12 48 32 C32.16 32 16.32 32 0 32 C0 21.44 0 10.88 0 0 Z " fill="#000000" transform="translate(232,192)"/>
<path d="M0 0 C0.78632813 -0.02900391 1.57265625 -0.05800781 2.3828125 -0.08789062 C9.24802423 -0.16201667 13.32930925 1.58547512 18.4296875 6.34765625 C18.98914063 7.01667969 19.54859375 7.68570312 20.125 8.375 C20.69992187 9.04660156 21.27484375 9.71820313 21.8671875 10.41015625 C25.24590899 15.0582844 24.25 18.01787857 24.25 24.3125 C8.41 24.3125 -7.43 24.3125 -23.75 24.3125 C-23.75 14.91949797 -23.23286768 11.82479569 -16.96484375 5.515625 C-11.52675209 0.66637129 -7.23278566 0.08721205 0 0 Z " fill="#000000" transform="translate(423.75,455.6875)"/>
<path d="M0 0 C0.78632812 -0.02900391 1.57265625 -0.05800781 2.3828125 -0.08789062 C9.24802423 -0.16201667 13.32930925 1.58547512 18.4296875 6.34765625 C18.98914063 7.01667969 19.54859375 7.68570312 20.125 8.375 C20.69992188 9.04660156 21.27484375 9.71820313 21.8671875 10.41015625 C25.24590899 15.0582844 24.25 18.01787857 24.25 24.3125 C8.41 24.3125 -7.43 24.3125 -23.75 24.3125 C-23.75 14.91949797 -23.23286768 11.82479569 -16.96484375 5.515625 C-11.52675209 0.66637129 -7.23278566 0.08721205 0 0 Z " fill="#000000" transform="translate(87.75,455.6875)"/>
<path d="M0 0 C18.48 0 36.96 0 56 0 C56 5.28 56 10.56 56 16 C37.52 16 19.04 16 0 16 C0 10.72 0 5.44 0 0 Z " fill="#000000" transform="translate(328,464)"/>
<path d="M0 0 C18.48 0 36.96 0 56 0 C56 5.28 56 10.56 56 16 C37.52 16 19.04 16 0 16 C0 10.72 0 5.44 0 0 Z " fill="#000000" transform="translate(128,464)"/>
</svg>
