<?xml version="1.0" encoding="UTF-8"?>
<svg version="1.1" xmlns="http://www.w3.org/2000/svg" width="512" height="512">
<path d="M0 0 C4.17696715 5.10706105 6.2213133 11.16755264 8.625 17.25 C31.00440729 72.33391627 76.26863932 116.96965988 130.89453125 140.1015625 C144.8304856 145.86418822 158.78141689 150.40690291 173.5 153.6875 C174.40081299 153.89012451 175.30162598 154.09274902 176.22973633 154.30151367 C191.25666243 157.51209767 205.99734715 158.41084294 221.3125 158.375 C222.23208496 158.37412384 223.15166992 158.37324768 224.09912109 158.37234497 C262.32069554 158.25275772 298.29057942 149.03333002 332 131 C333.15628906 130.38640625 334.31257813 129.7728125 335.50390625 129.140625 C354.13786188 118.88028993 370.56580112 105.54543181 386 91 C387.09828125 89.96552734 387.09828125 89.96552734 388.21875 88.91015625 C393.63043303 83.65953522 398.3220234 77.90409066 403 72 C403.78246094 71.04609375 404.56492187 70.0921875 405.37109375 69.109375 C417.82302182 53.56936877 427.66636586 35.78934419 435.34765625 17.4453125 C435.74766846 16.49132568 436.14768066 15.53733887 436.55981445 14.55444336 C437.33787704 12.68023023 438.10388395 10.80095471 438.85620117 8.91625977 C439.20787354 8.06088623 439.5595459 7.2055127 439.921875 6.32421875 C440.37965332 5.1808606 440.37965332 5.1808606 440.84667969 4.0144043 C442.24494534 1.57217527 443.57593561 0.41535724 446 -1 C449.42819926 -0.87971231 451.94725831 -0.6667364 454.875 1.1875 C456.50291524 3.81025233 456.73620878 5.92123128 457 9 C445.85255475 52.22787593 411.91076338 95.15626561 377 122 C376.47132324 122.41040527 375.94264648 122.82081055 375.39794922 123.24365234 C335.42532344 154.10154535 285.18705155 174.93648079 234.171875 175.203125 C232.81696205 175.21364647 232.81696205 175.21364647 231.43467712 175.22438049 C228.53973335 175.24177226 225.64499408 175.24823174 222.75 175.25 C221.76101715 175.25067474 220.7720343 175.25134949 219.75308228 175.25204468 C205.60210459 175.23668144 191.90430769 174.83385689 178 172 C176.14454733 171.6561632 174.28907786 171.3124171 172.43359375 170.96875 C125.16005757 161.8021695 82.53476194 138.25332365 48 105 C47.47631836 104.49823242 46.95263672 103.99646484 46.41308594 103.47949219 C39.39757237 96.72461689 32.94440536 89.7348889 27 82 C26.57895996 81.45537109 26.15791992 80.91074219 25.72412109 80.34960938 C11.84801113 62.29394822 0.07047831 42.48797281 -8.5 21.375 C-9.00793091 20.13097412 -9.00793091 20.13097412 -9.52612305 18.86181641 C-13.84826989 7.85327145 -13.84826989 7.85327145 -12.3125 2.6875 C-8.89078885 -1.71184291 -5.14016177 -1.46861765 0 0 Z " fill="#000000" transform="translate(34,329)"/>
<path d="M0 0 C0.90045044 -0.00705963 1.80090088 -0.01411926 2.7286377 -0.02139282 C40.56271231 -0.2507174 40.56271231 -0.2507174 57.20703125 3.203125 C58.69759033 3.50911621 58.69759033 3.50911621 60.21826172 3.82128906 C82.22394827 8.47510056 102.97551069 15.38909761 123.20703125 25.203125 C123.8633252 25.51830078 124.51961914 25.83347656 125.19580078 26.15820312 C147.82392641 37.16615917 168.14550963 52.81178971 186.20703125 70.203125 C186.73071289 70.70489258 187.25439453 71.20666016 187.79394531 71.72363281 C194.80945888 78.47850811 201.26262589 85.4682361 207.20703125 93.203125 C207.62807129 93.74775391 208.04911133 94.29238281 208.48291016 94.85351562 C222.35902012 112.90917678 234.13655294 132.71515219 242.70703125 153.828125 C243.21496216 155.07215088 243.21496216 155.07215088 243.7331543 156.34130859 C248.05530114 167.34985355 248.05530114 167.34985355 246.51953125 172.515625 C244.83587654 174.68032391 243.85519136 175.41583416 241.20703125 176.203125 C237.70703125 176.203125 237.70703125 176.203125 234.20703125 175.203125 C230.61147513 170.65913479 228.59445705 165.67575923 226.45703125 160.328125 C217.75709938 139.22119246 206.89204877 119.75030503 192.20703125 102.203125 C191.48580078 101.32962402 191.48580078 101.32962402 190.75 100.43847656 C180.59769009 88.16328919 169.83158512 76.98224833 157.20703125 67.203125 C156.63533203 66.74969727 156.06363281 66.29626953 155.47460938 65.82910156 C144.97317439 57.5112983 133.98844484 50.56756438 122.20703125 44.203125 C121.17860107 43.6464917 121.17860107 43.6464917 120.12939453 43.07861328 C66.2564046 14.27641581 2.68350376 9.28224485 -55.6875 26.28515625 C-70.38049729 30.77858976 -84.24441965 37.0072865 -97.79296875 44.203125 C-98.75033936 44.6988501 -98.75033936 44.6988501 -99.72705078 45.20458984 C-127.02293787 59.38364844 -152.04502425 80.7608083 -170.44580078 105.40722656 C-171.80249226 107.21582071 -173.18432712 109.00285383 -174.5703125 110.7890625 C-181.67727822 120.0655623 -187.39214733 129.85460192 -192.79296875 140.203125 C-193.15519531 140.89051758 -193.51742187 141.57791016 -193.890625 142.28613281 C-198.23484207 150.56980134 -202.09279618 158.93815247 -205.36010742 167.70922852 C-206.85719958 171.5730642 -207.99307505 174.2995032 -211.79296875 176.203125 C-215.22116801 176.08283731 -217.74022706 175.8698614 -220.66796875 174.015625 C-222.29588399 171.39287267 -222.52917753 169.28189372 -222.79296875 166.203125 C-211.6455235 122.97524907 -177.70373213 80.04685939 -142.79296875 53.203125 C-142.26429199 52.79271973 -141.73561523 52.38231445 -141.19091797 51.95947266 C-101.24751036 21.12413537 -50.9837759 0.26780026 0 0 Z " fill="#000000" transform="translate(243.79296875,7.796875)"/>
<path d="M0 0 C3.8662657 3.98924831 5.7879274 8.62337134 8 13.625 C17.08040162 33.35329898 29.74759802 50.08312196 44.3125 66.0625 C44.76753906 66.56249512 45.22257812 67.06249023 45.69140625 67.57763672 C57.76798818 80.52612704 72.7763414 91.36286562 88.18359375 99.98242188 C89.97649116 100.98682999 91.75343971 102.01606038 93.53125 103.046875 C109.14736624 111.91602546 126.50550322 118.05605294 144 122 C144.85851562 122.19609863 145.71703125 122.39219727 146.6015625 122.59423828 C196.49799801 133.46021774 250.70754733 123.62893618 293.8984375 96.59375 C312.35891048 84.72478376 329.64409682 70.49224633 343 53 C343.7734375 52.05382812 344.546875 51.10765625 345.34375 50.1328125 C355.53087251 37.46338482 364.03600375 23.37935019 370.32666016 8.37988281 C372.18667621 4.09601677 373.98303666 1.45028497 378 -1 C381.46758942 -0.94021398 383.88826749 -0.60965977 386.9375 1.0625 C388.69901403 4.27467265 388.48612196 7.47136903 388 11 C386.7330021 14.76572789 385.02598775 18.26291883 383.25 21.8125 C382.51160889 23.31731934 382.51160889 23.31731934 381.75830078 24.85253906 C374.68721015 38.96794435 366.41380429 52.11090677 356 64 C355.02912517 65.1505541 354.06051343 66.30302035 353.09375 67.45703125 C344.18772896 78.04965923 334.88355339 87.40388688 324 96 C323.04738281 96.78117187 322.09476562 97.56234375 321.11328125 98.3671875 C287.46642878 125.33636759 242.41207471 142.95327366 199.109375 143.203125 C198.29082535 143.21013931 197.4722757 143.21715363 196.62892151 143.22438049 C194.00255768 143.24178269 191.37641937 143.24823262 188.75 143.25 C187.85227875 143.25067474 186.9545575 143.25134949 186.02963257 143.25204468 C172.7885019 143.23621857 159.98606817 142.79754516 147 140 C146.15598633 139.82839355 145.31197266 139.65678711 144.44238281 139.47998047 C115.54156383 133.52856044 88.10271371 122.1135258 64 105 C62.95199219 104.26394531 61.90398437 103.52789062 60.82421875 102.76953125 C30.88507727 80.99921513 8.03602531 52.91724272 -8.25 19.75 C-8.63317383 18.9883252 -9.01634766 18.22665039 -9.41113281 17.44189453 C-11.80023306 12.3804502 -12.56310427 8.60076824 -12 3 C-8.39055206 -1.48446562 -5.36203018 -1.65735478 0 0 Z " fill="#000000" transform="translate(68,329)"/>
<path d="M0 0 C0.84401367 0.17160645 1.68802734 0.34321289 2.55761719 0.52001953 C31.45843617 6.47143956 58.89728629 17.8864742 83 35 C84.04800781 35.73605469 85.09601563 36.47210938 86.17578125 37.23046875 C100.434613 47.59881131 113.72211049 59.39970394 124.73046875 73.18359375 C126.15709593 74.95398652 127.61429727 76.70059411 129.11328125 78.41015625 C139.67226688 90.59063144 147.7474675 104.88414791 154.8125 119.3125 C155.23909912 120.16505371 155.66569824 121.01760742 156.10522461 121.89599609 C158.60956624 127.2029528 159.64554738 131.12551888 159 137 C156.9375 139.5625 156.9375 139.5625 154 141 C150.4375 141.0625 150.4375 141.0625 147 140 C143.1337343 136.01075169 141.2120726 131.37662866 139 126.375 C131.28362978 109.61022844 121.08601335 94.89427403 109 81 C108.25000732 80.13036621 108.25000732 80.13036621 107.48486328 79.24316406 C74.96283367 41.82084841 27.09897465 18.88577714 -22 14 C-24.73846462 13.84409824 -27.47235346 13.79096778 -30.21484375 13.76171875 C-31.36166122 13.74702797 -31.36166122 13.74702797 -32.53164673 13.73204041 C-90.57256425 13.1424517 -141.58276727 32.25643081 -183.59375 72.58984375 C-188.15188762 77.07660394 -192.12200812 81.92098824 -196 87 C-196.7734375 87.94617188 -197.546875 88.89234375 -198.34375 89.8671875 C-208.53087251 102.53661518 -217.03600375 116.62064981 -223.32666016 131.62011719 C-225.18667621 135.90398323 -226.98303666 138.54971503 -231 141 C-234.46758942 140.94021398 -236.88826749 140.60965977 -239.9375 138.9375 C-241.69901403 135.72532735 -241.48612196 132.52863097 -241 129 C-239.73300493 125.23428053 -238.02634766 121.73690468 -236.25 118.1875 C-235.75483887 117.18066162 -235.25967773 116.17382324 -234.74951172 115.13647461 C-219.18274454 84.11297865 -196.07420492 57.36133226 -168 37 C-167.46133301 36.60490234 -166.92266602 36.20980469 -166.36767578 35.80273438 C-141.33425786 17.64254637 -112.23253001 5.95353784 -82 0 C-81.24058105 -0.16226074 -80.48116211 -0.32452148 -79.69873047 -0.49169922 C-54.65038543 -5.7238282 -24.98152488 -5.38168621 0 0 Z " fill="#000000" transform="translate(297,43)"/>
<path d="M0 0 C3.66245226 1.5765523 5.38378715 2.70950964 7.11669922 6.33862305 C8.21667066 9.53313941 9.15561644 12.74528575 10.0625 16 C10.62321116 17.90497385 11.18394388 19.80994141 11.74520874 21.7147522 C12.37204694 23.85678544 12.98797107 26.00173703 13.60205078 28.14746094 C15.17850842 33.64228067 16.80568231 39.12180536 18.43359375 44.6015625 C21.01454179 53.29447454 23.58369712 61.99072752 26.13450623 70.6925354 C26.48171471 71.87461075 26.48171471 71.87461075 26.8359375 73.08056641 C27.03751465 73.7680899 27.2390918 74.4556134 27.44677734 75.16397095 C27.93524476 76.78509106 28.46459073 78.39377219 29 80 C29.25642776 79.0965535 29.51285553 78.19310699 29.77705383 77.26228333 C32.19669497 68.74101837 34.62398417 60.22196462 37.05874348 51.7050066 C38.31017783 47.32647454 39.55892188 42.94721259 40.80151367 38.56616211 C42.00117932 34.33683593 43.20791652 30.10958633 44.41954613 25.88367271 C44.88015412 24.27249518 45.33822604 22.66059036 45.79369545 21.04795265 C46.43295816 18.78624659 47.08125702 16.52731392 47.73168945 14.26879883 C47.91726913 13.6041713 48.10284882 12.93954376 48.29405212 12.254776 C49.58712097 7.81318715 50.95153641 3.48337019 54.8125 0.6875 C59.11113749 -0.66350035 62.0239236 -0.40191381 66.1875 1.3125 C73.57845649 8.37496954 73.91453718 24.26358935 75.79296875 34.09765625 C76.14729488 35.94130026 76.50173313 37.78492272 76.85627747 39.62852478 C77.59472245 43.47482345 78.32956618 47.32179053 79.06225586 51.16918945 C79.99782154 56.0785925 80.9458468 60.98549924 81.89701366 65.89190006 C82.63168164 69.69214607 83.35793792 73.49396478 84.08190346 77.29626274 C84.4277705 79.10557478 84.77660139 80.91432305 85.12856102 82.72245979 C88.68339334 101.01990298 88.68339334 101.01990298 88 109 C85.9375 111.6875 85.9375 111.6875 83 113 C79.54424652 112.94041804 77.11033382 112.88839896 74.35595703 110.68457031 C72.81128445 108.76554964 72.40501815 107.51464913 71.9296875 105.109375 C71.75977295 104.27664063 71.5898584 103.44390625 71.41479492 102.5859375 C71.14759644 101.18214844 71.14759644 101.18214844 70.875 99.75 C70.67688721 98.75742187 70.47877441 97.76484375 70.2746582 96.7421875 C69.65810655 93.6254638 69.05502035 90.50639985 68.4574585 87.38598633 C67.93828373 84.67810376 67.41579342 81.97087094 66.89306641 79.26367188 C64.23963649 65.51336927 61.61150939 51.758322 59 38 C58.82318192 38.61370956 58.64636383 39.22741913 58.46418762 39.85972595 C56.59867459 46.33429862 54.73250006 52.80868037 52.8659668 59.28295898 C52.17244288 61.68883604 51.47907928 64.09475931 50.78588867 66.50073242 C50.45113525 67.66258057 50.11638184 68.82442871 49.77148438 70.02148438 C49.27381058 71.74934677 49.27381058 71.74934677 48.76608276 73.51211548 C48.10339642 75.80810904 47.43863191 78.10350384 46.77175903 80.39828491 C45.33396519 85.34742717 43.90885746 90.29652948 42.57177734 95.27392578 C42.25027962 96.44285118 42.25027962 96.44285118 41.92228699 97.63539124 C41.37359288 99.63635034 40.83974234 101.64136434 40.30737305 103.64672852 C38.73492161 107.6798976 36.9973116 109.8954438 34 113 C31.5 113.796875 31.5 113.796875 29 113.75 C27.7625 113.77320313 27.7625 113.77320313 26.5 113.796875 C22.86918026 112.63955121 21.07641116 110.05390754 19 107 C17.63945007 103.7348938 17.63945007 103.7348938 16.59643555 100.16845703 C16.400634 99.51409164 16.20483246 98.85972626 16.00309753 98.18553162 C15.3668935 96.04682885 14.7517201 93.90269839 14.13671875 91.7578125 C13.69675225 90.26385019 13.25547296 88.77027393 12.8129425 87.27706909 C11.65732875 83.36491373 10.51951554 79.44780166 9.38543701 75.52935791 C8.22282366 71.52421338 7.04330452 67.52405712 5.86523438 63.5234375 C3.56032747 55.68705275 1.27421774 47.84534582 -1 40 C-2.43579371 44.0548615 -3.46491037 47.98187629 -4.20507812 52.21728516 C-4.41869995 53.42518707 -4.63232178 54.63308899 -4.85241699 55.87759399 C-5.18843933 57.8137709 -5.18843933 57.8137709 -5.53125 59.7890625 C-5.7696503 61.13864092 -6.00863276 62.48811662 -6.24816895 63.8374939 C-7.26020239 69.54547651 -8.26048316 75.25550835 -9.25927734 80.96582031 C-9.87235397 84.46848636 -10.49148363 87.97004124 -11.11412048 91.47101974 C-11.46345117 93.44659591 -11.8055734 95.42344234 -12.14758301 97.40029907 C-12.36120483 98.60189667 -12.57482666 99.80349426 -12.79492188 101.04150391 C-12.97986206 102.09818268 -13.16480225 103.15486145 -13.35534668 104.24356079 C-14.14614538 107.62489534 -14.90609221 110.14918283 -17.6875 112.3125 C-21.10740423 113.32922829 -23.57109774 112.87281149 -27 112 C-28.9375 110.4375 -28.9375 110.4375 -30 108 C-30.26824963 101.99112076 -29.57798511 96.44669954 -28.51879883 90.54223633 C-28.36101959 89.63226395 -28.20324036 88.72229156 -28.04067993 87.78474426 C-27.5204773 84.79909938 -26.98966228 81.81548244 -26.45703125 78.83203125 C-26.08783009 76.74794628 -25.71866459 74.663855 -25.34953308 72.57975769 C-24.57551995 68.22220326 -23.79517416 63.8658318 -23.01147461 59.51000977 C-22.00914719 53.93130391 -21.03178627 48.34852881 -20.06023121 42.76439381 C-19.30745165 38.46314087 -18.53692433 34.16520574 -17.76148033 29.86798668 C-17.39333889 27.81068352 -17.03178134 25.7521908 -16.67698097 23.69254494 C-16.17939566 20.81450024 -15.65693814 17.94203617 -15.12817383 15.06958008 C-14.98718765 14.2211554 -14.84620148 13.37273071 -14.70094299 12.49859619 C-13.69824905 7.23984164 -12.33338906 4.47029333 -8 1 C-5.13391871 -0.43304064 -3.18699217 -0.30644155 0 0 Z " fill="#000000" transform="translate(131,199)"/>
<path d="M0 0 C0.8560936 -0.0038269 1.71218719 -0.00765381 2.59422302 -0.01159668 C4.40730971 -0.01431679 6.22043558 -0.0069486 8.03344727 0.00976562 C10.77517203 0.03099126 13.51422101 0.01006474 16.25585938 -0.015625 C30.64169646 -0.03893466 42.2067892 2.25295467 53.1484375 12.2734375 C64.27638285 24.01013259 67.79689613 39.30670365 67.62109375 55.03125 C67.63269531 56.06894531 67.64429688 57.10664063 67.65625 58.17578125 C67.59715774 73.99280952 62.53384731 87.91421361 51.5390625 99.40625 C42.27827003 107.98865393 31.57542419 110.6421662 19.1796875 110.76953125 C18.04491722 110.78163887 18.04491722 110.78163887 16.88722229 110.79399109 C15.2963383 110.80775116 13.7054258 110.818509 12.11450195 110.82641602 C10.49201776 110.8379854 8.86957306 110.85851478 7.24731445 110.88793945 C4.89117844 110.93060494 2.53616169 110.94677608 0.1796875 110.95703125 C-0.90174278 110.98329338 -0.90174278 110.98329338 -2.00502014 111.01008606 C-5.26743546 110.9960704 -7.54862132 110.63956152 -10.4447937 109.11149597 C-13.90691761 105.24285333 -13.44805061 101.80839391 -13.38500977 96.77734375 C-13.39216507 95.78832062 -13.39932037 94.79929749 -13.4066925 93.78030396 C-13.42360862 90.50931688 -13.40415902 87.23969468 -13.3828125 83.96875 C-13.38364092 81.69718309 -13.3860993 79.42561624 -13.39012146 77.15405273 C-13.39298147 72.39255741 -13.3782578 67.63153195 -13.35083008 62.87011719 C-13.31674753 56.76313558 -13.3227639 50.65699436 -13.34149265 44.54997253 C-13.35205523 39.85910016 -13.34313146 35.16842373 -13.32810783 30.47756958 C-13.32292014 28.22568341 -13.32341491 25.97377682 -13.32965279 23.72189331 C-13.33509584 20.57586582 -13.31475797 17.43104617 -13.28735352 14.28515625 C-13.29387939 13.3520462 -13.30040527 12.41893616 -13.30712891 11.45755005 C-13.21425494 5.19541167 -13.21425494 5.19541167 -10.9675293 1.95397949 C-7.51054446 -0.2678777 -3.97705451 -0.03928027 0 0 Z M3.24609375 16.53125 C3.24609375 42.27125 3.24609375 68.01125 3.24609375 94.53125 C23.19010423 95.6230714 23.19010423 95.6230714 39.49609375 88.40625 C48.40099146 79.09658421 51.833311 67.89874018 51.68359375 55.21875 C51.67529541 54.30448242 51.66699707 53.39021484 51.65844727 52.44824219 C51.37110621 40.8687045 48.77134259 30.79815796 40.24609375 22.53125 C28.59387862 13.470836 19.91146955 16.53125 3.24609375 16.53125 Z " fill="#000000" transform="translate(444.75390625,200.46875)"/>
<path d="M0 0 C1.45204582 -0.02409439 1.45204582 -0.02409439 2.9334259 -0.04867554 C7.36983692 -0.0929678 11.80609551 -0.13419556 16.24267578 -0.15722656 C18.58522472 -0.17379086 20.92772303 -0.20108681 23.27001953 -0.23925781 C26.63950951 -0.2939226 30.00781232 -0.31588588 33.37768555 -0.33056641 C34.42571854 -0.35323578 35.47375153 -0.37590515 36.55354309 -0.39926147 C43.8029699 -0.37812449 43.8029699 -0.37812449 47.11279297 2.53417969 C48.74680191 5.77836516 49.06202938 7.60838625 48.4519043 11.19287109 C46.21983999 14.04067728 44.90197431 15.04284776 41.4519043 16.19287109 C38.86560205 16.27768882 36.30712373 16.30885338 33.72143555 16.29052734 C32.97101486 16.2891124 32.22059418 16.28769745 31.44743347 16.28623962 C29.05304969 16.28064669 26.65875977 16.26809553 24.2644043 16.25537109 C22.64005669 16.25035518 21.01570762 16.24579243 19.39135742 16.24169922 C15.41147455 16.23153089 11.43179436 16.21195421 7.4519043 16.19287109 C7.4519043 26.75287109 7.4519043 37.31287109 7.4519043 48.19287109 C9.77608398 48.13486328 12.10026367 48.07685547 14.49487305 48.01708984 C16.75533641 47.97805406 19.0157617 47.94771855 21.27636719 47.91821289 C22.84294544 47.89312563 24.40940729 47.85904694 25.97558594 47.81567383 C28.23230739 47.75475883 30.48747723 47.72660611 32.74487305 47.70458984 C33.44090134 47.67878342 34.13692963 47.65297699 34.85404968 47.62638855 C38.72837625 47.62417267 40.32852087 48.09505259 43.40234375 50.53198242 C45.4519043 53.19287109 45.4519043 53.19287109 45.9519043 56.25537109 C45.40445622 59.47162856 44.7443352 60.90044019 42.4519043 63.19287109 C38.94597665 64.36151364 35.80416409 64.31813119 32.15893555 64.29052734 C30.86705322 64.28802979 29.5751709 64.28553223 28.24414062 64.28295898 C26.60082764 64.27385498 24.95751465 64.26475098 23.2644043 64.25537109 C15.4372168 64.22443359 15.4372168 64.22443359 7.4519043 64.19287109 C7.4519043 74.75287109 7.4519043 85.31287109 7.4519043 96.19287109 C11.26301758 96.10585938 11.26301758 96.10585938 15.15112305 96.01708984 C17.62008546 95.97806269 20.08901312 95.94772207 22.55810547 95.91821289 C24.27017674 95.89311395 25.98214134 95.8590268 27.69384766 95.81567383 C30.15904075 95.7548137 32.62281415 95.72661677 35.08862305 95.70458984 C36.23109749 95.6658802 36.23109749 95.6658802 37.39665222 95.62638855 C41.42262963 95.62427792 43.23059301 96.01907808 46.43554688 98.53588867 C48.4519043 101.19287109 48.4519043 101.19287109 49.0769043 104.19287109 C48.20440657 108.38086021 46.87378511 109.61783962 43.4519043 112.19287109 C39.90834253 112.92431659 36.43075119 112.87010686 32.82299805 112.82177734 C31.79634537 112.8241893 30.76969269 112.82660126 29.71192932 112.8290863 C27.54586923 112.82810851 25.37978395 112.8147312 23.21386719 112.78979492 C19.89716869 112.75545149 16.58312958 112.76914913 13.26635742 112.78857422 C11.16022628 112.78167668 9.05410202 112.77200514 6.94799805 112.75927734 C5.95626083 112.76423721 4.96452362 112.76919708 3.94273376 112.77430725 C-2.91829954 112.65678477 -2.91829954 112.65678477 -6.14160156 110.2824707 C-8.12617152 107.33403566 -8.67421558 105.69997997 -8.6885376 102.18962097 C-8.69424774 101.35268204 -8.69995789 100.5157431 -8.70584106 99.65344238 C-8.70695892 98.73341431 -8.70807678 97.81338623 -8.70922852 96.86547852 C-8.71419342 95.89786087 -8.71915833 94.93024323 -8.72427368 93.93330383 C-8.73891821 90.72164202 -8.74570133 87.51002961 -8.7512207 84.29833984 C-8.75697053 82.07115171 -8.76272828 79.8439636 -8.76849365 77.61677551 C-8.77901034 72.94186166 -8.78484855 68.26696504 -8.78833008 63.59204102 C-8.7938144 57.59960999 -8.81783844 51.60740624 -8.84630203 45.6150465 C-8.86491997 41.01255121 -8.87013358 36.41011072 -8.87166595 31.80758095 C-8.87469521 29.59836905 -8.88273288 27.38915817 -8.89585114 25.17998314 C-8.91289276 22.0892951 -8.91103576 18.99916314 -8.90454102 15.90844727 C-8.9137558 14.99449188 -8.92297058 14.0805365 -8.9324646 13.1388855 C-8.88616989 6.11134033 -7.90306483 0.11870749 0 0 Z " fill="#000000" transform="translate(364.548095703125,199.80712890625)"/>
<path d="M0 0 C1.16485931 -0.0159874 2.32971863 -0.03197479 3.52987671 -0.04844666 C4.78926056 -0.05380936 6.04864441 -0.05917206 7.34619141 -0.06469727 C8.63965485 -0.07372574 9.93311829 -0.08275421 11.26577759 -0.09205627 C14.00452162 -0.10854167 16.74314349 -0.11624545 19.48193359 -0.11914062 C22.98498215 -0.12452259 26.48687646 -0.1621937 29.98959923 -0.20788479 C33.33762474 -0.24485116 36.68546873 -0.24617121 40.03369141 -0.25219727 C41.28902679 -0.27172958 42.54436218 -0.2912619 43.83773804 -0.31138611 C53.52219954 -0.26112881 53.52219954 -0.26112881 56.61816406 2.61865234 C58.86185238 6.15643016 58.99600911 8.19205911 58.32275391 12.30639648 C56.26262813 14.96665102 55.10933603 16.16716516 51.75732422 16.76049805 C50.81469727 16.73955078 49.87207031 16.71860352 48.90087891 16.69702148 C47.36367188 16.67768555 47.36367188 16.67768555 45.79541016 16.65795898 C44.20019531 16.60768555 44.20019531 16.60768555 42.57275391 16.55639648 C41.49380859 16.53834961 40.41486328 16.52030273 39.30322266 16.50170898 C36.64216603 16.45461064 33.98291136 16.38885249 31.32275391 16.30639648 C31.33163635 17.46262512 31.3405188 18.61885376 31.34967041 19.81011963 C31.43070614 30.69876599 31.49069528 41.58735129 31.53000259 52.47623062 C31.55089018 58.0745321 31.57922955 63.67259043 31.62451172 69.27075195 C31.66792717 74.67184595 31.69188218 80.07270587 31.70226288 85.47396088 C31.70966195 87.53609656 31.72411038 89.59821922 31.74567413 91.66025543 C31.77465069 94.54551525 31.77871229 97.42980398 31.77685547 100.31518555 C31.79123657 101.17042313 31.80561768 102.02566071 31.82043457 102.90681458 C31.78001453 108.69942828 31.78001453 108.69942828 29.41937256 111.83294678 C27.16589052 113.41663604 26.05062978 113.87422437 23.32275391 113.86889648 C22.33275391 113.90176758 22.33275391 113.90176758 21.32275391 113.93530273 C18.08567132 112.917392 17.11220395 111.14938991 15.32275391 108.30639648 C14.75930918 105.29762938 14.81652124 102.34674068 14.86865234 99.29345703 C14.86806824 98.39539841 14.86748413 97.49733978 14.86688232 96.57206726 C14.86966278 93.61201955 14.9007531 90.65298642 14.93212891 87.69311523 C14.93959143 85.63760427 14.94528431 83.58208618 14.94927979 81.52656555 C14.96453516 76.12263262 15.00381646 70.71913132 15.0480957 65.31536865 C15.08905029 59.79876545 15.10729122 54.28209234 15.12744141 48.76538086 C15.17031055 37.94553 15.23856098 27.12599917 15.32275391 16.30639648 C14.67725586 16.32734375 14.03175781 16.34829102 13.36669922 16.36987305 C10.43554323 16.45313854 7.50463614 16.50508855 4.57275391 16.55639648 C3.55697266 16.58991211 2.54119141 16.62342773 1.49462891 16.65795898 C-6.03761455 16.75706745 -6.03761455 16.75706745 -9.32177734 14.44311523 C-10.93357551 11.90232677 -11.60352443 10.32898465 -11.67724609 7.30639648 C-9.01292913 1.57811501 -6.16680472 0.06392681 0 0 Z " fill="#000000" transform="translate(280.67724609375,198.693603515625)"/>
<path d="M0 0 C1.68838978 1.31300831 1.68838978 1.31300831 3 3 C3.28082304 6.05867042 3.37856838 8.91137553 3.34057617 11.96948242 C3.34101425 12.88675613 3.34145233 13.80402985 3.34190369 14.74909973 C3.33981158 17.78477166 3.31646051 20.81989315 3.29296875 23.85546875 C3.2873743 25.95868122 3.28310349 28.06189759 3.28010559 30.16511536 C3.26864497 35.70379407 3.23916719 41.2422372 3.20599365 46.78082275 C3.17531907 52.43132337 3.16160584 58.08186201 3.14648438 63.73242188 C3.11429876 74.82171816 3.0630876 85.9108395 3 97 C4.44571632 96.8946418 4.44571632 96.8946418 5.92063904 96.78715515 C7.18360306 96.69585831 8.44656708 96.60456146 9.74780273 96.51049805 C11.00036362 96.41963425 12.2529245 96.32877045 13.54344177 96.2351532 C17.06119705 95.9958367 20.53763387 95.83524107 24.0625 95.8125 C25.08472656 95.79832031 26.10695312 95.78414063 27.16015625 95.76953125 C30.18029941 96.01463228 32.2995258 96.64271819 35 98 C37.41957143 100.90348571 38.02693963 102.32650931 37.875 106.125 C36.96018336 109.13082612 36.4112455 110.09691142 34 112 C32.07167053 112.38095093 32.07167053 112.38095093 29.86743164 112.38818359 C28.62583031 112.40236832 28.62583031 112.40236832 27.35914612 112.4168396 C26.02314613 112.40773056 26.02314613 112.40773056 24.66015625 112.3984375 C23.28240273 112.40274277 23.28240273 112.40274277 21.8768158 112.40713501 C19.93422835 112.40917651 17.99162039 112.40364067 16.04907227 112.39111328 C13.07716788 112.37507914 10.10662728 112.39094959 7.13476562 112.41015625 C5.24739283 112.40817347 3.36002089 112.40432909 1.47265625 112.3984375 C0.58401382 112.40451019 -0.3046286 112.41058289 -1.22019958 112.4168396 C-2.05108597 112.40738312 -2.88197235 112.39792664 -3.73803711 112.38818359 C-4.83032875 112.38460342 -4.83032875 112.38460342 -5.94468689 112.38095093 C-8.66445777 111.87684319 -9.96992977 110.86462967 -12 109 C-12.50615788 106.98658848 -12.50615788 106.98658848 -12.5146637 104.64198303 C-12.52738815 103.75173935 -12.54011261 102.86149567 -12.55322266 101.9442749 C-12.54669678 100.97016663 -12.5401709 99.99605835 -12.53344727 98.99243164 C-12.54206284 97.96454025 -12.55067841 96.93664886 -12.55955505 95.87760925 C-12.58230302 92.4715372 -12.57545943 89.06628205 -12.56640625 85.66015625 C-12.57163811 83.29747776 -12.57791297 80.93480137 -12.58518982 78.5721283 C-12.59561055 73.61642643 -12.59100867 68.6610114 -12.57641602 63.70532227 C-12.55923119 57.34825999 -12.58271204 50.99210177 -12.61790562 44.63514042 C-12.63984592 39.75469449 -12.63844613 34.87446595 -12.6301403 29.99398613 C-12.62931884 27.64997809 -12.63621922 25.3059544 -12.65091133 22.96199226 C-12.66829303 19.68641421 -12.65386603 16.41247441 -12.63110352 13.13696289 C-12.64279572 12.16487885 -12.65448792 11.1927948 -12.66653442 10.19125366 C-12.57391347 3.65445529 -12.57391347 3.65445529 -9.68711853 0.36253357 C-6.01816109 -1.49785242 -3.91302127 -1.08695035 0 0 Z " fill="#000000" transform="translate(12,200)"/>
<path d="M0 0 C2.11760816 1.78773181 2.90058685 3.26985983 3.27447319 6.01586914 C3.39994482 8.66089311 3.41657667 11.28948562 3.40405273 13.9375 C3.41091599 14.94603027 3.41777924 15.95456055 3.42485046 16.99365234 C3.44316049 20.32924453 3.43927521 23.66436832 3.43359375 27 C3.43815319 29.31640781 3.44345805 31.63281427 3.44947815 33.94921875 C3.45841729 38.8047434 3.45597651 43.66010363 3.44604492 48.515625 C3.43454852 54.74362181 3.45477347 60.97105222 3.48396206 67.19897461 C3.50229014 71.98245865 3.50203844 76.76580608 3.49632454 81.54931641 C3.49617094 83.84587397 3.50224693 86.14244058 3.51461601 88.43896484 C3.52946147 91.64717371 3.5188961 94.85432469 3.50170898 98.0625 C3.51137695 99.01431152 3.52104492 99.96612305 3.53100586 100.94677734 C3.45870985 107.37782738 3.45870985 107.37782738 1.09364319 110.58569336 C-1.15351206 112.10370111 -2.31025667 112.5677534 -5 112.5625 C-5.99 112.59537109 -5.99 112.59537109 -7 112.62890625 C-10.27196252 111.60002741 -11.20845752 109.89745627 -13 107 C-13.58641583 103.68049839 -13.53634688 100.40448983 -13.50170898 97.04077148 C-13.50711197 96.04184875 -13.51251495 95.04292603 -13.51808167 94.01373291 C-13.53057657 90.71588403 -13.51407341 87.41890674 -13.49609375 84.12109375 C-13.49624871 81.82853652 -13.49773714 79.53597903 -13.50050354 77.24342346 C-13.50188784 72.44089159 -13.48932292 67.63865826 -13.46655273 62.83618164 C-13.43815234 56.67665545 -13.44090952 50.51762474 -13.45364285 44.35806179 C-13.46059316 39.62518573 -13.45281835 34.89242447 -13.44038582 30.15956306 C-13.43586617 27.88813784 -13.43553898 25.61670032 -13.43945122 23.34527397 C-13.44235743 20.17320299 -13.42588463 17.00181831 -13.40405273 13.82983398 C-13.40855438 12.88894424 -13.41305603 11.9480545 -13.41769409 10.97865295 C-13.34532236 4.65872828 -13.34532236 4.65872828 -11.6622467 1.44813538 C-7.96103925 -1.77632549 -4.50484058 -1.04576656 0 0 Z " fill="#000000" transform="translate(250,200)"/>
<path d="M0 0 C4.16632171 0.86798369 5.42297857 2.2402487 8 5.625 C8.732127 8.97477438 8.67324876 12.25812256 8.63110352 15.67602539 C8.63825882 16.68470169 8.64541412 17.69337799 8.65278625 18.73262024 C8.66968001 22.06309444 8.65026701 25.39222404 8.62890625 28.72265625 C8.62973481 31.03763439 8.63219372 33.35261248 8.63621521 35.66758728 C8.63907361 40.51725998 8.62436603 45.36647094 8.59692383 50.21606445 C8.56282258 56.4362336 8.56886553 62.65557802 8.5875864 68.87578678 C8.59814758 73.65501292 8.58922679 78.43404668 8.57420158 83.21325493 C8.56901415 85.50700751 8.56950834 87.80078014 8.57574654 90.09453011 C8.58118863 93.29791709 8.56085533 96.50011733 8.53344727 99.70336914 C8.53997314 100.65360962 8.54649902 101.6038501 8.55322266 102.58288574 C8.4596919 109.0023824 8.4596919 109.0023824 6.09165955 112.20970154 C3.84545699 113.72956983 2.68997983 114.19275387 0 114.1875 C-0.99 114.22037109 -0.99 114.22037109 -2 114.25390625 C-5.27048886 113.22549081 -6.20756422 111.51995613 -8 108.625 C-8.5951134 105.31203185 -8.55683395 102.04060719 -8.53344727 98.68164062 C-8.54206284 97.68432419 -8.55067841 96.68700775 -8.55955505 95.6594696 C-8.5822374 92.36646492 -8.5754721 89.07430961 -8.56640625 85.78125 C-8.57164055 83.49108629 -8.57791632 81.20092474 -8.58518982 78.9107666 C-8.59559806 74.11244559 -8.59102584 69.31442106 -8.57641602 64.51611328 C-8.55922206 58.36546065 -8.58272974 52.21574163 -8.61790562 46.06519318 C-8.63985876 41.33654585 -8.6384432 36.60812266 -8.6301403 31.87944031 C-8.62931976 29.61161779 -8.63620272 27.34377899 -8.65091133 25.07600403 C-8.66831932 21.90620394 -8.65384494 18.73809136 -8.63110352 15.56835938 C-8.64279572 14.63106491 -8.65448792 13.69377045 -8.66653442 12.72807312 C-8.60044811 8.20372483 -8.46896848 6.23961807 -5.64805603 2.54260254 C-3 0.625 -3 0.625 0 0 Z " fill="#000000" transform="translate(74,198.375)"/>
<path d="M0 0 C2.24365364 2.01928828 3.41605964 3.49635234 5 6 C5.92232422 7.39798828 5.92232422 7.39798828 6.86328125 8.82421875 C13.24608421 19.01879581 13.24608421 19.01879581 12 25 C10.9375 27.375 10.9375 27.375 9 29 C5.79521636 29.81576311 3.29640996 30.36740363 0.0703125 29.453125 C-3.08798464 27.23635795 -4.76166557 24.13654496 -6.6875 20.875 C-7.09033203 20.235625 -7.49316406 19.59625 -7.90820312 18.9375 C-10.71643882 14.25240326 -11.84349246 10.48356064 -12 5 C-8.73759908 0.10639861 -5.76925042 -1.13324562 0 0 Z " fill="#000000" transform="translate(340,387)"/>
<path d="M0 0 C3.625 0.5 3.625 0.5 6.625 2.5 C8.88291698 5.88687548 8.80045693 7.39788173 8.18603516 11.32910156 C7.21957998 15.06875318 5.35750162 18.12917343 3.3125 21.375 C2.92126953 22.03757812 2.53003906 22.70015625 2.12695312 23.3828125 C-1.57445588 29.42292272 -1.57445588 29.42292272 -5.375 30.5 C-9.05560775 30.37085587 -11.4466765 30.27859391 -14.3125 27.875 C-15.81698779 24.51202728 -15.69698327 22.17659971 -15.375 18.5 C-14.22279295 15.7241485 -12.69095881 13.26969286 -11.0625 10.75 C-10.65837891 10.09128906 -10.25425781 9.43257813 -9.83789062 8.75390625 C-4.82351258 0.71459446 -4.82351258 0.71459446 0 0 Z " fill="#000000" transform="translate(175.375,386.5)"/>
<path d="M0 0 C3.73965162 0.96645518 6.80007187 2.82853354 10.04589844 4.87353516 C10.70847656 5.26476562 11.37105469 5.65599609 12.05371094 6.05908203 C18.09382116 9.76049104 18.09382116 9.76049104 19.17089844 13.56103516 C19.04175431 17.24164291 18.94949234 19.63271165 16.54589844 22.49853516 C13.18292572 24.00302295 10.84749815 23.88301843 7.17089844 23.56103516 C4.39504694 22.4088281 1.9405913 20.87699397 -0.57910156 19.24853516 C-1.2378125 18.84441406 -1.89652344 18.44029297 -2.57519531 18.02392578 C-8.4916323 14.33365322 -8.4916323 14.33365322 -10.82910156 11.56103516 C-11.47439053 7.2053346 -11.28975797 5.25201977 -8.82910156 1.56103516 C-5.44222609 -0.69688183 -3.93121983 -0.61442177 0 0 Z " fill="#000000" transform="translate(397.8291015625,328.43896484375)"/>
<path d="M0 0 C2.76913845 2.32250322 2.97632892 3.85534341 3.5625 7.4375 C3 11 3 11 0.75 13.5 C-0.47483687 14.36989602 -1.73042705 15.19680079 -3 16 C-4.39798828 16.92232422 -4.39798828 16.92232422 -5.82421875 17.86328125 C-16.01879581 24.24608421 -16.01879581 24.24608421 -22 23 C-24.375 21.9375 -24.375 21.9375 -26 20 C-26.81458694 16.79983702 -27.35465022 14.29775709 -26.47265625 11.0703125 C-24.17100416 7.83456818 -20.96909583 6.25775274 -17.5625 4.3125 C-16.88123047 3.90966797 -16.19996094 3.50683594 -15.49804688 3.09179688 C-9.77296342 -0.25577886 -6.57563943 -1.52648773 0 0 Z " fill="#000000" transform="translate(122,329)"/>
<path d="M0 0 C2.375 1.0625 2.375 1.0625 4 3 C4.81576311 6.20478364 5.36740363 8.70359004 4.453125 11.9296875 C2.23635795 15.08798464 -0.86345504 16.76166557 -4.125 18.6875 C-4.764375 19.09033203 -5.40375 19.49316406 -6.0625 19.90820312 C-10.74759674 22.71643882 -14.51643936 23.84349246 -20 24 C-23 22 -23 22 -25 19 C-25.6875 15.5 -25.6875 15.5 -25 12 C-22.98071172 9.75634636 -21.50364766 8.58394036 -19 7 C-18.06800781 6.38511719 -17.13601563 5.77023438 -16.17578125 5.13671875 C-5.98120419 -1.24608421 -5.98120419 -1.24608421 0 0 Z " fill="#000000" transform="translate(412,160)"/>
<path d="M0 0 C2.7758515 1.15220705 5.23030714 2.68404119 7.75 4.3125 C8.40871094 4.71662109 9.06742188 5.12074219 9.74609375 5.53710938 C15.66253074 9.22738194 15.66253074 9.22738194 18 12 C18.64528897 16.35570056 18.46065641 18.30901539 16 22 C12.61312452 24.25791698 11.10211827 24.17545693 7.17089844 23.56103516 C3.43124682 22.59457998 0.37082657 20.73250162 -2.875 18.6875 C-3.53757812 18.29626953 -4.20015625 17.90503906 -4.8828125 17.50195312 C-10.92292272 13.80054412 -10.92292272 13.80054412 -12 10 C-11.87085587 6.31939225 -11.77859391 3.9283235 -9.375 1.0625 C-6.01202728 -0.44198779 -3.67659971 -0.32198327 0 0 Z " fill="#000000" transform="translate(107,160)"/>
<path d="M0 0 C2.7118224 2.27443169 2.96277983 3.6453137 3.33203125 7.1640625 C2.91698131 11.95911004 1.29914819 14.76246099 -1.25 18.75 C-1.64574219 19.40871094 -2.04148437 20.06742188 -2.44921875 20.74609375 C-4.56467571 24.16550452 -6.42841844 26.95909625 -10 29 C-14.04537506 29.68857448 -15.52059062 29.32640639 -18.9375 27 C-21.27046638 23.60659436 -21.18724447 22.14312371 -20.56323242 18.17089844 C-19.59326431 14.43229574 -17.73254371 11.37089338 -15.6875 8.125 C-15.29626953 7.46242188 -14.90503906 6.79984375 -14.50195312 6.1171875 C-10.44951239 -0.49575062 -7.60177953 -1.93499843 0 0 Z " fill="#000000" transform="translate(349,96)"/>
<path d="M0 0 C5.77260955 4.97916322 10.77250807 12.90659453 12.25 20.4375 C12 24 12 24 9.9375 27 C6.49101258 29.34654463 5.0786507 29.76474701 1 29 C-3.32268839 26.1228633 -5.80285695 22.6400925 -8.3125 18.1875 C-8.67150391 17.59646484 -9.03050781 17.00542969 -9.40039062 16.39648438 C-11.85299 12.11261081 -12.47793415 8.89285088 -12 4 C-9.08380473 -1.27692477 -5.54803934 -1.4719288 0 0 Z " fill="#000000" transform="translate(172,96)"/>
<path d="M0 0 C2.1640625 1.3671875 2.1640625 1.3671875 4 4 C4.60478994 7.65229785 4.55753119 11.24351825 4.5 14.9375 C4.51546875 15.92685547 4.5309375 16.91621094 4.546875 17.93554688 C4.52299424 22.37438315 4.43077131 25.23764814 2.21875 29.15234375 C-0.10427708 31.08683637 -1.02239295 31.68315639 -4 31.625 C-4.99 31.64433594 -4.99 31.64433594 -6 31.6640625 C-9.35296279 30.55077407 -10.26387156 29.07249047 -12 26 C-12.58196676 22.30121123 -12.55843176 18.67469796 -12.5 14.9375 C-12.51546875 13.94427734 -12.5309375 12.95105469 -12.546875 11.92773438 C-12.5079291 4.69840252 -12.5079291 4.69840252 -10.09375 1.37890625 C-6.25618414 -1.14844589 -4.50841904 -1.17218895 0 0 Z " fill="#000000" transform="translate(260,409)"/>
<path d="M0 0 C0.66 -0.01289062 1.32 -0.02578125 2 -0.0390625 C5.35296279 1.07422593 6.26387156 2.55250953 8 5.625 C8.58196676 9.32378877 8.55843176 12.95030204 8.5 16.6875 C8.51546875 17.68072266 8.5309375 18.67394531 8.546875 19.69726562 C8.50805517 26.90319646 8.50805517 26.90319646 6.15234375 30.25 C3.32279401 32.05762524 1.36102694 32.55640761 -2 32.625 C-6.56521739 30.49456522 -6.56521739 30.49456522 -8 27.625 C-8.29382599 24.02735402 -8.27796031 20.42074606 -8.3125 16.8125 C-8.34150391 15.81412109 -8.37050781 14.81574219 -8.40039062 13.78710938 C-8.4392032 9.30575031 -8.45089264 6.43023652 -6.23046875 2.46484375 C-3.90082998 0.54319776 -2.97468326 -0.05809928 0 0 Z " fill="#000000" transform="translate(256,71.375)"/>
</svg>
