<?xml version="1.0" encoding="UTF-8"?>
<svg version="1.1" xmlns="http://www.w3.org/2000/svg" width="512" height="512">
<path d="M0 0 C0.99 0.4228125 1.98 0.845625 3 1.28125 C18.53667635 8.87303503 29.7315088 23.14907525 36 39 C39 49.06690141 39 49.06690141 39 54 C39.5661565 53.99631283 40.132313 53.99262566 40.71562576 53.98882675 C54.53943058 53.90019927 68.3631851 53.83441269 82.1872139 53.79275131 C88.87264265 53.77219182 95.55785284 53.74369264 102.24316406 53.69824219 C108.70115926 53.65461452 115.15895707 53.63082696 121.61708832 53.62049103 C124.07452244 53.61313004 126.53194641 53.59875608 128.98929596 53.57707977 C132.44524543 53.54782163 135.90039089 53.54405344 139.35644531 53.54589844 C140.86265442 53.52432678 140.86265442 53.52432678 142.39929199 53.50231934 C153.14744667 53.5639541 162.56929421 56.61464961 170.73828125 63.65234375 C177.9263453 71.1135294 182.24495939 79.46248022 182.25726891 89.87921524 C182.26077498 90.55004995 182.26428105 91.22088465 182.26789337 91.91204768 C182.27719125 94.15810276 182.2722883 96.40389763 182.26742554 98.64996338 C182.27116262 100.27731307 182.27576437 101.90466097 182.28115618 103.53200603 C182.29339454 108.00278603 182.29312473 112.47349126 182.29076743 116.9442842 C182.29035947 121.76651269 182.30139641 126.58871714 182.31088257 131.41093445 C182.32749829 140.85838277 182.33299238 150.30580614 182.33410732 159.75326785 C182.33505756 167.4327725 182.33916662 175.1122689 182.34550858 182.79177094 C182.3631228 204.56399331 182.3723472 226.33619597 182.37084763 248.10842553 C182.37072776 249.86919093 182.37072776 249.86919093 182.37060547 251.66552734 C182.37052371 252.84080407 182.37044195 254.01608079 182.37035771 255.22697195 C182.36954483 274.27348904 182.38868252 293.31992704 182.4168822 312.36642125 C182.44560813 331.92265974 182.45942265 351.47885965 182.45769465 371.03511977 C182.45703063 382.01468097 182.46252805 392.99415928 182.48405075 403.97370148 C182.50225873 413.32221544 182.50661303 422.67060893 182.4930319 432.01913294 C182.48650026 436.78797534 182.4863922 441.55658659 182.5037384 446.32540703 C182.51946546 450.69406414 182.51660926 455.06230673 182.49917014 459.43095371 C182.49609943 461.00833266 182.49973534 462.58574252 182.51089029 464.16308501 C182.59732913 477.2567225 180.6426686 486.11751246 171.4296875 495.73828125 C163.51261751 503.10802969 154.90911347 507.48520116 143.97167492 507.38031673 C143.20090645 507.38497665 142.43013797 507.38963657 141.63601288 507.3944377 C139.06195047 507.40635656 136.48841893 507.39700443 133.91435242 507.38768005 C132.04674977 507.39185434 130.17914966 507.39733238 128.31155425 507.40399987 C123.18590227 507.41846088 118.060411 507.41420764 112.9347502 507.40683305 C107.40427935 507.40210529 101.87384346 507.41460783 96.34338379 507.42485046 C85.51087567 507.44205189 74.67842552 507.44287562 63.84590729 507.43763756 C55.04088444 507.43359687 46.23587873 507.43503823 37.4308567 507.44038582 C35.55138855 507.44150845 35.55138855 507.44150845 33.63395134 507.44265376 C31.08854565 507.44418524 28.54313997 507.44572358 25.99773429 507.44726873 C8.90558327 507.45709849 -8.18656195 507.46126025 -25.27871418 507.45364285 C-26.28105943 507.45319709 -26.28105943 507.45319709 -27.30365408 507.45274232 C-32.7299504 507.45029345 -38.15624665 507.44768183 -43.5825429 507.44505819 C-64.74410497 507.43495781 -85.90558767 507.44330768 -107.06713867 507.46655273 C-130.85092019 507.49263602 -154.63466043 507.50542077 -178.41846055 507.49836498 C-191.0082449 507.49487138 -203.59796409 507.49711415 -216.18773842 507.51461601 C-226.90603197 507.52933134 -237.62421449 507.52998218 -248.34250585 507.5125451 C-253.81018819 507.504027 -259.27767212 507.50190548 -264.74534416 507.51719666 C-269.75359179 507.53102946 -274.76147075 507.52629844 -279.76969697 507.50695742 C-281.57852342 507.50319279 -283.38737929 507.5061327 -285.19617955 507.51656907 C-298.95147983 507.59027129 -309.51191725 506.3650515 -319.76953125 496.43359375 C-326.78448017 488.77980535 -330.24276525 481.5605951 -330.26006222 471.00332355 C-330.26386789 470.3319342 -330.26767356 469.66054484 -330.27159455 468.96881035 C-330.2818725 466.72687432 -330.27801127 464.48519327 -330.27415466 462.24324036 C-330.27860913 460.61645264 -330.28392386 458.98966708 -330.29002339 457.3628847 C-330.30418873 452.89822909 -330.30586696 448.43364314 -330.30542648 443.96896827 C-330.30707597 439.15148792 -330.32014495 434.33403616 -330.33161926 429.51657104 C-330.35445783 418.98552435 -330.36238859 408.45449783 -330.36744571 397.92342973 C-330.37070394 391.34602639 -330.37722717 384.7686289 -330.3844471 378.19122887 C-330.40401123 359.97482523 -330.42041664 341.75842703 -330.42332363 323.54201221 C-330.4235112 322.37657036 -330.42369877 321.21112851 -330.42389202 320.01037024 C-330.42425827 317.64781106 -330.42462197 315.28525187 -330.42498314 312.92269269 C-330.42516595 311.74993994 -330.42534876 310.5771872 -330.42553711 309.36889648 C-330.42580793 307.60761659 -330.42580793 307.60761659 -330.42608423 305.81075528 C-330.42962582 286.78503565 -330.45664818 267.75942921 -330.494035 248.73374883 C-330.53212567 229.19328878 -330.55148116 209.65288488 -330.55178314 190.11238688 C-330.55236753 179.14393244 -330.5608474 168.17561304 -330.58978081 157.20719337 C-330.61430476 147.86752752 -330.62157064 138.52804597 -330.60653328 129.18835662 C-330.5993687 124.42528471 -330.60020249 119.66257668 -330.62294388 114.89954567 C-330.64358811 110.53383308 -330.64088299 106.16876285 -330.62006903 101.8030568 C-330.61658454 100.22903387 -330.62143987 98.65496409 -330.63577347 97.08100257 C-330.74706897 84.01081115 -328.4188644 73.53716264 -319.09765625 63.90234375 C-307.35672519 53.25460925 -294.03263352 53.57135323 -279.04638672 53.65942383 C-277.02523308 53.66027097 -275.00407852 53.65979325 -272.98292542 53.65809631 C-267.51873412 53.65723836 -262.05474187 53.67483182 -256.59059668 53.69581819 C-250.871779 53.7146183 -245.15295636 53.71633806 -239.43411255 53.71989441 C-228.61482374 53.72920508 -217.79562626 53.75380565 -206.97637761 53.78394288 C-194.65474851 53.81751732 -182.33311496 53.83398056 -170.01145148 53.84902918 C-144.67425042 53.88035605 -119.33713034 53.93309753 -94 54 C-93.9087812 52.97755188 -93.9087812 52.97755188 -93.8157196 51.93444824 C-93.68977165 50.58921082 -93.68977165 50.58921082 -93.5612793 49.21679688 C-93.47984177 48.32891479 -93.39840424 47.44103271 -93.3144989 46.52624512 C-91.48308313 31.81520756 -81.21430983 17.61357253 -69.953125 8.546875 C-49.60548488 -6.51610348 -23.38821111 -9.99314475 0 0 Z M-67.875 29.3125 C-78.47159851 44.18400989 -80.67005786 58.69881674 -77.875 76.4375 C-72.80861059 105.71272991 -61.14897095 137.92705959 -42 161 C-41.3090625 161.84046875 -40.618125 162.6809375 -39.90625 163.546875 C-35.18215573 169.18627125 -35.18215573 169.18627125 -29 173 C-20.67887696 171.45786137 -15.30657629 164.03429375 -10.5625 157.5 C-9.3527904 155.68124492 -8.16797239 153.84583528 -7 152 C-6.62762207 151.41782715 -6.25524414 150.8356543 -5.87158203 150.23583984 C11.66490776 122.56338618 27.58147322 84.15835915 22.50390625 50.734375 C21.82813816 48.06184582 21.00847601 45.56441043 20 43 C19.54173828 41.77990234 19.54173828 41.77990234 19.07421875 40.53515625 C13.79071688 28.37349559 3.84927194 19.51353878 -8 14 C-9.12728516 13.46246094 -9.12728516 13.46246094 -10.27734375 12.9140625 C-30.62749095 5.1173453 -54.37083263 13.0306702 -67.875 29.3125 Z M-300 71 C-298.61714569 74.11111485 -297.02338459 76.22282278 -294.61521912 78.61856079 C-293.91554016 79.31954391 -293.21586121 80.02052704 -292.49497986 80.74275208 C-291.72763016 81.50134018 -290.96028046 82.25992828 -290.16967773 83.04150391 C-289.36144562 83.84842178 -288.5532135 84.65533966 -287.7204895 85.48670959 C-285.0460876 88.15461666 -282.36478826 90.81548348 -279.68359375 93.4765625 C-277.82746071 95.32642662 -275.9718409 97.17680584 -274.11671448 99.02767944 C-269.73017597 103.40284581 -265.33898813 107.77331134 -260.94574839 112.14174783 C-252.60713149 120.43337253 -244.27562259 128.73212044 -235.94810677 137.03489304 C-233.20665016 139.76609236 -230.46182429 142.49387242 -227.71665955 145.22134399 C-226.0446351 146.88654341 -224.37271854 148.55185117 -222.70092773 150.21728516 C-221.9315538 150.97992172 -221.16217987 151.74255829 -220.36949158 152.52830505 C-219.67263245 153.22364853 -218.97577332 153.918992 -218.25779724 154.63540649 C-217.64924613 155.24043818 -217.04069502 155.84546986 -216.41370296 156.46883583 C-213.87060392 159.22323491 -213.32830423 161.97580512 -213.39924622 165.71647453 C-214.73434693 170.79132645 -219.470107 173.96907368 -223.27148438 177.30688477 C-224.26860895 178.21161869 -225.263619 179.11868771 -226.25666809 180.02789307 C-228.39773941 181.98450871 -230.54814253 183.93010923 -232.70478821 185.86953926 C-236.14095153 188.9705632 -239.51970238 192.12976359 -242.88708496 195.30516052 C-243.45867608 195.84379606 -244.03026719 196.3824316 -244.61917925 196.93738943 C-245.78846385 198.03972675 -246.95755984 199.14226416 -248.12647152 200.24499691 C-255.95706068 207.63046591 -263.80905989 214.9796767 -271.84814453 222.13842773 C-279.02177635 228.54049962 -286.05342149 235.07128401 -292.90625 241.81640625 C-293.45945293 242.36026993 -294.01265587 242.90413362 -294.58262253 243.46447802 C-309.60028299 258.37071169 -318.08457752 270.5007359 -318.43981934 292.32444763 C-318.19182641 303.00231028 -317.06002934 313.52210805 -315 324 C-308.26271222 318.48603036 -302.23523041 312.31140322 -296.13305664 306.11962891 C-294.9433326 304.91650834 -293.75331713 303.7136759 -292.56303406 302.5111084 C-290.01109453 299.93239408 -287.46042502 297.35243235 -284.91050911 294.77171707 C-280.87676552 290.69086324 -276.83530843 286.61770879 -272.79185486 282.54647827 C-271.76629513 281.51380969 -271.76629513 281.51380969 -270.72001702 280.46027911 C-269.32266346 279.05332539 -267.9252787 277.64640267 -266.52786338 276.2395103 C-257.12136312 266.76918962 -247.71880542 257.29517419 -238.34301758 247.79443359 C-232.00695293 241.37403813 -225.65687721 234.96788039 -219.29003614 228.57799852 C-215.9245537 225.19923211 -212.56667915 221.81360777 -209.22578621 218.41051102 C-206.08687185 215.21341772 -202.92979445 212.03546478 -199.75778389 208.87121582 C-198.59786407 207.70749912 -197.44479376 206.53690841 -196.2992363 205.35905075 C-194.7329245 203.75063503 -193.14374333 202.16885847 -191.54652405 200.59121704 C-190.66332017 199.69934 -189.78011629 198.80746296 -188.87014866 197.88855934 C-185.85413135 195.90401835 -183.70933751 195.16766123 -180.07157284 195.41989213 C-175.75830642 196.62774721 -173.04799973 199.86792172 -170 203 C-169.14812835 203.84145439 -168.2962567 204.68290878 -167.41857076 205.54986179 C-164.32918207 208.60805914 -161.28592943 211.71062722 -158.24136353 214.81333923 C-157.06119315 216.01171523 -155.88074274 217.20981549 -154.70003831 218.40766531 C-152.14344953 221.00228111 -149.58849082 223.59848723 -147.03477669 226.19593239 C-140.6799652 232.65910362 -134.31594813 239.11320647 -127.95279261 245.56816103 C-126.43936424 247.10350366 -124.92603824 248.63894722 -123.41281059 250.1744877 C-111.52515455 262.23741378 -99.61843611 274.28127314 -87.6968689 286.3106842 C-86.88942532 287.12546254 -86.08198174 287.94024087 -85.25007017 288.77970945 C-76.90444572 297.2006609 -68.55657548 305.61938328 -60.20728318 314.03669798 C-55.92116456 318.357983 -51.63568155 322.67989782 -47.35058594 327.00219727 C-46.07117056 328.292691 -46.07117056 328.292691 -44.76590841 329.60925532 C-30.95231529 343.54512995 -17.18388691 357.52483142 -3.43112572 371.52071147 C10.7071024 385.90674993 24.89470808 400.24270808 39.12853777 414.5341683 C47.89690136 423.34121961 56.62465687 432.18484069 65.30358221 441.08005685 C71.26064916 447.17812366 77.26504413 453.2268478 83.30813943 459.23966204 C86.78877653 462.70568494 90.24529375 466.18888173 93.64682961 469.7327137 C109.01027056 486.78490448 109.01027056 486.78490448 129.89327395 493.87486702 C135.06336885 493.72654249 139.95489869 493.12648623 145 492 C146.17980977 491.75146941 146.17980977 491.75146941 147.38345408 491.49791801 C153.36666059 490.13309794 157.8806418 487.57706467 162 483 C160.34692394 478.72958919 157.14664518 475.87761993 153.95774841 472.72396851 C153.33196162 472.09717843 152.70617482 471.47038835 152.06142479 470.82460463 C149.96030044 468.72252657 147.85210661 466.62768462 145.74389648 464.53271484 C144.2374176 463.0284368 142.73138586 461.52371083 141.22576904 460.01856995 C137.98146128 456.77719736 134.73401956 453.53900906 131.48412895 450.3032341 C126.34970711 445.19104587 121.22235299 440.07180869 116.09596252 434.9515686 C107.99074687 426.85773857 99.88087219 418.7685953 91.76896673 410.68147051 C77.232124 396.18895497 62.7008669 381.69084395 48.17478997 367.18753779 C43.07296688 362.09414335 37.96834864 357.00357129 32.86149776 351.91521811 C29.69147416 348.75580657 26.52345494 345.59439091 23.35594177 342.43246269 C21.88175562 340.96175906 20.40669797 339.4919284 18.93072701 338.02301598 C16.92329043 336.02497206 14.9189064 334.02391575 12.91526794 332.02206421 C12.32422994 331.43530328 11.73319193 330.84854235 11.12424368 330.24400079 C6.21195881 325.32474258 6.21195881 325.32474258 5.5 320.875 C6.76759267 311.05115682 19.5129475 302.43065854 26.26171875 295.77734375 C30.09607513 291.97618526 33.90021255 288.20252028 37.40625 284.09375 C42.7550438 277.84822808 48.75475931 272.19091402 54.60253906 266.41796875 C59.96613935 261.11685062 65.24585996 255.81894075 70.14453125 250.078125 C74.84608581 244.8123839 80.00597145 239.94718872 85.02978516 234.99072266 C91.94906564 228.20035218 91.94906564 228.20035218 98.46875 221.03125 C103.79042569 214.80239791 109.77635414 209.16959554 115.60253906 203.41796875 C122.75709529 196.40390807 122.75709529 196.40390807 129.5 189 C134.80803468 182.77944604 140.78716672 177.15892134 146.60253906 171.41796875 C152.11367617 165.9710325 157.59077495 160.54526628 162.59765625 154.62109375 C164 153 164 153 165.56636047 151.73551941 C167.56173748 149.31997808 167.36190769 147.71788722 167.34057617 144.6105957 C167.34034958 143.50968094 167.34012299 142.40876617 167.33988953 141.27449036 C167.32440567 140.08691635 167.30892181 138.89934235 167.29296875 137.67578125 C167.28872391 136.45924362 167.28447906 135.24270599 167.28010559 133.98930359 C167.26328851 130.09681229 167.22562959 126.20483529 167.1875 122.3125 C167.17245713 119.67643976 167.15876804 117.04037142 167.14648438 114.40429688 C167.11337499 107.9360219 167.06314505 101.46804769 167 95 C162.51598548 98.7587687 158.22205383 102.6280359 154.09375 106.7734375 C153.56535522 107.30087555 153.03696045 107.8283136 152.49255371 108.37173462 C151.38557246 109.47804133 150.27982896 110.58558787 149.17529297 111.69433594 C147.50728934 113.36768729 145.83402327 115.03564117 144.16015625 116.703125 C139.2525384 121.60772719 134.44734696 126.54351175 129.93603516 131.81933594 C125.69603715 136.59508149 121.18452813 141.1190003 116.69311523 145.65698242 C115.515545 146.85125578 114.34338632 148.05088757 113.17651367 149.25561523 C111.47213958 151.01471585 109.75192128 152.7568229 108.02734375 154.49609375 C107.253657 155.30378456 107.253657 155.30378456 106.46434021 156.12779236 C103.12697962 159.44603387 100.73288112 160.84849827 96 161 C93.1875 159.9375 93.1875 159.9375 91 158 C90 155.125 90 155.125 90 152 C92.17282489 147.54382774 95.44626804 144.30824428 98.953125 140.88671875 C99.53157166 140.31347366 100.11001831 139.74022858 100.70599365 139.14961243 C102.549276 137.32405693 104.39910527 135.50533442 106.25 133.6875 C108.08577625 131.87956789 109.91998277 130.07011345 111.75115967 128.25752258 C112.88701206 127.1336833 114.0255216 126.01251997 115.16729736 124.8946991 C118.03634898 122.06097808 120.76320976 119.1606119 123.39770508 116.10668945 C127.11953904 111.803935 131.0850231 107.78788041 135.12109375 103.78125 C135.86585464 103.03790405 136.61061554 102.29455811 137.37794495 101.52868652 C139.72876745 99.18340699 142.08306431 96.84165164 144.4375 94.5 C146.04385199 92.89867039 147.64997397 91.29711002 149.25585938 89.6953125 C153.16791985 85.79420527 157.08282952 81.8959758 161 78 C156.86551251 73.36436251 152.82743659 70.42606438 146.60843086 69.73377419 C143.77024524 69.63160688 140.94754443 69.62889761 138.10766602 69.65942383 C137.03375107 69.65898575 135.95983612 69.65854767 134.8533783 69.65809631 C131.32003305 69.66017863 127.78716814 69.68348407 124.25390625 69.70703125 C121.79768635 69.71262917 119.3414631 69.71689834 116.88523865 69.71989441 C110.43257334 69.73132768 103.98011185 69.76078211 97.52752686 69.79400635 C90.93830115 69.82473977 84.3490424 69.83840676 77.75976562 69.85351562 C64.83975699 69.885653 51.91988936 69.93625144 39 70 C38.79391365 71.05694313 38.79391365 71.05694313 38.58366394 72.13523865 C37.94864782 75.38122936 37.3083406 78.62615555 36.66796875 81.87109375 C36.4520105 82.97916382 36.23605225 84.08723389 36.0135498 85.22888184 C29.34420999 118.90997678 14.60642613 160.54368026 -13 183 C-18.90718685 186.74356645 -24.96188637 189.01568703 -32 188 C-50.98498262 181.65102539 -62.10246814 161.4759745 -70.69384766 144.65380859 C-77.46478413 130.8967844 -83.06401073 116.73772477 -87.5 102.0625 C-87.81404785 101.03519775 -88.1280957 100.00789551 -88.45166016 98.94946289 C-91.23223877 89.28135908 -92.39618566 80.15749084 -94 70 C-137.56 70 -181.12 70 -226 70 C-221.25232328 75.58016522 -221.25232328 75.58016522 -216.26317787 80.85986996 C-215.24204051 81.88399389 -215.24204051 81.88399389 -214.20027411 82.9288072 C-213.10589657 84.01881547 -213.10589657 84.01881547 -211.9894104 85.13084412 C-211.2002418 85.92086714 -210.4110732 86.71089017 -209.59799039 87.52485329 C-206.96564376 90.15884077 -204.32975053 92.78924946 -201.69384766 95.41967773 C-199.80114587 97.31209732 -197.90864352 99.2047144 -196.01638794 101.09757996 C-191.94855891 105.16593198 -187.87891076 109.23245684 -183.80800247 113.29772758 C-177.92223823 119.17534634 -172.03925474 125.05574197 -166.15693466 130.9368074 C-156.61195067 140.47960566 -147.06473814 150.0201711 -137.51611328 159.55932617 C-128.24345373 168.82279922 -118.97185063 178.08732754 -109.70166016 187.35327148 C-109.12973335 187.92493557 -108.55780654 188.49659966 -107.96854861 189.0855869 C-105.09921351 191.95361691 -102.22989911 194.82166762 -99.36059499 197.68972862 C-75.57693685 221.46302905 -51.78965752 245.23270309 -28 269 C-26.88089397 268.04628761 -25.76257082 267.09165652 -24.64457703 266.13664055 C-24.02172664 265.60512945 -23.39887625 265.07361835 -22.7571516 264.52600086 C-20.63756037 262.68523878 -18.63061004 260.75765997 -16.64453125 258.77392578 C-15.47796997 257.61209274 -15.47796997 257.61209274 -14.2878418 256.42678833 C-13.470979 255.60790131 -12.65411621 254.78901428 -11.8125 253.9453125 C-10.95116455 253.08493378 -10.0898291 252.22455505 -9.20239258 251.33810425 C-7.38923313 249.52562245 -5.57732451 247.71188859 -3.76660156 245.89697266 C-1.01218117 243.13720482 1.74752373 240.38280318 4.5078125 237.62890625 C6.27636231 235.85969546 8.04460179 234.0901744 9.8125 232.3203125 C10.62936279 231.50547394 11.44622559 230.69063538 12.2878418 229.85110474 C16.42755494 225.69461274 20.39329132 221.46086327 24.22116089 217.01681519 C29.99729955 210.46793503 36.29009266 204.36190859 42.43383789 198.16113281 C44.19433525 196.37888881 45.94853118 194.59039936 47.6965332 192.79589844 C50.23261988 190.19315379 52.787625 187.61041993 55.34765625 185.03125 C56.12593277 184.22514282 56.90420929 183.41903564 57.70606995 182.58850098 C63.15536314 177.15970154 63.15536314 177.15970154 67.35717773 176.36523438 C71.18635542 177.28494449 72.72413887 178.82758751 75 182 C75.29778443 185.35007485 74.66405442 187.14235525 72.6081543 189.79760742 C68.40261896 194.51966433 64.0623562 199.05831943 59.5625 203.5 C58.87873291 204.17998047 58.19496582 204.85996094 57.49047852 205.56054688 C54.60262227 208.43225143 51.70876925 211.29788438 48.81542969 214.1640625 C46.68734275 216.27392787 44.56237083 218.38689645 42.4375 220.5 C41.79562744 221.13357422 41.15375488 221.76714844 40.49243164 222.41992188 C37.42990825 225.46606386 34.48245771 228.55355973 31.66845703 231.83154297 C27.31752436 236.86839991 22.59283037 241.51273312 17.8671875 246.1953125 C16.90238319 247.15569816 15.93788095 248.11638737 14.97366333 249.07736206 C11.94361232 252.0960998 8.90961121 255.11084739 5.875 258.125 C2.3467362 261.62953734 -1.17982043 265.13575916 -4.70217514 268.64623642 C-6.1009031 270.03854944 -7.50270269 271.42777451 -8.90457153 272.81692505 C-13.16776806 277.06370753 -17.21311678 281.32578266 -21 286 C-23.54775961 287.95328236 -24.84396214 287.99708926 -28.08550358 288.05755711 C-33.71692989 287.14811622 -37.0229675 282.61256201 -40.75694275 278.6415863 C-42.04430976 277.31110837 -42.04430976 277.31110837 -43.3576842 275.9537521 C-45.23873434 274.00561538 -47.11318238 272.05297545 -48.97890663 270.09033012 C-52.01583056 266.89602443 -55.07421815 263.72281544 -58.13604736 260.55239868 C-61.43528286 257.13401242 -64.73272625 253.71396247 -68.0228852 250.2868365 C-76.2036432 241.76586657 -84.43000027 233.29090878 -92.68544006 224.84230042 C-93.28370346 224.22984984 -93.88196685 223.61739926 -94.49835943 222.98638957 C-97.55872072 219.85347964 -100.61959743 216.72107399 -103.68084824 213.58903325 C-109.99119311 207.13271471 -116.30036458 200.67526309 -122.60375977 194.2121582 C-123.23617376 193.5637603 -123.86858775 192.9153624 -124.52016581 192.24731607 C-134.71721373 181.78775317 -144.83498327 171.25453591 -154.92738789 160.69409095 C-165.32400198 149.81955837 -175.81333021 139.04066822 -186.38829333 128.33948094 C-192.31103981 122.34040645 -198.18417191 116.30600388 -203.95139885 110.15695 C-230.31289746 80.16453084 -230.31289746 80.16453084 -266.19612247 66.82821065 C-277.42832031 66.56574309 -289.2788062 67.42626873 -300 71 Z M-313 83 C-315.23970186 91.07129534 -315.27066621 98.82793027 -315.22705078 107.15844727 C-315.22648578 108.67699679 -315.22680496 110.19554686 -315.22793579 111.71409607 C-315.22850683 115.81265452 -315.21679303 119.9110946 -315.20278788 124.00962567 C-315.19023884 128.30173461 -315.18910674 132.59384662 -315.18673706 136.88597107 C-315.18053452 145.00303706 -315.16414036 153.12004883 -315.14403808 161.237091 C-315.12164084 170.48258172 -315.11067605 179.72807509 -315.10064721 188.9735862 C-315.07977299 207.98242148 -315.04462096 226.99120637 -315 246 C-309.82343599 241.66991931 -304.98687411 237.12535501 -300.22875977 232.34228516 C-299.48646622 231.60013763 -298.74417267 230.85799011 -297.97938538 230.09335327 C-295.54767865 227.66095472 -293.11952461 225.22504267 -290.69140625 222.7890625 C-288.997691 221.09348048 -287.30375357 219.39812037 -285.60960388 217.70297241 C-281.16706221 213.256626 -276.7275328 208.80728385 -272.28863525 204.3572998 C-267.75219036 199.81059675 -263.21288748 195.26674898 -258.67382812 190.72265625 C-249.77976118 181.81788805 -240.88877808 172.91004742 -232 164 C-236.27409398 158.89615128 -240.74529203 154.11104916 -245.45825195 149.41235352 C-246.17928604 148.68956711 -246.90032013 147.9667807 -247.64320374 147.22209167 C-250.00573559 144.85519001 -252.37186847 142.49192731 -254.73828125 140.12890625 C-256.38655472 138.47995878 -258.03467975 136.83086292 -259.68266296 135.18162537 C-263.12479132 131.73802703 -266.56871151 128.29623356 -270.01391602 124.85571289 C-274.4405852 120.43476754 -278.86271405 116.00931202 -283.28353596 111.58252048 C-286.67963151 108.18282334 -290.07809035 104.78549673 -293.47728539 101.38889885 C-295.10999244 99.75686079 -296.74195172 98.12407431 -298.37316322 96.49054146 C-300.64261316 94.21856872 -302.91521463 91.9497976 -305.1887207 89.68188477 C-305.86765381 89.00092743 -306.54658691 88.31997009 -307.24609375 87.61837769 C-309.74231158 84.50507938 -309.74231158 84.50507938 -313 83 Z M162.10214233 177.75891113 C161.56054474 178.30253296 161.01894714 178.84615479 160.4609375 179.40625 C159.62231674 180.24343567 159.62231674 180.24343567 158.76675415 181.09753418 C157.57683218 182.28677334 156.38818131 183.47728544 155.20068359 184.66894531 C153.40699451 186.46791136 151.60814061 188.26158352 149.80859375 190.0546875 C144.63307133 195.22749899 139.55459369 200.40181836 134.80712891 205.97460938 C130.12372577 211.22366536 124.97657709 216.07002879 119.97021484 221.00927734 C113.05093436 227.79964782 113.05093436 227.79964782 106.53125 234.96875 C101.20957431 241.19760209 95.22364586 246.83040446 89.39746094 252.58203125 C82.24290471 259.59609193 82.24290471 259.59609193 75.5 267 C70.19196532 273.22055396 64.21283328 278.84107866 58.39746094 284.58203125 C52.98349467 289.93292863 47.64356147 295.2790028 42.69873047 301.07421875 C39.33382016 304.88887994 35.67790605 308.4248684 32.0625 312 C30.89364258 313.16208984 30.89364258 313.16208984 29.70117188 314.34765625 C27.8030758 316.23410757 25.90266851 318.11816245 24 320 C27.78883541 324.52301204 31.69731938 328.84255253 35.87788391 333.00486755 C36.71756007 333.8468837 36.71756007 333.8468837 37.57419938 334.70591027 C39.43032929 336.56599459 41.28997169 338.42252478 43.1496582 340.27905273 C44.48901206 341.619763 45.82815338 342.96068562 47.167099 344.30180359 C50.78832984 347.9275775 54.41269742 351.55020036 58.03778863 355.17211413 C61.83180161 358.96359049 65.62336873 362.75751151 69.41532898 366.55104065 C75.77614667 372.9136749 82.13906428 379.27420342 88.50317383 385.63354492 C95.87034839 392.99526382 103.23389461 400.36059725 110.59559375 407.72779125 C116.91570934 414.05243589 123.23776033 420.37514095 129.56145161 426.69621044 C133.33901137 430.47220809 137.11588477 434.24888557 140.89101601 438.02731133 C144.43377896 441.57295045 147.97895522 445.1161583 151.52605629 448.65745735 C152.83107467 449.96114736 154.13523153 451.2657004 155.43848801 452.57115173 C157.20904642 454.34441829 158.98261633 456.11461475 160.7570343 457.88401794 C161.54027941 458.67060914 161.54027941 458.67060914 162.33934766 459.47309107 C164.32875307 461.92141929 164.32875307 461.92141929 167 463 C167 367.63 167 272.26 167 174 C164.86251663 174 163.53552594 176.3346027 162.10214233 177.75891113 Z M-248.5625 272.875 C-249.74790556 273.98315032 -249.74790556 273.98315032 -250.9572587 275.11368752 C-304.30955691 324.16352443 -304.30955691 324.16352443 -324.39653015 391.19784546 C-324.60725421 399.41674995 -324.13319567 407.5638655 -323.4375 415.75 C-323.38304671 416.41369189 -323.32859342 417.07738379 -323.27249002 417.76118755 C-321.89562841 434.28006898 -319.39039588 450.48691768 -315.55740166 466.61321259 C-314.82402256 469.75353337 -314.17133354 472.90976587 -313.52621555 476.06930923 C-311.75256455 482.57685466 -306.49595989 486.81502507 -301 490.25 C-296.20433164 492.04837563 -291.25347201 492.12467916 -286.18655586 492.12304783 C-285.19100522 492.1247786 -285.19100522 492.1247786 -284.17534244 492.12654433 C-281.95371236 492.12918899 -279.73215491 492.12470659 -277.51052856 492.12025452 C-275.90080272 492.12069066 -274.29107694 492.12156636 -272.68135154 492.12284368 C-268.25968635 492.12508021 -263.83804537 492.12107885 -259.41638327 492.11606562 C-254.64752802 492.11174925 -249.87867415 492.11320839 -245.1098175 492.1139679 C-236.84801027 492.11449238 -228.58621092 492.11135348 -220.32440567 492.10573006 C-208.37920525 492.0976048 -196.43400864 492.09499878 -184.48880576 492.09374207 C-165.10874594 492.09155316 -145.72869034 492.08489745 -126.34863281 492.07543945 C-107.52213563 492.06626116 -88.69563959 492.05918237 -69.86914062 492.05493164 C-68.70877569 492.05466892 -67.54841075 492.05440619 -66.35288323 492.05413551 C-60.53170333 492.05283048 -54.71052342 492.05156677 -48.8893435 492.05032361 C-0.59289276 492.03995602 47.70355342 492.02234209 96 492 C90.70728312 485.58098496 84.88014563 479.74000156 78.99699402 473.87001038 C77.87449616 472.74635915 76.7522162 471.62249022 75.6301344 470.49842352 C72.5580381 467.42216385 69.48284432 464.34901723 66.4071151 461.27639043 C63.0863552 457.95789645 59.76847822 454.6365222 56.45022583 451.31552124 C49.95569903 444.81655141 43.45847609 438.3202835 36.96027734 431.82498539 C31.68208511 426.54905178 26.40487003 421.27214264 21.12835121 415.99453545 C20.37732998 415.24336098 19.62630874 414.49218651 18.85252929 413.71824918 C17.32691499 412.19231516 15.80130293 410.66637889 14.2756931 409.1404404 C-0.02256302 394.83933409 -14.32388054 380.54129239 -28.62624886 366.24429881 C-40.91004271 353.96497805 -53.19120463 341.68303009 -65.47045898 329.39916992 C-79.72569966 315.13858478 -93.98255195 300.87961404 -108.24200267 286.6232385 C-109.76048056 285.10507917 -111.27895636 283.58691774 -112.79743004 282.0687542 C-113.54459328 281.32174523 -114.29175653 280.57473626 -115.06156108 279.80509065 C-120.33848694 274.52902992 -125.61424803 269.25180619 -130.88956642 263.97413826 C-137.30963077 257.55127738 -143.73145728 251.13018478 -150.15559123 244.7113942 C-153.4359256 241.43369799 -156.71543674 238.15518876 -159.99280739 234.87452888 C-162.98754912 231.87682688 -165.98455388 228.88140769 -168.98345097 225.88786285 C-170.07298646 224.79945263 -171.16166281 223.71018162 -172.24943195 222.62000609 C-173.71781429 221.1486225 -175.18918191 219.68029373 -176.66140461 218.21275425 C-177.48100613 217.39331508 -178.30060765 216.57387591 -179.14504558 215.72960526 C-185.36346587 209.9313968 -241.09943121 265.88541983 -248.5625 272.875 Z " fill="#000000" transform="translate(330,5)"/>
<path d="M0 0 C1.56935594 3.13871188 1.35201103 5.53855822 1 9 C-1 12 -1 12 -4 14 C-8.53105949 14 -11.97411799 13.04619523 -16.1875 11.5 C-29.01367518 7.063549 -42.10666802 9.04310988 -54.25 14.625 C-66.44364935 21.23327601 -74.73607478 31.03938834 -79.4375 44.0625 C-84.92697918 64.2143543 -78.67688989 85.86832933 -72 105 C-71.67177246 105.95737061 -71.67177246 105.95737061 -71.33691406 106.93408203 C-64.19812073 127.56819948 -52.75971143 159.4505388 -32 170 C-23.87389342 168.50308563 -18.42696059 160.40127234 -13.97387695 154.05688477 C4.49581801 126.81815405 24.74063649 84.70314611 18.39453125 50.76171875 C17.45684187 46.86340603 16.46531742 43.11373808 14.91796875 39.41015625 C13.50435263 35.69866201 13.68048002 32.9620477 14 29 C15 27.0625 15 27.0625 17 26 C19.71092029 25.21722896 22.17668343 24.83392255 25 25 C30.42139949 28.31307747 32.35868242 35.60392837 33.91796875 41.4296875 C42.51783546 80.27040006 24.69259765 124.05353446 4.7734375 156.71875 C2.93569887 159.55955713 1.02704891 162.29176358 -1 165 C-1.70511719 165.94875 -2.41023438 166.8975 -3.13671875 167.875 C-9.38131706 175.89598491 -17.41996755 185.22995655 -28 187 C-37.19319842 187.60681178 -43.64275086 183.64919615 -50.5 177.90625 C-75.69560405 154.28537121 -88.5947102 115.74245426 -96 83 C-96.26554687 81.90300781 -96.53109375 80.80601562 -96.8046875 79.67578125 C-100.73605853 60.79981488 -98.75002863 40.91332607 -89.11328125 24.13671875 C-77.7601478 7.28539497 -61.76140515 -3.37588976 -41.875 -7.43359375 C-28.54390173 -9.47870542 -11.26586263 -7.75416131 0 0 Z " fill="#000000" transform="translate(182,294)"/>
<path d="M0 0 C3.32442655 3.16311472 5.63682691 6.7669153 7.8515625 10.76171875 C8.36396484 11.64923828 8.36396484 11.64923828 8.88671875 12.5546875 C12.48240415 20.13071301 12.02086285 30.20924273 9.97265625 38.18359375 C6.19706978 48.0026107 0.23376929 54.99307646 -9.1484375 59.76171875 C-17.63855275 63.53510331 -27.38404731 63.54033457 -36.1484375 60.76171875 C-45.85914864 57.01449238 -52.37082582 51.34256014 -57.1484375 42.0859375 C-61.48964756 31.99601567 -60.98585198 21.91276611 -57.1484375 11.76171875 C-52.39423986 2.44586106 -45.37388901 -4.03259325 -35.515625 -7.5234375 C-22.57736288 -11.43053646 -10.41477391 -8.23638495 0 0 Z M-40.1484375 14.76171875 C-43.30788135 19.66430403 -44.92806219 25.05850146 -43.7109375 30.83984375 C-41.7100824 36.79693507 -38.66042383 41.17807519 -33.2734375 44.57421875 C-26.94561477 46.97879139 -22.48018882 47.07899345 -16.22265625 44.69921875 C-11.01276879 42.34446735 -8.20819574 39.15008583 -5.87890625 34.03515625 C-4.08960287 28.4663083 -4.35034073 22.91011833 -6.5859375 17.51171875 C-9.60356966 12.25485424 -14.54128261 8.96635959 -20.23046875 7.06640625 C-28.22282689 5.58458837 -34.6852855 9.29856675 -40.1484375 14.76171875 Z " fill="#000000" transform="translate(175.1484375,328.23828125)"/>
<path d="M0 0 C9.67735282 6.16889673 15.42433877 13.58389937 18.5859375 24.57421875 C20.33730477 34.44556152 18.96037893 43.60304131 13.5859375 52.19921875 C7.35269068 60.76036118 0.09872957 65.45801801 -10.13671875 68.0625 C-20.89467805 69.66889211 -30.12638161 66.73070954 -38.9140625 60.76171875 C-43.2582046 57.32621195 -46.05818018 53.26228219 -48.7265625 48.44921875 C-49.06816406 47.85753906 -49.40976562 47.26585937 -49.76171875 46.65625 C-53.3589091 39.07705358 -52.91864637 28.95774106 -50.8125 20.9921875 C-46.70407998 10.4560781 -40.84308098 4.43037038 -30.7265625 -0.55078125 C-21.73891515 -4.22868722 -8.8418215 -4.30020329 0 0 Z M-33.16796875 21.27734375 C-36.15005123 26.38948515 -36.63680171 31.65678744 -35.7265625 37.44921875 C-33.76416219 43.55679617 -30.66904449 47.37422823 -24.9453125 50.38671875 C-19.7422273 52.69920106 -15.22342119 52.94093133 -9.7265625 51.44921875 C-4.06353466 48.50880045 -0.15650764 44.37410653 2.6484375 38.63671875 C3.75816988 32.97708361 3.23540787 27.77402848 0.5234375 22.63671875 C-2.52100195 18.32376286 -5.87055986 15.49339748 -10.7265625 13.44921875 C-19.97181606 12.05774788 -27.24362856 13.76354643 -33.16796875 21.27734375 Z " fill="#000000" transform="translate(318.7265625,35.55078125)"/>
</svg>
