<?xml version="1.0" encoding="UTF-8"?>
<svg version="1.1" xmlns="http://www.w3.org/2000/svg" width="512" height="512">
<path d="M0 0 C28.13313596 24.94894854 46.9659051 61.42065221 49.65234375 99.12109375 C49.78354434 103.14318999 49.79240523 107.15966732 49.77734375 111.18359375 C49.78121094 112.22064453 49.78507812 113.25769531 49.7890625 114.32617188 C49.78184157 120.01987153 49.50404015 125.49043422 48.65234375 131.12109375 C49.95171875 131.18296875 51.25109375 131.24484375 52.58984375 131.30859375 C80.13993545 134.2188147 102.1255945 150.71739935 119.27734375 171.62109375 C120.73949906 173.45138036 122.19787344 175.28469419 123.65234375 177.12109375 C125.10694114 178.91579484 126.56531489 180.70744142 128.02734375 182.49609375 C128.75824219 183.39070312 129.48914063 184.2853125 130.2421875 185.20703125 C133.4638988 189.10232562 136.73480586 192.95509209 140.02294922 196.79443359 C142.05174052 199.17400755 143.91492703 201.51496867 145.65234375 204.12109375 C147.59446933 204.56351183 147.59446933 204.56351183 149.84375 204.4921875 C150.69686768 204.50636719 151.54998535 204.52054688 152.42895508 204.53515625 C153.34829834 204.54289063 154.2676416 204.550625 155.21484375 204.55859375 C181.39112227 205.37473121 213.35211075 215.15690737 232.12109375 234.21484375 C243.09317252 246.81241567 244.18995703 263.62078025 244.09838867 279.60205078 C244.08979502 281.88403368 244.11892335 284.16356915 244.15039062 286.4453125 C244.20847327 298.53591046 242.26606775 309.0915348 233.65234375 318.12109375 C226.16259028 324.83288912 218.26138375 328.2753342 208.1328125 328.21875 C207.11123047 328.21552734 206.08964844 328.21230469 205.03710938 328.20898438 C203.98201172 328.20060547 202.92691406 328.19222656 201.83984375 328.18359375 C200.76541016 328.17908203 199.69097656 328.17457031 198.58398438 328.16992188 C195.94004692 328.15817104 193.29622423 328.14174162 190.65234375 328.12109375 C190.47372803 328.93940674 190.2951123 329.75771973 190.11108398 330.60083008 C186.70112544 345.87801116 179.61220201 356.97840512 166.83203125 366.109375 C153.4962999 374.54660061 138.74995187 376.88509872 123.41015625 373.80859375 C107.62734681 369.87406902 95.59877411 360.82629038 87.1953125 347 C83.8597429 340.77641825 81.65234375 335.21300861 81.65234375 328.12109375 C39.08234375 328.12109375 -3.48765625 328.12109375 -47.34765625 328.12109375 C-48.00765625 329.77109375 -48.66765625 331.42109375 -49.34765625 333.12109375 C-50.15324082 334.46192919 -51.00384742 335.77661957 -51.89453125 337.0625 C-52.40242187 337.80056885 -52.9103125 338.5386377 -53.43359375 339.29907227 C-53.98273438 340.08596436 -54.531875 340.87285645 -55.09765625 341.68359375 C-55.67257813 342.5149585 -56.2475 343.34632324 -56.83984375 344.20288086 C-58.67045695 346.84602678 -60.50856903 349.48383879 -62.34765625 352.12109375 C-63.51957968 353.80856012 -64.69145543 355.4960596 -65.86328125 357.18359375 C-71.63320306 365.47482593 -77.45874324 373.72643243 -83.34765625 381.93359375 C-83.86328125 382.65619385 -84.37890625 383.37879395 -84.91015625 384.12329102 C-93.68461926 396.28957525 -93.68461926 396.28957525 -97.34765625 398.12109375 C-101.32789481 398.66385355 -102.89974337 398.44234274 -106.20703125 396.0703125 C-109.720651 392.99127776 -112.24218291 389.40985107 -114.84765625 385.55859375 C-115.90221639 384.03116206 -116.95690933 382.50382205 -118.01171875 380.9765625 C-118.8301123 379.78232666 -118.8301123 379.78232666 -119.66503906 378.56396484 C-121.3419577 376.12936706 -123.03979738 373.71095755 -124.74609375 371.296875 C-133.16450738 359.38079537 -141.3274048 347.30827861 -149.34765625 335.12109375 C-149.88745117 334.3017334 -150.42724609 333.48237305 -150.98339844 332.63818359 C-189.42206273 274.1857102 -231.68272979 209.24568985 -247.34765625 140.12109375 C-247.52264648 139.35861328 -247.69763672 138.59613281 -247.87792969 137.81054688 C-255.94111488 101.24679619 -247.09786562 61.97706903 -227.13208008 30.68017578 C-223.27017524 24.81752506 -218.98204454 19.39414332 -214.34765625 14.12109375 C-213.61804688 13.2703125 -212.8884375 12.41953125 -212.13671875 11.54296875 C-187.71590339 -16.39101653 -151.80160609 -34.78295512 -114.70898438 -37.73388672 C-71.83875969 -40.3667355 -32.48505674 -28.18764279 0 0 Z M-178.34765625 4.12109375 C-179.54648438 4.98734375 -179.54648438 4.98734375 -180.76953125 5.87109375 C-209.86811289 27.93276349 -227.59874212 60.00780732 -232.90625 95.8984375 C-238.04004781 139.1977654 -217.2131555 180.52161714 -198.34765625 218.12109375 C-197.79819336 219.21728027 -197.24873047 220.3134668 -196.68261719 221.44287109 C-189.33749058 236.01166251 -181.41961779 250.18079538 -173.07958984 264.20117188 C-171.36050797 267.09942663 -169.65835609 270.00698209 -167.9609375 272.91796875 C-162.30072103 282.60620745 -156.50142033 292.16174857 -150.33984375 301.5390625 C-148.08152969 304.97880227 -145.86750627 308.44425834 -143.66796875 311.921875 C-135.79154765 324.36319497 -127.68529641 336.58593814 -119.1953125 348.6171875 C-116.60029671 352.30071003 -114.07245621 356.01849698 -111.59375 359.78125 C-111.00295654 360.67150879 -110.41216309 361.56176758 -109.8034668 362.47900391 C-108.69349746 364.15754062 -107.59408806 365.84312439 -106.50708008 367.53662109 C-106.01618896 368.27477051 -105.52529785 369.01291992 -105.01953125 369.7734375 C-104.3867627 370.7478479 -104.3867627 370.7478479 -103.74121094 371.74194336 C-102.20058 373.59004298 -102.20058 373.59004298 -98.34765625 373.12109375 C-96.17051273 370.78882919 -96.17051273 370.78882919 -94.09765625 367.55859375 C-93.20320187 366.25255152 -92.30866489 364.94656585 -91.4140625 363.640625 C-90.92437988 362.91568848 -90.43469727 362.19075195 -89.93017578 361.44384766 C-88.27100327 359.00858581 -86.57760647 356.60038971 -84.875 354.1953125 C2.15870174 235.60301885 2.15870174 235.60301885 31.46484375 90.87109375 C25.01470738 55.62764153 5.90797123 24.15235833 -23.3449707 3.08520508 C-69.53863498 -28.8041545 -132.83677577 -29.67141631 -178.34765625 4.12109375 Z M44.65234375 148.12109375 C42.9694262 152.485357 41.39037279 156.85456809 39.9609375 161.30859375 C35.47992286 175.26007899 30.27991743 188.74512012 24.44335938 202.18530273 C23.58929965 203.92684831 23.58929965 203.92684831 23.65234375 205.12109375 C56.32234375 205.12109375 88.99234375 205.12109375 122.65234375 205.12109375 C120.70532481 201.22705587 118.41199382 198.30341717 115.58984375 195.05859375 C114.59164798 193.89651999 113.59426409 192.73374838 112.59765625 191.5703125 C112.10040039 190.99071777 111.60314453 190.41112305 111.09082031 189.81396484 C109.00957374 187.36464989 106.98721259 184.86910683 104.96484375 182.37109375 C103.52853463 180.6201162 102.09109802 178.8700627 100.65234375 177.12109375 C100.02070313 176.33992188 99.3890625 175.55875 98.73828125 174.75390625 C86.46612082 160.1586208 68.41263914 150.15611178 49.33984375 148.37109375 C47.77819634 148.27307308 46.21580911 148.18375769 44.65234375 148.12109375 Z M15.65234375 222.12109375 C14.23236856 224.63929894 12.81312623 227.15791262 11.39428711 229.67675781 C10.79905369 230.73209213 10.79905369 230.73209213 10.19179535 231.80874634 C6.45066567 238.45267675 2.81768463 245.15109882 -0.78515625 251.87109375 C-1.39552734 253.00546875 -2.00589844 254.13984375 -2.63476562 255.30859375 C-6.06608354 261.67600371 -6.06608354 261.67600371 -9.34765625 268.12109375 C-8.72117188 268.2190625 -8.0946875 268.31703125 -7.44921875 268.41796875 C-6.63195312 268.5675 -5.8146875 268.71703125 -4.97265625 268.87109375 C-4.16054687 269.0103125 -3.3484375 269.14953125 -2.51171875 269.29296875 C-0.34765625 270.12109375 -0.34765625 270.12109375 0.94921875 271.9765625 C2.04164485 275.30846212 1.50632101 277.76618307 0.65234375 281.12109375 C-0.91015625 283.05859375 -0.91015625 283.05859375 -3.34765625 284.12109375 C-9.22032405 284.68941644 -12.08984414 283.95222335 -17.34765625 281.12109375 C-19.41370601 284.43139176 -21.47482788 287.74473226 -23.53515625 291.05859375 C-24.40237305 292.44788086 -24.40237305 292.44788086 -25.28710938 293.86523438 C-25.85751953 294.78369141 -26.42792969 295.70214844 -27.015625 296.6484375 C-27.79329224 297.89741821 -27.79329224 297.89741821 -28.58666992 299.17163086 C-30.93274905 303.10106132 -33.12510295 307.12049781 -35.34765625 311.12109375 C3.26234375 311.12109375 41.87234375 311.12109375 81.65234375 311.12109375 C82.64234375 307.16109375 83.63234375 303.20109375 84.65234375 299.12109375 C89.86031724 286.08537828 100.2259925 275.40074615 112.96484375 269.6171875 C127.89807735 263.66086365 143.19700058 263.20598075 158.265625 269.15234375 C172.61878899 275.75971006 181.89238912 286.63785196 187.64453125 301.19921875 C188.77638532 304.48071814 189.72852908 307.77538658 190.65234375 311.12109375 C193.98537378 311.23858125 197.31786212 311.30876699 200.65234375 311.37109375 C201.58691406 311.40460938 202.52148438 311.438125 203.484375 311.47265625 C210.85217783 311.57570244 216.12440609 310.23397992 221.7109375 305.3046875 C222.16597656 304.72847656 222.62101562 304.15226562 223.08984375 303.55859375 C223.56292969 302.97980469 224.03601563 302.40101563 224.5234375 301.8046875 C228.0391682 296.56150434 226.87682528 289.5255865 226.89257812 283.45483398 C226.90217539 281.22274939 226.9331545 278.99162988 226.96484375 276.75976562 C227.04926324 265.5278187 226.67700999 254.1222213 218.96875 245.20703125 C204.77778558 232.42798403 177.41120337 221.98481838 158.39445496 222.00083923 C157.13387268 221.99946457 155.87329041 221.9980899 154.57450867 221.99667358 C153.18533301 222.00021226 151.7961576 222.00384706 150.40698242 222.00756836 C148.9382833 222.00785055 147.46958405 222.00769187 146.00088501 222.00712585 C142.01989071 222.00683914 138.03892658 222.01271555 134.05793929 222.01969981 C129.89526126 222.02595428 125.73258252 222.02653881 121.56990051 222.02772522 C113.69000764 222.03083236 105.81012865 222.03903743 97.93024188 222.04907471 C88.95810991 222.06025501 79.98597728 222.06575113 71.01384008 222.07077014 C52.5600001 222.08122055 34.10617304 222.09880805 15.65234375 222.12109375 Z M106.77734375 293.99609375 C99.05846806 303.53117548 96.5644715 313.95923992 97.65234375 326.12109375 C99.74641822 336.83003156 105.21182674 345.27398162 114.15234375 351.55859375 C123.03315405 356.97895038 132.76943884 359.60227652 143.10546875 357.66015625 C155.22420422 354.42087161 164.69196604 347.31087827 171.02734375 336.43359375 C175.08130756 327.34837129 175.78202614 316.53783723 172.65234375 307.12109375 C168.1705028 296.45841331 161.60740678 288.86496339 151.01953125 284.0859375 C135.40006745 277.71958839 118.29822222 281.49262436 106.77734375 293.99609375 Z " fill="#000000" transform="translate(259.34765625,75.87890625)"/>
<path d="M0 0 C11.13033995 9.39858011 17.53480519 21.4579056 19.2109375 35.93359375 C19.93480022 49.8136615 16.28525706 63.18432231 7.26953125 73.90625 C-2.18452537 84.12427079 -13.67869115 91.55753915 -27.92578125 92.33203125 C-44.68774711 92.67533732 -57.68983499 88.40003856 -70.3515625 77.05859375 C-79.84246281 67.0555945 -84.51299222 53.98831367 -84.71875 40.37890625 C-84.23788496 24.70270603 -78.21434022 12.11346268 -67.0390625 1.24609375 C-47.70448625 -15.38105326 -20.02810421 -15.06512824 0 0 Z M-59.37890625 18.13671875 C-65.67627526 27.19014902 -69.03034476 36.24176332 -67.07421875 47.34375 C-64.13832822 58.1170822 -58.35895604 66.31036671 -48.6640625 71.99609375 C-40.80694529 76.01601419 -31.31851566 76.37276254 -22.82421875 74.3046875 C-12.62861 70.55006425 -6.15448406 64.26880573 -0.6640625 54.99609375 C3.56115243 45.777443 2.67097347 36.34195037 -0.6640625 26.99609375 C-5.53931315 16.55166991 -13.49219007 10.6523428 -24.0390625 6.74609375 C-37.01069048 4.06230865 -50.87137175 7.51683514 -59.37890625 18.13671875 Z " fill="#000000" transform="translate(191.6640625,124.00390625)"/>
<path d="M0 0 C2.375 1.5625 2.375 1.5625 4 4 C4.58909477 7.32035237 4.86204631 8.88570594 4 12 C0.96736937 15.3147358 -2.16561691 17.44973389 -5.90234375 19.9140625 C-27.09606094 34.04320729 -40.78957986 53.0724611 -47 78 C-52.54340209 107.032394 -44.96708831 141.3534022 -28.625 166 C-27.42981287 167.67611901 -26.22410007 169.34487878 -25 171 C-22.5533395 174.66999075 -22.1762449 177.73535118 -23 182 C-25.68113385 185.24985922 -27.35133418 185.89575014 -31.5 186.5625 C-35.84788642 185.86373254 -37.44552544 184.35467141 -40 181 C-40.76570313 180.06414062 -40.76570313 180.06414062 -41.546875 179.109375 C-60.52427766 154.21241554 -70.18991257 115.41826642 -66.50390625 84.47265625 C-62.5681136 55.30445535 -48.62750652 29.29609948 -25.25 11.01171875 C-23.94249973 10.02200583 -22.63004001 9.03880781 -21.3125 8.0625 C-20.70704346 7.61374512 -20.10158691 7.16499023 -19.4777832 6.70263672 C-6.72389354 -2.4450522 -6.72389354 -2.4450522 0 0 Z " fill="#000000" transform="translate(106,84)"/>
<path d="M0 0 C5.25495606 3.18687658 9.2224526 7.87816813 12 13.3125 C13.46938741 21.63902865 13.42601785 29.30632874 8.5625 36.5 C3.97629534 41.50748442 -0.53939622 45.01465287 -7.41796875 45.87109375 C-15.17943612 46.03180623 -21.1153597 45.23303089 -27.4375 40.5 C-32.78282456 35.18801426 -35.05520835 29.62874977 -35.75 22.125 C-35.06310096 14.15697114 -32.49440951 7.85003906 -26.4375 2.5 C-19.31403399 -3.11242777 -8.19800845 -3.57963722 0 0 Z M-16.4375 17.5 C-18.71421738 20.24841911 -18.71421738 20.24841911 -18.25 23 C-17.35197755 25.76314599 -16.86590184 26.9089781 -14.4375 28.5 C-10.82168138 29.03852618 -9.09638511 28.92236225 -6 26.9375 C-4.12548845 24.48253455 -4.12548845 24.48253455 -4.375 20.9375 C-5.11919024 17.36369493 -5.11919024 17.36369493 -7.9375 15.5625 C-11.87705311 13.88818993 -12.8736791 15.15309355 -16.4375 17.5 Z " fill="#000000" transform="translate(406.4375,373.5)"/>
<path d="M0 0 C2.48718477 0.98817442 3.6737141 1.58048956 5.3125 3.6875 C6.31858949 7.07161918 5.80442399 9.59666774 5 13 C3.42114034 15.05938216 2.30857577 15.84571211 0 17 C-11.2712642 18.07638267 -11.2712642 18.07638267 -16.3125 14.9375 C-18.45675792 11.20490287 -18.75714464 9.24000997 -18 5 C-14.0929693 -1.80112751 -6.97254607 -0.84596664 0 0 Z " fill="#000000" transform="translate(339,324)"/>
<path d="M0 0 C3.3125 2.0625 3.3125 2.0625 5 5 C5.53416903 8.80595431 5.55569356 10.99445927 3.6875 14.375 C0.54607819 17.40007285 -2.79114907 17.1618736 -6.9375 17.1875 C-8.49791016 17.20876953 -8.49791016 17.20876953 -10.08984375 17.23046875 C-12.98091757 17.00151123 -14.58310441 16.55213479 -17 15 C-19.09679403 12.30412197 -18.99510821 10.907056 -18.8125 7.4375 C-18.02487718 4.10524961 -17.70318387 2.94629239 -15 1 C-10.56141383 -1.21929309 -4.81967665 -0.51895033 0 0 Z " fill="#000000" transform="translate(285,324)"/>
<path d="M0 0 C3.375 2.0625 3.375 2.0625 5 5 C5.53416903 8.80595431 5.55569356 10.99445927 3.6875 14.375 C-0.07333591 17.99654569 -5.20239783 17.33272494 -10.10546875 17.2734375 C-13 17 -13 17 -16.1875 15.4375 C-18.64817431 12.12831731 -19.14230474 10.1268376 -19 6 C-15.3369835 -2.0586363 -7.9498239 -1.25223956 0 0 Z " fill="#000000" transform="translate(312,344)"/>
</svg>
