<?xml version="1.0" encoding="UTF-8"?>
<svg version="1.1" xmlns="http://www.w3.org/2000/svg" width="512" height="512">
<path d="M0 0 C0.88558594 -0.01611328 1.77117187 -0.03222656 2.68359375 -0.04882812 C10.29052051 -0.05449648 15.5262965 2.00846511 21.125 7.3125 C24.91288608 12.72376583 26.13351236 17.82869264 27.125 24.3125 C28.66994141 24.69728516 28.66994141 24.69728516 30.24609375 25.08984375 C45.48967848 29.10169369 59.44379111 35.52837741 71.125 46.3125 C72.09953125 47.19550781 73.0740625 48.07851563 74.078125 48.98828125 C91.13726996 64.92610474 102.04096971 87.37109237 103.31445312 110.79760742 C103.34474609 111.99232666 103.37503906 113.1870459 103.40625 114.41796875 C103.44363281 115.73087891 103.48101562 117.04378906 103.51953125 118.39648438 C103.5732411 120.45692249 103.62543736 122.51739413 103.67724609 124.57788086 C103.72913873 126.58717326 103.78637417 128.59632544 103.84375 130.60546875 C103.87404297 131.7968042 103.90433594 132.98813965 103.93554688 134.21557617 C104.09274688 136.78526948 104.49708448 138.84632522 105.125 141.3125 C105.17110193 142.9759258 105.16410957 144.64128463 105.1171875 146.3046875 C105.10042969 147.25730469 105.08367187 148.20992187 105.06640625 149.19140625 C105.0223043 151.1811825 104.97028135 153.1707997 104.91015625 155.16015625 C104.8266598 160.78478057 105.18523657 164.36365202 108.125 169.3125 C110.67382376 178.94138975 109.59716343 188.47433726 105.125 197.3125 C99.66875196 206.48825931 92.18715036 211.3591909 82 214.1875 C80.37870953 214.57822651 78.75486825 214.95925859 77.125 215.3125 C76.70541016 217.14361328 76.70541016 217.14361328 76.27734375 219.01171875 C72.23737363 235.90113387 65.85832064 251.49151688 51.125 261.875 C47.81327385 264.59925473 46.85896914 266.66149939 46.33984375 270.80859375 C46.00245678 275.31848093 46.00430032 279.79350401 46.125 284.3125 C46.970625 284.415625 47.81625 284.51875 48.6875 284.625 C52.125 285.3125 52.125 285.3125 54.97767639 286.83340454 C60.65589355 289.30710206 66.84287918 288.70897392 72.91967773 288.66552734 C74.31658064 288.6663591 75.7134833 288.66857825 77.11038208 288.67207336 C80.10819397 288.67700725 83.10580966 288.67295719 86.10360527 288.66205978 C90.84894185 288.64564499 95.59403463 288.65418968 100.33937073 288.66690063 C112.97789943 288.696966 125.61638327 288.69556752 138.2549296 288.67664778 C146.56514683 288.6642999 154.87508646 288.66621433 163.1852718 288.69503558 C167.89747977 288.7102324 172.60893203 288.70284292 177.32109249 288.67832541 C180.25845131 288.66822152 183.19546707 288.67898199 186.1327858 288.69544029 C188.13269549 288.70051061 190.1326206 288.68082349 192.13243103 288.66026306 C199.42397771 288.72658367 204.54455286 289.39027997 210.125 294.3125 C215.33277394 299.7943673 216.42377503 304.78856913 216.39242554 312.18696594 C216.39695665 312.97371915 216.40148776 313.76047235 216.40615618 314.57106656 C216.41880389 317.20409452 216.41717958 319.83691574 216.41552734 322.4699707 C216.42151238 324.35918443 216.42831787 326.2483957 216.43588257 328.13760376 C216.45355277 333.26785958 216.4582384 338.39804869 216.45951414 343.528332 C216.46093578 346.73439684 216.46520563 349.94044472 216.47050858 353.14650536 C216.48901257 364.33392794 216.49717877 375.52130286 216.49560547 386.70874023 C216.49440413 397.13282312 216.51550411 407.55669892 216.5470928 417.9807294 C216.5732558 426.93375729 216.58397274 435.88671755 216.58269465 444.83978337 C216.582185 450.1854872 216.58786972 455.53100703 216.60905075 460.87667274 C216.62843332 465.90577303 216.62855737 470.9345138 216.61401749 475.96362686 C216.61192829 477.80665424 216.6166369 479.64970412 216.6287384 481.49269295 C216.64422166 484.01457657 216.63486312 486.53522527 216.61947632 489.05708313 C216.62976344 489.78132282 216.64005057 490.50556251 216.65064943 491.25174886 C216.57105322 497.18097128 214.81028866 502.46693672 210.6777128 506.84617025 C205.20829596 511.57099221 201.21173957 512.61043419 194.09936523 512.5871582 C193.29405365 512.59226913 192.48874207 512.59738007 191.6590271 512.60264587 C189.00047348 512.61653213 186.34217929 512.61558625 183.68359375 512.61328125 C181.83561608 512.6171679 179.98763931 512.6215025 178.1396637 512.62626648 C174.26861676 512.633726 170.39766103 512.63343875 166.52661133 512.62817383 C161.56083439 512.62237078 156.59542941 512.63933157 151.62971401 512.6625185 C147.8147818 512.67723162 143.99993976 512.67813101 140.18498421 512.67500877 C138.3537122 512.67552292 136.52243526 512.68077808 134.69119072 512.69082069 C132.13429234 512.70312492 129.57812644 512.69643069 127.02124023 512.68481445 C126.26219894 512.69245819 125.50315765 512.70010193 124.72111511 512.70797729 C119.61278986 512.65654848 119.61278986 512.65654848 117.15638733 510.92399597 C115.79291362 508.79363008 115.724825 507.32999977 115.75 504.8125 C115.74226563 504.0390625 115.73453125 503.265625 115.7265625 502.46875 C116.24364475 499.6704225 116.81257679 498.97958985 119.125 497.3125 C121.62441847 497.01336404 123.8783919 496.89536522 126.37866211 496.91186523 C127.11394638 496.90488617 127.84923065 496.8979071 128.60679626 496.89071655 C131.0387615 496.87071205 133.47030348 496.87123989 135.90234375 496.87109375 C137.59242399 496.85932437 139.28249382 496.84596122 140.97254944 496.83106995 C145.42454223 496.79484411 149.87644282 496.77467183 154.32855225 496.75952148 C161.45132405 496.7347151 168.57389192 496.69504648 175.69647408 496.63762093 C178.1848183 496.6212908 180.67297048 496.61751385 183.16136169 496.61460876 C184.68822562 496.60483148 186.21508653 496.59456804 187.74194336 496.58374023 C188.77928619 496.58756966 188.77928619 496.58756966 189.83758545 496.59147644 C193.5208362 496.55221993 195.92040116 496.0730231 199.125 494.3125 C199.14832615 469.94800078 199.16597777 445.58350322 199.17681217 421.21899509 C199.18197574 409.90697927 199.18901958 398.59497037 199.20043945 387.28295898 C199.21038445 377.42722298 199.21685299 367.57149199 199.21908849 357.71575111 C199.22039592 352.49378364 199.22348374 347.27183052 199.23073006 342.04986763 C199.23748737 337.14079892 199.23961755 332.23175054 199.23810768 327.32267761 C199.23838414 325.51541979 199.24039097 323.70816133 199.24420547 321.90090752 C199.24913823 319.44457875 199.24799985 316.98832804 199.24525452 314.53199768 C199.24816736 313.80730319 199.2510802 313.0826087 199.25408131 312.33595377 C199.52948218 309.04205107 199.52948218 309.04205107 198.125 306.3125 C196.49920782 306.18968048 194.86822996 306.13467496 193.23803711 306.10717773 C192.19703354 306.08723251 191.15602997 306.06728729 190.08348083 306.04673767 C188.9512056 306.03002518 187.81893036 306.01331268 186.65234375 305.99609375 C184.92317467 305.9649221 184.92317467 305.9649221 183.15907288 305.93312073 C179.46027843 305.86750036 175.76141041 305.80868245 172.0625 305.75 C169.56184121 305.70682665 167.06118999 305.66321276 164.56054688 305.61914062 C158.41544338 305.51180632 152.27026596 305.41006357 146.125 305.3125 C146.17140625 306.62605469 146.2178125 307.93960937 146.265625 309.29296875 C146.30315266 311.02862304 146.33955175 312.76430199 146.375 314.5 C146.40851563 315.36431641 146.44203125 316.22863281 146.4765625 317.11914062 C146.54187145 321.3805496 146.51571534 323.67768848 144.234375 327.38427734 C141.97739854 329.4474255 141.13462986 329.99628183 138.125 329.9375 C137.465 329.95039063 136.805 329.96328125 136.125 329.9765625 C134.125 329.3125 134.125 329.3125 130.125 324.3125 C130.125 318.0425 130.125 311.7725 130.125 305.3125 C112.965 305.3125 95.805 305.3125 78.125 305.3125 C78.125 327.0925 78.125 348.8725 78.125 371.3125 C84.725 367.0225 91.325 362.7325 98.125 358.3125 C106.55585622 357.3757382 108.68768292 357.21698016 115.125 361.3125 C115.69041504 361.66795898 116.25583008 362.02341797 116.83837891 362.38964844 C120.9631444 364.98684079 125.05184327 367.63520035 129.125 370.3125 C129.15078125 369.13171875 129.1765625 367.9509375 129.203125 366.734375 C129.25941397 365.17704677 129.31676114 363.61975653 129.375 362.0625 C129.38917969 361.28519531 129.40335937 360.50789063 129.41796875 359.70703125 C129.58006789 355.91391141 129.6713159 353.90930507 132.01953125 350.8203125 C134.51664356 349.03202799 136.05569136 348.46222237 139.125 348.3125 C142.93763347 349.37649073 143.87511007 349.9376651 146.125 353.3125 C146.56915 357.56883876 146.44910323 361.84805019 146.4375 366.125 C146.45361328 367.30126953 146.46972656 368.47753906 146.48632812 369.68945312 C146.49246293 380.54192751 146.49246293 380.54192751 143.125 385.3125 C139.16941003 388.97865656 135.48197728 390.27884271 130.1796875 390.1015625 C122.64797611 388.15603091 115.55201249 382.79199495 109.48242188 378.02148438 C107.80621945 376.68793709 107.80621945 376.68793709 105.125 375.3125 C100.18756244 376.16435271 95.58131755 380.13002841 91.4375 382.875 C89.91330148 383.87712551 88.38858641 384.87846593 86.86328125 385.87890625 C86.19337158 386.32177979 85.52346191 386.76465332 84.83325195 387.22094727 C80.45096678 390.02117551 76.21386344 389.86750661 71.125 389.3125 C66.06687843 386.92138799 64.21669261 384.41244722 62.125 379.3125 C61.76423645 375.78164673 61.76423645 375.78164673 61.78442383 371.83837891 C61.78398575 371.11573853 61.78354767 370.39309814 61.78309631 369.64855957 C61.7851734 367.27844488 61.80845223 364.90905242 61.83203125 362.5390625 C61.83763107 360.88854356 61.84189935 359.23801962 61.84489441 357.5874939 C61.85631283 353.25716222 61.88575387 348.92713555 61.91900635 344.59692383 C61.95518766 339.39397992 61.96888271 334.19093366 61.98636627 328.98789978 C62.01539329 321.09588815 62.07290093 313.20454489 62.125 305.3125 C44.965 305.6425 27.805 305.9725 10.125 306.3125 C8.63965187 309.28319626 8.98782152 312.30598314 8.99801636 315.56286621 C8.99645637 316.31862112 8.99489638 317.07437602 8.99328911 317.85303259 C8.9892837 320.39878604 8.992467 322.94448042 8.99560547 325.49023438 C8.99425123 327.30992162 8.99247116 329.12960859 8.99029541 330.94929504 C8.98572383 335.9016391 8.98750952 340.8539624 8.9906745 345.80630684 C8.99319951 350.97971784 8.99086016 356.15312702 8.98928833 361.32653809 C8.98746705 370.01570964 8.98987186 378.7048727 8.99462891 387.39404297 C9.00007145 397.45171905 8.99830876 407.50937487 8.9928025 417.56705046 C8.98827019 426.18955773 8.9876214 434.81205889 8.99024117 443.43456697 C8.99180329 448.59002293 8.99199947 453.74546934 8.98870468 458.90092468 C8.98582427 463.7468276 8.98780482 468.59270428 8.99359894 473.43860435 C8.99492562 475.2212539 8.99453397 477.00390565 8.99233627 478.78655434 C8.98962118 481.21177769 8.99301035 483.63691592 8.99801636 486.06213379 C8.99578564 486.7747693 8.99355491 487.48740481 8.99125659 488.22163534 C8.9585378 491.89050933 8.9585378 491.89050933 10.125 495.3125 C13.72431956 496.51227319 17.01484108 496.46488357 20.76171875 496.47021484 C21.5376236 496.47529556 22.31352844 496.48037628 23.11294556 496.48561096 C24.79734164 496.49630854 26.48175188 496.50493113 28.16616821 496.51173019 C30.8304997 496.52351713 33.49466895 496.54296784 36.15893555 496.56484985 C43.73383209 496.62648442 51.30871068 496.68057686 58.88378906 496.71386719 C63.51688976 496.73477737 68.1496925 496.77004707 72.78262329 496.81462479 C74.54965719 496.82881011 76.31674378 496.83751292 78.08383179 496.84067917 C80.55230044 496.84557171 83.01997348 496.86868436 85.48828125 496.89599609 C86.22084137 496.89298996 86.95340149 496.88998383 87.7081604 496.8868866 C92.64186161 496.96821783 92.64186161 496.96821783 95.07739258 498.70376587 C96.46315603 500.83178149 96.52526713 502.28578682 96.5 504.8125 C96.50773437 505.5859375 96.51546875 506.359375 96.5234375 507.15625 C96.02256692 509.86684375 95.26872116 510.614924 93.125 512.3125 C91.07294482 512.68854749 91.07294482 512.68854749 88.66524792 512.69002342 C87.74684193 512.69784666 86.82843594 512.70566991 85.88219947 512.71373022 C84.87171131 512.70703805 83.86122315 512.70034589 82.82011414 512.69345093 C81.21165791 512.70047089 81.21165791 512.70047089 79.57070762 512.70763266 C75.95936799 512.71964692 72.34840334 512.71010007 68.73706055 512.70068359 C66.15525083 512.7047465 63.57344285 512.71008679 60.99163818 512.71661377 C54.69539951 512.72997355 48.39926796 512.72706303 42.10302504 512.71837585 C36.98538494 512.71160671 31.8677749 512.71067925 26.75013161 512.7139473 C26.02235041 512.714407 25.29456921 512.71486669 24.54473403 512.71534032 C23.06632201 512.71629949 21.58791 512.71727213 20.109498 512.7182581 C6.23598551 512.72681903 -7.63746757 512.7169678 -21.51097032 512.700857 C-33.41448852 512.68746163 -45.31791894 512.68977408 -57.22143555 512.70361328 C-71.03990935 512.71967129 -84.858331 512.72598607 -98.67681283 512.71677649 C-100.15076998 512.71582084 -101.62472714 512.71487773 -103.09868431 512.7139473 C-103.82391608 512.71348447 -104.54914784 512.71302164 -105.29635632 512.71254479 C-110.40617953 512.70995493 -115.51596965 512.71432599 -120.62578773 512.72138596 C-127.5064716 512.73068343 -134.38698691 512.72405412 -141.26765442 512.70670319 C-143.79523633 512.70273187 -146.32283216 512.70388337 -148.85040855 512.71049118 C-152.29684945 512.71867121 -155.74275645 512.70842709 -159.18916321 512.69345093 C-160.1929592 512.70014309 -161.1967552 512.70683526 -162.23096925 512.71373022 C-168.41573249 512.66149164 -172.93053391 511.96755275 -177.703125 507.6640625 C-178.40695313 506.80941406 -178.40695313 506.80941406 -179.125 505.9375 C-179.60453125 505.37289063 -180.0840625 504.80828125 -180.578125 504.2265625 C-183.18003207 500.38639845 -184.12446554 496.86901983 -184.14242554 492.26322937 C-184.15095551 491.26978012 -184.15948547 490.27633087 -184.16827393 489.2527771 C-184.16736755 488.17380157 -184.16646118 487.09482605 -184.16552734 485.9831543 C-184.17224457 484.83769638 -184.17896179 483.69223846 -184.18588257 482.5120697 C-184.20489653 478.72024198 -184.20878958 474.92859121 -184.2109375 471.13671875 C-184.21736684 468.49176461 -184.2240953 465.84681118 -184.23110962 463.20185852 C-184.2438978 457.64945328 -184.24687543 452.09709571 -184.24560547 446.54467773 C-184.24440956 440.16512312 -184.26540159 433.78590985 -184.2970928 427.40644139 C-184.32343638 421.90378467 -184.33396501 416.40123798 -184.33269465 410.89851886 C-184.33218952 407.6238292 -184.33951521 404.34950579 -184.35905075 401.07486534 C-184.44975278 384.28861588 -184.33670716 368.26189107 -176.25 353.0625 C-175.90936523 352.40757568 -175.56873047 351.75265137 -175.21777344 351.07788086 C-161.39201503 325.54502775 -136.04806848 318.02051042 -110.625 308.25 C-107.37405555 306.99689133 -104.12349034 305.7428025 -100.87295532 304.4886322 C-98.69585662 303.64872992 -96.51859069 302.80926098 -94.34115601 301.9702301 C-87.47617464 299.3232949 -80.62102494 296.65252579 -73.7734375 293.9609375 C-72.09409377 293.30211819 -70.41473237 292.64334392 -68.73535156 291.98461914 C-66.38524386 291.06264415 -64.03579606 290.13916238 -61.68835449 289.2104187 C-59.56739008 288.37150949 -57.44414777 287.53863967 -55.3203125 286.70703125 C-54.13969238 286.24143799 -52.95907227 285.77584473 -51.74267578 285.29614258 C-48.875 284.3125 -48.875 284.3125 -45.875 284.3125 C-45.08910832 273.20373256 -45.08910832 273.20373256 -49.109375 263.27734375 C-51.01257474 261.66067546 -52.96284999 260.09801847 -54.953125 258.58984375 C-66.91923486 249.26331695 -72.31690094 233.47190958 -75.875 219.3125 C-76.07480469 218.5184375 -76.27460938 217.724375 -76.48046875 216.90625 C-76.61066406 216.3803125 -76.74085938 215.854375 -76.875 215.3125 C-77.57625 215.15394531 -78.2775 214.99539062 -79 214.83203125 C-91.13601421 211.84749515 -98.79892153 206.19981633 -105.58203125 195.6328125 C-109.05379438 189.40251854 -109.7519382 182.33832249 -108.875 175.3125 C-108.01450237 172.38057822 -106.99849016 169.58746147 -105.84765625 166.7578125 C-104.22275808 162.67272714 -103.77078118 160.54785985 -104.875 156.3125 C-104.96849326 153.9806682 -105.00494428 151.64620009 -105 149.3125 C-105.00257813 148.095625 -105.00515625 146.87875 -105.0078125 145.625 C-104.875 142.3125 -104.875 142.3125 -104.37988281 140.48901367 C-103.7304667 137.68942727 -103.7105445 135.04934973 -103.6640625 132.17578125 C-102.9275957 97.96313639 -96.7711256 71.2405932 -71.421875 46.62109375 C-60.43410707 36.66132252 -41.20528461 24.64956877 -25.875 25.3125 C-25.84921875 24.67183594 -25.8234375 24.03117187 -25.796875 23.37109375 C-25.26698136 15.29021567 -23.45653955 10.41596334 -17.375 5 C-11.68987625 0.28393143 -7.194447 -0.02595399 0 0 Z M-7.875 18.3125 C-8.535 19.9625 -9.195 21.6125 -9.875 23.3125 C-3.275 23.3125 3.325 23.3125 10.125 23.3125 C8.88546236 17.44522957 8.88546236 17.44522957 5.875 15.9375 C0.40552465 14.69443742 -3.38368817 14.69449881 -7.875 18.3125 Z M-20.875 40.3125 C-22.28365641 42.33688043 -23.49887934 44.28860729 -24.6875 46.4375 C-25.0378833 47.06785156 -25.3882666 47.69820312 -25.74926758 48.34765625 C-35.22819755 65.80600003 -40.50156221 85.41845043 -40.875 105.3125 C-39.72644531 105.17972656 -38.57789063 105.04695313 -37.39453125 104.91015625 C-15.08318169 102.35711625 6.29716969 101.56808385 28.65332031 104.04248047 C32.80744768 104.4962996 36.96634597 104.90259287 41.125 105.3125 C41.53645668 84.73966616 35.18761422 56.08082214 21.125 40.3125 C17.4009209 39.0711403 13.94055854 39.16939313 10.0625 39.1796875 C9.27480225 39.17873077 8.48710449 39.17777405 7.67553711 39.17678833 C6.01122966 39.17610826 4.34691953 39.17795047 2.68261719 39.18212891 C0.13470504 39.18747962 -2.41303083 39.18217808 -4.9609375 39.17578125 C-6.57812539 39.17644206 -8.19531317 39.17772329 -9.8125 39.1796875 C-10.95634155 39.17665115 -10.95634155 39.17665115 -12.12329102 39.17355347 C-15.30646916 39.18766906 -17.83272317 39.29840772 -20.875 40.3125 Z M-64.25 62.25 C-80.15785492 79.00593119 -87.25325858 99.44887011 -86.875 122.3125 C-83.95178828 121.17380706 -81.06834276 119.96753016 -78.203125 118.69140625 C-77.20539063 118.24764648 -77.20539063 118.24764648 -76.1875 117.79492188 C-74.82698317 117.18810045 -73.46757866 116.57877817 -72.109375 115.96679688 C-67.12493573 113.75734831 -62.07229873 111.9564972 -56.875 110.3125 C-56.78863281 109.06339844 -56.70226562 107.81429687 -56.61328125 106.52734375 C-55.19064791 88.13140785 -52.05185881 70.32082086 -45.01171875 53.19921875 C-43.7528692 50.51942364 -43.7528692 50.51942364 -43.875 48.3125 C-50.49608255 48.3125 -59.80556791 57.93548208 -64.25 62.25 Z M44.125 48.3125 C44.31610352 48.84915283 44.50720703 49.38580566 44.70410156 49.9387207 C50.96353097 67.67565381 55.08039825 84.79015625 56.73046875 103.53125 C56.97932326 107.23558694 56.97932326 107.23558694 58.125 110.3125 C59.97440064 111.40622383 59.97440064 111.40622383 62.28125 112.21484375 C63.13976562 112.54806641 63.99828125 112.88128906 64.8828125 113.22460938 C65.78773438 113.56298828 66.69265625 113.90136719 67.625 114.25 C69.38608302 114.92404284 71.14650486 115.59981576 72.90625 116.27734375 C73.76992188 116.60847168 74.63359375 116.93959961 75.5234375 117.28076172 C79.445658 118.83625194 83.28900898 120.55667932 87.125 122.3125 C88.17935117 99.1558243 80.82786375 80.4854281 65.4921875 63.375 C59.69884306 57.30106623 53.61462154 52.18279825 46.125 48.3125 C45.465 48.3125 44.805 48.3125 44.125 48.3125 Z M-87.875 142.3125 C-89.72246521 146.00743043 -89.2169438 150.27134604 -88.875 154.3125 C-87.23330998 158.97835583 -85.23300767 161.90168725 -80.875 164.3125 C-71.506779 166.15514641 -63.64578633 161.67318829 -55.48046875 157.6328125 C-23.51151654 141.93624597 8.22934069 140.00440806 41.81054688 151.46240234 C47.77740231 153.65402583 53.43459951 156.49676673 59.125 159.3125 C69.66193993 164.42243359 69.66193993 164.42243359 81.125 164.3125 C85.01011072 162.2651595 87.49391444 159.37192818 89.125 155.3125 C89.55151348 152.66759392 89.55151348 152.66759392 89.5625 149.875 C89.60246094 148.94816406 89.64242187 148.02132812 89.68359375 147.06640625 C88.67296967 142.08395886 84.99141704 139.91199601 80.98046875 137.13671875 C34.96963721 109.53658811 -44.52950514 107.03128325 -87.875 142.3125 Z M-11.875 159.5 C-12.60775146 159.6330957 -13.34050293 159.76619141 -14.09545898 159.90332031 C-30.70128261 163.08873096 -45.8572417 169.72055803 -60.875 177.3125 C-60.97571218 181.86159172 -61.04731139 186.41000101 -61.09472656 190.95996094 C-61.11454171 192.49978977 -61.1416021 194.03954658 -61.17675781 195.57910156 C-61.60635681 214.91105654 -57.87650662 231.59918522 -44.15234375 246.03125 C-43.40082031 246.7840625 -42.64929688 247.536875 -41.875 248.3125 C-41.23691406 248.9621875 -40.59882813 249.611875 -39.94140625 250.28125 C-30.37336225 259.35199442 -16.96497448 264.48497288 -3.875 265.3125 C-3.14023438 265.36535156 -2.40546875 265.41820312 -1.6484375 265.47265625 C14.38295682 266.07318079 29.91225322 259.98805837 42.0625 249.6875 C52.87764713 239.06780734 60.78719295 224.83498965 61.23852539 209.44018555 C61.23836843 207.94318728 61.23280036 206.44618266 61.22265625 204.94921875 C61.2212413 204.15723587 61.21982635 203.36525299 61.21836853 202.54927063 C61.21279457 200.03280781 61.20024693 197.51643569 61.1875 195 C61.18248163 193.28841275 61.17791931 191.57682409 61.17382812 189.86523438 C61.16283368 185.68095492 61.14558707 181.49674281 61.125 177.3125 C38.77753641 165.81811601 13.81535472 154.82516291 -11.875 159.5 Z M-91.875 176.3125 C-93.09120026 177.295492 -93.09120026 177.295492 -92.89453125 179.16796875 C-92.27859437 186.10597469 -90.15686077 190.40336178 -84.9375 195.125 C-81.79853158 197.68344307 -81.79853158 197.68344307 -76.875 198.3125 C-76.875 192.3725 -76.875 186.4325 -76.875 180.3125 C-78.421875 180.02375 -79.96875 179.735 -81.5625 179.4375 C-85.19200003 178.71674822 -88.50407984 177.88559607 -91.875 176.3125 Z M86.26953125 178.55859375 C84.125 179.3125 84.125 179.3125 77.125 180.3125 C77.125 186.2525 77.125 192.1925 77.125 198.3125 C82.98833237 197.13983353 86.87944636 195.38536288 90.4609375 190.484375 C93.15095809 185.6385223 93.51681134 181.79785875 93.125 176.3125 C90.48397209 176.3125 88.6076236 177.42513915 86.26953125 178.55859375 Z M-29.875 275.3125 C-29.92398438 276.16972656 -29.97296875 277.02695312 -30.0234375 277.91015625 C-30.09820312 279.05355469 -30.17296875 280.19695312 -30.25 281.375 C-30.31960937 282.50035156 -30.38921875 283.62570312 -30.4609375 284.78515625 C-30.875 288.3125 -30.875 288.3125 -32.234375 291.83203125 C-33.29858159 295.44070216 -33.29858159 295.44070216 -30.8671875 298.6015625 C-29.85140216 299.73484477 -28.81049361 300.84594063 -27.75 301.9375 C-27.20754639 302.52998535 -26.66509277 303.1224707 -26.10620117 303.73291016 C-24.96349151 304.976123 -23.81079498 306.210221 -22.64892578 307.43554688 C-20.88331864 309.30369823 -19.15469684 311.20021906 -17.43359375 313.109375 C-14.61905175 316.21711582 -11.80753858 319.31523646 -8.875 322.3125 C-8.545 322.3125 -8.215 322.3125 -7.875 322.3125 C-7.83761719 321.16652344 -7.80023438 320.02054687 -7.76171875 318.83984375 C-7.69601416 317.30986554 -7.62956841 315.77991903 -7.5625 314.25 C-7.53994141 313.49783203 -7.51738281 312.74566406 -7.49414062 311.97070312 C-7.14423849 304.6227583 -5.12907368 298.71669007 0.125 293.3125 C5.93024046 289.33537546 12.21965691 289.75892326 19 289.625 C20.74796875 289.57375977 20.74796875 289.57375977 22.53125 289.52148438 C25.39550179 289.43931322 28.26023461 289.37422229 31.125 289.3125 C30.795 284.6925 30.465 280.0725 30.125 275.3125 C29.135 275.58964844 28.145 275.86679687 27.125 276.15234375 C7.15599608 281.66906261 -10.01167742 280.43420874 -29.875 275.3125 Z M-54.2265625 303.84375 C-55.50273437 304.31748047 -55.50273437 304.31748047 -56.8046875 304.80078125 C-57.69414062 305.13464844 -58.58359375 305.46851563 -59.5 305.8125 C-60.84578125 306.31330078 -60.84578125 306.31330078 -62.21875 306.82421875 C-64.4385959 307.65075712 -66.65727218 308.48029874 -68.875 309.3125 C-68.875 313.44185477 -66.65969324 315.00792459 -63.9375 317.8125 C-60.25923832 321.7035146 -56.72515763 325.62936307 -53.375 329.8125 C-48.47850302 335.89979661 -43.20359205 341.60542852 -37.875 347.3125 C-32.14945024 343.05343983 -26.49507798 338.70969064 -20.875 334.3125 C-22.53577998 330.16558272 -25.5348319 327.24538575 -28.5625 324.0625 C-29.6530912 322.89913775 -30.7429384 321.73507757 -31.83203125 320.5703125 C-32.35748535 320.00989258 -32.88293945 319.44947266 -33.42431641 318.87207031 C-36.92179355 315.11207637 -40.28930257 311.23299665 -43.55859375 307.2734375 C-44.09613281 306.62632812 -44.63367188 305.97921875 -45.1875 305.3125 C-45.89326172 304.44625 -45.89326172 304.44625 -46.61328125 303.5625 C-49.00617601 301.19183027 -51.413273 302.79345525 -54.2265625 303.84375 Z M-86.875 316.3125 C-93.24565703 318.77761392 -99.61330675 321.25037807 -105.97900391 323.72827148 C-108.14109255 324.56886857 -110.30384275 325.40776629 -112.46728516 326.24487305 C-115.59196185 327.45426267 -118.7141417 328.66991501 -121.8359375 329.88671875 C-122.79051849 330.25464035 -123.74509949 330.62256195 -124.72860718 331.00163269 C-135.75743929 335.31627867 -144.44082397 339.89296663 -152.875 348.3125 C-153.4525 348.87839844 -154.03 349.44429688 -154.625 350.02734375 C-165.09982039 361.18411859 -168.3372102 376.35742099 -168.29492188 391.18383789 C-168.30339142 392.30243195 -168.31186096 393.421026 -168.32058716 394.57351685 C-168.34376664 398.22751582 -168.34498472 401.88108973 -168.34375 405.53515625 C-168.35085708 408.08914862 -168.35855687 410.64313941 -168.36682129 413.1971283 C-168.38021777 418.52689697 -168.38203677 423.85651068 -168.37597656 429.1862793 C-168.36930321 435.3453678 -168.39235604 441.50386242 -168.42929029 447.66283041 C-168.46363647 453.60664637 -168.47032982 459.55027793 -168.46620178 465.49419975 C-168.46789802 468.01767191 -168.47758857 470.54115159 -168.49534607 473.06456184 C-168.51737886 476.57876819 -168.50791657 480.09151335 -168.49023438 483.60571289 C-168.50349762 484.65140945 -168.51676086 485.69710602 -168.53042603 486.77449036 C-168.59963594 492.11129549 -168.59963594 492.11129549 -165.9276123 496.46336365 C-161.6960979 497.64043179 -157.79078891 497.68320317 -153.41796875 497.60546875 C-152.51500565 497.60122391 -151.61204254 497.59697906 -150.68171692 497.59260559 C-147.8083365 497.57586311 -144.93566709 497.53821916 -142.0625 497.5 C-140.1100362 497.48494743 -138.15756136 497.47126003 -136.20507812 497.45898438 C-131.42811303 497.42597408 -126.65167691 497.37422235 -121.875 497.3125 C-121.86913376 496.00371384 -121.86326752 494.69492767 -121.85722351 493.34648132 C-121.80008267 481.02987997 -121.72736652 468.71345666 -121.63928509 456.39703655 C-121.59450205 450.06458997 -121.55526344 443.73220891 -121.52856445 437.3996582 C-121.50261066 431.29171761 -121.4622646 425.18402812 -121.41181374 419.07624245 C-121.3950913 416.74261402 -121.38361064 414.40894211 -121.37738609 412.07526207 C-121.36780348 408.81382108 -121.33981405 405.55303034 -121.30737305 402.29174805 C-121.30880814 401.32070633 -121.31024323 400.34966461 -121.3117218 399.34919739 C-121.29918365 398.46158722 -121.28664551 397.57397705 -121.27372742 396.6594696 C-121.26681397 395.50215851 -121.26681397 395.50215851 -121.25976086 394.3214674 C-120.76681631 391.74763611 -119.96265001 390.86367973 -117.875 389.3125 C-114.17291907 388.84132606 -111.8772316 388.67033052 -108.6864624 390.71478271 C-105.89267395 394.72119905 -106.30402564 398.53745403 -106.32910156 403.31347656 C-106.31876389 404.32843201 -106.30842621 405.34338745 -106.29777527 406.38909912 C-106.26827716 409.74393502 -106.26684657 413.09816944 -106.265625 416.453125 C-106.25064814 418.77912553 -106.23392205 421.1051154 -106.21551514 423.43109131 C-106.17177424 429.55326823 -106.15182745 435.67530169 -106.13677979 441.79760742 C-106.11379649 449.14321206 -106.06135917 456.48865795 -106.01383972 463.83413696 C-105.94495394 474.99363285 -105.91356195 486.15267246 -105.875 497.3125 C-73.205 497.3125 -40.535 497.3125 -6.875 497.3125 C-7.205 446.8225 -7.535 396.3325 -7.875 344.3125 C-12.8231266 347.57205778 -12.8231266 347.57205778 -17.27734375 351.22265625 C-17.85806641 351.73763672 -18.43878906 352.25261719 -19.03710938 352.78320312 C-20.22048632 353.84420666 -21.40018934 354.9093222 -22.57617188 355.97851562 C-27.02030709 359.90096941 -31.21033147 362.81743769 -37.24609375 363.6328125 C-43.94679318 362.99947607 -47.34084511 360.10043221 -51.875 355.3125 C-52.6690625 354.47976563 -53.463125 353.64703125 -54.28125 352.7890625 C-58.44375654 348.3053749 -62.41083414 343.70000955 -66.25 338.9375 C-72.66311515 330.99255342 -79.63861526 323.51222528 -86.875 316.3125 Z " fill="#000000" transform="translate(239.875,-0.3125)"/>
<path d="M0 0 C1.04796249 -0.00630432 2.09592499 -0.01260864 3.17564392 -0.019104 C4.87256126 -0.01303131 4.87256126 -0.01303131 6.60375977 -0.00683594 C8.34774803 -0.00970612 8.34774803 -0.00970612 10.12696838 -0.01263428 C12.58741472 -0.01399615 15.04786823 -0.01029956 17.50830078 -0.00195312 C21.27661283 0.00873643 25.04444707 -0.00184366 28.81274414 -0.01464844 C31.20141707 -0.01332665 33.5900897 -0.01076387 35.97875977 -0.00683594 C37.10801376 -0.0108844 38.23726776 -0.01493286 39.40074158 -0.019104 C40.45185623 -0.01279968 41.50297089 -0.00649536 42.5859375 0 C43.50954575 0.00159119 44.43315399 0.00318237 45.38475037 0.00482178 C48.01510309 0.27495778 49.62313583 0.86991926 51.85766602 2.25878906 C53.95446004 4.9546671 53.85277423 6.35173306 53.67016602 9.82128906 C52.62863309 14.22777452 52.62863309 14.22777452 49.85766602 16.25878906 C47.39784241 16.64646912 47.39784241 16.64646912 44.43994141 16.6628418 C42.77790428 16.68186806 42.77790428 16.68186806 41.08229065 16.70127869 C39.88539108 16.69834305 38.68849152 16.69540741 37.45532227 16.69238281 C35.6114518 16.70024559 35.6114518 16.70024559 33.73033142 16.70826721 C30.46185769 16.71634328 27.19380204 16.70920855 23.925354 16.69793701 C20.60644437 16.69520939 17.28778025 16.73038407 13.96899414 16.75683594 C11.44360395 16.7584481 8.91821121 16.75787014 6.39282227 16.75488281 C4.60050926 16.77173378 4.60050926 16.77173378 2.77198792 16.78892517 C1.660811 16.77954422 0.54963409 16.77016327 -0.59521484 16.76049805 C-1.57211777 16.76033188 -2.54902069 16.76016571 -3.55552673 16.75999451 C-6.87536176 16.11676166 -8.04597556 14.85610897 -10.14233398 12.25878906 C-11.07983398 9.82128906 -11.07983398 9.82128906 -11.14233398 7.25878906 C-8.6125158 1.81967996 -5.92529298 0.01021686 0 0 Z " fill="#000000" transform="translate(274.142333984375,464.7412109375)"/>
<path d="M0 0 C1.00461777 -0.00630432 2.00923553 -0.01260864 3.04429626 -0.019104 C4.12352859 -0.01505554 5.20276093 -0.01100708 6.31469727 -0.00683594 C7.4291774 -0.00874939 8.54365753 -0.01066284 9.69190979 -0.01263428 C12.04802679 -0.01399482 14.40415132 -0.01030753 16.76025391 -0.00195312 C20.36385992 0.0087379 23.96696625 -0.00184793 27.57055664 -0.01464844 C29.86027128 -0.01332662 32.14998561 -0.01076377 34.43969727 -0.00683594 C36.05550941 -0.01290863 36.05550941 -0.01290863 37.70396423 -0.019104 C38.71173416 -0.01279968 39.71950409 -0.00649536 40.7578125 0 C41.64065414 0.00159119 42.52349579 0.00318237 43.43309021 0.00482178 C46.26055319 0.29085217 48.38891911 1.02845391 50.94360352 2.25878906 C53.11079557 4.91852477 52.93895215 6.34716503 52.75610352 9.82128906 C51.71413118 14.22963358 51.71413118 14.22963358 48.94360352 16.25878906 C46.48377991 16.63973999 46.48377991 16.63973999 43.52587891 16.64697266 C42.41785416 16.65642914 41.30982941 16.66588562 40.16822815 16.67562866 C38.97132858 16.66955597 37.77442902 16.66348328 36.54125977 16.65722656 C34.6973893 16.66153183 34.6973893 16.66153183 32.81626892 16.66592407 C29.547782 16.66849079 26.27972172 16.65640604 23.0112915 16.63964844 C19.69245035 16.62995043 16.37373323 16.65295109 13.05493164 16.66894531 C10.52953877 16.66696266 8.00414654 16.66311852 5.47875977 16.65722656 C4.28388443 16.66329926 3.08900909 16.66937195 1.85792542 16.67562866 C0.7467485 16.66617218 -0.36442841 16.6567157 -1.50927734 16.64697266 C-2.48618027 16.64458588 -3.46308319 16.6421991 -4.46958923 16.63973999 C-7.50510439 16.19270927 -8.86427924 15.3785919 -11.05639648 13.25878906 C-12.22019529 9.68980605 -12.36560086 7.97484129 -10.86889648 4.50878906 C-7.76153632 0.65137645 -4.83731434 0.00872638 0 0 Z " fill="#000000" transform="translate(275.056396484375,439.7412109375)"/>
<path d="M0 0 C1.69229485 -0.02409439 1.69229485 -0.02409439 3.41877747 -0.04867554 C8.58792417 -0.09293574 13.7569804 -0.13464092 18.92626953 -0.15722656 C22.33301989 -0.17386267 25.73880051 -0.21862395 29.14518452 -0.26959801 C32.39444888 -0.31136844 35.64382117 -0.31840983 38.89331055 -0.33056641 C40.11633377 -0.35323578 41.33935699 -0.37590515 42.59944153 -0.39926147 C43.73709457 -0.39641144 44.87474762 -0.3935614 46.046875 -0.390625 C47.04757523 -0.39871185 48.04827545 -0.40679871 49.07929993 -0.41513062 C51.7175293 0.19287109 51.7175293 0.19287109 54.07585144 2.5027771 C55.7175293 5.19287109 55.7175293 5.19287109 55.6550293 8.81787109 C54.71775808 12.19204747 54.43923171 13.19231662 51.7175293 15.19287109 C49.2130127 15.57382202 49.2130127 15.57382202 46.19213867 15.58105469 C44.49522888 15.59523941 44.49522888 15.59523941 42.76403809 15.60971069 C41.54212769 15.603638 40.32021729 15.59756531 39.0612793 15.59130859 C37.8074646 15.59417877 36.5536499 15.59704895 35.26184082 15.6000061 C32.60857179 15.60204937 29.95612958 15.59800577 27.30297852 15.58398438 C23.90311296 15.56689195 20.50395784 15.57673426 17.10411835 15.59470177 C13.86064652 15.60815199 10.61726039 15.59873343 7.3737793 15.59130859 C5.5409137 15.60041763 5.5409137 15.60041763 3.67102051 15.60971069 C2.53974731 15.60025421 1.40847412 15.59079773 0.24291992 15.58105469 C-0.75396851 15.57866791 -1.75085693 15.57628113 -2.7779541 15.57382202 C-5.2824707 15.19287109 -5.2824707 15.19287109 -7.07312012 13.84829712 C-8.92128776 11.31842294 -9.15825117 9.29835946 -9.2824707 6.19287109 C-6.69737807 0.90518162 -5.73832009 0.07392184 0 0 Z " fill="#000000" transform="translate(272.282470703125,415.80712890625)"/>
<path d="M0 0 C1.04269043 -0.00574036 1.04269043 -0.00574036 2.10644531 -0.01159668 C3.57228041 -0.0143118 5.03816428 -0.00697835 6.50390625 0.00976562 C8.74328975 0.03118581 10.97946587 0.00995557 13.21875 -0.015625 C14.64584039 -0.01298165 16.07292879 -0.0078565 17.5 0 C19.44132812 0.00676758 19.44132812 0.00676758 21.421875 0.01367188 C25.25890965 0.61039381 26.44399306 1.47096506 28.75 4.53125 C29.45882303 7.43909881 29.08971789 9.473789 28.75 12.53125 C26.93836733 15.20556489 25.87238923 15.49045359 22.75 16.53125 C18.12916564 16.79420488 13.50250217 16.76272146 8.875 16.78125 C6.95494141 16.8121875 6.95494141 16.8121875 4.99609375 16.84375 C3.76246094 16.84890625 2.52882812 16.8540625 1.2578125 16.859375 C0.13004395 16.8687207 -0.99772461 16.87806641 -2.15966797 16.88769531 C-5.61225164 16.48946714 -7.47932854 15.59340774 -10.25 13.53125 C-11.79586876 10.43951248 -11.54359521 7.93695448 -11.25 4.53125 C-8.07869482 0.0906319 -5.2658092 0.0183569 0 0 Z " fill="#000000" transform="translate(231.25,69.46875)"/>
</svg>
