<?xml version="1.0" encoding="UTF-8"?>
<svg version="1.1" xmlns="http://www.w3.org/2000/svg" width="512" height="512">
<path d="M0 0 C1.35776433 -0.00679667 1.35776433 -0.00679667 2.74295825 -0.01373065 C5.77674469 -0.02639316 8.81035204 -0.02475307 11.84416199 -0.02310181 C14.01908601 -0.02908591 16.19400791 -0.03589118 18.368927 -0.04345703 C24.27808187 -0.06113653 30.18717883 -0.06581325 36.09635758 -0.0670886 C41.0292372 -0.06898739 45.96210332 -0.07634473 50.89497775 -0.08343279 C62.53364507 -0.09972186 74.17228145 -0.10460128 85.81095886 -0.10317993 C97.81645344 -0.10197844 109.82174323 -0.12308076 121.82719499 -0.15466726 C132.13477512 -0.18082014 142.44229652 -0.19154763 152.74990958 -0.19026911 C158.90602827 -0.18975918 165.06198725 -0.19545984 171.21807289 -0.21662521 C177.00883801 -0.23599071 182.79929077 -0.23614337 188.59006691 -0.22159195 C190.71367855 -0.21950066 192.83730965 -0.22422376 194.96088791 -0.23631287 C197.86369618 -0.25176574 200.76542754 -0.24245658 203.66821289 -0.22705078 C204.50529008 -0.23733791 205.34236727 -0.24762503 206.20481044 -0.25822389 C212.9627025 -0.17916055 218.15925261 1.7565185 223.26676941 6.23226929 C229.21168548 13.41452435 231.14158369 19.47590412 231.15829468 28.86369324 C231.16255966 29.95277481 231.16682465 31.04185638 231.17121887 32.16394043 C231.17076569 33.34382538 231.1703125 34.52371033 231.16984558 35.73934937 C231.1748835 37.62092491 231.1748835 37.62092491 231.18002319 39.54051208 C231.18788071 42.97042233 231.19119992 46.40027203 231.19183898 49.83018708 C231.19255142 51.97676173 231.19468943 54.1233301 231.1973362 56.26990318 C231.20657896 63.76916276 231.21067247 71.2684046 231.20988464 78.76766968 C231.20928429 85.7408732 231.2198305 92.71399927 231.23562831 99.6871832 C231.24873577 105.68824812 231.25406719 111.68928781 231.25342923 117.69036692 C231.25317517 121.2681979 231.25597556 124.84596 231.26660728 128.42377663 C231.27815407 132.41834368 231.27352188 136.41273889 231.26750183 140.40731812 C231.27312134 141.58113037 231.27874084 142.75494263 231.28453064 143.96432495 C231.2466247 153.88289436 230.77149148 162.56156532 223.38395691 169.89633179 C217.62527687 175.09166269 213.01858112 176.58665423 205.21208191 176.39242554 C204.51921082 176.3834021 203.82633972 176.37437866 203.11247253 176.36508179 C201.41635796 176.3416871 199.7204232 176.30582194 198.02458191 176.26742554 C198.02826908 176.9145752 198.03195625 177.56172485 198.03575516 178.22848511 C198.12419985 193.99534321 198.1903369 209.76211469 198.2318306 225.52915955 C198.25243144 233.15408249 198.28050434 240.77883955 198.32633972 248.40365601 C198.36628374 255.05161593 198.39203273 261.69945568 198.40093589 268.34753227 C198.40613794 271.86574053 198.41831209 275.38360508 198.44750214 278.90170288 C198.47986956 282.83487251 198.48053646 286.76770985 198.47868347 290.70101929 C198.49306458 291.85980087 198.50744568 293.01858246 198.52226257 294.21247864 C198.4823222 302.05428792 197.37199473 307.44751508 192.05973816 313.50961304 C191.4087616 314.04844116 190.75778503 314.58726929 190.08708191 315.14242554 C189.43868347 315.69672241 188.79028503 316.25101929 188.12223816 316.82211304 C183.49078633 320.01324372 179.53788183 320.51842161 173.96609783 320.52469444 C172.9125591 320.52995355 172.9125591 320.52995355 171.83773676 320.53531891 C169.47844625 320.54464097 167.11940215 320.53970757 164.76010132 320.53485107 C163.05381818 320.53858693 161.34753676 320.54318819 159.64125806 320.54858172 C154.94772858 320.56083513 150.25427026 320.5605485 145.56072843 320.55819297 C140.50061844 320.55778539 135.44053145 320.56881827 130.38043213 320.57830811 C120.46494887 320.59493187 110.54948938 320.60041827 100.63399335 320.60153286 C92.57544313 320.60248268 84.51690077 320.60658963 76.45835304 320.61293411 C53.61867834 320.63055021 30.77902245 320.6397724 7.93934091 320.63827316 C6.09180986 320.6381533 6.09180986 320.6381533 4.20695496 320.63803101 C2.97376643 320.63794924 1.74057791 320.63786748 0.47002003 320.63778324 C-19.51878975 320.63697022 -39.50752419 320.65611109 -59.49631218 320.68430774 C-80.01301963 320.71302107 -100.52969031 320.72684889 -121.04641837 320.72512019 C-132.56807522 320.72445575 -144.08965311 320.72997141 -155.61129189 320.75147629 C-165.42065187 320.76966767 -175.22989709 320.77405222 -185.03926662 320.76045744 C-190.04480646 320.75391751 -195.05012597 320.7538476 -200.05564499 320.77116394 C-204.63826324 320.78685433 -209.22048575 320.78407236 -213.80309411 320.76659568 C-215.46054749 320.76351688 -217.11803011 320.76719121 -218.77544902 320.77831583 C-228.29414846 320.83797197 -235.73078718 320.86333033 -243.21760559 314.30258179 C-243.75643372 313.65160522 -244.29526184 313.00062866 -244.85041809 312.32992554 C-245.40471497 311.6815271 -245.95901184 311.03312866 -246.53010559 310.36508179 C-249.20680941 306.48024409 -250.22474027 302.97501081 -250.2361145 298.28253174 C-250.24319931 297.30395203 -250.25028412 296.32537231 -250.25758362 295.31713867 C-250.2551062 294.25514252 -250.25262878 293.19314636 -250.25007629 292.09896851 C-250.25518723 290.97164307 -250.26029816 289.84431763 -250.26556396 288.68283081 C-250.2794592 284.95837084 -250.27850368 281.23409584 -250.27619934 277.50961304 C-250.28008534 274.92319673 -250.28441981 272.33678105 -250.28918457 269.75036621 C-250.29664594 264.33171243 -250.29649357 258.91313047 -250.29109192 253.49447632 C-250.28504277 247.22946163 -250.29738978 240.96467099 -250.31866199 234.69969451 C-250.33838289 228.66992864 -250.34145443 222.64028043 -250.33792686 216.61047745 C-250.33844146 214.04515175 -250.34370502 211.47982257 -250.35373878 208.91451645 C-250.36602385 205.33519757 -250.35935972 201.75640347 -250.34773254 198.17709351 C-250.35919815 196.57802658 -250.35919815 196.57802658 -250.37089539 194.94665527 C-250.36388107 193.97371521 -250.35686676 193.00077515 -250.34963989 191.99835205 C-250.34980763 191.15218763 -250.34997538 190.30602322 -250.3501482 189.43421745 C-249.88454039 186.74194584 -249.14649508 185.88716902 -246.97541809 184.26742554 C-242.97910453 183.23134424 -240.86816159 182.84046126 -237.10041809 184.64242554 C-234.97541809 186.26742554 -234.97541809 186.26742554 -233.97541809 187.26742554 C-233.87217587 188.67268807 -233.83747838 190.08306252 -233.83065796 191.49209595 C-233.82375946 192.4033876 -233.81686096 193.31467926 -233.80975342 194.25358582 C-233.80714005 195.26136581 -233.80452667 196.26914581 -233.80183411 197.3074646 C-233.79514709 198.36271835 -233.78846008 199.41797211 -233.78157043 200.50520325 C-233.76748162 202.80568519 -233.7555999 205.10618143 -233.74562263 207.40668488 C-233.72926648 211.04592551 -233.70602998 214.68506055 -233.6807251 218.32424927 C-233.60980727 228.67455821 -233.549844 239.02491102 -233.49861145 249.37533569 C-233.46682992 255.69834226 -233.42555206 262.02122926 -233.37841606 268.3441391 C-233.36238601 270.75706582 -233.3500691 273.17002014 -233.34150887 275.58298492 C-233.32936336 278.95871621 -233.30521497 282.33416633 -233.27839661 285.70980835 C-233.27780746 286.70949142 -233.27721832 287.7091745 -233.27661133 288.739151 C-233.36011475 295.30849942 -233.36011475 295.30849942 -230.97541809 301.26742554 C-226.97487051 303.32470121 -223.58547153 303.51791193 -219.12719727 303.51910782 C-218.1077662 303.52346814 -218.1077662 303.52346814 -217.06774056 303.52791655 C-214.78581851 303.53522714 -212.50416445 303.52826834 -210.22224426 303.52139282 C-208.5715709 303.52369684 -206.92089857 303.52687296 -205.27022839 303.53084731 C-200.73052086 303.53921211 -196.1908972 303.53506239 -191.65118933 303.52887487 C-186.75678782 303.52435828 -181.86240094 303.5313302 -176.96800232 303.53683472 C-167.37837625 303.54573884 -157.78878145 303.54380217 -148.19915414 303.53800943 C-140.40707406 303.53349696 -132.61500276 303.53287825 -124.82292175 303.53505707 C-123.16088661 303.53551677 -123.16088661 303.53551677 -121.46527499 303.53598575 C-119.21451131 303.53662519 -116.96374764 303.53727361 -114.71298397 303.53793094 C-93.59598142 303.54363721 -72.47899623 303.53707167 -51.36199653 303.5263302 C-33.23345388 303.51739442 -15.10493684 303.51894638 3.02360535 303.52816772 C24.0638442 303.5388651 45.10406785 303.54308786 66.14430904 303.5369432 C68.38690122 303.53630608 70.62949339 303.53567734 72.87208557 303.53505707 C73.97555118 303.53474852 75.07901679 303.53443997 76.21592075 303.53412206 C84.00074714 303.53239352 91.7855639 303.53531365 99.57038879 303.54001617 C109.05445734 303.54561909 118.53849276 303.54412099 128.0225575 303.53345469 C132.86361721 303.52819003 137.70462166 303.52615474 142.545681 303.53275299 C146.97446073 303.53869813 151.4031338 303.53546112 155.83190382 303.52479789 C157.43681144 303.52255775 159.04172802 303.52371383 160.64662993 303.52854946 C162.82333619 303.53460652 164.99967423 303.52841797 167.17636108 303.51910782 C168.38685718 303.51878311 169.59735327 303.51845841 170.84453106 303.51812387 C174.02097059 303.26771023 176.2109836 302.74182023 179.02458191 301.26742554 C180.92504213 297.88839001 181.27897504 294.94318614 181.30305481 291.11048889 C181.31421829 290.09391708 181.32538177 289.07734528 181.33688354 288.02996826 C181.34012383 286.3737999 181.34012383 286.3737999 181.34342957 284.68417358 C181.35347519 283.51301498 181.36352081 282.34185638 181.37387085 281.13520813 C181.40474625 277.26652514 181.4217504 273.39791151 181.43864441 269.52914429 C181.45735254 266.8458505 181.47682929 264.16257335 181.49732971 261.47929382 C181.54407583 255.14003582 181.58084004 248.80076095 181.61400259 242.46141893 C181.65225348 235.24252178 181.70165583 228.02371435 181.75198674 220.8048929 C181.85524458 205.95913698 181.94412937 191.11332315 182.02458191 176.26742554 C176.74458191 176.26742554 171.46458191 176.26742554 166.02458191 176.26742554 C166.03346436 177.61157532 166.0423468 178.9557251 166.05149841 180.34060669 C166.13251264 192.99519889 166.19251302 205.64973861 166.2318306 218.3045311 C166.25272356 224.81082703 166.28107299 231.31691396 166.32633972 237.8230896 C166.36973561 244.09950063 166.39370613 250.37571037 166.40409088 256.65225983 C166.41149344 259.04932068 166.4259485 261.44637026 166.44750214 263.84334564 C166.47645207 267.19556159 166.48054132 270.54694105 166.47868347 273.89926147 C166.49306458 274.89476013 166.50744568 275.89025879 166.52226257 276.91592407 C166.51676392 277.83015137 166.51126526 278.74437866 166.50559998 279.68630981 C166.50928715 280.47905178 166.51297432 281.27179375 166.51677322 282.0885582 C165.81473278 285.19640053 164.49638799 286.28764794 162.02458191 288.26742554 C159.12146759 288.76882219 159.12146759 288.76882219 155.6714325 288.7707901 C154.35617836 288.78122109 153.04092422 288.79165208 151.6858139 288.80239916 C150.2225625 288.79375055 148.75931329 288.78472391 147.29606628 288.77536011 C145.74453393 288.77996725 144.19300594 288.78631891 142.64148712 288.79426908 C138.37113699 288.81101135 134.10114311 288.80269397 129.83079147 288.79032421 C125.22812704 288.78129598 120.62552506 288.79523235 116.02287292 288.8062439 C107.00358332 288.82405758 97.98442664 288.82017647 88.96513176 288.80859333 C81.6368742 288.79957047 74.30865397 288.79833003 66.98039246 288.8026886 C65.93855348 288.80330153 64.89671451 288.80391446 63.82330465 288.80454597 C61.7070217 288.80582483 59.59073876 288.80712168 57.47445583 288.80843633 C37.61646364 288.81985048 17.75854524 288.80671535 -2.09943485 288.78523487 C-19.14927873 288.76736314 -36.19901368 288.77046701 -53.24885559 288.78890991 C-73.03437342 288.8103019 -92.81982653 288.81875176 -112.60535431 288.80646086 C-114.71397908 288.80518662 -116.82260385 288.80392914 -118.93122864 288.8026886 C-120.48757263 288.80176295 -120.48757263 288.80176295 -122.07535791 288.80081859 C-129.39728501 288.79736067 -136.71917116 288.80320355 -144.04109192 288.81260681 C-152.96054925 288.82380961 -161.87986573 288.82082302 -170.79930687 288.79948384 C-175.35270824 288.78895021 -179.90587451 288.78489079 -184.45927429 288.79808044 C-188.62417426 288.80996254 -192.78862028 288.80351148 -196.95347881 288.78217024 C-198.46351006 288.77768633 -199.97357933 288.78001035 -201.48358631 288.78967339 C-203.52978771 288.80176754 -205.57609589 288.78701784 -207.62226868 288.7707901 C-208.76078026 288.77014069 -209.89929184 288.76949128 -211.07230377 288.76882219 C-214.65701133 288.14970762 -215.83942964 287.17535863 -217.97541809 284.26742554 C-218.47681475 282.28764343 -218.47681475 282.28764343 -218.47878265 280.16317749 C-218.48921364 279.34953232 -218.49964463 278.53588715 -218.51039171 277.69758606 C-218.50146883 276.8092659 -218.49254594 275.92094574 -218.48335266 275.00570679 C-218.48959262 274.0577272 -218.49583259 273.10974762 -218.50226164 272.13304138 C-218.51824891 268.94841834 -218.50556473 265.76455461 -218.49299622 262.57992554 C-218.49841477 260.30013583 -218.50553592 258.02034962 -218.51423645 255.74057007 C-218.53250428 249.54230194 -218.52538786 243.34429951 -218.51272011 237.14602661 C-218.50261042 230.66695425 -218.51198013 224.18790502 -218.51826477 217.70883179 C-218.52601387 206.12978823 -218.51356399 194.55086622 -218.49322742 182.97184181 C-218.47535614 172.47135137 -218.47846017 161.97103779 -218.49690247 151.47055054 C-218.51830434 139.27924575 -218.52627888 127.08806694 -218.51445341 114.89674377 C-218.50820932 108.44229891 -218.50740808 101.98797591 -218.52059937 95.53353882 C-218.53213284 89.46617472 -218.52417763 83.39914546 -218.50102234 77.33181763 C-218.49572189 75.10172075 -218.4972717 72.87159582 -218.506073 70.64151001 C-218.51695908 67.60367109 -218.50334842 64.56691377 -218.48335266 61.52914429 C-218.49673699 60.19666405 -218.49673699 60.19666405 -218.51039171 58.83726501 C-218.46311019 55.14917918 -218.3663875 52.90801181 -216.41981125 49.71863174 C-213.08187942 47.7369426 -210.12852129 47.72536515 -206.35719299 47.78640747 C-205.58606745 47.78298977 -204.81494191 47.77957207 -204.02044892 47.77605081 C-201.43442342 47.76945783 -198.84943402 47.79147057 -196.26350403 47.81332397 C-194.41072107 47.81445215 -192.55793633 47.81381918 -190.70515442 47.81155396 C-185.67233774 47.81040471 -180.63990118 47.83394815 -175.60717297 47.86184978 C-170.34877631 47.88682833 -165.09037127 47.88920264 -159.83192444 47.89395142 C-149.87300346 47.90639162 -139.91425779 47.93922741 -129.95541406 47.97934937 C-118.61819777 48.02403455 -107.28097318 48.04604595 -95.94369078 48.06613111 C-72.62083267 48.10795908 -49.29814258 48.17913573 -25.97541809 48.26742554 C-25.97541809 42.98742554 -25.97541809 37.70742554 -25.97541809 32.26742554 C-51.96587681 32.3516829 -77.95627368 32.44637787 -103.94664288 32.55495262 C-116.01408301 32.6051008 -128.08151628 32.65154349 -140.14900208 32.68930054 C-150.66550004 32.72221417 -161.18194504 32.76204195 -171.69838458 32.81021559 C-177.26811519 32.83548677 -182.83781063 32.85726629 -188.40758324 32.8707695 C-193.64831478 32.88358415 -198.88892578 32.90563227 -204.12959099 32.93480873 C-206.05448352 32.94388914 -207.97939547 32.94957582 -209.90430832 32.95163918 C-212.53013361 32.95495841 -215.15561644 32.97042675 -217.78137207 32.98895264 C-218.54499752 32.9870179 -219.30862297 32.98508317 -220.09538859 32.9830898 C-224.13941602 33.02581439 -227.3850965 33.33390759 -230.97541809 35.26742554 C-233.51618476 39.39531478 -233.26221736 43.88444548 -233.24665833 48.59017944 C-233.25449844 49.82762657 -233.25449844 49.82762657 -233.26249695 51.09007263 C-233.27271325 52.87537363 -233.27851321 54.66070422 -233.28037834 56.44603348 C-233.2840459 59.27021423 -233.30078104 62.09404509 -233.32113647 64.91815186 C-233.37652681 72.94531771 -233.40729777 80.97253385 -233.43171692 88.99984741 C-233.44756601 93.91403061 -233.4777506 98.82796255 -233.5164814 103.74201584 C-233.52814836 105.61511957 -233.5340619 107.48826817 -233.53416252 109.36140823 C-233.53435397 111.97569402 -233.55257346 114.58928283 -233.57478333 117.20346069 C-233.56791756 118.36771828 -233.56791756 118.36771828 -233.56091309 119.55549622 C-233.63153642 124.76816937 -233.63153642 124.76816937 -235.32077026 127.22064209 C-237.85936338 128.82663777 -239.99519099 129.08861191 -242.97541809 129.26742554 C-246.10898493 128.34159897 -247.66010505 127.58273858 -249.97541809 125.26742554 C-250.18471724 122.38780073 -250.26905281 119.60358877 -250.26594543 116.72201538 C-250.27266266 115.83724518 -250.27937988 114.95247498 -250.28630066 114.04089355 C-250.30536298 111.10332684 -250.30920972 108.16598783 -250.31135559 105.22836304 C-250.31778045 103.18772283 -250.32450858 101.14708356 -250.33152771 99.10644531 C-250.34352293 94.82072822 -250.3472065 90.53509184 -250.34602356 86.24935913 C-250.34582085 80.76828578 -250.37306337 75.28773374 -250.40756798 69.80678368 C-250.42985887 65.58760219 -250.43386034 61.3685454 -250.43280411 57.14931107 C-250.43515906 55.12957598 -250.44397659 53.10983741 -250.45946884 51.09016037 C-250.4791621 48.25614323 -250.47327643 45.42323966 -250.46125793 42.58920288 C-250.47249695 41.76083923 -250.48373596 40.93247559 -250.49531555 40.07901001 C-250.42286725 33.32374949 -248.48390103 28.12998857 -244.01057434 23.02523804 C-243.35959778 22.48640991 -242.70862122 21.94758179 -242.03791809 21.39242554 C-241.38951965 20.83812866 -240.74112122 20.28383179 -240.07307434 19.71273804 C-235.06491136 16.26204846 -230.44877535 15.98570072 -224.50457764 16.03605652 C-223.65374888 16.03520308 -222.80292013 16.03434964 -221.92630869 16.03347033 C-219.07662063 16.03285659 -216.22717223 16.04636922 -213.3775177 16.05966187 C-211.33403602 16.06182323 -209.29055311 16.06300972 -207.24707031 16.06329346 C-202.84744807 16.06534874 -198.44788392 16.07304929 -194.0482769 16.08472633 C-187.09472498 16.10186793 -180.14127722 16.09863982 -173.18771362 16.09107971 C-153.41498699 16.0718819 -133.64239581 16.06529699 -113.8697052 16.11288452 C-102.94879739 16.13900135 -92.02818527 16.14039453 -81.10727507 16.11373729 C-75.32670646 16.10072038 -69.54677898 16.10086368 -63.76626396 16.13160133 C-58.33313987 16.16043518 -52.90100061 16.15717691 -47.46788216 16.12899399 C-45.47158953 16.1244837 -43.47522886 16.1320161 -41.47903442 16.15232277 C-38.75790378 16.17827235 -36.04030983 16.16143802 -33.3192749 16.13371277 C-32.52501962 16.15157595 -31.73076434 16.16943913 -30.91244072 16.18784362 C-28.42316416 16.2085366 -28.42316416 16.2085366 -24.97541809 15.26742554 C-23.05632711 13.04956407 -22.19104959 10.99802436 -20.97541809 8.26742554 C-19.22932434 6.34164429 -19.22932434 6.34164429 -17.53791809 4.95492554 C-16.98233215 4.48441772 -16.42674622 4.01390991 -15.85432434 3.52914429 C-10.69238047 0.06280776 -6.01568529 -0.02208163 0 0 Z M-6.97541809 18.26742554 C-9.21922746 21.63313959 -9.22938064 22.75118043 -9.24284363 26.68843079 C-9.2513736 27.81427078 -9.25990356 28.94011078 -9.26869202 30.10006714 C-9.26778564 31.33599609 -9.26687927 32.57192505 -9.26594543 33.8453064 C-9.27266266 35.14629776 -9.27937988 36.44728912 -9.28630066 37.78770447 C-9.30397975 41.35794824 -9.3086568 44.92809616 -9.30993223 48.49837947 C-9.31183079 51.47807186 -9.31918773 54.45774189 -9.32627642 57.43742567 C-9.34256484 64.46662659 -9.34744492 71.49577628 -9.34602356 78.5249939 C-9.34482163 85.77836851 -9.36593242 93.0314458 -9.39751089 100.28474516 C-9.4236518 106.51073322 -9.4343918 112.73662404 -9.43311274 118.96266657 C-9.4326025 122.68186648 -9.43831935 126.40080214 -9.45946884 130.11994743 C-9.48240715 134.26688891 -9.47334384 138.41316292 -9.46125793 142.56015015 C-9.47249695 143.79405487 -9.48373596 145.02795959 -9.49531555 146.29925537 C-9.48692657 147.42791519 -9.4785376 148.55657501 -9.46989441 149.71943665 C-9.47098394 150.7000151 -9.47207348 151.68059355 -9.47319603 152.6908865 C-8.8305635 156.01720464 -7.5949306 157.18338569 -4.97541809 159.26742554 C-2.17091781 160.20225897 -0.32321151 160.41471497 2.58708191 160.47836304 C3.46622253 160.50672241 4.34536316 160.53508179 5.25114441 160.56430054 C7.09989933 160.61637814 8.9488906 160.66065134 10.79801941 160.69711304 C11.67716003 160.72805054 12.55630066 160.75898804 13.46208191 160.79086304 C14.26516785 160.81068237 15.06825378 160.83050171 15.89567566 160.85092163 C18.02458191 161.26742554 18.02458191 161.26742554 19.77775574 162.32772827 C21.68841851 165.30016135 21.50530065 168.35236065 21.53630066 171.77914429 C21.56322746 172.87148125 21.56322746 172.87148125 21.59069824 173.98588562 C21.64482404 176.30884025 21.67870271 178.6315892 21.71208191 180.95492554 C21.74525315 182.53112605 21.77974264 184.10729941 21.81559753 185.68344116 C21.90055121 189.5446209 21.96735066 193.40573941 22.02458191 197.26742554 C25.62416813 195.16226045 28.59718843 192.99064554 31.64958191 190.14242554 C35.18958559 186.89654679 38.78761556 183.78452302 42.52458191 180.76742554 C46.98209745 177.16494824 51.24604737 173.40823437 55.44255066 169.50570679 C56.29462097 168.76707397 57.14669128 168.02844116 58.02458191 167.26742554 C58.52676176 166.77058352 59.02894161 166.27374151 59.54633904 165.76184368 C65.76501705 160.22789642 71.65229264 160.43499847 79.68913269 160.54208374 C81.05987908 160.53882006 82.4306213 160.5328771 83.80134583 160.5244751 C86.73935449 160.51211907 89.67650293 160.51843054 92.61445999 160.53954506 C97.26283459 160.57274465 101.91054213 160.56327357 106.55897522 160.54823303 C113.91111963 160.52938876 121.26291802 160.53834893 128.61504638 160.55955428 C141.78363851 160.59729706 154.95218272 160.60138913 168.1207999 160.57470196 C172.73895209 160.5666244 177.35668592 160.57517772 181.9747889 160.59726489 C184.84857822 160.60836809 187.72227669 160.60736063 190.59608078 160.60338974 C192.55820164 160.60454796 194.52029557 160.62078233 196.48234558 160.63749695 C204.7607619 160.78802634 204.7607619 160.78802634 212.02458191 157.26742554 C213.79565264 153.69600905 214.27534671 150.80212127 214.27854919 146.84042358 C214.28700867 145.22543472 214.28700867 145.22543472 214.29563904 143.57781982 C214.29159058 142.4067569 214.28754211 141.23569397 214.28337097 140.02914429 C214.28687561 138.78798859 214.29038025 137.54683289 214.29399109 136.26806641 C214.30127831 132.87135494 214.29957998 129.47488757 214.29323292 126.07818985 C214.28816156 122.51976448 214.29286753 118.96134938 214.29600525 115.40292358 C214.29964158 109.42772555 214.29485453 103.45257699 214.2853241 97.47738647 C214.27444016 90.57398482 214.27796598 83.67070131 214.28897691 76.76730251 C214.29805927 70.83510294 214.29933042 64.90293888 214.29409957 58.9707346 C214.29098508 55.42991258 214.29055618 51.88914606 214.29717255 48.34832764 C214.30403404 44.40074081 214.29451771 40.45328581 214.28337097 36.50570679 C214.28944366 34.7491124 214.28944366 34.7491124 214.29563904 32.95703125 C214.28717957 31.34204239 214.28717957 31.34204239 214.27854919 29.69442749 C214.27779514 28.76161453 214.27704109 27.82880157 214.27626419 26.86772156 C213.888958 22.86620532 212.87355512 20.11639875 210.02458191 17.26742554 C205.97857967 15.94812817 201.89240682 16.12550103 197.6807251 16.13371277 C196.83145634 16.13144721 195.98218758 16.12918166 195.1071834 16.12684745 C192.25680052 16.12050908 189.4064652 16.12133671 186.55607605 16.12216187 C184.51436298 16.1191703 182.47265048 16.11576778 180.43093872 16.11198425 C174.88142705 16.10314047 169.3319308 16.100806 163.78241277 16.10016847 C159.15251516 16.09921963 154.52262115 16.09554168 149.89272493 16.09199637 C138.97191304 16.08385062 128.05110938 16.08141227 117.1302948 16.0821228 C105.85702395 16.08272386 94.58380091 16.07216675 83.31054217 16.05637914 C73.63742505 16.04331414 63.96432359 16.03793846 54.29119772 16.03857821 C48.51135576 16.03883348 42.73155629 16.03596656 36.9517231 16.02540016 C31.51727095 16.01573652 26.08290208 16.01562809 20.64844704 16.02291679 C18.65258411 16.02396475 16.65671605 16.02158731 14.66086197 16.01555634 C11.93895012 16.00786331 9.21732778 16.01246337 6.49542236 16.02018738 C5.30738552 16.01247203 5.30738552 16.01247203 4.09534794 16.00460082 C-0.01196723 16.03040384 -3.35337194 16.24162561 -6.97541809 18.26742554 Z M-201.97541809 64.26742554 C-201.97541809 132.90742554 -201.97541809 201.54742554 -201.97541809 272.26742554 C-196.69541809 272.26742554 -191.41541809 272.26742554 -185.97541809 272.26742554 C-185.72791809 270.16367554 -185.48041809 268.05992554 -185.22541809 265.89242554 C-183.24963815 252.36173949 -177.67540405 242.6276609 -167.14729309 233.83383179 C-158.5912635 227.66302627 -149.45833513 225.07102881 -139.03791809 224.64242554 C-138.25867981 224.60375366 -137.47944153 224.56508179 -136.67658997 224.52523804 C-134.7765443 224.43198426 -132.87601531 224.34866591 -130.97541809 224.26742554 C-129.72627653 212.05299262 -129.72627653 212.05299262 -132.35823059 200.44320679 C-134.12599153 198.55656109 -134.12599153 198.55656109 -136.09260559 196.94711304 C-142.20477786 191.49434525 -144.84553099 181.53319565 -145.38948059 173.64633179 C-145.46809693 172.04124823 -145.53830791 170.43573252 -145.60041809 168.82992554 C-145.6584259 167.58952515 -145.6584259 167.58952515 -145.71760559 166.32406616 C-145.81094901 164.30551481 -145.89422771 162.28650222 -145.97541809 160.26742554 C-146.94479309 159.97867554 -147.91416809 159.68992554 -148.91291809 159.39242554 C-151.97541809 158.26742554 -151.97541809 158.26742554 -152.97541809 156.26742554 C-153.26268993 151.06453262 -153.28955069 145.8603116 -153.32551575 140.65023804 C-153.34191541 138.91637602 -153.36898792 137.18257695 -153.407547 135.44906616 C-153.72193092 121.22251024 -152.58106514 108.52794549 -142.85041809 97.22445679 C-134.35885411 88.36138688 -124.647827 81.91199281 -112.06648254 80.97689819 C-110.65738716 80.9505152 -109.24803484 80.93588311 -107.83869934 80.93148804 C-106.69765999 80.92150284 -106.69765999 80.92150284 -105.53356934 80.91131592 C-103.930958 80.90124441 -102.32830518 80.89649718 -100.72566223 80.89682007 C-98.31144003 80.89246794 -95.8990809 80.85615107 -93.48518372 80.81820679 C-78.5480394 80.70824327 -66.87393994 83.85370892 -55.75276184 94.36898804 C-46.8841675 103.75146354 -42.65979429 114.3632773 -42.67463684 127.15805054 C-42.67035172 127.98448059 -42.66606659 128.81091064 -42.66165161 129.66238403 C-42.65594114 131.39693286 -42.65538366 133.13150561 -42.65974426 134.86605835 C-42.66292559 137.52369409 -42.63933181 140.18023789 -42.61408997 142.83773804 C-42.61181881 144.5278408 -42.61111262 146.21794656 -42.61213684 147.90805054 C-42.60292709 148.70181091 -42.59371735 149.49557129 -42.58422852 150.31338501 C-42.63020624 155.76068559 -42.63020624 155.76068559 -44.31062317 158.22738647 C-45.97541809 159.26742554 -45.97541809 159.26742554 -48.97541809 160.26742554 C-49.12237122 162.00765991 -49.12237122 162.00765991 -49.27229309 163.78305054 C-50.52482198 177.37277028 -52.32706879 192.22218658 -63.56233215 201.59066772 C-65.46933136 203.85349954 -65.32163653 205.22541134 -65.26838684 208.15414429 C-65.25388489 209.56083374 -65.25388489 209.56083374 -65.23908997 210.99594116 C-65.21395325 211.97240601 -65.18881653 212.94887085 -65.16291809 213.95492554 C-65.14938293 214.94299194 -65.13584778 215.93105835 -65.12190247 216.94906616 C-65.08654012 219.38906784 -65.03718842 221.82797272 -64.97541809 224.26742554 C-63.91065247 224.28160522 -62.84588684 224.29578491 -61.74885559 224.31039429 C-46.36352954 224.72746638 -34.34347969 228.14639193 -23.04963684 239.14242554 C-14.00034711 248.7536626 -11.26861543 259.33545217 -9.97541809 272.26742554 C42.82458191 272.26742554 95.62458191 272.26742554 150.02458191 272.26742554 C150.02458191 240.58742554 150.02458191 208.90742554 150.02458191 176.26742554 C137.56708191 176.04055054 125.10958191 175.81367554 112.27458191 175.57992554 C108.36388855 175.47978149 104.45319519 175.37963745 100.42399597 175.27645874 C96.87030733 175.23963488 96.87030733 175.23963488 93.31651306 175.21754456 C91.75252187 175.2008227 90.18865879 175.16248532 88.62559509 175.10609436 C80.64423083 174.83293724 74.07421224 174.62062166 67.78718185 180.05230236 C65.41855994 182.35340351 63.2344107 184.81478948 61.02458191 187.26742554 C59.17796395 188.84297726 57.30656572 190.39050216 55.39958191 191.89242554 C51.84274055 194.75624336 48.39919139 197.69088882 45.02458191 200.76742554 C40.743032 204.66343303 36.3397125 208.36383578 31.82145691 211.98226929 C29.89789579 213.55389394 28.01378352 215.17465852 26.16520691 216.83383179 C18.2307585 223.83674965 18.2307585 223.83674965 13.52458191 224.01742554 C10.02458191 223.26742554 10.02458191 223.26742554 8.08708191 221.95492554 C6.26384908 219.05920281 5.89107155 216.49730156 5.81925964 213.16317749 C5.79931442 212.34255325 5.7793692 211.52192902 5.75881958 210.67643738 C5.73375084 209.35442574 5.73375084 209.35442574 5.70817566 208.00570679 C5.67700401 206.64701729 5.67700401 206.64701729 5.64520264 205.26087952 C5.57981633 202.36730537 5.52087287 199.47364047 5.46208191 196.57992554 C5.41888631 194.61832761 5.37527168 192.65673886 5.33122253 190.69515991 C5.22414609 185.88600814 5.12284777 181.07676508 5.02458191 176.26742554 C4.06616394 176.21409058 3.10774597 176.16075562 2.12028503 176.10580444 C0.8615155 176.02765503 -0.39725403 175.94950562 -1.69416809 175.86898804 C-2.94133606 175.79502808 -4.18850403 175.72106812 -5.47346497 175.64486694 C-12.81705026 174.85337344 -17.11522679 171.72480668 -21.74885559 166.14633179 C-25.19446024 160.86819219 -25.27903411 156.09380603 -25.29426575 149.97909546 C-25.304419 149.03683515 -25.31457226 148.09457483 -25.32503319 147.12376118 C-25.35560336 144.08180931 -25.3728068 141.03995073 -25.38948059 137.99789429 C-25.40641978 136.11657916 -25.42423693 134.23527173 -25.44294739 132.35397339 C-25.50607758 125.3877124 -25.55222049 118.42130584 -25.60041809 111.45492554 C-25.72416809 95.88305054 -25.84791809 80.31117554 -25.97541809 64.26742554 C-84.05541809 64.26742554 -142.13541809 64.26742554 -201.97541809 64.26742554 Z M-128.79182434 105.90023804 C-138.98626571 116.88672874 -138.12800318 130.297413 -137.97541809 144.26742554 C-118.30767736 144.92463965 -100.16542469 141.92190525 -82.97541809 131.89242554 C-78.15760122 129.1774525 -75.46833562 128.09680377 -69.97541809 129.26742554 C-67.6854242 130.86711441 -65.72565266 132.58058172 -63.73713684 134.54086304 C-61.88831059 136.45999232 -61.88831059 136.45999232 -58.97541809 138.26742554 C-58.47767256 126.3491854 -58.40648731 116.88109328 -65.97541809 107.01742554 C-71.37986529 101.28754926 -79.62532716 96.736272 -87.59651184 96.28695679 C-88.3815509 96.28051147 -89.16658997 96.27406616 -89.97541809 96.26742554 C-91.18326965 96.23004272 -92.39112122 96.19265991 -93.63557434 96.15414429 C-106.964289 95.84810348 -118.4473102 96.60129844 -128.79182434 105.90023804 Z M-82.10041809 149.95492554 C-92.09537347 155.05513252 -103.56936909 159.07489429 -114.83869934 159.58383179 C-115.72492981 159.62572632 -116.61116028 159.66762085 -117.52424622 159.71078491 C-118.89226379 159.76975952 -118.89226379 159.76975952 -120.28791809 159.82992554 C-121.21926575 159.87310913 -122.1506134 159.91629272 -123.11018372 159.96078491 C-125.39846263 160.06639779 -127.68684181 160.16850306 -129.97541809 160.26742554 C-129.94628506 171.74583915 -128.97157422 181.32649691 -121.11604309 190.41976929 C-119.16510742 192.26535443 -117.20909556 193.77968859 -114.97541809 195.26742554 C-114.3321759 195.69926147 -113.68893372 196.13109741 -113.02619934 196.57601929 C-106.08911395 200.39471963 -97.66120515 200.4948572 -89.97541809 199.26742554 C-80.86663413 196.44411467 -74.40577463 191.27581076 -69.70198059 183.03695679 C-67.36070942 178.21327398 -66.25712364 173.61983094 -65.97541809 168.26742554 C-65.79366028 166.8559021 -65.79366028 166.8559021 -65.60823059 165.41586304 C-65.20753645 160.61967562 -65.08890824 157.53463418 -67.91291809 153.49789429 C-70.16767855 151.20338645 -72.35846789 149.13802532 -74.97541809 147.26742554 C-77.84539305 147.26742554 -79.57852144 148.59090242 -82.10041809 149.95492554 Z M-112.97541809 214.26742554 C-113.1108109 217.16483175 -113.20968638 220.05588175 -113.28791809 222.95492554 C-113.32981262 223.77154663 -113.37170715 224.58816772 -113.41487122 225.42953491 C-113.50319775 229.79286583 -113.4429305 231.65829147 -110.70588684 235.22445679 C-104.59085564 239.79979487 -99.54393813 240.06984716 -91.97541809 239.26742554 C-88.26147114 238.0662364 -85.74282503 236.24282127 -83.30354309 233.14242554 C-81.56768361 229.38480031 -81.64689853 226.00110226 -81.78791809 221.95492554 C-81.80145325 221.21435913 -81.8149884 220.47379272 -81.82893372 219.71078491 C-81.8640583 217.89601479 -81.91785837 216.08162266 -81.97541809 214.26742554 C-82.75787903 214.42984741 -83.54033997 214.59226929 -84.34651184 214.75961304 C-88.9344694 215.40163078 -93.41199989 215.41272949 -98.03791809 215.39242554 C-98.9228595 215.39629272 -99.8078009 215.40015991 -100.71955872 215.40414429 C-104.92946332 215.39782785 -108.87290991 215.34209504 -112.97541809 214.26742554 Z M-162.35041809 251.51742554 C-167.41549028 258.02143868 -168.97541809 264.08847725 -168.97541809 272.26742554 C-122.11541809 272.26742554 -75.25541809 272.26742554 -26.97541809 272.26742554 C-26.97541809 263.0955551 -28.86025721 257.0900145 -34.83869934 250.08383179 C-41.10896424 244.24079936 -48.4054019 240.85846114 -56.97541809 240.26742554 C-58.24385559 240.06826538 -58.24385559 240.06826538 -59.53791809 239.86508179 C-62.63070341 239.55150772 -64.9482446 239.52023885 -67.97541809 240.26742554 C-70.63514485 242.55881654 -72.66972286 245.02604735 -74.84260559 247.77914429 C-78.61219284 252.17699608 -83.35661202 254.08398235 -88.97541809 255.26742554 C-101.34976741 256.00891405 -111.50348075 256.06992709 -121.41291809 247.76742554 C-123.3990655 245.9429895 -124.92374582 244.34809169 -126.38166809 242.07211304 C-127.84560309 240.04585481 -127.84560309 240.04585481 -130.32307434 239.80648804 C-142.74927033 240.19983525 -153.43786532 242.04503905 -162.35041809 251.51742554 Z " fill="#000000" transform="translate(265.9754180908203,15.732574462890625)"/>
<path d="M0 0 C9.73524611 7.01198631 15.54075229 15.92585476 18.04296875 27.65234375 C20.043757 41.2522963 17.960247 54.34436437 11.58203125 66.4921875 C12.94134766 66.91177734 12.94134766 66.91177734 14.328125 67.33984375 C28.01320935 71.84361225 38.67842467 79.55548652 45.45703125 92.6171875 C49.870292 102.22861779 50.65953714 111.70705598 50.83203125 122.1171875 C50.85346191 122.83374512 50.87489258 123.55030273 50.89697266 124.28857422 C50.92884099 129.40757259 49.98645758 132.9517902 47.58203125 137.4921875 C44.99068502 138.78786062 43.10829385 138.62690143 40.20535278 138.63935852 C38.49341232 138.65009148 38.49341232 138.65009148 36.74688721 138.66104126 C35.4886615 138.66373016 34.23043579 138.66641907 32.93408203 138.66918945 C31.60039085 138.67545342 30.26670142 138.68210016 28.93301392 138.68910217 C25.30488639 138.70651623 21.67677204 138.7170647 18.04861307 138.7253077 C15.78283236 138.73045628 13.51705574 138.73653203 11.25127792 138.74281883 C4.16488167 138.76187078 -2.92150415 138.77610274 -10.0079211 138.7844308 C-18.19327627 138.79420877 -26.37836141 138.8205426 -34.5636214 138.86093169 C-40.88724115 138.89106629 -47.21078337 138.90589707 -53.53447354 138.90921181 C-57.31294866 138.91156507 -61.09113531 138.92056088 -64.86953354 138.94567299 C-68.42367286 138.96891313 -71.97733294 138.97320375 -75.53152847 138.96291161 C-77.45831648 138.96217834 -79.38507993 138.98129754 -81.31176758 139.00097656 C-82.45870087 138.99403275 -83.60563416 138.98708893 -84.787323 138.97993469 C-85.78394896 138.98232305 -86.78057491 138.9847114 -87.80740166 138.98717213 C-91.1345386 138.35632006 -92.30902964 137.0802518 -94.41796875 134.4921875 C-98.85576976 123.94947504 -95.38421305 105.45071771 -91.73046875 95.2421875 C-86.29930286 82.90225912 -75.78628666 73.51681665 -63.41796875 68.4921875 C-61.08772638 67.69740841 -58.81575124 67.06557027 -56.41796875 66.4921875 C-56.75570312 65.83734375 -57.0934375 65.1825 -57.44140625 64.5078125 C-64.124846 50.83187221 -65.14478063 36.2238261 -61.41796875 21.4921875 C-57.60061549 10.93651026 -50.61724198 3.29575639 -41.0078125 -2.31640625 C-28.23584292 -8.19189753 -11.89463151 -7.4173308 0 0 Z M-40.41796875 18.4921875 C-46.39499641 26.31924753 -47.22151542 35.10219272 -46.1796875 44.68359375 C-44.9637846 51.74565608 -41.99060272 57.72065048 -36.2578125 62.16796875 C-29.62514011 65.99658452 -22.92870748 66.75472886 -15.41796875 65.4921875 C-8.2083376 62.94352835 -4.01281434 58.62022045 -0.46875 51.94140625 C0.90938835 48.72916556 1.45267553 45.98479199 1.58203125 42.4921875 C1.67484375 40.5740625 1.67484375 40.5740625 1.76953125 38.6171875 C1.58792783 30.04880797 -0.55353512 22.93058697 -6.41796875 16.4921875 C-17.46831948 8.05373785 -30.2781966 9.25634853 -40.41796875 18.4921875 Z M-70.79296875 93.8046875 C-77.87210662 103.06973479 -77.63577439 109.97707768 -78.41796875 122.4921875 C-41.45796875 122.4921875 -4.49796875 122.4921875 33.58203125 122.4921875 C32.59175413 104.38605896 32.59175413 104.38605896 22.76953125 90.4921875 C13.08059931 82.91115297 3.17076204 82.33707812 -8.6875 82.32421875 C-9.76368088 82.32089035 -10.83986176 82.31756195 -11.94865417 82.31413269 C-14.21877619 82.30908539 -16.48890558 82.30672368 -18.7590332 82.30688477 C-22.20862217 82.30470133 -25.65788951 82.28653025 -29.10742188 82.26757812 C-31.3216135 82.26464303 -33.53580663 82.26265901 -35.75 82.26171875 C-36.77011673 82.25453323 -37.79023346 82.24734772 -38.84126282 82.23994446 C-51.19439446 82.27881779 -62.06867666 84.37894479 -70.79296875 93.8046875 Z " fill="#000000" transform="translate(278.41796875,357.5078125)"/>
<path d="M0 0 C9.73524611 7.01198631 15.54075229 15.92585476 18.04296875 27.65234375 C20.043757 41.2522963 17.960247 54.34436437 11.58203125 66.4921875 C12.33226562 66.69972656 13.0825 66.90726562 13.85546875 67.12109375 C27.62741532 71.26655374 38.17482358 79.348002 45.296875 91.8828125 C50.15518079 101.74709294 50.65545697 111.89024073 50.83203125 122.6796875 C50.8642981 123.83887695 50.8642981 123.83887695 50.8972168 125.02148438 C50.92520261 129.91741753 50.29965309 133.2508505 47.58203125 137.4921875 C44.99068502 138.78786062 43.10829385 138.62690143 40.20535278 138.63935852 C38.49341232 138.65009148 38.49341232 138.65009148 36.74688721 138.66104126 C35.4886615 138.66373016 34.23043579 138.66641907 32.93408203 138.66918945 C31.60039085 138.67545342 30.26670142 138.68210016 28.93301392 138.68910217 C25.30488639 138.70651623 21.67677204 138.7170647 18.04861307 138.7253077 C15.78283236 138.73045628 13.51705574 138.73653203 11.25127792 138.74281883 C4.16488167 138.76187078 -2.92150415 138.77610274 -10.0079211 138.7844308 C-18.19327627 138.79420877 -26.37836141 138.8205426 -34.5636214 138.86093169 C-40.88724115 138.89106629 -47.21078337 138.90589707 -53.53447354 138.90921181 C-57.31294866 138.91156507 -61.09113531 138.92056088 -64.86953354 138.94567299 C-68.42367286 138.96891313 -71.97733294 138.97320375 -75.53152847 138.96291161 C-77.45831648 138.96217834 -79.38507993 138.98129754 -81.31176758 139.00097656 C-82.45870087 138.99403275 -83.60563416 138.98708893 -84.787323 138.97993469 C-85.78394896 138.98232305 -86.78057491 138.9847114 -87.80740166 138.98717213 C-91.1345386 138.35632006 -92.30902964 137.0802518 -94.41796875 134.4921875 C-98.85576976 123.94947504 -95.38421305 105.45071771 -91.73046875 95.2421875 C-86.29930286 82.90225912 -75.78628666 73.51681665 -63.41796875 68.4921875 C-61.08772638 67.69740841 -58.81575124 67.06557027 -56.41796875 66.4921875 C-56.76730469 65.74453125 -57.11664063 64.996875 -57.4765625 64.2265625 C-57.93160156 63.24171875 -58.38664062 62.256875 -58.85546875 61.2421875 C-59.30792969 60.26765625 -59.76039063 59.293125 -60.2265625 58.2890625 C-62.93565054 51.9293673 -62.6733557 45.7642161 -62.73046875 38.9296875 C-62.75947266 37.79982422 -62.78847656 36.66996094 -62.81835938 35.50585938 C-62.90776407 23.56001698 -59.72446568 14.19344864 -51.41796875 5.4921875 C-37.63784493 -7.66275112 -16.31305228 -10.17259803 0 0 Z M-40.41796875 18.4921875 C-46.40185786 26.30961982 -47.22075246 35.10920944 -46.1796875 44.68359375 C-44.96960724 51.71183768 -41.90621502 57.47513578 -36.48046875 62.16796875 C-30.20457013 66.26345406 -23.70626566 66.56243498 -16.41796875 65.4921875 C-9.50428866 63.50735352 -5.16710537 60.07334395 -1.53515625 53.88671875 C2.60595785 45.01083433 2.81858603 34.70151486 -0.41796875 25.4921875 C-3.79277372 18.47945717 -8.12544742 14.2626002 -15.41796875 11.4921875 C-24.81788353 8.81914205 -33.38417794 12.19527001 -40.41796875 18.4921875 Z M-70.79296875 93.8046875 C-77.87210662 103.06973479 -77.63577439 109.97707768 -78.41796875 122.4921875 C-41.45796875 122.4921875 -4.49796875 122.4921875 33.58203125 122.4921875 C32.59175413 104.38605896 32.59175413 104.38605896 22.76953125 90.4921875 C13.08059931 82.91115297 3.17076204 82.33707812 -8.6875 82.32421875 C-9.76368088 82.32089035 -10.83986176 82.31756195 -11.94865417 82.31413269 C-14.21877619 82.30908539 -16.48890558 82.30672368 -18.7590332 82.30688477 C-22.20862217 82.30470133 -25.65788951 82.28653025 -29.10742188 82.26757812 C-31.3216135 82.26464303 -33.53580663 82.26265901 -35.75 82.26171875 C-36.77011673 82.25453323 -37.79023346 82.24734772 -38.84126282 82.23994446 C-51.19439446 82.27881779 -62.06867666 84.37894479 -70.79296875 93.8046875 Z " fill="#000000" transform="translate(446.41796875,357.5078125)"/>
<path d="M0 0 C9.08680905 6.54493784 14.74222063 14.67653914 17.58203125 25.4921875 C18.10977151 29.86450714 18.14374329 34.15513365 18.08203125 38.5546875 C18.10523438 40.21467773 18.10523438 40.21467773 18.12890625 41.90820312 C18.09396221 49.30323608 16.7332193 54.84414536 13.58203125 61.4921875 C12.90596357 63.15506294 12.23682075 64.82081892 11.58203125 66.4921875 C12.94134766 66.91177734 12.94134766 66.91177734 14.328125 67.33984375 C28.01320935 71.84361225 38.67842467 79.55548652 45.45703125 92.6171875 C49.43073532 100.87026518 49.95479673 108.58583477 49.95263672 117.61791992 C49.95704375 119.68555101 49.99353433 121.7511 50.03125 123.81835938 C50.03511719 125.12740234 50.03898438 126.43644531 50.04296875 127.78515625 C50.05118652 128.9764917 50.0594043 130.16782715 50.06787109 131.39526367 C49.47177147 135.19502433 48.5611861 136.13245749 45.58203125 138.4921875 C42.97705078 138.99555206 42.97705078 138.99555206 39.96484375 139.00012207 C38.2487793 139.01704102 38.2487793 139.01704102 36.49804688 139.03430176 C35.24701172 139.02620483 33.99597656 139.01810791 32.70703125 139.00976562 C31.3730391 139.01518718 30.03905295 139.02231004 28.70507812 139.03100586 C25.08517777 139.04923863 21.46573351 139.04217224 17.8458252 139.02948952 C14.05736055 139.01936145 10.26893493 139.02875465 6.48046875 139.03503418 C0.11841827 139.04231118 -6.24344647 139.03272163 -12.60546875 139.01367188 C-19.96057012 138.99190286 -27.31522798 138.99895421 -34.6703186 139.0209775 C-40.98552242 139.03913012 -47.30059273 139.04169055 -53.61581421 139.03122282 C-57.38750478 139.02498706 -61.15898689 139.02415432 -64.93066406 139.03736877 C-68.47669228 139.04892485 -72.02214878 139.04090694 -75.56811523 139.01779175 C-77.49006362 139.00998064 -79.41206037 139.02186272 -81.33398438 139.03430176 C-82.47802734 139.02302246 -83.62207031 139.01174316 -84.80078125 139.00012207 C-85.79480957 138.99861397 -86.78883789 138.99710587 -87.81298828 138.99555206 C-91.15738594 138.34930873 -92.34721475 137.14869102 -94.41796875 134.4921875 C-94.93554688 131.47460938 -94.93554688 131.47460938 -94.94921875 127.9609375 C-94.954375 126.67445313 -94.95953125 125.38796875 -94.96484375 124.0625 C-94.95646484 123.39250977 -94.94808594 122.72251953 -94.93945312 122.03222656 C-94.91833312 120.02678606 -94.94120431 118.02103739 -94.96484375 116.015625 C-94.90445677 100.82830051 -90.37936851 89.69587355 -79.98046875 78.6796875 C-73.02238423 72.12184678 -65.51161084 69.20512406 -56.41796875 66.4921875 C-56.75570312 65.83734375 -57.0934375 65.1825 -57.44140625 64.5078125 C-64.124846 50.83187221 -65.14478063 36.2238261 -61.41796875 21.4921875 C-57.60061549 10.93651026 -50.61724198 3.29575639 -41.0078125 -2.31640625 C-28.23584292 -8.19189753 -11.89463151 -7.4173308 0 0 Z M-41.328125 19.87109375 C-44.40023586 24.62814484 -46.20549905 28.75550548 -46.41796875 34.4921875 C-46.47984375 35.7709375 -46.54171875 37.0496875 -46.60546875 38.3671875 C-46.42471981 46.89525124 -44.34157288 54.13844614 -38.41796875 60.4921875 C-32.59535029 64.93685533 -26.63482495 66.32857232 -19.37890625 65.96484375 C-13.35767053 65.00367024 -8.52047217 62.93725767 -4.5 58.26171875 C1.94028283 48.8842998 1.73518723 38.5580919 0.58203125 27.4921875 C-1.2214863 21.29036827 -4.7493668 17.59438066 -9.91796875 13.8671875 C-20.80895897 8.1264547 -33.59834294 10.24443265 -41.328125 19.87109375 Z M-70.79296875 93.8046875 C-77.87210662 103.06973479 -77.63577439 109.97707768 -78.41796875 122.4921875 C-41.45796875 122.4921875 -4.49796875 122.4921875 33.58203125 122.4921875 C32.59175413 104.38605896 32.59175413 104.38605896 22.76953125 90.4921875 C13.08059931 82.91115297 3.17076204 82.33707812 -8.6875 82.32421875 C-9.76368088 82.32089035 -10.83986176 82.31756195 -11.94865417 82.31413269 C-14.21877619 82.30908539 -16.48890558 82.30672368 -18.7590332 82.30688477 C-22.20862217 82.30470133 -25.65788951 82.28653025 -29.10742188 82.26757812 C-31.3216135 82.26464303 -33.53580663 82.26265901 -35.75 82.26171875 C-36.77011673 82.25453323 -37.79023346 82.24734772 -38.84126282 82.23994446 C-51.19439446 82.27881779 -62.06867666 84.37894479 -70.79296875 93.8046875 Z " fill="#000000" transform="translate(110.41796875,357.5078125)"/>
<path d="M0 0 C1.95113955 1.26277526 3.90298817 2.52445547 5.85546875 3.78515625 C6.86270996 4.43758301 7.86995117 5.09000977 8.90771484 5.76220703 C14.00893247 9.04138861 19.1622449 12.23612347 24.3125 15.4375 C31.54107562 19.94740745 38.76284337 24.46716527 45.9375 29.0625 C46.64753174 29.51262451 47.35756348 29.96274902 48.08911133 30.42651367 C52.88326915 33.51653831 52.88326915 33.51653831 54 35.75 C54.55910987 41.43428373 54.55910987 41.43428373 54 43.75 C50.80183482 47.27568812 47.55833471 49.86607793 43.4921875 52.31640625 C42.43257813 52.9606958 41.37296875 53.60498535 40.28125 54.26879883 C39.1571875 54.94322021 38.033125 55.6176416 36.875 56.3125 C35.10805079 57.38358991 33.34270689 58.45729156 31.57745361 59.53117371 C30.39625198 60.24958383 29.21457066 60.96720586 28.03240967 61.68403625 C22.9819613 64.74897564 17.98445769 67.89182373 13 71.0625 C11.49366077 72.01199038 9.98715239 72.96121247 8.48046875 73.91015625 C5.34020492 75.89140617 2.22367639 77.90582574 -0.88671875 79.93359375 C-2.48663018 80.95627533 -4.08687909 81.97842919 -5.6875 83 C-6.40615234 83.47864502 -7.12480469 83.95729004 -7.86523438 84.45043945 C-12.81013729 87.57112736 -16.14206904 88.60875428 -22 87.75 C-24.20080566 86.24511719 -24.20080566 86.24511719 -26 83.75 C-26.39455787 80.8021473 -26.54732315 78.22822717 -26.51757812 75.28125 C-26.5245874 74.42877686 -26.53159668 73.57630371 -26.53881836 72.69799805 C-26.55641568 69.8816668 -26.5447696 67.06634136 -26.53125 64.25 C-26.53394442 62.29231575 -26.53782642 60.3346328 -26.54284668 58.37695312 C-26.54874408 54.27460993 -26.54017093 50.17261518 -26.52148438 46.0703125 C-26.49869475 40.81079372 -26.51181653 35.55209136 -26.53577423 30.29260254 C-26.55022563 26.2502629 -26.54562923 22.20811695 -26.53526306 18.16577148 C-26.53259396 16.22648014 -26.53587197 14.28717123 -26.54518127 12.34790039 C-26.55533602 9.6377095 -26.53986128 6.92884225 -26.51757812 4.21875 C-26.52567505 3.41655029 -26.53377197 2.61435059 -26.54211426 1.7878418 C-26.4873374 -1.8066936 -26.31800431 -3.83648033 -24.09411621 -6.72833252 C-16.07624908 -12.55443119 -6.90635823 -4.53935806 0 0 Z M-9 15.75 C-9 31.59 -9 47.43 -9 63.75 C-0.49499757 59.16530846 -0.49499757 59.16530846 7.7109375 54.20703125 C9.11279297 53.30887695 9.11279297 53.30887695 10.54296875 52.39257812 C11.94482422 51.48668945 11.94482422 51.48668945 13.375 50.5625 C15.27830477 49.33931288 17.18193924 48.11663861 19.0859375 46.89453125 C19.9114209 46.36190674 20.7369043 45.82928223 21.58740234 45.28051758 C23.29648131 44.19630223 25.04107566 43.16716785 26.80712891 42.1784668 C27.53077637 41.70707275 28.25442383 41.23567871 29 40.75 C29 40.09 29 39.43 29 38.75 C26.91611096 37.16439668 26.91611096 37.16439668 24.20703125 35.5546875 C23.18939697 34.9244165 22.1717627 34.29414551 21.12329102 33.64477539 C20.03072998 32.97824951 18.93816895 32.31172363 17.8125 31.625 C16.71800537 30.95009521 15.62351074 30.27519043 14.49584961 29.57983398 C12.32133768 28.23984966 10.14501778 26.90279435 7.96679688 25.56884766 C5.48740626 24.04881309 3.01448906 22.51950534 0.546875 20.98046875 C-3.99811074 17.52749174 -3.99811074 17.52749174 -9 15.75 Z " fill="#000000" transform="translate(354,64.25)"/>
<path d="M0 0 C2.56212287 3.84318431 2.33108539 7.04693955 2.3125 11.5 C2.32861328 12.27214844 2.34472656 13.04429687 2.36132812 13.83984375 C2.36626603 19.5381892 2.36626603 19.5381892 0.65698242 21.69335938 C-1.81992452 23.64656491 -3.88544891 23.81312693 -7 24 C-10.13356684 23.07417343 -11.68468695 22.31531305 -14 20 C-14.2526603 17.16197848 -14.37028432 14.46384221 -14.375 11.625 C-14.39949219 10.85671875 -14.42398437 10.0884375 -14.44921875 9.296875 C-14.46877353 5.52931997 -14.45895893 3.6191063 -12.1640625 0.5234375 C-7.6609809 -2.64660189 -4.99013763 -1.8145955 0 0 Z " fill="#000000" transform="translate(30,161)"/>
</svg>
