<?xml version="1.0" encoding="UTF-8"?>
<svg id="Layer_1" data-name="Layer 1" xmlns="http://www.w3.org/2000/svg" version="1.1" viewBox="0 0 100 100">
  <defs>
    <style>
      .cls-1 {
        fill: #000;
        stroke-width: 0px;
      }
    </style>
  </defs>
  <path class="cls-1" d="M51.23.79c5.33.17,10.61.49,15.71,2.19,9.78,3.25,17.27,9.43,22.84,17.99,12.12,18.63,11.27,43.87-2.23,61.45-7.75,10.09-17.93,16.08-30.85,16.66-6.75.3-13.51.22-20.13-1.46-15.58-3.96-26.27-13.47-31.52-28.64C.14,54.81.57,40.56,6.68,26.83,13.16,12.27,24.63,3.94,40.43,1.73c3.57-.5,7.2-.63,10.8-.94ZM95.05,49.11c-.15-1.64-.26-4.37-.69-7.05-1.79-11.24-6.56-20.96-15.21-28.52-8.37-7.3-18.12-10.53-29.2-8.89-10.14,1.5-18.18,6.73-24.36,14.75-8.91,11.57-11.79,24.77-9.6,39.07,1.77,11.54,6.88,21.41,15.96,28.93,8.56,7.1,18.41,9.97,29.45,8.03,8.67-1.52,15.79-5.93,21.56-12.48,8.24-9.35,11.85-20.44,12.09-33.85ZM5.59,45.04h6.65c.06-.64.12-1.21.18-1.84h-6.64c-.07.62-.13,1.19-.19,1.84ZM11.98,47.21h-6.52v1.87h6.52v-1.87ZM7,37.11c1.67,0,3.34,0,5.01,0,1.77,0,1.81-.05,1.89-1.96-1.67,0-3.33,0-4.99,0q-1.78,0-1.9,1.96ZM12.96,39.13c-1.7,0-3.39,0-5.09,0-1.65,0-1.75.12-1.62,1.99,1.66,0,3.32,0,4.99,0q1.7,0,1.72-2ZM5.46,53.06h6.52v-1.8h-6.64c.04.65.08,1.2.12,1.8ZM11.6,25.13c1.74,0,3.36,0,4.99,0,1.65,0,1.88-.19,2.31-1.97-1.58,0-3.14.11-4.68-.03-1.47-.14-2.21.48-2.62,2ZM5.33,55.2c.38.78.62,1.8.92,1.82,2.02.14,4.05.07,6.19.07-.09-.73-.16-1.3-.24-1.89h-6.87ZM7.09,63.15c-.09.11-.17.22-.26.34.35.53.66,1.5,1.05,1.53,2.01.16,4.04.07,6.06.07.08-.1.16-.21.24-.31-.37-.54-.71-1.52-1.12-1.55-1.98-.16-3.98-.07-5.97-.07ZM8.32,67.16c-.09.11-.18.21-.28.32.4.54.76,1.51,1.2,1.55,1.97.17,3.97.07,6.13.07-.45-.8-.14-1.89-1.26-1.92-1.93-.06-3.86-.02-5.8-.02ZM9.88,71.15c-.08.12-.16.24-.24.35.47.54.9,1.49,1.42,1.54,1.9.19,3.84.07,5.76.07.08-.11.17-.21.25-.32-.47-.55-.9-1.52-1.42-1.57-1.9-.19-3.84-.08-5.76-.08ZM14.1,21.12c1.76,0,3.39,0,5.02,0,1.4,0,1.94-.45,2.31-1.97-1.46,0-2.92.12-4.35-.03-1.52-.16-2.35.52-2.97,2ZM18.87,77.12c.07-.09.15-.18.22-.27-.45-.56-.87-1.56-1.37-1.61-1.92-.19-3.87-.08-5.81-.08-.06.12-.12.23-.17.35.53.53,1.02,1.46,1.61,1.53,1.82.2,3.68.07,5.52.07ZM24.79,15.15c-1.61,0-3.02.11-4.42-.03-1.54-.15-2.23.79-3.12,2.01,1.59,0,3-.13,4.37.03,1.58.19,2.35-.67,3.17-2.01ZM14.57,79.16c-.05.09-.11.19-.16.28.55.56,1.04,1.52,1.65,1.59,1.78.21,3.6.08,5.41.08l.18-.34c-.55-.54-1.05-1.47-1.65-1.54-1.79-.21-3.61-.07-5.42-.07ZM8.13,33.12c1.72,0,3.42,0,5.13,0,1.65,0,1.69-.05,1.94-1.95-1.68,0-3.34,0-5,0-1.76,0-1.78.02-2.06,1.95ZM9.65,29.12c1.73,0,3.43,0,5.13,0,1.59,0,1.82-.21,2.04-1.97-1.68,0-3.34,0-5.01,0-1.71,0-1.72.01-2.16,1.96ZM6.27,59.17c-.11,1.85-.02,1.95,1.56,1.96.67,0,1.34,0,2.01,0,1.06,0,2.11,0,3.17,0,.07-.11.15-.22.22-.34-.32-.54-.62-1.52-.98-1.54-1.99-.15-3.99-.07-5.98-.07ZM24.56,85.14c.07-.08.15-.15.22-.23-.59-.58-1.13-1.57-1.79-1.66-1.68-.24-3.42-.08-5.14-.08-.05.13-.1.26-.15.39.8.53,1.54,1.36,2.41,1.51,1.44.25,2.96.07,4.44.07ZM21.54,13.11c1.52,0,2.92-.07,4.31.02,1.49.09,1.99-1.05,2.76-1.89-2.46.1-5.16-.94-7.07,1.87ZM33.95,7.25c-2.5-.45-4.71.08-6.76,1.8,2.52.11,4.95.5,6.76-1.8ZM22.1,87.13c1.78,1.99,4.29,2.6,6.52,1.79-1.51-2.66-4.07-1.53-6.52-1.79ZM28.01,91.32c1.97,1.14,3.7,2.31,5.95,1.68-1.57-1.77-3.51-2.21-5.95-1.68ZM36.03,4.79c2.32.75,3.96-.79,5.82-1.6-1.94.53-3.88,1.07-5.82,1.6Z"/>
  <path class="cls-1" d="M18.73,49.99c.3-12.64,4.32-23.88,13.77-32.79,10.17-9.6,24.24-11.87,36.72-5.87,8.16,3.92,14.03,10.27,17.7,18.44,7.07,15.72,6.32,31.16-2.88,45.84-5.37,8.57-13.09,14.3-23.22,16.1-11.22,1.99-20.91-1.43-28.98-9.27-9.06-8.81-12.84-19.86-13.11-32.43ZM88.4,50.05c-.24-11.36-3.63-21.75-12.08-30-8.06-7.87-17.69-10.92-28.75-7.99-8.75,2.32-15.17,7.92-19.59,15.64-7.37,12.87-8.02,26.33-2.47,40.02,2.92,7.2,7.63,13.08,14.33,17.13,12.3,7.44,27.05,5.34,37.08-5.18,7.84-8.22,11.21-18.2,11.48-29.63Z"/>
  <path class="cls-1" d="M60.52,62.52h-4.69v-25c2.38,0,4.69-.03,6.99.04.28,0,.7.57.8.94,1.33,4.93,2.62,9.87,3.92,14.81.07.25.15.49.3.96.17-.49.28-.77.36-1.06,1.27-4.87,2.56-9.73,3.78-14.61.21-.85.56-1.13,1.43-1.1,2.11.06,4.23.02,6.42.02v24.99h-4.58v-18.38l-.29-.06c-.1.34-.21.69-.3,1.03-1.36,5.42-2.73,10.84-4.05,16.27-.22.91-.55,1.32-1.55,1.24-1.18-.1-2.38-.02-3.67-.02-1.54-6.18-3.07-12.3-4.61-18.43-.09,0-.17,0-.26.01v18.35Z"/>
  <path class="cls-1" d="M30.68,37.74c4.87,0,9.66-.28,14.4.07,5.15.38,7.71,6.06,5.03,10.49-.92,1.52-2.33,2.37-3.99,2.88-.38.12-.77.21-1.38.37,4.02,2.78,5.65,7.13,8.44,11.03-2.15,0-3.99.04-5.82-.04-.3-.01-.64-.46-.85-.77-1.69-2.46-3.38-4.91-5.01-7.41-1.39-2.12-3.41-2.41-5.81-2.18v10.34h-5.01v-24.78ZM35.76,41.84v6.14c2.5,0,4.91.09,7.31-.03,1.83-.1,2.8-1.32,2.77-3.13-.02-1.72-1.02-2.87-2.84-2.95-2.37-.11-4.75-.03-7.25-.03Z"/>
</svg>