<?xml version="1.0" encoding="UTF-8"?>
<svg id="Layer_1" data-name="Layer 1" xmlns="http://www.w3.org/2000/svg" version="1.1" viewBox="0 0 100 100">
  <defs>
    <style>
      .cls-1 {
        fill: #000;
        stroke-width: 0px;
      }
    </style>
  </defs>
  <path class="cls-1" d="M45.36,99.72c-1.81-.5-2.36-1.79-2.35-3.53.01-2.07-.03-4.14-.14-6.21-.07-1.3-.43-1.68-1.74-1.96-2.47-.53-4.99-.86-7.41-1.56-2.51-.73-4.96-1.68-7.34-2.75-2.15-.97-2.52-1.97-1.92-4.23.72-2.69,1.51-5.35,2.28-8.02.12-.4.29-.79.47-1.17.59-1.24,1.23-1.52,2.5-1,1.14.46,2.23,1.04,3.35,1.53,4.07,1.8,8.35,2.79,12.77,3.17,2.66.23,5.24-.21,7.69-1.28,5.27-2.29,6.19-8.27,1.87-12.08-2.3-2.03-5.13-3.12-7.91-4.27-4.31-1.78-8.7-3.38-12.62-5.96-3.81-2.51-7.03-5.56-8.73-9.89-3.75-9.5.35-20.55,9.48-25.49,1.98-1.07,4.12-1.88,6.22-2.71,1.34-.53,2.04-1.35,2.03-2.83,0-2.17.05-4.34.13-6.5.07-1.91.6-2.58,2.48-2.66,2.42-.1,4.86-.08,7.29.06,1.85.11,2.4.74,2.52,2.56.12,1.71.12,3.43.17,5.14.06,2.32.47,2.86,2.74,3.21,3.53.56,6.99,1.35,10.3,2.73.3.12.6.25.89.38,2.02.91,2.54,1.98,1.92,4.11-.78,2.67-1.54,5.34-2.39,7.99-.75,2.32-1.55,2.66-3.77,1.6-4.59-2.18-9.41-3.27-14.49-3.16-1.98.04-3.95.21-5.76,1.16-4.06,2.14-4.62,6.77-1.16,9.79,2.18,1.9,4.8,3.03,7.41,4.19,4.19,1.87,8.55,3.49,12.47,5.84,8.07,4.83,12.08,12.16,11.02,21.6-.94,8.36-5.83,14.12-13.41,17.62-1.2.55-2.49.91-3.75,1.33-1.91.65-2.62,1.59-2.62,3.58,0,2.04-.04,4.08,0,6.12.03,1.73-.49,3.04-2.32,3.52h-8.18Z"/>
</svg>