<?xml version="1.0" encoding="UTF-8"?>
<svg id="Layer_1" data-name="Layer 1" xmlns="http://www.w3.org/2000/svg" version="1.1" viewBox="0 0 100 100">
  <defs>
    <style>
      .cls-1 {
        fill: #000;
        stroke-width: 0px;
      }
    </style>
  </defs>
  <path class="cls-1" d="M26.57,96.25v-13.16c.98,0,1.91,0,2.84,0,8.79,0,17.58.07,26.36-.04,9.97-.12,18.64-3.09,24.68-12.06-.95-.05-1.78-.14-2.6-.14-9.94-.01-19.89.18-29.82-.07-9.36-.23-18.28-2.31-25.78-8.38-1.96-1.59-3.62-3.56-5.55-5.49,22.9,1.28,45.38.23,68.16.69v-11.24c-1.11,0-2.06,0-3.02,0-16.86,0-33.73.16-50.59-.1-9.29-.14-18.04-2.59-25.36-8.73-1.8-1.51-3.32-3.34-5.12-5.18h25.65V4.18c.36-.25.5-.43.63-.43,14.32.14,28.76-1.43,42.86,2.38,13.69,3.7,21.72,13.4,25.98,26.21,5.23,15.72,4.52,31.36-3.9,45.94-6.1,10.55-15.61,16.78-27.88,17.48-12.12.69-24.3.51-36.45.7-.33,0-.66-.12-1.11-.21ZM40.28,32.62h40.85c-2.08-5-7.22-9.79-13.05-12.41-8.89-3.99-18.29-3.44-27.8-3.43v15.84Z"/>
</svg>