<?xml version="1.0" encoding="UTF-8"?>
<svg id="Layer_1" data-name="Layer 1" xmlns="http://www.w3.org/2000/svg" version="1.1" viewBox="0 0 100 100">
  <defs>
    <style>
      .cls-1 {
        fill: #000;
        stroke-width: 0px;
      }
    </style>
  </defs>
  <path class="cls-1" d="M54.92,37.54c-.72,0-1.24,0-1.76,0-9.29,0-18.58.03-27.87-.01-4.34-.02-7.21-3.65-6.22-7.73.69-2.86,3.12-4.65,6.41-4.66,9.34-.02,18.68,0,28.01,0,.57,0,1.13,0,2.02,0-.52-1.13-.85-2.03-1.33-2.84-3.61-6.15-8.99-9.41-16.12-9.61-4.18-.11-8.36-.01-12.55-.03-3.85-.01-6.67-2.66-6.66-6.23,0-3.49,2.79-6.22,6.54-6.23,16.39-.03,32.78-.03,49.17,0,3.76,0,6.54,2.69,6.57,6.2.03,3.56-2.8,6.25-6.64,6.26-3.45.02-6.91,0-10.36,0-.46,0-.93,0-1.43,0,1.15,2.07,2.35,3.96,3.26,5.97.78,1.71,1.31,3.55,1.8,5.37.24.87.56,1.19,1.47,1.16,1.7-.07,3.4-.03,5.11-.02,4,.02,6.82,2.61,6.79,6.23-.03,3.64-2.82,6.15-6.86,6.17-1.7,0-3.41.06-5.11-.02-.98-.05-1.29.33-1.54,1.24-3.59,12.88-11.95,20.66-25.04,23.37-.38.08-.77.1-1.15.16-.37.06-.74.14-1.3.25.49.51.83.89,1.2,1.26,8.38,8.33,16.76,16.67,25.16,24.98,1.84,1.82,2.67,3.93,1.95,6.48-1.23,4.37-6.45,5.99-9.95,3.1-.15-.12-.29-.26-.43-.39-12.45-12.45-24.92-24.88-37.33-37.36-2.83-2.84-2.37-7.41.94-9.47,1.09-.68,2.54-1.04,3.84-1.08,4.18-.14,8.37.12,12.54-.1,7.66-.42,13.15-4.24,16.43-11.19.14-.3.23-.63.44-1.23Z"/>
</svg>