<?xml version="1.0" encoding="UTF-8"?>
<svg id="Layer_1" data-name="Layer 1" xmlns="http://www.w3.org/2000/svg" version="1.1" viewBox="0 0 100 100">
  <defs>
    <style>
      .cls-1 {
        fill: #000;
        stroke-width: 0px;
      }
    </style>
  </defs>
  <path class="cls-1" d="M77.4,17.03c0-3.67-.04-7.26.01-10.84.04-2.92,2.14-5.2,4.93-5.45,3.11-.28,5.85,2.06,5.93,5.21.08,3.21.03,6.42.03,9.62,0,.46,0,.93,0,1.58,1.96,0,3.82-.04,5.68.01,2.69.08,4.88,2.09,5.25,4.75.35,2.52-1.16,5.04-3.61,5.84-.83.27-1.76.36-2.65.36-6.2.03-12.41-.02-18.61.05-3.18.04-5.56,1.61-7.01,4.41-1.46,2.81-1.28,5.64.45,8.28,1.68,2.56,4.18,3.65,7.21,3.72,2.9.06,5.85-.09,8.7.37,9.12,1.45,15.75,9.84,15.56,19.35-.19,9.13-7.32,17.18-16.32,18.34-1.77.23-3.57.24-5.56.36,0,.41,0,.85,0,1.3,0,3.04.02,6.07,0,9.11-.03,3.49-2.37,5.94-5.58,5.89-3.15-.05-5.38-2.5-5.38-5.95,0-3.45,0-6.91,0-10.48-1.78,0-3.44,0-5.1,0-3.39-.02-5.87-2.33-5.87-5.48,0-3.12,2.48-5.47,5.87-5.49,6.37-.03,12.75.08,19.12-.05,5.83-.12,9.57-6.24,7.13-11.52-1.52-3.28-4.23-4.78-7.8-4.87-2.86-.07-5.76.08-8.57-.35-9.09-1.39-15.93-9.81-15.75-19.07.19-9.45,7.2-17.45,16.41-18.66,1.77-.23,3.57-.23,5.53-.35Z"/>
  <path class="cls-1" d="M16.27,82.86c-3.25,0-6.5.01-9.75,0-3.33-.01-5.77-2.29-5.81-5.39-.04-3.17,2.38-5.55,5.77-5.57,6.29-.03,12.58.03,18.87-.03,4.89-.05,8.51-3.98,8.2-8.75-.28-4.34-3.84-7.55-8.45-7.67-2.9-.07-5.85.08-8.7-.36C7.21,53.68.53,45.31.71,35.74c.18-9.13,7.3-17.19,16.31-18.33,2.15-.27,4.35-.23,6.53-.25,5.18-.03,10.35-.04,15.53,0,2.8.02,4.94,1.97,5.37,4.74.39,2.5-1.11,5.03-3.58,5.84-.83.27-1.76.36-2.64.37-6.2.03-12.41-.03-18.61.05-3.46.05-5.96,1.83-7.28,4.98-1.32,3.15-.78,6.14,1.5,8.71,1.69,1.91,3.91,2.65,6.42,2.71,2.9.07,5.85-.09,8.7.37,8.99,1.43,15.8,9.91,15.58,19.09-.23,9.42-7.23,17.56-16.34,18.55-3.93.42-7.94.07-11.91.07,0,.08,0,.15,0,.23Z"/>
</svg>