<?xml version="1.0" encoding="UTF-8"?>
<svg id="Layer_1" data-name="Layer 1" xmlns="http://www.w3.org/2000/svg" version="1.1" viewBox="0 0 100 100">
  <defs>
    <style>
      .cls-1 {
        fill: #000;
        stroke: #000;
        stroke-miterlimit: 10;
        stroke-width: 1.34px;
      }
    </style>
  </defs>
  <path class="cls-1" d="M60.19,40.48v7.03h12.16s-9.76,18.46-9.12,31.75c.64,13.3,9.19,18.1,16.76,19.24,7.57,1.13,13.94.42,15.77-3.89,1.84-4.31-5.38-4.74-8.84-4.88-3.47-.14-9.55.5-13.3-7.14-3.75-7.64-.35-19.52,3.96-24.89,4.31-5.37,5.59-10.6,5.94-17.21-9.19.24-23.34,0-23.34,0Z"/>
  <path class="cls-1" d="M49.87,21.28c8.43-3.43,16.98-10.05,15.65-15.35-1.32-5.3-6.7-5.84-9.82-3.82-3.12,2.03-3.12,5.77-10.13,11.38-7.01,5.61-14.68,7.97-24.69,13.35S4.44,38.74,3.97,49.17c-.68,21.81,12.69,28.13,12.69,28.13,2.56,1.7,20.85,7.47,32.8-6.53,8.86-10.39,6.99-26.79,2.92-33.85-5.06-8.79-12.89-7.53-14.14-9.24-1.25-1.71,3.2-2.96,11.62-6.39ZM45.52,51.36c0,10.14-8.22,18.37-18.37,18.37s-18.37-8.22-18.37-18.37,8.22-18.37,18.37-18.37,18.37,8.22,18.37,18.37Z"/>
</svg>